<?xml version="1.0" encoding="utf-8" ?>
<svg baseProfile="full" height="200mm" version="1.1" viewBox="0,0,200,200" width="200mm" xmlns="http://www.w3.org/2000/svg" xmlns:ev="http://www.w3.org/2001/xml-events" xmlns:xlink="http://www.w3.org/1999/xlink"><defs /><rect fill="#1a1a1a" height="200" width="200" x="0" y="0" /><text alignment-baseline="middle" fill="#e1ed5e" style="dominant-baseline: central; font-size:9.0px; font-family:Arial;" text-anchor="middle" x="100.0" y="100.0">2021</text><line stroke="#e1ed5e" stroke-width="0.3" x1="100.0" x2="100.0" y1="15.0" y2="10.0" /><path d="M 100.0 14.0 a86.0,86.0 0 0,1 42.46469731375804,11.215312516191453" fill="none" id="id37" stroke="none" /><text fill="#e1ed5e" style="font-size:6.75px; font-family:Arial;" text-anchor="middle"><textPath startOffset="22.20632615414155" xlink:href="#id37">January</textPath></text><path d="M 110.05341064243156 81.56283822128135 l 30.131260636894808 -55.25835427575879 a83.93948351260723,83.93948351260723 0 0,0 1.2625933722556046,0.7026318446794044 l -31.07797809822245 54.73150703351921" fill="#4dd3ff" stroke="none" /><line stroke="#e1ed5e" stroke-width="0.3" x1="143.23703022742887" x2="145.7803849466894" y1="26.81831364943548" y2="22.513508569990506" /><path d="M 143.74570117128098 25.957352633546492 a86.0,86.0 0 0,1 28.547481713284135,27.462654790039103" fill="none" id="id38" stroke="none" /><text fill="#e1ed5e" style="font-size:6.75px; font-family:Arial;" text-anchor="middle"><textPath startOffset="19.985693538727396" xlink:href="#id38">February</textPath></text><path d="M 114.94478906791727 85.2469230424477 l 44.71742006163357 -44.14378393126513 a83.83566914371812,83.83566914371812 0 0,0 1.0049730428493535,1.0357130602807127 l -45.47065736818603 43.367506675434306" fill="#4dd4ff" stroke="none" /><path d="M 116.15771136456269 86.58626213691792 l 48.47313409368808 -40.241213589246215 a84.0,84.0 0 0,0 0.9140060316943646,1.1204633215675965 l -49.158638617458855 39.400866098070516" fill="#4dd2ff" stroke="none" /><line stroke="#e1ed5e" stroke-width="0.3" x1="172.23445277983987" x2="176.4835382374775" y1="55.19839476539836" y2="52.563006222186495" /><path d="M 173.08426987136738 54.67131705675599 a86.0,86.0 0 0,1 12.851231095245387,41.99856678651699" fill="none" id="id39" stroke="none" /><text fill="#e1ed5e" style="font-size:6.75px; font-family:Arial;" text-anchor="middle"><textPath startOffset="22.20632615414155" xlink:href="#id39">March</textPath></text><line stroke="#e1ed5e" stroke-width="0.3" x1="184.98032266829074" x2="189.97916517819016" y1="98.17113171792111" y2="98.06355123074" /><path d="M 185.9800911702706 98.14961562048488 a86.0,86.0 0 0,1 -9.607161424134198,41.387399972396054" fill="none" id="id40" stroke="none" /><text fill="#e1ed5e" style="font-size:6.75px; font-family:Arial;" text-anchor="middle"><textPath startOffset="21.466115282336823" xlink:href="#id40">April</textPath></text><line stroke="#e1ed5e" stroke-width="0.3" x1="174.80103733775053" x2="179.2010983576182" y1="140.37084112569926" y2="142.7455964860345" /><path d="M 175.68104954172406 140.8457921977663 a86.0,86.0 0 0,1 -30.038265399797805,32.042727171017184" fill="none" id="id41" stroke="none" /><text fill="#e1ed5e" style="font-size:6.75px; font-family:Arial;" text-anchor="middle"><textPath startOffset="22.206326154141568" xlink:href="#id41">May</textPath></text><path d="M 115.32070863581623 114.36230785411682 l 45.91227943701126 43.04019528294241 a83.93167575312154,83.93167575312154 0 0,0 -0.9971620586756591,1.0455204319200542 l -45.16461082695663 -43.824122831444974" fill="#4dd3ff" stroke="none" /><line stroke="#e1ed5e" stroke-width="0.3" x1="143.8653032363475" x2="146.44561519142675" y1="172.8068346515853" y2="177.08958963109032" /><path d="M 144.38136562736335 173.6633856474863 a86.0,86.0 0 0,1 -40.68145358897372,12.25698825130547" fill="none" id="id42" stroke="none" /><text fill="#e1ed5e" style="font-size:6.75px; font-family:Arial;" text-anchor="middle"><textPath startOffset="21.466115282336833" xlink:href="#id42">June</textPath></text><path d="M 110.21172684928248 118.3499491758327 l 28.967882243787532 52.05379802558631 a80.57126900258609,80.57126900258609 0 0,0 -1.2176896571531182,0.6639814904988455 l -28.067569774765765 -52.54472016784493" fill="#46fff7" stroke="none" /><path d="M 109.2508944713604 118.85261126421891 l 22.869955433758047 46.60720979549204 a72.9159596507961,72.9159596507961 0 0,0 -1.131542264323839,0.5432090505856039 l -22.064300501433976 -46.9939731225772" fill="#36ff71" stroke="none" /><path d="M 101.98527174616119 120.90594882070398 l 5.313106429651993 55.9497868803293 a77.20149243469498,77.20149243469498 0 0,0 -1.3240264847232752,0.11424257631482174 l -4.349235627187177 -56.03295370892278" fill="#3fffbe" stroke="none" /><line stroke="#e1ed5e" stroke-width="0.3" x1="102.19456741930631" x2="102.32365962044197" y1="184.97166512339345" y2="189.96999836594603" /><path d="M 102.22038585953345 185.97133177190398 a86.0,86.0 0 0,1 -42.740103519485714,-10.115201625700543" fill="none" id="id43" stroke="none" /><text fill="#e1ed5e" style="font-size:6.75px; font-family:Arial;" text-anchor="middle"><textPath startOffset="22.20632615414155" xlink:href="#id43">July</textPath></text><path d="M 94.11515582081647 120.15858648285463 l -7.1565149313827074 24.514706042757812 a46.53794271913715,46.53794271913715 0 0,0 -0.7670450768171295,-0.23110438947829062 l 7.577434982640082 -24.3878862841738" fill="#ff0000" stroke="none" /><path d="M 91.07499286063937 119.00905698771935 l -15.35064511699761 32.69479601202507 a57.11913608844947,57.11913608844947 0 0,0 -0.8864001364759947,-0.4255259319560683 l 15.911157921473848 -32.42571580356944" fill="#ffec16" stroke="none" /><path d="M 90.7491055286396 118.85261126421891 l -19.16241054476832 39.05151853199782 a64.49964456798719,64.49964456798719 0 0,0 -0.9925146713331392,-0.4976674604730271 l 19.83177912378422 -38.71588323061549" fill="#85ff25" stroke="none" /><path d="M 90.42595943632237 118.69057910512821 l -20.21980933177146 39.473401359907704 a65.35076216181133,65.35076216181133 0 0,0 -0.9967830308216871,-0.5214697708504924 l 20.896283265119642 -39.1195021701125" fill="#76ff27" stroke="none" /><path d="M 90.10565033884886 118.52300852407294 l -19.69022995509618 36.86167457081458 a62.7910063033807,62.7910063033807 0 0,0 -0.9489730009764492,-0.5174557441053095 l 20.321825767941267 -36.5172781749495" fill="#a4ff21" stroke="none" /><line stroke="#e1ed5e" stroke-width="0.3" x1="58.666819895761336" x2="56.23545636021788" y1="174.27360380694188" y2="178.64263932499728" /><path d="M 58.180547188652646 175.14741091055294 a86.0,86.0 0 0,1 -31.652253787137756,-30.449443065178592" fill="none" id="id44" stroke="none" /><text fill="#e1ed5e" style="font-size:6.75px; font-family:Arial;" text-anchor="middle"><textPath startOffset="22.20632615414155" xlink:href="#id44">August</textPath></text><path d="M 89.7882731507175 118.34994917583269 l -20.7771638125225 37.3354972772824 a63.72739043089756,63.72739043089756 0 0,0 -0.9539420839450622,-0.5416732116230765 l 21.41675466338877 -36.97232089986469" fill="#93ff23" stroke="none" /><path d="M 89.4739219176387 118.17145234162733 l -19.22635012546807 33.19096650003286 a59.35743469463762,59.35743469463762 0 0,0 -0.8797114652526591,-0.5197490398395472 l 19.79482946174911 -32.855098887899565" fill="#e5ff1a" stroke="none" /><line stroke="#e1ed5e" stroke-width="0.3" x1="26.63291911575756" x2="22.317208475507996" y1="142.92168965132927" y2="145.44649492493687" /><path d="M 25.769776987707644 143.4266507060508 a86.0,86.0 0 0,1 -11.730757126820373,-40.83630448921669" fill="none" id="id45" stroke="none" /><text fill="#e1ed5e" style="font-size:6.75px; font-family:Arial;" text-anchor="middle"><textPath startOffset="21.46611528233685" xlink:href="#id45">September</textPath></text><path d="M 80.0844068197444 106.66101706037122 l -39.528877274079576 13.220923098640295 a62.681230141748514,62.681230141748514 0 0,0 -0.33342757726986433,-1.0261845654036954 l 39.75059710236569 -12.538539633258795" fill="#a6ff21" stroke="none" /><path d="M 79.97269907076064 106.31721596034903 l -38.16173297862387 12.037363871392966 a61.01519702443192,61.01519702443192 0 0,0 -0.3073225864499293,-1.0043479940842222 l 38.36328233757993 -11.378688904756695" fill="#c5ff1e" stroke="none" /><path d="M 79.86692584326677 105.97154293290107 l -37.042284412850115 10.986876121453598 a59.637317213163826,59.637317213163826 0 0,0 -0.2834401606777542,-0.986692383174993 l 37.225917210413975 -10.347626262774009" fill="#e0ff1b" stroke="none" /><path d="M 79.76711848015287 105.62410040840567 l -36.87189733766633 10.249219947838062 a59.269874873306904,59.269874873306904 0 0,0 -0.26477242746891533,-0.9853167003725117 l 37.04285784147702 -9.613012314290012" fill="#e7ff1a" stroke="none" /><path d="M 79.67330655649465 105.27499134158121 l -27.020056027226016 7.01198952937409 a48.91507522602232,48.91507522602232 0 0,0 -0.20448524596432582,-0.8168169102642074 l 27.1367525874854 -6.545844779712491" fill="#ff3905" stroke="none" /><path d="M 79.58551787078972 104.9243191809786 l -39.935400851552714 9.633095719434625 a62.080807858585096,62.080807858585096 0 0,0 -0.24164048099688998,-1.040980867815655 l 40.09530189848016 -8.944246194270395" fill="#b1ff20" stroke="none" /><path d="M 79.50377843672027 104.57218783832718 l -37.24667003896391 8.308788585474554 a59.16215922546265,59.16215922546265 0 0,0 -0.2131696023301108,-0.995857414271503 l 37.38417368001846 -7.666417351786887" fill="#e9ff1a" stroke="none" /><path d="M 79.4281124754447 104.21870165774334 l -38.15911392169086 7.82533527695506 a59.95322640661924,59.95322640661924 0 0,0 -0.19861666568731162,-1.0127420993207228 l 38.288160520353834 -7.167329450566382" fill="#daff1c" stroke="none" /><path d="M 79.29508885075956 103.50808413554451 l -38.168986255264144 6.467065431325008 a59.71297517690396,59.71297517690396 0 0,0 -0.16298299900037755,-1.0148952903547892 l 38.27465100862581 -5.809090911277005" fill="#deff1b" stroke="none" /><path d="M 79.23777060512086 103.15116336523772 l -38.28324460151588 5.810395193903689 a59.721667184263055,59.721667184263055 0 0,0 -0.14551027506445982,-1.017698524893717 l 38.377588927596946 -5.150551197029571" fill="#deff1b" stroke="none" /><path d="M 79.18660465613746 102.79330883721812 l -38.46259746676569 5.161959960461775 a59.80743787631259,59.80743787631259 0 0,0 -0.12815449715461702,-1.0215174346567666 l 38.54575347316715 -4.499124771517601" fill="#dcff1b" stroke="none" /><path d="M 79.1416061653843 102.43462659150553 l -39.82969478168309 4.648988547052304 a61.10009577186389,61.10009577186389 0 0,0 -0.1129411950442413,-1.045695197790474 l 39.90381827822838 -3.962697027377048" fill="#c3ff1e" stroke="none" /><path d="M 79.10278846688536 102.07522291339032 l -39.21854176723249 3.8946448130721243 a60.41144854694063,60.41144854694063 0 0,0 -0.09385466182526803,-1.0356783724590146 l 39.27977102533483 -3.2189850520645438" fill="#d1ff1d" stroke="none" /><path d="M 79.07016306316243 101.71520430193888 l -39.81527058326802 3.2628693473997252 a60.94874325929476,60.94874325929476 0 0,0 -0.07668931152354579,-1.0463647257970352 l 39.865536453455896 -2.577031485105929" fill="#c6ff1e" stroke="none" /><path d="M 79.04373962182676 101.35467743843564 l -39.703096241139484 2.566530847742741 a60.78596400397506,60.78596400397506 0 0,0 -0.05850981653997546,-1.0447320789928851 l 39.74139240856699 -1.8827270524144182" fill="#c9ff1d" stroke="none" /><path d="M 79.0235259727143 100.99374915477108 l -40.81115707593703 1.9334065771343554 a61.856928456129836,61.856928456129836 0 0,0 -0.041231669845794204,-1.064006189913403 l 40.83839087863403 -1.2306231402069556" fill="#b5ff1f" stroke="none" /><path d="M 79.0095281055655 100.63252640178507 l -39.338863398695985 1.18543641329423 a60.356720302779635,60.356720302779635 0 0,0 -0.022354799383502755,-1.0387396858538696 l 39.35344026076449 -0.5081069116502317" fill="#d2ff1c" stroke="none" /><line stroke="#e1ed5e" stroke-width="0.3" x1="15.007084014347285" x2="10.007500721073583" y1="101.09737516637583" y2="101.16192664675087" /><path d="M 14.007167355692545 101.11028546245083 a86.0,86.0 0 0,1 10.666146001902534,-42.60595125391555" fill="none" id="id46" stroke="none" /><text fill="#e1ed5e" style="font-size:6.75px; font-family:Arial;" text-anchor="middle"><textPath startOffset="22.20632615414155" xlink:href="#id46">October</textPath></text><path d="M 79.00019446554 99.90962569577889 l -39.37784938982814 -0.1694656521694926 a60.37821404247854,60.37821404247854 0 0,0 0.01341831881815687,-1.0392635799723833 l 39.369098063892274 0.8472654902023479" fill="#d1ff1c" stroke="none" /><path d="M 79.01574976396665 99.18683210126434 l -41.64201606143771 -1.6136840877759455 a62.6732705459528,62.6732705459528 0 0,0 0.051053024726047086,-1.0776486621788026 l 41.60806942847817 2.3302438565777575" fill="#a6ff21" stroke="none" /><path d="M 79.03285615573316 98.82574320788736 l -39.8980509717746 -2.234474933431308 a60.960572438022666,60.960572438022666 0 0,0 0.06769354863273085,-1.0471892354744932 l 39.85367683213745 2.920923233158813" fill="#c6ff1e" stroke="none" /><path d="M 79.05617556472873 98.46500227214037 l -38.224370306135235 -2.8015094258510893 a59.32689578303578,59.32689578303578 0 0,0 0.08341224863719207,-1.0178407088520158 l 38.170483573678545 3.4590640519108833" fill="#e6ff1a" stroke="none" /><path d="M 79.26566170972629 96.67025291283419 l -42.978267345682966 -6.901920789671469 a64.5289326152606,64.5289326152606 0 0,0 0.18556105327250258,-1.0951918404232936 l 42.85309443089024 7.640698418410591" fill="#84ff25" stroke="none" /><path d="M 79.71946130924805 94.55025226153421 l -40.703704592323184 -10.937821989430008 a63.14768697581838,63.14768697581838 0 0,0 0.2911205479711208,-1.0473155042341142 l 40.50939727378571 11.636848797083065" fill="#9dff22" stroke="none" /><line stroke="#e1ed5e" stroke-width="0.3" x1="26.266209847984243" x2="21.928928074336255" y1="57.711370442889674" y2="55.22380399835377" /><path d="M 25.398753493254645 57.213857153982495 a86.0,86.0 0 0,1 29.58750427330803,-30.492523968695096" fill="none" id="id47" stroke="none" /><text fill="#e1ed5e" style="font-size:6.75px; font-family:Arial;" text-anchor="middle"><textPath startOffset="21.46611528233685" xlink:href="#id47">November</textPath></text><line stroke="#e1ed5e" stroke-width="0.3" x1="56.762969772571076" x2="54.21961505331055" y1="26.818313649435495" y2="22.513508569990535" /><path d="M 56.25429882871897 25.957352633546506 a86.0,86.0 0 0,1 42.265352541879196,-11.944610805530505" fill="none" id="id48" stroke="none" /><text fill="#e1ed5e" style="font-size:6.75px; font-family:Arial;" text-anchor="middle"><textPath startOffset="22.20632615414155" xlink:href="#id48">December</textPath></text></svg>