<?xml version="1.0" encoding="utf-8" ?>
<svg baseProfile="full" height="300mm" version="1.1" viewBox="0,0,200,300" width="200mm" xmlns="http://www.w3.org/2000/svg" xmlns:ev="http://www.w3.org/2001/xml-events" xmlns:xlink="http://www.w3.org/1999/xlink"><defs /><rect fill="#222222" height="300" width="200" x="0" y="0" /><text fill="#FFFFFF" style="font-size:12px; font-family:Arial; font-weight:bold;" x="10" y="20">Over 3km Runs</text><text fill="#FFFFFF" style="font-size:4px; font-family:Arial" x="10" y="280">ATHLETE</text><text fill="#FFFFFF" style="font-size:9px; font-family:Arial" x="10" y="290">phh95</text><text fill="#FFFFFF" style="font-size:4px; font-family:Arial" x="120" y="280">STATISTICS</text><text fill="#FFFFFF" style="font-size:3px; font-family:Arial" x="120" y="285">Number: 18</text><text fill="#FFFFFF" style="font-size:3px; font-family:Arial" x="120" y="290">Weekly: 2.6</text><text fill="#FFFFFF" style="font-size:3px; font-family:Arial" x="141" y="285">Total: 56.9 km</text><text fill="#FFFFFF" style="font-size:3px; font-family:Arial" x="141" y="290">Avg: 3.2 km</text><text fill="#FFFFFF" style="font-size:3px; font-family:Arial" x="167" y="285">Min: 3.0 km</text><text fill="#FFFFFF" style="font-size:3px; font-family:Arial" x="167" y="290">Max: 3.7 km</text><polyline fill="none" points="24.93780957045965,32.25 34.50007555447519,37.982863285491476 35.90965261193924,39.385137610690435 22.766298968810588,60.996223139954964 22.65200893697329,61.449882182932924 25.661646437831223,63.51196419054759 39.26216020784341,71.55401273051393 42.34799106325954,72.75 39.26216020784341,71.47153075732058 26.423579982481897,63.8831381596101 22.690105614019558,61.16119010647526 35.90965261193924,39.55011083383579 35.75726590305567,38.72524424045696 32.9000151110813,37.07550747136702" stroke="#4dd2ff" stroke-linecap="round" stroke-linejoin="round" stroke-width="0.5"><title>2022-01-04 3.1km</title></polyline><polyline fill="none" points="87.625,38.38752295752056 87.48035714263096,39.48366517139948 91.53035714291036,41.36276094027562 97.75,45.70814489811892 87.7696428571362,61.6017744175042 85.20223214267753,66.61247704250854 80.60982142854482,63.95054705234361 78.51249999995343,63.40250101638958 77.46383928577416,62.188968532398576 72.61830357136205,59.566163217357825 70.70178571413271,57.922010116802994 68.0258928569965,56.82590527320281 58.768750000046566,50.87558307603467 57.25,50.40581800907967 59.13035714277066,51.03217134089209 60.2874999998603,52.16743490591762 71.71428571408615,58.587501259549754 78.98258928582072,63.55908565479331 85.05758928577416,66.41674734230037 97.64151785732247,45.9430295228085 97.67767857131548,45.19922786136158 96.26741071417928,44.33798255433794" stroke="#4dd2ff" stroke-linecap="round" stroke-linejoin="round" stroke-width="0.5"><title>2022-01-03 3.7km</title></polyline><polyline fill="none" points="115.86410660727415,32.25 122.56392960867379,36.2642037513433 123.04979463561904,36.98398755528615 115.58281632838771,48.804858536605025 114.35536783956923,51.73925702870474 125.22340133448597,58.327730126678944 127.65272646874655,59.43502539215842 127.0901459113229,59.65648406065884 127.34586434648372,60.929868916922715 126.32299060584046,61.954110182239674 127.75501384283416,62.56311720228405 128.88017495756503,63.69808224373264 128.72674389649183,64.52854233619291 128.18973518256098,64.30708648770815 127.60158278164454,64.88840781638282 127.42257987707853,66.2171389652649 125.88826926599722,69.26213044437463 126.50199351052288,70.14794159730081 127.57601093815174,70.28634940474876 127.85730121680535,70.70157252659556 129.26375261042267,69.89880741786328 129.9541923853103,68.84690576043795 130.0053360722959,67.93340986984549 130.46562925563194,68.04413676063996 130.64463216031436,69.40053857213934 129.54504288907629,69.45590180932777 127.98516043438576,70.61852793820435 127.85730121680535,72.25173486710992 128.72674389649183,72.75 128.240878869663,72.55623030316201 127.67829831223935,69.954170582816 128.13859149557538,68.0995001939591 128.5733128353022,67.40745670112665 129.13589339272585,67.49050198637997" stroke="#4dd2ff" stroke-linecap="round" stroke-linejoin="round" stroke-width="0.5"><title>2022-01-01 3.0km</title></polyline><polyline fill="none" points="158.7793193582911,32.25 165.4480751431547,36.01849063471309 169.58856637217104,39.07293244940229 159.5487911796663,55.177889584127115 156.83731904719025,60.532881329156226 178.16268095257692,72.75 160.09841390908696,62.71452963387128 156.873960562516,59.93788482999662 169.5519248568453,39.35060813376913" stroke="#4dd2ff" stroke-linecap="round" stroke-linejoin="round" stroke-width="0.5"><title>2021-12-30 3.1km</title></polyline><polyline fill="none" points="23.939547693589702,81.0 33.41068641562015,86.71829352184432 34.43065520119853,87.86194502367289 21.790327752707526,108.80217399305548 36.543447685427964,117.43830523084034 37.63627138407901,118.6607602389995 41.13330721994862,119.72547688276973 43.209672247525305,121.5 39.56692658527754,119.01566601803643 37.56341647077352,118.46359026181744 30.31435260269791,113.92866109902388 24.959516479168087,111.28655453637475 22.81029653828591,109.35425953703816 23.32028093095869,107.97404462829581 22.518876885296777,107.18534882506356 34.39422774454579,87.34927395769046" stroke="#4dd2ff" stroke-linecap="round" stroke-linejoin="round" stroke-width="0.5"><title>2021-12-29 3.2km</title></polyline><polyline fill="none" points="68.69741352112032,81.0 79.26773253059946,88.1082237943192 66.71322394581512,108.80746299400926 82.51458819909021,118.61003320352756 85.65321534522809,119.78164322930388 88.28677605418488,121.5 66.74930011993274,108.88557182691875 78.00506643718109,90.06101613125065" stroke="#4dd2ff" stroke-linecap="round" stroke-linejoin="round" stroke-width="0.5"><title>2021-12-25 3.1km</title></polyline><polyline fill="none" points="113.95733024855144,81.0 120.62208552891389,84.66744546877453 124.26744891423732,86.979518102773 124.52520188083872,87.65719272498973 113.40500246291049,105.43588784427266 111.96895022015087,109.18289386256947 133.03104977984913,121.5 132.22096902760677,120.58320223374176 127.98645600443706,118.7097411841969 127.17637525196187,117.6334947211144 112.04259392502718,108.98358567352989 112.4108124487102,107.22967050148873 123.42054630955681,89.65034854487749" stroke="#4dd2ff" stroke-linecap="round" stroke-linejoin="round" stroke-width="0.5"><title>2021-12-24 3.0km</title></polyline><polyline fill="none" points="174.17483296222053,83.84399872651557 187.61469933157787,92.14435880247038 180.44376391964033,103.27644607611 171.9198218260426,118.36306064057862 171.01781737199053,118.65600127348443 166.64309576852247,115.53129463020014 164.6135857461486,114.99423421855317 162.49387527862564,113.04128366243094 158.47995545668527,111.23479936463991 147.5206013363786,104.15528724720934 147.25,104.594707403332 152.75222717155702,107.0847495480557 156.04454342997633,109.77007881522877 172.0551224942319,118.36306064057862 187.75,92.33966016251361 186.6675946547184,91.26550198253244" stroke="#4dd2ff" stroke-linecap="round" stroke-linejoin="round" stroke-width="0.5"><title>2021-12-22 3.1km</title></polyline><polyline fill="none" points="39.98910614522174,132.75610776274698 47.681843575323,137.21414471499156 52.20698324008845,140.20248271455057 52.65949720656499,141.13327382260468 40.39636871521361,160.434653565404 36.912011173320934,167.2438922371948 29.17402234650217,163.27592695038766 18.675698324106634,156.02575745910872 15.6438547486905,154.948022931756 12.521508380072191,152.69457246549428 12.25,153.13546553836204 19.082960893865675,156.1727211253019 20.84776536305435,158.03425813553622 27.273463687160984,161.51237935677636 28.54050279338844,162.98200267046923 36.776256983401254,166.94996968033956 52.75,141.0352958716685 52.52374301687814,140.25147175230086 50.39692737418227,138.97775562200695" stroke="#4dd2ff" stroke-linecap="round" stroke-linejoin="round" stroke-width="0.5"><title>2021-12-20 3.1km</title></polyline><polyline fill="none" points="68.39075747039169,129.75 77.73449535202235,135.29598483478185 78.27563847275451,136.19427278841613 77.30158085562289,138.49856983064092 67.48885226948187,153.57389752435847 65.82934669987299,157.0107008452178 81.2699637399055,166.38368957169587 89.17065329989418,170.25 77.40980947972275,164.23572736614733 68.57113851048052,158.88531161329593 66.76732810889371,157.2840819878038 67.20024260529317,156.19055658654543 66.33441361226141,155.370411081356 72.86420726729557,145.6066783691058 75.78638011799194,140.29513357856194" stroke="#4dd2ff" stroke-linecap="round" stroke-linejoin="round" stroke-width="0.5"><title>2021-12-19 3.1km</title></polyline><polyline fill="none" points="128.78958587069064,130.69449728477048 127.16169305704534,130.96152362495195 131.79872107156552,132.99092065176228 142.75,140.5744075018447 125.48447015811689,169.30550271522952 118.72624847735278,165.56731943588238 116.99969549337402,165.24690284498502 112.75730816065334,161.8291172189638 108.36693057254888,159.96000900887884 104.86449451907538,156.86261926521547 102.25,155.95476118667284 104.32186358096078,156.54219889442902 105.35779537144117,157.77047622669488 106.4430572472047,157.71707290690392 114.92783191218041,162.84377397887874 117.04902557842433,164.92648611508776 119.26887941523455,165.30030561983585 125.237819731934,168.77147769200383 142.65133982920088,140.6812166190357 135.64646772225387,135.71457630826626" stroke="#4dd2ff" stroke-linecap="round" stroke-linejoin="round" stroke-width="0.5"><title>2021-12-17 3.1km</title></polyline><polyline fill="none" points="175.95828667422757,132.69293045747327 176.23040313576348,133.7240154441679 187.75,141.23615874984534 171.9218924974557,167.30706954246853 170.06243001134135,167.01248857640894 166.88773796218447,164.60673923260765 164.1212206047494,163.8211865790072 160.44764837645926,160.72806416271487 156.09378499444574,158.66597471688874 154.64249720051885,157.14395229582442 147.25,152.77425604651216 147.65817469195463,153.7071149123367 153.05515117617324,156.11290290899342 164.25727883563377,163.62479827337665 171.74048152309842,167.15977907541674 187.75,141.53075090964558 187.52323628240265,140.54877654620213 185.75447928369977,139.41950427059783" stroke="#4dd2ff" stroke-linecap="round" stroke-linejoin="round" stroke-width="0.5"><title>2021-12-16 3.1km</title></polyline><polyline fill="none" points="39.83892617467791,181.36420329549583 52.75,189.70170144789154 36.98489932902157,216.13579670456238 29.238255033735186,212.5557291484438 27.788590603973716,210.9863785036723 21.08389261760749,207.3572412171634 18.59228187915869,205.29745194892166 12.340604026801884,201.8154129946488 12.25,202.3058420990128 14.15268456377089,202.551056518103 27.290268456563354,210.34882876608754 29.057046979898587,212.0653074622387 37.030201342189685,215.69441953487694 52.75,190.09405177441658 52.432885905960575,189.16221937804949 50.983221476431936,188.37751741864486" stroke="#4dd2ff" stroke-linecap="round" stroke-linejoin="round" stroke-width="0.5"><title>2021-12-15 3.1km</title></polyline><polyline fill="none" points="81.42371937632561,181.27075473591685 85.97884187079035,182.78435819083825 92.29287305125035,186.10450871038483 97.56959910900332,190.4499751381809 82.6414253897965,215.35042272903956 81.55902004451491,216.22924526408315 80.1158129174728,215.6921871842933 63.69933184864931,205.82977188640507 63.20322939869948,204.99976006086217 57.25,202.21677178150276 63.0228285077028,204.95093580405228 65.81904231617227,207.29449614614714 72.58407572400756,210.85864522692282 74.43318485515192,212.76277195033617 77.18429844104685,213.44630330917425 81.82962138089351,216.03395146637922 89.13585746102035,204.0720985767548 91.39086859696545,201.72852703987155 97.75,190.0105472212308 91.34576837415807,185.76272926444653" stroke="#4dd2ff" stroke-linecap="round" stroke-linejoin="round" stroke-width="0.5"><title>2021-12-14 3.3km</title></polyline><polyline fill="none" points="130.19044943805784,181.21217524225358 131.1915730338078,182.39452994713793 134.96853932598606,184.1187935428461 142.70449438202195,189.34082235360984 130.326966291992,209.34180736204144 126.77752808993682,216.2878247576882 121.58988764043897,213.03650628973264 119.08707865164615,212.2483055347111 107.84719101130031,204.61256347055314 105.25337078631856,203.82435296080075 102.25,201.50897930929204 102.29550561774522,202.14940259652212 107.89269662904553,204.71108972019283 112.62528089876287,208.4058137832908 117.4488764044363,210.4255877927062 119.08707865164615,212.44535580900265 121.04382022470236,212.79019365186105 126.59550561779179,215.74593942484353 142.75,189.73493610933656 141.93089887639508,188.74965129198972" stroke="#4dd2ff" stroke-linecap="round" stroke-linejoin="round" stroke-width="0.5"><title>2021-12-13 3.1km</title></polyline><polyline fill="none" points="159.15760518587194,178.5 161.79009421612136,178.98168239439838 161.085625320673,179.30280375821167 162.19794462923892,179.2225234346406 161.6788622851018,179.66406507007196 162.30917656002566,179.38308407005388 161.93840345717035,179.78448545507854 162.45748580130748,179.54364465890103 162.12379000871442,179.90490581397898 162.56871773209423,179.7443453296728 162.6057950425893,180.26616673363606 169.65048399660736,184.72169872373343 158.9722186345607,202.02166826624307 156.74758001742885,206.59744003397645 169.79879323765635,214.1835047941131 172.28297302662395,215.0263944742328 178.25241998257115,219.0 177.58502839761786,218.19725370331435 170.98526716674678,214.38419292931212 168.76062854961492,213.7419906409632 156.7846573276911,206.3566108821542 169.3167882040143,185.64491258648923" stroke="#4dd2ff" stroke-linecap="round" stroke-linejoin="round" stroke-width="0.5"><title>2021-12-11 3.2km</title></polyline><polyline fill="none" points="42.20487551880069,231.76326574006816 51.32157676364295,237.312170899997 52.75,238.94954338675598 38.297717842506245,263.23673425993184 31.02956431545317,259.73470660083694 29.433091286337003,258.0519071474555 13.258298755157739,248.36435238423292 12.37603734433651,248.09146135498304 12.25,248.5462796712527 20.44242738583125,252.5941481841728 20.988589211832732,253.4582965116715 28.130705394316465,257.18776513665216 33.97043568477966,261.14461618696805 38.171680497936904,262.8728881389252 44.47354771778919,253.86762951523997 45.39782157703303,250.6839213485364 46.57417012471706,249.91073264501756 52.62396265566349,239.1769558946835" stroke="#4dd2ff" stroke-linecap="round" stroke-linejoin="round" stroke-width="0.5"><title>2021-12-09 3.2km</title></polyline><polyline fill="none" points="92.40031322976574,267.75 91.29248324991204,266.96655648804153 90.04617452248931,264.8271452894842 89.85230427596252,260.8797511400189 89.15991053858306,257.65551500051515 86.25185684126336,253.64778363046935 83.64845638850238,246.74716022284701 81.3774049297208,245.02951942320215 78.10930648888461,244.42683670454426 74.03803131275345,241.3832751956652 72.487069340772,239.81628406175878 71.87776285177097,237.52605528113781 70.49297537689563,234.9344648978149 64.59378073376138,229.29920498060528 63.319776256917976,227.25 62.59968677011784,227.70203140706872 70.02214763546363,235.11527407047106 72.45937359135132,239.84641856409144 75.09046979364939,242.95026023167884 77.83234899386298,244.8788488281134 81.57127517601475,245.87327371403808 82.37445191154256,246.44582026160788 84.14697987935506,248.856533637736 85.42098435631488,252.80404562852345" stroke="#4dd2ff" stroke-linecap="round" stroke-linejoin="round" stroke-width="0.5"><title>2021-10-04 3.3km</title></polyline></svg>