<?xml version="1.0" encoding="utf-8" ?>
<svg baseProfile="full" height="300mm" version="1.1" viewBox="0,0,200,300" width="200mm" xmlns="http://www.w3.org/2000/svg" xmlns:ev="http://www.w3.org/2001/xml-events" xmlns:xlink="http://www.w3.org/1999/xlink"><defs /><rect fill="#222222" height="300" width="200" x="0" y="0" /><text fill="#FFFFFF" style="font-size:12px; font-family:Arial; font-weight:bold;" x="10" y="20">Over 3km Runs</text><text fill="#FFFFFF" style="font-size:4px; font-family:Arial" x="10" y="280">ATHLETE</text><text fill="#FFFFFF" style="font-size:9px; font-family:Arial" x="10" y="290">phh95</text><text fill="#FFFFFF" style="font-size:4px; font-family:Arial" x="120" y="280">STATISTICS</text><text fill="#FFFFFF" style="font-size:3px; font-family:Arial" x="120" y="285">Number: 93</text><text fill="#FFFFFF" style="font-size:3px; font-family:Arial" x="120" y="290">Weekly: 3.9</text><text fill="#FFFFFF" style="font-size:3px; font-family:Arial" x="141" y="285">Total: 341.1 km</text><text fill="#FFFFFF" style="font-size:3px; font-family:Arial" x="141" y="290">Avg: 3.7 km</text><text fill="#FFFFFF" style="font-size:3px; font-family:Arial" x="167" y="285">Min: 3.0 km</text><text fill="#FFFFFF" style="font-size:3px; font-family:Arial" x="167" y="290">Max: 11.1 km</text><polyline fill="none" points="15.985887823509984,31.131489300663816 19.690287865290884,33.48513168137288 15.451482571603265,40.5195793666353 21.79147215129342,44.27993875017273 21.159902308136225,45.45010464004008 22.18013051635353,45.94972373568453 24.548517428338528,47.72467520383361 23.892656437295955,49.0 24.548517428338528,47.895595541223884 24.52422628045315,47.4880160097091 21.135611160309054,45.41066096871509 21.92507346428465,44.04327506979462 22.05867477733409,43.464762553412584 21.864345594716724,44.18790291110054 20.7833895169897,43.80661108116328 20.431167873728555,43.43846648618637 16.66603996232152,41.37421333302336 15.52435601502657,40.54587585630361 16.046615693019703,39.428271688419045 18.050635387771763,36.46987452816393 19.738870160945226,33.57717294253234 19.629559995781165,33.327346553705866 18.36642030935036,32.47267473035026 15.621520606277045,31.0" stroke="#4dd2ff" stroke-linecap="round" stroke-linejoin="round" stroke-width="0.5"><title>2022-01-06 4.7km</title></polyline><polyline fill="none" points="46.4025974025717,32.31257727064076 51.67532467539422,35.59319316735491 51.85714285715949,35.96499405495706 44.78643578640185,47.66555295008584 42.58441558445338,46.35336329304846 41.06926406931598,45.850355747155845 40.705627705552615,45.23799760476686 36.62481962481979,42.94164351868676 36.44300144293811,42.54798106601811 35.35209235211369,42.19805845536757 33.85714285715949,41.148288191936444 33.95815295819193,41.476341791043524 36.4025974025717,42.52611091476865 38.66522366530262,44.23197796253953 41.311688311747275,45.56604676390998 44.038961038924754,47.49059465836035 44.82683982688468,47.687422729388345 51.83694083697628,36.09621778843575 51.83694083697628,35.70254641713109 51.41269841277972,35.418227885471424" stroke="#4dd2ff" stroke-linecap="round" stroke-linejoin="round" stroke-width="0.5"><title>2022-01-05 3.1km</title></polyline><polyline fill="none" points="62.35331218998181,31.0 66.60320818284526,33.54793923799298 67.2296868750127,34.17117227142444 61.388196366955526,43.77609917330847 61.33740079734707,43.977725414632005 62.67501746438211,44.894206306911656 68.71969025104772,48.468450102445786 70.09117063123267,49.0 68.71969025104772,48.43179144769965 63.01365459529916,45.05917251537903 61.35433265380561,43.8494178250985 67.2296868750127,34.2444937039254 67.1619594488293,33.8778863290936 65.89207020797767,33.14466998727585" stroke="#4dd2ff" stroke-linecap="round" stroke-linejoin="round" stroke-width="0.5"><title>2022-01-04 3.1km</title></polyline><polyline fill="none" points="93.07142857147846,33.727787981100846 93.00714285712456,34.21496229839977 94.80714285717113,35.05011597345583 97.57142857142026,36.98139773249568 93.13571428571595,44.045233074444695 91.99464285711292,46.2722120188846 89.95357142860303,45.08913202326221 89.0214285714319,44.84555600727617 88.55535714287544,44.306208236608654 86.40178571431898,43.14051698548428 85.54999999998836,42.40978227411688 84.36071428569267,41.92262456585013 80.24642857146682,39.27803692268208 79.57142857142026,39.06925244847662 80.40714285714785,39.347631707045366 80.92142857139697,39.852193291517324 86.0,42.70555611535383 89.230357142922,44.915149179898435 91.93035714287544,46.1852210410143 97.5232142857858,37.08579089901468 97.53928571427241,36.7552123828209 96.91250000003492,36.37243669081363" stroke="#4dd2ff" stroke-linecap="round" stroke-linejoin="round" stroke-width="0.5"><title>2022-01-03 3.7km</title></polyline><polyline fill="none" points="108.47928547626361,31.0 111.45698458800325,32.78409055614611 111.67292459995952,33.10399446899828 108.3542675745557,38.35771490515617 107.80873491283273,39.661892012751196 112.63897202175576,42.59010227852559 113.71867208136246,43.08223350762273 113.46863627806306,43.18065958250372 113.58228891593171,43.74660840751312 113.1276783645153,44.201826747652376 113.76413313654484,44.472496534333914 114.26420474308543,44.97692544166057 114.19601316034095,45.346018816067954 113.95734262088081,45.24759399452887 113.69594155380037,45.50595902949863 113.61638470733305,46.0965062067844 112.93446888017934,47.449835753053776 113.20723521104082,47.84352959878743 113.68457629001932,47.905044179889956 113.80959419166902,48.089587789581856 114.43468369991751,47.73280329682166 114.74154582206393,47.26529144907545 114.76427634962602,46.85929327548365 114.96885109774303,46.90850522693654 115.04840794432675,47.51135047650314 114.559701601509,47.53595635968668 113.86642051057424,48.05267908364476 113.80959419166902,48.77854882981046 114.19601316034095,49.0 113.9800731484429,48.91388013472897 113.7300373451435,47.757409147918224 113.93461209326051,46.933111197300605 114.12782157765469,46.62553631160699 114.37785738095408,46.66244532726705" stroke="#4dd2ff" stroke-linecap="round" stroke-linejoin="round" stroke-width="0.5"><title>2022-01-01 3.0km</title></polyline><polyline fill="none" points="130.40985622280277,31.0 133.37374768272275,32.674884726526216 135.21396600670414,34.03241442194849 130.75184369896306,41.190173148497706 129.54674497339875,43.57016947962984 139.02468359807972,49.0 130.9961204676074,44.53979094837268 129.56303009134717,43.30572659110476 135.19768088881392,34.155825837224256" stroke="#4dd2ff" stroke-linecap="round" stroke-linejoin="round" stroke-width="0.5"><title>2021-12-30 3.1km</title></polyline><polyline fill="none" points="153.33821167325368,31.0 157.54760666086804,33.54146378749283 158.00092612107983,34.049753343861084 152.38300281070406,43.356521774694556 158.93994500295958,47.194802324826014 159.42564442462754,47.73811566179211 160.97988257394172,48.21132305901847 161.90271147503518,49.0 160.28371340286685,47.89585156357498 159.39326446317136,47.65048456081422 156.1714582995628,45.63496048845991 153.79153113352368,44.46069090506353 152.83632227091584,43.60189312757575 153.06298200099263,42.98846427924582 152.70680242514936,42.63793281115068 157.98473614035174,33.8218995367497" stroke="#4dd2ff" stroke-linecap="round" stroke-linejoin="round" stroke-width="0.5"><title>2021-12-29 3.2km</title></polyline><polyline fill="none" points="171.0,36.90060181381705 171.5311475409544,37.5236999738263 171.47213114745682,38.37047157190682 171.67868852458196,38.59414654500142 173.64098360657226,36.53313284210162 174.0836065573385,37.76335264307272 177.7278688524384,37.827259977537324 178.81967213121243,37.347954517405014 179.61639344261494,37.63553791856975 179.6754098360543,38.03495868643222 179.91147540981183,38.14679637168592 180.22131147538312,37.90714411949739 180.05901639343938,37.475769408702035 180.73770491802134,36.165663257503184 180.51639344258,34.82359521999024 181.03278688527644,34.40819155149802 181.62295081967022,34.47209985916561 182.43442622956354,35.15911299579602 183.0983606557711,35.20704406492587 183.79180327866925,36.13370935161947 184.70655737706693,36.32543271740724 185.3409836065839,35.941985818994 185.59180327871582,35.111181916247006 187.3327868852648,35.15911299579602 188.23278688528808,34.13658103709167 188.48360655742,33.52945044107037 188.76393442624249,33.41761041191057 189.0,33.60933614139503 188.88196721312124,35.49463026065496 187.55409836070612,36.03784760614508 185.51803278684383,37.76335264307272 185.26721311471192,38.54621621273691 184.7655737705063,38.99356557507417 184.57377049187198,39.9841216452769 181.84426229511155,41.8533846794744 181.696721311484,42.268774311378365 181.9918032786809,43.6587262320827 181.77049180329777,44.265828917734325 180.8262295082095,44.23387618653942 180.3098360655713,43.9622777839686 179.6754098360543,44.122041590715526 179.1737704917905,44.45754520785704 178.3475409836392,46.05517447243619 177.4770491803065,46.40665135634481 176.9163934426033,46.502508591045626 176.94590163929388,46.358722723365645 176.96065573772648,46.582389588074875 176.94590163929388,46.42262756501441" stroke="#4dd2ff" stroke-linecap="round" stroke-linejoin="round" stroke-width="0.5"><title>2021-12-25 3.3km</title></polyline><polyline fill="none" points="16.08773934270721,51.0 20.785658902546857,54.159210575249745 15.20587730925763,63.35887244177866 22.228705866262317,67.71557031266275 23.62365126464283,68.23628587968415 24.79412269074237,69.0 15.221911164466292,63.39358747861115 20.22447397216456,55.02711828054453" stroke="#4dd2ff" stroke-linecap="round" stroke-linejoin="round" stroke-width="0.5"><title>2021-12-25 3.1km</title></polyline><polyline fill="none" points="39.06040074536577,51.0 42.0225142033305,52.629975763877155 43.64267570787342,53.65756360121304 43.75723258196376,53.95875232221442 38.81492172955768,61.86039459744643 38.176676288305316,63.52573060557188 47.53760942601366,69.0 47.177573536057025,68.59253432610421 45.2955677480204,67.75988497074286 44.93553185806377,67.28155320938095 38.20940682379296,63.43714918823389 38.37305950099835,62.65763133399014 43.266274550231174,54.84459935326595" stroke="#4dd2ff" stroke-linecap="round" stroke-linejoin="round" stroke-width="0.5"><title>2021-12-24 3.0km</title></polyline><polyline fill="none" points="68.68087814189494,52.263999434013385 74.65415208390914,55.9530483566632 71.46706967859063,60.90064270046423 67.67865097033791,67.60580472912989 67.27776010183152,67.73600056598661 65.33343938924372,66.34724205787643 64.43143493472598,66.10854854158242 63.48934139369521,65.24057051664568 61.70537702832371,64.43768860650016 56.83455297490582,61.29123877652455 56.714285714318976,61.48653662370634 59.1597200128017,62.59322202135809 60.62297168315854,63.7867016956443 67.73878460063133,67.60580472912989 74.71428571431898,56.03984896111069 74.2332166719716,55.56244532557321" stroke="#4dd2ff" stroke-linecap="round" stroke-linejoin="round" stroke-width="0.5"><title>2021-12-22 3.1km</title></polyline><polyline fill="none" points="91.89992019161582,52.33604789458332 95.31891460495535,54.317397651146166 97.33008778933436,55.645547873165924 97.53120510769077,56.05923281010473 92.080925778253,64.6376238068915 90.53232242621016,67.66395210544579 87.09321628103498,65.90041197801474 82.42729449318722,62.67811442632228 81.07980845973361,62.199121303041466 79.69209896249231,61.197587762464536 79.57142857147846,61.39354023931082 82.6083000798244,62.74343161127763 83.39265762164723,63.570781393616926 86.2485235434724,65.1166130474885 86.8116520352196,65.7697789646918 90.47198723070323,67.53331985799014 97.57142857147846,56.01568705411046 97.47086991230026,55.66732077882625 96.52561851555947,55.10122472094372" stroke="#4dd2ff" stroke-linecap="round" stroke-linejoin="round" stroke-width="0.5"><title>2021-12-20 3.1km</title></polyline><polyline fill="none" points="107.38001919322414,51.0 111.5327915850794,53.464882148779 111.7732996387058,53.86412123928312 111.34038514224812,54.88825325804646 106.97917243733536,61.58839889970841 106.24161440628814,63.115867042317404 113.10411086853128,67.2816398096329 116.61552845081314,69.0 111.38848675298505,66.3269899404986 107.46018854441354,63.94902738367091 106.65849503251957,63.237369772352395 106.85090147540905,62.75135848289938 106.46608858963009,62.38684936948994 109.36821910290746,58.04741260848823 110.66696259222226,55.68672603490995" stroke="#4dd2ff" stroke-linecap="round" stroke-linejoin="round" stroke-width="0.5"><title>2021-12-19 3.1km</title></polyline><polyline fill="none" points="137.0810857837787,51.419776571012335 136.3575778666418,51.53845494441339 138.41847920638975,52.440409178554546 143.28571428568102,55.81084777860087 135.61214546707924,68.58022342898767 132.60849138675258,66.91880863817642 131.84113450488076,66.77640126444749 129.95562902383972,65.25738543068292 128.0043500957545,64.42667067059665 126.44771184970159,63.050053006765665 125.28571428568102,62.646560527413385 126.20654254395049,62.90764395307633 126.66695667302702,63.4535449896357 127.14929528452922,63.429810180852655 130.9203062466113,65.70834399061278 131.86305898719002,66.63399382893112 132.84966069238726,66.80013583105756 135.50252305541653,68.34287897421746 143.2418653209461,55.8583184973686 140.1285888289567,53.65092280367389" stroke="#4dd2ff" stroke-linecap="round" stroke-linejoin="round" stroke-width="0.5"><title>2021-12-17 3.1km</title></polyline><polyline fill="none" points="160.90209566464182,52.30796909221681 161.02303631417453,52.76622908632271 166.1428571428405,56.10495944437571 159.10814269725233,67.69203090778319 158.28171492554247,67.56110603397246 156.87074068153743,66.49188410339411 155.6411774115404,66.1427495906828 154.00847864337265,64.76802851678804 152.07342825143132,63.85154431863339 151.42841145419516,63.17508990925853 148.1428571428405,61.23300268733874 148.32426811696496,61.6476066277246 150.72292433213443,62.71684573733364 155.70164773636498,66.05546589929145 159.02751559752505,67.62656847797916 166.1428571428405,56.235889293195214 166.04207326832693,55.79945624276297 165.25595904665533,55.297557453624904" stroke="#4dd2ff" stroke-linecap="round" stroke-linejoin="round" stroke-width="0.5"><title>2021-12-16 3.1km</title></polyline><polyline fill="none" points="183.26174496649764,52.27297924243612 189.0,55.97853397682775 181.9932885906892,67.72702075756388 178.55033557058778,66.13587962152087 177.9060402684845,65.43839044607012 174.92617449664976,63.825440540967975 173.81879194627982,62.90997864396195 171.04026845644694,61.36240577537683 171.0,61.58037426622468 171.8456375838723,61.68935845248052 177.6845637584338,65.15503500716295 178.4697986576939,65.91791442764224 182.01342281873804,67.5308531266055 189.0,56.15291189972777 188.85906040272675,55.73876416799612 188.21476510062348,55.39000774160377" stroke="#4dd2ff" stroke-linecap="round" stroke-linejoin="round" stroke-width="0.5"><title>2021-12-15 3.1km</title></polyline><polyline fill="none" points="21.743875278392807,72.23144654929638 23.76837416482158,72.90415919592488 26.574610245064832,74.37978164906963 28.919821826275438,76.3111000614008 22.2850779510336,87.37796565736062 21.804008908686228,87.76855345070362 21.162583519006148,87.52986097079702 13.866369710536674,83.14656528286287 13.645879732794128,82.7776711381739 11.0,81.5407874584489 13.565701559069566,82.75597146846121 14.808463251683861,83.79755384271266 17.815144766238518,85.38162010084488 18.636971046798863,86.22789864457445 19.859688196098432,86.53169035963947 21.924276169389486,87.68175620728289 25.171492205001414,82.36537714523729 26.173719376442023,81.3237897954823 29.0,76.11579876497854 26.153674833010882,74.22787967309705" stroke="#4dd2ff" stroke-linecap="round" stroke-linejoin="round" stroke-width="0.5"><title>2021-12-14 3.3km</title></polyline><polyline fill="none" points="46.275120385224,72.20541121877613 46.72006420546677,72.7309021987312 48.398715890944004,73.4972415746015 51.836918138084,75.81814326829044 46.33579454245046,84.70746993870125 44.7582664526999,87.79458878119476 42.452648475184105,86.34955835097935 41.34028892451897,85.99924690430635 36.34478330658749,82.60558376469999 35.19197431777138,82.25526798257488 33.85714285715949,81.22621302635525 33.877367576234974,81.51084559844458 36.36500802566297,82.64937320895842 38.46837881219108,84.29147279256722 40.61219903698657,85.18915013008518 41.34028892451897,86.08682480399148 42.20995184592903,86.24008606749703 44.67736757628154,87.55375085546984 51.85714285715949,75.99330493749585 51.49309791333508,75.55540057423059" stroke="#4dd2ff" stroke-linecap="round" stroke-linejoin="round" stroke-width="0.5"><title>2021-12-13 3.1km</title></polyline><polyline fill="none" points="62.00655468576588,71.0 63.176549810392316,71.21408106418676 62.8634525234811,71.35680167032115 63.35781666066032,71.32112152651825 63.127113396592904,71.51736225337663 63.40725307428511,71.39248180891445 63.242465028655715,71.5708824244939 63.47316829266492,71.46384207061783 63.32485905155772,71.62440258399874 63.52260470634792,71.55304236874508 63.53908351098653,71.78496299272228 66.6700563794584,73.76519943277526 61.924160662980285,81.45407478501147 60.935432388680056,83.48775112621661 66.7359715977218,86.85933546404704 67.84005150396843,87.23395309965417 70.49313903989969,89.0 70.19652055768529,88.64322386814456 67.2632933439454,86.94853019081347 66.2745650697616,86.66310695154243 60.951911193318665,83.38071594762732 66.521747138293,74.17551670510147" stroke="#4dd2ff" stroke-linecap="round" stroke-linejoin="round" stroke-width="0.5"><title>2021-12-11 3.2km</title></polyline><polyline fill="none" points="92.05440070771147,72.95148489339044 97.44139761175029,76.33001094259089 91.25563909776974,86.90774943870201 90.84697036712896,87.04851510662411 90.12251216277946,86.76698369943188 80.57452454662416,80.95530735893408 79.57142857147846,80.57322057275451 83.00796107912902,82.42332012369297 84.71693940740079,83.75055786487064 90.92127377272118,86.88764005170378 96.97700132685713,77.43606709090818 97.57142857147846,76.00824832719809" stroke="#4dd2ff" stroke-linecap="round" stroke-linejoin="round" stroke-width="0.5"><title>2021-12-10 3.2km</title></polyline><polyline fill="none" points="115.74184943689033,73.00589588447474 119.79371665674262,75.47207595556392 120.42857142852154,76.19979706079175 114.00533491396345,86.99410411553981 110.7750444576377,85.43764737815945 110.06550088908989,84.68973650998669 102.87670420855284,80.3841566152405 102.4845880260691,80.26287171333388 102.42857142852154,80.46501318723313 106.06965026666876,82.2640658596356 106.31238885596395,82.64813178297481 109.48666271485854,84.30567339407571 112.08209839952178,86.06427386087307 113.9493183165323,86.83239472840796 116.75014819193166,82.83005756234343 117.16093657386955,81.41507615490991 117.68375815055333,81.07143673113023 120.37255483097397,76.3008692865551" stroke="#4dd2ff" stroke-linecap="round" stroke-linejoin="round" stroke-width="0.5"><title>2021-12-09 3.2km</title></polyline><polyline fill="none" points="136.9476861167932,72.02930021984503 139.90543259552214,73.4702345340047 143.22233400389086,75.7345466077677 136.1448692153208,87.62763652065769 135.7434607645264,87.97069978012587 135.0674044265179,87.78773275477579 125.28571428568102,81.72689016611548 132.55331991950516,86.30112174674287 135.91247484914493,87.83347452105954 143.28571428568102,75.82603362327791 141.29979879269376,74.31649448085227" stroke="#4dd2ff" stroke-linecap="round" stroke-linejoin="round" stroke-width="0.5"><title>2021-12-08 3.1km</title></polyline><polyline fill="none" points="160.6433785193367,72.86782625057094 166.1428571428405,76.32222192620975 159.76120959338732,87.05089746911835 159.08550573524553,87.01025932012999 156.7956204379443,85.79111211582494 148.85610010439996,80.77223370251886 148.1428571428405,80.69095558108529 156.49530761211645,85.62855875525565 159.6485922836,87.13217374942906 165.69238790404052,77.33821256423835" stroke="#4dd2ff" stroke-linecap="round" stroke-linejoin="round" stroke-width="0.5"><title>2021-12-07 3.1km</title></polyline><polyline fill="none" points="184.83174327842426,74.2622216612217 189.0,76.81427198633901 183.61405030352762,85.72087808087235 182.98959236772498,85.65327703701041 181.03816131828353,84.57165767374681 171.0,78.43675305237412 183.13009540329222,85.7377783387783 183.75455333909485,85.68707756136428 184.58196010405663,84.16604912099137" stroke="#4dd2ff" stroke-linecap="round" stroke-linejoin="round" stroke-width="0.5"><title>2021-12-04 3.1km</title></polyline><polyline fill="none" points="24.003868472005706,93.45111338651623 26.893617021269165,94.97765037501813 29.0,96.50417841257877 27.990328820131253,98.29453939764062 22.19342359766597,106.22851728723617 14.899419729190413,101.78099651179218 11.0,99.74566505744588 16.013539651874453,102.45943679443735 20.104448742698878,105.11664421489695 22.97678916831501,106.54888661349833 27.346228239824995,99.44413311847893" stroke="#4dd2ff" stroke-linecap="round" stroke-linejoin="round" stroke-width="0.5"><title>2021-12-03 3.1km</title></polyline><polyline fill="none" points="46.459023734903894,92.91400866051845 51.85714285715949,96.29417281289352 45.44334975373931,106.94346058482188 44.42767577257473,106.8009297579265 34.421406180015765,100.71275988178968 33.96999552170746,100.4684158659511 33.85714285715949,100.69239788861887 37.67532467539422,102.54533323622309 38.97313031798694,103.84848924799007 45.349305866635405,107.0859913394961 51.21764442452695,97.65844442941307" stroke="#4dd2ff" stroke-linecap="round" stroke-linejoin="round" stroke-width="0.5"><title>2021-12-01 3.1km</title></polyline><polyline fill="none" points="69.06566692981869,92.49609312581015 71.92975532752462,93.96030340861762 74.71428571431898,95.98434693130548 68.03141278610565,107.39624950024881 67.11649565899279,107.33165505720535 56.714285714318976,100.89367187896278 64.5905288081849,105.8890421752003 67.95185477507766,107.50390687418985 74.67450670886319,96.52265406027436" stroke="#4dd2ff" stroke-linecap="round" stroke-linejoin="round" stroke-width="0.5"><title>2021-11-30 3.0km</title></polyline><polyline fill="none" points="90.403286978486,91.36534684707294 94.84070796472952,93.5825678697438 97.50316055631265,95.50414773801458 89.72060682694428,108.56074928652379 88.85587863472756,108.38830686936853 79.57142857147846,102.67302304468467 85.8065739570884,106.78705168122542 89.65233881166205,108.63465315289795 97.57142857147846,95.47951216730871 92.26927939313464,92.05515049101086" stroke="#4dd2ff" stroke-linecap="round" stroke-linejoin="round" stroke-width="0.5"><title>2021-11-24 3.1km</title></polyline><polyline fill="none" points="114.70634920627344,92.97324007825227 117.61375661368947,94.39666755295184 120.42857142852154,96.30124216723198 114.07671957660932,106.96661798936839 113.37301587301772,106.90647604393598 103.5211640211055,100.85212005116045 102.42857142852154,100.35092571035784 102.70634920615703,100.69173796079122 111.0952380951494,105.58334994109464 114.03968253964558,107.02675992176228 120.0211640211055,97.24350055465766" stroke="#4dd2ff" stroke-linecap="round" stroke-linejoin="round" stroke-width="0.5"><title>2021-11-23 3.2km</title></polyline><polyline fill="none" points="138.32275132264476,93.07347916428989 143.28571428568102,96.26114346968825 136.91534391534515,106.84633156059135 136.082010581973,106.74609493411845 128.56349206343293,102.01488490431802 125.28571428568102,100.31082759906712 128.39682539680507,101.95474188381922 133.78571428568102,105.48311033273058 136.85978835972492,106.92652083571011 142.69312169309705,97.54421811699285" stroke="#4dd2ff" stroke-linecap="round" stroke-linejoin="round" stroke-width="0.5"><title>2021-11-20 3.1km</title></polyline><polyline fill="none" points="161.02393263403792,92.97721228425507 166.1428571428405,96.24181382919778 159.75816220999695,106.92203288283781 158.9949771014508,106.82127801355091 148.1428571428405,100.1915274838102 156.63096469198354,105.51146139457705 159.720933668199,107.02278771574493 165.1935293248389,98.03531319933245" stroke="#4dd2ff" stroke-linecap="round" stroke-linejoin="round" stroke-width="0.5"><title>2021-11-19 3.1km</title></polyline><polyline fill="none" points="183.88151658762945,93.47987906483468 189.0,96.61994156014407 183.1478672985104,106.42777029021818 182.51658767770277,106.35388975020032 180.19620853080414,105.07944706821581 176.08436018961947,102.40124967845622 173.0815165876411,100.92361150123179 171.0,99.3720822067553 180.230331753497,105.11638752536965 183.06255924172,106.52012093515077 186.93554502370534,100.20325978760957" stroke="#4dd2ff" stroke-linecap="round" stroke-linejoin="round" stroke-width="0.5"><title>2021-11-18 3.2km</title></polyline><polyline fill="none" points="24.369369369349442,113.3192047351331 29.0,116.26466336658632 22.747747747809626,126.64178428601008 22.153153153136373,126.56376231121249 19.612612612661906,125.1203517037502 11.0,119.81477601559891 21.018018017872237,125.9200801574334 22.711711711715907,126.68079526488145 27.414414414437488,118.956511310098" stroke="#4dd2ff" stroke-linecap="round" stroke-linejoin="round" stroke-width="0.5"><title>2021-11-16 3.1km</title></polyline><polyline fill="none" points="47.332992588868365,113.97801848976815 51.85714285715949,116.73197343204811 46.38308203424094,125.8999762217718 45.27216969081201,125.60367740680522 33.85714285715949,118.75384435118758 46.15767952980241,126.0219815102173 48.46000511117745,122.3443663825019" stroke="#4dd2ff" stroke-linecap="round" stroke-linejoin="round" stroke-width="0.5"><title>2021-11-15 3.1km</title></polyline><polyline fill="none" points="62.363920704927295,111.0 64.35917530109873,111.99003385772812 66.55395535682328,113.48407748955651 61.532564623164944,121.74615671066567 60.933988244330976,123.11414334275469 62.08125963713974,124.10412897594506 70.64422727900092,129.0 60.78434414957883,123.11414334275469 66.55395535682328,113.80808576740674 66.57058247848181,113.39407511519676 65.95537897798931,113.01606478729809" stroke="#4dd2ff" stroke-linecap="round" stroke-linejoin="round" stroke-width="0.5"><title>2021-11-13 3.2km</title></polyline><polyline fill="none" points="79.98748696560506,111.80951313683181 83.7539103232557,113.58751663862495 86.90719499473926,115.81593406299362 79.57142857147846,128.1904868631682 87.19186652766075,115.83964054987882 97.57142857147846,121.78991447563749 81.56412930134684,112.18882136058528" stroke="#4dd2ff" stroke-linecap="round" stroke-linejoin="round" stroke-width="0.5"><title>2021-11-10 3.2km</title></polyline><polyline fill="none" points="115.73949579836335,113.66825892293127 120.42857142857974,116.68863012947259 114.63025210093474,126.2407700606127 113.50420168071287,125.96785681365873 107.57142857147846,122.29259622948302 103.80672268912895,120.4185565347434 102.42857142857974,119.32687648647698 114.39495798322605,126.33174107705418 114.81512605049647,126.0588279289077 117.47058823530097,121.71037180085841" stroke="#4dd2ff" stroke-linecap="round" stroke-linejoin="round" stroke-width="0.5"><title>2021-11-09 3.1km</title></polyline><polyline fill="none" points="138.86519283911912,114.24747547910374 143.28571428573923,116.90253868434229 138.16880932357162,125.65419324510731 136.8365973807522,125.26086771498376 135.58007929829182,124.2775509008643 125.28571428573923,118.2300586111669 138.0931154632126,125.75252452091081 138.91060915536946,124.22838494811731" stroke="#4dd2ff" stroke-linecap="round" stroke-linejoin="round" stroke-width="0.5"><title>2021-11-04 3.2km</title></polyline><polyline fill="none" points="148.53168873034883,111.0 165.7540255554486,121.12213679763954 157.17593461438082,116.01336129996344 155.89693904994056,115.75075855190516 154.79435666685458,117.06377020137734 149.39170298923273,125.72951599615044 148.55374037811998,127.51993096375372 149.28144475095905,128.1406058841967 150.9794216209557,129.0 149.3696513416944,128.16447797324508 148.5757920256583,127.32895383026334 155.8528357547475,115.4165365700901 154.7502533715451,114.72421853037667" stroke="#4dd2ff" stroke-linecap="round" stroke-linejoin="round" stroke-width="0.5"><title>2021-11-01 3.1km</title></polyline><polyline fill="none" points="176.89542455034098,111.0 179.16195509332465,112.42276319281518 177.1525519649149,115.87651326754712 177.0668428267236,116.05177596408612 177.19064491521567,116.39199117117823 176.43830914667342,117.84562881245802 178.27629399881698,119.04151816225203 178.5334214133909,119.67038698249235 180.88566109462408,120.89718865861505 180.43806892854627,121.88686970748677 182.75221565942047,123.38168742557173 183.06648249941645,123.82497518236778 183.5616908533848,124.15486285053339 183.0093430739944,124.48474975501449 182.5903206206276,125.04143217454111 183.0569592618849,125.86614287277189 183.17123811278725,126.82486306029023 182.9045874606818,127.0310386020501 182.19034464249853,127.17536130381632 181.98083341581514,127.87635520474578 181.2951603103429,128.38148102531704 181.14278850908158,128.74228408678027 181.72370600124123,129.0 182.34271644364344,128.41240703780204 182.86649451038102,127.63925471237599 182.72364594670944,126.9588771963754" stroke="#4dd2ff" stroke-linecap="round" stroke-linejoin="round" stroke-width="0.5"><title>2021-10-30 3.1km</title></polyline><polyline fill="none" points="16.608370131405536,131.0 19.411370022804476,132.8449978284625 18.615318053634837,134.16804298339412 18.87319404364098,134.47149223538872 18.761074048059527,134.7263891826442 16.081406151817646,139.22950470328215 17.18018210923765,139.8485219123395 17.15775811014464,140.43112425738946 21.407105945516378,142.8950242989231 20.936201963748317,143.6960874521319 21.03710995981237,144.02379400313657 23.918593848240562,146.06284260284156 23.13375387864653,147.38578349744785 23.324357871257234,147.62852381329867 23.290721872530412,147.89553775510285 22.046189920743927,149.0 22.057401920319535,148.76939859335835 21.631345936853904,148.42956436377426 21.4519539437606,147.67707183434686 21.07074595853919,147.2280021038314 21.0931699576322,146.9731241544505 21.65376993594691,146.6454233648692 21.810737929830793,145.89292283281975 22.09103791898815,145.67445430420048 23.604657860356383,146.2691735207918 23.918593848240562,146.09925395975006 22.270429912081454,144.81271455570823" stroke="#4dd2ff" stroke-linecap="round" stroke-linejoin="round" stroke-width="0.5"><title>2021-10-26 3.2km</title></polyline><polyline fill="none" points="49.456347667379305,149.0 48.32126028923085,147.52853641567344 47.83824438363081,144.3490819229628 46.49787524557905,142.45714779572154 45.44731565087568,139.5009599073528 44.58996241848217,138.85716127764317 42.81487896543695,138.41044247367245 41.54696221323684,137.4907237096195 40.544704209140036,136.33449899838888 39.55452160263667,134.2059745015722 38.10547388589475,132.91833604159183 36.58397378324298,131.06569678653614 36.354541228094604,131.0 36.25793804693967,131.15767224632145 39.385466035688296,134.32422653966933 40.460176425636746,136.76808415753476 42.283561469230335,138.39730366809817 44.759017985430546,139.36957262360374 45.37486326508224,140.01336937422457 45.869954568333924,141.10387685113528" stroke="#4dd2ff" stroke-linecap="round" stroke-linejoin="round" stroke-width="0.5"><title>2021-10-18 3.2km</title></polyline><polyline fill="none" points="72.17740436742315,149.0 71.19098244264023,147.8708712097723 71.11905584391207,146.3504466855229 70.8416246775887,145.16539919517527 69.8449275243911,143.8461843293917 68.87905605637934,141.1853595814464 68.07758824247867,140.5145559465891 66.46437738632085,140.13443254971935 64.77923993143486,138.8598941013188 63.98804734594887,136.86980354877596 61.80969892867142,134.67843721044483 60.00125873327488,131.70438860729337 59.2511670612148,131.0 59.261442289629485,131.3242427874793 60.268414671183564,132.5094000902027 61.13153385539772,134.1305906020134 63.515386840328574,136.64619621171732 65.06694632623112,139.28474145910877" stroke="#4dd2ff" stroke-linecap="round" stroke-linejoin="round" stroke-width="0.5"><title>2021-10-17 3.3km</title></polyline><polyline fill="none" points="94.81441024161177,149.0 94.89578989089932,148.22843004358583 93.84948011382949,146.88766075992316 93.66346948675346,144.8132420477632 93.37282788206358,143.66218165947066 92.26838978397427,142.2707795178285 91.15232602163451,139.29820020718034 90.25714987900574,138.53923540966935 88.4900489221327,138.17240120249335 86.62994265166344,136.6038597496663 86.24629573337734,136.08522590558277 85.60688420297811,134.26367003652558 83.16549472301267,131.92344791629876 82.54933452088153,131.0 82.24706725194119,131.18974998379417 85.49062756099738,134.52931482362328 86.18816741241608,136.35086782946019 87.25772851798683,137.43873039956088 88.47842325794045,138.33684422141232 89.97813393850811,138.72897692857077 90.91981273790589,139.4120446328743" stroke="#4dd2ff" stroke-linecap="round" stroke-linejoin="round" stroke-width="0.5"><title>2021-10-14 3.2km</title></polyline><polyline fill="none" points="117.92991495045135,149.0 117.05402236973168,147.92622516059782 116.95533024793258,145.84576811964507 116.58523479133146,144.51694744713313 115.52429448225303,143.1075814316282 114.13026826217538,139.68478928986588 113.26671219663695,139.02706880836922 111.31754279159941,138.53042113222182 109.55342111497885,137.04046985175228 108.92425883864053,136.08743146050256 108.77622065600008,135.18808072819957 108.33210610802053,134.463227601751 106.08686033764388,132.30207403781242 105.12461215036456,131.0 104.92722790676635,131.30874006000522 108.2950965623022,134.63772954809247 109.1463161126012,136.50354743732896 110.00987217813963,137.72504359880986 111.2805332459393,138.74518786367844 113.04465492267627,139.2552578201139 114.01923962519504,139.9666687578574 115.31457372347359,143.05389107875817 115.96840903017437,143.9800474135991" stroke="#4dd2ff" stroke-linecap="round" stroke-linejoin="round" stroke-width="0.5"><title>2021-10-11 3.4km</title></polyline><polyline fill="none" points="140.86542690149508,149.0 139.7253476649057,147.73319793309201 139.579805634683,145.71421333242324 139.24020756420214,144.26264149426424 138.14864233759,142.95621662442863 136.8872780757374,139.59113829751732 135.92912637681002,138.9313114873803 134.37667805457022,138.60139715642435 132.9455147574772,137.5192738178157 131.9631060535903,136.4767340761755 131.15049638488563,134.48401437942812 128.4094548159046,131.87101004994474 127.91218621266307,131.0 127.70600166986696,131.277140028149 130.21660169097595,133.63941115544003 131.5749939730158,135.59254997050448 132.03587706870167,136.75386549510586 132.84848673734814,137.75681365620403 134.03707998408936,138.68057665214292 135.84422685927711,139.15565287988284 136.76599305059062,139.85506833024556 137.83330127212685,142.69229123323748" stroke="#4dd2ff" stroke-linecap="round" stroke-linejoin="round" stroke-width="0.5"><title>2021-10-07 3.4km</title></polyline><polyline fill="none" points="163.70628747786395,149.0 163.20423403807217,148.65360710654932 162.76340662746225,147.97414216616016 162.26135318767047,144.68336351405014 160.97560657357099,142.88473409236758 159.76333119452465,139.68712581050931 158.85718596162042,138.9809795730107 157.28979961300502,138.661214317719 155.19586941279704,137.04905574097938 154.69381597300526,136.38287024780584 154.0080844454933,134.51753760309657 151.25291312945774,131.8527427721565 150.75085968966596,131.0 150.57942680781707,131.42637189679954 153.3713337414083,134.1577926302998 154.20400773914298,135.42355875764042 154.59585432626773,136.59604987685452 155.83262011699844,137.96838762743573 156.87346261413768,138.74115568534762 158.5877914329758,139.19415609081625 159.24903254880337,139.64715534354036" stroke="#4dd2ff" stroke-linecap="round" stroke-linejoin="round" stroke-width="0.5"><title>2021-10-06 3.0km</title></polyline><polyline fill="none" points="186.55730822280748,149.0 185.57769168156665,147.7742990432307 185.4307492003427,145.77585547827766 185.13686423801119,144.53680920397164 184.84297927562147,143.92394441881333 183.94907918176614,142.92470383238106 182.65108726470498,139.67380232243158 181.96535568579566,138.9676560320804 179.84693491540384,138.46136074134847 178.25505803595297,137.15564518843894 177.65504290442914,136.4494889092166 176.87134967144812,134.4642420974269 174.36108228453668,131.9993075246748 173.73657673952403,131.0 173.44269177719252,131.31977901833307 176.62644553615246,134.4642420974269 177.65504290442914,136.64934474418988 178.34077448322205,137.5020604522142 180.04285822366364,138.80777346425748 181.9041296519572,139.3940088442905 182.72455850528786,140.22006451236666 183.10415991500486,141.1527034019091" stroke="#4dd2ff" stroke-linecap="round" stroke-linejoin="round" stroke-width="0.5"><title>2021-10-05 3.2km</title></polyline><polyline fill="none" points="26.622361435496714,169.0 26.129992555535864,168.65180288357078 25.576077565550804,167.70095346200105 25.489913011551835,165.94655606223387 25.182182461605407,164.5135622224625 23.889714151679073,162.73234828021668 22.732647283759434,159.66540454348433 21.723291079862975,158.90200863253267 20.270802883955184,158.63414964645926 18.46134725009324,157.28145564251463 17.772030818101484,156.585015138553 17.5012279341463,155.567135680496 16.885766834195238,154.41531773236056 14.263902548351325,151.91075776916114 13.697678336466197,151.0 13.377638564503286,151.2009028475877 16.676510060206056,154.49567736465542 17.75972159614321,156.5984082507057 18.92909768607933,157.97789343629847 20.147710663964972,158.8350439236092 21.809455633803736,159.2770105395757 22.166423071816098,159.5314756718144 22.9542132797651,160.602903838997 23.520437491708435,162.3573536126787" stroke="#4dd2ff" stroke-linecap="round" stroke-linejoin="round" stroke-width="0.5"><title>2021-10-04 3.3km</title></polyline><polyline fill="none" points="49.46837520698318,169.0 48.36143473995617,167.55742046635714 47.93568840652006,164.52664165597525 47.58292715874268,163.79871761365212 46.64628522511339,162.67373820110515 45.429867129423656,159.55022843445477 44.554046100529376,158.8487546723336 42.8388965856866,158.47816363698803 41.0629261660506,157.0619693117187 40.588523108744994,156.47960573757882 39.68837371794507,154.4280824136804 37.1460598980193,151.8868076151266 36.562179212109186,151.0 36.245910507277586,151.19853940473695 39.48158264165977,154.40161098945828 40.46688129915856,156.55901906518557 41.52516504237428,157.76345016142295 42.802404042799026,158.68993003798823 44.70001627202146,159.31199237442343 45.47852385323495,160.0399348833016" stroke="#4dd2ff" stroke-linecap="round" stroke-linejoin="round" stroke-width="0.5"><title>2021-10-02 3.1km</title></polyline><polyline fill="none" points="72.20740493061021,169.0 71.13426173612243,167.5306815165095 70.68812355410773,164.2640275581798 70.33844768174458,163.62118487338012 69.3376512194518,162.62411808696925 69.15678438887699,161.53520972379192 68.36097033449914,159.5804054519249 67.46869397046976,158.85882789712923 65.7203146085958,158.41276028673747 64.20103323209332,157.24510734382784 63.429334755113814,156.14304574593552 62.597347334667575,154.37186080410902 61.05395038070856,152.94177990255412 59.5226112154196,151.0 59.22116649791133,151.22304337976675 62.585289545939304,154.71297929555294 63.34493023419054,156.52352017596422 63.851357359671965,157.19262837724818 65.52738998935092,158.58331568354333 67.37223166087642,159.1212200789014 68.20421908138087,159.82967700788868 68.42125927802408,160.27574101283972" stroke="#4dd2ff" stroke-linecap="round" stroke-linejoin="round" stroke-width="0.5"><title>2021-09-30 3.1km</title></polyline><polyline fill="none" points="95.14026869618101,169.0 94.03738225460984,167.4704011540889 93.52835774299456,164.3716041821317 92.20731793937739,162.3804335432651 91.21350817882922,159.58484474285797 90.28029657434672,158.79363231257594 88.58354820264503,158.39802476510522 86.57168941904092,156.7364633657853 85.37184592761332,154.13859390228754 83.34786751278443,152.37149328981468 82.30557922727894,151.06593742173573 82.05106697155861,151.0 82.0025884466595,151.22418713320803 85.42032445251243,154.57377267633274 85.8808704391704,156.090296367649 87.35946544876788,157.7914248004381 88.47447152162204,158.5826417311182 90.66812477359781,159.43978939662338 91.1650296539301,159.9804496257275 91.7104130591033,161.3650597212254" stroke="#4dd2ff" stroke-linecap="round" stroke-linejoin="round" stroke-width="0.5"><title>2021-09-29 3.2km</title></polyline><polyline fill="none" points="117.8245476896409,169.0 117.3368779454031,168.03405885632674 117.2368431261275,166.1293711442704 116.96174737298861,164.91852358244068 115.74882518849336,163.2995125579764 114.51089429925196,160.03423637981177 113.54805916320765,159.13627514915424 111.65990194829646,158.70089841041772 109.60918815201148,157.1634659593401 108.53381384420209,154.59197908019996 105.7328389029135,151.80275906006864 105.2451691586175,151.0 105.0325951675186,151.38097084345645 108.29623114829883,154.67361414340849 108.90894441667479,156.33351914345985 109.60918815201148,157.36755066149635 111.49734536692267,158.93219243269414 113.58557222044328,159.5988617915864 114.33583336544689,160.27913412747148 114.81099875731161,161.28593251305574" stroke="#4dd2ff" stroke-linecap="round" stroke-linejoin="round" stroke-width="0.5"><title>2021-09-26 3.1km</title></polyline><polyline fill="none" points="140.70861543761566,169.0 140.63705107936403,168.55878224983462 139.63515006401576,167.32596199892578 139.48009395453846,165.02899984335818 139.09841737727402,163.84806395693158 138.108443754958,162.69307492714142 136.93955923704198,159.72121386119397 136.25969783379696,158.92957415725687 134.4586614847649,158.48833078650932 132.8961729965522,157.4111731357989 132.02547330467496,156.50272172290715 131.0593544684234,154.32241891199374 128.50689235789469,151.80465417308733 128.0536514223204,151.0 127.86281313374639,151.37637096521212 130.9042983588879,154.42624347709352 131.5483775830362,155.4125737446011 132.06125548377167,156.68441238623927 132.84846342436504,157.5409515205247 134.13662187266164,158.57917510168045 135.9615130078164,159.0853068435972 136.99919620220317,160.13649881807214" stroke="#4dd2ff" stroke-linecap="round" stroke-linejoin="round" stroke-width="0.5"><title>2021-09-25 3.2km</title></polyline><polyline fill="none" points="162.90508754609618,169.0 163.05040082492633,167.50413000419212 162.21205498545896,166.20283352748083 161.78729309345363,163.2475140489114 160.6694986409275,161.80023923018598 159.51817035471322,158.91781317185087 158.74689218238927,158.26105071605707 157.1931578933145,157.92050617554924 155.55000004795147,156.63129537875648 154.94639104348607,155.8650614743092 154.26453642745037,154.16230652821832 151.8165665762499,151.8513962739089 151.35827085067285,151.0 151.2353134608711,151.3040706100146 153.95155398070347,154.0163552739832 155.16994993400294,156.50967119070992 157.03666666994104,158.0299669985252 158.4897994583007,158.43132271873765" stroke="#4dd2ff" stroke-linecap="round" stroke-linejoin="round" stroke-width="0.5"><title>2021-09-24 3.1km</title></polyline><polyline fill="none" points="186.62956426135497,169.0 186.0413589295349,168.62668513266544 185.53893354185857,167.88005305184925 185.2080680427025,165.1868184805644 184.6933883773163,163.933517226993 183.7988261017017,163.00020205615147 182.67143254895927,159.76022716177977 181.69109032914275,158.92022405259195 179.9509828890441,158.5868883877556 178.05156983819325,157.12020405297517 176.7648706746986,154.48014181983308 174.09343812573934,151.86670834409597 173.55424990487518,151.0 173.37043573864503,151.3866857822577 176.28695384255843,154.20013292432122 176.74036211922066,154.9201549091522 177.09573617385468,156.04018332308624 178.4437067261315,157.72021274035797 179.76716872287216,158.70688929894823 181.38473338546464,159.17355874071654 182.26704138331115,159.840227251334" stroke="#4dd2ff" stroke-linecap="round" stroke-linejoin="round" stroke-width="0.5"><title>2021-09-23 3.1km</title></polyline><polyline fill="none" points="26.519638731202576,189.0 25.591750072780997,187.5520970240177 25.249896356544923,184.656255647511 23.967944920645095,182.8230839385651 22.8569203428342,179.74118738571997 21.916822623170447,178.94413646505564 19.82907314185286,178.3994829440926 18.119804560614284,176.92492478038184 17.66806929273298,176.32712744029413 17.0698252893053,174.573576960247 15.787873853405472,173.40453368121234 13.785587801132351,171.0 13.480361268797424,171.19927198522782 16.471581285935827,174.1351866330515 17.155288718407974,175.30422509914206 17.61923304758966,176.56624661796377 18.241895173559897,177.2968865536095 19.865700325754005,178.5854623830819 21.709268581180368,179.14339953075978 22.576111933100037,179.9005971403676" stroke="#4dd2ff" stroke-linecap="round" stroke-linejoin="round" stroke-width="0.5"><title>2021-09-22 3.1km</title></polyline><polyline fill="none" points="47.911597930360585,184.72851386021648 47.06297170952894,183.6834504496146 46.7552281349781,181.31934525166434 46.46613568614703,180.74099564522476 45.80402072268771,180.0104452480009 44.815511058899574,177.56510208585678 44.23732616129564,177.0070300378793 42.67063159978716,176.57071756396908 41.44898286438547,175.62706020144105 41.01068140967982,175.00809857932472 40.497775452036876,173.63825543309213 38.054477981233504,171.05073616567097 37.84931559819961,171.0 37.80268778390018,171.1319139912157 40.19935744034592,173.52663797423884 40.90810021816287,175.04868631324644 41.52358736732276,175.82999782303523 42.502771468192805,176.6417452716778 44.13474496972049,177.1998188232683 44.82483662175946,177.83906388696778 44.890115561836865,177.99126464840083 45.65481171681313,179.98000556269835 46.699274757818785,181.63388523011963 46.7552281349781,183.1355499096826 46.99769276950974,183.94725362380996 47.82766786456341,185.06333829808136 47.603854355809744,186.43306602715165 47.874295678921044,187.4172322254235 47.38004084699787,187.65059017350723 47.30543634406058,187.90423966167145 46.94173939235043,187.90423966167145 46.17704323731596,188.41153721504088 45.37504483090015,188.71591483634256 45.0673012562911,189.0 45.11392907064874,188.8579574925534 44.75023211882217,188.48255872111622" stroke="#4dd2ff" stroke-linecap="round" stroke-linejoin="round" stroke-width="0.5"><title>2021-09-20 4.7km</title></polyline><polyline fill="none" points="72.11495134636061,189.0 71.49950272787828,188.1295059445547 71.10561561206123,185.04926221705682 70.67480157909449,184.20553403439408 69.78855556849157,183.32162405311828 68.53304038685746,179.91986915307643 67.56063156970777,179.2100460002548 65.60350496292813,178.6475426341931 63.80639499699464,177.16091808355122 63.363271991722286,176.5582289364247 63.08016562717967,175.35284455226792 62.649351594329346,174.56264371615543 60.00292253482621,172.05808580275334 59.449018778221216,171.0 59.31362008221913,171.5625274083868 62.51395289826905,174.89747500493831 63.25249124044785,176.50465646955126 64.08950136153726,177.69664006572566 65.44348832214018,178.76807921860018 67.47446876304457,179.45111833016563 68.37302374606952,180.24129757919582" stroke="#4dd2ff" stroke-linecap="round" stroke-linejoin="round" stroke-width="0.5"><title>2021-09-19 3.1km</title></polyline><polyline fill="none" points="95.20452387502883,189.0 94.05146979662823,187.52097898875945 93.54169851983897,184.2987831589271 92.32795738469576,182.6216333622142 91.25986518576974,179.67667822416115 90.31314710032893,178.8446864787693 88.41971092956373,178.382467147414 86.6840611062944,176.9429763298249 86.17428982956335,176.25624262783094 85.34894585766597,174.28847164106264 83.8317694386933,172.88856751157437 82.29031819704687,171.06603417017322 82.04756997001823,171.0 81.93833326781169,171.19810243634856 85.36108326900285,174.63184265563905 86.05291571601992,176.2826555119682 87.20596979442053,177.68253271207504 88.14055046846624,178.39567343080125 90.25246004358632,179.17484240274644 90.89574284525588,179.66347203662735 91.81818610796472,181.71041931008222" stroke="#4dd2ff" stroke-linecap="round" stroke-linejoin="round" stroke-width="0.5"><title>2021-09-18 3.3km</title></polyline><polyline fill="none" points="114.80011770146666,188.4052906670986 116.37947990896646,187.11876933956228 115.96503734384896,186.7910689239361 116.4242845106055,186.3055856423598 116.36827875854215,186.14780327133485 112.69430142466445,180.38257572629664 107.17213427345268,172.6507890164794 106.69048480590573,171.63118596738786 106.19763418793445,171.0 106.73528940748656,171.67973863508087 107.47456533444347,173.1363120845199 107.77699639555067,173.34265895995486 112.47027841652744,180.24906283061136 112.51508301810827,180.43112584363553 116.45788796187844,186.17207749198133 116.65950866916683,186.7061094517412 116.56989946588874,187.05808412602346 114.82252000225708,188.07759278097365 114.55369239242282,188.5873447698832 114.73291079897899,188.98786309604475 114.97933610796463,189.0" stroke="#4dd2ff" stroke-linecap="round" stroke-linejoin="round" stroke-width="0.5"><title>2021-09-16 4.0km</title></polyline><polyline fill="none" points="140.74440298136324,188.66101629514014 140.33064323675353,188.25642183916352 139.98752539983252,187.07543719152454 137.85817647044314,183.99171126025612 136.92973997053923,182.3185994085943 136.20313749223715,181.50937522113963 135.53708522050874,180.31740191869903 133.5187450030935,177.53973932897497 133.21599397051614,176.77423272951273 132.39856618241174,175.58222182253667 131.06646163895493,173.93088831774367 130.25912555196555,173.37314905549283 127.82702559005702,171.0 132.20682386180852,175.34163131688547 133.73067072592676,177.81313359689375 133.7609458292136,177.95529841935786 135.5875437259092,180.42675766188768 136.03157857374754,181.52031071222154 137.68661755195353,183.5105568209401 138.241661111766,184.63689320185222 139.7251411715406,186.7692544702295 140.3710100411554,188.07052672356076 140.34073493786855,188.1908118246356 140.17926772043575,188.11426677147392 140.26000132918125,188.52979659102857 140.58293576393044,188.85784563630295 140.41137684544083,189.0 140.32055153569672,188.87971554716933" stroke="#4dd2ff" stroke-linecap="round" stroke-linejoin="round" stroke-width="0.5"><title>2021-09-14 4.6km</title></polyline><polyline fill="none" points="150.6118440098362,172.4060635551432 152.57970386208035,171.0 152.85064108815277,171.03090259582677 155.37463524658233,175.40357453619072 157.21415641292697,177.5357988436008 158.78274035314098,180.23967567135696 157.78455057297833,181.1358101052465 156.4013447347097,181.93923776016163 156.38708488072734,182.38730186205066 160.05186735937605,187.4858957132965 161.2782148035476,188.28929933275504 163.24607465590816,189.0 163.67387027590303,188.36654952053505 163.4599724659347,188.93820003644214 163.06069655384636,188.98455001082039 160.23724546137964,187.68674690321495 159.239055681217,186.58978808901156 156.33004546473967,181.93923776016163 155.73113159666536,181.42937056251685 154.94683962652925,179.9924655065115 154.44774473638972,179.57529770028486 153.3069564162288,177.2885855290806 152.66526298609097,176.94866675141384" stroke="#4dd2ff" stroke-linecap="round" stroke-linejoin="round" stroke-width="0.5"><title>2021-09-13 3.3km</title></polyline><polyline fill="none" points="187.36981132079381,181.63853406824637 187.89056603773497,182.15594333145418 187.57358490570914,182.96901338649332 187.93584905657917,184.1023804130091 187.36981132079381,184.964722273784 186.84905660385266,184.59514746742207 186.4415094339056,184.76761576210265 189.0,185.35893494298216 187.46037735848222,184.9154456569231 187.86792452831287,184.1516571516404 187.52830188674852,182.72262873357977 187.77735849062447,182.4023284088762 187.03018867922947,180.7761834875564 185.5811320755165,179.815275891684 185.21886792453006,177.74561922758585 185.4679245282896,176.4151187807729 185.19622641510796,180.65299036289798 185.21886792453006,179.49497273587622 185.5584905660944,179.00219804100925 185.69433962274343,179.86455327254953 186.55471698113251,180.30804936846835 187.14339622633997,181.39214841875946 186.4641509434441,182.08202777226688 185.24150943395216,182.3530514081358 186.4415094339056,182.08202777226688 187.2339622641448,181.4414255633892 186.57735849055462,180.25877205395955 186.01132075476926,180.0123853709374 186.69056603778154,179.6920824070985 186.26037735852879,179.56888887644163 186.30566037725657,179.24858548073098 185.6037735848222,178.80508795636706 184.6528301887447,178.9529205308936 184.44905660371296,178.6326165353821 184.49433962255716,174.71502704414888 186.3283018867951,173.4091535107873 187.79999999993015,174.44399711460574 186.5320754717104,173.43379268204444 184.6754716980504,174.641109812801 184.35849056602456,178.5833389699401 183.67924528301228,178.50942260792363 182.86415094335098,180.6283517324191 181.2113207547227,182.82118261686992 176.9094339623116,185.4082114934281 174.03396226419136,185.6545941348304 171.33962264144793,186.3937409518694 171.0,185.9748912928044 171.29433962260373,186.4676555422484 174.78113207546994,185.50676457214286 176.0037735849619,185.58067936176667 171.47547169809695,186.5908464892418" stroke="#4dd2ff" stroke-linecap="round" stroke-linejoin="round" stroke-width="0.5"><title>2021-09-11 3.6km</title></polyline><polyline fill="none" points="26.878118442196865,209.0 26.522353695181664,208.51615852530085 26.23576542676892,207.6990003358951 25.988706574658863,205.6883413241012 25.553882995038293,204.88191937745432 25.03011822857661,204.31204513934063 24.111059298797045,201.76371193280647 23.271059201681055,201.0862992989496 21.91717669222271,200.8282365030318 20.34588239295408,199.58092645485885 19.209411673306022,197.33359049999854 16.975999650429003,195.15073770772142 15.592470078670885,192.70977436182147 14.47576406726148,191.62369363485777 13.704940448747948,191.3978738384758 13.121881557803135,191.0 14.742587627551984,191.75273335908423 14.83152881427668,192.21512475215422 15.67152891139267,193.20442226791783 16.531293716689106,194.86040503397817 19.090823424281552,197.4841308492105 19.841882334672846,199.09705326218682 20.47435299603967,199.86049689000356 21.828235505498014,200.892752245476 23.31058861798374,201.33360904337314 23.913412217109,201.93575272805174 24.091294590674806,202.34434879117907" stroke="#4dd2ff" stroke-linecap="round" stroke-linejoin="round" stroke-width="0.5"><title>2021-09-09 4.2km</title></polyline><polyline fill="none" points="48.46853532426758,205.55718423592043 48.50731481611729,205.35466238910885 48.111763999506366,205.07619425598386 47.79377216650755,204.60364069924253 47.437000841717236,202.44337065411673 47.19656799238874,202.01299941306206 46.67692280191113,201.48980079038301 46.25810429020203,200.12272196378035 45.91684476216324,199.41385975101002 45.350664181489265,198.9497213642171 44.10972044308437,198.62904281738156 43.14023314745282,197.84422042107326 42.636099753697636,197.26192930659454 42.24830483549158,196.12265538467182 40.43342461803695,194.35042862250702 39.246772168175085,192.33343188545405 38.40137924638111,191.55700511106988 37.68783659680048,191.34601865043078 37.206970898172585,191.0 37.237994491588324,191.13503179484542 38.03685202324414,191.64139958475425 38.26952897416777,191.97053742832213 38.672835689154454,192.09712865071924 39.23126037142356,192.54441649789078 40.239527158933925,194.27447542441223 42.10869866490248,196.1817291302723 42.86102080630371,197.70075767205708 43.683146033028606,198.48558106693235 44.31912969893892,198.85689345761057 44.41995637767832,198.89064906885324 45.23432570605655,199.06786586212547 45.924600660539,199.67546418166603 46.70019049703842,201.6670134989472 47.444756740093,202.74716112955502 47.66967779266997,204.62051764608623 48.42199993407121,205.62469143739872 48.29790556023363,206.5613496883234 47.54558341883239,206.90732058873982 47.64641009760089,207.18578420125414 47.64641009760089,208.16462053562282 46.1650335098675,208.8312369704654 46.37444276569295,209.0" stroke="#4dd2ff" stroke-linecap="round" stroke-linejoin="round" stroke-width="0.5"><title>2021-09-08 5.7km</title></polyline><polyline fill="none" points="71.32313169707777,205.56797890189046 71.31526515289443,205.37112668954796 70.91407140096999,205.0373330335933 70.60727617895463,204.54092015422793 70.34768022180651,202.5210110498956 70.1274169854587,202.11017771446495 69.58462543872884,201.54527946882445 68.76650484657148,199.37981034745462 68.18438057907042,198.90049148213438 66.93360005837167,198.5837975582981 65.80081769998651,197.6679480324383 65.49402247791295,197.2057408139881 65.10069527014275,196.11013105590973 63.23632430532598,194.25270615433692 61.95407760798116,192.1555772582724 61.285421354783466,191.41087325224362 60.168372084677685,191.0 60.09757318731863,191.06847897791886 61.08089120671502,191.62486915293994 61.9619441521063,192.45516945562122 62.787931288417894,193.91032039048878 64.99056365195429,196.1700474858808 65.6041540960723,197.61659176707326 66.79986880772049,198.62659408571926 67.71238792972872,198.94328789105202 67.87758535702596,198.9946435606471 68.29451219722978,199.17438822256372 68.77437139075482,199.62802825603285 69.48236036469461,201.5196022095406 70.31621404518955,202.76922214168007 70.50501110494952,204.63506758996664 71.33099824126111,205.75627200545568 71.19726699060993,206.44953030664328 71.03993610749603,206.60358713642927 71.31526515289443,207.7162136366387 71.14220118150115,207.83603430668154 71.08713537242147,208.09279246282676 70.45781184002408,208.17837838683772 69.9307533815736,208.65765837819345 69.39582837899798,208.76036097227916 69.0261008036905,209.0 68.75863830241724,208.71756823594478" stroke="#4dd2ff" stroke-linecap="round" stroke-linejoin="round" stroke-width="0.5"><title>2021-09-07 5.7km</title></polyline><polyline fill="none" points="93.6873588396702,205.0206127310521 92.86205753148533,203.86758908521006 92.51505584514234,201.49008477656753 91.52094290574314,200.04111332450702 90.6018573580659,197.61252100890124 89.93598925712286,197.08189844249864 88.62300990324002,196.76556477618578 87.20686788583407,195.71451538857218 86.59727032860974,194.84713843229838 86.14710597874364,193.63280142250005 84.77785608108388,192.39804429624928 83.69933732610662,191.0 83.45549830322852,191.14286649824498 85.99705119541613,193.67361964892916 86.71918984007789,195.26552094719227 87.35692266910337,196.03085149348044 88.33227876061574,196.7961777437231 89.73904235404916,197.2451671443996 90.6018573580659,197.92885271023988 90.72377686947584,198.19416260355501 91.53032132971566,200.35743939180247 92.44002845347859,201.71457193399692 92.51505584514234,203.173729449838 92.74951644404791,204.08186855329404 93.42476296890527,204.82674218028114 93.60295302409213,205.24509407714504 93.340357153269,206.50014206860214 93.54668248031521,207.52049777832144 93.340357153269,207.6429399505505 93.34973557724152,208.0000623251617 92.71200274821604,207.97965535751428 92.52443426911486,208.2041318337142 90.93010219652206,209.0 90.53620839031646,208.64288024330017" stroke="#4dd2ff" stroke-linecap="round" stroke-linejoin="round" stroke-width="0.5"><title>2021-09-06 4.6km</title></polyline><polyline fill="none" points="112.50511681304488,191.12699579723994 112.44877425086452,191.0 112.40852956358867,191.22333725258432 112.52121468796395,191.39412398796048 112.79487856139895,191.52549806044044 112.77475621775375,191.58680585994443 112.43670084468613,191.62621798282998 112.27974656432343,191.84079463045782 112.34011359522992,191.99844227813446 112.30791784542089,192.0728868529368 111.6519294429163,192.38380140591835 111.45070600656618,192.37066420472183 111.41448578801646,192.60275432478375 111.15691978950053,192.7034723922552 111.036185727673,192.83922255662765 110.80276654151385,192.96183533755539 110.95569635313586,193.0537947546036 111.07240594622272,193.26398716498443 111.18509107056889,193.48731577351282 111.1931400080357,193.69312765785435 111.33399641347933,193.72378042974378 111.6519294429163,193.54424253735488 111.65997838038311,193.72378042974378 111.55534219347464,193.79822280888766 111.4869262251159,194.1047492543803 111.1649687269528,194.25363294841736 111.07643041494885,194.37186384731103 111.18106660185731,194.5951882266745 111.07643041494885,194.96301475793734 111.34204535091703,195.06810762784517 110.95569635313586,195.637357392814 111.02411232149461,195.7161761545358 111.18106660185731,195.68114560688628 111.23740916402312,195.82126767168302 111.43460813164711,195.6855244264807 111.59156241199526,195.9394954028612 111.808883723279,195.926359000081 111.8169326607167,196.00517737252085 111.75656562981021,196.13216230479156 111.43058366292098,196.27228328956335 111.25753150766832,196.4211614682281 111.1448463833076,196.4255402324634 111.12874850840308,196.51749420553824 111.20923788294022,196.68826548646393 111.34606981965771,196.78897652108935 111.53924431855557,196.5437667427359 111.70022306762985,196.55252425250728 111.77266350472928,196.7101592043873 111.75656562981021,197.05170014338364 112.10266994033009,197.2531207883767 111.93766672252968,197.2137124558576 111.7887613796338,197.3450734610342 112.04632737816428,197.30128649207109 112.12279228396073,197.437025989213 112.26364868941891,197.41951123307808 112.12279228396073,197.5027062780282 111.95778906617488,197.4326473006695 111.87327522289706,197.67347468395747 111.67607625525852,197.72601870861035 111.77668797345541,198.35654332484046 111.61570922436658,198.6148813100226 111.38229003820743,198.74623917025747 111.30180066367029,199.07901109676823 111.13679744584078,199.1490681033756 111.09655275859404,199.36799570856238 110.74239951062191,199.79271292746125 110.66593460479635,199.7489277896384 110.49288244951458,199.5256230772684 110.6256899175205,199.18847513274522 110.62166544879437,199.01333257692022 110.53312713680498,198.96078970798044 110.40836860626587,199.12279673571902 110.26751220080769,199.17971801739623 110.26348773209611,199.35486007533837 110.15482707646152,199.46432359543178 109.14468542598479,199.45994505856652 108.71809174091322,199.71389965579874 108.34381614931044,199.62195070473535 107.9816139638715,199.71389965579874 108.19893527512613,199.83211952350393 107.28940534283174,199.45118798383555 106.94732550102344,199.52124454498335 106.57304990940611,199.48183773965502 106.37182647307054,199.59567954932936 106.9835457195586,199.5869224949056 107.86490437078464,199.84963355767104 108.27540018095169,200.06418005094747 109.12858755105117,201.13690072248937 109.23724820670031,201.1106302469707 109.26541948778322,200.93987186873346 109.46261845540721,200.6290027731702 109.59140145467245,200.69905792472127 109.63969507940055,200.94425029491322 109.80067382848938,201.07122451158284 110.21519410738256,201.0931165900729 110.31983029427647,200.84354641000027 110.52507819935272,200.6640303594213 110.73837504188123,200.89608758895702 110.85910910369421,200.9705208450905 110.8993537909555,200.92673658823696 110.92350060332683,201.11500866036658 110.79874207278772,201.1325223107233 111.10460169603175,201.20695526623967 111.21326235166634,201.3864696519595 111.19716447676183,201.7892804165749 111.37021663202904,201.79803714154332 111.37021663202904,201.87246925093496 111.30582513238187,202.03884656503942 110.92350060332683,202.51170582371924 110.88325591605098,202.78316033935698 110.76654632296413,202.8488346298691 110.62166544879437,202.83132149294033 110.47678457462462,202.54235397722732 110.50495585572207,202.86196947913413 110.76654632296413,203.0327222514352 110.85508463496808,203.20785278267067 111.45070600656618,203.4180087287168 111.47082835019683,203.61502924311935 111.56339113091235,203.70259370340136 111.58753794328368,203.84707477658594 111.72839434874186,203.99155549329225 111.92961778507743,203.9871772949955 112.12681675270142,204.1404140406812 112.04632737816428,204.18419589436598 112.01413162835524,204.35056663985233 112.05437631560198,204.52569322971976 112.19523272106017,204.62639078174834 112.58560618758202,204.6526596798867 112.88341687337379,204.56509664026453 113.04439562246262,204.70957558543523 113.12890946572588,204.6789285662453 113.10476265336911,204.8671885736403 113.1651296842756,205.09922914540584 113.0765913722862,205.20430381888218 113.09268924719072,205.3050002040436 113.29793715226697,205.392562137371 113.44281802642217,205.55892945002415 113.5152584635216,205.37504976118362 113.55550315079745,205.3969402306102 113.53135633842612,205.8172356568357 113.41867121407995,205.9529554106557 113.25769246499112,205.9792237137699 113.19732543408463,206.22001594340327 113.43879355772515,206.4170270313225 113.61587018168939,207.09561570639562 113.70440849369334,207.21819862869233 114.80308845618856,207.70414983216324 115.26992682850687,207.50714307341696 116.10701632373093,207.4458519466607 116.2197014480771,207.5027651379096 116.27201954154589,207.75230693908816 116.22372591681778,208.89055430353255 116.47726744662214,208.93871043516265 116.48531638405984,209.0" stroke="#4dd2ff" stroke-linecap="round" stroke-linejoin="round" stroke-width="0.5"><title>2021-09-04 11.1km</title></polyline><polyline fill="none" points="130.22415363654727,208.95906185578497 129.8085520817549,207.3624672552396 129.98486789286835,207.07589755379013 137.15084621647839,201.87662829433975 138.6243426380679,201.0987724554725 138.29689898883225,200.29362002802372 137.91907939361408,197.55061714052863 137.28938006807584,196.13133619879954 137.56644777132897,195.8720433266426 135.16099634807324,192.02354902858497 135.61437986243982,191.34118363099697 136.4203949989751,191.0 135.96701148466673,191.04094206854643 135.4506580377929,191.45036226167576 135.03505648300052,191.96895988826873 136.3826130394591,194.58922067901585 137.4656958792475,195.7219262366125 138.22133506980026,197.61885153026378 138.76287648966536,200.79854653115035 137.35235000069952,201.8902748591936 137.28938006807584,202.01309389801463 136.28186114737764,202.5180157674331 131.2820485033444,206.24347831662453 130.79088302940363,206.31170954073605 131.83618390967604,205.73856648588844 132.02509370731423,206.27077080924937 131.04276275960729,207.37611342055607 130.236747623072,207.4034057482495 130.24934160953853,208.45415734159178 130.63975519133965,208.8908315955341 130.99238681362476,209.0 131.3576124223182,208.71343280258588 131.2820485033444,208.4132190781238 131.48355228744913,208.03112818782392" stroke="#4dd2ff" stroke-linecap="round" stroke-linejoin="round" stroke-width="0.5"><title>2021-09-03 4.3km</title></polyline><polyline fill="none" points="162.0668616433395,209.0 161.58770115411608,207.477202568145 161.90293831803137,205.62513459584443 162.10469010291854,205.36447167595907 161.00766477250727,204.15718595169892 160.4654568505357,200.63131736495416 159.10363230243092,198.7791802443826 158.0696544047678,195.89804086572258 157.3130852113827,194.9650907907053 154.96772071177838,194.29281499917852 153.0762977282866,192.74245530563348 152.6601846718695,192.05645125666342 152.3701664810651,191.0 152.18102418276248,191.3567244818405 153.15195464761928,192.92081593784678 154.46334124950226,194.19677539911936 155.2325199294719,194.66325298517768 156.9726290742983,195.15716913546203 157.9687785123242,196.0489588141063 159.12885127554182,199.03985252602433 160.5158947968157,201.1800951409532 160.52850428340025,202.62062898838485" stroke="#4dd2ff" stroke-linecap="round" stroke-linejoin="round" stroke-width="0.5"><title>2021-08-30 3.1km</title></polyline><polyline fill="none" points="185.0732894160319,204.7872279405783 184.62107420346,204.44897055174079 184.28191279410385,203.90570693714108 183.8862244830234,201.34311366993643 182.96295175742125,200.1028013132236 182.0396790317027,197.70414886217623 181.34251391229918,197.07885221839388 179.91992022277554,196.709823351448 178.30890352796996,195.4284653988434 177.91321521700593,194.23935449424607 177.49868460546713,193.5730378358203 175.58619110228028,191.66632917802053 175.10571243887534,191.0 174.9267105839681,191.15376855962677 177.12183859496145,193.23475275310193 177.57405380753335,193.8805690040972 178.14874397352105,195.19269422976504 178.75169759028358,195.96151176332933 179.8162875698763,196.79182985222724 181.49325231654802,197.40687704322772 182.02083673118614,197.96041715376487 182.38826159137534,198.88297903360944 182.4824730940163,199.016237458236 182.79337105265586,200.07204962451215 183.8862244830234,201.7838831252593 183.9710148354061,203.23943729890016 184.14059554011328,203.95695831355988 185.00734136422398,205.16648523194453 184.80949720874196,206.5400028528893 185.05444711551536,207.52400701145234 184.913129861583,207.70850700447772 184.15943784062983,207.8622568089122 184.0086994364974,208.23125563567737 183.44343042076798,208.57975361524586 182.34115584008396,209.0" stroke="#4dd2ff" stroke-linecap="round" stroke-linejoin="round" stroke-width="0.5"><title>2021-08-29 4.5km</title></polyline><polyline fill="none" points="24.92776872747345,225.57401975661196 24.909190899983514,224.88679201886407 25.039235692063812,224.67455921683722 24.574790006154217,224.19956078498217 24.193944543716498,223.50221963565127 23.86883256357396,221.24846927295584 22.902785536891315,219.92449973162002 21.973894165072124,217.51908674402512 21.323670204845257,216.97331480887078 20.0510890254518,216.68021415558906 19.00144177529728,215.91208528738935 18.12828388577327,215.02266745505767 17.663838199863676,213.64810110023973 15.676010664203204,211.73783491537324 15.174409323430154,211.0 14.960764307936188,211.07075146803982 17.45019318436971,213.5773509827486 18.30477324646199,215.34609279915458 18.843530242040288,215.98283418161736 19.87459966482129,216.76106957175944 21.06358062074287,217.09459765173233 21.53731522039743,217.36748364997766 21.67664892610628,217.50897987639473 22.23398374923272,218.22656559947063 22.74487400369253,219.88407297655067 23.766654512728564,221.3697482767384 24.091766492812894,223.76498628850823 24.98350220976863,225.07881188578176 24.85345741774654,225.92773855294217 23.878121477318928,226.43304951253958 24.073188665381167,227.1505878277021 24.026744096830953,227.9893953927749 23.30220882681897,228.46438049968128 22.391895282431506,228.71703147196968 22.020338733680546,228.60586510236317 22.094650043407455,228.44416840151098 22.020338733680546,228.61597113975586 21.946027423953637,228.53512281955045 22.36402854125481,228.81809172857902 22.438339851039927,228.65639528170868 22.31758397264639,229.0" stroke="#4dd2ff" stroke-linecap="round" stroke-linejoin="round" stroke-width="0.5"><title>2021-08-28 4.8km</title></polyline><polyline fill="none" points="49.50894590013195,229.0 48.979265287402086,228.63814142192132 48.51117544370936,227.90101983507338 48.04308559990022,224.818478515881 47.66122283262666,223.9875235175423 46.73736129887402,222.94212304390385 45.69031822733814,219.79248216658016 44.72950223216321,218.9883096615522 42.857142857217696,218.5192073659855 41.107965019939,217.12529615146923 40.36887579294853,216.18708057091862 39.76528625760693,214.5384898573684 37.43715519248508,212.27332826826023 36.525611812539864,211.0 36.20533981418703,211.13403498100524 39.48196872055996,214.3642476755922 40.92319271323504,217.13869919558056 42.58614347386174,218.5192073659855 44.85268377006287,219.35018773569027 45.61640930460999,220.12755297789408 45.94899945682846,220.9451231265848 46.04754468705505,221.1863726212614 46.601861607283354,222.94212304390385 47.710495447798166,224.577233913471" stroke="#4dd2ff" stroke-linecap="round" stroke-linejoin="round" stroke-width="0.5"><title>2021-08-27 3.5km</title></polyline><polyline fill="none" points="70.7212533520651,224.69078746991 70.36628176580416,224.41637543907564 69.94592067680787,223.6236264584295 69.6843626658665,221.35715192845964 69.32939107960556,220.73716800338298 68.70352012489457,220.1781636775995 67.82543251680909,217.71851731120114 67.10614798672032,217.04769693473645 65.61153078143252,216.65130151843186 64.3317647993681,215.5942414182864 63.32289818575373,213.5817388670912 61.379895818885416,211.6505215061261 60.95953472988913,211.0 60.6792940038722,211.14230184579355 63.1267296775477,213.5410819425233 63.939427782956045,215.29948280791723 64.78014996094862,216.2040847879034 65.7049443567521,216.86474534792796 67.09680662915343,217.2611401412214 67.92818744963733,218.1860568262273 67.96555287973024,218.30802339152433 68.4419621139532,219.781777397955 69.49753551522736,221.45878836751945 69.67502130829962,222.13975054745242 69.6843626658665,223.15610566014948 69.95526203437475,224.111472532466 70.74927742464934,225.08715942474373 70.52508484385908,226.2254519425187 70.73059470957378,227.4348772926969 70.44101262604818,227.98368860629125 69.69370402343338,228.0853200877682 68.07764917012537,229.0 67.74136029899819,228.72559667288442 67.78806708659977,228.9898369236762" stroke="#4dd2ff" stroke-linecap="round" stroke-linejoin="round" stroke-width="0.5"><title>2021-08-26 4.6km</title></polyline><polyline fill="none" points="93.7054684322211,224.82985334705154 93.15119880408747,224.4107874541878 92.75663398409961,223.77707561352872 92.46540756925242,221.4875115637551 92.19296995544573,220.92533595147688 91.49778432014864,220.14850766168092 90.54894987191074,217.62378520747734 89.98528584325686,217.0922587440582 88.453998565441,216.6833908261542 87.11059929721523,215.6816592540781 86.72542887768941,215.10923791399546 86.19934245094191,213.7395056819223 84.07620794308605,211.69510366002214 83.67224872257793,211.0 83.43738871061942,211.091999217002 85.94569363805931,213.6475082485922 86.8287672828883,215.42611430943361 87.66486892540706,216.36651734783663 88.50097056786763,216.90826833245956 89.9101306394441,217.3273572426333 90.50197786954232,217.87932604013622 90.82138748571742,218.48240050961613 90.88714828906814,218.5641731140422 91.3005019100965,219.9236354900786 92.39025236543966,221.63061044109054 92.51237957167905,223.35800649127486 92.7754227850237,224.16547999359318 93.5175804226892,225.06493852901622 93.31090361223323,226.6491976851903 93.55515802465379,227.5179771653202 93.3672700150637,227.93703352788725 92.5875347754918,228.14145079935406 91.75143313303124,228.67293427394907 90.83078188623767,229.0 90.49258346902207,228.79558401293616 90.5207666704664,228.68315508971864 90.71804908051854,228.70359671900223" stroke="#4dd2ff" stroke-linecap="round" stroke-linejoin="round" stroke-width="0.5"><title>2021-08-25 4.7km</title></polyline><polyline fill="none" points="117.16496715223184,226.96018236286181 116.22754315281054,225.5809722638951 116.0464498802321,224.9551081686077 115.96122951665893,223.19340306456434 115.55643278959906,222.24300120142289 114.76814442645991,221.31577425151772 113.74550006352365,218.63837527837313 112.88264388218522,217.91975815154728 111.15693151962478,217.44454176833096 109.72949042962864,216.2275175521645 109.36730388441356,215.77547755018168 108.55771043035202,213.95571342452604 106.26741315907566,211.61432939577207 105.92653170472477,211.0 105.69217570492765,211.25500495074084 108.44053243048256,213.95571342452604 109.32469370262697,215.98411156122165 110.26211770204827,216.95773322957393 111.27410951955244,217.73430802916118 112.75481333682546,218.12838927382836 113.5431016999064,218.7426903906162 113.63897460896987,218.88177709761658 114.58705115382327,221.32736462267349 115.80144133488648,223.18181283307786 115.87600915308576,225.11736947315512 116.06775497109629,225.7316428721242 117.11170442501316,227.06449187088583 116.81343315244885,228.69866499432828 116.90930606145412,229.0" stroke="#4dd2ff" stroke-linecap="round" stroke-linejoin="round" stroke-width="0.5"><title>2021-08-24 4.2km</title></polyline><polyline fill="none" points="139.1369338639197,224.64979653859336 138.44723117654212,223.75742985384568 138.30742657772498,222.18563333673956 137.99985646037385,220.97888686657825 137.14238825446228,220.07635517213203 136.778896297561,218.70733494831074 136.2849200484925,217.62224983431952 135.57657674787333,217.04421029172954 134.07600738748442,216.62842593807727 132.9202893708134,215.66501826430613 132.46359434805345,215.10725279591134 131.8391338067595,213.60634522367036 130.4783690451295,212.3690981007676 129.44381501403404,211.0 129.27604949550005,211.2738207270595 131.5036027696915,213.4542252849642 132.05350085825194,214.26552965099108 132.49155526782852,215.33035925879813 133.0787345826975,216.0300998730745 134.14124953362625,216.89209421277337 135.65113920066506,217.3484419373126 136.50860740651842,218.4233882812041 137.06782580172876,219.8532565233836 137.17966948077083,220.44142489605292 137.5338411310804,220.71522654360888 137.6177238903474,221.0701537819332 137.93461431429023,221.31353192243114 138.1303407525993,221.7191611852977 138.14898136578267,223.0780103702491 138.33538749755826,223.92981933034753 139.23013692977838,225.00471347339044 139.24877754296176,225.25822500067443 139.08101202442776,225.42047212931357 139.26741815614514,225.42047212931357 139.02509018487763,226.4345122833547 139.295379075862,227.397843403327 138.84800435975194,227.98597903724294 136.84413844370283,228.85803752182983 136.56452924606856,228.929018779505 136.6204510855605,228.81747678646934 136.60181047243532,229.0 136.22899820900057,228.7769160389871" stroke="#4dd2ff" stroke-linecap="round" stroke-linejoin="round" stroke-width="0.5"><title>2021-08-23 4.5km</title></polyline><polyline fill="none" points="164.43084864126286,225.461680540815 166.1428571428405,224.06262513685942 165.18642781232484,222.91228038995905 164.1534841354005,221.03647306504718 161.3511461970047,216.9013187466262 159.93563078792067,217.22260070650373 159.58175193559146,217.08786965037143 158.23318657960044,217.5438819408373 157.79322908754693,217.56460973748472 156.9611355700181,216.5800360612484 154.73265522997826,214.538319459185 152.9058752087294,217.1293253735348 152.44678913004464,217.3780594588825 152.09291027777363,217.39878727967152 151.51905267953407,217.160417157982 149.67314407165395,217.53351804136037 149.13754364656052,216.25875265029754 148.49673599511152,216.1862046828901 148.1428571428405,215.81310026615392 156.18642781232484,216.3002086150591 157.68802186124958,217.67861256511242 157.86017914069816,217.57497363468428 158.06102930015186,217.77188753797236 160.37558827991597,216.84949900773063 161.79110368905822,216.59040003014525 162.45103992713848,217.56460973748472 162.8336116593564,217.80297918199358 163.1301047517918,218.3937191275545 163.17792621831177,218.58026807448186 162.69971155305393,218.90154624304705 162.7188401396852,219.08809452413698 164.80385608016513,221.98992518210434 165.7889782905113,223.68954137292894 165.82723546377383,223.87608337716665 165.39684226509416,224.12480566911108 164.9090633065207,223.88644681467122 164.80385608016513,224.1869861741725 164.48823440109845,224.11444224895968 164.5934416273958,224.58079540864128 164.11522696219618,224.88133330183337" stroke="#4dd2ff" stroke-linecap="round" stroke-linejoin="round" stroke-width="0.5"><title>2021-08-21 5.0km</title></polyline><polyline fill="none" points="184.83652442443417,225.8386990032377 185.0521059394814,224.95148200062977 184.12416811386356,223.65633876706124 183.87109416141175,221.35156525426282 183.76798995857826,221.0660153799181 182.8587983516627,220.04618951617158 182.005845400854,217.6699656470155 181.24662354349857,217.06825431606558 179.88752268784447,216.73170275195298 178.5190487227519,215.67104996072885 178.20973611425143,215.23250841343543 177.58173778781202,213.67210495035397 175.4727881841245,211.65273276419612 175.10723691951716,211.0 174.9478940605768,211.26517306265305 177.36615627276478,213.67210495035397 178.1628705674666,215.29370034196472 178.87522687809542,216.16058304412581 179.84065714111784,216.89487937170634 181.38722018379485,217.37420956213464 181.4996974960086,217.47619449150807 182.005845400854,218.00651489387383 182.68070927402005,219.8116284880889 183.35557314718608,220.9130419868452 183.37431936588837,221.22918680992734 183.6930050837691,221.4637453983305 183.88984038011404,222.0858336125675 183.99294458294753,223.77871503213828 184.9490017365897,225.24722164313425 184.7146740028984,226.3893825142368 184.9864941739943,227.60291795435478 184.7146740028984,228.021024301328 184.09604878578102,228.11280357171927 183.26184205373283,228.69407084932027 182.3807697748416,229.0 182.08083027566317,228.84703551047278" stroke="#4dd2ff" stroke-linecap="round" stroke-linejoin="round" stroke-width="0.5"><title>2021-08-19 4.7km</title></polyline><polyline fill="none" points="24.899179115716834,245.17737042978115 25.021306303562596,244.80941113841254 24.51400875375839,244.3187972083033 24.222782382566947,243.70552731804491 23.92216161225224,241.47729020991392 23.048482498619705,240.17917202031094 22.10904259153176,237.80777465547726 21.51719545002561,237.1433671480263 19.938936406048015,236.7447210921382 18.548565343488008,235.661215676344 18.163394981529564,235.0887942505433 17.552759041951504,233.63728630788682 15.532963241625112,231.6644373967647 15.091426485276315,231.0 14.978693696379196,231.27599746506894 17.44942065217765,233.6986179415835 18.18218377971789,235.34433982638438 18.867974911932833,236.13141719556734 19.863781213469338,236.8776032400565 21.32930746860802,237.33757890756533 21.82721061934717,237.8282179121452 21.911760210990906,237.83843953933683 22.945144108845852,240.41426520563255 23.73427363083465,241.5488396726796 24.166415988118388,244.12459537426184 24.99312310636742,245.2386968819992 24.852207120333333,246.12792734567483 23.847006419673562,246.70030251356366 24.025500002026092,247.12958231592347 24.09126079553971,248.2436593204693 22.37208576546982,249.0" stroke="#4dd2ff" stroke-linecap="round" stroke-linejoin="round" stroke-width="0.5"><title>2021-08-18 4.6km</title></polyline><polyline fill="none" points="47.64261915173847,246.68148968933383 47.52111291768961,246.17303915897355 47.885631619777996,244.739198419491 46.96031491440954,243.85448063048534 46.894888480659574,242.22739839807764 46.63318274583435,241.23080091152224 45.63309297332307,240.1731792593855 45.29661417135503,238.871479772999 44.69842963456176,237.64095551257924 44.14697826461634,237.09179232916358 42.511317421798594,236.66466387434775 41.37102814845275,235.69853503532067 40.875656578922644,235.0374955557927 40.43636480974965,233.7764267057937 38.51095833181171,231.84412108205288 37.95016032853164,231.0 37.82865409448277,231.2034031500225 40.30551194224972,233.58319738013233 41.60469398321584,235.98328951235453 42.87583612394519,236.91890716395574 44.193711431580596,237.31552574586385 44.78254933503922,237.84434872100246 45.70786604046589,240.1731792593855 46.586449578928296,241.4545275140481 46.68926254619146,241.7799473693085 46.894888480659574,243.80363460555964 47.147247582208365,244.34260150206683 47.82020518608624,245.14596328660264 47.63327251834562,246.42726466187014 47.801511919358745,247.56618907871598 47.63327251834562,247.6475404576413 47.53045955108246,247.99328327496187 46.83880868036067,248.14581659128453 45.98826504207682,248.74577930836676 45.18445457069902,249.0 44.941442102659494,248.74577930836676" stroke="#4dd2ff" stroke-linecap="round" stroke-linejoin="round" stroke-width="0.5"><title>2021-08-17 4.8km</title></polyline><polyline fill="none" points="70.65952022466809,247.15212298347615 70.40615906374296,246.30474559773575 70.79089267842937,244.7426987965664 69.82436676841462,243.7625818706947 69.78683178161737,242.077989456433 69.53347062080866,241.14890231772733 68.61386344424682,240.09729056093784 67.7693262413959,237.78984218546248 67.14061521255644,237.08534795807645 65.64859948743833,236.74841465028294 64.29733996279538,235.68655878175196 63.809385134489276,234.99226393723802 63.377732786291745,233.74660844696336 62.064008248446044,232.54178329822753 60.88165616441984,231.0 60.63767875020858,231.0918948571998 63.28389531932771,233.5934532981555 64.0345950552146,235.26794025437994 64.71022481756518,236.12559634500212 65.59229700721335,236.79946520493104 66.18347304925555,237.0138773259605 66.40868297003908,237.07513787007338 66.96232402528403,237.1976588757534 67.77870998805156,237.93278259925137 68.78277088486357,240.5056844388164 69.60854059434496,241.62876130016957 69.8806692486396,243.87488729220058 70.76274143834598,245.15107877139235 70.49061278405134,246.49872401787434 70.74397394491825,247.49923991160176 70.54691526427632,247.9382394681743 69.85251800855622,248.06075072030944 69.07366703252774,248.52016693642508 68.58571220416343,248.6426776662047 68.14467610936845,249.0 67.86316370835993,248.71414220782026" stroke="#4dd2ff" stroke-linecap="round" stroke-linejoin="round" stroke-width="0.5"><title>2021-08-16 4.9km</title></polyline><polyline fill="none" points="93.25347546843113,246.2981206329714 93.51488586346386,245.3839387495973 93.44019717915216,245.0182642727741 93.617582804407,244.7440077688516 92.70264642173424,243.94155037179735 92.63729382294696,242.46867318702425 92.39455559902126,241.2090965739626 91.45161095971707,240.06124641808856 90.52733849151991,237.5420368273626 89.76177947741235,237.04428423946956 88.50140792992897,236.77001162532542 87.1663476980757,235.7338656366046 86.50348562491126,234.8907213967832 86.20473088772269,233.6818669021959 84.12278381286887,231.6704716944223 83.7400043058442,231.0 83.52527433849173,231.10158683331247 83.66531562159071,231.2742842753869 86.09269786125515,233.54980651508959 86.96095381624764,235.39864024081908 88.15597276506014,236.6074794442975 88.33335839025676,236.73953685620654 89.7150990497903,237.14586654851882 90.59269109024899,237.86709875661472 91.61966049938928,240.4878821226157 92.29185865807813,241.3309915956852 92.44123602670152,241.71699177566916 92.70264642173424,243.9110772126005 93.58023846225115,245.1401558744692 93.34683632379165,246.23717536557524 93.59891063329997,247.53733513718907 92.77733510604594,247.73032654216513 92.68397425068542,248.16709555117268 90.96613451174926,249.0 90.60202717583161,248.70543681537674" stroke="#4dd2ff" stroke-linecap="round" stroke-linejoin="round" stroke-width="0.5"><title>2021-08-13 4.8km</title></polyline><polyline fill="none" points="116.42161110264715,247.29795006629865 116.10310575761832,246.3195165277357 116.48718573257793,244.78050788897235 115.46609506750247,243.82244075078052 115.50356628460577,242.41590444718167 115.213164352288,241.10108563870745 114.39816538110608,240.02068239008804 113.70494786539348,238.27774965141725 113.13351180509198,237.36040767225495 112.77753524301806,237.08520387364842 111.25058314751368,236.71826461041928 109.90161933313357,235.6378265940948 109.51753935817396,235.0160612083564 109.0678847534,233.74194294221525 107.0725424446282,231.77468092554045 106.59478442696854,231.0 106.36995712458156,231.1427047121906 108.85242525528884,233.47692484517756 109.29271205578698,234.4452576991389 110.48242319765268,236.17804667373275 110.63230806589127,236.27997475033044 111.48477825417649,236.91192712254997 112.5995469618938,237.1361675820226 113.43328154162737,237.8802355523876 114.2108092957642,239.95952723293885 115.33494580775732,241.67186125393346 115.40988824190572,243.05802064828458 115.66281895712018,244.10782315611868 116.4403467111988,245.086272578621 116.25299062591512,246.78835014177457 116.46845012402628,247.55274931379972 116.2061516045942,247.94004325741116 113.92977516778046,249.0 113.52695958432741,248.87769771974854" stroke="#4dd2ff" stroke-linecap="round" stroke-linejoin="round" stroke-width="0.5"><title>2021-08-12 4.9km</title></polyline><polyline fill="none" points="139.5156111663091,248.21018168445153 139.423589520331,247.665093358155 139.7814514769707,246.18555782882322 138.78966262569884,245.17323556331394 138.57494545174995,244.2832762304024 138.65674247039715,243.54905577056343 138.51359768776456,242.53671555417532 138.16596035845578,241.7691123336699 137.26619315316202,240.96813083460438 136.37665057519916,238.3204112797248 135.7222744259634,237.68628657146473 133.8613922513905,237.18565989099443 132.25612576014828,235.88402263073658 131.8266914121923,235.30551352296607 131.56085110158892,233.97048391135468 130.2929973123246,232.89132621092722 129.29098383372184,231.76765883473854 128.93312187708216,231.0 128.78997709444957,231.289263214916 131.39725706423633,233.88148151086352 132.17432874150109,235.52801729242492 132.68556010816246,236.24002711637877 134.1067833073903,237.39703580617788 134.42374675464816,237.4971611347719 134.64868855598615,237.59728639594687 135.7324990532361,237.88653677157708 136.34597669320647,238.55403549033508 137.3786640538019,241.11275281340932 138.37045290507376,242.6257127726276 138.72831486171344,245.21773339011997 139.6689805762726,246.46366713456518 139.4338141476619,248.21018168445153 139.6996544583235,249.0" stroke="#4dd2ff" stroke-linecap="round" stroke-linejoin="round" stroke-width="0.5"><title>2021-08-11 4.4km</title></polyline><polyline fill="none" points="154.55850727541838,248.105906666402 155.3586825481616,248.62353995873127 155.89934151619673,248.60001119118533 161.6519529366633,245.84713324037148 161.241052120924,242.52953036269173 161.67357929539867,240.41189320749254 159.53256978176069,237.0001144662965 159.16492168337572,232.67063160630642 158.5377572805155,231.09412032639375 157.6510765728308,231.0 152.89327765372582,232.694161565596 152.5688822728116,232.4118019384914 154.7963972213911,231.72943179297727 155.63982521160506,234.2236051399086 156.07235238607973,234.5294929621159 156.3318686906714,233.94124688603915 155.48844070057385,231.8470819237118 157.82408744259737,231.0 158.5377572805155,231.0705902474583 159.16492168337572,232.81181133538485 159.14329532475676,235.75304127586423 159.46769070555456,236.85893661752925 161.69520565413404,240.10601110657444 161.241052120924,243.11776037549134 161.71683201286942,245.42361141717993 161.26267847954296,246.55300167843234 159.53256978176069,246.85887750962866 155.57494613539893,249.0 154.49362819921225,247.8470897008374" stroke="#4dd2ff" stroke-linecap="round" stroke-linejoin="round" stroke-width="0.5"><title>2021-08-10 3.1km</title></polyline><polyline fill="none" points="185.3376615989837,245.938136305238 184.61913022989756,245.17498529334262 184.32829610427143,242.89481108430482 184.08023170306114,242.38292949635797 183.37880822370062,241.67559874442668 182.88267942122184,240.1306254813171 182.463536122581,239.3488244686232 182.12137832777807,238.9579221192471 180.6073300857388,238.5763257834551 179.33279230014887,237.62698347760306 178.95641872580745,237.10577285531326 178.61426093100454,235.88650375956786 176.90347195696086,234.2018451080221 175.2867763765098,231.6143138844709 174.60246078690398,231.0 174.61101473175222,231.242002801715 175.67170389569947,232.47062514347635 176.3560194853053,233.7085429503204 178.11813212855486,235.35597835914814 178.41752019900014,235.76550693767058 179.17026734756655,237.31984176812693 179.5380869769724,237.81312959899515 180.73563925881172,238.73454879649216 181.7877744778525,238.97653654468013 182.5747374058992,239.6373468431484 183.33603849931387,241.6011426417972 184.31974215942319,243.11817693519697 184.49082105682464,245.00746371284913 185.39753921306692,246.3941633337381 185.16658270155312,247.32482555181923 185.35476948870928,248.50675653324288 184.98694985927432,248.66496691485372 184.9099643554655,248.8697094629897 184.38817371835466,249.0" stroke="#4dd2ff" stroke-linecap="round" stroke-linejoin="round" stroke-width="0.5"><title>2021-08-08 5.0km</title></polyline><polyline fill="none" points="25.55821629712591,269.0 25.34983981004916,268.1621575353347 25.57633599161636,266.93002658546175 25.739413242437877,266.7033132355864 24.878727752249688,265.81617029046174 24.534453556174412,263.31242353605194 23.673768065986224,262.30696853467816 22.767783339484595,259.8721584531304 22.124534183647484,259.2609844835315 20.919574497442227,259.0342579349308 19.94111099280417,258.3836491504335 18.971707335440442,257.36829871677764 18.43717634677887,255.88961903605377 17.395293911278713,255.04183519765502 16.498369032051414,254.03631705816224 14.940075302438345,251.4534803718052 14.342125382972881,251.0 14.260586757562123,251.1084411005504 15.384007818473037,252.23227997472713 16.317172086739447,253.84901381132659 16.444009948463645,254.04617511638935 18.41905665223021,255.90933487434086 19.13478458620375,257.4865923740217 19.77803374204086,258.29492952172586 20.79273663571803,259.06383098514925 21.898038002080284,259.29055748282553 22.822142423072364,260.138313972835 23.76436653867131,262.56326171478577 24.570692945213523,263.6968601850167 24.64317172340816,265.2050238976808 24.851548210484907,265.95417069647374 25.594455686223228,266.93002658546175" stroke="#4dd2ff" stroke-linecap="round" stroke-linejoin="round" stroke-width="0.5"><title>2021-08-07 4.9km</title></polyline><polyline fill="none" points="47.17938215722097,266.90446585792233 46.81250773393549,265.8317417608923 47.16791733150603,264.53448479634244 47.07619872567011,264.1103793687071 47.29403041454498,263.82348390888365 46.14754784159595,262.65094950658386 46.078758887189906,260.6925491906586 45.780673418194056,259.27051161412965 44.62272601953009,258.17279010111815 43.56796205241699,255.05422363635444 42.75395942560863,254.4180289121141 41.48136376962066,254.18101457050943 40.59857218846446,253.71945935906842 39.211328275094274,252.5468538842979 38.67248146585189,251.78590336437628 38.42025529971579,251.0 39.26865240378538,252.63417585287243 40.323416370898485,253.65708693518536 41.22913760354277,254.16854012213298 42.58198703965172,254.50534990041342 43.5450324009289,255.4284546927811 44.43928880785825,257.7985652058851 45.75774376676418,259.7944216062024 45.906786501233,260.28090798172343 45.906786501233,260.8048147984955 46.181942318798974,262.8630042114237 47.202311808709055,264.2101689781557 47.06473389995517,265.3327979689493 45.89532167551806,266.1435808727256 46.136083015822805,266.84209836683294 45.98704028141219,267.21630296357034 46.090223712904844,268.05202353096684 45.68895481241634,268.05202353096684 44.003625430108514,269.0 43.78579374123365,268.66321950318525" stroke="#4dd2ff" stroke-linecap="round" stroke-linejoin="round" stroke-width="0.5"><title>2021-08-06 3.9km</title></polyline><polyline fill="none" points="71.10271689936053,269.0 70.98717548995046,268.1771891267854 71.39682230510516,266.4287013058929 70.33594209130388,265.217318922485 70.18888938840246,262.90880891388224 69.97881409857655,262.34881855433923 68.90743012021994,261.14883229845145 68.29821177967824,259.13740561711893 67.8045348484302,258.2345407079556 67.18481274333317,257.74310566579516 65.55672924686223,257.3430992313806 63.83411186997546,256.15450250080903 63.45597634819569,255.48019831931742 63.04632953298278,253.9944328339334 60.88255404733354,251.89147851000598 60.2523281777394,251.0 60.031749123416375,251.16000934664044 62.84675800765399,253.91442966683826 63.80260057654232,255.93735402167658 64.95801467075944,257.0230933294224" stroke="#4dd2ff" stroke-linecap="round" stroke-linejoin="round" stroke-width="0.5"><title>2021-08-05 3.0km</title></polyline><polyline fill="none" points="94.13913412846159,269.0 93.6961899305461,267.85685137436667 94.10823104489828,266.0188294142572 93.07812825910514,265.14464032462274 93.07812825910514,263.4298699846113 92.85150564624928,262.320302245309 92.5939799498301,261.83836622245144 91.70809155405732,260.8969053322944 90.89431035338202,258.58805952545663 90.04962606896879,257.6017456119298 88.29845133319031,257.20945986350125 86.81510332174366,256.01017991687695 86.20734267809894,255.001432338031 85.8571077309316,253.8693852964352 83.79690215940354,251.89668881209218 83.18914151587524,251.0 83.00372301437892,251.03362592736084 83.03462609794224,251.23538133299735 84.09563196729869,252.10965161579952 85.76439848024165,253.88059372494172 86.77389921032591,255.86447235313244 87.55677732743789,256.64904986887996" stroke="#4dd2ff" stroke-linecap="round" stroke-linejoin="round" stroke-width="0.5"><title>2021-08-04 3.0km</title></polyline><polyline fill="none" points="115.8794266784098,269.0 115.76674679870484,267.97467142775713 116.68867308751214,267.4285696341685 116.93452009785688,266.0242986870726 115.98186293273466,264.9878044969955 115.64382329350337,262.2572207600897 115.36724540684372,261.71109800587874 114.5887298740563,260.84175561334996 113.97411234822357,258.85785268916516 113.51314920379082,258.099950213742 112.79609542363323,257.54266652111255 111.24930798349669,257.1525666954549 109.75373867055168,256.0268443265377 109.26204464980401,255.32465675711865 108.82156875624787,253.9091257185355 107.60257732996251,252.88369325431995 106.0865207661409,251.0 105.9226227592444,251.06687709157995 106.01481538813096,251.31209283717908 107.08015243295813,252.21492914691044 108.63718349853298,253.89797975147667 109.72300779423676,256.04913594116806 110.3273816946894,256.584133691591" stroke="#4dd2ff" stroke-linecap="round" stroke-linejoin="round" stroke-width="0.5"><title>2021-08-03 3.1km</title></polyline></svg>