<?xml version="1.0" encoding="utf-8" ?>
<svg baseProfile="full" height="300mm" version="1.1" viewBox="0,0,200,300" width="200mm" xmlns="http://www.w3.org/2000/svg" xmlns:ev="http://www.w3.org/2001/xml-events" xmlns:xlink="http://www.w3.org/1999/xlink"><defs /><rect fill="#222222" height="300" width="200" x="0" y="0" /><text fill="#FFFFFF" style="font-size:12px; font-family:Arial; font-weight:bold;" x="10" y="20">Over 3km Runs</text><text fill="#FFFFFF" style="font-size:4px; font-family:Arial" x="10" y="280">ATHLETE</text><text fill="#FFFFFF" style="font-size:9px; font-family:Arial" x="10" y="290">phh95</text><text fill="#FFFFFF" style="font-size:4px; font-family:Arial" x="120" y="280">STATISTICS</text><text fill="#FFFFFF" style="font-size:3px; font-family:Arial" x="120" y="285">Number: 91</text><text fill="#FFFFFF" style="font-size:3px; font-family:Arial" x="120" y="290">Weekly: 3.8</text><text fill="#FFFFFF" style="font-size:3px; font-family:Arial" x="141" y="285">Total: 333.2 km</text><text fill="#FFFFFF" style="font-size:3px; font-family:Arial" x="141" y="290">Avg: 3.7 km</text><text fill="#FFFFFF" style="font-size:3px; font-family:Arial" x="167" y="285">Min: 3.0 km</text><text fill="#FFFFFF" style="font-size:3px; font-family:Arial" x="167" y="290">Max: 11.1 km</text><polyline fill="none" points="16.63902647572104,31.0 20.888922468584497,33.54793923799298 21.515401160751935,34.17117227142444 15.673910652694758,43.77609917330847 15.623115083086304,43.977725414632005 16.96073175012134,44.894206306911656 23.005404536786955,48.468450102445786 24.376884916971903,49.0 23.005404536786955,48.43179144769965 17.29936888103839,45.05917251537903 15.640046939544845,43.8494178250985 21.515401160751935,34.2444937039254 21.447673734568525,33.8778863290936 20.1777844937169,33.14466998727585" stroke="#4dd2ff" stroke-linecap="round" stroke-linejoin="round" stroke-width="0.5"><title>2022-01-04 3.1km</title></polyline><polyline fill="none" points="47.357142857217696,33.727787981100846 47.292857142863795,34.21496229839977 49.09285714291036,35.05011597345583 51.85714285715949,36.98139773249568 47.42142857145518,44.045233074444695 46.280357142852154,46.2722120188846 44.23928571434226,45.08913202326221 43.30714285717113,44.84555600727617 42.84107142861467,44.306208236608654 40.68750000005821,43.14051698548428 39.83571428572759,42.40978227411688 38.6464285714319,41.92262456585013 34.532142857206054,39.27803692268208 33.85714285715949,39.06925244847662 34.69285714288708,39.347631707045366 35.207142857136205,39.852193291517324 40.28571428573923,42.70555611535383 43.516071428661235,44.915149179898435 46.21607142861467,46.1852210410143 51.80892857152503,37.08579089901468 51.82500000001164,36.7552123828209 51.19821428577416,36.37243669081363" stroke="#4dd2ff" stroke-linecap="round" stroke-linejoin="round" stroke-width="0.5"><title>2022-01-03 3.7km</title></polyline><polyline fill="none" points="62.764999762002844,31.0 65.74269887374248,32.78409055614611 65.95863888569875,33.10399446899828 62.63998186029494,38.35771490515617 62.094449198571965,39.661892012751196 66.924686307495,42.59010227852559 68.00438636710169,43.08223350762273 67.75435056380229,43.18065958250372 67.86800320167094,43.74660840751312 67.41339265025454,44.201826747652376 68.04984742228407,44.472496534333914 68.54991902882466,44.97692544166057 68.48172744608019,45.346018816067954 68.24305690662004,45.24759399452887 67.9816558395396,45.50595902949863 67.90209899307229,46.0965062067844 67.22018316591857,47.449835753053776 67.49294949678006,47.84352959878743 67.97029057575855,47.905044179889956 68.09530847740825,48.089587789581856 68.72039798565675,47.73280329682166 69.02726010780316,47.26529144907545 69.04999063536525,46.85929327548365 69.25456538348226,46.90850522693654 69.33412223006599,47.51135047650314 68.84541588724824,47.53595635968668 68.15213479631348,48.05267908364476 68.09530847740825,48.77854882981046 68.48172744608019,49.0 68.26578743418213,48.91388013472897 68.01575163088273,47.757409147918224 68.22032637899974,46.933111197300605 68.41353586339392,46.62553631160699 68.66357166669331,46.66244532726705" stroke="#4dd2ff" stroke-linecap="round" stroke-linejoin="round" stroke-width="0.5"><title>2022-01-01 3.0km</title></polyline><polyline fill="none" points="84.6955705084838,31.0 87.65946196840378,32.674884726526216 89.49968029238516,34.03241442194849 85.03755798464408,41.190173148497706 83.83245925907977,43.57016947962984 93.31039788376074,49.0 85.28183475328842,44.53979094837268 83.8487443770282,43.30572659110476 89.48339517449494,34.155825837224256" stroke="#4dd2ff" stroke-linecap="round" stroke-linejoin="round" stroke-width="0.5"><title>2021-12-30 3.1km</title></polyline><polyline fill="none" points="107.6239259589347,31.0 111.83332094654907,33.54146378749283 112.28664040676085,34.049753343861084 106.66871709638508,43.356521774694556 113.2256592886406,47.194802324826014 113.71135871030856,47.73811566179211 115.26559685962275,48.21132305901847 116.1884257607162,49.0 114.56942768854788,47.89585156357498 113.67897874885239,47.65048456081422 110.45717258524382,45.63496048845991 108.0772454192047,44.46069090506353 107.12203655659687,43.60189312757575 107.34869628667366,42.98846427924582 106.99251671083039,42.63793281115068 112.27045042603277,33.8218995367497" stroke="#4dd2ff" stroke-linecap="round" stroke-linejoin="round" stroke-width="0.5"><title>2021-12-29 3.2km</title></polyline><polyline fill="none" points="125.28571428573923,36.90060181381705 125.81686182669364,37.5236999738263 125.75784543319605,38.37047157190682 125.96440281032119,38.59414654500142 127.9266978923115,36.53313284210162 128.36932084307773,37.76335264307272 132.01358313817764,37.827259977537324 133.10538641695166,37.347954517405014 133.90210772835417,37.63553791856975 133.96112412179355,38.03495868643222 134.19718969555106,38.14679637168592 134.50702576112235,37.90714411949739 134.3447306791786,37.475769408702035 135.02341920376057,36.165663257503184 134.80210772831924,34.82359521999024 135.31850117101567,34.40819155149802 135.90866510540945,34.47209985916561 136.72014051530277,35.15911299579602 137.38407494151033,35.20704406492587 138.07751756440848,36.13370935161947 138.99227166280616,36.32543271740724 139.62669789232314,35.941985818994 139.87751756445505,35.111181916247006 141.61850117100403,35.15911299579602 142.5185011710273,34.13658103709167 142.76932084315922,33.52945044107037 143.04964871198172,33.41761041191057 143.28571428573923,33.60933614139503 143.16768149886047,35.49463026065496 141.83981264644535,36.03784760614508 139.80374707258306,37.76335264307272 139.55292740045115,38.54621621273691 139.05128805624554,38.99356557507417 138.85948477761121,39.9841216452769 136.12997658085078,41.8533846794744 135.98243559722323,42.268774311378365 136.27751756442012,43.6587262320827 136.056206089037,44.265828917734325 135.11194379394874,44.23387618653942 134.59555035131052,43.9622777839686 133.96112412179355,44.122041590715526 133.45948477752972,44.45754520785704 132.63325526937842,46.05517447243619 131.76276346604573,46.40665135634481 131.20210772834253,46.502508591045626 131.2316159250331,46.358722723365645 131.24637002346572,46.582389588074875 131.2316159250331,46.42262756501441" stroke="#4dd2ff" stroke-linecap="round" stroke-linejoin="round" stroke-width="0.5"><title>2021-12-25 3.3km</title></polyline><polyline fill="none" points="153.23059648554772,31.0 157.92851604538737,34.159210575249745 152.34873445209814,43.35887244177866 159.37156300910283,47.71557031266275 160.76650840748334,48.23628587968415 161.93697983358288,49.0 152.3647683073068,43.39358747861115 157.36733111500507,35.02711828054453" stroke="#4dd2ff" stroke-linecap="round" stroke-linejoin="round" stroke-width="0.5"><title>2021-12-25 3.1km</title></polyline><polyline fill="none" points="176.20325788820628,31.0 179.165371346171,32.629975763877155 180.78553285071393,33.65756360121304 180.90008972480427,33.95875232221442 175.9577788723982,41.86039459744643 175.31953343114583,43.52573060557188 184.68046656885417,49.0 184.32043067889754,48.592534326104214 182.43842489086092,47.75988497074286 182.07838900090428,47.281553209380945 175.35226396663347,43.43714918823389 175.51591664383886,42.65763133399014 180.40913169307169,34.84459935326595" stroke="#4dd2ff" stroke-linecap="round" stroke-linejoin="round" stroke-width="0.5"><title>2021-12-24 3.0km</title></polyline><polyline fill="none" points="22.96659242757596,52.263999434013385 28.939866369590163,55.9530483566632 25.752783964271657,60.90064270046423 21.964365256018937,67.60580472912989 21.563474387512542,67.73600056598661 19.619153674924746,66.34724205787643 18.71714922040701,66.10854854158242 17.775055679376237,65.24057051664568 15.991091314004734,64.43768860650016 11.120267260586843,61.29123877652455 11.0,61.48653662370634 13.445434298482724,62.59322202135809 14.908685968839563,63.7867016956443 22.024498886312358,67.60580472912989 29.0,56.03984896111069 28.51893095765263,55.56244532557321" stroke="#4dd2ff" stroke-linecap="round" stroke-linejoin="round" stroke-width="0.5"><title>2021-12-22 3.1km</title></polyline><polyline fill="none" points="46.185634477296844,52.33604789458332 49.60462889063638,54.317397651146166 51.61580207501538,55.645547873165924 51.81691939337179,56.05923281010473 46.36664006393403,64.6376238068915 44.81803671189118,67.66395210544579 41.37893056671601,65.90041197801474 36.71300877886824,62.67811442632228 35.36552274541464,62.199121303041466 33.977813248173334,61.197587762464536 33.85714285715949,61.39354023931082 36.89401436550543,62.74343161127763 37.678371907328255,63.570781393616926 40.534237829153426,65.1166130474885 41.09736632090062,65.7697789646918 44.75770151638426,67.53331985799014 51.85714285715949,56.01568705411046 51.75658419798128,55.66732077882625 50.811332801240496,55.10122472094372" stroke="#4dd2ff" stroke-linecap="round" stroke-linejoin="round" stroke-width="0.5"><title>2021-12-20 3.1km</title></polyline><polyline fill="none" points="61.665733478963375,51.0 65.81850587081863,53.464882148779 66.05901392444503,53.86412123928312 65.62609942798736,54.88825325804646 61.264886723074596,61.58839889970841 60.52732869202737,63.115867042317404 67.38982515427051,67.2816398096329 70.90124273655238,69.0 65.67420103872428,66.3269899404986 61.74590283015277,63.94902738367091 60.9442093182588,63.237369772352395 61.13661576114828,62.75135848289938 60.75180287536932,62.38684936948994 63.65393338864669,58.04741260848823 64.9526768779615,55.68672603490995" stroke="#4dd2ff" stroke-linecap="round" stroke-linejoin="round" stroke-width="0.5"><title>2021-12-19 3.1km</title></polyline><polyline fill="none" points="91.36680006957613,51.419776571012335 90.64329215243924,51.53845494441339 92.70419349218719,52.440409178554546 97.57142857147846,55.81084777860087 89.89785975287668,68.58022342898767 86.89420567255002,66.91880863817642 86.1268487906782,66.77640126444749 84.24134330963716,65.25738543068292 82.29006438155193,64.42667067059665 80.73342613549903,63.050053006765665 79.57142857147846,62.646560527413385 80.49225682974793,62.90764395307633 80.95267095882446,63.4535449896357 81.43500957032666,63.429810180852655 85.20602053240873,65.70834399061278 86.14877327298746,66.63399382893112 87.1353749781847,66.80013583105756 89.78823734121397,68.34287897421746 97.52757960674353,55.8583184973686 94.41430311475415,53.65092280367389" stroke="#4dd2ff" stroke-linecap="round" stroke-linejoin="round" stroke-width="0.5"><title>2021-12-17 3.1km</title></polyline><polyline fill="none" points="115.18780995032284,52.30796909221681 115.30875059985556,52.76622908632271 120.42857142852154,56.10495944437571 113.39385698293336,67.69203090778319 112.5674292112235,67.56110603397246 111.15645496721845,66.49188410339411 109.92689169722144,66.1427495906828 108.29419292905368,64.76802851678804 106.35914253711235,63.85154431863339 105.71412573987618,63.17508990925853 102.42857142852154,61.23300268733874 102.60998240264598,61.6476066277246 105.00863861781545,62.71684573733364 109.987362022046,66.05546589929145 113.31322988320608,67.62656847797916 120.42857142852154,56.235889293195214 120.32778755400795,55.79945624276297 119.54167333233636,55.297557453624904" stroke="#4dd2ff" stroke-linecap="round" stroke-linejoin="round" stroke-width="0.5"><title>2021-12-16 3.1km</title></polyline><polyline fill="none" points="137.54745925217867,52.27297924243612 143.28571428568102,55.97853397682775 136.2790028763702,67.72702075756388 132.8360498562688,66.13587962152087 132.19175455416553,65.43839044607012 129.2118887823308,63.825440540967975 128.10450623196084,62.90997864396195 125.32598274212796,61.36240577537683 125.28571428568102,61.58037426622468 126.13135186955333,61.68935845248052 131.97027804411482,65.15503500716295 132.75551294337492,65.91791442764224 136.29913710441906,67.5308531266055 143.28571428568102,56.15291189972777 143.14477468840778,55.73876416799612 142.5004793863045,55.39000774160377" stroke="#4dd2ff" stroke-linecap="round" stroke-linejoin="round" stroke-width="0.5"><title>2021-12-15 3.1km</title></polyline><polyline fill="none" points="158.88673242123332,52.23144654929638 160.9112313076621,52.904159195924876 163.71746738790534,54.37978164906963 166.06267896911595,56.31110006140079 159.4279350938741,67.37796565736062 158.94686605152674,67.76855345070362 158.30544066184666,67.52986097079702 151.00922685337719,63.146565282862866 150.78873687563464,62.7776711381739 148.1428571428405,61.540787458448904 150.70855870191008,62.75597146846121 151.95132039452437,63.79755384271266 154.95800190907903,65.38162010084488 155.77982818963937,66.22789864457445 157.00254533893894,66.53169035963947 159.06713331223,67.68175620728289 162.31434934784193,62.36537714523729 163.31657651928253,61.3237897954823 166.1428571428405,56.115798764978535 163.2965319758514,54.22787967309705" stroke="#4dd2ff" stroke-linecap="round" stroke-linejoin="round" stroke-width="0.5"><title>2021-12-14 3.3km</title></polyline><polyline fill="none" points="183.4179775280645,52.205411218776135 183.86292134830728,52.7309021987312 185.54157303378452,53.4972415746015 188.9797752809245,55.81814326829044 183.47865168529097,64.70746993870125 181.9011235955404,67.79458878119476 179.59550561802462,66.34955835097935 178.48314606735948,65.99924690430635 173.487640449428,62.605583764699986 172.3348314606119,62.25526798257488 171.0,61.22621302635525 171.0202247190755,61.510845598444575 173.50786516850349,62.64937320895842 175.6112359550316,64.29147279256722 177.75505617982708,65.18915013008518 178.48314606735948,66.08682480399148 179.35280898876954,66.24008606749703 181.82022471912205,67.55375085546984 189.0,55.99330493749585 188.6359550561756,55.55540057423059" stroke="#4dd2ff" stroke-linecap="round" stroke-linejoin="round" stroke-width="0.5"><title>2021-12-13 3.1km</title></polyline><polyline fill="none" points="16.2922689714469,71.0 17.46226409607334,71.21408106418676 17.149166809162125,71.35680167032115 17.643530946341343,71.32112152651825 17.412827682273928,71.51736225337663 17.692967359966133,71.39248180891445 17.52817931433674,71.5708824244939 17.758882578345947,71.46384207061783 17.610573337238748,71.62440258399874 17.808318992028944,71.55304236874508 17.824797796667553,71.78496299272228 20.955770665139426,73.76519943277526 16.20987494866131,81.45407478501147 15.22114667436108,83.48775112621661 21.021685883402824,86.85933546404704 22.12576578964945,87.23395309965417 24.778853325580712,89.0 24.482234843366314,88.64322386814456 21.54900762962643,86.94853019081347 20.560279355442617,86.66310695154243 15.23762547899969,83.38071594762732 20.80746142397402,74.17551670510147" stroke="#4dd2ff" stroke-linecap="round" stroke-linejoin="round" stroke-width="0.5"><title>2021-12-11 3.2km</title></polyline><polyline fill="none" points="46.34011499339249,72.95148489339044 51.727111897431314,76.33001094259089 45.54135338345077,86.90774943870201 45.132684652809985,87.04851510662411 44.40822644846048,86.76698369943188 34.860238832305185,80.95530735893408 33.85714285715949,80.57322057275451 37.29367536481004,82.42332012369297 39.00265369308181,83.75055786487064 45.2069880584022,86.88764005170378 51.26271561253816,77.43606709090818 51.85714285715949,76.00824832719809" stroke="#4dd2ff" stroke-linecap="round" stroke-linejoin="round" stroke-width="0.5"><title>2021-12-10 3.2km</title></polyline><polyline fill="none" points="70.02756372268777,73.00589588447474 74.07943094254006,75.47207595556392 74.71428571431898,76.19979706079175 68.29104919976089,86.99410411553981 65.06075874343514,85.43764737815945 64.35121517488733,84.68973650998669 57.16241849435028,80.3841566152405 56.770302311866544,80.26287171333388 56.714285714318976,80.46501318723313 60.3553645524662,82.2640658596356 60.598103141761385,82.64813178297481 63.77237700065598,84.30567339407571 66.36781268531922,86.06427386087307 68.23503260232974,86.83239472840796 71.0358624777291,82.83005756234343 71.44665085966699,81.41507615490991 71.96947243635077,81.07143673113023 74.65826911677141,76.3008692865551" stroke="#4dd2ff" stroke-linecap="round" stroke-linejoin="round" stroke-width="0.5"><title>2021-12-09 3.2km</title></polyline><polyline fill="none" points="91.23340040259063,72.02930021984503 94.19114688131958,73.4702345340047 97.5080482896883,75.7345466077677 90.43058350111824,87.62763652065769 90.02917505032383,87.97069978012587 89.35311871231534,87.78773275477579 79.57142857147846,81.72689016611548 86.8390342053026,86.30112174674287 90.19818913494237,87.83347452105954 97.57142857147846,75.82603362327791 95.5855130784912,74.31649448085227" stroke="#4dd2ff" stroke-linecap="round" stroke-linejoin="round" stroke-width="0.5"><title>2021-12-08 3.1km</title></polyline><polyline fill="none" points="114.92909280501772,72.86782625057094 120.42857142852154,76.32222192620975 114.04692387906834,87.05089746911835 113.37122002092656,87.01025932012999 111.08133472362533,85.79111211582494 103.14181439008098,80.77223370251886 102.42857142852154,80.69095558108529 110.78102189779747,85.62855875525565 113.93430656928103,87.13217374942906 119.97810218972154,77.33821256423835" stroke="#4dd2ff" stroke-linecap="round" stroke-linejoin="round" stroke-width="0.5"><title>2021-12-07 3.1km</title></polyline><polyline fill="none" points="139.1174575641635,74.2622216612217 143.28571428573923,76.81427198633901 137.89976458926685,85.72087808087235 137.2753066534642,85.65327703701041 135.32387560402276,84.57165767374681 125.28571428573923,78.43675305237412 137.41580968903145,85.7377783387783 138.0402676248341,85.68707756136428 138.86767438979587,84.16604912099137" stroke="#4dd2ff" stroke-linecap="round" stroke-linejoin="round" stroke-width="0.5"><title>2021-12-04 3.1km</title></polyline><polyline fill="none" points="161.14672561484622,73.45111338651623 164.03647416410968,74.97765037501813 166.1428571428405,76.50417841257877 165.13318596297177,78.29453939764062 159.33628074050648,86.22851728723617 152.04227687203093,81.78099651179218 148.1428571428405,79.74566505744588 153.15639679471496,82.45943679443735 157.2473058855394,85.11664421489695 160.11964631115552,86.54888661349833 164.4890853826655,79.44413311847893" stroke="#4dd2ff" stroke-linecap="round" stroke-linejoin="round" stroke-width="0.5"><title>2021-12-03 3.1km</title></polyline><polyline fill="none" points="183.6018808777444,72.91400866051845 189.0,76.29417281289352 182.58620689657982,86.94346058482188 181.57053291541524,86.8009297579265 171.56426332285628,80.71275988178968 171.11285266454797,80.4684158659511 171.0,80.69239788861887 174.81818181823473,82.54533323622309 176.11598746082745,83.84848924799007 182.49216300947592,87.0859913394961 188.36050156736746,77.65844442941307" stroke="#4dd2ff" stroke-linecap="round" stroke-linejoin="round" stroke-width="0.5"><title>2021-12-01 3.1km</title></polyline><polyline fill="none" points="23.351381215499714,92.49609312581015 26.21546961320564,93.96030340861762 29.0,95.98434693130548 22.317127071786672,107.39624950024881 21.402209944673814,107.33165505720535 11.0,100.89367187896278 18.876243093865924,105.8890421752003 22.237569060758688,107.50390687418985 28.960220994544216,96.52265406027436" stroke="#4dd2ff" stroke-linecap="round" stroke-linejoin="round" stroke-width="0.5"><title>2021-11-30 3.0km</title></polyline><polyline fill="none" points="44.68900126416702,91.36534684707294 49.12642225041054,93.5825678697438 51.788874841993675,95.50414773801458 44.0063211126253,108.56074928652379 43.141592920408584,108.38830686936853 33.85714285715949,102.67302304468467 40.09228824276943,106.78705168122542 43.93805309734307,108.63465315289795 51.85714285715949,95.47951216730871 46.55499367881566,92.05515049101086" stroke="#4dd2ff" stroke-linecap="round" stroke-linejoin="round" stroke-width="0.5"><title>2021-11-24 3.1km</title></polyline><polyline fill="none" points="68.99206349207088,92.97324007825227 71.89947089948691,94.39666755295184 74.71428571431898,96.30124216723198 68.36243386240676,106.96661798936839 67.65873015881516,106.90647604393598 57.806878306902945,100.85212005116045 56.714285714318976,100.35092571035784 56.99206349195447,100.69173796079122 65.38095238094684,105.58334994109464 68.32539682544302,107.02675992176228 74.30687830690295,97.24350055465766" stroke="#4dd2ff" stroke-linecap="round" stroke-linejoin="round" stroke-width="0.5"><title>2021-11-23 3.2km</title></polyline><polyline fill="none" points="92.6084656084422,93.07347916428989 97.57142857147846,96.26114346968825 91.20105820114259,106.84633156059135 90.36772486777045,106.74609493411845 82.84920634923037,102.01488490431802 79.57142857147846,100.31082759906712 82.68253968260251,101.95474188381922 88.07142857147846,105.48311033273058 91.14550264552236,106.92652083571011 96.9788359788945,97.54421811699285" stroke="#4dd2ff" stroke-linecap="round" stroke-linejoin="round" stroke-width="0.5"><title>2021-11-20 3.1km</title></polyline><polyline fill="none" points="115.30964691971894,92.97721228425507 120.42857142852154,96.24181382919778 114.04387649567798,106.92203288283781 113.28069138713181,106.82127801355091 102.42857142852154,100.1915274838102 110.91667897766456,105.51146139457705 114.00664795388002,107.02278771574493 119.47924361051992,98.03531319933245" stroke="#4dd2ff" stroke-linecap="round" stroke-linejoin="round" stroke-width="0.5"><title>2021-11-19 3.1km</title></polyline><polyline fill="none" points="138.16723087336868,93.47987906483468 143.28571428573923,96.61994156014407 137.43358158424962,106.42777029021818 136.802301963442,106.35388975020032 134.48192281654337,105.07944706821581 130.3700744753587,102.40124967845622 127.36723087338032,100.92361150123179 125.28571428573923,99.3720822067553 134.51604603923624,105.11638752536965 137.34827352745924,106.52012093515077 141.22125930944458,100.20325978760957" stroke="#4dd2ff" stroke-linecap="round" stroke-linejoin="round" stroke-width="0.5"><title>2021-11-18 3.2km</title></polyline><polyline fill="none" points="161.51222651218995,93.3192047351331 166.1428571428405,96.26466336658632 159.89060489065014,106.64178428601008 159.29601029597688,106.56376231121249 156.75546975550242,105.1203517037502 148.1428571428405,99.81477601559891 158.16087516071275,105.9200801574334 159.85456885455642,106.68079526488145 164.557271557278,98.956511310098" stroke="#4dd2ff" stroke-linecap="round" stroke-linejoin="round" stroke-width="0.5"><title>2021-11-16 3.1km</title></polyline><polyline fill="none" points="184.47584973170888,93.97801848976815 189.0,96.73197343204811 183.52593917708145,105.8999762217718 182.41502683365252,105.60367740680522 171.0,98.75384435118758 183.30053667264292,106.0219815102173 185.60286225401796,102.3443663825019" stroke="#4dd2ff" stroke-linecap="round" stroke-linejoin="round" stroke-width="0.5"><title>2021-11-15 3.1km</title></polyline><polyline fill="none" points="16.649634990666527,111.0 18.644889586837962,111.99003385772812 20.839669642562512,113.48407748955651 15.818278908904176,121.74615671066567 15.219702530070208,123.11414334275469 16.36697392287897,124.10412897594506 24.929941564740147,129.0 15.07005843531806,123.11414334275469 20.839669642562512,113.80808576740674 20.856296764221042,113.39407511519676 20.241093263728544,113.01606478729809" stroke="#4dd2ff" stroke-linecap="round" stroke-linejoin="round" stroke-width="0.5"><title>2021-11-13 3.2km</title></polyline><polyline fill="none" points="34.27320125128608,111.80951313683181 38.03962460893672,113.58751663862495 41.19290928042028,115.81593406299362 33.85714285715949,128.1904868631682 41.477580813341774,115.83964054987882 51.85714285715949,121.78991447563749 35.84984358702786,112.18882136058528" stroke="#4dd2ff" stroke-linecap="round" stroke-linejoin="round" stroke-width="0.5"><title>2021-11-10 3.2km</title></polyline><polyline fill="none" points="70.02521008404437,113.66825892293127 74.71428571426077,116.68863012947259 68.91596638661576,126.2407700606127 67.78991596639389,125.96785681365873 61.85714285715949,122.29259622948302 58.09243697480997,120.4185565347434 56.71428571426077,119.32687648647698 68.68067226890707,126.33174107705418 69.1008403361775,126.0588279289077 71.75630252098199,121.71037180085841" stroke="#4dd2ff" stroke-linecap="round" stroke-linejoin="round" stroke-width="0.5"><title>2021-11-09 3.1km</title></polyline><polyline fill="none" points="93.15090712480014,114.24747547910374 97.57142857142026,116.90253868434229 92.45452360925265,125.65419324510731 91.12231166643323,125.26086771498376 89.86579358397285,124.2775509008643 79.57142857142026,118.2300586111669 92.37882974889362,125.75252452091081 93.19632344105048,124.22838494811731" stroke="#4dd2ff" stroke-linecap="round" stroke-linejoin="round" stroke-width="0.5"><title>2021-11-04 3.2km</title></polyline><polyline fill="none" points="102.81740301602986,111.0 120.03973984112963,121.12213679763954 111.46164890006185,116.01336129996344 110.18265333562158,115.75075855190516 109.0800709525356,117.06377020137734 103.67741727491375,125.72951599615044 102.839454663801,127.51993096375372 103.56715903664008,128.1406058841967 105.26513590663671,129.0 103.65536562737543,128.16447797324508 102.86150631133933,127.32895383026334 110.13855004042853,115.4165365700901 109.03596765722614,114.72421853037667" stroke="#4dd2ff" stroke-linecap="round" stroke-linejoin="round" stroke-width="0.5"><title>2021-11-01 3.1km</title></polyline><polyline fill="none" points="131.181138836022,111.0 133.44766937900567,112.42276319281518 131.43826625059592,115.87651326754712 131.3525571124046,116.05177596408612 131.4763592008967,116.39199117117823 130.72402343235444,117.84562881245802 132.562008284498,119.04151816225203 132.81913569907192,119.67038698249235 135.1713753803051,120.89718865861505 134.7237832142273,121.88686970748677 137.0379299451015,123.38168742557173 137.35219678509748,123.82497518236778 137.8474051390658,124.15486285053339 137.2950573596754,124.48474975501449 136.87603490630863,125.04143217454111 137.34267354756594,125.86614287277189 137.45695239846827,126.82486306029023 137.19030174636282,127.0310386020501 136.47605892817955,127.17536130381632 136.26654770149617,127.87635520474578 135.58087459602393,128.38148102531704 135.4285027947626,128.74228408678027 136.00942028692225,129.0 136.62843072932446,128.41240703780204 137.15220879606204,127.63925471237599 137.00936023239046,126.9588771963754" stroke="#4dd2ff" stroke-linecap="round" stroke-linejoin="round" stroke-width="0.5"><title>2021-10-30 3.1km</title></polyline><polyline fill="none" points="153.75122727424605,111.0 156.554227165645,112.84499782846251 155.75817519647535,114.16804298339412 156.0160511864815,114.47149223538872 155.90393119090004,114.7263891826442 153.22426329465816,119.22950470328215 154.32303925207816,119.84852191233949 154.30061525298515,120.43112425738946 158.5499630883569,122.89502429892309 158.07905910658883,123.6960874521319 158.17996710265288,124.02379400313657 161.06145099108107,126.06284260284156 160.27661102148704,127.38578349744785 160.46721501409775,127.62852381329867 160.43357901537092,127.89553775510285 159.18904706358444,129.0 159.20025906316005,128.76939859335835 158.77420307969442,128.42956436377426 158.5948110866011,127.67707183434686 158.2136031013797,127.22800210383139 158.2360271004727,126.97312415445049 158.79662707878742,126.6454233648692 158.9535950726713,125.89292283281975 159.23389506182866,125.67445430420048 160.7475150031969,126.26917352079181 161.06145099108107,126.09925395975006 159.41328705492197,124.81271455570823" stroke="#4dd2ff" stroke-linecap="round" stroke-linejoin="round" stroke-width="0.5"><title>2021-10-26 3.2km</title></polyline><polyline fill="none" points="186.59920481021982,129.0 185.46411743207136,127.52853641567344 184.98110152647132,124.3490819229628 183.64073238841956,122.45714779572154 182.5901727937162,119.50095990735281 181.73281956132269,118.85716127764317 179.95773610827746,118.41044247367245 178.68981935607735,117.49072370961949 177.68756135198055,116.33449899838888 176.69737874547718,114.2059745015722 175.24833102873527,112.91833604159183 173.7268309260835,111.06569678653614 173.49739837093512,111.0 173.40079518978018,111.15767224632145 176.5283231785288,114.32422653966933 177.60303356847726,116.76808415753476 179.42641861207085,118.39730366809817 181.90187512827106,119.36957262360374 182.51772040792275,120.01336937422457 183.01281171117444,121.10387685113528" stroke="#4dd2ff" stroke-linecap="round" stroke-linejoin="round" stroke-width="0.5"><title>2021-10-18 3.2km</title></polyline><polyline fill="none" points="26.463118653104175,149.0 25.476696728321258,147.8708712097723 25.40477012959309,146.3504466855229 25.12733896326972,145.16539919517527 24.13064181007212,143.8461843293917 23.164770342060365,141.1853595814464 22.363302528159693,140.5145559465891 20.750091672001872,140.13443254971935 19.064954217115883,138.8598941013188 18.273761631629895,136.86980354877596 16.095413214352448,134.67843721044483 14.286973018955905,131.70438860729337 13.536881346895825,131.0 13.54715657531051,131.3242427874793 14.554128956864588,132.5094000902027 15.417248141078744,134.1305906020134 17.8011011260096,136.64619621171732 19.352660611912142,139.28474145910877" stroke="#4dd2ff" stroke-linecap="round" stroke-linejoin="round" stroke-width="0.5"><title>2021-10-17 3.3km</title></polyline><polyline fill="none" points="49.100124527351,149.0 49.181504176638555,148.22843004358583 48.13519439956872,146.88766075992316 47.94918377249269,144.8132420477632 47.65854216780281,143.66218165947066 46.5541040697135,142.2707795178285 45.43804030737374,139.29820020718034 44.54286416474497,138.53923540966935 42.77576320787193,138.17240120249335 40.91565693740267,136.6038597496663 40.53201001911657,136.08522590558277 39.89259848871734,134.26367003652558 37.4512090087519,131.92344791629876 36.83504880662076,131.0 36.53278153768042,131.18974998379417 39.776341846736614,134.52931482362328 40.47388169815531,136.35086782946019 41.543442803726066,137.43873039956088 42.76413754367968,138.33684422141232 44.26384822424734,138.72897692857077 45.20552702364512,139.4120446328743" stroke="#4dd2ff" stroke-linecap="round" stroke-linejoin="round" stroke-width="0.5"><title>2021-10-14 3.2km</title></polyline><polyline fill="none" points="72.21562923613237,149.0 71.33973665541271,147.92622516059782 71.2410445336136,145.84576811964507 70.87094907701248,144.51694744713313 69.81000876793405,143.1075814316282 68.4159825478564,139.68478928986588 67.55242648231797,139.02706880836922 65.60325707728043,138.53042113222182 63.83913540065987,137.04046985175228 63.20997312432155,136.08743146050256 63.0619349416811,135.18808072819957 62.61782039370155,134.463227601751 60.37257462332491,132.30207403781242 59.41032643604558,131.0 59.21294219244737,131.30874006000522 62.58081084798323,134.63772954809247 63.43203039828222,136.50354743732896 64.29558646382065,137.72504359880986 65.56624753162032,138.74518786367844 67.3303692083573,139.2552578201139 68.30495391087607,139.9666687578574 69.60028800915461,143.05389107875817 70.2541233158554,143.9800474135991" stroke="#4dd2ff" stroke-linecap="round" stroke-linejoin="round" stroke-width="0.5"><title>2021-10-11 3.4km</title></polyline><polyline fill="none" points="95.15114118723432,149.0 94.01106195064494,147.73319793309201 93.86551992042223,145.71421333242324 93.52592184994137,144.26264149426424 92.43435662332922,142.95621662442863 91.17299236147664,139.59113829751732 90.21484066254925,138.9313114873803 88.66239234030945,138.60139715642435 87.23122904321644,137.5192738178157 86.24882033932954,136.4767340761755 85.43621067062486,134.48401437942812 82.69516910164384,131.87101004994474 82.1979004984023,131.0 81.9917159556062,131.277140028149 84.50231597671518,133.63941115544003 85.86070825875504,135.59254997050448 86.3215913544409,136.75386549510586 87.13420102308737,137.75681365620403 88.32279426982859,138.68057665214292 90.12994114501635,139.15565287988284 91.05170733632986,139.85506833024556 92.11901555786608,142.69229123323748" stroke="#4dd2ff" stroke-linecap="round" stroke-linejoin="round" stroke-width="0.5"><title>2021-10-07 3.4km</title></polyline><polyline fill="none" points="117.99200176360318,149.0 117.4899483238114,148.65360710654932 117.04912091320148,147.97414216616016 116.5470674734097,144.68336351405014 115.26132085931022,142.88473409236758 114.04904548026389,139.68712581050931 113.14290024735965,138.9809795730107 111.57551389874425,138.661214317719 109.48158369853627,137.04905574097938 108.97953025874449,136.38287024780584 108.29379873123253,134.51753760309657 105.53862741519697,131.8527427721565 105.03657397540519,131.0 104.8651410935563,131.42637189679954 107.65704802714754,134.1577926302998 108.48972202488221,135.42355875764042 108.88156861200696,136.59604987685452 110.11833440273767,137.96838762743573 111.15917689987691,138.74115568534762 112.87350571871502,139.19415609081625 113.5347468345426,139.64715534354036" stroke="#4dd2ff" stroke-linecap="round" stroke-linejoin="round" stroke-width="0.5"><title>2021-10-06 3.0km</title></polyline><polyline fill="none" points="140.8430225085467,149.0 139.86340596730588,147.7742990432307 139.71646348608192,145.77585547827766 139.42257852375042,144.53680920397164 139.1286935613607,143.92394441881333 138.23479346750537,142.92470383238106 136.93680155044422,139.67380232243158 136.2510699715349,138.9676560320804 134.13264920114307,138.46136074134847 132.5407723216922,137.15564518843894 131.94075719016837,136.4494889092166 131.15706395718735,134.4642420974269 128.6467965702759,131.9993075246748 128.02229102526326,131.0 127.72840606293175,131.31977901833307 130.9121598218917,134.4642420974269 131.94075719016837,136.64934474418988 132.62648876896128,137.5020604522142 134.32857250940287,138.80777346425748 136.18984393769642,139.3940088442905 137.0102727910271,140.22006451236666 137.3898742007441,141.1527034019091" stroke="#4dd2ff" stroke-linecap="round" stroke-linejoin="round" stroke-width="0.5"><title>2021-10-05 3.2km</title></polyline><polyline fill="none" points="163.76521857833723,149.0 163.27284969837638,148.65180288357078 162.71893470839132,147.70095346200105 162.63277015439235,145.94655606223387 162.32503960444592,144.5135622224625 161.03257129451958,142.73234828021668 159.87550442659995,139.66540454348433 158.8661482227035,138.90200863253267 157.4136600267957,138.63414964645926 155.60420439293375,137.28145564251463 154.914887960942,136.585015138553 154.6440850769868,135.567135680496 154.02862397703575,134.41531773236056 151.40675969119184,131.91075776916114 150.8405354793067,131.0 150.5204957073438,131.2009028475877 153.81936720304657,134.49567736465542 154.90257873898372,136.5984082507057 156.07195482891984,137.97789343629847 157.29056780680548,138.8350439236092 158.95231277664425,139.2770105395757 159.3092802146566,139.5314756718144 160.0970704226056,140.602903838997 160.66329463454895,142.3573536126787" stroke="#4dd2ff" stroke-linecap="round" stroke-linejoin="round" stroke-width="0.5"><title>2021-10-04 3.3km</title></polyline><polyline fill="none" points="186.6112323498237,149.0 185.50429188279668,147.55742046635714 185.07854554936057,144.52664165597525 184.7257843015832,143.79871761365212 183.7891423679539,142.67373820110515 182.57272427226417,139.55022843445477 181.6969032433699,138.8487546723336 179.9817537285271,138.47816363698803 178.2057833088911,137.0619693117187 177.7313802515855,136.47960573757882 176.83123086078558,134.4280824136804 174.28891704085981,131.8868076151266 173.7050363549497,131.0 173.3887676501181,131.19853940473695 176.62443978450028,134.40161098945828 177.60973844199907,136.55901906518557 178.6680221852148,137.76345016142295 179.94526118563954,138.68993003798823 181.84287341486197,139.31199237442343 182.62138099607546,140.0399348833016" stroke="#4dd2ff" stroke-linecap="round" stroke-linejoin="round" stroke-width="0.5"><title>2021-10-02 3.1km</title></polyline><polyline fill="none" points="26.49311921634944,169.0 25.419976021861658,167.5306815165095 24.973837839846965,164.2640275581798 24.624161967483815,163.62118487338012 23.623365505191032,162.62411808696925 23.442498674616218,161.53520972379192 22.646684620238375,159.5804054519249 21.75440825620899,158.85882789712923 20.00602889433503,158.41276028673747 18.486747517832555,157.24510734382784 17.715049040853046,156.14304574593552 16.883061620406806,154.37186080410902 15.339664666447788,152.94177990255412 13.808325501158834,151.0 13.506880783650558,151.22304337976675 16.871003831678536,154.71297929555294 17.630644519929774,156.52352017596422 18.137071645411197,157.19262837724818 19.813104275090154,158.58331568354333 21.657945946615655,159.1212200789014 22.489933367120102,159.82967700788868 22.706973563763313,160.27574101283972" stroke="#4dd2ff" stroke-linecap="round" stroke-linejoin="round" stroke-width="0.5"><title>2021-09-30 3.1km</title></polyline><polyline fill="none" points="49.42598298192024,169.0 48.32309654034907,167.4704011540889 47.81407202873379,164.3716041821317 46.49303222511662,162.3804335432651 45.49922246456845,159.58484474285797 44.56601086008595,158.79363231257594 42.869262488384265,158.39802476510522 40.857403704780154,156.7364633657853 39.65756021335255,154.13859390228754 37.633581798523664,152.37149328981468 36.59129351301817,151.06593742173573 36.336781257297844,151.0 36.28830273239873,151.22418713320803 39.706038738251664,154.57377267633274 40.166584724909626,156.090296367649 41.64517973450711,157.7914248004381 42.76018580736127,158.5826417311182 44.95383905933704,159.43978939662338 45.45074393966934,159.9804496257275 45.996127344842535,161.3650597212254" stroke="#4dd2ff" stroke-linecap="round" stroke-linejoin="round" stroke-width="0.5"><title>2021-09-29 3.2km</title></polyline><polyline fill="none" points="72.11026197538013,169.0 71.62259223114233,168.03405885632674 71.52255741186673,166.1293711442704 71.24746165872784,164.91852358244068 70.03453947423259,163.2995125579764 68.79660858499119,160.03423637981177 67.83377344894689,159.13627514915424 65.9456162340357,158.70089841041772 63.894902437750716,157.1634659593401 62.81952812994132,154.59197908019996 60.01855318865273,151.80275906006864 59.53088344435673,151.0 59.318309453257825,151.38097084345645 62.58194543403806,154.67361414340849 63.19465870241402,156.33351914345985 63.894902437750716,157.36755066149635 65.7830596526619,158.93219243269414 67.87128650618251,159.5988617915864 68.62154765118612,160.27913412747148 69.09671304305084,161.28593251305574" stroke="#4dd2ff" stroke-linecap="round" stroke-linejoin="round" stroke-width="0.5"><title>2021-09-26 3.1km</title></polyline><polyline fill="none" points="94.9943297233549,169.0 94.92276536510326,168.55878224983462 93.92086434975499,167.32596199892578 93.76580824027769,165.02899984335818 93.38413166301325,163.84806395693158 92.39415804069722,162.69307492714142 91.22527352278121,159.72121386119397 90.5454121195362,158.92957415725687 88.74437577050412,158.48833078650932 87.18188728229143,157.4111731357989 86.31118759041419,156.50272172290715 85.34506875416264,154.32241891199374 82.79260664363392,151.80465417308733 82.33936570805963,151.0 82.14852741948562,151.37637096521212 85.19001264462713,154.42624347709352 85.83409186877543,155.4125737446011 86.3469697695109,156.68441238623927 87.13417771010427,157.5409515205247 88.42233615840087,158.57917510168045 90.24722729355562,159.0853068435972 91.2849104879424,160.13649881807214" stroke="#4dd2ff" stroke-linecap="round" stroke-linejoin="round" stroke-width="0.5"><title>2021-09-25 3.2km</title></polyline><polyline fill="none" points="117.19080183177721,169.0 117.33611511060735,167.50413000419212 116.49776927113999,166.20283352748083 116.07300737913465,163.2475140489114 114.95521292660851,161.80023923018598 113.80388464039424,158.91781317185087 113.0326064680703,158.26105071605707 111.47887217899552,157.92050617554924 109.8357143336325,156.63129537875648 109.2321053291671,155.8650614743092 108.55025071313139,154.16230652821832 106.10228086193092,151.8513962739089 105.64398513635388,151.0 105.52102774655214,151.3040706100146 108.23726826638449,154.0163552739832 109.45566421968397,156.50967119070992 111.32238095562207,158.0299669985252 112.77551374398172,158.43132271873765" stroke="#4dd2ff" stroke-linecap="round" stroke-linejoin="round" stroke-width="0.5"><title>2021-09-24 3.1km</title></polyline><polyline fill="none" points="140.9152785470942,169.0 140.32707321527414,168.62668513266544 139.8246478275978,167.88005305184925 139.49378232844174,165.1868184805644 138.97910266305553,163.933517226993 138.08454038744094,163.00020205615147 136.9571468346985,159.76022716177977 135.97680461488198,158.92022405259195 134.23669717478333,158.5868883877556 132.33728412393248,157.12020405297517 131.05058496043785,154.48014181983308 128.37915241147857,151.86670834409597 127.83996419061441,151.0 127.65615002438426,151.3866857822577 130.57266812829766,154.20013292432122 131.0260764049599,154.9201549091522 131.3814504595939,156.04018332308624 132.72942101187073,157.72021274035797 134.0528830086114,158.70688929894823 135.67044767120387,159.17355874071654 136.55275566905038,159.840227251334" stroke="#4dd2ff" stroke-linecap="round" stroke-linejoin="round" stroke-width="0.5"><title>2021-09-23 3.1km</title></polyline><polyline fill="none" points="163.6624958740431,169.0 162.7346072156215,167.5520970240177 162.39275349938544,164.656255647511 161.1108020634856,162.8230839385651 159.9997774856747,159.74118738571997 159.05967976601096,158.94413646505564 156.97193028469337,158.3994829440926 155.2626617034548,156.92492478038184 154.8109264355735,156.32712744029413 154.2126824321458,154.573576960247 152.93073099624598,153.40453368121234 150.92844494397286,151.0 150.62321841163794,151.19927198522782 153.61443842877634,154.1351866330515 154.29814586124849,155.30422509914206 154.76209019043017,156.56624661796377 155.3847523164004,157.2968865536095 157.00855746859452,158.5854623830819 158.85212572402088,159.14339953075978 159.71896907594055,159.9005971403676" stroke="#4dd2ff" stroke-linecap="round" stroke-linejoin="round" stroke-width="0.5"><title>2021-09-22 3.1km</title></polyline><polyline fill="none" points="185.0544550732011,164.72851386021648 184.20582885236945,163.6834504496146 183.8980852778186,161.31934525166434 183.60899282898754,160.74099564522476 182.94687786552822,160.0104452480009 181.9583682017401,157.56510208585678 181.38018330413615,157.0070300378793 179.81348874262767,156.57071756396908 178.59184000722598,155.62706020144105 178.15353855252033,155.00809857932472 177.6406325948774,153.63825543309213 175.19733512407402,151.05073616567097 174.99217274104012,151.0 174.9455449267407,151.1319139912157 177.34221458318643,153.52663797423884 178.05095736100338,155.04868631324644 178.66644451016327,155.82999782303523 179.64562861103332,156.6417452716778 181.277602112561,157.1998188232683 181.96769376459997,157.83906388696778 182.03297270467738,157.99126464840083 182.79766885965364,159.98000556269835 183.8421319006593,161.63388523011963 183.8980852778186,163.1355499096826 184.14054991235025,163.94725362380996 184.97052500740392,165.06333829808136 184.74671149865026,166.43306602715165 185.01715282176156,167.4172322254235 184.52289798983838,167.65059017350723 184.4482934869011,167.90423966167145 184.08459653519094,167.90423966167145 183.31990038015647,168.41153721504088 182.51790197374066,168.71591483634256 182.21015839913161,169.0 182.25678621348925,168.8579574925534 181.89308926166268,168.48255872111622" stroke="#4dd2ff" stroke-linecap="round" stroke-linejoin="round" stroke-width="0.5"><title>2021-09-20 4.7km</title></polyline><polyline fill="none" points="26.400665632041637,189.0 25.785217013559304,188.1295059445547 25.391329897742253,185.04926221705682 24.960515864775516,184.20553403439408 24.0742698541726,183.32162405311828 22.81875467253849,179.91986915307643 21.84634585538879,179.2100460002548 19.88921924860915,178.6475426341931 18.092109282675665,177.16091808355122 17.64898627740331,176.5582289364247 17.36587991286069,175.35284455226792 16.93506588001037,174.56264371615543 14.288636820507236,172.05808580275334 13.73473306390224,171.0 13.599334367900155,171.5625274083868 16.799667183950078,174.89747500493831 17.538205526128877,176.50465646955126 18.375215647218283,177.69664006572566 19.729202607821207,178.76807921860018 21.760183048725594,179.45111833016563 22.658738031750545,180.24129757919582" stroke="#4dd2ff" stroke-linecap="round" stroke-linejoin="round" stroke-width="0.5"><title>2021-09-19 3.1km</title></polyline><polyline fill="none" points="49.49023816076806,189.0 48.33718408236746,187.52097898875945 47.827412805578206,184.2987831589271 46.613671670435,182.6216333622142 45.54557947150897,179.67667822416115 44.598861386068165,178.8446864787693 42.70542521530297,178.382467147414 40.969775392033625,176.9429763298249 40.46000411530258,176.25624262783094 39.6346601434052,174.28847164106264 38.11748372443253,172.88856751157437 36.576032482786104,171.06603417017322 36.33328425575746,171.0 36.22404755355092,171.19810243634856 39.64679755474208,174.63184265563905 40.33863000175916,176.2826555119682 41.49168408015976,177.68253271207504 42.42626475420548,178.39567343080125 44.53817432932556,179.17484240274644 45.18145713099511,179.66347203662735 46.10390039370395,181.71041931008222" stroke="#4dd2ff" stroke-linecap="round" stroke-linejoin="round" stroke-width="0.5"><title>2021-09-18 3.3km</title></polyline><polyline fill="none" points="69.08583198720589,188.4052906670986 70.66519419470569,187.11876933956228 70.2507516295882,186.7910689239361 70.70999879634473,186.3055856423598 70.65399304428138,186.14780327133485 66.98001571040368,180.38257572629664 61.457848559191916,172.6507890164794 60.97619909164496,171.63118596738786 60.483348473673686,171.0 61.02100369322579,171.67973863508087 61.7602796201827,173.1363120845199 62.0627106812899,173.34265895995486 66.75599270226667,180.24906283061136 66.8007973038475,180.43112584363553 70.74360224761767,186.17207749198133 70.94522295490606,186.7061094517412 70.85561375162797,187.05808412602346 69.10823428799631,188.07759278097365 68.83940667816205,188.5873447698832 69.01862508471822,188.98786309604475 69.26505039370386,189.0" stroke="#4dd2ff" stroke-linecap="round" stroke-linejoin="round" stroke-width="0.5"><title>2021-09-16 4.0km</title></polyline><polyline fill="none" points="95.03011726710247,188.66101629514014 94.61635752249276,188.25642183916352 94.27323968557175,187.07543719152454 92.14389075618237,183.99171126025612 91.21545425627846,182.3185994085943 90.48885177797638,181.50937522113963 89.82279950624797,180.31740191869903 87.80445928883273,177.53973932897497 87.50170825625537,176.77423272951273 86.68428046815097,175.58222182253667 85.35217592469417,173.93088831774367 84.54483983770479,173.37314905549283 82.11273987579625,171.0 86.49253814754775,175.34163131688547 88.01638501166599,177.81313359689375 88.04666011495283,177.95529841935786 89.87325801164843,180.42675766188768 90.31729285948677,181.52031071222154 91.97233183769276,183.5105568209401 92.52737539750524,184.63689320185222 94.01085545727983,186.7692544702295 94.65672432689462,188.07052672356076 94.62644922360778,188.1908118246356 94.46498200617498,188.11426677147392 94.54571561492048,188.52979659102857 94.86865004966967,188.85784563630295 94.69709113118006,189.0 94.60626582143595,188.87971554716933" stroke="#4dd2ff" stroke-linecap="round" stroke-linejoin="round" stroke-width="0.5"><title>2021-09-14 4.6km</title></polyline><polyline fill="none" points="104.89755829551723,172.4060635551432 106.86541814776137,171.0 107.1363553738338,171.03090259582677 109.66034953226335,175.40357453619072 111.49987069860799,177.5357988436008 113.068454638822,180.23967567135696 112.07026485865936,181.1358101052465 110.68705902039073,181.93923776016163 110.67279916640837,182.38730186205066 114.33758164505707,187.4858957132965 115.56392908922862,188.28929933275504 117.53178894158918,189.0 117.95958456158405,188.36654952053505 117.74568675161572,188.93820003644214 117.34641083952738,188.98455001082039 114.52295974706067,187.68674690321495 113.52476996689802,186.58978808901156 110.6157597504207,181.93923776016163 110.01684588234639,181.42937056251685 109.23255391221028,179.9924655065115 108.73345902207075,179.57529770028486 107.59267070190981,177.2885855290806 106.95097727177199,176.94866675141384" stroke="#4dd2ff" stroke-linecap="round" stroke-linejoin="round" stroke-width="0.5"><title>2021-09-13 3.3km</title></polyline><polyline fill="none" points="141.65552560647484,181.63853406824637 142.176280323416,182.15594333145418 141.85929919139016,182.96901338649332 142.2215633422602,184.1023804130091 141.65552560647484,184.964722273784 141.13477088953368,184.59514746742207 140.72722371958662,184.76761576210265 143.28571428568102,185.35893494298216 141.74609164416324,184.9154456569231 142.1536388139939,184.1516571516404 141.81401617242955,182.72262873357977 142.0630727763055,182.4023284088762 141.3159029649105,180.7761834875564 139.86684636119753,179.815275891684 139.50458221021108,177.74561922758585 139.7536388139706,176.4151187807729 139.48194070078898,180.65299036289798 139.50458221021108,179.49497273587622 139.84420485177543,179.00219804100925 139.98005390842445,179.86455327254953 140.84043126681354,180.30804936846835 141.429110512021,181.39214841875946 140.74986522912513,182.08202777226688 139.52722371963318,182.3530514081358 140.72722371958662,182.08202777226688 141.51967654982582,181.4414255633892 140.86307277623564,180.25877205395955 140.29703504045028,180.0123853709374 140.97628032346256,179.6920824070985 140.5460916442098,179.56888887644163 140.5913746629376,179.24858548073098 139.88948787050322,178.80508795636706 138.93854447442573,178.9529205308936 138.73477088939399,178.6326165353821 138.7800539082382,174.71502704414888 140.6140161724761,173.4091535107873 142.08571428561118,174.44399711460574 140.81778975739144,173.43379268204444 138.9611859837314,174.641109812801 138.64420485170558,178.5833389699401 137.9649595686933,178.50942260792363 137.149865229032,180.6283517324191 135.49703504040372,182.82118261686992 131.19514824799262,185.4082114934281 128.31967654987238,185.6545941348304 125.62533692712896,186.3937409518694 125.28571428568102,185.9748912928044 125.58005390828475,186.4676555422484 129.06684636115097,185.50676457214286 130.28948787064292,185.58067936176667 125.76118598377798,186.5908464892418" stroke="#4dd2ff" stroke-linecap="round" stroke-linejoin="round" stroke-width="0.5"><title>2021-09-11 3.6km</title></polyline><polyline fill="none" points="164.02097558509558,189.0 163.66521083808038,188.51615852530085 163.37862256966764,187.6990003358951 163.13156371755758,185.6883413241012 162.696740137937,184.88191937745432 162.17297537147533,184.31204513934063 161.25391644169576,181.76371193280647 160.41391634457977,181.0862992989496 159.06003383512143,180.8282365030318 157.4887395358528,179.58092645485885 156.35226881620474,177.33359049999854 154.11885679332772,175.15073770772142 152.7353272215696,172.70977436182147 151.6186212101602,171.62369363485777 150.84779759164667,171.3978738384758 150.26473870070186,171.0 151.8854447704507,171.75273335908423 151.9743859571754,172.21512475215422 152.8143860542914,173.20442226791783 153.67415085958783,174.86040503397817 156.23368056718027,177.4841308492105 156.98473947757157,179.09705326218682 157.6172101389384,179.86049689000356 158.97109264839673,180.892752245476 160.45344576088246,181.33360904337314 161.05626936000772,181.93575272805174 161.23415173357353,182.34434879117907" stroke="#4dd2ff" stroke-linecap="round" stroke-linejoin="round" stroke-width="0.5"><title>2021-09-09 4.2km</title></polyline><polyline fill="none" points="185.6113924671081,185.55718423592043 185.6501719589578,185.35466238910885 185.25462114234688,185.07619425598386 184.93662930934806,184.60364069924253 184.57985798455775,182.44337065411673 184.33942513522925,182.01299941306206 183.81977994475164,181.48980079038301 183.40096143304254,180.12272196378035 183.05970190500375,179.41385975101002 182.49352132432978,178.9497213642171 181.25257758592488,178.62904281738156 180.28309029029333,177.84422042107326 179.77895689653815,177.26192930659454 179.3911619783321,176.12265538467182 177.57628176087746,174.35042862250702 176.3896293110156,172.33343188545405 175.54423638922162,171.55700511106988 174.830693739641,171.34601865043078 174.3498280410131,171.0 174.38085163442884,171.13503179484542 175.17970916608465,171.64139958475425 175.41238611700828,171.97053742832213 175.81569283199497,172.09712865071924 176.37411751426407,172.54441649789078 177.38238430177444,174.27447542441223 179.251555807743,176.1817291302723 180.00387794914423,177.70075767205708 180.82600317586912,178.48558106693235 181.46198684177944,178.85689345761057 181.56281352051883,178.89064906885324 182.37718284889706,179.06786586212547 183.0674578033795,179.67546418166603 183.84304763987893,181.6670134989472 184.5876138829335,182.74716112955502 184.81253493551048,184.62051764608623 185.56485707691172,185.62469143739872 185.44076270307414,186.5613496883234 184.6884405616729,186.90732058873982 184.7892672404414,187.18578420125414 184.7892672404414,188.16462053562282 183.307890652708,188.8312369704654 183.51729990853346,189.0" stroke="#4dd2ff" stroke-linecap="round" stroke-linejoin="round" stroke-width="0.5"><title>2021-09-08 5.7km</title></polyline><polyline fill="none" points="25.608845982787898,205.56797890189046 25.600979438604554,205.37112668954796 25.199785686680116,205.0373330335933 24.892990464664763,204.54092015422793 24.63339450751664,202.5210110498956 24.413131271168822,202.11017771446495 23.870339724438963,201.54527946882445 23.052219132281607,199.37981034745462 22.47009486478055,198.90049148213438 21.219314344081795,198.5837975582981 20.086531985696638,197.6679480324383 19.779736763623077,197.2057408139881 19.38640955585288,196.11013105590973 17.522038591036107,194.25270615433692 16.23979189369129,192.1555772582724 15.571135640493594,191.41087325224362 14.454086370387813,191.0 14.383287473028759,191.06847897791886 15.366605492425151,191.62486915293994 16.247658437816426,192.45516945562122 17.073645574128022,193.91032039048878 19.276277937664418,196.1700474858808 19.889868381782435,197.61659176707326 21.085583093430614,198.62659408571926 21.99810221543885,198.94328789105202 22.163299642736092,198.9946435606471 22.580226482939906,199.17438822256372 23.06008567646495,199.62802825603285 23.768074650404742,201.5196022095406 24.601928330899682,202.76922214168007 24.790725390659645,204.63506758996664 25.61671252697124,205.75627200545568 25.48298127632006,206.44953030664328 25.32565039320616,206.60358713642927 25.600979438604554,207.7162136366387 25.427915467211278,207.83603430668154 25.3728496581316,208.09279246282676 24.743526125734206,208.17837838683772 24.216467667283723,208.65765837819345 23.681542664708104,208.76036097227916 23.311815089400625,209.0 23.044352588127367,208.71756823594478" stroke="#4dd2ff" stroke-linecap="round" stroke-linejoin="round" stroke-width="0.5"><title>2021-09-07 5.7km</title></polyline><polyline fill="none" points="47.97307312535122,205.0206127310521 47.14777181716636,203.86758908521006 46.800770130823366,201.49008477656753 45.806657191424165,200.04111332450702 44.887571643746924,197.61252100890124 44.22170354280388,197.08189844249864 42.90872418892104,196.76556477618578 41.492582171515096,195.71451538857218 40.88298461429076,194.84713843229838 40.43282026442466,193.63280142250005 39.06357036676491,192.39804429624928 37.98505161178764,191.0 37.74121258890955,191.14286649824498 40.28276548109716,193.67361964892916 41.00490412575891,195.26552094719227 41.64263695478439,196.03085149348044 42.61799304629676,196.7961777437231 44.024756639730185,197.2451671443996 44.887571643746924,197.92885271023988 45.009491155156866,198.19416260355501 45.816035615396686,200.35743939180247 46.725742739159614,201.71457193399692 46.800770130823366,203.173729449838 47.03523072972894,204.08186855329404 47.710477254586294,204.82674218028114 47.888667309773155,205.24509407714504 47.62607143895002,206.50014206860214 47.832396765996236,207.52049777832144 47.62607143895002,207.6429399505505 47.63544986292254,208.0000623251617 46.99771703389706,207.97965535751428 46.81014855479589,208.2041318337142 45.21581648220308,209.0 44.821922675997484,208.64288024330017" stroke="#4dd2ff" stroke-linecap="round" stroke-linejoin="round" stroke-width="0.5"><title>2021-09-06 4.6km</title></polyline><polyline fill="none" points="66.790831098755,191.12699579723994 66.73448853657464,191.0 66.6942438492988,191.22333725258432 66.80692897367408,191.39412398796048 67.08059284710907,191.52549806044044 67.06047050346388,191.58680585994443 66.72241513039626,191.62621798282998 66.56546085003356,191.84079463045782 66.62582788094005,191.99844227813446 66.59363213113102,192.0728868529368 65.93764372862643,192.38380140591835 65.7364202922763,192.37066420472183 65.70020007372659,192.60275432478375 65.44263407521066,192.7034723922552 65.32190001338313,192.83922255662765 65.08848082722398,192.96183533755539 65.24141063884599,193.0537947546036 65.35812023193284,193.26398716498443 65.47080535627902,193.48731577351282 65.47885429374583,193.69312765785435 65.61971069918945,193.72378042974378 65.93764372862643,193.54424253735488 65.94569266609324,193.72378042974378 65.84105647918477,193.79822280888766 65.77264051082602,194.1047492543803 65.45068301266292,194.25363294841736 65.36214470065897,194.37186384731103 65.46678088756744,194.5951882266745 65.36214470065897,194.96301475793734 65.62775963662716,195.06810762784517 65.24141063884599,195.637357392814 65.30982660720474,195.7161761545358 65.46678088756744,195.68114560688628 65.52312344973325,195.82126767168302 65.72032241735724,195.6855244264807 65.87727669770538,195.9394954028612 66.09459800898912,195.926359000081 66.10264694642683,196.00517737252085 66.04227991552034,196.13216230479156 65.71629794863111,196.27228328956335 65.54324579337845,196.4211614682281 65.43056066901772,196.4255402324634 65.4144627941132,196.51749420553824 65.49495216865034,196.68826548646393 65.63178410536784,196.78897652108935 65.8249586042657,196.5437667427359 65.98593735333998,196.55252425250728 66.05837779043941,196.7101592043873 66.04227991552034,197.05170014338364 66.38838422604022,197.2531207883767 66.22338100823981,197.2137124558576 66.07447566534393,197.3450734610342 66.3320416638744,197.30128649207109 66.40850656967086,197.437025989213 66.54936297512904,197.41951123307808 66.40850656967086,197.5027062780282 66.24350335188501,197.4326473006695 66.15898950860719,197.67347468395747 65.96179054096865,197.72601870861035 66.06240225916554,198.35654332484046 65.90142351007671,198.6148813100226 65.66800432391756,198.74623917025747 65.58751494938042,199.07901109676823 65.42251173155091,199.1490681033756 65.38226704430417,199.36799570856238 65.02811379633204,199.79271292746125 64.95164889050648,199.7489277896384 64.77859673522471,199.5256230772684 64.91140420323063,199.18847513274522 64.9073797345045,199.01333257692022 64.8188414225151,198.96078970798044 64.694082891976,199.12279673571902 64.55322648651781,199.17971801739623 64.54920201780624,199.35486007533837 64.44054136217164,199.46432359543178 63.43039971169492,199.45994505856652 63.00380602662335,199.71389965579874 62.62953043502057,199.62195070473535 62.267328249581624,199.71389965579874 62.48464956083626,199.83211952350393 61.57511962854187,199.45118798383555 61.23303978673357,199.52124454498335 60.85876419511624,199.48183773965502 60.65754075878067,199.59567954932936 61.269260005268734,199.5869224949056 62.15061865649477,199.84963355767104 62.56111446666182,200.06418005094747 63.4143018367613,201.13690072248937 63.52296249241044,201.1106302469707 63.55113377349335,200.93987186873346 63.74833274111734,200.6290027731702 63.87711574038258,200.69905792472127 63.92540936511068,200.94425029491322 64.08638811419951,201.07122451158284 64.50090839309269,201.0931165900729 64.6055445799866,200.84354641000027 64.81079248506285,200.6640303594213 65.02408932759135,200.89608758895702 65.14482338940434,200.9705208450905 65.18506807666563,200.92673658823696 65.20921488903696,201.11500866036658 65.08445635849785,201.1325223107233 65.39031598174188,201.20695526623967 65.49897663737647,201.3864696519595 65.48287876247196,201.7892804165749 65.65593091773917,201.79803714154332 65.65593091773917,201.87246925093496 65.591539418092,202.03884656503942 65.20921488903696,202.51170582371924 65.16897020176111,202.78316033935698 65.05226060867426,202.8488346298691 64.9073797345045,202.83132149294033 64.76249886033474,202.54235397722732 64.7906701414322,202.86196947913413 65.05226060867426,203.0327222514352 65.14079892067821,203.20785278267067 65.7364202922763,203.4180087287168 65.75654263590695,203.61502924311935 65.84910541662248,203.70259370340136 65.8732522289938,203.84707477658594 66.01410863445199,203.99155549329225 66.21533207078755,203.9871772949955 66.41253103841154,204.1404140406812 66.3320416638744,204.18419589436598 66.29984591406537,204.35056663985233 66.34009060131211,204.52569322971976 66.4809470067703,204.62639078174834 66.87132047329214,204.6526596798867 67.16913115908392,204.56509664026453 67.33010990817274,204.70957558543523 67.41462375143601,204.6789285662453 67.39047693907924,204.8671885736403 67.45084396998573,205.09922914540584 67.36230565799633,205.20430381888218 67.37840353290085,205.3050002040436 67.5836514379771,205.392562137371 67.7285323121323,205.55892945002415 67.80097274923173,205.37504976118362 67.84121743650758,205.3969402306102 67.81707062413625,205.8172356568357 67.70438549979008,205.9529554106557 67.54340675070125,205.9792237137699 67.48303971979476,206.22001594340327 67.72450784343528,206.4170270313225 67.90158446739952,207.09561570639562 67.99012277940346,207.21819862869233 69.08880274189869,207.70414983216324 69.555641114217,207.50714307341696 70.39273060944106,207.4458519466607 70.50541573378723,207.5027651379096 70.55773382725602,207.75230693908816 70.50944020252791,208.89055430353255 70.76298173233226,208.93871043516265 70.77103066976997,209.0" stroke="#4dd2ff" stroke-linecap="round" stroke-linejoin="round" stroke-width="0.5"><title>2021-09-04 11.1km</title></polyline><polyline fill="none" points="84.5098679222865,208.95906185578497 84.09426636749413,207.3624672552396 84.27058217860758,207.07589755379013 91.43656050221762,201.87662829433975 92.91005692380713,201.0987724554725 92.58261327457149,200.29362002802372 92.20479367935332,197.55061714052863 91.57509435381508,196.13133619879954 91.8521620570682,195.8720433266426 89.44671063381247,192.02354902858497 89.90009414817905,191.34118363099697 90.70610928471433,191.0 90.25272577040596,191.04094206854643 89.73637232353212,191.45036226167576 89.32077076873975,191.96895988826873 90.66832732519833,194.58922067901585 91.75141016498674,195.7219262366125 92.5070493555395,197.61885153026378 93.04859077540459,200.79854653115035 91.63806428643875,201.8902748591936 91.57509435381508,202.01309389801463 90.56757543311687,202.5180157674331 85.56776278908364,206.24347831662453 85.07659731514286,206.31170954073605 86.12189819541527,205.73856648588844 86.31080799305346,206.27077080924937 85.32847704534652,207.37611342055607 84.52246190881124,207.4034057482495 84.53505589527776,208.45415734159178 84.92546947707888,208.8908315955341 85.278101099364,209.0 85.64332670805743,208.71343280258588 85.56776278908364,208.4132190781238 85.76926657318836,208.03112818782392" stroke="#4dd2ff" stroke-linecap="round" stroke-linejoin="round" stroke-width="0.5"><title>2021-09-03 4.3km</title></polyline><polyline fill="none" points="116.35257592902053,209.0 115.8734154397971,207.477202568145 116.1886526037124,205.62513459584443 116.39040438859956,205.36447167595907 115.2933790581883,204.15718595169892 114.75117113621673,200.63131736495416 113.38934658811195,198.7791802443826 112.35536869044881,195.89804086572258 111.59879949706374,194.9650907907053 109.25343499745941,194.29281499917852 107.36201201396761,192.74245530563348 106.94589895755053,192.05645125666342 106.65588076674612,191.0 106.46673846844351,191.3567244818405 107.4376689333003,192.92081593784678 108.74905553518329,194.19677539911936 109.51823421515292,194.66325298517768 111.25834335997934,195.15716913546203 112.25449279800523,196.0489588141063 113.41456556122284,199.03985252602433 114.80160908249673,201.1800951409532 114.81421856908128,202.62062898838485" stroke="#4dd2ff" stroke-linecap="round" stroke-linejoin="round" stroke-width="0.5"><title>2021-08-30 3.1km</title></polyline><polyline fill="none" points="139.35900370171294,204.7872279405783 138.90678848914104,204.44897055174079 138.56762707978487,203.90570693714108 138.17193876870442,201.34311366993643 137.24866604310228,200.1028013132236 136.3253933173837,197.70414886217623 135.6282281979802,197.07885221839388 134.20563450845657,196.709823351448 132.59461781365098,195.4284653988434 132.19892950268695,194.23935449424607 131.78439889114816,193.5730378358203 129.8719053879613,191.66632917802053 129.39142672455637,191.0 129.2124248696491,191.15376855962677 131.40755288064247,193.23475275310193 131.85976809321437,193.8805690040972 132.43445825920207,195.19269422976504 133.0374118759646,195.96151176332933 134.10200185555732,196.79182985222724 135.77896660222905,197.40687704322772 136.30655101686716,197.96041715376487 136.67397587705636,198.88297903360944 136.76818737969734,199.016237458236 137.07908533833688,200.07204962451215 138.17193876870442,201.7838831252593 138.25672912108712,203.23943729890016 138.4263098257943,203.95695831355988 139.293055649905,205.16648523194453 139.09521149442298,206.5400028528893 139.34016140119638,207.52400701145234 139.19884414726403,207.70850700447772 138.44515212631086,207.8622568089122 138.29441372217843,208.23125563567737 137.729144706449,208.57975361524586 136.62687012576498,209.0" stroke="#4dd2ff" stroke-linecap="round" stroke-linejoin="round" stroke-width="0.5"><title>2021-08-29 4.5km</title></polyline><polyline fill="none" points="162.07062587031396,205.57401975661196 162.05204804282403,204.88679201886407 162.18209283490432,204.67455921683722 161.71764714899473,204.19956078498217 161.336801686557,203.50221963565127 161.01168970641447,201.24846927295584 160.04564267973183,199.92449973162002 159.11675130791264,197.51908674402512 158.46652734768577,196.97331480887078 157.1939461682923,196.68021415558906 156.1442989181378,195.91208528738935 155.27114102861378,195.02266745505767 154.8066953427042,193.64810110023973 152.81886780704372,191.73783491537324 152.31726646627067,191.0 152.1036214507767,191.07075146803982 154.59305032721022,193.5773509827486 155.4476303893025,195.34609279915458 155.9863873848808,195.98283418161736 157.0174568076618,196.76106957175944 158.20643776358338,197.09459765173233 158.68017236323794,197.36748364997766 158.8195060689468,197.50897987639473 159.37684089207323,198.22656559947063 159.88773114653304,199.88407297655067 160.90951165556908,201.3697482767384 161.2346236356534,203.76498628850823 162.12635935260914,205.07881188578176 161.99631456058705,205.92773855294217 161.02097862015944,206.43304951253958 161.21604580822168,207.1505878277021 161.16960123967147,207.9893953927749 160.44506596965948,208.46438049968128 159.53475242527202,208.71703147196968 159.16319587652106,208.60586510236317 159.23750718624797,208.44416840151098 159.16319587652106,208.61597113975586 159.08888456679415,208.53512281955045 159.50688568409532,208.81809172857902 159.58119699388044,208.65639528170868 159.4604411154869,209.0" stroke="#4dd2ff" stroke-linecap="round" stroke-linejoin="round" stroke-width="0.5"><title>2021-08-28 4.8km</title></polyline><polyline fill="none" points="186.65180304297246,209.0 186.1221224302426,208.63814142192132 185.65403258654987,207.90101983507338 185.18594274274074,204.818478515881 184.80407997546718,203.9875235175423 183.88021844171453,202.94212304390385 182.83317537017865,199.79248216658016 181.87235937500373,198.9883096615522 180.0000000000582,198.5192073659855 178.2508221627795,197.12529615146923 177.51173293578904,196.18708057091862 176.90814340044744,194.5384898573684 174.5800123353256,192.27332826826023 173.66846895538038,191.0 173.34819695702754,191.13403498100524 176.62482586340047,194.3642476755922 178.06604985607555,197.13869919558056 179.72900061670225,198.5192073659855 181.99554091290338,199.35018773569027 182.7592664474505,200.12755297789408 183.09185659966897,200.9451231265848 183.19040182989556,201.1863726212614 183.74471875012387,202.94212304390385 184.85335259063868,204.577233913471" stroke="#4dd2ff" stroke-linecap="round" stroke-linejoin="round" stroke-width="0.5"><title>2021-08-27 3.5km</title></polyline><polyline fill="none" points="25.006967637804337,224.69078746991 24.651996051543392,224.41637543907564 24.231634962547105,223.6236264584295 23.970076951605733,221.35715192845964 23.61510536534479,220.73716800338298 22.9892344106338,220.1781636775995 22.11114680254832,217.71851731120114 21.391862272459548,217.04769693473645 19.897245067171752,216.65130151843186 18.617479085107334,215.5942414182864 17.60861247149296,213.5817388670912 15.665610104624648,211.6505215061261 15.24524901562836,211.0 14.965008289611433,211.14230184579355 17.412443963286933,213.5410819425233 18.225142068695277,215.29948280791723 19.065864246687852,216.2040847879034 19.990658642491326,216.86474534792796 21.382520914892666,217.2611401412214 22.213901735376567,218.1860568262273 22.25126716546947,218.30802339152433 22.727676399692427,219.781777397955 23.783249800966587,221.45878836751945 23.96073559403885,222.13975054745242 23.970076951605733,223.15610566014948 24.240976320113987,224.111472532466 25.034991710388567,225.08715942474373 24.81079912959831,226.2254519425187 25.01630899531301,227.4348772926969 24.72672691178741,227.98368860629125 23.979418309172615,228.0853200877682 22.3633634558646,229.0 22.02707458473742,228.72559667288442 22.073781372339,228.9898369236762" stroke="#4dd2ff" stroke-linecap="round" stroke-linejoin="round" stroke-width="0.5"><title>2021-08-26 4.6km</title></polyline><polyline fill="none" points="47.99118271790212,224.82985334705154 47.436913089768495,224.4107874541878 47.04234826978063,223.77707561352872 46.751121854933444,221.4875115637551 46.47868424112676,220.92533595147688 45.783498605829664,220.14850766168092 44.83466415759176,217.62378520747734 44.271000128937885,217.0922587440582 42.73971285112202,216.6833908261542 41.396313582896255,215.6816592540781 41.011143163370434,215.10923791399546 40.48505673662294,213.7395056819223 38.36192222876707,211.69510366002214 37.95796300825896,211.0 37.72310299630044,211.091999217002 40.231407923740335,213.6475082485922 41.11448156856932,215.42611430943361 41.95058321108809,216.36651734783663 42.78668485354865,216.90826833245956 44.19584492512513,217.3273572426333 44.78769215522334,217.87932604013622 45.10710177139845,218.48240050961613 45.17286257474916,218.5641731140422 45.586216195777524,219.9236354900786 46.67596665112069,221.63061044109054 46.79809385736007,223.35800649127486 47.06113707070472,224.16547999359318 47.80329470837023,225.06493852901622 47.59661789791426,226.6491976851903 47.84087231033482,227.5179771653202 47.65298430074472,227.93703352788725 46.87324906117283,228.14145079935406 46.037147418712266,228.67293427394907 45.1164961719187,229.0 44.77829775470309,228.79558401293616 44.806480956147425,228.68315508971864 45.003763366199564,228.70359671900223" stroke="#4dd2ff" stroke-linecap="round" stroke-linejoin="round" stroke-width="0.5"><title>2021-08-25 4.7km</title></polyline><polyline fill="none" points="71.45068143797107,226.96018236286181 70.51325743854977,225.5809722638951 70.33216416597134,224.9551081686077 70.24694380239816,223.19340306456434 69.84214707533829,222.24300120142289 69.05385871219914,221.31577425151772 68.03121434926288,218.63837527837313 67.16835816792445,217.91975815154728 65.44264580536401,217.44454176833096 64.01520471536787,216.2275175521645 63.65301817015279,215.77547755018168 62.84342471609125,213.95571342452604 60.55312744481489,211.61432939577207 60.212245990464,211.0 59.97788999066688,211.25500495074084 62.726246716221794,213.95571342452604 63.610407988366205,215.98411156122165 64.5478319877875,216.95773322957393 65.55982380529167,217.73430802916118 67.0405276225647,218.12838927382836 67.82881598564563,218.7426903906162 67.9246888947091,218.88177709761658 68.8727654395625,221.32736462267349 70.08715562062571,223.18181283307786 70.16172343882499,225.11736947315512 70.35346925683552,225.7316428721242 71.39741871075239,227.06449187088583 71.09914743818808,228.69866499432828 71.19502034719335,229.0" stroke="#4dd2ff" stroke-linecap="round" stroke-linejoin="round" stroke-width="0.5"><title>2021-08-24 4.2km</title></polyline><polyline fill="none" points="93.42264814965893,224.64979653859336 92.73294546228135,223.75742985384568 92.59314086346421,222.18563333673956 92.28557074611308,220.97888686657825 91.42810254020151,220.07635517213203 91.06461058330024,218.70733494831074 90.57063433423173,217.62224983431952 89.86229103361256,217.04421029172954 88.36172167322366,216.62842593807727 87.20600365655264,215.66501826430613 86.74930863379268,215.10725279591134 86.12484809249872,213.60634522367036 84.76408333086874,212.3690981007676 83.72952929977328,211.0 83.56176378123928,211.2738207270595 85.78931705543073,213.4542252849642 86.33921514399117,214.26552965099108 86.77726955356775,215.33035925879813 87.36444886843674,216.0300998730745 88.42696381936548,216.89209421277337 89.93685348640429,217.3484419373126 90.79432169225765,218.4233882812041 91.35354008746799,219.8532565233836 91.46538376651006,220.44142489605292 91.81955541681964,220.71522654360888 91.90343817608664,221.0701537819332 92.22032860002946,221.31353192243114 92.41605503833853,221.7191611852977 92.4346956515219,223.0780103702491 92.62110178329749,223.92981933034753 93.51585121551761,225.00471347339044 93.534491828701,225.25822500067443 93.366726310167,225.42047212931357 93.55313244188437,225.42047212931357 93.31080447061686,226.4345122833547 93.58109336160123,227.397843403327 93.13371864549117,227.98597903724294 91.12985272944206,228.85803752182983 90.85024353180779,228.929018779505 90.90616537129972,228.81747678646934 90.88752475817455,229.0 90.5147124947398,228.7769160389871" stroke="#4dd2ff" stroke-linecap="round" stroke-linejoin="round" stroke-width="0.5"><title>2021-08-23 4.5km</title></polyline><polyline fill="none" points="118.71656292700209,225.461680540815 120.42857142857974,224.06262513685942 119.47214209806407,222.91228038995905 118.43919842113974,221.03647306504718 115.63686048274394,216.9013187466262 114.2213450736599,217.22260070650373 113.86746622133069,217.08786965037143 112.51890086533967,217.5438819408373 112.07894337328617,217.56460973748472 111.24684985575732,216.5800360612484 109.0183695157175,214.538319459185 107.19158949446864,217.1293253735348 106.73250341578387,217.3780594588825 106.37862456351286,217.39878727967152 105.8047669652733,217.160417157982 103.95885835739318,217.53351804136037 103.42325793229975,216.25875265029754 102.78245028085075,216.1862046828901 102.42857142857974,215.81310026615392 110.47214209806407,216.3002086150591 111.97373614698881,217.67861256511242 112.1458934264374,217.57497363468428 112.34674358589109,217.77188753797236 114.6613025656552,216.84949900773063 116.07681797479745,216.59040003014525 116.73675421287771,217.56460973748472 117.11932594509562,217.80297918199358 117.41581903753104,218.3937191275545 117.463640504051,218.58026807448186 116.98542583879316,218.90154624304705 117.00455442542443,219.08809452413698 119.08957036590436,221.98992518210434 120.07469257625053,223.68954137292894 120.11294974951306,223.87608337716665 119.6825565508334,224.12480566911108 119.19477759225992,223.88644681467122 119.08957036590436,224.1869861741725 118.77394868683768,224.11444224895968 118.87915591313504,224.58079540864128 118.4009412479354,224.88133330183337" stroke="#4dd2ff" stroke-linecap="round" stroke-linejoin="round" stroke-width="0.5"><title>2021-08-21 5.0km</title></polyline><polyline fill="none" points="139.1222387101152,225.8386990032377 139.33782022516243,224.95148200062977 138.40988239954459,223.65633876706124 138.15680844709277,221.35156525426282 138.05370424425928,221.0660153799181 137.14451263734372,220.04618951617158 136.29155968653504,217.6699656470155 135.5323378291796,217.06825431606558 134.1732369735255,216.73170275195298 132.80476300843293,215.67104996072885 132.49545039993245,215.23250841343543 131.86745207349304,213.67210495035397 129.75850246980553,211.65273276419612 129.3929512051982,211.0 129.23360834625782,211.26517306265305 131.6518705584458,213.67210495035397 132.44858485314762,215.29370034196472 133.16094116377644,216.16058304412581 134.12637142679887,216.89487937170634 135.67293446947588,217.37420956213464 135.78541178168962,217.47619449150807 136.29155968653504,218.00651489387383 136.96642355970107,219.8116284880889 137.6412874328671,220.9130419868452 137.6600336515694,221.22918680992734 137.97871936945012,221.4637453983305 138.17555466579506,222.0858336125675 138.27865886862855,223.77871503213828 139.23471602227073,225.24722164313425 139.00038828857942,226.3893825142368 139.2722084596753,227.60291795435478 139.00038828857942,228.021024301328 138.38176307146205,228.11280357171927 137.54755633941386,228.69407084932027 136.66648406052263,229.0 136.3665445613442,228.84703551047278" stroke="#4dd2ff" stroke-linecap="round" stroke-linejoin="round" stroke-width="0.5"><title>2021-08-19 4.7km</title></polyline><polyline fill="none" points="162.04203625861555,225.17737042978115 162.16416344646132,224.80941113841254 161.6568658966571,224.3187972083033 161.36563952546567,223.70552731804491 161.06501875515096,221.47729020991392 160.19133964151843,220.17917202031094 159.25189973443048,217.80777465547726 158.66005259292433,217.1433671480263 157.08179354894673,216.7447210921382 155.69142248638673,215.661215676344 155.30625212442828,215.0887942505433 154.69561618485022,213.63728630788682 152.67582038452383,211.6644373967647 152.23428362817504,211.0 152.12155083927792,211.27599746506894 154.59227779507637,213.6986179415835 155.3250409226166,215.34433982638438 156.01083205483155,216.13141719556734 157.00663835636806,216.8776032400565 158.47216461150674,217.33757890756533 158.9700677622459,217.8282179121452 159.05461735388963,217.83843953933683 160.08800125174457,220.41426520563255 160.87713077373337,221.5488396726796 161.3092731310171,224.12459537426184 162.13598024926614,225.2386968819992 161.99506426323205,226.12792734567483 160.98986356257228,226.70030251356366 161.1683571449248,227.12958231592347 161.23411793843843,228.2436593204693 159.51494290836854,229.0" stroke="#4dd2ff" stroke-linecap="round" stroke-linejoin="round" stroke-width="0.5"><title>2021-08-18 4.6km</title></polyline><polyline fill="none" points="184.78547629457898,226.68148968933383 184.66397006053012,226.17303915897355 185.0284887626185,224.739198419491 184.10317205725005,223.85448063048534 184.0377456235001,222.22739839807764 183.77603988867486,221.23080091152224 182.77595011616359,220.1731792593855 182.43947131419554,218.871479772999 181.84128677740227,217.64095551257924 181.28983540745685,217.09179232916358 179.6541745646391,216.66466387434775 178.51388529129326,215.69853503532067 178.01851372176316,215.0374955557927 177.57922195259016,213.7764267057937 175.65381547465222,211.84412108205288 175.09301747137215,211.0 174.97151123732328,211.2034031500225 177.44836908509023,213.58319738013233 178.74755112605635,215.98328951235453 180.0186932667857,216.91890716395574 181.3365685744211,217.31552574586385 181.92540647787973,217.84434872100246 182.8507231833064,220.1731792593855 183.7293067217688,221.4545275140481 183.83211968903197,221.7799473693085 184.0377456235001,223.80363460555964 184.29010472504888,224.34260150206683 184.96306232892675,225.14596328660264 184.77612966118613,226.42726466187014 184.94436906219926,227.56618907871598 184.77612966118613,227.6475404576413 184.67331669392297,227.99328327496187 183.98166582320118,228.14581659128453 183.13112218491733,228.74577930836676 182.32731171353953,229.0 182.0842992455,228.74577930836676" stroke="#4dd2ff" stroke-linecap="round" stroke-linejoin="round" stroke-width="0.5"><title>2021-08-17 4.8km</title></polyline><polyline fill="none" points="24.94523451034911,247.15212298347615 24.691873349423986,246.30474559773575 25.076606964110397,244.7426987965664 24.110081054095645,243.7625818706947 24.07254606729839,242.077989456433 23.81918490648968,241.14890231772733 22.89957772992784,240.09729056093784 22.055040527076926,237.78984218546248 21.426329498237465,237.08534795807645 19.934313773119356,236.74841465028294 18.5830542484764,235.68655878175196 18.0950994201703,234.99226393723802 17.66344707197277,233.74660844696336 16.349722534127068,232.54178329822753 15.167370450100861,231.0 14.923393035889603,231.0918948571998 17.569609605008736,233.5934532981555 18.32030934089562,235.26794025437994 18.9959391032462,236.12559634500212 19.87801129289437,236.79946520493104 20.469187334936578,237.0138773259605 20.694397255720105,237.07513787007338 21.248038310965057,237.1976588757534 22.064424273732584,237.93278259925137 23.06848517054459,240.5056844388164 23.894254880025983,241.62876130016957 24.16638353432063,243.87488729220058 25.048455724027008,245.15107877139235 24.77632706973236,246.49872401787434 25.029688230599277,247.49923991160176 24.832629549957346,247.9382394681743 24.13823229423724,248.06075072030944 23.35938131820876,248.52016693642508 22.871426489844453,248.6426776662047 22.43039039504947,249.0 22.14887799404096,248.71414220782026" stroke="#4dd2ff" stroke-linecap="round" stroke-linejoin="round" stroke-width="0.5"><title>2021-08-16 4.9km</title></polyline><polyline fill="none" points="47.53918975411216,246.2981206329714 47.800600149144884,245.3839387495973 47.72591146483319,245.0182642727741 47.90329709008802,244.7440077688516 46.98836070741527,243.94155037179735 46.92300810862798,242.46867318702425 46.680269884702284,241.2090965739626 45.7373252453981,240.06124641808856 44.81305277720094,237.5420368273626 44.04749376309337,237.04428423946956 42.78712221561,236.77001162532542 41.45206198375672,235.7338656366046 40.78919991059229,234.8907213967832 40.490445173403714,233.6818669021959 38.4084980985499,231.6704716944223 38.02571859152522,231.0 37.81098862417275,231.10158683331247 37.95102990727173,231.2742842753869 40.37841214693617,233.54980651508959 41.24666810192866,235.39864024081908 42.441687050741166,236.6074794442975 42.61907267593779,236.73953685620654 44.00081333547132,237.14586654851882 44.878405375930015,237.86709875661472 45.90537478507031,240.4878821226157 46.57757294375915,241.3309915956852 46.72695031238254,241.71699177566916 46.98836070741527,243.9110772126005 47.86595274793217,245.1401558744692 47.63255060947267,246.23717536557524 47.88462491898099,247.53733513718907 47.06304939172696,247.73032654216513 46.96968853636645,248.16709555117268 45.251848797430284,249.0 44.88774146151263,248.70543681537674" stroke="#4dd2ff" stroke-linecap="round" stroke-linejoin="round" stroke-width="0.5"><title>2021-08-13 4.8km</title></polyline><polyline fill="none" points="70.70732538838638,247.29795006629865 70.38882004335755,246.3195165277357 70.77290001831716,244.78050788897235 69.7518093532417,243.82244075078052 69.789280570345,242.41590444718167 69.49887863802724,241.10108563870745 68.68387966684531,240.02068239008804 67.99066215113271,238.27774965141725 67.41922609083122,237.36040767225495 67.0632495287573,237.08520387364842 65.53629743325291,236.71826461041928 64.1873336188728,235.6378265940948 63.803253643913195,235.0160612083564 63.353599039139226,233.74194294221525 61.35825673036743,231.77468092554045 60.88049871270778,231.0 60.65567141032079,231.1427047121906 63.13813954102807,233.47692484517756 63.57842634152621,234.4452576991389 64.76813748339191,236.17804667373275 64.9180223516305,236.27997475033044 65.77049253991572,236.91192712254997 66.88526124763303,237.1361675820226 67.7189958273666,237.8802355523876 68.49652358150342,239.95952723293885 69.62066009349655,241.67186125393346 69.69560252764495,243.05802064828458 69.94853324285941,244.10782315611868 70.72606099693803,245.086272578621 70.53870491165435,246.78835014177457 70.75416440976551,247.55274931379972 70.49186589033343,247.94004325741116 68.2154894535197,249.0 67.81267387006665,248.87769771974854" stroke="#4dd2ff" stroke-linecap="round" stroke-linejoin="round" stroke-width="0.5"><title>2021-08-12 4.9km</title></polyline><polyline fill="none" points="93.80132545204833,248.21018168445153 93.70930380607024,247.665093358155 94.06716576270992,246.18555782882322 93.07537691143807,245.17323556331394 92.86065973748919,244.2832762304024 92.94245675613638,243.54905577056343 92.79931197350379,242.53671555417532 92.45167464419501,241.7691123336699 91.55190743890125,240.96813083460438 90.6623648609384,238.3204112797248 90.00798871170264,237.68628657146473 88.14710653712973,237.18565989099443 86.54184004588751,235.88402263073658 86.11240569793154,235.30551352296607 85.84656538732816,233.97048391135468 84.57871159806382,232.89132621092722 83.57669811946107,231.76765883473854 83.21883616282139,231.0 83.0756913801888,231.289263214916 85.68297134997556,233.88148151086352 86.46004302724032,235.52801729242492 86.9712743939017,236.24002711637877 88.39249759312952,237.39703580617788 88.7094610403874,237.4971611347719 88.93440284172539,237.59728639594687 90.01821333897533,237.88653677157708 90.6316909789457,238.55403549033508 91.66437833954114,241.11275281340932 92.656167190813,242.6257127726276 93.01402914745267,245.21773339011997 93.95469486201182,246.46366713456518 93.71952843340114,248.21018168445153 93.98536874406273,249.0" stroke="#4dd2ff" stroke-linecap="round" stroke-linejoin="round" stroke-width="0.5"><title>2021-08-11 4.4km</title></polyline><polyline fill="none" points="108.84422156121582,248.105906666402 109.64439683395904,248.62353995873127 110.18505580199417,248.60001119118533 115.93766722246073,245.84713324037148 115.52676640672144,242.52953036269173 115.9592935811961,240.41189320749254 113.81828406755812,237.0001144662965 113.45063596917316,232.67063160630642 112.82347156631295,231.09412032639375 111.93679085862823,231.0 107.17899193952326,232.694161565596 106.85459655860905,232.4118019384914 109.08211150718853,231.72943179297727 109.9255394974025,234.2236051399086 110.35806667187717,234.5294929621159 110.61758297646884,233.94124688603915 109.77415498637129,231.8470819237118 112.10980172839481,231.0 112.82347156631295,231.0705902474583 113.45063596917316,232.81181133538485 113.4290096105542,235.75304127586423 113.753404991352,236.85893661752925 115.98091993993148,240.10601110657444 115.52676640672144,243.11776037549134 116.00254629866686,245.42361141717993 115.5483927653404,246.55300167843234 113.81828406755812,246.85887750962866 109.86066042119637,249.0 108.77934248500969,247.8470897008374" stroke="#4dd2ff" stroke-linecap="round" stroke-linejoin="round" stroke-width="0.5"><title>2021-08-10 3.1km</title></polyline><polyline fill="none" points="139.62337588469381,245.938136305238 138.9048445156077,245.17498529334262 138.61401038998156,242.89481108430482 138.36594598877127,242.38292949635797 137.66452250941074,241.67559874442668 137.16839370693197,240.1306254813171 136.74925040829112,239.3488244686232 136.4070926134882,238.9579221192471 134.89304437144892,238.5763257834551 133.618506585859,237.62698347760306 133.24213301151758,237.10577285531326 132.89997521671467,235.88650375956786 131.18918624267098,234.2018451080221 129.57249066221993,231.6143138844709 128.8881750726141,231.0 128.89672901746235,231.242002801715 129.9574181814096,232.47062514347635 130.64173377101542,233.7085429503204 132.403846414265,235.35597835914814 132.70323448471026,235.76550693767058 133.45598163327668,237.31984176812693 133.82380126268254,237.81312959899515 135.02135354452184,238.73454879649216 136.07348876356264,238.97653654468013 136.86045169160934,239.6373468431484 137.621752785024,241.6011426417972 138.6054564451333,243.11817693519697 138.77653534253477,245.00746371284913 139.68325349877705,246.3941633337381 139.45229698726325,247.32482555181923 139.6404837744194,248.50675653324288 139.27266414498445,248.66496691485372 139.19567864117562,248.8697094629897 138.6738880040648,249.0" stroke="#4dd2ff" stroke-linecap="round" stroke-linejoin="round" stroke-width="0.5"><title>2021-08-08 5.0km</title></polyline><polyline fill="none" points="162.70107344002463,249.0 162.49269695294788,248.1621575353347 162.71919313451508,246.93002658546175 162.8822703853366,246.7033132355864 162.0215848951484,245.81617029046174 161.67731069907313,243.31242353605194 160.81662520888494,242.30696853467816 159.91064048238331,239.8721584531304 159.2673913265462,239.2609844835315 158.06243164034095,239.0342579349308 157.0839681357029,238.38364915043348 156.11456447833916,237.36829871677764 155.5800334896776,235.88961903605377 154.53815105417743,235.04183519765502 153.64122617495013,234.03631705816224 152.08293244533706,231.4534803718052 151.4849825258716,231.0 151.40344390046084,231.1084411005504 152.52686496137176,232.23227997472713 153.46002922963817,233.84901381132659 153.58686709136236,234.04617511638935 155.56191379512893,235.90933487434086 156.27764172910247,237.4865923740217 156.92089088493958,238.29492952172586 157.93559377861675,239.06383098514925 159.040895144979,239.29055748282553 159.96499956597108,240.13831397283502 160.90722368157003,242.56326171478577 161.71355008811224,243.6968601850167 161.78602886630688,245.2050238976808 161.99440535338363,245.95417069647374 162.73731282912195,246.93002658546175" stroke="#4dd2ff" stroke-linecap="round" stroke-linejoin="round" stroke-width="0.5"><title>2021-08-07 4.9km</title></polyline><polyline fill="none" points="184.3222393001197,246.90446585792233 183.9553648768342,245.83174176089233 184.31077447440475,244.53448479634244 184.21905586856883,244.11037936870707 184.4368875574437,243.82348390888365 183.29040498449467,242.65094950658386 183.22161603008863,240.6925491906586 182.92353056109278,239.27051161412965 181.7655831624288,238.17279010111815 180.7108191953157,235.05422363635444 179.89681656850735,234.4180289121141 178.62422091251938,234.18101457050943 177.74142933136318,233.71945935906842 176.354185417993,232.5468538842979 175.8153386087506,231.78590336437628 175.5631124426145,231.0 176.4115095466841,232.63417585287243 177.4662735137972,233.65708693518536 178.3719947464415,234.16854012213298 179.72484418255044,234.50534990041342 180.68788954382762,235.4284546927811 181.58214595075697,237.7985652058851 182.9006009096629,239.79442160620238 183.04964364413172,240.28090798172343 183.04964364413172,240.8048147984955 183.3247994616977,242.86300421142369 184.34516895160777,244.2101689781557 184.2075910428539,245.3327979689493 183.03817881841678,246.14358087272558 183.27894015872153,246.84209836683294 183.1298974243109,247.21630296357034 183.23308085580356,248.05202353096684 182.83181195531506,248.05202353096684 181.14648257300723,249.0 180.92865088413237,248.66321950318525" stroke="#4dd2ff" stroke-linecap="round" stroke-linejoin="round" stroke-width="0.5"><title>2021-08-06 3.9km</title></polyline><polyline fill="none" points="25.388431185099762,269.0 25.27288977568969,268.1771891267854 25.682536590844393,266.4287013058929 24.62165637704311,265.217318922485 24.47460367414169,262.90880891388224 24.26452838431578,262.34881855433923 23.193144405959174,261.14883229845145 22.583926065417472,259.13740561711893 22.090249134169426,258.2345407079556 21.4705270290724,257.74310566579516 19.842443532601465,257.3430992313806 18.11982615571469,256.15450250080903 17.741690633934923,255.48019831931742 17.332043818722013,253.9944328339334 15.168268333072774,251.89147851000598 14.538042463478632,251.0 14.317463409155607,251.16000934664044 17.13247229339322,253.91442966683826 18.08831486228155,255.93735402167658 19.24372895649867,257.0230933294224" stroke="#4dd2ff" stroke-linecap="round" stroke-linejoin="round" stroke-width="0.5"><title>2021-08-05 3.0km</title></polyline><polyline fill="none" points="48.424848414200824,269.0 47.98190421628533,267.85685137436667 48.39394533063751,266.0188294142572 47.363842544844374,265.14464032462274 47.363842544844374,263.4298699846113 47.13721993198851,262.320302245309 46.87969423556933,261.83836622245144 45.99380583979655,260.8969053322944 45.18002463912126,258.58805952545663 44.33534035470802,257.6017456119298 42.584165618929546,257.20945986350125 41.100817607482895,256.01017991687695 40.49305696383817,255.001432338031 40.142822016670834,253.8693852964352 38.082616445142776,251.89668881209218 37.47485580161447,251.0 37.28943730011815,251.03362592736084 37.32034038368147,251.23538133299735 38.38134625303792,252.10965161579952 40.050112765980884,253.88059372494172 41.05961349606514,255.86447235313244 41.84249161317712,256.64904986887996" stroke="#4dd2ff" stroke-linecap="round" stroke-linejoin="round" stroke-width="0.5"><title>2021-08-04 3.0km</title></polyline><polyline fill="none" points="70.16514096414903,269.0 70.05246108444408,267.97467142775713 70.97438737325137,267.4285696341685 71.22023438359611,266.0242986870726 70.26757721847389,264.9878044969955 69.9295375792426,262.2572207600897 69.65295969258295,261.71109800587874 68.87444415979553,260.84175561334996 68.2598266339628,258.85785268916516 67.79886348953005,258.099950213742 67.08180970937246,257.54266652111255 65.53502226923592,257.1525666954549 64.03945295629092,256.0268443265377 63.54775893554324,255.32465675711865 63.1072830419871,253.9091257185355 61.888291615701746,252.88369325431995 60.372235051880125,251.0 60.20833704498364,251.06687709157995 60.30052967387019,251.31209283717908 61.36586671869736,252.21492914691044 62.92289778427221,253.89797975147667 64.008722079976,256.04913594116806 64.61309598042862,256.584133691591" stroke="#4dd2ff" stroke-linecap="round" stroke-linejoin="round" stroke-width="0.5"><title>2021-08-03 3.1km</title></polyline></svg>