<?xml version="1.0" encoding="utf-8" ?>
<svg baseProfile="full" height="300mm" version="1.1" viewBox="0,0,200,300" width="200mm" xmlns="http://www.w3.org/2000/svg" xmlns:ev="http://www.w3.org/2001/xml-events" xmlns:xlink="http://www.w3.org/1999/xlink"><defs /><rect fill="#222222" height="300" width="200" x="0" y="0" /><text fill="#FFFFFF" style="font-size:12px; font-family:Arial; font-weight:bold;" x="10" y="20">Over 3km Runs</text><text fill="#FFFFFF" style="font-size:4px; font-family:Arial" x="10" y="280">ATHLETE</text><text fill="#FFFFFF" style="font-size:9px; font-family:Arial" x="10" y="290">phh95</text><text fill="#FFFFFF" style="font-size:4px; font-family:Arial" x="120" y="280">STATISTICS</text><text fill="#FFFFFF" style="font-size:3px; font-family:Arial" x="120" y="285">Number: 92</text><text fill="#FFFFFF" style="font-size:3px; font-family:Arial" x="120" y="290">Weekly: 3.8</text><text fill="#FFFFFF" style="font-size:3px; font-family:Arial" x="141" y="285">Total: 336.3 km</text><text fill="#FFFFFF" style="font-size:3px; font-family:Arial" x="141" y="290">Avg: 3.7 km</text><text fill="#FFFFFF" style="font-size:3px; font-family:Arial" x="167" y="285">Min: 3.0 km</text><text fill="#FFFFFF" style="font-size:3px; font-family:Arial" x="167" y="290">Max: 11.1 km</text><polyline fill="none" points="23.545454545412213,32.31257727064076 28.818181818234734,35.59319316735491 29.0,35.96499405495706 21.929292929242365,47.66555295008584 19.727272727293894,46.35336329304846 18.21212121215649,45.850355747155845 17.848484848393127,45.23799760476686 13.767676767660305,42.94164351868676 13.585858585778624,42.54798106601811 12.494949494954199,42.19805845536757 11.0,41.148288191936444 11.101010101032443,41.476341791043524 13.545454545412213,42.52611091476865 15.808080808143131,44.23197796253953 18.454545454587787,45.56604676390998 21.181818181765266,47.49059465836035 21.96969696972519,47.687422729388345 28.979797979816794,36.09621778843575 28.979797979816794,35.70254641713109 28.55555555562023,35.418227885471424" stroke="#4dd2ff" stroke-linecap="round" stroke-linejoin="round" stroke-width="0.5"><title>2022-01-05 3.1km</title></polyline><polyline fill="none" points="39.49616933282232,31.0 43.74606532568578,33.54793923799298 44.372544017853215,34.17117227142444 38.53105350979604,43.77609917330847 38.480257940187585,43.977725414632005 39.81787460722262,44.894206306911656 45.862547393888235,48.468450102445786 47.23402777407318,49.0 45.862547393888235,48.43179144769965 40.15651173813967,45.05917251537903 38.497189796646126,43.8494178250985 44.372544017853215,34.2444937039254 44.304816591669805,33.8778863290936 43.03492735081818,33.14466998727585" stroke="#4dd2ff" stroke-linecap="round" stroke-linejoin="round" stroke-width="0.5"><title>2022-01-04 3.1km</title></polyline><polyline fill="none" points="70.21428571431898,33.727787981100846 70.14999999996508,34.21496229839977 71.95000000001164,35.05011597345583 74.71428571426077,36.98139773249568 70.27857142855646,44.045233074444695 69.13749999995343,46.2722120188846 67.09642857144354,45.08913202326221 66.16428571427241,44.84555600727617 65.69821428571595,44.306208236608654 63.54464285715949,43.14051698548428 62.69285714282887,42.40978227411688 61.50357142853318,41.92262456585013 57.389285714307334,39.27803692268208 56.71428571426077,39.06925244847662 57.54999999998836,39.347631707045366 58.064285714237485,39.852193291517324 63.14285714284051,42.70555611535383 66.37321428576251,44.915149179898435 69.07321428571595,46.1852210410143 74.66607142862631,37.08579089901468 74.68214285711292,36.7552123828209 74.05535714287544,36.37243669081363" stroke="#4dd2ff" stroke-linecap="round" stroke-linejoin="round" stroke-width="0.5"><title>2022-01-03 3.7km</title></polyline><polyline fill="none" points="85.62214261910412,31.0 88.59984173084376,32.78409055614611 88.81578174280003,33.10399446899828 85.49712471739622,38.35771490515617 84.95159205567325,39.661892012751196 89.78182916459627,42.59010227852559 90.86152922420297,43.08223350762273 90.61149342090357,43.18065958250372 90.72514605877222,43.74660840751312 90.27053550735582,44.201826747652376 90.90699027938535,44.472496534333914 91.40706188592594,44.97692544166057 91.33887030318147,45.346018816067954 91.10019976372132,45.24759399452887 90.83879869664088,45.50595902949863 90.75924185017357,46.0965062067844 90.07732602301985,47.449835753053776 90.35009235388134,47.84352959878743 90.82743343285983,47.905044179889956 90.95245133450953,48.089587789581856 91.57754084275803,47.73280329682166 91.88440296490444,47.26529144907545 91.90713349246653,46.85929327548365 92.11170824058354,46.90850522693654 92.19126508716727,47.51135047650314 91.70255874434952,47.53595635968668 91.00927765341476,48.05267908364476 90.95245133450953,48.77854882981046 91.33887030318147,49.0 91.12293029128341,48.91388013472897 90.87289448798401,47.757409147918224 91.07746923610102,46.933111197300605 91.2706787204952,46.62553631160699 91.5207145237946,46.66244532726705" stroke="#4dd2ff" stroke-linecap="round" stroke-linejoin="round" stroke-width="0.5"><title>2022-01-01 3.0km</title></polyline><polyline fill="none" points="107.55271336564329,31.0 110.51660482556326,32.674884726526216 112.35682314954465,34.03241442194849 107.89470084180357,41.190173148497706 106.68960211623926,43.57016947962984 116.16754074092023,49.0 108.13897761044791,44.53979094837268 106.70588723418768,43.30572659110476 112.34053803165443,34.155825837224256" stroke="#4dd2ff" stroke-linecap="round" stroke-linejoin="round" stroke-width="0.5"><title>2021-12-30 3.1km</title></polyline><polyline fill="none" points="130.4810688160942,31.0 134.69046380370855,33.54146378749283 135.14378326392034,34.049753343861084 129.52585995354457,43.356521774694556 136.0828021458001,47.194802324826014 136.56850156746805,47.73811566179211 138.12273971678223,48.21132305901847 139.0455686178757,49.0 137.42657054570736,47.89585156357498 136.53612160601187,47.65048456081422 133.3143154424033,45.63496048845991 130.9343882763642,44.46069090506353 129.97917941375636,43.60189312757575 130.20583914383315,42.98846427924582 129.84965956798987,42.63793281115068 135.12759328319225,33.8218995367497" stroke="#4dd2ff" stroke-linecap="round" stroke-linejoin="round" stroke-width="0.5"><title>2021-12-29 3.2km</title></polyline><polyline fill="none" points="148.1428571428405,36.90060181381705 148.67400468379492,37.5236999738263 148.61498829029733,38.37047157190682 148.82154566742247,38.59414654500142 150.78384074941278,36.53313284210162 151.226463700179,37.76335264307272 154.87072599527892,37.827259977537324 155.96252927405294,37.347954517405014 156.75925058545545,37.63553791856975 156.81826697889483,38.03495868643222 157.05433255265234,38.14679637168592 157.36416861822363,37.90714411949739 157.2018735362799,37.475769408702035 157.88056206086185,36.165663257503184 157.65925058542052,34.82359521999024 158.17564402811695,34.40819155149802 158.76580796251073,34.47209985916561 159.57728337240405,35.15911299579602 160.24121779861161,35.20704406492587 160.93466042150976,36.13370935161947 161.84941451990744,36.32543271740724 162.48384074942442,35.941985818994 162.73466042155633,35.111181916247006 164.4756440281053,35.15911299579602 165.3756440281286,34.13658103709167 165.6264637002605,33.52945044107037 165.906791569083,33.41761041191057 166.1428571428405,33.60933614139503 166.02482435596175,35.49463026065496 164.69695550354663,36.03784760614508 162.66088992968434,37.76335264307272 162.41007025755243,38.54621621273691 161.90843091334682,38.99356557507417 161.7166276347125,39.9841216452769 158.98711943795206,41.8533846794744 158.8395784543245,42.268774311378365 159.1346604215214,43.6587262320827 158.91334894613829,44.265828917734325 157.96908665105002,44.23387618653942 157.4526932084118,43.9622777839686 156.81826697889483,44.122041590715526 156.316627634631,44.45754520785704 155.4903981264797,46.05517447243619 154.619906323147,46.40665135634481 154.0592505854438,46.502508591045626 154.0887587821344,46.358722723365645 154.103512880567,46.582389588074875 154.0887587821344,46.42262756501441" stroke="#4dd2ff" stroke-linecap="round" stroke-linejoin="round" stroke-width="0.5"><title>2021-12-25 3.3km</title></polyline><polyline fill="none" points="176.0877393427072,31.0 180.78565890254686,34.159210575249745 175.20587730925763,43.35887244177866 182.22870586626232,47.71557031266275 183.62365126464283,48.23628587968415 184.79412269074237,49.0 175.2219111644663,43.39358747861115 180.22447397216456,35.02711828054453" stroke="#4dd2ff" stroke-linecap="round" stroke-linejoin="round" stroke-width="0.5"><title>2021-12-25 3.1km</title></polyline><polyline fill="none" points="16.20325788820628,51.0 19.165371346171014,52.629975763877155 20.785532850713935,53.65756360121304 20.900089724804275,53.95875232221442 15.957778872398194,61.86039459744643 15.319533431145828,63.52573060557188 24.680466568854172,69.0 24.320430678897537,68.59253432610421 22.438424890860915,67.75988497074286 22.07838900090428,67.28155320938095 15.352263966633473,63.43714918823389 15.515916643838864,62.65763133399014 20.409131693071686,54.84459935326595" stroke="#4dd2ff" stroke-linecap="round" stroke-linejoin="round" stroke-width="0.5"><title>2021-12-24 3.0km</title></polyline><polyline fill="none" points="45.82373528473545,52.263999434013385 51.79700922674965,55.9530483566632 48.609926821431145,60.90064270046423 44.821508113178425,67.60580472912989 44.42061724467203,67.73600056598661 42.476296532084234,66.34724205787643 41.5742920775665,66.10854854158242 40.632198536535725,65.24057051664568 38.84823417116422,64.43768860650016 33.97741011774633,61.29123877652455 33.85714285715949,61.48653662370634 36.30257715564221,62.59322202135809 37.76582882599905,63.7867016956443 44.881641743471846,67.60580472912989 51.85714285715949,56.03984896111069 51.376073814812116,55.56244532557321" stroke="#4dd2ff" stroke-linecap="round" stroke-linejoin="round" stroke-width="0.5"><title>2021-12-22 3.1km</title></polyline><polyline fill="none" points="69.04277733445633,52.33604789458332 72.46177174779586,54.317397651146166 74.47294493217487,55.645547873165924 74.67406225053128,56.05923281010473 69.22378292109352,64.6376238068915 67.67517956905067,67.66395210544579 64.2360734238755,65.90041197801474 59.57015163602773,62.67811442632228 58.222665602574125,62.199121303041466 56.83495610533282,61.197587762464536 56.714285714318976,61.39354023931082 59.751157222664915,62.74343161127763 60.53551476448774,63.570781393616926 63.391380686312914,65.1166130474885 63.95450917806011,65.7697789646918 67.61484437354375,67.53331985799014 74.71428571431898,56.01568705411046 74.61372705514077,55.66732077882625 73.66847565839998,55.10122472094372" stroke="#4dd2ff" stroke-linecap="round" stroke-linejoin="round" stroke-width="0.5"><title>2021-12-20 3.1km</title></polyline><polyline fill="none" points="84.52287633612286,51.0 88.67564872797811,53.464882148779 88.91615678160451,53.86412123928312 88.48324228514684,54.88825325804646 84.12202958023408,61.58839889970841 83.38447154918686,63.115867042317404 90.24696801143,67.2816398096329 93.75838559371186,69.0 88.53134389588377,66.3269899404986 84.60304568731226,63.94902738367091 83.80135217541829,63.237369772352395 83.99375861830777,62.75135848289938 83.60894573252881,62.38684936948994 86.51107624580618,58.04741260848823 87.80981973512098,55.68672603490995" stroke="#4dd2ff" stroke-linecap="round" stroke-linejoin="round" stroke-width="0.5"><title>2021-12-19 3.1km</title></polyline><polyline fill="none" points="114.2239429266192,51.419776571012335 113.50043500948232,51.53845494441339 115.56133634923026,52.440409178554546 120.42857142852154,55.81084777860087 112.75500260991976,68.58022342898767 109.75134852959309,66.91880863817642 108.98399164772127,66.77640126444749 107.09848616668023,65.25738543068292 105.147207238595,64.42667067059665 103.5905689925421,63.050053006765665 102.42857142852154,62.646560527413385 103.349399686791,62.90764395307633 103.80981381586753,63.4535449896357 104.29215242736973,63.429810180852655 108.0631633894518,65.70834399061278 109.00591613003053,66.63399382893112 109.99251783522777,66.80013583105756 112.64538019825704,68.34287897421746 120.3847224637866,55.8583184973686 117.27144597179722,53.65092280367389" stroke="#4dd2ff" stroke-linecap="round" stroke-linejoin="round" stroke-width="0.5"><title>2021-12-17 3.1km</title></polyline><polyline fill="none" points="138.04495280748233,52.30796909221681 138.16589345701504,52.76622908632271 143.28571428568102,56.10495944437571 136.25099984009285,67.69203090778319 135.424572068383,67.56110603397246 134.01359782437794,66.49188410339411 132.78403455438092,66.1427495906828 131.15133578621317,64.76802851678804 129.21628539427184,63.85154431863339 128.57126859703567,63.17508990925853 125.28571428568102,61.23300268733874 125.46712525980547,61.6476066277246 127.86578147497494,62.71684573733364 132.8445048792055,66.05546589929145 136.17037274036556,67.62656847797916 143.28571428568102,56.235889293195214 143.18493041116744,55.79945624276297 142.39881618949585,55.297557453624904" stroke="#4dd2ff" stroke-linecap="round" stroke-linejoin="round" stroke-width="0.5"><title>2021-12-16 3.1km</title></polyline><polyline fill="none" points="160.40460210933816,52.27297924243612 166.1428571428405,55.97853397682775 159.1361457335297,67.72702075756388 155.6931927134283,66.13587962152087 155.04889741132502,65.43839044607012 152.06903163949028,63.825440540967975 150.96164908912033,62.90997864396195 148.18312559928745,61.36240577537683 148.1428571428405,61.58037426622468 148.98849472671282,61.68935845248052 154.8274209012743,65.15503500716295 155.6126558005344,65.91791442764224 159.15627996157855,67.5308531266055 166.1428571428405,56.15291189972777 166.00191754556727,55.73876416799612 165.357622243464,55.39000774160377" stroke="#4dd2ff" stroke-linecap="round" stroke-linejoin="round" stroke-width="0.5"><title>2021-12-15 3.1km</title></polyline><polyline fill="none" points="181.7438752783928,52.23144654929638 183.76837416482158,52.904159195924876 186.57461024506483,54.37978164906963 188.91982182627544,56.31110006140079 182.2850779510336,67.37796565736062 181.80400890868623,67.76855345070362 181.16258351900615,67.52986097079702 173.86636971053667,63.146565282862866 173.64587973279413,62.7776711381739 171.0,61.540787458448904 173.56570155906957,62.75597146846121 174.80846325168386,63.79755384271266 177.81514476623852,65.38162010084488 178.63697104679886,66.22789864457445 179.85968819609843,66.53169035963947 181.9242761693895,67.68175620728289 185.1714922050014,62.36537714523729 186.17371937644202,61.3237897954823 189.0,56.115798764978535 186.15367483301088,54.22787967309705" stroke="#4dd2ff" stroke-linecap="round" stroke-linejoin="round" stroke-width="0.5"><title>2021-12-14 3.3km</title></polyline><polyline fill="none" points="23.41797752806451,72.20541121877613 23.86292134830728,72.7309021987312 25.541573033784516,73.4972415746015 28.979775280924514,75.81814326829044 23.47865168529097,84.70746993870125 21.90112359554041,87.79458878119476 19.595505618024617,86.34955835097935 18.483146067359485,85.99924690430635 13.487640449428,82.60558376469999 12.334831460611895,82.25526798257488 11.0,81.22621302635525 11.020224719075486,81.51084559844458 13.507865168503486,82.64937320895842 15.611235955031589,84.29147279256722 17.75505617982708,85.18915013008518 18.483146067359485,86.08682480399148 19.35280898876954,86.24008606749703 21.820224719122052,87.55375085546984 29.0,75.99330493749585 28.63595505617559,75.55540057423059" stroke="#4dd2ff" stroke-linecap="round" stroke-linejoin="round" stroke-width="0.5"><title>2021-12-13 3.1km</title></polyline><polyline fill="none" points="39.14941182860639,71.0 40.31940695323283,71.21408106418676 40.00630966632161,71.35680167032115 40.50067380350083,71.32112152651825 40.269970539433416,71.51736225337663 40.55011021712562,71.39248180891445 40.38532217149623,71.5708824244939 40.616025435505435,71.46384207061783 40.467716194398236,71.62440258399874 40.66546184918843,71.55304236874508 40.68194065382704,71.78496299272228 43.81291352229891,73.76519943277526 39.0670178058208,81.45407478501147 38.07828953152057,83.48775112621661 43.87882874056231,86.85933546404704 44.98290864680894,87.23395309965417 47.6359961827402,89.0 47.3393777005258,88.64322386814456 44.40615048678592,86.94853019081347 43.417422212602105,86.66310695154243 38.09476833615918,83.38071594762732 43.664604281133506,74.17551670510147" stroke="#4dd2ff" stroke-linecap="round" stroke-linejoin="round" stroke-width="0.5"><title>2021-12-11 3.2km</title></polyline><polyline fill="none" points="69.19725785055198,72.95148489339044 74.5842547545908,76.33001094259089 68.39849624061026,86.90774943870201 67.98982750996947,87.04851510662411 67.26536930561997,86.76698369943188 57.71738168946467,80.95530735893408 56.714285714318976,80.57322057275451 60.15081822196953,82.42332012369297 61.8597965502413,83.75055786487064 68.06413091556169,86.88764005170378 74.11985846969765,77.43606709090818 74.71428571431898,76.00824832719809" stroke="#4dd2ff" stroke-linecap="round" stroke-linejoin="round" stroke-width="0.5"><title>2021-12-10 3.2km</title></polyline><polyline fill="none" points="92.88470657984726,73.00589588447474 96.93657379969954,75.47207595556392 97.57142857147846,76.19979706079175 91.14819205692038,86.99410411553981 87.91790160059463,85.43764737815945 87.20835803204682,84.68973650998669 80.01956135150976,80.3841566152405 79.62744516902603,80.26287171333388 79.57142857147846,80.46501318723313 83.21250740962569,82.2640658596356 83.45524599892087,82.64813178297481 86.62951985781547,84.30567339407571 89.22495554247871,86.06427386087307 91.09217545948923,86.83239472840796 93.89300533488858,82.83005756234343 94.30379371682648,81.41507615490991 94.82661529351026,81.07143673113023 97.5154119739309,76.3008692865551" stroke="#4dd2ff" stroke-linecap="round" stroke-linejoin="round" stroke-width="0.5"><title>2021-12-09 3.2km</title></polyline><polyline fill="none" points="114.0905432596337,72.02930021984503 117.04828973836266,73.4702345340047 120.36519114673138,75.7345466077677 113.28772635816131,87.62763652065769 112.8863179073669,87.97069978012587 112.21026156935841,87.78773275477579 102.42857142852154,81.72689016611548 109.69617706234567,86.30112174674287 113.05533199198544,87.83347452105954 120.42857142852154,75.82603362327791 118.44265593553428,74.31649448085227" stroke="#4dd2ff" stroke-linecap="round" stroke-linejoin="round" stroke-width="0.5"><title>2021-12-08 3.1km</title></polyline><polyline fill="none" points="137.7862356621772,72.86782625057094 143.28571428568102,76.32222192620975 136.90406673622783,87.05089746911835 136.22836287808605,87.01025932012999 133.93847758078482,85.79111211582494 125.99895724724047,80.77223370251886 125.28571428568102,80.69095558108529 133.63816475495696,85.62855875525565 136.79144942644052,87.13217374942906 142.83524504688103,77.33821256423835" stroke="#4dd2ff" stroke-linecap="round" stroke-linejoin="round" stroke-width="0.5"><title>2021-12-07 3.1km</title></polyline><polyline fill="none" points="161.97460042126477,74.2622216612217 166.1428571428405,76.81427198633901 160.75690744636813,85.72087808087235 160.1324495105655,85.65327703701041 158.18101846112404,84.57165767374681 148.1428571428405,78.43675305237412 160.27295254613273,85.7377783387783 160.89741048193537,85.68707756136428 161.72481724689715,84.16604912099137" stroke="#4dd2ff" stroke-linecap="round" stroke-linejoin="round" stroke-width="0.5"><title>2021-12-04 3.1km</title></polyline><polyline fill="none" points="184.0038684720057,73.45111338651623 186.89361702126916,74.97765037501813 189.0,76.50417841257877 187.99032882013125,78.29453939764062 182.19342359766597,86.22851728723617 174.8994197291904,81.78099651179218 171.0,79.74566505744588 176.01353965187445,82.45943679443735 180.10444874269888,85.11664421489695 182.976789168315,86.54888661349833 187.346228239825,79.44413311847893" stroke="#4dd2ff" stroke-linecap="round" stroke-linejoin="round" stroke-width="0.5"><title>2021-12-03 3.1km</title></polyline><polyline fill="none" points="23.601880877744406,92.91400866051845 29.0,96.29417281289352 22.586206896579824,106.94346058482188 21.570532915415242,106.8009297579265 11.564263322856277,100.71275988178968 11.112852664547972,100.4684158659511 11.0,100.69239788861887 14.818181818234734,102.54533323622309 16.115987460827455,103.84848924799007 22.492163009475917,107.0859913394961 28.360501567367464,97.65844442941307" stroke="#4dd2ff" stroke-linecap="round" stroke-linejoin="round" stroke-width="0.5"><title>2021-12-01 3.1km</title></polyline><polyline fill="none" points="46.2085240726592,92.49609312581015 49.07261247036513,93.96030340861762 51.85714285715949,95.98434693130548 45.17426992894616,107.39624950024881 44.2593528018333,107.33165505720535 33.85714285715949,100.89367187896278 41.73338595102541,105.8890421752003 45.094711917918175,107.50390687418985 51.8173638517037,96.52265406027436" stroke="#4dd2ff" stroke-linecap="round" stroke-linejoin="round" stroke-width="0.5"><title>2021-11-30 3.0km</title></polyline><polyline fill="none" points="67.5461441213265,91.36534684707294 71.98356510757003,93.5825678697438 74.64601769915316,95.50414773801458 66.86346396978479,108.56074928652379 65.99873577756807,108.38830686936853 56.714285714318976,102.67302304468467 62.949431099928916,106.78705168122542 66.79519595450256,108.63465315289795 74.71428571431898,95.47951216730871 69.41213653597515,92.05515049101086" stroke="#4dd2ff" stroke-linecap="round" stroke-linejoin="round" stroke-width="0.5"><title>2021-11-24 3.1km</title></polyline><polyline fill="none" points="91.84920634923037,92.97324007825227 94.7566137566464,94.39666755295184 97.57142857147846,96.30124216723198 91.21957671956625,106.96661798936839 90.51587301597465,106.90647604393598 80.66402116406243,100.85212005116045 79.57142857147846,100.35092571035784 79.84920634911396,100.69173796079122 88.23809523810633,105.58334994109464 91.18253968260251,107.02675992176228 97.16402116406243,97.24350055465766" stroke="#4dd2ff" stroke-linecap="round" stroke-linejoin="round" stroke-width="0.5"><title>2021-11-23 3.2km</title></polyline><polyline fill="none" points="115.46560846548527,93.07347916428989 120.42857142852154,96.26114346968825 114.05820105818566,106.84633156059135 113.22486772481352,106.74609493411845 105.70634920627344,102.01488490431802 102.42857142852154,100.31082759906712 105.53968253964558,101.95474188381922 110.92857142852154,105.48311033273058 114.00264550256543,106.92652083571011 119.83597883593757,97.54421811699285" stroke="#4dd2ff" stroke-linecap="round" stroke-linejoin="round" stroke-width="0.5"><title>2021-11-20 3.1km</title></polyline><polyline fill="none" points="138.16678977687843,92.97721228425507 143.28571428568102,96.24181382919778 136.90101935283747,106.92203288283781 136.1378342442913,106.82127801355091 125.28571428568102,100.1915274838102 133.77382183482405,105.51146139457705 136.8637908110395,107.02278771574493 142.3363864676794,98.03531319933245" stroke="#4dd2ff" stroke-linecap="round" stroke-linejoin="round" stroke-width="0.5"><title>2021-11-19 3.1km</title></polyline><polyline fill="none" points="161.02437373046996,93.47987906483468 166.1428571428405,96.61994156014407 160.2907244413509,106.42777029021818 159.65944482054329,106.35388975020032 157.33906567364465,105.07944706821581 153.22721733246,102.40124967845622 150.2243737304816,100.92361150123179 148.1428571428405,99.3720822067553 157.37318889633752,105.11638752536965 160.20541638456052,106.52012093515077 164.07840216654586,100.20325978760957" stroke="#4dd2ff" stroke-linecap="round" stroke-linejoin="round" stroke-width="0.5"><title>2021-11-18 3.2km</title></polyline><polyline fill="none" points="184.36936936934944,93.3192047351331 189.0,96.26466336658632 182.74774774780963,106.64178428601008 182.15315315313637,106.56376231121249 179.6126126126619,105.1203517037502 171.0,99.81477601559891 181.01801801787224,105.9200801574334 182.7117117117159,106.68079526488145 187.4144144144375,98.956511310098" stroke="#4dd2ff" stroke-linecap="round" stroke-linejoin="round" stroke-width="0.5"><title>2021-11-16 3.1km</title></polyline><polyline fill="none" points="24.475849731708877,113.97801848976815 29.0,116.73197343204811 23.525939177081455,125.8999762217718 22.41502683365252,125.60367740680522 11.0,118.75384435118758 23.30053667264292,126.0219815102173 25.602862254017964,122.3443663825019" stroke="#4dd2ff" stroke-linecap="round" stroke-linejoin="round" stroke-width="0.5"><title>2021-11-15 3.1km</title></polyline><polyline fill="none" points="39.50677784776781,111.0 41.50203244393924,111.99003385772812 43.69681249966379,113.48407748955651 38.67542176600546,121.74615671066567 38.07684538717149,123.11414334275469 39.22411677998025,124.10412897594506 47.78708442184143,129.0 37.92720129241934,123.11414334275469 43.69681249966379,113.80808576740674 43.71343962132232,113.39407511519676 43.098236120829824,113.01606478729809" stroke="#4dd2ff" stroke-linecap="round" stroke-linejoin="round" stroke-width="0.5"><title>2021-11-13 3.2km</title></polyline><polyline fill="none" points="57.13034410844557,111.80951313683181 60.89676746609621,113.58751663862495 64.05005213757977,115.81593406299362 56.714285714318976,128.1904868631682 64.33472367050126,115.83964054987882 74.71428571431898,121.78991447563749 58.70698644418735,112.18882136058528" stroke="#4dd2ff" stroke-linecap="round" stroke-linejoin="round" stroke-width="0.5"><title>2021-11-10 3.2km</title></polyline><polyline fill="none" points="92.88235294120386,113.66825892293127 97.57142857142026,116.68863012947259 91.77310924377525,126.2407700606127 90.64705882355338,125.96785681365873 84.71428571431898,122.29259622948302 80.94957983196946,120.4185565347434 79.57142857142026,119.32687648647698 91.53781512606656,126.33174107705418 91.95798319333699,126.0588279289077 94.61344537814148,121.71037180085841" stroke="#4dd2ff" stroke-linecap="round" stroke-linejoin="round" stroke-width="0.5"><title>2021-11-09 3.1km</title></polyline><polyline fill="none" points="116.00804998195963,114.24747547910374 120.42857142857974,116.90253868434229 115.31166646641213,125.65419324510731 113.97945452359272,125.26086771498376 112.72293644113233,124.2775509008643 102.42857142857974,118.2300586111669 115.23597260605311,125.75252452091081 116.05346629820997,124.22838494811731" stroke="#4dd2ff" stroke-linecap="round" stroke-linejoin="round" stroke-width="0.5"><title>2021-11-04 3.2km</title></polyline><polyline fill="none" points="125.67454587318935,111.0 142.89688269828912,121.12213679763954 134.31879175722133,116.01336129996344 133.03979619278107,115.75075855190516 131.9372138096951,117.06377020137734 126.53456013207324,125.72951599615044 125.6965975209605,127.51993096375372 126.42430189379957,128.1406058841967 128.1222787637962,129.0 126.51250848453492,128.16447797324508 125.71864916849881,127.32895383026334 132.99569289758801,115.4165365700901 131.89311051438563,114.72421853037667" stroke="#4dd2ff" stroke-linecap="round" stroke-linejoin="round" stroke-width="0.5"><title>2021-11-01 3.1km</title></polyline><polyline fill="none" points="154.0382816931815,111.0 156.30481223616516,112.42276319281518 154.2954091077554,115.87651326754712 154.2096999695641,116.05177596408612 154.33350205805618,116.39199117117823 153.58116628951393,117.84562881245802 155.4191511416575,119.04151816225203 155.6762785562314,119.67038698249235 158.0285182374646,120.89718865861505 157.58092607138678,121.88686970748677 159.89507280226098,123.38168742557173 160.20933964225696,123.82497518236778 160.7045479962253,124.15486285053339 160.1522002168349,124.48474975501449 159.73317776346812,125.04143217454111 160.19981640472542,125.86614287277189 160.31409525562776,126.82486306029023 160.0474446035223,127.0310386020501 159.33320178533904,127.17536130381632 159.12369055865565,127.87635520474578 158.43801745318342,128.38148102531704 158.2856456519221,128.74228408678027 158.86656314408174,129.0 159.48557358648395,128.41240703780204 160.00935165322153,127.63925471237599 159.86650308954995,126.9588771963754" stroke="#4dd2ff" stroke-linecap="round" stroke-linejoin="round" stroke-width="0.5"><title>2021-10-30 3.1km</title></polyline><polyline fill="none" points="176.60837013140554,111.0 179.41137002280448,112.84499782846251 178.61531805363484,114.16804298339412 178.87319404364098,114.47149223538872 178.76107404805953,114.7263891826442 176.08140615181765,119.22950470328215 177.18018210923765,119.84852191233949 177.15775811014464,120.43112425738946 181.40710594551638,122.89502429892309 180.93620196374832,123.6960874521319 181.03710995981237,124.02379400313657 183.91859384824056,126.06284260284156 183.13375387864653,127.38578349744785 183.32435787125723,127.62852381329867 183.2907218725304,127.89553775510285 182.04618992074393,129.0 182.05740192031953,128.76939859335835 181.6313459368539,128.42956436377426 181.4519539437606,127.67707183434686 181.0707459585392,127.22800210383139 181.0931699576322,126.97312415445049 181.6537699359469,126.6454233648692 181.8107379298308,125.89292283281975 182.09103791898815,125.67445430420048 183.60465786035638,126.26917352079181 183.91859384824056,126.09925395975006 182.27042991208145,124.81271455570823" stroke="#4dd2ff" stroke-linecap="round" stroke-linejoin="round" stroke-width="0.5"><title>2021-10-26 3.2km</title></polyline><polyline fill="none" points="26.599204810219817,149.0 25.46411743207136,147.52853641567344 24.98110152647132,144.3490819229628 23.640732388419565,142.45714779572154 22.590172793716192,139.5009599073528 21.732819561322685,138.85716127764317 19.95773610827746,138.41044247367245 18.68981935607735,137.4907237096195 17.68756135198055,136.33449899838888 16.69737874547718,134.2059745015722 15.248331028735265,132.91833604159183 13.726830926083494,131.06569678653614 13.497398370935116,131.0 13.400795189780183,131.15767224632145 16.528323178528808,134.32422653966933 17.603033568477258,136.76808415753476 19.426418612070847,138.39730366809817 21.901875128271058,139.36957262360374 22.517720407922752,140.01336937422457 23.012811711174436,141.10387685113528" stroke="#4dd2ff" stroke-linecap="round" stroke-linejoin="round" stroke-width="0.5"><title>2021-10-18 3.2km</title></polyline><polyline fill="none" points="49.32026151026366,149.0 48.333839585480746,147.8708712097723 48.26191298675258,146.3504466855229 47.98448182042921,145.16539919517527 46.98778466723161,143.8461843293917 46.02191319921985,141.1853595814464 45.22044538531918,140.5145559465891 43.60723452916136,140.13443254971935 41.92209707427537,138.8598941013188 41.13090448878938,136.86980354877596 38.952556071511935,134.67843721044483 37.14411587611539,131.70438860729337 36.39402420405531,131.0 36.40429943247,131.3242427874793 37.411271814024076,132.5094000902027 38.27439099823823,134.1305906020134 40.658243983169086,136.64619621171732 42.20980346907163,139.28474145910877" stroke="#4dd2ff" stroke-linecap="round" stroke-linejoin="round" stroke-width="0.5"><title>2021-10-17 3.3km</title></polyline><polyline fill="none" points="71.95726738445228,149.0 72.03864703373984,148.22843004358583 70.99233725667,146.88766075992316 70.80632662959397,144.8132420477632 70.51568502490409,143.66218165947066 69.41124692681478,142.2707795178285 68.29518316447502,139.29820020718034 67.40000702184625,138.53923540966935 65.63290606497321,138.17240120249335 63.77279979450395,136.6038597496663 63.38915287621785,136.08522590558277 62.74974134581862,134.26367003652558 60.30835186585318,131.92344791629876 59.69219166372204,131.0 59.3899243947817,131.18974998379417 62.633484703837894,134.52931482362328 63.33102455525659,136.35086782946019 64.40058566082735,137.43873039956088 65.62128040078096,138.33684422141232 67.12099108134862,138.72897692857077 68.0626698807464,139.4120446328743" stroke="#4dd2ff" stroke-linecap="round" stroke-linejoin="round" stroke-width="0.5"><title>2021-10-14 3.2km</title></polyline><polyline fill="none" points="95.07277209329186,149.0 94.1968795125722,147.92622516059782 94.09818739077309,145.84576811964507 93.72809193417197,144.51694744713313 92.66715162509354,143.1075814316282 91.27312540501589,139.68478928986588 90.40956933947746,139.02706880836922 88.46039993443992,138.53042113222182 86.69627825781936,137.04046985175228 86.06711598148104,136.08743146050256 85.91907779884059,135.18808072819957 85.47496325086104,134.463227601751 83.2297174804844,132.30207403781242 82.26746929320507,131.0 82.07008504960686,131.30874006000522 85.43795370514272,134.63772954809247 86.28917325544171,136.50354743732896 87.15272932098014,137.72504359880986 88.42339038877981,138.74518786367844 90.18751206551678,139.2552578201139 91.16209676803555,139.9666687578574 92.4574308663141,143.05389107875817 93.11126617301488,143.9800474135991" stroke="#4dd2ff" stroke-linecap="round" stroke-linejoin="round" stroke-width="0.5"><title>2021-10-11 3.4km</title></polyline><polyline fill="none" points="118.0082840443938,149.0 116.86820480780443,147.73319793309201 116.72266277758172,145.71421333242324 116.38306470710086,144.26264149426424 115.29149948048871,142.95621662442863 114.03013521863613,139.59113829751732 113.07198351970874,138.9313114873803 111.51953519746894,138.60139715642435 110.08837190037593,137.5192738178157 109.10596319648903,136.4767340761755 108.29335352778435,134.48401437942812 105.55231195880333,131.87101004994474 105.05504335556179,131.0 104.84885881276568,131.277140028149 107.35945883387467,133.63941115544003 108.71785111591453,135.59254997050448 109.17873421160039,136.75386549510586 109.99134388024686,137.75681365620403 111.17993712698808,138.68057665214292 112.98708400217583,139.15565287988284 113.90885019348934,139.85506833024556 114.97615841502557,142.69229123323748" stroke="#4dd2ff" stroke-linecap="round" stroke-linejoin="round" stroke-width="0.5"><title>2021-10-07 3.4km</title></polyline><polyline fill="none" points="140.84914462076267,149.0 140.3470911809709,148.65360710654932 139.90626377036097,147.97414216616016 139.40421033056919,144.68336351405014 138.1184637164697,142.88473409236758 136.90618833742337,139.68712581050931 136.00004310451914,138.9809795730107 134.43265675590374,138.661214317719 132.33872655569576,137.04905574097938 131.83667311590398,136.38287024780584 131.15094158839202,134.51753760309657 128.39577027235646,131.8527427721565 127.89371683256468,131.0 127.72228395071579,131.42637189679954 130.51419088430703,134.1577926302998 131.3468648820417,135.42355875764042 131.73871146916645,136.59604987685452 132.97547725989716,137.96838762743573 134.0163197570364,138.74115568534762 135.7306485758745,139.19415609081625 136.3918896917021,139.64715534354036" stroke="#4dd2ff" stroke-linecap="round" stroke-linejoin="round" stroke-width="0.5"><title>2021-10-06 3.0km</title></polyline><polyline fill="none" points="163.700165365648,149.0 162.72054882440716,147.7742990432307 162.5736063431832,145.77585547827766 162.2797213808517,144.53680920397164 161.985836418462,143.92394441881333 161.09193632460665,142.92470383238106 159.7939444075455,139.67380232243158 159.10821282863617,138.9676560320804 156.98979205824435,138.46136074134847 155.39791517879348,137.15564518843894 154.79790004726965,136.4494889092166 154.01420681428863,134.4642420974269 151.5039394273772,131.9993075246748 150.87943388236454,131.0 150.58554892003303,131.31977901833307 153.76930267899297,134.4642420974269 154.79790004726965,136.64934474418988 155.48363162606256,137.5020604522142 157.18571536650416,138.80777346425748 159.0469867947977,139.3940088442905 159.86741564812837,140.22006451236666 160.24701705784537,141.1527034019091" stroke="#4dd2ff" stroke-linecap="round" stroke-linejoin="round" stroke-width="0.5"><title>2021-10-05 3.2km</title></polyline><polyline fill="none" points="186.6223614354967,149.0 186.12999255553586,148.65180288357078 185.5760775655508,147.70095346200105 185.48991301155183,145.94655606223387 185.1821824616054,144.5135622224625 183.88971415167907,142.73234828021668 182.73264728375943,139.66540454348433 181.72329107986297,138.90200863253267 180.27080288395518,138.63414964645926 178.46134725009324,137.28145564251463 177.77203081810148,136.585015138553 177.5012279341463,135.567135680496 176.88576683419524,134.41531773236056 174.26390254835133,131.91075776916114 173.6976783364662,131.0 173.3776385645033,131.2009028475877 176.67651006020606,134.49567736465542 177.7597215961432,136.5984082507057 178.92909768607933,137.97789343629847 180.14771066396497,138.8350439236092 181.80945563380374,139.2770105395757 182.1664230718161,139.5314756718144 182.9542132797651,140.602903838997 183.52043749170844,142.3573536126787" stroke="#4dd2ff" stroke-linecap="round" stroke-linejoin="round" stroke-width="0.5"><title>2021-10-04 3.3km</title></polyline><polyline fill="none" points="26.611232349823695,169.0 25.50429188279668,167.55742046635714 25.07854554936057,164.52664165597525 24.72578430158319,163.79871761365212 23.7891423679539,162.67373820110515 22.572724272264168,159.55022843445477 21.69690324336989,158.8487546723336 19.98175372852711,158.47816363698803 18.205783308891114,157.0619693117187 17.731380251585506,156.47960573757882 16.83123086078558,154.4280824136804 14.288917040859815,151.8868076151266 13.705036354949698,151.0 13.388767650118098,151.19853940473695 16.624439784500282,154.40161098945828 17.60973844199907,156.55901906518557 18.668022185214795,157.76345016142295 19.945261185639538,158.68993003798823 21.84287341486197,159.31199237442343 22.62138099607546,160.0399348833016" stroke="#4dd2ff" stroke-linecap="round" stroke-linejoin="round" stroke-width="0.5"><title>2021-10-02 3.1km</title></polyline><polyline fill="none" points="49.35026207350893,169.0 48.277118879021145,167.5306815165095 47.83098069700645,164.2640275581798 47.4813048246433,163.62118487338012 46.48050836235052,162.62411808696925 46.299641531775706,161.53520972379192 45.50382747739786,159.5804054519249 44.61155111336848,158.85882789712923 42.86317175149452,158.41276028673747 41.34389037499204,157.24510734382784 40.572191898012534,156.14304574593552 39.740204477566294,154.37186080410902 38.196807523607276,152.94177990255412 36.66546835831832,151.0 36.364023640810046,151.22304337976675 39.728146688838024,154.71297929555294 40.48778737708926,156.52352017596422 40.994214502570685,157.19262837724818 42.67024713224964,158.58331568354333 44.51508880377514,159.1212200789014 45.34707622427959,159.82967700788868 45.5641164209228,160.27574101283972" stroke="#4dd2ff" stroke-linecap="round" stroke-linejoin="round" stroke-width="0.5"><title>2021-09-30 3.1km</title></polyline><polyline fill="none" points="72.28312583907973,169.0 71.18023939750856,167.4704011540889 70.67121488589328,164.3716041821317 69.35017508227611,162.3804335432651 68.35636532172794,159.58484474285797 67.42315371724544,158.79363231257594 65.72640534554375,158.39802476510522 63.71454656193964,156.7364633657853 62.51470307051204,154.13859390228754 60.49072465568315,152.37149328981468 59.44843637017766,151.06593742173573 59.19392411445733,151.0 59.14544558955822,151.22418713320803 62.56318159541115,154.57377267633274 63.023727582069114,156.090296367649 64.5023225916666,157.7914248004381 65.61732866452076,158.5826417311182 67.81098191649653,159.43978939662338 68.30788679682883,159.9804496257275 68.85327020200202,161.3650597212254" stroke="#4dd2ff" stroke-linecap="round" stroke-linejoin="round" stroke-width="0.5"><title>2021-09-29 3.2km</title></polyline><polyline fill="none" points="94.9674048324814,169.0 94.47973508824361,168.03405885632674 94.37970026896801,166.1293711442704 94.10460451582912,164.91852358244068 92.89168233133387,163.2995125579764 91.65375144209247,160.03423637981177 90.69091630604817,159.13627514915424 88.80275909113698,158.70089841041772 86.752045294852,157.1634659593401 85.6766709870426,154.59197908019996 82.87569604575401,151.80275906006864 82.38802630145801,151.0 82.1754523103591,151.38097084345645 85.43908829113934,154.67361414340849 86.0518015595153,156.33351914345985 86.752045294852,157.36755066149635 88.64020250976318,158.93219243269414 90.7284293632838,159.5988617915864 91.4786905082874,160.27913412747148 91.95385590015212,161.28593251305574" stroke="#4dd2ff" stroke-linecap="round" stroke-linejoin="round" stroke-width="0.5"><title>2021-09-26 3.1km</title></polyline><polyline fill="none" points="117.85147258051438,169.0 117.77990822226275,168.55878224983462 116.77800720691448,167.32596199892578 116.62295109743718,165.02899984335818 116.24127452017274,163.84806395693158 115.25130089785671,162.69307492714142 114.0824163799407,159.72121386119397 113.40255497669568,158.92957415725687 111.60151862766361,158.48833078650932 110.03903013945092,157.4111731357989 109.16833044757368,156.50272172290715 108.20221161132213,154.32241891199374 105.6497495007934,151.80465417308733 105.19650856521912,151.0 105.0056702766451,151.37637096521212 108.04715550178662,154.42624347709352 108.69123472593492,155.4125737446011 109.2041126266704,156.68441238623927 109.99132056726376,157.5409515205247 111.27947901556036,158.57917510168045 113.10437015071511,159.0853068435972 114.14205334510189,160.13649881807214" stroke="#4dd2ff" stroke-linecap="round" stroke-linejoin="round" stroke-width="0.5"><title>2021-09-25 3.2km</title></polyline><polyline fill="none" points="140.0479446889367,169.0 140.19325796776684,167.50413000419212 139.35491212829947,166.20283352748083 138.93015023629414,163.2475140489114 137.812355783768,161.80023923018598 136.66102749755373,158.91781317185087 135.8897493252298,158.26105071605707 134.336015036155,157.92050617554924 132.69285719079198,156.63129537875648 132.08924818632659,155.8650614743092 131.40739357029088,154.16230652821832 128.9594237190904,151.8513962739089 128.50112799351336,151.0 128.37817060371162,151.3040706100146 131.09441112354398,154.0163552739832 132.31280707684346,156.50967119070992 134.17952381278155,158.0299669985252 135.6326566011412,158.43132271873765" stroke="#4dd2ff" stroke-linecap="round" stroke-linejoin="round" stroke-width="0.5"><title>2021-09-24 3.1km</title></polyline><polyline fill="none" points="163.77242140419548,169.0 163.18421607237542,168.62668513266544 162.68179068469908,167.88005305184925 162.35092518554302,165.1868184805644 161.8362455201568,163.933517226993 160.94168324454222,163.00020205615147 159.8142896917998,159.76022716177977 158.83394747198327,158.92022405259195 157.0938400318846,158.5868883877556 155.19442698103376,157.12020405297517 153.90772781753913,154.48014181983308 151.23629526857985,151.86670834409597 150.6971070477157,151.0 150.51329288148554,151.3866857822577 153.42981098539894,154.20013292432122 153.88321926206117,154.9201549091522 154.2385933166952,156.04018332308624 155.586563868972,157.72021274035797 156.91002586571267,158.70688929894823 158.52759052830515,159.17355874071654 159.40989852615166,159.840227251334" stroke="#4dd2ff" stroke-linecap="round" stroke-linejoin="round" stroke-width="0.5"><title>2021-09-23 3.1km</title></polyline><polyline fill="none" points="186.51963873120258,169.0 185.591750072781,167.5520970240177 185.24989635654492,164.656255647511 183.9679449206451,162.8230839385651 182.8569203428342,159.74118738571997 181.91682262317045,158.94413646505564 179.82907314185286,158.3994829440926 178.11980456061428,156.92492478038184 177.66806929273298,156.32712744029413 177.0698252893053,154.573576960247 175.78787385340547,153.40453368121234 173.78558780113235,151.0 173.48036126879742,151.19927198522782 176.47158128593583,154.1351866330515 177.15528871840797,155.30422509914206 177.61923304758966,156.56624661796377 178.2418951735599,157.2968865536095 179.865700325754,158.5854623830819 181.70926858118037,159.14339953075978 182.57611193310004,159.9005971403676" stroke="#4dd2ff" stroke-linecap="round" stroke-linejoin="round" stroke-width="0.5"><title>2021-09-22 3.1km</title></polyline><polyline fill="none" points="25.054455073201098,184.72851386021648 24.20582885236945,183.6834504496146 23.89808527781861,181.31934525166434 23.60899282898754,180.74099564522476 22.946877865528222,180.0104452480009 21.958368201740086,177.56510208585678 21.380183304136153,177.0070300378793 19.81348874262767,176.57071756396908 18.591840007225983,175.62706020144105 18.15353855252033,175.00809857932472 17.64063259487739,173.63825543309213 15.197335124074016,171.05073616567097 14.992172741040122,171.0 14.945544926740695,171.1319139912157 17.342214583186433,173.52663797423884 18.050957361003384,175.04868631324644 18.666444510163274,175.82999782303523 19.645628611033317,176.6417452716778 21.277602112561,177.1998188232683 21.96769376459997,177.83906388696778 22.032972704677377,177.99126464840083 22.79766885965364,179.98000556269835 23.842131900659297,181.63388523011963 23.89808527781861,183.1355499096826 24.140549912350252,183.94725362380996 24.97052500740392,185.06333829808136 24.746711498650257,186.43306602715165 25.017152821761556,187.4172322254235 24.522897989838384,187.65059017350723 24.448293486901093,187.90423966167145 24.08459653519094,187.90423966167145 23.31990038015647,188.41153721504088 22.517901973740663,188.71591483634256 22.210158399131615,189.0 22.25678621348925,188.8579574925534 21.89308926166268,188.48255872111622" stroke="#4dd2ff" stroke-linecap="round" stroke-linejoin="round" stroke-width="0.5"><title>2021-09-20 4.7km</title></polyline><polyline fill="none" points="49.257808489201125,189.0 48.64235987071879,188.1295059445547 48.24847275490174,185.04926221705682 47.817658721935004,184.20553403439408 46.93141271133209,183.32162405311828 45.67589752969798,179.91986915307643 44.70348871254828,179.2100460002548 42.74636210576864,178.6475426341931 40.94925213983515,177.16091808355122 40.5061291345628,176.5582289364247 40.22302277002018,175.35284455226792 39.79220873716986,174.56264371615543 37.145779677666724,172.05808580275334 36.59187592106173,171.0 36.45647722505964,171.5625274083868 39.656810041109566,174.89747500493831 40.395348383288365,176.50465646955126 41.23235850437777,177.69664006572566 42.586345464980695,178.76807921860018 44.61732590588508,179.45111833016563 45.51588088891003,180.24129757919582" stroke="#4dd2ff" stroke-linecap="round" stroke-linejoin="round" stroke-width="0.5"><title>2021-09-19 3.1km</title></polyline><polyline fill="none" points="72.34738101792755,189.0 71.19432693952695,187.52097898875945 70.6845556627377,184.2987831589271 69.47081452759448,182.6216333622142 68.40272232866846,179.67667822416115 67.45600424322765,178.8446864787693 65.56256807246245,178.382467147414 63.82691824919311,176.9429763298249 63.31714697246207,176.25624262783094 62.49180300056469,174.28847164106264 60.97462658159202,172.88856751157437 59.43317533994559,171.06603417017322 59.19042711291695,171.0 59.081190410710406,171.19810243634856 62.50394041190157,174.63184265563905 63.195772858918644,176.2826555119682 64.34882693731925,177.68253271207504 65.28340761136496,178.39567343080125 67.39531718648504,179.17484240274644 68.0385999881546,179.66347203662735 68.96104325086344,181.71041931008222" stroke="#4dd2ff" stroke-linecap="round" stroke-linejoin="round" stroke-width="0.5"><title>2021-09-18 3.3km</title></polyline><polyline fill="none" points="91.94297484430717,188.4052906670986 93.52233705180697,187.11876933956228 93.10789448668947,186.7910689239361 93.56714165344601,186.3055856423598 93.51113590138266,186.14780327133485 89.83715856750496,180.38257572629664 84.3149914162932,172.6507890164794 83.83334194874624,171.63118596738786 83.34049133077497,171.0 83.87814655032707,171.67973863508087 84.61742247728398,173.1363120845199 84.91985353839118,173.34265895995486 89.61313555936795,180.24906283061136 89.65794016094878,180.43112584363553 93.60074510471895,186.17207749198133 93.80236581200734,186.7061094517412 93.71275660872925,187.05808412602346 91.96537714509759,188.07759278097365 91.69654953526333,188.5873447698832 91.8757679418195,188.98786309604475 92.12219325080514,189.0" stroke="#4dd2ff" stroke-linecap="round" stroke-linejoin="round" stroke-width="0.5"><title>2021-09-16 4.0km</title></polyline><polyline fill="none" points="117.88726012426196,188.66101629514014 117.47350037965225,188.25642183916352 117.13038254273124,187.07543719152454 115.00103361334186,183.99171126025612 114.07259711343795,182.3185994085943 113.34599463513587,181.50937522113963 112.67994236340746,180.31740191869903 110.66160214599222,177.53973932897497 110.35885111341486,176.77423272951273 109.54142332531046,175.58222182253667 108.20931878185365,173.93088831774367 107.40198269486427,173.37314905549283 104.96988273295574,171.0 109.34968100470724,175.34163131688547 110.87352786882548,177.81313359689375 110.90380297211232,177.95529841935786 112.73040086880792,180.42675766188768 113.17443571664626,181.52031071222154 114.82947469485225,183.5105568209401 115.38451825466473,184.63689320185222 116.86799831443932,186.7692544702295 117.5138671840541,188.07052672356076 117.48359208076727,188.1908118246356 117.32212486333447,188.11426677147392 117.40285847207997,188.52979659102857 117.72579290682916,188.85784563630295 117.55423398833955,189.0 117.46340867859544,188.87971554716933" stroke="#4dd2ff" stroke-linecap="round" stroke-linejoin="round" stroke-width="0.5"><title>2021-09-14 4.6km</title></polyline><polyline fill="none" points="127.75470115267672,172.4060635551432 129.72256100492086,171.0 129.99349823099328,171.03090259582677 132.51749238942284,175.40357453619072 134.35701355576748,177.5357988436008 135.9255974959815,180.23967567135696 134.92740771581884,181.1358101052465 133.54420187755022,181.93923776016163 133.52994202356786,182.38730186205066 137.19472450221656,187.4858957132965 138.4210719463881,188.28929933275504 140.38893179874867,189.0 140.81672741874354,188.36654952053505 140.6028296087752,188.93820003644214 140.20355369668687,188.98455001082039 137.38010260422016,187.68674690321495 136.3819128240575,186.58978808901156 133.47290260758018,181.93923776016163 132.87398873950588,181.42937056251685 132.08969676936977,179.9924655065115 131.59060187923023,179.57529770028486 130.4498135590693,177.2885855290806 129.80812012893148,176.94866675141384" stroke="#4dd2ff" stroke-linecap="round" stroke-linejoin="round" stroke-width="0.5"><title>2021-09-13 3.3km</title></polyline><polyline fill="none" points="164.51266846363433,181.63853406824637 165.03342318057548,182.15594333145418 164.71644204854965,182.96901338649332 165.07870619941968,184.1023804130091 164.51266846363433,184.964722273784 163.99191374669317,184.59514746742207 163.5843665767461,184.76761576210265 166.1428571428405,185.35893494298216 164.60323450132273,184.9154456569231 165.01078167115338,184.1516571516404 164.67115902958903,182.72262873357977 164.92021563346498,182.4023284088762 164.17304582206998,180.7761834875564 162.72398921835702,179.815275891684 162.36172506737057,177.74561922758585 162.6107816711301,176.4151187807729 162.33908355794847,180.65299036289798 162.36172506737057,179.49497273587622 162.70134770893492,179.00219804100925 162.83719676558394,179.86455327254953 163.69757412397303,180.30804936846835 164.28625336918049,181.39214841875946 163.60700808628462,182.08202777226688 162.38436657679267,182.3530514081358 163.5843665767461,182.08202777226688 164.3768194069853,181.4414255633892 163.72021563339513,180.25877205395955 163.15417789760977,180.0123853709374 163.83342318062205,179.6920824070985 163.4032345013693,179.56888887644163 163.44851752009708,179.24858548073098 162.7466307276627,178.80508795636706 161.7956873315852,178.9529205308936 161.59191374655347,178.6326165353821 161.63719676539768,174.71502704414888 163.4711590296356,173.4091535107873 164.94285714277066,174.44399711460574 163.67493261455093,173.43379268204444 161.8183288408909,174.641109812801 161.50134770886507,178.5833389699401 160.8221024258528,178.50942260792363 160.0070080861915,180.6283517324191 158.3541778975632,182.82118261686992 154.0522911051521,185.4082114934281 151.17681940703187,185.6545941348304 148.48247978428844,186.3937409518694 148.1428571428405,185.9748912928044 148.43719676544424,186.4676555422484 151.92398921831045,185.50676457214286 153.1466307278024,185.58067936176667 148.61832884093747,186.5908464892418" stroke="#4dd2ff" stroke-linecap="round" stroke-linejoin="round" stroke-width="0.5"><title>2021-09-11 3.6km</title></polyline><polyline fill="none" points="186.87811844219686,189.0 186.52235369518166,188.51615852530085 186.23576542676892,187.6990003358951 185.98870657465886,185.6883413241012 185.5538829950383,184.88191937745432 185.0301182285766,184.31204513934063 184.11105929879704,181.76371193280647 183.27105920168106,181.0862992989496 181.9171766922227,180.8282365030318 180.34588239295408,179.58092645485885 179.20941167330602,177.33359049999854 176.975999650429,175.15073770772142 175.59247007867089,172.70977436182147 174.47576406726148,171.62369363485777 173.70494044874795,171.3978738384758 173.12188155780314,171.0 174.74258762755198,171.75273335908423 174.83152881427668,172.21512475215422 175.67152891139267,173.20442226791783 176.5312937166891,174.86040503397817 179.09082342428155,177.4841308492105 179.84188233467285,179.09705326218682 180.47435299603967,179.86049689000356 181.82823550549801,180.892752245476 183.31058861798374,181.33360904337314 183.913412217109,181.93575272805174 184.0912945906748,182.34434879117907" stroke="#4dd2ff" stroke-linecap="round" stroke-linejoin="round" stroke-width="0.5"><title>2021-09-09 4.2km</title></polyline><polyline fill="none" points="25.61139246710809,205.55718423592043 25.6501719589578,205.35466238910885 25.254621142346878,205.07619425598386 24.936629309348064,204.60364069924253 24.579857984557748,202.44337065411673 24.33942513522925,202.01299941306206 23.819779944751645,201.48980079038301 23.40096143304254,200.12272196378035 23.05970190500375,199.41385975101002 22.493521324329777,198.9497213642171 21.252577585924882,198.62904281738156 20.28309029029333,197.84422042107326 19.778956896538148,197.26192930659454 19.391161978332093,196.12265538467182 17.576281760877464,194.35042862250702 16.389629311015597,192.33343188545405 15.544236389221624,191.55700511106988 14.830693739640992,191.34601865043078 14.349828041013097,191.0 14.380851634428836,191.13503179484542 15.179709166084649,191.64139958475425 15.412386117008282,191.97053742832213 15.815692831994966,192.09712865071924 16.37411751426407,192.54441649789078 17.382384301774437,194.27447542441223 19.25155580774299,196.1817291302723 20.003877949144226,197.70075767205708 20.82600317586912,198.48558106693235 21.461986841779435,198.85689345761057 21.56281352051883,198.89064906885324 22.377182848897064,199.06786586212547 23.06745780337951,199.67546418166603 23.843047639878932,201.6670134989472 24.58761388293351,202.74716112955502 24.812534935510485,204.62051764608623 25.56485707691172,205.62469143739872 25.440762703074142,206.5613496883234 24.688440561672905,206.90732058873982 24.789267240441404,207.18578420125414 24.789267240441404,208.16462053562282 23.30789065270801,208.8312369704654 23.51729990853346,209.0" stroke="#4dd2ff" stroke-linecap="round" stroke-linejoin="round" stroke-width="0.5"><title>2021-09-08 5.7km</title></polyline><polyline fill="none" points="48.46598883991828,205.56797890189046 48.45812229573494,205.37112668954796 48.0569285438105,205.0373330335933 47.75013332179515,204.54092015422793 47.490537364647025,202.5210110498956 47.27027412829921,202.11017771446495 46.72748258156935,201.54527946882445 45.90936198941199,199.37981034745462 45.32723772191093,198.90049148213438 44.07645720121218,198.5837975582981 42.94367484282702,197.6679480324383 42.63687962075346,197.2057408139881 42.24355241298326,196.11013105590973 40.37918144816649,194.25270615433692 39.096934750821674,192.1555772582724 38.42827849762398,191.41087325224362 37.3112292275182,191.0 37.24043033015914,191.06847897791886 38.223748349555535,191.62486915293994 39.10480129494681,192.45516945562122 39.93078843125841,193.91032039048878 42.1334207947948,196.1700474858808 42.74701123891282,197.61659176707326 43.942725950561,198.62659408571926 44.85524507256923,198.94328789105202 45.020442499866476,198.9946435606471 45.43736934007029,199.17438822256372 45.917228533595335,199.62802825603285 46.625217507535126,201.5196022095406 47.459071188030066,202.76922214168007 47.64786824779003,204.63506758996664 48.473855384101626,205.75627200545568 48.340124133450445,206.44953030664328 48.182793250336545,206.60358713642927 48.45812229573494,207.7162136366387 48.28505832434166,207.83603430668154 48.22999251526198,208.09279246282676 47.60066898286459,208.17837838683772 47.07361052441411,208.65765837819345 46.53868552183849,208.76036097227916 46.16895794653101,209.0 45.90149544525775,208.71756823594478" stroke="#4dd2ff" stroke-linecap="round" stroke-linejoin="round" stroke-width="0.5"><title>2021-09-07 5.7km</title></polyline><polyline fill="none" points="70.83021598251071,205.0206127310521 70.00491467432585,203.86758908521006 69.65791298798285,201.49008477656753 68.66380004858365,200.04111332450702 67.74471450090641,197.61252100890124 67.07884639996337,197.08189844249864 65.76586704608053,196.76556477618578 64.34972502867458,195.71451538857218 63.74012747145025,194.84713843229838 63.28996312158415,193.63280142250005 61.920713223924395,192.39804429624928 60.84219446894713,191.0 60.598355446069036,191.14286649824498 63.139908338256646,193.67361964892916 63.8620469829184,195.26552094719227 64.49977981194388,196.03085149348044 65.47513590345625,196.7961777437231 66.88189949688967,197.2451671443996 67.74471450090641,197.92885271023988 67.86663401231635,198.19416260355501 68.67317847255617,200.35743939180247 69.5828855963191,201.71457193399692 69.65791298798285,203.173729449838 69.89237358688843,204.08186855329404 70.56762011174578,204.82674218028114 70.74581016693264,205.24509407714504 70.48321429610951,206.50014206860214 70.68953962315572,207.52049777832144 70.48321429610951,207.6429399505505 70.49259272008203,208.0000623251617 69.85485989105655,207.97965535751428 69.66729141195538,208.2041318337142 68.07295933936257,209.0 67.67906553315697,208.64288024330017" stroke="#4dd2ff" stroke-linecap="round" stroke-linejoin="round" stroke-width="0.5"><title>2021-09-06 4.6km</title></polyline><polyline fill="none" points="89.64797395589994,191.12699579723994 89.59163139371958,191.0 89.55138670644374,191.22333725258432 89.66407183081901,191.39412398796048 89.93773570425401,191.52549806044044 89.91761336060881,191.58680585994443 89.5795579875412,191.62621798282998 89.4226037071785,191.84079463045782 89.48297073808499,191.99844227813446 89.45077498827595,192.0728868529368 88.79478658577136,192.38380140591835 88.59356314942124,192.37066420472183 88.55734293087153,192.60275432478375 88.2997769323556,192.7034723922552 88.17904287052806,192.83922255662765 87.94562368436891,192.96183533755539 88.09855349599093,193.0537947546036 88.21526308907778,193.26398716498443 88.32794821342395,193.48731577351282 88.33599715089076,193.69312765785435 88.47685355633439,193.72378042974378 88.79478658577136,193.54424253735488 88.80283552323817,193.72378042974378 88.69819933632971,193.79822280888766 88.62978336797096,194.1047492543803 88.30782586980786,194.25363294841736 88.21928755780391,194.37186384731103 88.32392374471237,194.5951882266745 88.21928755780391,194.96301475793734 88.4849024937721,195.06810762784517 88.09855349599093,195.637357392814 88.16696946434968,195.7161761545358 88.32392374471237,195.68114560688628 88.38026630687818,195.82126767168302 88.57746527450217,195.6855244264807 88.73441955485032,195.9394954028612 88.95174086613406,195.926359000081 88.95978980357177,196.00517737252085 88.89942277266528,196.13216230479156 88.57344080577604,196.27228328956335 88.40038865052338,196.4211614682281 88.28770352616266,196.4255402324634 88.27160565125814,196.51749420553824 88.35209502579528,196.68826548646393 88.48892696251278,196.78897652108935 88.68210146141064,196.5437667427359 88.84308021048491,196.55252425250728 88.91552064758434,196.7101592043873 88.89942277266528,197.05170014338364 89.24552708318515,197.2531207883767 89.08052386538475,197.2137124558576 88.93161852248886,197.3450734610342 89.18918452101934,197.30128649207109 89.2656494268158,197.437025989213 89.40650583227398,197.41951123307808 89.2656494268158,197.5027062780282 89.10064620902995,197.4326473006695 89.01613236575213,197.67347468395747 88.81893339811359,197.72601870861035 88.91954511631047,198.35654332484046 88.75856636722165,198.6148813100226 88.5251471810625,198.74623917025747 88.44465780652536,199.07901109676823 88.27965458869585,199.1490681033756 88.23940990144911,199.36799570856238 87.88525665347697,199.79271292746125 87.80879174765141,199.7489277896384 87.63573959236965,199.5256230772684 87.76854706037557,199.18847513274522 87.76452259164944,199.01333257692022 87.67598427966004,198.96078970798044 87.55122574912093,199.12279673571902 87.41036934366275,199.17971801739623 87.40634487495117,199.35486007533837 87.29768421931658,199.46432359543178 86.28754256883985,199.45994505856652 85.86094888376829,199.71389965579874 85.4866732921655,199.62195070473535 85.12447110672656,199.71389965579874 85.3417924179812,199.83211952350393 84.4322624856868,199.45118798383555 84.0901826438785,199.52124454498335 83.71590705226117,199.48183773965502 83.5146836159256,199.59567954932936 84.12640286241367,199.5869224949056 85.00776151363971,199.84963355767104 85.41825732380676,200.06418005094747 86.27144469390623,201.13690072248937 86.38010534955538,201.1106302469707 86.40827663063828,200.93987186873346 86.60547559826227,200.6290027731702 86.73425859752751,200.69905792472127 86.78255222225562,200.94425029491322 86.94353097134444,201.07122451158284 87.35805125023762,201.0931165900729 87.46268743713154,200.84354641000027 87.66793534220778,200.6640303594213 87.88123218473629,200.89608758895702 88.00196624654927,200.9705208450905 88.04221093381057,200.92673658823696 88.0663577461819,201.11500866036658 87.94159921564278,201.1325223107233 88.24745883888681,201.20695526623967 88.35611949452141,201.3864696519595 88.34002161961689,201.7892804165749 88.5130737748841,201.79803714154332 88.5130737748841,201.87246925093496 88.44868227523693,202.03884656503942 88.0663577461819,202.51170582371924 88.02611305890605,202.78316033935698 87.9094034658192,202.8488346298691 87.76452259164944,202.83132149294033 87.61964171747968,202.54235397722732 87.64781299857714,202.86196947913413 87.9094034658192,203.0327222514352 87.99794177782314,203.20785278267067 88.59356314942124,203.4180087287168 88.61368549305189,203.61502924311935 88.70624827376741,203.70259370340136 88.73039508613874,203.84707477658594 88.87125149159692,203.99155549329225 89.07247492793249,203.9871772949955 89.26967389555648,204.1404140406812 89.18918452101934,204.18419589436598 89.15698877121031,204.35056663985233 89.19723345845705,204.52569322971976 89.33808986391523,204.62639078174834 89.72846333043708,204.6526596798867 90.02627401622885,204.56509664026453 90.18725276531768,204.70957558543523 90.27176660858095,204.6789285662453 90.24761979622417,204.8671885736403 90.30798682713066,205.09922914540584 90.21944851514127,205.20430381888218 90.23554639004578,205.3050002040436 90.44079429512203,205.392562137371 90.58567516927724,205.55892945002415 90.65811560637667,205.37504976118362 90.69836029365251,205.3969402306102 90.67421348128119,205.8172356568357 90.56152835693501,205.9529554106557 90.40054960784619,205.9792237137699 90.3401825769397,206.22001594340327 90.58165070058021,206.4170270313225 90.75872732454445,207.09561570639562 90.8472656365484,207.21819862869233 91.94594559904363,207.70414983216324 92.41278397136193,207.50714307341696 93.249873466586,207.4458519466607 93.36255859093217,207.5027651379096 93.41487668440095,207.75230693908816 93.36658305967285,208.89055430353255 93.6201245894772,208.93871043516265 93.6281735269149,209.0" stroke="#4dd2ff" stroke-linecap="round" stroke-linejoin="round" stroke-width="0.5"><title>2021-09-04 11.1km</title></polyline><polyline fill="none" points="107.36701077944599,208.95906185578497 106.95140922465362,207.3624672552396 107.12772503576707,207.07589755379013 114.2937033593771,201.87662829433975 115.76719978096662,201.0987724554725 115.43975613173097,200.29362002802372 115.0619365365128,197.55061714052863 114.43223721097456,196.13133619879954 114.70930491422769,195.8720433266426 112.30385349097196,192.02354902858497 112.75723700533854,191.34118363099697 113.56325214187382,191.0 113.10986862756545,191.04094206854643 112.59351518069161,191.45036226167576 112.17791362589924,191.96895988826873 113.52547018235782,194.58922067901585 114.60855302214622,195.7219262366125 115.36419221269898,197.61885153026378 115.90573363256408,200.79854653115035 114.49520714359824,201.8902748591936 114.43223721097456,202.01309389801463 113.42471829027636,202.5180157674331 108.42490564624313,206.24347831662453 107.93374017230235,206.31170954073605 108.97904105257476,205.73856648588844 109.16795085021295,206.27077080924937 108.185619902506,207.37611342055607 107.37960476597073,207.4034057482495 107.39219875243725,208.45415734159178 107.78261233423837,208.8908315955341 108.13524395652348,209.0 108.50046956521692,208.71343280258588 108.42490564624313,208.4132190781238 108.62640943034785,208.03112818782392" stroke="#4dd2ff" stroke-linecap="round" stroke-linejoin="round" stroke-width="0.5"><title>2021-09-03 4.3km</title></polyline><polyline fill="none" points="139.20971878618002,209.0 138.7305582969566,207.477202568145 139.0457954608719,205.62513459584443 139.24754724575905,205.36447167595907 138.15052191534778,204.15718595169892 137.6083139933762,200.63131736495416 136.24648944527144,198.7791802443826 135.2125115476083,195.89804086572258 134.45594235422323,194.9650907907053 132.1105778546189,194.29281499917852 130.2191548711271,192.74245530563348 129.80304181471,192.05645125666342 129.5130236239056,191.0 129.323881325603,191.3567244818405 130.2948117904598,192.92081593784678 131.60619839234278,194.19677539911936 132.3753770723124,194.66325298517768 134.11548621713882,195.15716913546203 135.11163565516472,196.0489588141063 136.27170841838233,199.03985252602433 137.6587519396562,201.1800951409532 137.67136142624076,202.62062898838485" stroke="#4dd2ff" stroke-linecap="round" stroke-linejoin="round" stroke-width="0.5"><title>2021-08-30 3.1km</title></polyline><polyline fill="none" points="162.21614655887242,204.7872279405783 161.76393134630052,204.44897055174079 161.42476993694436,203.90570693714108 161.0290816258639,201.34311366993643 160.10580890026176,200.1028013132236 159.1825361745432,197.70414886217623 158.4853710551397,197.07885221839388 157.06277736561606,196.709823351448 155.45176067081047,195.4284653988434 155.05607235984644,194.23935449424607 154.64154174830765,193.5730378358203 152.7290482451208,191.66632917802053 152.24856958171586,191.0 152.0695677268086,191.15376855962677 154.26469573780196,193.23475275310193 154.71691095037386,193.8805690040972 155.29160111636156,195.19269422976504 155.8945547331241,195.96151176332933 156.9591447127168,196.79182985222724 158.63610945938854,197.40687704322772 159.16369387402665,197.96041715376487 159.53111873421585,198.88297903360944 159.62533023685683,199.016237458236 159.93622819549637,200.07204962451215 161.0290816258639,201.7838831252593 161.1138719782466,203.23943729890016 161.2834526829538,203.95695831355988 162.1501985070645,205.16648523194453 161.95235435158247,206.5400028528893 162.19730425835587,207.52400701145234 162.0559870044235,207.70850700447772 161.30229498347035,207.8622568089122 161.15155657933792,208.23125563567737 160.5862875636085,208.57975361524586 159.48401298292447,209.0" stroke="#4dd2ff" stroke-linecap="round" stroke-linejoin="round" stroke-width="0.5"><title>2021-08-29 4.5km</title></polyline><polyline fill="none" points="184.92776872747345,205.57401975661196 184.9091908999835,204.88679201886407 185.0392356920638,204.67455921683722 184.57479000615422,204.19956078498217 184.1939445437165,203.50221963565127 183.86883256357396,201.24846927295584 182.90278553689132,199.92449973162002 181.97389416507212,197.51908674402512 181.32367020484526,196.97331480887078 180.0510890254518,196.68021415558906 179.00144177529728,195.91208528738935 178.12828388577327,195.02266745505767 177.66383819986368,193.64810110023973 175.6760106642032,191.73783491537324 175.17440932343015,191.0 174.9607643079362,191.07075146803982 177.4501931843697,193.5773509827486 178.304773246462,195.34609279915458 178.8435302420403,195.98283418161736 179.8745996648213,196.76106957175944 181.06358062074287,197.09459765173233 181.53731522039743,197.36748364997766 181.67664892610628,197.50897987639473 182.23398374923272,198.22656559947063 182.74487400369253,199.88407297655067 183.76665451272856,201.3697482767384 184.0917664928129,203.76498628850823 184.98350220976863,205.07881188578176 184.85345741774654,205.92773855294217 183.87812147731893,206.43304951253958 184.07318866538117,207.1505878277021 184.02674409683095,207.9893953927749 183.30220882681897,208.46438049968128 182.3918952824315,208.71703147196968 182.02033873368055,208.60586510236317 182.09465004340746,208.44416840151098 182.02033873368055,208.61597113975586 181.94602742395364,208.53512281955045 182.3640285412548,208.81809172857902 182.43833985103993,208.65639528170868 182.3175839726464,209.0" stroke="#4dd2ff" stroke-linecap="round" stroke-linejoin="round" stroke-width="0.5"><title>2021-08-28 4.8km</title></polyline><polyline fill="none" points="26.65180304297246,229.0 26.122122430242598,228.63814142192132 25.654032586549874,227.90101983507338 25.185942742740735,224.818478515881 24.804079975467175,223.9875235175423 23.880218441714533,222.94212304390385 22.83317537017865,219.79248216658016 21.872359375003725,218.9883096615522 20.000000000058208,218.5192073659855 18.250822162779514,217.12529615146923 17.51173293578904,216.18708057091862 16.908143400447443,214.5384898573684 14.580012335325591,212.27332826826023 13.668468955380376,211.0 13.34819695702754,211.13403498100524 16.624825863400474,214.3642476755922 18.06604985607555,217.13869919558056 19.72900061670225,218.5192073659855 21.99554091290338,219.35018773569027 22.7592664474505,220.12755297789408 23.091856599668972,220.9451231265848 23.190401829895563,221.1863726212614 23.744718750123866,222.94212304390385 24.85335259063868,224.577233913471" stroke="#4dd2ff" stroke-linecap="round" stroke-linejoin="round" stroke-width="0.5"><title>2021-08-27 3.5km</title></polyline><polyline fill="none" points="47.86411049490562,224.69078746991 47.50913890864467,224.41637543907564 47.088777819648385,223.6236264584295 46.827219808707014,221.35715192845964 46.47224822244607,220.73716800338298 45.84637726773508,220.1781636775995 44.9682896596496,217.71851731120114 44.24900512956083,217.04769693473645 42.75438792427303,216.65130151843186 41.474621942208614,215.5942414182864 40.46575532859424,213.5817388670912 38.52275296172593,211.6505215061261 38.10239187272964,211.0 37.82215114671271,211.14230184579355 40.26958682038821,213.5410819425233 41.08228492579656,215.29948280791723 41.92300710378913,216.2040847879034 42.847801499592606,216.86474534792796 44.239663771993946,217.2611401412214 45.07104459247785,218.1860568262273 45.10841002257075,218.30802339152433 45.58481925679371,219.781777397955 46.64039265806787,221.45878836751945 46.81787845114013,222.13975054745242 46.827219808707014,223.15610566014948 47.09811917721527,224.111472532466 47.89213456748985,225.08715942474373 47.66794198669959,226.2254519425187 47.87345185241429,227.4348772926969 47.58386976888869,227.98368860629125 46.836561166273896,228.0853200877682 45.22050631296588,229.0 44.8842174418387,228.72559667288442 44.93092422944028,228.9898369236762" stroke="#4dd2ff" stroke-linecap="round" stroke-linejoin="round" stroke-width="0.5"><title>2021-08-26 4.6km</title></polyline><polyline fill="none" points="70.84832557506161,224.82985334705154 70.29405594692798,224.4107874541878 69.89949112694012,223.77707561352872 69.60826471209293,221.4875115637551 69.33582709828625,220.92533595147688 68.64064146298915,220.14850766168092 67.69180701475125,217.62378520747734 67.12814298609737,217.0922587440582 65.59685570828151,216.6833908261542 64.25345644005574,215.6816592540781 63.86828602052992,215.10923791399546 63.342199593782425,213.7395056819223 61.21906508592656,211.69510366002214 60.815105865418445,211.0 60.58024585345993,211.091999217002 63.08855078089982,213.6475082485922 63.971624425728805,215.42611430943361 64.80772606824758,216.36651734783663 65.64382771070814,216.90826833245956 67.05298778228462,217.3273572426333 67.64483501238283,217.87932604013622 67.96424462855794,218.48240050961613 68.03000543190865,218.5641731140422 68.44335905293701,219.9236354900786 69.53310950828018,221.63061044109054 69.65523671451956,223.35800649127486 69.9182799278642,224.16547999359318 70.66043756552972,225.06493852901622 70.45376075507374,226.6491976851903 70.6980151674943,227.5179771653202 70.51012715790421,227.93703352788725 69.73039191833232,228.14145079935406 68.89429027587175,228.67293427394907 67.97363902907819,229.0 67.63544061186258,228.79558401293616 67.66362381330691,228.68315508971864 67.86090622335905,228.70359671900223" stroke="#4dd2ff" stroke-linecap="round" stroke-linejoin="round" stroke-width="0.5"><title>2021-08-25 4.7km</title></polyline><polyline fill="none" points="94.30782429507235,226.96018236286181 93.37040029565105,225.5809722638951 93.18930702307262,224.9551081686077 93.10408665949944,223.19340306456434 92.69928993243957,222.24300120142289 91.91100156930042,221.31577425151772 90.88835720636416,218.63837527837313 90.02550102502573,217.91975815154728 88.29978866246529,217.44454176833096 86.87234757246915,216.2275175521645 86.51016102725407,215.77547755018168 85.70056757319253,213.95571342452604 83.41027030191617,211.61432939577207 83.06938884756528,211.0 82.83503284776816,211.25500495074084 85.58338957332307,213.95571342452604 86.46755084546749,215.98411156122165 87.40497484488878,216.95773322957393 88.41696666239295,217.73430802916118 89.89767047966598,218.12838927382836 90.68595884274691,218.7426903906162 90.78183175181039,218.88177709761658 91.72990829666378,221.32736462267349 92.94429847772699,223.18181283307786 93.01886629592627,225.11736947315512 93.2106121139368,225.7316428721242 94.25456156785367,227.06449187088583 93.95629029528936,228.69866499432828 94.05216320429463,229.0" stroke="#4dd2ff" stroke-linecap="round" stroke-linejoin="round" stroke-width="0.5"><title>2021-08-24 4.2km</title></polyline><polyline fill="none" points="116.27979100681841,224.64979653859336 115.59008831944084,223.75742985384568 115.4502837206237,222.18563333673956 115.14271360327257,220.97888686657825 114.285245397361,220.07635517213203 113.92175344045972,218.70733494831074 113.42777719139121,217.62224983431952 112.71943389077205,217.04421029172954 111.21886453038314,216.62842593807727 110.06314651371213,215.66501826430613 109.60645149095217,215.10725279591134 108.98199094965821,213.60634522367036 107.62122618802823,212.3690981007676 106.58667215693276,211.0 106.41890663839877,211.2738207270595 108.64645991259022,213.4542252849642 109.19635800115066,214.26552965099108 109.63441241072724,215.33035925879813 110.22159172559623,216.0300998730745 111.28410667652497,216.89209421277337 112.79399634356378,217.3484419373126 113.65146454941714,218.4233882812041 114.21068294462748,219.8532565233836 114.32252662366955,220.44142489605292 114.67669827397913,220.71522654360888 114.76058103324613,221.0701537819332 115.07747145718895,221.31353192243114 115.27319789549801,221.7191611852977 115.2918385086814,223.0780103702491 115.47824464045698,223.92981933034753 116.3729940726771,225.00471347339044 116.39163468586048,225.25822500067443 116.22386916732648,225.42047212931357 116.41027529904386,225.42047212931357 116.16794732777635,226.4345122833547 116.43823621876072,227.397843403327 115.99086150265066,227.98597903724294 113.98699558660155,228.85803752182983 113.70738638896728,228.929018779505 113.76330822845921,228.81747678646934 113.74466761533404,229.0 113.37185535189928,228.7769160389871" stroke="#4dd2ff" stroke-linecap="round" stroke-linejoin="round" stroke-width="0.5"><title>2021-08-23 4.5km</title></polyline><polyline fill="none" points="141.57370578416158,225.461680540815 143.28571428573923,224.06262513685942 142.32928495522356,222.91228038995905 141.29634127829922,221.03647306504718 138.49400333990343,216.9013187466262 137.0784879308194,217.22260070650373 136.72460907849018,217.08786965037143 135.37604372249916,217.5438819408373 134.93608623044565,217.56460973748472 134.1039927129168,216.5800360612484 131.87551237287698,214.538319459185 130.04873235162813,217.1293253735348 129.58964627294336,217.3780594588825 129.23576742067235,217.39878727967152 128.6619098224328,217.160417157982 126.81600121455267,217.53351804136037 126.28040078945924,216.25875265029754 125.63959313801024,216.1862046828901 125.28571428573923,215.81310026615392 133.32928495522356,216.3002086150591 134.8308790041483,217.67861256511242 135.00303628359688,217.57497363468428 135.20388644305058,217.77188753797236 137.5184454228147,216.84949900773063 138.93396083195694,216.59040003014525 139.5938970700372,217.56460973748472 139.9764688022551,217.80297918199358 140.27296189469052,218.3937191275545 140.3207833612105,218.58026807448186 139.84256869595265,218.90154624304705 139.86169728258392,219.08809452413698 141.94671322306385,221.98992518210434 142.93183543341001,223.68954137292894 142.97009260667255,223.87608337716665 142.53969940799288,224.12480566911108 142.0519204494194,223.88644681467122 141.94671322306385,224.1869861741725 141.63109154399717,224.11444224895968 141.73629877029452,224.58079540864128 141.2580841050949,224.88133330183337" stroke="#4dd2ff" stroke-linecap="round" stroke-linejoin="round" stroke-width="0.5"><title>2021-08-21 5.0km</title></polyline><polyline fill="none" points="161.9793815672747,225.8386990032377 162.19496308232192,224.95148200062977 161.26702525670407,223.65633876706124 161.01395130425226,221.35156525426282 160.91084710141877,221.0660153799181 160.0016554945032,220.04618951617158 159.14870254369453,217.6699656470155 158.38948068633908,217.06825431606558 157.03037983068498,216.73170275195298 155.66190586559242,215.67104996072885 155.35259325709194,215.23250841343543 154.72459493065253,213.67210495035397 152.61564532696502,211.65273276419612 152.25009406235768,211.0 152.0907512034173,211.26517306265305 154.5090134156053,213.67210495035397 155.3057277103071,215.29370034196472 156.01808402093593,216.16058304412581 156.98351428395836,216.89487937170634 158.53007732663536,217.37420956213464 158.6425546388491,217.47619449150807 159.14870254369453,218.00651489387383 159.82356641686056,219.8116284880889 160.4984302900266,220.9130419868452 160.51717650872888,221.22918680992734 160.8358622266096,221.4637453983305 161.03269752295455,222.0858336125675 161.13580172578804,223.77871503213828 162.09185887943022,225.24722164313425 161.8575311457389,226.3893825142368 162.1293513168348,227.60291795435478 161.8575311457389,228.021024301328 161.23890592862153,228.11280357171927 160.40469919657335,228.69407084932027 159.52362691768212,229.0 159.2236874185037,228.84703551047278" stroke="#4dd2ff" stroke-linecap="round" stroke-linejoin="round" stroke-width="0.5"><title>2021-08-19 4.7km</title></polyline><polyline fill="none" points="184.89917911571683,225.17737042978115 185.0213063035626,224.80941113841254 184.5140087537584,224.3187972083033 184.22278238256695,223.70552731804491 183.92216161225224,221.47729020991392 183.0484824986197,220.17917202031094 182.10904259153176,217.80777465547726 181.5171954500256,217.1433671480263 179.93893640604801,216.7447210921382 178.548565343488,215.661215676344 178.16339498152956,215.0887942505433 177.5527590419515,213.63728630788682 175.5329632416251,211.6644373967647 175.09142648527632,211.0 174.9786936963792,211.27599746506894 177.44942065217765,213.6986179415835 178.1821837797179,215.34433982638438 178.86797491193283,216.13141719556734 179.86378121346934,216.8776032400565 181.32930746860802,217.33757890756533 181.82721061934717,217.8282179121452 181.9117602109909,217.83843953933683 182.94514410884585,220.41426520563255 183.73427363083465,221.5488396726796 184.1664159881184,224.12459537426184 184.99312310636742,225.2386968819992 184.85220712033333,226.12792734567483 183.84700641967356,226.70030251356366 184.0255000020261,227.12958231592347 184.0912607955397,228.2436593204693 182.37208576546982,229.0" stroke="#4dd2ff" stroke-linecap="round" stroke-linejoin="round" stroke-width="0.5"><title>2021-08-18 4.6km</title></polyline><polyline fill="none" points="24.785476294578984,246.68148968933383 24.66397006053012,246.17303915897355 25.028488762618508,244.739198419491 24.10317205725005,243.85448063048534 24.037745623500086,242.22739839807764 23.77603988867486,241.23080091152224 22.775950116163585,240.1731792593855 22.439471314195544,238.871479772999 21.841286777402274,237.64095551257924 21.28983540745685,237.09179232916358 19.654174564639106,236.66466387434775 18.513885291293263,235.69853503532067 18.018513721763156,235.0374955557927 17.57922195259016,233.7764267057937 15.65381547465222,231.84412108205288 15.09301747137215,231.0 14.971511237323284,231.2034031500225 17.448369085090235,233.58319738013233 18.74755112605635,235.98328951235453 20.018693266785704,236.91890716395574 21.336568574421108,237.31552574586385 21.925406477879733,237.84434872100246 22.8507231833064,240.1731792593855 23.729306721768808,241.4545275140481 23.83211968903197,241.7799473693085 24.037745623500086,243.80363460555964 24.290104725048877,244.34260150206683 24.963062328926753,245.14596328660264 24.776129661186133,246.42726466187014 24.944369062199257,247.56618907871598 24.776129661186133,247.6475404576413 24.67331669392297,247.99328327496187 23.981665823201183,248.14581659128453 23.13112218491733,248.74577930836676 22.32731171353953,249.0 22.084299245500006,248.74577930836676" stroke="#4dd2ff" stroke-linecap="round" stroke-linejoin="round" stroke-width="0.5"><title>2021-08-17 4.8km</title></polyline><polyline fill="none" points="47.8023773675086,247.15212298347615 47.549016206583474,246.30474559773575 47.933749821269885,244.7426987965664 46.96722391125513,243.7625818706947 46.92968892445788,242.077989456433 46.67632776364917,241.14890231772733 45.75672058708733,240.09729056093784 44.912183384236414,237.78984218546248 44.28347235539695,237.08534795807645 42.791456630278844,236.74841465028294 41.44019710563589,235.68655878175196 40.95224227732979,234.99226393723802 40.52058992913226,233.74660844696336 39.206865391286556,232.54178329822753 38.02451330726035,231.0 37.78053589304909,231.0918948571998 40.426752462168224,233.5934532981555 41.17745219805511,235.26794025437994 41.85308196040569,236.12559634500212 42.73515415005386,236.79946520493104 43.326330192096066,237.0138773259605 43.55154011287959,237.07513787007338 44.105181168124545,237.1976588757534 44.92156713089207,237.93278259925137 45.92562802770408,240.5056844388164 46.75139773718547,241.62876130016957 47.02352639148012,243.87488729220058 47.905598581186496,245.15107877139235 47.63346992689185,246.49872401787434 47.886831087758765,247.49923991160176 47.689772407116834,247.9382394681743 46.99537515139673,248.06075072030944 46.21652417536825,248.52016693642508 45.72856934700394,248.6426776662047 45.28753325220896,249.0 45.00602085120045,248.71414220782026" stroke="#4dd2ff" stroke-linecap="round" stroke-linejoin="round" stroke-width="0.5"><title>2021-08-16 4.9km</title></polyline><polyline fill="none" points="70.39633261127165,246.2981206329714 70.65774300630437,245.3839387495973 70.58305432199268,245.0182642727741 70.7604399472475,244.7440077688516 69.84550356457476,243.94155037179735 69.78015096578747,242.46867318702425 69.53741274186177,241.2090965739626 68.59446810255758,240.06124641808856 67.67019563436043,237.5420368273626 66.90463662025286,237.04428423946956 65.64426507276949,236.77001162532542 64.30920484091621,235.7338656366046 63.646342767751776,234.8907213967832 63.3475880305632,233.6818669021959 61.26564095570939,231.6704716944223 60.88286144868471,231.0 60.66813148133224,231.10158683331247 60.80817276443122,231.2742842753869 63.23555500409566,233.54980651508959 64.10381095908815,235.39864024081908 65.29882990790065,236.6074794442975 65.47621553309727,236.73953685620654 66.85795619263081,237.14586654851882 67.7355482330895,237.86709875661472 68.7625176422298,240.4878821226157 69.43471580091864,241.3309915956852 69.58409316954203,241.71699177566916 69.84550356457476,243.9110772126005 70.72309560509166,245.1401558744692 70.48969346663216,246.23717536557524 70.74176777614048,247.53733513718907 69.92019224888645,247.73032654216513 69.82683139352594,248.16709555117268 68.10899165458977,249.0 67.74488431867212,248.70543681537674" stroke="#4dd2ff" stroke-linecap="round" stroke-linejoin="round" stroke-width="0.5"><title>2021-08-13 4.8km</title></polyline><polyline fill="none" points="93.56446824548766,247.29795006629865 93.24596290045884,246.3195165277357 93.63004287541844,244.78050788897235 92.60895221034298,243.82244075078052 92.64642342744628,242.41590444718167 92.35602149512852,241.10108563870745 91.5410225239466,240.02068239008804 90.84780500823399,238.27774965141725 90.2763689479325,237.36040767225495 89.92039238585858,237.08520387364842 88.39344029035419,236.71826461041928 87.04447647597408,235.6378265940948 86.66039650101447,235.0160612083564 86.2107418962405,233.74194294221525 84.21539958746871,231.77468092554045 83.73764156980906,231.0 83.51281426742207,231.1427047121906 85.99528239812935,233.47692484517756 86.43556919862749,234.4452576991389 87.62528034049319,236.17804667373275 87.77516520873178,236.27997475033044 88.627635397017,236.91192712254997 89.7424041047343,237.1361675820226 90.57613868446788,237.8802355523876 91.3536664386047,239.95952723293885 92.47780295059783,241.67186125393346 92.55274538474623,243.05802064828458 92.80567609996069,244.10782315611868 93.58320385403931,245.086272578621 93.39584776875563,246.78835014177457 93.61130726686679,247.55274931379972 93.34900874743471,247.94004325741116 91.07263231062097,249.0 90.66981672716793,248.87769771974854" stroke="#4dd2ff" stroke-linecap="round" stroke-linejoin="round" stroke-width="0.5"><title>2021-08-12 4.9km</title></polyline><polyline fill="none" points="116.65846830914961,248.21018168445153 116.56644666317152,247.665093358155 116.9243086198112,246.18555782882322 115.93251976853935,245.17323556331394 115.71780259459047,244.2832762304024 115.79959961323766,243.54905577056343 115.65645483060507,242.53671555417532 115.30881750129629,241.7691123336699 114.40905029600253,240.96813083460438 113.51950771803968,238.3204112797248 112.86513156880392,237.68628657146473 111.00424939423101,237.18565989099443 109.39898290298879,235.88402263073658 108.96954855503282,235.30551352296607 108.70370824442944,233.97048391135468 107.4358544551651,232.89132621092722 106.43384097656235,231.76765883473854 106.07597901992267,231.0 105.93283423729008,231.289263214916 108.54011420707684,233.88148151086352 109.3171858843416,235.52801729242492 109.82841725100297,236.24002711637877 111.2496404502308,237.39703580617788 111.56660389748868,237.4971611347719 111.79154569882667,237.59728639594687 112.87535619607661,237.88653677157708 113.48883383604698,238.55403549033508 114.52152119664242,241.11275281340932 115.51331004791427,242.6257127726276 115.87117200455396,245.21773339011997 116.8118377191131,246.46366713456518 116.57667129050242,248.21018168445153 116.842511601164,249.0" stroke="#4dd2ff" stroke-linecap="round" stroke-linejoin="round" stroke-width="0.5"><title>2021-08-11 4.4km</title></polyline><polyline fill="none" points="131.7013644182589,248.105906666402 132.5015396910021,248.62353995873127 133.04219865903724,248.60001119118533 138.7948100795038,245.84713324037148 138.3839092637645,242.52953036269173 138.81643643823918,240.41189320749254 136.6754269246012,237.0001144662965 136.30777882621624,232.67063160630642 135.68061442335602,231.09412032639375 134.7939337156713,231.0 130.03613479656633,232.694161565596 129.71173941565212,232.4118019384914 131.9392543642316,231.72943179297727 132.78268235444557,234.2236051399086 133.21520952892024,234.5294929621159 133.4747258335119,233.94124688603915 132.63129784341436,231.8470819237118 134.9669445854379,231.0 135.68061442335602,231.0705902474583 136.30777882621624,232.81181133538485 136.28615246759728,235.75304127586423 136.61054784839507,236.85893661752925 138.83806279697455,240.10601110657444 138.3839092637645,243.11776037549134 138.85968915570993,245.42361141717993 138.40553562238347,246.55300167843234 136.6754269246012,246.85887750962866 132.71780327823944,249.0 131.63648534205277,247.8470897008374" stroke="#4dd2ff" stroke-linecap="round" stroke-linejoin="round" stroke-width="0.5"><title>2021-08-10 3.1km</title></polyline><polyline fill="none" points="162.4805187418533,245.938136305238 161.76198737276718,245.17498529334262 161.47115324714105,242.89481108430482 161.22308884593076,242.38292949635797 160.52166536657023,241.67559874442668 160.02553656409145,240.1306254813171 159.6063932654506,239.3488244686232 159.2642354706477,238.9579221192471 157.7501872286084,238.5763257834551 156.47564944301848,237.62698347760306 156.09927586867707,237.10577285531326 155.75711807387415,235.88650375956786 154.04632909983047,234.2018451080221 152.42963351937942,231.6143138844709 151.7453179297736,231.0 151.75387187462184,231.242002801715 152.81456103856908,232.47062514347635 153.4988766281749,233.7085429503204 155.26098927142448,235.35597835914814 155.56037734186975,235.76550693767058 156.31312449043617,237.31984176812693 156.68094411984202,237.81312959899515 157.87849640168133,238.73454879649216 158.93063162072212,238.97653654468013 159.71759454876883,239.6373468431484 160.4788956421835,241.6011426417972 161.4625993022928,243.11817693519697 161.63367819969426,245.00746371284913 162.54039635593654,246.3941633337381 162.30943984442274,247.32482555181923 162.4976266315789,248.50675653324288 162.12980700214393,248.66496691485372 162.0528214983351,248.8697094629897 161.53103086122428,249.0" stroke="#4dd2ff" stroke-linecap="round" stroke-linejoin="round" stroke-width="0.5"><title>2021-08-08 5.0km</title></polyline><polyline fill="none" points="185.5582162971259,249.0 185.34983981004916,248.1621575353347 185.57633599161636,246.93002658546175 185.73941324243788,246.7033132355864 184.8787277522497,245.81617029046174 184.5344535561744,243.31242353605194 183.67376806598622,242.30696853467816 182.7677833394846,239.8721584531304 182.12453418364748,239.2609844835315 180.91957449744223,239.0342579349308 179.94111099280417,238.38364915043348 178.97170733544044,237.36829871677764 178.43717634677887,235.88961903605377 177.3952939112787,235.04183519765502 176.49836903205141,234.03631705816224 174.94007530243834,231.4534803718052 174.34212538297288,231.0 174.26058675756212,231.1084411005504 175.38400781847304,232.23227997472713 176.31717208673945,233.84901381132659 176.44400994846364,234.04617511638935 178.4190566522302,235.90933487434086 179.13478458620375,237.4865923740217 179.77803374204086,238.29492952172586 180.79273663571803,239.06383098514925 181.89803800208028,239.29055748282553 182.82214242307236,240.13831397283502 183.7643665386713,242.56326171478577 184.57069294521352,243.6968601850167 184.64317172340816,245.2050238976808 184.8515482104849,245.95417069647374 185.59445568622323,246.93002658546175" stroke="#4dd2ff" stroke-linecap="round" stroke-linejoin="round" stroke-width="0.5"><title>2021-08-07 4.9km</title></polyline><polyline fill="none" points="24.32223930011969,266.90446585792233 23.95536487683421,265.8317417608923 24.310774474404752,264.53448479634244 24.21905586856883,264.1103793687071 24.436887557443697,263.82348390888365 23.29040498449467,262.65094950658386 23.221616030088626,260.6925491906586 22.923530561092775,259.27051161412965 21.76558316242881,258.17279010111815 20.710819195315707,255.05422363635444 19.896816568507347,254.4180289121141 18.624220912519377,254.18101457050943 17.74142933136318,253.71945935906842 16.354185417992994,252.5468538842979 15.815338608750608,251.78590336437628 15.56311244261451,251.0 16.4115095466841,252.63417585287243 17.466273513797205,253.65708693518536 18.371994746441487,254.16854012213298 19.72484418255044,254.50534990041342 20.687889543827623,255.4284546927811 21.582145950756967,257.7985652058851 22.9006009096629,259.7944216062024 23.04964364413172,260.28090798172343 23.04964364413172,260.8048147984955 23.324799461697694,262.8630042114237 24.345168951607775,264.2101689781557 24.207591042853892,265.3327979689493 23.03817881841678,266.1435808727256 23.278940158721525,266.84209836683294 23.12989742431091,267.21630296357034 23.233080855803564,268.05202353096684 22.83181195531506,268.05202353096684 21.146482573007233,269.0 20.928650884132367,268.66321950318525" stroke="#4dd2ff" stroke-linecap="round" stroke-linejoin="round" stroke-width="0.5"><title>2021-08-06 3.9km</title></polyline><polyline fill="none" points="48.24557404225925,269.0 48.13003263284918,268.1771891267854 48.53967944800388,266.4287013058929 47.4787992342026,265.217318922485 47.33174653130118,262.90880891388224 47.12167124147527,262.34881855433923 46.05028726311866,261.14883229845145 45.44106892257696,259.13740561711893 44.947391991328914,258.2345407079556 44.32766988623189,257.74310566579516 42.69958638976095,257.3430992313806 40.97696901287418,256.15450250080903 40.59883349109441,255.48019831931742 40.1891866758815,253.9944328339334 38.02541119023226,251.89147851000598 37.39518532063812,251.0 37.174606266315095,251.16000934664044 39.98961515055271,253.91442966683826 40.94545771944104,255.93735402167658 42.10087181365816,257.0230933294224" stroke="#4dd2ff" stroke-linecap="round" stroke-linejoin="round" stroke-width="0.5"><title>2021-08-05 3.0km</title></polyline><polyline fill="none" points="71.28199127136031,269.0 70.83904707344482,267.85685137436667 71.251088187797,266.0188294142572 70.22098540200386,265.14464032462274 70.22098540200386,263.4298699846113 69.994362789148,262.320302245309 69.73683709272882,261.83836622245144 68.85094869695604,260.8969053322944 68.03716749628074,258.58805952545663 67.19248321186751,257.6017456119298 65.44130847608903,257.20945986350125 63.95796046464238,256.01017991687695 63.35019982099766,255.001432338031 62.99996487383032,253.8693852964352 60.939759302302264,251.89668881209218 60.331998658773955,251.0 60.14658015727764,251.03362592736084 60.17748324084096,251.23538133299735 61.238489110197406,252.10965161579952 62.90725562314037,253.88059372494172 63.91675635322463,255.86447235313244 64.6996344703366,256.64904986887996" stroke="#4dd2ff" stroke-linecap="round" stroke-linejoin="round" stroke-width="0.5"><title>2021-08-04 3.0km</title></polyline><polyline fill="none" points="93.02228382130852,269.0 92.90960394160356,267.97467142775713 93.83153023041086,267.4285696341685 94.0773772407556,266.0242986870726 93.12472007563338,264.9878044969955 92.7866804364021,262.2572207600897 92.51010254974244,261.71109800587874 91.73158701695502,260.84175561334996 91.11696949112229,258.85785268916516 90.65600634668954,258.099950213742 89.93895256653195,257.54266652111255 88.39216512639541,257.1525666954549 86.8965958134504,256.0268443265377 86.40490179270273,255.32465675711865 85.96442589914659,253.9091257185355 84.74543447286123,252.88369325431995 83.22937790903961,251.0 83.06547990214312,251.06687709157995 83.15767253102968,251.31209283717908 84.22300957585685,252.21492914691044 85.7800406414317,253.89797975147667 86.86586493713548,256.04913594116806 87.47023883758811,256.584133691591" stroke="#4dd2ff" stroke-linecap="round" stroke-linejoin="round" stroke-width="0.5"><title>2021-08-03 3.1km</title></polyline></svg>