<?xml version="1.0" encoding="utf-8" ?>
<svg baseProfile="full" height="300mm" version="1.1" viewBox="0,0,200,300" width="200mm" xmlns="http://www.w3.org/2000/svg" xmlns:ev="http://www.w3.org/2001/xml-events" xmlns:xlink="http://www.w3.org/1999/xlink"><defs /><rect fill="#222222" height="300" width="200" x="0" y="0" /><text fill="#FFFFFF" style="font-size:12px; font-family:Arial; font-weight:bold;" x="10" y="20">Over 3km Runs</text><text fill="#FFFFFF" style="font-size:4px; font-family:Arial" x="10" y="280">ATHLETE</text><text fill="#FFFFFF" style="font-size:9px; font-family:Arial" x="10" y="290">phh95</text><text fill="#FFFFFF" style="font-size:4px; font-family:Arial" x="120" y="280">STATISTICS</text><text fill="#FFFFFF" style="font-size:3px; font-family:Arial" x="120" y="285">Number: 95</text><text fill="#FFFFFF" style="font-size:3px; font-family:Arial" x="120" y="290">Weekly: 4.0</text><text fill="#FFFFFF" style="font-size:3px; font-family:Arial" x="141" y="285">Total: 351.1 km</text><text fill="#FFFFFF" style="font-size:3px; font-family:Arial" x="141" y="290">Avg: 3.7 km</text><text fill="#FFFFFF" style="font-size:3px; font-family:Arial" x="167" y="285">Min: 3.0 km</text><text fill="#FFFFFF" style="font-size:3px; font-family:Arial" x="167" y="290">Max: 11.1 km</text><polyline fill="none" points="16.91995171655435,31.0 17.023403719998896,31.264722568608704 19.177086336479988,32.58832793791953 19.19589579163585,32.710506267118035 16.44031060981797,37.10885544234043 15.932455320318695,38.13715335523011 20.01410709141055,40.66205099958461 20.869937301438767,40.99802186714078 20.352677284390666,41.93466368632653 21.161483856500126,42.34189731515653 21.349578408175148,42.586236926727 21.26493585994467,42.89166084455792 21.086246035876684,42.84075690426107 20.916960939357523,42.973107110650744 20.775890025601257,43.59413333972043 20.221011098241434,44.602022533654235 20.493748198088724,44.9990678098693 20.869937301438767,44.95834526901308 21.048627125506755,45.73207153059775 21.4248162288568,46.01712750201841 21.40600677364273,46.20037746447633 21.4248162288568,45.98658581842028 21.772791149443947,45.833877300952736 21.932671518356074,45.94586356329819 21.75398169422988,46.434529847014346 22.252432256180327,47.065721285565814 22.01731406658655,47.269330823168275 22.130170797579922,47.6561881330781 21.68814860121347,48.19575050000276 21.302554770256393,48.32809567033837 21.123864946188405,48.71495007006888 21.68814860121347,49.0 22.49695517332293,48.25683290177403 23.57849884533789,46.465071433420235 23.57849884533789,45.98658581842028 23.954687948687933,45.6099045089577 24.067544679681305,45.10087411051063 23.72897448670119,44.388228459400125 23.352785383351147,44.04208498380467 22.948382097354624,43.909735782850476 22.97659628005931,43.62467554258183 20.409105649858247,41.96520624936238 20.41851037746528,41.48670533330005 20.888746756594628,41.05910739320825 20.738271115289535,40.916574457754905 20.089344912033994,40.672231946758984 15.96066950308159,38.15751561423531 17.108046268229373,36.131456399285526" stroke="#4dd2ff" stroke-linecap="round" stroke-linejoin="round" stroke-width="0.5"><title>2022-01-09 5.0km</title></polyline><polyline fill="none" points="48.45368080656044,35.595438524891506 48.64542514743516,35.880866845240234 51.82119079324184,37.904800076881656 47.55487920867745,44.85865292161179 42.10214951494709,41.66717932627944 41.59882062015822,41.20012964379566 38.18337454815628,39.37084000313189 35.5588738824008,37.41179280557844 34.4683279437013,36.17926869408984 33.85714285715949,35.14134707838821 34.97165683849016,36.93175810674438 38.17139052692801,39.40976125372981 39.02225603960687,39.721130953970714 45.36180330987554,43.61320657141914 47.650751379085705,44.845679566744366 51.85714285715949,37.93074779045128 51.8451588358148,37.77506145274674 48.64542514743516,35.8419448283239" stroke="#4dd2ff" stroke-linecap="round" stroke-linejoin="round" stroke-width="0.5"><title>2022-01-07 5.0km</title></polyline><polyline fill="none" points="61.70017353782896,31.131489300663816 65.40457357960986,33.48513168137288 61.16576828592224,40.5195793666353 67.5057578656124,44.27993875017273 66.8741880224552,45.45010464004008 67.8944162306725,45.94972373568453 70.2628031426575,47.72467520383361 69.60694215161493,49.0 70.2628031426575,47.895595541223884 70.23851199477213,47.4880160097091 66.84989687462803,45.41066096871509 67.63935917860363,44.04327506979462 67.77296049165307,43.464762553412584 67.5786313090357,44.18790291110054 66.49767523130868,43.80661108116328 66.14545358804753,43.43846648618637 62.380325676640496,41.37421333302336 61.238641729345545,40.54587585630361 61.76090140733868,39.428271688419045 63.76492110209074,36.46987452816393 65.4531558752642,33.57717294253234 65.34384571010014,33.327346553705866 64.08070602366934,32.47267473035026 61.33580632059602,31.0" stroke="#4dd2ff" stroke-linecap="round" stroke-linejoin="round" stroke-width="0.5"><title>2022-01-06 4.7km</title></polyline><polyline fill="none" points="92.11688311689068,32.31257727064076 97.3896103897132,35.59319316735491 97.57142857147846,35.96499405495706 90.50072150072083,47.66555295008584 88.29870129877236,46.35336329304846 86.78354978363495,45.850355747155845 86.41991341987159,45.23799760476686 82.33910533913877,42.94164351868676 82.15728715725709,42.54798106601811 81.06637806643266,42.19805845536757 79.57142857147846,41.148288191936444 79.6724386725109,41.476341791043524 82.11688311689068,42.52611091476865 84.3795093796216,44.23197796253953 87.02597402606625,45.56604676390998 89.75324675324373,47.49059465836035 90.54112554120366,47.687422729388345 97.55122655129526,36.09621778843575 97.55122655129526,35.70254641713109 97.1269841270987,35.418227885471424" stroke="#4dd2ff" stroke-linecap="round" stroke-linejoin="round" stroke-width="0.5"><title>2022-01-05 3.1km</title></polyline><polyline fill="none" points="108.06759790424258,31.0 112.31749389710603,33.54793923799298 112.94397258927347,34.17117227142444 107.1024820812163,43.77609917330847 107.05168651160784,43.977725414632005 108.38930317864288,44.894206306911656 114.43397596530849,48.468450102445786 115.80545634549344,49.0 114.43397596530849,48.43179144769965 108.72794030955993,45.05917251537903 107.06861836806638,43.8494178250985 112.94397258927347,34.2444937039254 112.87624516309006,33.8778863290936 111.60635592223844,33.14466998727585" stroke="#4dd2ff" stroke-linecap="round" stroke-linejoin="round" stroke-width="0.5"><title>2022-01-04 3.1km</title></polyline><polyline fill="none" points="138.78571428579744,33.727787981100846 138.72142857144354,34.21496229839977 140.5214285714901,35.05011597345583 143.28571428573923,36.98139773249568 138.85000000003492,44.045233074444695 137.7089285714319,46.2722120188846 135.667857142922,45.08913202326221 134.73571428575087,44.84555600727617 134.2696428571944,44.306208236608654 132.11607142863795,43.14051698548428 131.26428571430733,42.40978227411688 130.07500000001164,41.92262456585013 125.9607142857858,39.27803692268208 125.28571428573923,39.06925244847662 126.12142857146682,39.347631707045366 126.63571428571595,39.852193291517324 131.71428571431898,42.70555611535383 134.94464285724098,44.915149179898435 137.6446428571944,46.1852210410143 143.23750000010477,37.08579089901468 143.25357142859139,36.7552123828209 142.6267857143539,36.37243669081363" stroke="#4dd2ff" stroke-linecap="round" stroke-linejoin="round" stroke-width="0.5"><title>2022-01-03 3.7km</title></polyline><polyline fill="none" points="154.1935711905826,31.0 157.17127030232223,32.78409055614611 157.3872103142785,33.10399446899828 154.06855328887468,38.35771490515617 153.5230206271517,39.661892012751196 158.35325773607474,42.59010227852559 159.43295779568143,43.08223350762273 159.18292199238203,43.18065958250372 159.2965746302507,43.74660840751312 158.84196407883428,44.201826747652376 159.47841885086382,44.472496534333914 159.9784904574044,44.97692544166057 159.91029887465993,45.346018816067954 159.67162833519978,45.24759399452887 159.41022726811934,45.50595902949863 159.33067042165203,46.0965062067844 158.6487545944983,47.449835753053776 158.9215209253598,47.84352959878743 159.3988620043383,47.905044179889956 159.523879905988,48.089587789581856 160.1489694142365,47.73280329682166 160.4558315363829,47.26529144907545 160.478562063945,46.85929327548365 160.683136812062,46.90850522693654 160.76269365864573,47.51135047650314 160.27398731582798,47.53595635968668 159.58070622489322,48.05267908364476 159.523879905988,48.77854882981046 159.91029887465993,49.0 159.69435886276187,48.91388013472897 159.44432305946248,47.757409147918224 159.6488978075795,46.933111197300605 159.84210729197366,46.62553631160699 160.09214309527306,46.66244532726705" stroke="#4dd2ff" stroke-linecap="round" stroke-linejoin="round" stroke-width="0.5"><title>2022-01-01 3.0km</title></polyline><polyline fill="none" points="176.12414193706354,31.0 179.08803339698352,32.674884726526216 180.9282517209649,34.03241442194849 176.46612941322383,41.190173148497706 175.2610306876595,43.57016947962984 184.7389693123405,49.0 176.71040618186817,44.53979094837268 175.27731580560794,43.30572659110476 180.9119666030747,34.155825837224256" stroke="#4dd2ff" stroke-linecap="round" stroke-linejoin="round" stroke-width="0.5"><title>2021-12-30 3.1km</title></polyline><polyline fill="none" points="16.19535453035496,51.0 20.40474951796932,53.54146378749283 20.85806897818111,54.049753343861084 15.240145667805336,63.356521774694556 21.797087860060856,67.19480232482601 22.282787281728815,67.73811566179211 23.837025431043003,68.21132305901847 24.759854332136456,69.0 23.140856259968132,67.89585156357498 22.250407320272643,67.65048456081422 19.02860115666408,65.63496048845991 16.648673990624957,64.46069090506353 15.693465128017124,63.60189312757575 15.920124858093914,62.98846427924582 15.563945282250643,62.63793281115068 20.841878997453023,53.8218995367497" stroke="#4dd2ff" stroke-linecap="round" stroke-linejoin="round" stroke-width="0.5"><title>2021-12-29 3.2km</title></polyline><polyline fill="none" points="33.85714285715949,56.90060181381705 34.388290398113895,57.5236999738263 34.32927400461631,58.37047157190682 34.535831381741446,58.59414654500142 36.49812646373175,56.53313284210162 36.940749414497986,57.76335264307272 40.58501170959789,57.827259977537324 41.676814988371916,57.347954517405014 42.47353629977442,57.63553791856975 42.5325526932138,58.03495868643222 42.768618266971316,58.14679637168592 43.078454332542606,57.90714411949739 42.91615925059887,57.475769408702035 43.594847775180824,56.165663257503184 43.3735362997395,54.82359521999024 43.889929742435925,54.40819155149802 44.48009367682971,54.47209985916561 45.29156908672303,55.15911299579602 45.95550351293059,55.20704406492587 46.64894613582874,56.13370935161947 47.56370023422642,56.32543271740724 48.19812646374339,55.941985818994 48.4489461358753,55.111181916247006 50.18992974242428,55.15911299579602 51.089929742447566,54.13658103709167 51.34074941457948,53.52945044107037 51.62107728340197,53.41761041191057 51.85714285715949,53.60933614139503 51.73911007028073,55.49463026065496 50.41124121786561,56.03784760614508 48.37517564400332,57.76335264307272 48.12435597187141,58.54621621273691 47.622716627665795,58.99356557507417 47.43091334903147,59.9841216452769 44.701405152271036,61.8533846794744 44.553864168643486,62.268774311378365 44.84894613584038,63.6587262320827 44.62763466045726,64.26582891773432 43.683372365368996,64.23387618653942 43.16697892273078,63.9622777839686 42.5325526932138,64.12204159071553 42.03091334894998,64.45754520785704 41.20468384079868,66.05517447243619 40.33419203746598,66.40665135634481 39.77353629976278,66.50250859104563 39.80304449645337,66.35872272336564 39.81779859488597,66.58238958807488 39.80304449645337,66.42262756501441" stroke="#4dd2ff" stroke-linecap="round" stroke-linejoin="round" stroke-width="0.5"><title>2021-12-25 3.3km</title></polyline><polyline fill="none" points="61.80202505696798,51.0 66.49994461680762,54.159210575249745 60.9201630235184,63.35887244177866 67.94299158052308,67.71557031266275 69.3379369789036,68.23628587968415 70.50840840500314,69.0 60.93619687872706,63.39358747861115 65.93875968642533,55.02711828054453" stroke="#4dd2ff" stroke-linecap="round" stroke-linejoin="round" stroke-width="0.5"><title>2021-12-25 3.1km</title></polyline><polyline fill="none" points="84.77468645962654,51.0 87.73679991759127,52.629975763877155 89.35696142213419,53.65756360121304 89.47151829622453,53.95875232221442 84.52920744381845,61.86039459744643 83.89096200256608,63.52573060557188 93.25189514027443,69.0 92.8918592503178,68.59253432610421 91.00985346228117,67.75988497074286 90.64981757232454,67.28155320938095 83.92369253805373,63.43714918823389 84.08734521525912,62.65763133399014 88.98056026449194,54.84459935326595" stroke="#4dd2ff" stroke-linecap="round" stroke-linejoin="round" stroke-width="0.5"><title>2021-12-24 3.0km</title></polyline><polyline fill="none" points="114.3951638560975,52.263999434013385 120.3684377981117,55.9530483566632 117.1813553927932,60.90064270046423 113.39293668454047,67.60580472912989 112.99204581603408,67.73600056598661 111.04772510344628,66.34724205787643 110.14572064892855,66.10854854158242 109.20362710789777,65.24057051664568 107.41966274252627,64.43768860650016 102.54883868910838,61.29123877652455 102.42857142852154,61.48653662370634 104.87400572700426,62.59322202135809 106.3372573973611,63.7867016956443 113.4530703148339,67.60580472912989 120.42857142852154,56.03984896111069 119.94750238617416,55.56244532557321" stroke="#4dd2ff" stroke-linecap="round" stroke-linejoin="round" stroke-width="0.5"><title>2021-12-22 3.1km</title></polyline><polyline fill="none" points="137.61420590581838,52.33604789458332 141.0332003191579,54.317397651146166 143.04437350353692,55.645547873165924 143.24549082189333,56.05923281010473 137.79521149245556,64.6376238068915 136.24660814041272,67.66395210544579 132.80750199523754,65.90041197801474 128.14158020738978,62.67811442632228 126.79409417393617,62.199121303041466 125.40638467669487,61.197587762464536 125.28571428568102,61.39354023931082 128.32258579402696,62.74343161127763 129.1069433358498,63.570781393616926 131.96280925767496,65.1166130474885 132.52593774942216,65.7697789646918 136.1862729449058,67.53331985799014 143.28571428568102,56.01568705411046 143.18515562650282,55.66732077882625 142.23990422976203,55.10122472094372" stroke="#4dd2ff" stroke-linecap="round" stroke-linejoin="round" stroke-width="0.5"><title>2021-12-20 3.1km</title></polyline><polyline fill="none" points="153.09430490754312,51.0 157.24707729939837,53.464882148779 157.48758535302477,53.86412123928312 157.0546708565671,54.88825325804646 152.69345815165434,61.58839889970841 151.9559001206071,63.115867042317404 158.81839658285026,67.2816398096329 162.32981416513212,69.0 157.10277246730402,66.3269899404986 153.17447425873252,63.94902738367091 152.37278074683854,63.237369772352395 152.56518718972802,62.75135848289938 152.18037430394907,62.38684936948994 155.08250481722644,58.04741260848823 156.38124830654124,55.68672603490995" stroke="#4dd2ff" stroke-linecap="round" stroke-linejoin="round" stroke-width="0.5"><title>2021-12-19 3.1km</title></polyline><polyline fill="none" points="182.79537149809767,51.419776571012335 182.07186358096078,51.53845494441339 184.13276492070872,52.440409178554546 189.0,55.81084777860087 181.32643118139822,68.58022342898767 178.32277710107155,66.91880863817642 177.55542021919973,66.77640126444749 175.6699147381587,65.25738543068292 173.71863581007347,64.42667067059665 172.16199756402057,63.050053006765665 171.0,62.646560527413385 171.92082825826947,62.90764395307633 172.381242387346,63.4535449896357 172.8635809988482,63.429810180852655 176.63459196093027,65.70834399061278 177.577344701509,66.63399382893112 178.56394640670624,66.80013583105756 181.2168087697355,68.34287897421746 188.95615103526507,55.8583184973686 185.84287454327568,53.65092280367389" stroke="#4dd2ff" stroke-linecap="round" stroke-linejoin="round" stroke-width="0.5"><title>2021-12-17 3.1km</title></polyline><polyline fill="none" points="23.759238521801308,72.30796909221681 23.88017917133402,72.76622908632271 29.0,76.10495944437571 21.96528555441182,87.69203090778319 21.13885778270196,87.56110603397246 19.727883538696915,86.49188410339411 18.4983202686999,86.1427495906828 16.865621500532143,84.76802851678804 14.930571108590811,83.85154431863339 14.285554311354645,83.17508990925853 11.0,81.23300268733874 11.181410974124447,81.6476066277246 13.580067189293914,82.71684573733364 18.558790593524463,86.05546589929145 21.88465845468454,87.62656847797916 29.0,76.23588929319521 28.89921612548642,75.79945624276297 28.113101903814822,75.2975574536249" stroke="#4dd2ff" stroke-linecap="round" stroke-linejoin="round" stroke-width="0.5"><title>2021-12-16 3.1km</title></polyline><polyline fill="none" points="46.11888782365713,72.27297924243612 51.85714285715949,75.97853397682775 44.85043144784868,87.72702075756388 41.407478427747265,86.13587962152087 40.76318312564399,85.43839044607012 37.78331735380925,83.82544054096797 36.675934803439304,82.90997864396195 33.897411313606426,81.36240577537683 33.85714285715949,81.58037426622468 34.70278044103179,81.68935845248052 40.541706615593284,85.15503500716295 41.32694151485339,85.91791442764224 44.870565675897524,87.5308531266055 51.85714285715949,76.15291189972777 51.71620325988624,75.73876416799612 51.07190795778297,75.39000774160377" stroke="#4dd2ff" stroke-linecap="round" stroke-linejoin="round" stroke-width="0.5"><title>2021-12-15 3.1km</title></polyline><polyline fill="none" points="67.45816099271178,72.23144654929638 69.48265987914056,72.90415919592488 72.28889595938381,74.37978164906963 74.63410754059441,76.3111000614008 67.99936366535258,87.37796565736062 67.5182946230052,87.76855345070362 66.87686923332512,87.52986097079702 59.58065542485565,83.14656528286287 59.360165447113104,82.7776711381739 56.714285714318976,81.5407874584489 59.27998727338854,82.75597146846121 60.52274896600284,83.79755384271266 63.529430480557494,85.38162010084488 64.35125676111784,86.22789864457445 65.57397391041741,86.53169035963947 67.63856188370846,87.68175620728289 70.88577791932039,82.36537714523729 71.888005090761,81.3237897954823 74.71428571431898,76.11579876497854 71.86796054732986,74.22787967309705" stroke="#4dd2ff" stroke-linecap="round" stroke-linejoin="round" stroke-width="0.5"><title>2021-12-14 3.3km</title></polyline><polyline fill="none" points="91.98940609954298,72.20541121877613 92.43434991978575,72.7309021987312 94.11300160526298,73.4972415746015 97.55120385240298,75.81814326829044 92.05008025676943,84.70746993870125 90.47255216701888,87.79458878119476 88.16693418950308,86.34955835097935 87.05457463883795,85.99924690430635 82.05906902090646,82.60558376469999 80.90626003209036,82.25526798257488 79.57142857147846,81.22621302635525 79.59165329055395,81.51084559844458 82.07929373998195,82.64937320895842 84.18266452651005,84.29147279256722 86.32648475130554,85.18915013008518 87.05457463883795,86.08682480399148 87.924237560248,86.24008606749703 90.39165329060052,87.55375085546984 97.57142857147846,75.99330493749585 97.20738362765405,75.55540057423059" stroke="#4dd2ff" stroke-linecap="round" stroke-linejoin="round" stroke-width="0.5"><title>2021-12-13 3.1km</title></polyline><polyline fill="none" points="107.72084040002665,71.0 108.89083552465308,71.21408106418676 108.57773823774187,71.35680167032115 109.07210237492109,71.32112152651825 108.84139911085367,71.51736225337663 109.12153878854588,71.39248180891445 108.95675074291648,71.5708824244939 109.18745400692569,71.46384207061783 109.03914476581849,71.62440258399874 109.23689042060869,71.55304236874508 109.2533692252473,71.78496299272228 112.38434209371917,73.76519943277526 107.63844637724105,81.45407478501147 106.64971810294082,83.48775112621661 112.45025731198257,86.85933546404704 113.5543372182292,87.23395309965417 116.20742475416046,89.0 115.91080627194606,88.64322386814456 112.97757905820617,86.94853019081347 111.98885078402236,86.66310695154243 106.66619690757943,83.38071594762732 112.23603285255376,74.17551670510147" stroke="#4dd2ff" stroke-linecap="round" stroke-linejoin="round" stroke-width="0.5"><title>2021-12-11 3.2km</title></polyline><polyline fill="none" points="137.76868642191403,72.95148489339044 143.15568332595285,76.33001094259089 136.9699248119723,86.90774943870201 136.56125608133152,87.04851510662411 135.83679787698202,86.76698369943188 126.28881026082672,80.95530735893408 125.28571428568102,80.57322057275451 128.72224679333158,82.42332012369297 130.43122512160335,83.75055786487064 136.63555948692374,86.88764005170378 142.6912870410597,77.43606709090818 143.28571428568102,76.00824832719809" stroke="#4dd2ff" stroke-linecap="round" stroke-linejoin="round" stroke-width="0.5"><title>2021-12-10 3.2km</title></polyline><polyline fill="none" points="161.4561351512093,73.00589588447474 165.5080023710616,75.47207595556392 166.1428571428405,76.19979706079175 159.71962062828243,86.99410411553981 156.48933017195668,85.43764737815945 155.77978660340887,84.68973650998669 148.5909899228718,80.3841566152405 148.19887374038808,80.26287171333388 148.1428571428405,80.46501318723313 151.78393598098774,82.2640658596356 152.02667457028292,82.64813178297481 155.20094842917752,84.30567339407571 157.79638411384076,86.06427386087307 159.66360403085127,86.83239472840796 162.46443390625063,82.83005756234343 162.87522228818852,81.41507615490991 163.3980438648723,81.07143673113023 166.08684054529294,76.3008692865551" stroke="#4dd2ff" stroke-linecap="round" stroke-linejoin="round" stroke-width="0.5"><title>2021-12-09 3.2km</title></polyline><polyline fill="none" points="182.66197183111217,72.02930021984503 185.61971830984112,73.4702345340047 188.93661971820984,75.7345466077677 181.85915492963977,87.62763652065769 181.45774647884537,87.97069978012587 180.78169014083687,87.78773275477579 171.0,81.72689016611548 178.26760563382413,86.30112174674287 181.6267605634639,87.83347452105954 189.0,75.82603362327791 187.01408450701274,74.31649448085227" stroke="#4dd2ff" stroke-linecap="round" stroke-linejoin="round" stroke-width="0.5"><title>2021-12-08 3.1km</title></polyline><polyline fill="none" points="23.50052137649618,92.86782625057094 29.0,96.32222192620975 22.61835245054681,107.05089746911835 21.94264859240502,107.01025932012999 19.652763295103796,105.79111211582494 11.713242961559445,100.77223370251886 11.0,100.69095558108529 19.352450469275936,105.62855875525565 22.505735140759498,107.13217374942906 28.549530761200003,97.33821256423835" stroke="#4dd2ff" stroke-linecap="round" stroke-linejoin="round" stroke-width="0.5"><title>2021-12-07 3.1km</title></polyline><polyline fill="none" points="47.68888613558374,94.2622216612217 51.85714285715949,96.81427198633901 46.47119316068711,105.72087808087235 45.84673522488447,105.65327703701041 43.895304175443016,104.57165767374681 33.85714285715949,98.43675305237412 45.987238260451704,105.7377783387783 46.61169619625434,105.68707756136428 47.43910296121612,104.16604912099137" stroke="#4dd2ff" stroke-linecap="round" stroke-linejoin="round" stroke-width="0.5"><title>2021-12-04 3.1km</title></polyline><polyline fill="none" points="69.71815418626647,93.45111338651623 72.60790273552993,94.97765037501813 74.71428571426077,96.50417841257877 73.70461453439202,98.29453939764062 67.90770931192674,106.22851728723617 60.61370544345118,101.78099651179218 56.71428571426077,99.74566505744588 61.72782536613522,102.45943679443735 65.81873445695965,105.11664421489695 68.69107488257578,106.54888661349833 73.06051395408576,99.44413311847893" stroke="#4dd2ff" stroke-linecap="round" stroke-linejoin="round" stroke-width="0.5"><title>2021-12-03 3.1km</title></polyline><polyline fill="none" points="92.17330944922287,92.91400866051845 97.57142857147846,96.29417281289352 91.15763546805829,106.94346058482188 90.1419614868937,106.8009297579265 80.13569189433474,100.71275988178968 79.68428123602644,100.4684158659511 79.57142857147846,100.69239788861887 83.3896103897132,102.54533323622309 84.68741603230592,103.84848924799007 91.06359158095438,107.0859913394961 96.93193013884593,97.65844442941307" stroke="#4dd2ff" stroke-linecap="round" stroke-linejoin="round" stroke-width="0.5"><title>2021-12-01 3.1km</title></polyline><polyline fill="none" points="114.77995264402125,92.49609312581015 117.64404104172718,93.96030340861762 120.42857142852154,95.98434693130548 113.74569850030821,107.39624950024881 112.83078137319535,107.33165505720535 102.42857142852154,100.89367187896278 110.30481452238746,105.8890421752003 113.66614048928022,107.50390687418985 120.38879242306575,96.52265406027436" stroke="#4dd2ff" stroke-linecap="round" stroke-linejoin="round" stroke-width="0.5"><title>2021-11-30 3.0km</title></polyline><polyline fill="none" points="136.11757269268855,91.36534684707294 140.55499367893208,93.5825678697438 143.2174462705152,95.50414773801458 135.43489254114684,108.56074928652379 134.57016434893012,108.38830686936853 125.28571428568102,102.67302304468467 131.52085967129096,106.78705168122542 135.3666245258646,108.63465315289795 143.28571428568102,95.47951216730871 137.9835651073372,92.05515049101086" stroke="#4dd2ff" stroke-linecap="round" stroke-linejoin="round" stroke-width="0.5"><title>2021-11-24 3.1km</title></polyline><polyline fill="none" points="160.42063492059242,92.97324007825227 163.32804232800845,94.39666755295184 166.1428571428405,96.30124216723198 159.7910052909283,106.96661798936839 159.0873015873367,106.90647604393598 149.23544973542448,100.85212005116045 148.1428571428405,100.35092571035784 148.420634920476,100.69173796079122 156.80952380946837,105.58334994109464 159.75396825396456,107.02675992176228 165.73544973542448,97.24350055465766" stroke="#4dd2ff" stroke-linecap="round" stroke-linejoin="round" stroke-width="0.5"><title>2021-11-23 3.2km</title></polyline><polyline fill="none" points="184.03703703696374,93.07347916428989 189.0,96.26114346968825 182.62962962966412,106.84633156059135 181.79629629629198,106.74609493411845 174.2777777777519,102.01488490431802 171.0,100.31082759906712 174.11111111112405,101.95474188381922 179.5,105.48311033273058 182.5740740740439,106.92652083571011 188.40740740741603,97.54421811699285" stroke="#4dd2ff" stroke-linecap="round" stroke-linejoin="round" stroke-width="0.5"><title>2021-11-20 3.1km</title></polyline><polyline fill="none" points="23.881075491197407,112.97721228425507 29.0,116.24181382919778 22.61530506715644,126.92203288283781 21.852119958610274,126.82127801355091 11.0,120.1915274838102 19.488107549143024,125.51146139457705 22.578076525358483,127.02278771574493 28.05067218199838,118.03531319933245" stroke="#4dd2ff" stroke-linecap="round" stroke-linejoin="round" stroke-width="0.5"><title>2021-11-19 3.1km</title></polyline><polyline fill="none" points="46.73865944478894,113.47987906483468 51.85714285715949,116.61994156014407 46.00501015566988,126.42777029021818 45.37373053486226,126.35388975020032 43.05335138796363,125.07944706821581 38.94150304677896,122.40124967845622 35.93865944480058,120.92361150123179 33.85714285715949,119.3720822067553 43.0874746106565,125.11638752536965 45.9197020988795,126.52012093515077 49.79268788086483,120.20325978760957" stroke="#4dd2ff" stroke-linecap="round" stroke-linejoin="round" stroke-width="0.5"><title>2021-11-18 3.2km</title></polyline><polyline fill="none" points="70.08365508366842,113.3192047351331 74.71428571431898,116.26466336658632 68.4620334621286,126.64178428601008 67.86743886745535,126.56376231121249 65.32689832698088,125.1203517037502 56.714285714318976,119.81477601559891 66.73230373219121,125.9200801574334 68.42599742603488,126.68079526488145 73.12870012875646,118.956511310098" stroke="#4dd2ff" stroke-linecap="round" stroke-linejoin="round" stroke-width="0.5"><title>2021-11-16 3.1km</title></polyline><polyline fill="none" points="93.04727830312913,113.97801848976815 97.57142857142026,116.73197343204811 92.09736774850171,125.8999762217718 90.98645540507277,125.60367740680522 79.57142857142026,118.75384435118758 91.87196524406318,126.0219815102173 94.17429082543822,122.3443663825019" stroke="#4dd2ff" stroke-linecap="round" stroke-linejoin="round" stroke-width="0.5"><title>2021-11-15 3.1km</title></polyline><polyline fill="none" points="108.07820641918806,111.0 110.0734610153595,111.99003385772812 112.26824107108405,113.48407748955651 107.24685033742571,121.74615671066567 106.64827395859174,123.11414334275469 107.7955453514005,124.10412897594506 116.35851299326168,129.0 106.4986298638396,123.11414334275469 112.26824107108405,113.80808576740674 112.28486819274258,113.39407511519676 111.66966469225008,113.01606478729809" stroke="#4dd2ff" stroke-linecap="round" stroke-linejoin="round" stroke-width="0.5"><title>2021-11-13 3.2km</title></polyline><polyline fill="none" points="125.70177267980762,111.80951313683181 129.46819603745826,113.58751663862495 132.62148070894182,115.81593406299362 125.28571428568102,128.1904868631682 132.9061522418633,115.83964054987882 143.28571428568102,121.78991447563749 127.2784150155494,112.18882136058528" stroke="#4dd2ff" stroke-linecap="round" stroke-linejoin="round" stroke-width="0.5"><title>2021-11-10 3.2km</title></polyline><polyline fill="none" points="161.45378151262412,113.66825892293127 166.1428571428405,116.68863012947259 160.3445378151955,126.2407700606127 159.21848739497364,125.96785681365873 153.28571428573923,122.29259622948302 149.52100840338971,120.4185565347434 148.1428571428405,119.32687648647698 160.10924369748682,126.33174107705418 160.52941176475724,126.0588279289077 163.18487394956173,121.71037180085841" stroke="#4dd2ff" stroke-linecap="round" stroke-linejoin="round" stroke-width="0.5"><title>2021-11-09 3.1km</title></polyline><polyline fill="none" points="184.5794785533799,114.24747547910374 189.0,116.90253868434229 183.8830950378324,125.65419324510731 182.55088309501298,125.26086771498376 181.2943650125526,124.2775509008643 171.0,118.2300586111669 183.80740117747337,125.75252452091081 184.62489486963023,124.22838494811731" stroke="#4dd2ff" stroke-linecap="round" stroke-linejoin="round" stroke-width="0.5"><title>2021-11-04 3.2km</title></polyline><polyline fill="none" points="11.388831587391905,131.0 28.61116841249168,141.12213679763954 20.033077471423894,136.01336129996344 18.75408190698363,135.75075855190516 17.651499523897655,137.06377020137734 12.248845846275799,145.72951599615044 11.410883235163055,147.51993096375372 12.138587608002126,148.1406058841967 13.836564477998763,149.0 12.22679419873748,148.16447797324508 11.432934882701375,147.32895383026334 18.709978611790575,135.4165365700901 17.607396228588186,134.72421853037667" stroke="#4dd2ff" stroke-linecap="round" stroke-linejoin="round" stroke-width="0.5"><title>2021-11-01 3.1km</title></polyline><polyline fill="none" points="39.752567407500464,131.0 42.01909795048414,132.42276319281518 40.00969482207438,135.87651326754712 39.923985683883075,136.05177596408612 40.04778777237516,136.39199117117823 39.29545200383291,137.84562881245802 41.13343685597647,139.04151816225203 41.390564270550385,139.67038698249235 43.74280395178357,140.89718865861505 43.29521178570576,141.88686970748677 45.60935851657996,143.38168742557173 45.92362535657594,143.82497518236778 46.41883371054428,144.1548628505334 45.866485931153875,144.4847497550145 45.447463477787096,145.04143217454111 45.9141021190444,145.8661428727719 46.02838096994674,146.82486306029023 45.761730317841284,147.0310386020501 45.04748749965802,147.17536130381632 44.83797627297463,147.87635520474578 44.152303167502396,148.38148102531704 43.99993136624107,148.74228408678027 44.580848858400714,149.0 45.19985930080293,148.41240703780204 45.723637367540505,147.639254712376 45.58078880386893,146.9588771963754" stroke="#4dd2ff" stroke-linecap="round" stroke-linejoin="round" stroke-width="0.5"><title>2021-10-30 3.1km</title></polyline><polyline fill="none" points="62.322655845666304,131.0 65.12565573706524,132.8449978284625 64.3296037678956,134.16804298339412 64.58747975790175,134.47149223538872 64.4753597623203,134.7263891826442 61.795691866078414,139.22950470328215 62.89446782349842,139.8485219123395 62.87204382440541,140.43112425738946 67.12139165977715,142.8950242989231 66.65048767800909,143.6960874521319 66.75139567407314,144.02379400313657 69.63287956250133,146.06284260284156 68.8480395929073,147.38578349744785 69.038643585518,147.62852381329867 69.00500758679118,147.89553775510285 67.7604756350047,149.0 67.7716876345803,148.76939859335835 67.34563165111467,148.42956436377426 67.16623965802137,147.67707183434686 66.78503167279996,147.2280021038314 66.80745567189297,146.9731241544505 67.36805565020768,146.6454233648692 67.52502364409156,145.89292283281975 67.80532363324892,145.67445430420048 69.31894357461715,146.2691735207918 69.63287956250133,146.09925395975006 67.98471562634222,144.81271455570823" stroke="#4dd2ff" stroke-linecap="round" stroke-linejoin="round" stroke-width="0.5"><title>2021-10-26 3.2km</title></polyline><polyline fill="none" points="95.17063338164007,149.0 94.03554600349162,147.52853641567344 93.55253009789158,144.3490819229628 92.21216095983982,142.45714779572154 91.16160136513645,139.5009599073528 90.30424813274294,138.85716127764317 88.52916467969771,138.41044247367245 87.2612479274976,137.4907237096195 86.2589899234008,136.33449899838888 85.26880731689744,134.2059745015722 83.81975960015552,132.91833604159183 82.29825949750375,131.06569678653614 82.06882694235537,131.0 81.97222376120044,131.15767224632145 85.09975174994906,134.32422653966933 86.17446213989751,136.76808415753476 87.9978471834911,138.39730366809817 90.47330369969131,139.36957262360374 91.08914897934301,140.01336937422457 91.58424028259469,141.10387685113528" stroke="#4dd2ff" stroke-linecap="round" stroke-linejoin="round" stroke-width="0.5"><title>2021-10-18 3.2km</title></polyline><polyline fill="none" points="117.89169008168392,149.0 116.905268156901,147.8708712097723 116.83334155817283,146.3504466855229 116.55591039184947,145.16539919517527 115.55921323865186,143.8461843293917 114.59334177064011,141.1853595814464 113.79187395673944,140.5145559465891 112.17866310058162,140.13443254971935 110.49352564569563,138.8598941013188 109.70233306020964,136.86980354877596 107.52398464293219,134.67843721044483 105.71554444753565,131.70438860729337 104.96545277547557,131.0 104.97572800389025,131.3242427874793 105.98270038544433,132.5094000902027 106.84581956965849,134.1305906020134 109.22967255458934,136.64619621171732 110.78123204049189,139.28474145910877" stroke="#4dd2ff" stroke-linecap="round" stroke-linejoin="round" stroke-width="0.5"><title>2021-10-17 3.3km</title></polyline><polyline fill="none" points="140.52869595587254,149.0 140.6100756051601,148.22843004358583 139.56376582809025,146.88766075992316 139.37775520101422,144.8132420477632 139.08711359632434,143.66218165947066 137.98267549823504,142.2707795178285 136.86661173589528,139.29820020718034 135.9714355932665,138.53923540966935 134.20433463639347,138.17240120249335 132.3442283659242,136.6038597496663 131.9605814476381,136.08522590558277 131.32116991723888,134.26367003652558 128.87978043727344,131.92344791629876 128.2636202351423,131.0 127.96135296620196,131.18974998379417 131.20491327525815,134.52931482362328 131.90245312667685,136.35086782946019 132.9720142322476,137.43873039956088 134.19270897220122,138.33684422141232 135.69241965276888,138.72897692857077 136.63409845216665,139.4120446328743" stroke="#4dd2ff" stroke-linecap="round" stroke-linejoin="round" stroke-width="0.5"><title>2021-10-14 3.2km</title></polyline><polyline fill="none" points="163.64420066471212,149.0 162.76830808399245,147.92622516059782 162.66961596219335,145.84576811964507 162.29952050559223,144.51694744713313 161.2385801965138,143.1075814316282 159.84455397643615,139.68478928986588 158.9809979108977,139.02706880836922 157.03182850586018,138.53042113222182 155.26770682923961,137.04046985175228 154.6385445529013,136.08743146050256 154.49050637026085,135.18808072819957 154.0463918222813,134.463227601751 151.80114605190465,132.30207403781242 150.83889786462532,131.0 150.64151362102712,131.30874006000522 154.00938227656297,134.63772954809247 154.86060182686197,136.50354743732896 155.7241578924004,137.72504359880986 156.99481896020006,138.74518786367844 158.75894063693704,139.2552578201139 159.7335253394558,139.9666687578574 161.02885943773435,143.05389107875817 161.68269474443514,143.9800474135991" stroke="#4dd2ff" stroke-linecap="round" stroke-linejoin="round" stroke-width="0.5"><title>2021-10-11 3.4km</title></polyline><polyline fill="none" points="186.57971261581406,149.0 185.4396333792247,147.73319793309201 185.29409134900197,145.71421333242324 184.9544932785211,144.26264149426424 183.86292805190897,142.95621662442863 182.6015637900564,139.59113829751732 181.643412091129,138.9313114873803 180.0909637688892,138.60139715642435 178.6598004717962,137.5192738178157 177.67739176790928,136.4767340761755 176.8647820992046,134.48401437942812 174.12374053022359,131.87101004994474 173.62647192698205,131.0 173.42028738418594,131.277140028149 175.93088740529492,133.63941115544003 177.28927968733478,135.59254997050448 177.75016278302064,136.75386549510586 178.56277245166712,137.75681365620403 179.75136569840834,138.68057665214292 181.5585125735961,139.15565287988284 182.4802787649096,139.85506833024556 183.54758698644582,142.69229123323748" stroke="#4dd2ff" stroke-linecap="round" stroke-linejoin="round" stroke-width="0.5"><title>2021-10-07 3.4km</title></polyline><polyline fill="none" points="26.56343033502344,169.0 26.06137689523166,168.65360710654932 25.620549484621733,167.97414216616016 25.118496044829953,164.68336351405014 23.832749430730473,162.88473409236758 22.62047405168414,159.68712581050931 21.714328818779904,158.9809795730107 20.146942470164504,158.661214317719 18.053012269956525,157.04905574097938 17.550958830164745,156.38287024780584 16.865227302652784,154.51753760309657 14.110055986617226,151.8527427721565 13.608002546825446,151.0 13.43656966497656,151.42637189679954 16.228476598567795,154.1577926302998 17.06115059630247,155.42355875764042 17.452997183427215,156.59604987685452 18.68976297415793,157.96838762743573 19.730605471297167,158.74115568534762 21.44493429013528,159.19415609081625 22.10617540596286,159.64715534354036" stroke="#4dd2ff" stroke-linecap="round" stroke-linejoin="round" stroke-width="0.5"><title>2021-10-06 3.0km</title></polyline><polyline fill="none" points="49.414451079966966,169.0 48.434834538726136,167.7742990432307 48.28789205750218,165.77585547827766 47.99400709517067,164.53680920397164 47.70012213278096,163.92394441881333 46.806222038925625,162.92470383238106 45.50823012186447,159.67380232243158 44.822498542955145,158.9676560320804 42.70407777256332,158.46136074134847 41.11220089311246,157.15564518843894 40.512185761588626,156.4494889092166 39.7284925286076,154.4642420974269 37.218225141696166,151.9993075246748 36.59371959668351,151.0 36.29983463435201,151.31977901833307 39.48358839331195,154.4642420974269 40.512185761588626,156.64934474418988 41.19791734038154,157.5020604522142 42.90000108082313,158.80777346425748 44.76127250911668,159.3940088442905 45.58170136244735,160.22006451236666 45.961302772164345,161.1527034019091" stroke="#4dd2ff" stroke-linecap="round" stroke-linejoin="round" stroke-width="0.5"><title>2021-10-05 3.2km</title></polyline><polyline fill="none" points="72.33664714981569,169.0 71.84427826985484,168.65180288357078 71.29036327986978,167.70095346200105 71.20419872587081,165.94655606223387 70.89646817592438,164.5135622224625 69.60399986599805,162.73234828021668 68.44693299807841,159.66540454348433 67.43757679418195,158.90200863253267 65.98508859827416,158.63414964645926 64.17563296441222,157.28145564251463 63.48631653242046,156.585015138553 63.215513648465276,155.567135680496 62.60005254851421,154.41531773236056 59.9781882626703,151.91075776916114 59.41196405078517,151.0 59.09192427882226,151.2009028475877 62.39079577452503,154.49567736465542 63.474007310462184,156.5984082507057 64.6433834003983,157.97789343629847 65.86199637828395,158.8350439236092 67.52374134812271,159.2770105395757 67.88070878613507,159.5314756718144 68.66849899408408,160.602903838997 69.23472320602741,162.3573536126787" stroke="#4dd2ff" stroke-linecap="round" stroke-linejoin="round" stroke-width="0.5"><title>2021-10-04 3.3km</title></polyline><polyline fill="none" points="95.18266092124395,169.0 94.07572045421693,167.55742046635714 93.64997412078083,164.52664165597525 93.29721287300345,163.79871761365212 92.36057093937416,162.67373820110515 91.14415284368442,159.55022843445477 90.26833181479014,158.8487546723336 88.55318229994737,158.47816363698803 86.77721188031137,157.0619693117187 86.30280882300576,156.47960573757882 85.40265943220584,154.4280824136804 82.86034561228007,151.8868076151266 82.27646492636995,151.0 81.96019622153835,151.19853940473695 85.19586835592054,154.40161098945828 86.18116701341933,156.55901906518557 87.23945075663505,157.76345016142295 88.5166897570598,158.68993003798823 90.41430198628223,159.31199237442343 91.19280956749571,160.0399348833016" stroke="#4dd2ff" stroke-linecap="round" stroke-linejoin="round" stroke-width="0.5"><title>2021-10-02 3.1km</title></polyline><polyline fill="none" points="117.92169064492919,169.0 116.8485474504414,167.5306815165095 116.40240926842671,164.2640275581798 116.05273339606356,163.62118487338012 115.05193693377078,162.62411808696925 114.87107010319596,161.53520972379192 114.07525604881812,159.5804054519249 113.18297968478873,158.85882789712923 111.43460032291478,158.41276028673747 109.9153189464123,157.24510734382784 109.14362046943279,156.14304574593552 108.31163304898655,154.37186080410902 106.76823609502753,152.94177990255412 105.23689692973858,151.0 104.9354522122303,151.22304337976675 108.29957526025828,154.71297929555294 109.05921594850952,156.52352017596422 109.56564307399094,157.19262837724818 111.2416757036699,158.58331568354333 113.0865173751954,159.1212200789014 113.91850479569985,159.82967700788868 114.13554499234306,160.27574101283972" stroke="#4dd2ff" stroke-linecap="round" stroke-linejoin="round" stroke-width="0.5"><title>2021-09-30 3.1km</title></polyline><polyline fill="none" points="140.8545544105,169.0 139.7516679689288,167.4704011540889 139.24264345731353,164.3716041821317 137.92160365369637,162.3804335432651 136.9277938931482,159.58484474285797 135.9945822886657,158.79363231257594 134.297833916964,158.39802476510522 132.2859751333599,156.7364633657853 131.0861316419323,154.13859390228754 129.0621532271034,152.37149328981468 128.01986494159792,151.06593742173573 127.76535268587759,151.0 127.71687416097848,151.22418713320803 131.1346101668314,154.57377267633274 131.59515615348937,156.090296367649 133.07375116308685,157.7914248004381 134.188757235941,158.5826417311182 136.3824104879168,159.43978939662338 136.87931536824908,159.9804496257275 137.42469877342228,161.3650597212254" stroke="#4dd2ff" stroke-linecap="round" stroke-linejoin="round" stroke-width="0.5"><title>2021-09-29 3.2km</title></polyline><polyline fill="none" points="163.53883340395987,169.0 163.05116365972208,168.03405885632674 162.95112884044647,166.1293711442704 162.6760330873076,164.91852358244068 161.46311090281233,163.2995125579764 160.22518001357093,160.03423637981177 159.26234487752663,159.13627514915424 157.37418766261544,158.70089841041772 155.32347386633046,157.1634659593401 154.24809955852106,154.59197908019996 151.44712461723248,151.80275906006864 150.95945487293648,151.0 150.74688088183757,151.38097084345645 154.0105168626178,154.67361414340849 154.62323013099376,156.33351914345985 155.32347386633046,157.36755066149635 157.21163108124165,158.93219243269414 159.29985793476226,159.5988617915864 160.05011907976586,160.27913412747148 160.52528447163058,161.28593251305574" stroke="#4dd2ff" stroke-linecap="round" stroke-linejoin="round" stroke-width="0.5"><title>2021-09-26 3.1km</title></polyline><polyline fill="none" points="186.42290115193464,169.0 186.351336793683,168.55878224983462 185.34943577833474,167.32596199892578 185.19437966885744,165.02899984335818 184.812703091593,163.84806395693158 183.82272946927696,162.69307492714142 182.65384495136095,159.72121386119397 181.97398354811594,158.92957415725687 180.17294719908386,158.48833078650932 178.61045871087117,157.4111731357989 177.73975901899394,156.50272172290715 176.77364018274238,154.32241891199374 174.22117807221366,151.80465417308733 173.76793713663938,151.0 173.57709884806536,151.37637096521212 176.61858407320688,154.42624347709352 177.26266329735518,155.4125737446011 177.77554119809065,156.68441238623927 178.562749138684,157.5409515205247 179.8509075869806,158.57917510168045 181.67579872213537,159.0853068435972 182.71348191652214,160.13649881807214" stroke="#4dd2ff" stroke-linecap="round" stroke-linejoin="round" stroke-width="0.5"><title>2021-09-25 3.2km</title></polyline><polyline fill="none" points="25.762230403197464,189.0 25.907543682027608,187.50413000419212 25.069197842560243,186.20283352748083 24.644435950554907,183.2475140489114 23.526641498028766,181.80023923018598 22.3753132118145,178.91781317185087 21.604035039490554,178.26105071605707 20.050300750415772,177.92050617554924 18.40714290505275,176.63129537875648 17.803533900587354,175.8650614743092 17.121679284551647,174.16230652821832 14.673709433351178,171.8513962739089 14.215413707774132,171.0 14.092456317972392,171.3040706100146 16.808696837804746,174.0163552739832 18.027092791104224,176.50967119070992 19.893809527042322,178.0299669985252 21.346942315401975,178.43132271873765" stroke="#4dd2ff" stroke-linecap="round" stroke-linejoin="round" stroke-width="0.5"><title>2021-09-24 3.1km</title></polyline><polyline fill="none" points="49.48670711851446,189.0 48.898501786694396,188.62668513266544 48.39607639901806,187.88005305184925 48.065210899861995,185.1868184805644 47.550531234475784,183.933517226993 46.655968958861195,183.00020205615147 45.52857540611876,179.76022716177977 44.54823318630224,178.92022405259195 42.80812574620359,178.5868883877556 40.90871269535273,177.12020405297517 39.6220135318581,174.48014181983308 36.95058098289883,171.86670834409597 36.411392762034666,171.0 36.227578595804516,171.3866857822577 39.14409669971792,174.20013292432122 39.59750497638015,174.9201549091522 39.95287903101416,176.04018332308624 41.30084958329098,177.72021274035797 42.624311580031645,178.70688929894823 44.24187624262413,179.17355874071654 45.12418424047064,179.840227251334" stroke="#4dd2ff" stroke-linecap="round" stroke-linejoin="round" stroke-width="0.5"><title>2021-09-23 3.1km</title></polyline><polyline fill="none" points="72.23392444552155,189.0 71.30603578709997,187.5520970240177 70.9641820708639,184.656255647511 69.68223063496407,182.8230839385651 68.57120605715318,179.74118738571997 67.63110833748942,178.94413646505564 65.54335885617184,178.3994829440926 63.83409027493326,176.92492478038184 63.382355007051956,176.32712744029413 62.784111003624275,174.573576960247 61.50215956772445,173.40453368121234 59.49987351545133,171.0 59.1946469831164,171.19927198522782 62.1858670002548,174.1351866330515 62.86957443272695,175.30422509914206 63.333518761908635,176.56624661796377 63.95618088787887,177.2968865536095 65.57998604007298,178.5854623830819 67.42355429549934,179.14339953075978 68.29039764741901,179.9005971403676" stroke="#4dd2ff" stroke-linecap="round" stroke-linejoin="round" stroke-width="0.5"><title>2021-09-22 3.1km</title></polyline><polyline fill="none" points="93.62588364462135,184.72851386021648 92.7772574237897,183.6834504496146 92.46951384923887,181.31934525166434 92.1804214004078,180.74099564522476 91.51830643694848,180.0104452480009 90.52979677316034,177.56510208585678 89.95161187555641,177.0070300378793 88.38491731404793,176.57071756396908 87.16326857864624,175.62706020144105 86.72496712394059,175.00809857932472 86.21206116629764,173.63825543309213 83.76876369549427,171.05073616567097 83.56360131246038,171.0 83.51697349816095,171.1319139912157 85.91364315460669,173.52663797423884 86.62238593242364,175.04868631324644 87.23787308158353,175.82999782303523 88.21705718245357,176.6417452716778 89.84903068398125,177.1998188232683 90.53912233602023,177.83906388696778 90.60440127609763,177.99126464840083 91.3690974310739,179.98000556269835 92.41356047207955,181.63388523011963 92.46951384923887,183.1355499096826 92.71197848377051,183.94725362380996 93.54195357882418,185.06333829808136 93.31814007007051,186.43306602715165 93.58858139318181,187.4172322254235 93.09432656125864,187.65059017350723 93.01972205832135,187.90423966167145 92.6560251066112,187.90423966167145 91.89132895157672,188.41153721504088 91.08933054516092,188.71591483634256 90.78158697055187,189.0 90.8282147849095,188.8579574925534 90.46451783308294,188.48255872111622" stroke="#4dd2ff" stroke-linecap="round" stroke-linejoin="round" stroke-width="0.5"><title>2021-09-20 4.7km</title></polyline><polyline fill="none" points="117.82923706062138,189.0 117.21378844213905,188.1295059445547 116.819901326322,185.04926221705682 116.38908729335526,184.20553403439408 115.50284128275234,183.32162405311828 114.24732610111823,179.91986915307643 113.27491728396853,179.2100460002548 111.3177906771889,178.6475426341931 109.52068071125541,177.16091808355122 109.07755770598305,176.5582289364247 108.79445134144044,175.35284455226792 108.36363730859011,174.56264371615543 105.71720824908698,172.05808580275334 105.16330449248198,171.0 105.0279057964799,171.5625274083868 108.22823861252982,174.89747500493831 108.96677695470862,176.50465646955126 109.80378707579803,177.69664006572566 111.15777403640095,178.76807921860018 113.18875447730534,179.45111833016563 114.08730946033029,180.24129757919582" stroke="#4dd2ff" stroke-linecap="round" stroke-linejoin="round" stroke-width="0.5"><title>2021-09-19 3.1km</title></polyline><polyline fill="none" points="140.9188095893478,189.0 139.7657555109472,187.52097898875945 139.25598423415795,184.2987831589271 138.04224309901474,182.6216333622142 136.97415090008872,179.67667822416115 136.0274328146479,178.8446864787693 134.1339966438827,178.382467147414 132.39834682061337,176.9429763298249 131.88857554388233,176.25624262783094 131.06323157198494,174.28847164106264 129.54605515301228,172.88856751157437 128.00460391136585,171.06603417017322 127.7618556843372,171.0 127.65261898213066,171.19810243634856 131.07536898332182,174.63184265563905 131.7672014303389,176.2826555119682 132.9202555087395,177.68253271207504 133.85483618278522,178.39567343080125 135.9667457579053,179.17484240274644 136.61002855957486,179.66347203662735 137.5324718222837,181.71041931008222" stroke="#4dd2ff" stroke-linecap="round" stroke-linejoin="round" stroke-width="0.5"><title>2021-09-18 3.3km</title></polyline><polyline fill="none" points="160.51440341578564,188.4052906670986 162.09376562328544,187.11876933956228 161.67932305816794,186.7910689239361 162.13857022492448,186.3055856423598 162.08256447286112,186.14780327133485 158.40858713898342,180.38257572629664 152.88641998777166,172.6507890164794 152.4047705202247,171.63118596738786 151.91191990225343,171.0 152.44957512180554,171.67973863508087 153.18885104876244,173.1363120845199 153.49128210986964,173.34265895995486 158.1845641308464,180.24906283061136 158.22936873242725,180.43112584363553 162.17217367619742,186.17207749198133 162.3737943834858,186.7061094517412 162.28418518020771,187.05808412602346 160.53680571657605,188.07759278097365 160.2679781067418,188.5873447698832 160.44719651329797,188.98786309604475 160.6936218222836,189.0" stroke="#4dd2ff" stroke-linecap="round" stroke-linejoin="round" stroke-width="0.5"><title>2021-09-16 4.0km</title></polyline><polyline fill="none" points="186.4586886956822,188.66101629514014 186.0449289510725,188.25642183916352 185.7018111141515,187.07543719152454 183.57246218476212,183.99171126025612 182.6440256848582,182.3185994085943 181.91742320655612,181.50937522113963 181.25137093482772,180.31740191869903 179.23303071741248,177.53973932897497 178.9302796848351,176.77423272951273 178.11285189673072,175.58222182253667 176.7807473532739,173.93088831774367 175.97341126628453,173.37314905549283 173.541311304376,171.0 177.9211095761275,175.34163131688547 179.44495644024573,177.81313359689375 179.47523154353257,177.95529841935786 181.30182944022818,180.42675766188768 181.7458642880665,181.52031071222154 183.4009032662725,183.5105568209401 183.95594682608498,184.63689320185222 185.43942688585958,186.7692544702295 186.08529575547436,188.07052672356076 186.05502065218752,188.1908118246356 185.89355343475472,188.11426677147392 185.97428704350023,188.52979659102857 186.2972214782494,188.85784563630295 186.1256625597598,189.0 186.0348372500157,188.87971554716933" stroke="#4dd2ff" stroke-linecap="round" stroke-linejoin="round" stroke-width="0.5"><title>2021-09-14 4.6km</title></polyline><polyline fill="none" points="13.468986866937485,192.4060635551432 15.43684671918163,191.0 15.70778394525405,191.03090259582677 18.23177810368361,195.40357453619072 20.07129927002825,197.5357988436008 21.63988321024226,200.23967567135696 20.641693430079613,201.1358101052465 19.25848759181099,201.93923776016163 19.244227737828624,202.38730186205066 22.909010216477327,207.4858957132965 24.13535766064888,208.28929933275504 26.10321751300944,209.0 26.531013133004308,208.36654952053505 26.317115323035978,208.93820003644214 25.917839410947636,208.98455001082039 23.094388318480924,207.68674690321495 22.096198538318276,206.58978808901156 19.18718832184095,201.93923776016163 18.588274453766644,201.42937056251685 17.803982483630534,199.9924655065115 17.304887593491003,199.57529770028486 16.164099273330066,197.2885855290806 15.522405843192246,196.94866675141384" stroke="#4dd2ff" stroke-linecap="round" stroke-linejoin="round" stroke-width="0.5"><title>2021-09-13 3.3km</title></polyline><polyline fill="none" points="50.2269541779533,201.63853406824637 50.74770889489446,202.15594333145418 50.43072776286863,202.96901338649332 50.79299191373866,204.1023804130091 50.2269541779533,204.964722273784 49.70619946101215,204.59514746742207 49.29865229106508,204.76761576210265 51.85714285715949,205.35893494298216 50.31752021564171,204.9154456569231 50.72506738547236,204.1516571516404 50.38544474390801,202.72262873357977 50.63450134778395,202.4023284088762 49.887331536388956,200.7761834875564 48.438274932675995,199.815275891684 48.07601078168955,197.74561922758585 48.325067385449074,196.4151187807729 48.053369272267446,200.65299036289798 48.07601078168955,199.49497273587622 48.415633423253894,199.00219804100925 48.551482479902916,199.86455327254953 49.411859838292,200.30804936846835 50.00053908349946,201.39214841875946 49.3212938006036,202.08202777226688 48.09865229111165,202.3530514081358 49.29865229106508,202.08202777226688 50.09110512130428,201.4414255633892 49.434501347714104,200.25877205395955 48.868463611928746,200.0123853709374 49.547708894941024,199.6920824070985 49.11752021568827,199.56888887644163 49.16280323441606,199.24858548073098 48.46091644198168,198.80508795636706 47.50997304590419,198.9529205308936 47.30619946087245,198.6326165353821 47.35148247971665,194.71502704414888 49.18544474395458,193.4091535107873 50.65714285708964,194.44399711460574 49.3892183288699,193.43379268204444 47.532614555209875,194.641109812801 47.215633423184045,198.5833389699401 46.536388140171766,198.50942260792363 45.721293800510466,200.6283517324191 44.06846361188218,202.82118261686992 39.766576819471084,205.4082114934281 36.89110512135085,205.6545941348304 34.19676549860742,206.3937409518694 33.85714285715949,205.9748912928044 34.15148247976322,206.4676555422484 37.63827493262943,205.50676457214286 38.86091644212138,205.58067936176667 34.33261455525644,206.5908464892418" stroke="#4dd2ff" stroke-linecap="round" stroke-linejoin="round" stroke-width="0.5"><title>2021-09-11 3.6km</title></polyline><polyline fill="none" points="72.59240415651584,209.0 72.23663940950064,208.51615852530085 71.9500511410879,207.6990003358951 71.70299228897784,205.6883413241012 71.26816870935727,204.88191937745432 70.74440394289559,204.31204513934063 69.82534501311602,201.76371193280647 68.98534491600003,201.0862992989496 67.63146240654169,200.8282365030318 66.06016810727306,199.58092645485885 64.923697387625,197.33359049999854 62.69028536474798,195.15073770772142 61.30675579298986,192.70977436182147 60.190049781580456,191.62369363485777 59.419226163066924,191.3978738384758 58.83616727212211,191.0 60.45687334187096,191.75273335908423 60.545814528595656,192.21512475215422 61.385814625711646,193.20442226791783 62.24557943100808,194.86040503397817 64.80510913860053,197.4841308492105 65.55616804899182,199.09705326218682 66.18863871035865,199.86049689000356 67.54252121981699,200.892752245476 69.02487433230272,201.33360904337314 69.62769793142797,201.93575272805174 69.80558030499378,202.34434879117907" stroke="#4dd2ff" stroke-linecap="round" stroke-linejoin="round" stroke-width="0.5"><title>2021-09-09 4.2km</title></polyline><polyline fill="none" points="94.18282103855745,205.55718423592043 94.22160053040716,205.35466238910885 93.82604971379624,205.07619425598386 93.50805788079742,204.60364069924253 93.15128655600711,202.44337065411673 92.91085370667861,202.01299941306206 92.391208516201,201.48980079038301 91.9723900044919,200.12272196378035 91.63113047645311,199.41385975101002 91.06494989577914,198.9497213642171 89.82400615737424,198.62904281738156 88.85451886174269,197.84422042107326 88.35038546798751,197.26192930659454 87.96259054978145,196.12265538467182 86.14771033232682,194.35042862250702 84.96105788246496,192.33343188545405 84.11566496067098,191.55700511106988 83.40212231109035,191.34601865043078 82.92125661246246,191.0 82.9522802058782,191.13503179484542 83.75113773753401,191.64139958475425 83.98381468845764,191.97053742832213 84.38712140344433,192.09712865071924 84.94554608571343,192.54441649789078 85.9538128732238,194.27447542441223 87.82298437919235,196.1817291302723 88.57530652059359,197.70075767205708 89.39743174731848,198.48558106693235 90.0334154132288,198.85689345761057 90.13424209196819,198.89064906885324 90.94861142034642,199.06786586212547 91.63888637482887,199.67546418166603 92.41447621132829,201.6670134989472 93.15904245438287,202.74716112955502 93.38396350695984,204.62051764608623 94.13628564836108,205.62469143739872 94.0121912745235,206.5613496883234 93.25986913312227,206.90732058873982 93.36069581189076,207.18578420125414 93.36069581189076,208.16462053562282 91.87931922415737,208.8312369704654 92.08872847998282,209.0" stroke="#4dd2ff" stroke-linecap="round" stroke-linejoin="round" stroke-width="0.5"><title>2021-09-08 5.7km</title></polyline><polyline fill="none" points="117.03741741136764,205.56797890189046 117.0295508671843,205.37112668954796 116.62835711525986,205.0373330335933 116.3215618932445,204.54092015422793 116.06196593609639,202.5210110498956 115.84170269974857,202.11017771446495 115.29891115301871,201.54527946882445 114.48079056086135,199.37981034745462 113.8986662933603,198.90049148213438 112.64788577266154,198.5837975582981 111.51510341427638,197.6679480324383 111.20830819220282,197.2057408139881 110.81498098443262,196.11013105590973 108.95061001961585,194.25270615433692 107.66836332227103,192.1555772582724 106.99970706907334,191.41087325224362 105.88265779896756,191.0 105.8118589016085,191.06847897791886 106.7951769210049,191.62486915293994 107.67622986639617,192.45516945562122 108.50221700270777,193.91032039048878 110.70484936624416,196.1700474858808 111.31843981036218,197.61659176707326 112.51415452201036,198.62659408571926 113.42667364401859,198.94328789105202 113.59187107131584,198.9946435606471 114.00879791151965,199.17438822256372 114.4886571050447,199.62802825603285 115.19664607898449,201.5196022095406 116.03049975947943,202.76922214168007 116.21929681923939,204.63506758996664 117.04528395555099,205.75627200545568 116.9115527048998,206.44953030664328 116.7542218217859,206.60358713642927 117.0295508671843,207.7162136366387 116.85648689579102,207.83603430668154 116.80142108671134,208.09279246282676 116.17209755431395,208.17837838683772 115.64503909586347,208.65765837819345 115.11011409328785,208.76036097227916 114.74038651798037,209.0 114.47292401670711,208.71756823594478" stroke="#4dd2ff" stroke-linecap="round" stroke-linejoin="round" stroke-width="0.5"><title>2021-09-07 5.7km</title></polyline><polyline fill="none" points="139.40164455393096,205.0206127310521 138.5763432457461,203.86758908521006 138.2293415594031,201.49008477656753 137.2352286200039,200.04111332450702 136.31614307232667,197.61252100890124 135.65027497138362,197.08189844249864 134.33729561750079,196.76556477618578 132.92115360009484,195.71451538857218 132.3115560428705,194.84713843229838 131.8613916930044,193.63280142250005 130.49214179534465,192.39804429624928 129.41362304036738,191.0 129.1697840174893,191.14286649824498 131.7113369096769,193.67361964892916 132.43347555433866,195.26552094719227 133.07120838336414,196.03085149348044 134.0465644748765,196.7961777437231 135.45332806830993,197.2451671443996 136.31614307232667,197.92885271023988 136.4380625837366,198.19416260355501 137.24460704397643,200.35743939180247 138.15431416773936,201.71457193399692 138.2293415594031,203.173729449838 138.46380215830868,204.08186855329404 139.13904868316604,204.82674218028114 139.3172387383529,205.24509407714504 139.05464286752976,206.50014206860214 139.26096819457598,207.52049777832144 139.05464286752976,207.6429399505505 139.06402129150229,208.0000623251617 138.4262884624768,207.97965535751428 138.23871998337563,208.2041318337142 136.64438791078283,209.0 136.25049410457723,208.64288024330017" stroke="#4dd2ff" stroke-linecap="round" stroke-linejoin="round" stroke-width="0.5"><title>2021-09-06 4.6km</title></polyline><polyline fill="none" points="158.21940252733475,191.12699579723994 158.1630599651544,191.0 158.12281527787854,191.22333725258432 158.23550040225382,191.39412398796048 158.50916427568882,191.52549806044044 158.48904193204362,191.58680585994443 158.150986558976,191.62621798282998 157.9940322786133,191.84079463045782 158.0543993095198,191.99844227813446 158.02220355971076,192.0728868529368 157.36621515720617,192.38380140591835 157.16499172085605,192.37066420472183 157.12877150230634,192.60275432478375 156.8712055037904,192.7034723922552 156.75047144196287,192.83922255662765 156.51705225580372,192.96183533755539 156.66998206742574,193.0537947546036 156.7866916605126,193.26398716498443 156.89937678485876,193.48731577351282 156.90742572232557,193.69312765785435 157.0482821277692,193.72378042974378 157.36621515720617,193.54424253735488 157.37426409467298,193.72378042974378 157.26962790776452,193.79822280888766 157.20121193940577,194.1047492543803 156.87925444124267,194.25363294841736 156.79071612923872,194.37186384731103 156.89535231614718,194.5951882266745 156.79071612923872,194.96301475793734 157.0563310652069,195.06810762784517 156.66998206742574,195.637357392814 156.73839803578448,195.7161761545358 156.89535231614718,195.68114560688628 156.951694878313,195.82126767168302 157.14889384593698,195.6855244264807 157.30584812628513,195.9394954028612 157.52316943756887,195.926359000081 157.53121837500657,196.00517737252085 157.47085134410008,196.13216230479156 157.14486937721085,196.27228328956335 156.9718172219582,196.4211614682281 156.85913209759747,196.4255402324634 156.84303422269295,196.51749420553824 156.9235235972301,196.68826548646393 157.0603555339476,196.78897652108935 157.25353003284545,196.5437667427359 157.41450878191972,196.55252425250728 157.48694921901915,196.7101592043873 157.47085134410008,197.05170014338364 157.81695565461996,197.2531207883767 157.65195243681956,197.2137124558576 157.50304709392367,197.3450734610342 157.76061309245415,197.30128649207109 157.8370779982506,197.437025989213 157.9779344037088,197.41951123307808 157.8370779982506,197.5027062780282 157.67207478046475,197.4326473006695 157.58756093718694,197.67347468395747 157.3903619695484,197.72601870861035 157.49097368774528,198.35654332484046 157.32999493865645,198.6148813100226 157.0965757524973,198.74623917025747 157.01608637796016,199.07901109676823 156.85108316013066,199.1490681033756 156.81083847288392,199.36799570856238 156.45668522491178,199.79271292746125 156.38022031908622,199.7489277896384 156.20716816380445,199.5256230772684 156.33997563181038,199.18847513274522 156.33595116308425,199.01333257692022 156.24741285109485,198.96078970798044 156.12265432055574,199.12279673571902 155.98179791509756,199.17971801739623 155.97777344638598,199.35486007533837 155.8691127907514,199.46432359543178 154.85897114027466,199.45994505856652 154.4323774552031,199.71389965579874 154.0581018636003,199.62195070473535 153.69589967816137,199.71389965579874 153.913220989416,199.83211952350393 153.0036910571216,199.45118798383555 152.66161121531331,199.52124454498335 152.28733562369598,199.48183773965502 152.0861121873604,199.59567954932936 152.69783143384848,199.5869224949056 153.57919008507452,199.84963355767104 153.98968589524156,200.06418005094747 154.84287326534104,201.13690072248937 154.9515339209902,201.1106302469707 154.9797052020731,200.93987186873346 155.17690416969708,200.6290027731702 155.30568716896232,200.69905792472127 155.35398079369043,200.94425029491322 155.51495954277925,201.07122451158284 155.92947982167243,201.0931165900729 156.03411600856634,200.84354641000027 156.2393639136426,200.6640303594213 156.4526607561711,200.89608758895702 156.57339481798408,200.9705208450905 156.61363950524537,200.92673658823696 156.6377863176167,201.11500866036658 156.5130277870776,201.1325223107233 156.81888741032162,201.20695526623967 156.92754806595622,201.3864696519595 156.9114501910517,201.7892804165749 157.0845023463189,201.79803714154332 157.0845023463189,201.87246925093496 157.02011084667174,202.03884656503942 156.6377863176167,202.51170582371924 156.59754163034086,202.78316033935698 156.480832037254,202.8488346298691 156.33595116308425,202.83132149294033 156.1910702889145,202.54235397722732 156.21924157001195,202.86196947913413 156.480832037254,203.0327222514352 156.56937034925795,203.20785278267067 157.16499172085605,203.4180087287168 157.1851140644867,203.61502924311935 157.27767684520222,203.70259370340136 157.30182365757355,203.84707477658594 157.44268006303173,203.99155549329225 157.6439034993673,203.9871772949955 157.8411024669913,204.1404140406812 157.76061309245415,204.18419589436598 157.72841734264512,204.35056663985233 157.76866202989186,204.52569322971976 157.90951843535004,204.62639078174834 158.2998919018719,204.6526596798867 158.59770258766366,204.56509664026453 158.7586813367525,204.70957558543523 158.84319518001575,204.6789285662453 158.81904836765898,204.8671885736403 158.87941539856547,205.09922914540584 158.79087708657607,205.20430381888218 158.8069749614806,205.3050002040436 159.01222286655684,205.392562137371 159.15710374071205,205.55892945002415 159.22954417781148,205.37504976118362 159.26978886508732,205.3969402306102 159.245642052716,205.8172356568357 159.13295692836982,205.9529554106557 158.971978179281,205.9792237137699 158.9116111483745,206.22001594340327 159.15307927201502,206.4170270313225 159.33015589597926,207.09561570639562 159.4186942079832,207.21819862869233 160.51737417047843,207.70414983216324 160.98421254279674,207.50714307341696 161.8213020380208,207.4458519466607 161.93398716236698,207.5027651379096 161.98630525583576,207.75230693908816 161.93801163110766,208.89055430353255 162.191553160912,208.93871043516265 162.19960209834971,209.0" stroke="#4dd2ff" stroke-linecap="round" stroke-linejoin="round" stroke-width="0.5"><title>2021-09-04 11.1km</title></polyline><polyline fill="none" points="175.93843935086625,208.95906185578497 175.52283779607387,207.3624672552396 175.69915360718733,207.07589755379013 182.86513193079736,201.87662829433975 184.33862835238688,201.0987724554725 184.01118470315123,200.29362002802372 183.63336510793306,197.55061714052863 183.00366578239482,196.13133619879954 183.28073348564794,195.8720433266426 180.87528206239222,192.02354902858497 181.3286655767588,191.34118363099697 182.13468071329407,191.0 181.6812971989857,191.04094206854643 181.16494375211187,191.45036226167576 180.7493421973195,191.96895988826873 182.09689875377808,194.58922067901585 183.17998159356648,195.7219262366125 183.93562078411924,197.61885153026378 184.47716220398434,200.79854653115035 183.0666357150185,201.8902748591936 183.00366578239482,202.01309389801463 181.99614686169662,202.5180157674331 176.9963342176634,206.24347831662453 176.5051687437226,206.31170954073605 177.550469623995,205.73856648588844 177.7393794216332,206.27077080924937 176.75704847392626,207.37611342055607 175.95103333739098,207.4034057482495 175.9636273238575,208.45415734159178 176.35404090565862,208.8908315955341 176.70667252794374,209.0 177.07189813663717,208.71343280258588 176.9963342176634,208.4132190781238 177.1978380017681,208.03112818782392" stroke="#4dd2ff" stroke-linecap="round" stroke-linejoin="round" stroke-width="0.5"><title>2021-09-03 4.3km</title></polyline><polyline fill="none" points="24.924004500498995,229.0 24.444844011275563,227.477202568145 24.760081175190862,225.62513459584443 24.961832960078027,225.36447167595907 23.864807629666757,224.15718595169892 23.32259970769519,220.63131736495416 21.960775159590412,218.7791802443826 20.926797261927277,215.89804086572258 20.1702280685422,214.9650907907053 17.82486356893787,214.29281499917852 15.933440585446078,212.74245530563348 15.51732752902899,212.05645125666342 15.227309338224586,211.0 15.038167039921973,211.3567244818405 16.009097504778765,212.92081593784678 17.320484106661752,214.19677539911936 18.08966278663138,214.66325298517768 19.8297719314578,215.15716913546203 20.825921369483694,216.0489588141063 21.985994132701308,219.03985252602433 23.37303765397519,221.1800951409532 23.38564714055974,222.62062898838485" stroke="#4dd2ff" stroke-linecap="round" stroke-linejoin="round" stroke-width="0.5"><title>2021-08-30 3.1km</title></polyline><polyline fill="none" points="47.93043227313319,224.7872279405783 47.47821706056129,224.44897055174079 47.139055651205126,223.90570693714108 46.74336734012468,221.34311366993643 45.82009461452253,220.1028013132236 44.89682188880397,217.70414886217623 44.19965676940046,217.07885221839388 42.777063079876825,216.709823351448 41.16604638507124,215.4284653988434 40.77035807410721,214.23935449424607 40.35582746256841,213.5730378358203 38.44333395938156,211.66632917802053 37.962855295976624,211.0 37.78385344106937,211.15376855962677 39.978981452062726,213.23475275310193 40.431196664634626,213.8805690040972 41.00588683062233,215.19269422976504 41.608840447384864,215.96151176332933 42.673430426977575,216.79182985222724 44.350395173649304,217.40687704322772 44.87797958828742,217.96041715376487 45.24540444847662,218.88297903360944 45.339615951117594,219.016237458236 45.65051390975714,220.07204962451215 46.74336734012468,221.7838831252593 46.828157692507375,223.23943729890016 46.99773839721456,223.95695831355988 47.864484221325256,225.16648523194453 47.66664006584324,226.5400028528893 47.91158997261664,227.52400701145234 47.77027271868428,227.70850700447772 47.016580697731115,227.8622568089122 46.86584229359869,228.23125563567737 46.30057327786926,228.57975361524586 45.19829869718524,229.0" stroke="#4dd2ff" stroke-linecap="round" stroke-linejoin="round" stroke-width="0.5"><title>2021-08-29 4.5km</title></polyline><polyline fill="none" points="70.64205444173422,225.57401975661196 70.62347661424428,224.88679201886407 70.75352140632458,224.67455921683722 70.28907572041498,224.19956078498217 69.90823025797727,223.50221963565127 69.58311827783473,221.24846927295584 68.61707125115208,219.92449973162002 67.68817987933289,217.51908674402512 67.03795591910603,216.97331480887078 65.76537473971257,216.68021415558906 64.71572748955805,215.91208528738935 63.84256960003404,215.02266745505767 63.378123914124444,213.64810110023973 61.39029637846397,211.73783491537324 60.88869503769092,211.0 60.675050022196956,211.07075146803982 63.16447889863048,213.5773509827486 64.01905896072276,215.34609279915458 64.55781595630106,215.98283418161736 65.58888537908206,216.76106957175944 66.77786633500364,217.09459765173233 67.2516009346582,217.36748364997766 67.39093464036705,217.50897987639473 67.94826946349349,218.22656559947063 68.4591597179533,219.88407297655067 69.48094022698933,221.3697482767384 69.80605220707366,223.76498628850823 70.6977879240294,225.07881188578176 70.56774313200731,225.92773855294217 69.5924071915797,226.43304951253958 69.78747437964194,227.1505878277021 69.74102981109172,227.9893953927749 69.01649454107974,228.46438049968128 68.10618099669227,228.71703147196968 67.73462444794131,228.60586510236317 67.80893575766822,228.44416840151098 67.73462444794131,228.61597113975586 67.6603131382144,228.53512281955045 68.07831425551558,228.81809172857902 68.1526255653007,228.65639528170868 68.03186968690716,229.0" stroke="#4dd2ff" stroke-linecap="round" stroke-linejoin="round" stroke-width="0.5"><title>2021-08-28 4.8km</title></polyline><polyline fill="none" points="95.22323161439272,229.0 94.69355100166285,228.63814142192132 94.22546115797013,227.90101983507338 93.75737131416099,224.818478515881 93.37550854688743,223.9875235175423 92.45164701313479,222.94212304390385 91.40460394159891,219.79248216658016 90.44378794642398,218.9883096615522 88.57142857147846,218.5192073659855 86.82225073419977,217.12529615146923 86.0831615072093,216.18708057091862 85.4795719718677,214.5384898573684 83.15144090674585,212.27332826826023 82.23989752680063,211.0 81.9196255284478,211.13403498100524 85.19625443482073,214.3642476755922 86.63747842749581,217.13869919558056 88.30042918812251,218.5192073659855 90.56696948432364,219.35018773569027 91.33069501887076,220.12755297789408 91.66328517108923,220.9451231265848 91.76183040131582,221.1863726212614 92.31614732154412,222.94212304390385 93.42478116205893,224.577233913471" stroke="#4dd2ff" stroke-linecap="round" stroke-linejoin="round" stroke-width="0.5"><title>2021-08-27 3.5km</title></polyline><polyline fill="none" points="116.43553906638408,224.69078746991 116.08056748012314,224.41637543907564 115.66020639112685,223.6236264584295 115.39864838018548,221.35715192845964 115.04367679392453,220.73716800338298 114.41780583921354,220.1781636775995 113.53971823112806,217.71851731120114 112.82043370103929,217.04769693473645 111.3258164957515,216.65130151843186 110.04605051368708,215.5942414182864 109.0371839000727,213.5817388670912 107.09418153320439,211.6505215061261 106.6738204442081,211.0 106.39357971819118,211.14230184579355 108.84101539186668,213.5410819425233 109.65371349727502,215.29948280791723 110.4944356752676,216.2040847879034 111.41923007107107,216.86474534792796 112.81109234347241,217.2611401412214 113.64247316395631,218.1860568262273 113.67983859404922,218.30802339152433 114.15624782827217,219.781777397955 115.21182122954633,221.45878836751945 115.3893070226186,222.13975054745242 115.39864838018548,223.15610566014948 115.66954774869373,224.111472532466 116.46356313896831,225.08715942474373 116.23937055817805,226.2254519425187 116.44488042389276,227.4348772926969 116.15529834036715,227.98368860629125 115.40798973775236,228.0853200877682 113.79193488444434,229.0 113.45564601331716,228.72559667288442 113.50235280091874,228.9898369236762" stroke="#4dd2ff" stroke-linecap="round" stroke-linejoin="round" stroke-width="0.5"><title>2021-08-26 4.6km</title></polyline><polyline fill="none" points="139.41975414648186,224.82985334705154 138.86548451834824,224.4107874541878 138.47091969836038,223.77707561352872 138.1796932835132,221.4875115637551 137.9072556697065,220.92533595147688 137.2120700344094,220.14850766168092 136.2632355861715,217.62378520747734 135.69957155751763,217.0922587440582 134.16828427970177,216.6833908261542 132.824885011476,215.6816592540781 132.43971459195018,215.10923791399546 131.91362816520268,213.7395056819223 129.79049365734681,211.69510366002214 129.3865344368387,211.0 129.15167442488018,211.091999217002 131.65997935232008,213.6475082485922 132.54305299714906,215.42611430943361 133.37915463966783,216.36651734783663 134.2152562821284,216.90826833245956 135.62441635370487,217.3273572426333 136.21626358380308,217.87932604013622 136.5356731999782,218.48240050961613 136.6014340033289,218.5641731140422 137.01478762435727,219.9236354900786 138.10453807970043,221.63061044109054 138.22666528593982,223.35800649127486 138.48970849928446,224.16547999359318 139.23186613694998,225.06493852901622 139.025189326494,226.6491976851903 139.26944373891456,227.5179771653202 139.08155572932446,227.93703352788725 138.30182048975257,228.14145079935406 137.465718847292,228.67293427394907 136.54506760049844,229.0 136.20686918328283,228.79558401293616 136.23505238472717,228.68315508971864 136.4323347947793,228.70359671900223" stroke="#4dd2ff" stroke-linecap="round" stroke-linejoin="round" stroke-width="0.5"><title>2021-08-25 4.7km</title></polyline><polyline fill="none" points="162.8792528664926,226.96018236286181 161.9418288670713,225.5809722638951 161.76073559449287,224.9551081686077 161.6755152309197,223.19340306456434 161.27071850385983,222.24300120142289 160.48243014072068,221.31577425151772 159.45978577778442,218.63837527837313 158.596929596446,217.91975815154728 156.87121723388555,217.44454176833096 155.4437761438894,216.2275175521645 155.08158959867433,215.77547755018168 154.27199614461279,213.95571342452604 151.98169887333643,211.61432939577207 151.64081741898553,211.0 151.40646141918842,211.25500495074084 154.15481814474333,213.95571342452604 155.03897941688774,215.98411156122165 155.97640341630904,216.95773322957393 156.9883952338132,217.73430802916118 158.46909905108623,218.12838927382836 159.25738741416717,218.7426903906162 159.35326032323064,218.88177709761658 160.30133686808404,221.32736462267349 161.51572704914724,223.18181283307786 161.59029486734653,225.11736947315512 161.78204068535706,225.7316428721242 162.82599013927393,227.06449187088583 162.52771886670962,228.69866499432828 162.62359177571489,229.0" stroke="#4dd2ff" stroke-linecap="round" stroke-linejoin="round" stroke-width="0.5"><title>2021-08-24 4.2km</title></polyline><polyline fill="none" points="184.85121957823867,224.64979653859336 184.1615168908611,223.75742985384568 184.02171229204396,222.18563333673956 183.71414217469282,220.97888686657825 182.85667396878125,220.07635517213203 182.49318201187998,218.70733494831074 181.99920576281147,217.62224983431952 181.2908624621923,217.04421029172954 179.7902931018034,216.62842593807727 178.63457508513238,215.66501826430613 178.17788006237242,215.10725279591134 177.55341952107847,213.60634522367036 176.1926547594485,212.3690981007676 175.15810072835302,211.0 174.99033520981902,211.2738207270595 177.21788848401047,213.4542252849642 177.7677865725709,214.26552965099108 178.2058409821475,215.33035925879813 178.79302029701648,216.0300998730745 179.85553524794523,216.89209421277337 181.36542491498403,217.3484419373126 182.2228931208374,218.4233882812041 182.78211151604773,219.8532565233836 182.8939551950898,220.44142489605292 183.24812684539938,220.71522654360888 183.33200960466638,221.0701537819332 183.6489000286092,221.31353192243114 183.84462646691827,221.7191611852977 183.86326708010165,223.0780103702491 184.04967321187723,223.92981933034753 184.94442264409736,225.00471347339044 184.96306325728074,225.25822500067443 184.79529773874674,225.42047212931357 184.98170387046412,225.42047212931357 184.7393758991966,226.4345122833547 185.00966479018098,227.397843403327 184.56229007407092,227.98597903724294 182.5584241580218,228.85803752182983 182.27881496038754,228.929018779505 182.33473679987947,228.81747678646934 182.3160961867543,229.0 181.94328392331954,228.7769160389871" stroke="#4dd2ff" stroke-linecap="round" stroke-linejoin="round" stroke-width="0.5"><title>2021-08-23 4.5km</title></polyline><polyline fill="none" points="27.287991498422343,245.461680540815 29.0,244.06262513685942 28.043570669484325,242.91228038995905 27.010626992559992,241.03647306504718 24.208289054164197,236.9013187466262 22.79277364508016,237.22260070650373 22.438894792750943,237.08786965037143 21.09032943675993,237.5438819408373 20.65037194470642,237.56460973748472 19.818278427177574,236.5800360612484 17.58979808713775,234.538319459185 15.7630180658889,237.1293253735348 15.303931987204123,237.3780594588825 14.950053134933114,237.39878727967152 14.376195536693558,237.160417157982 12.530286928813439,237.53351804136037 11.994686503720004,236.25875265029754 11.35387885227101,236.1862046828901 11.0,235.81310026615392 19.043570669484325,236.3002086150591 20.54516471840907,237.67861256511242 20.717321997857653,237.57497363468428 20.918172157311346,237.77188753797236 23.23273113707546,236.84949900773063 24.648246546217706,236.59040003014525 25.30818278429797,237.56460973748472 25.69075451651588,237.80297918199358 25.987247608951293,238.3937191275545 26.035069075471256,238.58026807448186 25.55685441021342,238.90154624304705 25.575982996844687,239.08809452413698 27.66099893732462,241.98992518210434 28.646121147670783,243.68954137292894 28.68437832093332,243.87608337716665 28.253985122253653,244.12480566911108 27.76620616368018,243.88644681467122 27.66099893732462,244.1869861741725 27.34537725825794,244.11444224895968 27.450584484555293,244.58079540864128 26.972369819355663,244.88133330183337" stroke="#4dd2ff" stroke-linecap="round" stroke-linejoin="round" stroke-width="0.5"><title>2021-08-21 5.0km</title></polyline><polyline fill="none" points="47.693667281535454,245.8386990032377 47.90924879658269,244.95148200062977 46.98131097096484,243.65633876706124 46.72823701851303,241.35156525426282 46.625132815679535,241.0660153799181 45.71594120876398,240.04618951617158 44.862988257955294,237.6699656470155 44.10376640059985,237.06825431606558 42.74466554494575,236.73170275195298 41.376191579853185,235.67104996072885 41.06687897135271,235.23250841343543 40.4388806449133,233.67210495035397 38.32993104122579,231.65273276419612 37.96437977661844,231.0 37.80503691767808,231.26517306265305 40.223299129866064,233.67210495035397 41.02001342456788,235.29370034196472 41.7323697351967,236.16058304412581 42.697799998219125,236.89487937170634 44.24436304089613,237.37420956213464 44.356840353109874,237.47619449150807 44.862988257955294,238.00651489387383 45.537852131121326,239.8116284880889 46.21271600428736,240.9130419868452 46.23146222298965,241.22918680992734 46.550147940870374,241.4637453983305 46.74698323721532,242.0858336125675 46.85008744004881,243.77871503213828 47.80614459369099,245.24722164313425 47.57181685999967,246.3893825142368 47.84363703109557,247.60291795435478 47.57181685999967,248.021024301328 46.9531916428823,248.11280357171927 46.118984910834115,248.69407084932027 45.23791263194289,249.0 44.937973132764455,248.84703551047278" stroke="#4dd2ff" stroke-linecap="round" stroke-linejoin="round" stroke-width="0.5"><title>2021-08-19 4.7km</title></polyline><polyline fill="none" points="70.61346483003581,245.17737042978115 70.73559201788157,244.80941113841254 70.22829446807737,244.3187972083033 69.93706809688592,243.70552731804491 69.63644732657121,241.47729020991392 68.76276821293868,240.17917202031094 67.82332830585074,237.80777465547726 67.23148116434459,237.1433671480263 65.65322212036699,236.7447210921382 64.26285105780698,235.661215676344 63.87768069584854,235.0887942505433 63.26704475627048,233.63728630788682 61.24724895594409,231.6644373967647 60.80571219959529,231.0 60.69297941069817,231.27599746506894 63.163706366496626,233.6986179415835 63.896469494036864,235.34433982638438 64.58226062625181,236.13141719556734 65.57806692778831,236.8776032400565 67.043593182927,237.33757890756533 67.54149633366615,237.8282179121452 67.62604592530988,237.83843953933683 68.65942982316483,240.41426520563255 69.44855934515363,241.5488396726796 69.88070170243736,244.12459537426184 70.7074088206864,245.2386968819992 70.56649283465231,246.12792734567483 69.56129213399254,246.70030251356366 69.73978571634507,247.12958231592347 69.80554650985869,248.2436593204693 68.0863714797888,249.0" stroke="#4dd2ff" stroke-linecap="round" stroke-linejoin="round" stroke-width="0.5"><title>2021-08-18 4.6km</title></polyline><polyline fill="none" points="93.35690486599924,246.68148968933383 93.23539863195037,246.17303915897355 93.59991733403876,244.739198419491 92.6746006286703,243.85448063048534 92.60917419492034,242.22739839807764 92.34746846009512,241.23080091152224 91.34737868758384,240.1731792593855 91.0108998856158,238.871479772999 90.41271534882253,237.64095551257924 89.8612639788771,237.09179232916358 88.22560313605936,236.66466387434775 87.08531386271352,235.69853503532067 86.58994229318341,235.0374955557927 86.15065052401042,233.7764267057937 84.22524404607248,231.84412108205288 83.6644460427924,231.0 83.54293980874354,231.2034031500225 86.01979765651049,233.58319738013233 87.3189796974766,235.98328951235453 88.59012183820596,236.91890716395574 89.90799714584136,237.31552574586385 90.49683504929999,237.84434872100246 91.42215175472666,240.1731792593855 92.30073529318906,241.4545275140481 92.40354826045223,241.7799473693085 92.60917419492034,243.80363460555964 92.86153329646913,244.34260150206683 93.53449090034701,245.14596328660264 93.34755823260639,246.42726466187014 93.51579763361951,247.56618907871598 93.34755823260639,247.6475404576413 93.24474526534323,247.99328327496187 92.55309439462144,248.14581659128453 91.70255075633759,248.74577930836676 90.89874028495979,249.0 90.65572781692026,248.74577930836676" stroke="#4dd2ff" stroke-linecap="round" stroke-linejoin="round" stroke-width="0.5"><title>2021-08-17 4.8km</title></polyline><polyline fill="none" points="116.37380593892885,247.15212298347615 116.12044477800373,246.30474559773575 116.50517839269014,244.7426987965664 115.53865248267539,243.7625818706947 115.50111749587813,242.077989456433 115.24775633506943,241.14890231772733 114.32814915850759,240.09729056093784 113.48361195565667,237.78984218546248 112.85490092681721,237.08534795807645 111.3628852016991,236.74841465028294 110.01162567705614,235.68655878175196 109.52367084875004,234.99226393723802 109.09201850055251,233.74660844696336 107.77829396270681,232.54178329822753 106.5959418786806,231.0 106.35196446446935,231.0918948571998 108.99818103358848,233.5934532981555 109.74888076947536,235.26794025437994 110.42451053182594,236.12559634500212 111.30658272147411,236.79946520493104 111.89775876351632,237.0138773259605 112.12296868429985,237.07513787007338 112.6766097395448,237.1976588757534 113.49299570231233,237.93278259925137 114.49705659912433,240.5056844388164 115.32282630860573,241.62876130016957 115.59495496290037,243.87488729220058 116.47702715260675,245.15107877139235 116.2048984983121,246.49872401787434 116.45825965917902,247.49923991160176 116.26120097853709,247.9382394681743 115.56680372281699,248.06075072030944 114.7879527467885,248.52016693642508 114.2999979184242,248.6426776662047 113.85896182362922,249.0 113.5774494226207,248.71414220782026" stroke="#4dd2ff" stroke-linecap="round" stroke-linejoin="round" stroke-width="0.5"><title>2021-08-16 4.9km</title></polyline><polyline fill="none" points="138.9677611826919,246.2981206329714 139.22917157772463,245.3839387495973 139.15448289341293,245.0182642727741 139.33186851866776,244.7440077688516 138.416932135995,243.94155037179735 138.35157953720773,242.46867318702425 138.10884131328203,241.2090965739626 137.16589667397784,240.06124641808856 136.24162420578068,237.5420368273626 135.47606519167311,237.04428423946956 134.21569364418974,236.77001162532542 132.88063341233646,235.7338656366046 132.21777133917203,234.8907213967832 131.91901660198346,233.6818669021959 129.83706952712964,231.6704716944223 129.45429002010496,231.0 129.2395600527525,231.10158683331247 129.37960133585148,231.2742842753869 131.80698357551591,233.54980651508959 132.6752395305084,235.39864024081908 133.8702584793209,236.6074794442975 134.04764410451753,236.73953685620654 135.42938476405106,237.14586654851882 136.30697680450976,237.86709875661472 137.33394621365005,240.4878821226157 138.0061443723389,241.3309915956852 138.15552174096229,241.71699177566916 138.416932135995,243.9110772126005 139.2945241765119,245.1401558744692 139.06112203805242,246.23717536557524 139.31319634756073,247.53733513718907 138.4916208203067,247.73032654216513 138.3982599649462,248.16709555117268 136.68042022601003,249.0 136.31631289009238,248.70543681537674" stroke="#4dd2ff" stroke-linecap="round" stroke-linejoin="round" stroke-width="0.5"><title>2021-08-13 4.8km</title></polyline><polyline fill="none" points="162.13589681690792,247.29795006629865 161.8173914718791,246.3195165277357 162.2014714468387,244.78050788897235 161.18038078176323,243.82244075078052 161.21785199886654,242.41590444718167 160.92745006654877,241.10108563870745 160.11245109536685,240.02068239008804 159.41923357965425,238.27774965141725 158.84779751935275,237.36040767225495 158.49182095727883,237.08520387364842 156.96486886177445,236.71826461041928 155.61590504739434,235.6378265940948 155.23182507243473,235.0160612083564 154.78217046766076,233.74194294221525 152.78682815888897,231.77468092554045 152.3090701412293,231.0 152.08424283884233,231.1427047121906 154.5667109695496,233.47692484517756 155.00699777004775,234.4452576991389 156.19670891191345,236.17804667373275 156.34659378015203,236.27997475033044 157.19906396843726,236.91192712254997 158.31383267615456,237.1361675820226 159.14756725588813,237.8802355523876 159.92509501002496,239.95952723293885 161.0492315220181,241.67186125393346 161.1241739561665,243.05802064828458 161.37710467138095,244.10782315611868 162.15463242545957,245.086272578621 161.96727634017589,246.78835014177457 162.18273583828704,247.55274931379972 161.92043731885497,247.94004325741116 159.64406088204123,249.0 159.24124529858818,248.87769771974854" stroke="#4dd2ff" stroke-linecap="round" stroke-linejoin="round" stroke-width="0.5"><title>2021-08-12 4.9km</title></polyline><polyline fill="none" points="185.22989688062808,248.21018168445153 185.13787523464998,247.665093358155 185.49573719128966,246.18555782882322 184.5039483400178,245.17323556331394 184.28923116606893,244.2832762304024 184.37102818471612,243.54905577056343 184.22788340208353,242.53671555417532 183.88024607277475,241.7691123336699 182.980478867481,240.96813083460438 182.09093628951814,238.3204112797248 181.43656014028238,237.68628657146473 179.57567796570947,237.18565989099443 177.97041147446726,235.88402263073658 177.54097712651128,235.30551352296607 177.2751368159079,233.97048391135468 176.00728302664356,232.89132621092722 175.00526954804081,231.76765883473854 174.64740759140113,231.0 174.50426280876854,231.289263214916 177.1115427785553,233.88148151086352 177.88861445582006,235.52801729242492 178.39984582248144,236.24002711637877 179.82106902170926,237.39703580617788 180.13803246896714,237.4971611347719 180.36297427030513,237.59728639594687 181.44678476755507,237.88653677157708 182.06026240752544,238.55403549033508 183.0929497681209,241.11275281340932 184.08473861939274,242.6257127726276 184.44260057603242,245.21773339011997 185.38326629059156,246.46366713456518 185.14809986198088,248.21018168445153 185.41394017264247,249.0" stroke="#4dd2ff" stroke-linecap="round" stroke-linejoin="round" stroke-width="0.5"><title>2021-08-11 4.4km</title></polyline><polyline fill="none" points="17.415650132577866,268.105906666402 18.215825405321084,268.62353995873127 18.756484373356216,268.60001119118533 24.50909579382278,265.8471332403715 24.098194978083484,262.52953036269173 24.530722152558155,260.41189320749254 22.389712638920173,257.0001144662965 22.02206454053521,252.67063160630642 21.394900137674995,251.09412032639375 20.508219429990277,251.0 15.750420510885306,252.694161565596 15.426025129971094,252.4118019384914 17.653540078550577,251.72943179297727 18.496968068764545,254.2236051399086 18.929495243239217,254.5294929621159 19.189011547830887,253.94124688603915 18.345583557733335,251.8470819237118 20.681230299756862,251.0 21.394900137674995,251.0705902474583 22.02206454053521,252.81181133538485 22.000438181916252,255.75304127586423 22.324833562714048,256.85893661752925 24.55234851129353,260.10601110657444 24.098194978083484,263.11776037549134 24.573974870028906,265.4236114171799 24.119821336702444,266.55300167843234 22.389712638920173,266.85887750962866 18.43208899255842,269.0 17.35077105637174,267.8470897008374" stroke="#4dd2ff" stroke-linecap="round" stroke-linejoin="round" stroke-width="0.5"><title>2021-08-10 3.1km</title></polyline><polyline fill="none" points="48.194804456143174,265.938136305238 47.47627308705705,265.1749852933426 47.18543896143092,262.8948110843048 46.93737456022063,262.382929496358 46.235951080860104,261.6755987444267 45.739822278381325,260.1306254813171 45.32067897974048,259.3488244686232 44.97852118493756,258.9579221192471 43.46447294289828,258.5763257834551 42.189935157308355,257.62698347760306 41.81356158296694,257.10577285531326 41.471403788164025,255.88650375956786 39.760614814120345,254.2018451080221 38.143919233669294,251.6143138844709 37.45960364406346,251.0 37.46815758891171,251.242002801715 38.52884675285895,252.47062514347635 39.213162342464784,253.7085429503204 40.97527498571435,255.35597835914814 41.274663056159625,255.76550693767058 42.02741020472604,257.31984176812693 42.3952298341319,257.81312959899515 43.592782115971204,258.73454879649216 44.644917335011996,258.97653654468013 45.4318802630587,259.6373468431484 46.19318135647336,261.6011426417972 47.17688501658267,263.11817693519697 47.34796391398413,265.00746371284913 48.25468207022641,266.3941633337381 48.02372555871261,267.32482555181923 48.21191234586877,268.5067565332429 47.844092716433806,268.6649669148537 47.76710721262498,268.8697094629897 47.24531657551415,269.0" stroke="#4dd2ff" stroke-linecap="round" stroke-linejoin="round" stroke-width="0.5"><title>2021-08-08 5.0km</title></polyline><polyline fill="none" points="71.27250201144489,269.0 71.06412552436814,268.1621575353347 71.29062170593534,266.93002658546175 71.45369895675685,266.7033132355864 70.59301346656866,265.81617029046174 70.24873927049339,263.31242353605194 69.3880537803052,262.30696853467816 68.48206905380357,259.8721584531304 67.83881989796646,259.2609844835315 66.6338602117612,259.0342579349308 65.65539670712315,258.3836491504335 64.68599304975942,257.36829871677764 64.15146206109785,255.88961903605377 63.10957962559769,255.04183519765502 62.21265474637039,254.03631705816224 60.65436101675732,251.4534803718052 60.05641109729186,251.0 59.9748724718811,251.1084411005504 61.09829353279201,252.23227997472713 62.03145780105842,253.84901381132659 62.15829566278262,254.04617511638935 64.13334236654919,255.90933487434086 64.84907030052273,257.4865923740217 65.49231945635984,258.29492952172586 66.507022350037,259.06383098514925 67.61232371639926,259.29055748282553 68.53642813739134,260.138313972835 69.47865225299029,262.56326171478577 70.2849786595325,263.6968601850167 70.35745743772713,265.2050238976808 70.56583392480388,265.95417069647374 71.3087414005422,266.93002658546175" stroke="#4dd2ff" stroke-linecap="round" stroke-linejoin="round" stroke-width="0.5"><title>2021-08-07 4.9km</title></polyline><polyline fill="none" points="92.89366787153995,266.90446585792233 92.52679344825447,265.8317417608923 92.88220304582501,264.53448479634244 92.79048443998909,264.1103793687071 93.00831612886395,263.82348390888365 91.86183355591493,262.65094950658386 91.79304460150888,260.6925491906586 91.49495913251303,259.27051161412965 90.33701173384907,258.17279010111815 89.28224776673596,255.05422363635444 88.4682451399276,254.4180289121141 87.19564948393963,254.18101457050943 86.31285790278343,253.71945935906842 84.92561398941325,252.5468538842979 84.38676718017086,251.78590336437628 84.13454101403477,251.0 84.98293811810436,252.63417585287243 86.03770208521746,253.65708693518536 86.94342331786174,254.16854012213298 88.2962727539707,254.50534990041342 89.25931811524788,255.4284546927811 90.15357452217722,257.7985652058851 91.47202948108315,259.7944216062024 91.62107221555198,260.28090798172343 91.62107221555198,260.8048147984955 91.89622803311795,262.8630042114237 92.91659752302803,264.2101689781557 92.77901961427415,265.3327979689493 91.60960738983704,266.1435808727256 91.85036873014178,266.84209836683294 91.70132599573117,267.21630296357034 91.80450942722382,268.05202353096684 91.40324052673532,268.05202353096684 89.71791114442749,269.0 89.50007945555262,268.66321950318525" stroke="#4dd2ff" stroke-linecap="round" stroke-linejoin="round" stroke-width="0.5"><title>2021-08-06 3.9km</title></polyline><polyline fill="none" points="116.8170026136795,269.0 116.70146120426944,268.1771891267854 117.11110801942414,266.4287013058929 116.05022780562285,265.217318922485 115.90317510272143,262.90880891388224 115.69309981289553,262.34881855433923 114.62171583453892,261.14883229845145 114.01249749399722,259.13740561711893 113.51882056274917,258.2345407079556 112.89909845765214,257.74310566579516 111.27101496118121,257.3430992313806 109.54839758429443,256.15450250080903 109.17026206251467,255.48019831931742 108.76061524730176,253.9944328339334 106.59683976165252,251.89147851000598 105.96661389205838,251.0 105.74603483773535,251.16000934664044 108.56104372197296,253.91442966683826 109.5168862908613,255.93735402167658 110.67230038507842,257.0230933294224" stroke="#4dd2ff" stroke-linecap="round" stroke-linejoin="round" stroke-width="0.5"><title>2021-08-05 3.0km</title></polyline><polyline fill="none" points="139.85341984278057,269.0 139.41047564486507,267.85685137436667 139.82251675921725,266.0188294142572 138.79241397342412,265.14464032462274 138.79241397342412,263.4298699846113 138.56579136056826,262.320302245309 138.30826566414908,261.83836622245144 137.4223772683763,260.8969053322944 136.608596067701,258.58805952545663 135.76391178328777,257.6017456119298 134.0127370475093,257.20945986350125 132.52938903606264,256.01017991687695 131.92162839241792,255.001432338031 131.57139344525058,253.8693852964352 129.51118787372252,251.89668881209218 128.9034272301942,251.0 128.7180087286979,251.03362592736084 128.7489118122612,251.23538133299735 129.80991768161766,252.10965161579952 131.47868419456063,253.88059372494172 132.48818492464488,255.86447235313244 133.27106304175686,256.64904986887996" stroke="#4dd2ff" stroke-linecap="round" stroke-linejoin="round" stroke-width="0.5"><title>2021-08-04 3.0km</title></polyline><polyline fill="none" points="161.59371239272878,269.0 161.48103251302382,267.97467142775713 162.40295880183112,267.4285696341685 162.64880581217585,266.0242986870726 161.69614864705363,264.9878044969955 161.35810900782235,262.2572207600897 161.0815311211627,261.71109800587874 160.30301558837527,260.84175561334996 159.68839806254255,258.85785268916516 159.2274349181098,258.099950213742 158.5103811379522,257.54266652111255 156.96359369781567,257.1525666954549 155.46802438487066,256.0268443265377 154.976330364123,255.32465675711865 154.53585447056685,253.9091257185355 153.3168630442815,252.88369325431995 151.80080648045987,251.0 151.63690847356338,251.06687709157995 151.72910110244993,251.31209283717908 152.7944381472771,252.21492914691044 154.35146921285195,253.89797975147667 155.43729350855574,256.04913594116806 156.04166740900837,256.584133691591" stroke="#4dd2ff" stroke-linecap="round" stroke-linejoin="round" stroke-width="0.5"><title>2021-08-03 3.1km</title></polyline></svg>