<?xml version="1.0" encoding="utf-8" ?>
<svg baseProfile="full" height="300mm" version="1.1" viewBox="0,0,200,300" width="200mm" xmlns="http://www.w3.org/2000/svg" xmlns:ev="http://www.w3.org/2001/xml-events" xmlns:xlink="http://www.w3.org/1999/xlink"><defs /><rect fill="#222222" height="300" width="200" x="0" y="0" /><text fill="#FFFFFF" style="font-size:12px; font-family:Arial; font-weight:bold;" x="10" y="20">Over 3km Runs</text><text fill="#FFFFFF" style="font-size:4px; font-family:Arial" x="10" y="280">ATHLETE</text><text fill="#FFFFFF" style="font-size:9px; font-family:Arial" x="10" y="290">phh95</text><text fill="#FFFFFF" style="font-size:4px; font-family:Arial" x="120" y="280">STATISTICS</text><text fill="#FFFFFF" style="font-size:3px; font-family:Arial" x="120" y="285">Number: 94</text><text fill="#FFFFFF" style="font-size:3px; font-family:Arial" x="120" y="290">Weekly: 3.9</text><text fill="#FFFFFF" style="font-size:3px; font-family:Arial" x="141" y="285">Total: 346.1 km</text><text fill="#FFFFFF" style="font-size:3px; font-family:Arial" x="141" y="290">Avg: 3.7 km</text><text fill="#FFFFFF" style="font-size:3px; font-family:Arial" x="167" y="285">Min: 3.0 km</text><text fill="#FFFFFF" style="font-size:3px; font-family:Arial" x="167" y="290">Max: 11.1 km</text><polyline fill="none" points="25.596537949400954,35.595438524891506 25.788282290275674,35.880866845240234 28.964047936082352,37.904800076881656 24.69773635151796,44.85865292161179 19.2450066577876,41.66717932627944 18.741677762998734,41.20012964379566 15.326231690996792,39.37084000313189 12.701731025241315,37.41179280557844 11.61118508654181,36.17926869408984 11.0,35.14134707838821 12.114513981330674,36.93175810674438 15.31424766976852,39.40976125372981 16.165113182447385,39.721130953970714 22.504660452716053,43.61320657141914 24.793608521926217,44.845679566744366 29.0,37.93074779045128 28.988015978655312,37.77506145274674 25.788282290275674,35.8419448283239" stroke="#4dd2ff" stroke-linecap="round" stroke-linejoin="round" stroke-width="0.5"><title>2022-01-07 5.0km</title></polyline><polyline fill="none" points="38.84303068066947,31.131489300663816 42.54743072245037,33.48513168137288 38.30862542876275,40.5195793666353 44.64861500845291,44.27993875017273 44.01704516529571,45.45010464004008 45.03727337351302,45.94972373568453 47.405660285498016,47.72467520383361 46.74979929445544,49.0 47.405660285498016,47.895595541223884 47.38136913761264,47.4880160097091 43.99275401746854,45.41066096871509 44.78221632144414,44.04327506979462 44.91581763449358,43.464762553412584 44.72148845187621,44.18790291110054 43.64053237414919,43.80661108116328 43.28831073088804,43.43846648618637 39.52318281948101,41.37421333302336 38.38149887218606,40.54587585630361 38.90375855017919,39.428271688419045 40.90777824493125,36.46987452816393 42.59601301810471,33.57717294253234 42.48670285294065,33.327346553705866 41.22356316650985,32.47267473035026 38.47866346343653,31.0" stroke="#4dd2ff" stroke-linecap="round" stroke-linejoin="round" stroke-width="0.5"><title>2022-01-06 4.7km</title></polyline><polyline fill="none" points="69.25974025973119,32.31257727064076 74.53246753255371,35.59319316735491 74.71428571431898,35.96499405495706 67.64357864356134,47.66555295008584 65.44155844161287,46.35336329304846 63.926406926475465,45.850355747155845 63.5627705627121,45.23799760476686 59.48196248197928,42.94164351868676 59.3001443000976,42.54798106601811 58.209235209273174,42.19805845536757 56.714285714318976,41.148288191936444 56.81529581535142,41.476341791043524 59.25974025973119,42.52611091476865 61.52236652246211,44.23197796253953 64.16883116890676,45.56604676390998 66.89610389608424,47.49059465836035 67.68398268404417,47.687422729388345 74.69408369413577,36.09621778843575 74.69408369413577,35.70254641713109 74.2698412699392,35.418227885471424" stroke="#4dd2ff" stroke-linecap="round" stroke-linejoin="round" stroke-width="0.5"><title>2022-01-05 3.1km</title></polyline><polyline fill="none" points="85.2104550471413,31.0 89.46035104000475,33.54793923799298 90.08682973217219,34.17117227142444 84.24533922411501,43.77609917330847 84.19454365450656,43.977725414632005 85.5321603215416,44.894206306911656 91.57683310820721,48.468450102445786 92.94831348839216,49.0 91.57683310820721,48.43179144769965 85.87079745245865,45.05917251537903 84.2114755109651,43.8494178250985 90.08682973217219,34.2444937039254 90.01910230598878,33.8778863290936 88.74921306513716,33.14466998727585" stroke="#4dd2ff" stroke-linecap="round" stroke-linejoin="round" stroke-width="0.5"><title>2022-01-04 3.1km</title></polyline><polyline fill="none" points="115.92857142863795,33.727787981100846 115.86428571428405,34.21496229839977 117.66428571433062,35.05011597345583 120.42857142857974,36.98139773249568 115.99285714287544,44.045233074444695 114.85178571427241,46.2722120188846 112.81071428576251,45.08913202326221 111.87857142859139,44.84555600727617 111.41250000003492,44.306208236608654 109.25892857147846,43.14051698548428 108.40714285714785,42.40978227411688 107.21785714285215,41.92262456585013 103.10357142862631,39.27803692268208 102.42857142857974,39.06925244847662 103.26428571430733,39.347631707045366 103.77857142855646,39.852193291517324 108.85714285715949,42.70555611535383 112.08750000008149,44.915149179898435 114.78750000003492,46.1852210410143 120.38035714294529,37.08579089901468 120.3964285714319,36.7552123828209 119.76964285719441,36.37243669081363" stroke="#4dd2ff" stroke-linecap="round" stroke-linejoin="round" stroke-width="0.5"><title>2022-01-03 3.7km</title></polyline><polyline fill="none" points="131.3364283334231,31.0 134.31412744516274,32.78409055614611 134.530067457119,33.10399446899828 131.2114104317152,38.35771490515617 130.66587776999222,39.661892012751196 135.49611487891525,42.59010227852559 136.57581493852194,43.08223350762273 136.32577913522255,43.18065958250372 136.4394317730912,43.74660840751312 135.9848212216748,44.201826747652376 136.62127599370433,44.472496534333914 137.12134760024492,44.97692544166057 137.05315601750044,45.346018816067954 136.8144854780403,45.24759399452887 136.55308441095985,45.50595902949863 136.47352756449254,46.0965062067844 135.79161173733883,47.449835753053776 136.0643780682003,47.84352959878743 136.5417191471788,47.905044179889956 136.6667370488285,48.089587789581856 137.291826557077,47.73280329682166 137.59868867922341,47.26529144907545 137.6214192067855,46.85929327548365 137.82599395490251,46.90850522693654 137.90555080148624,47.51135047650314 137.4168444586685,47.53595635968668 136.72356336773373,48.05267908364476 136.6667370488285,48.77854882981046 137.05315601750044,49.0 136.8372160056024,48.91388013472897 136.587180202303,47.757409147918224 136.79175495042,46.933111197300605 136.98496443481417,46.62553631160699 137.23500023811357,46.66244532726705" stroke="#4dd2ff" stroke-linecap="round" stroke-linejoin="round" stroke-width="0.5"><title>2022-01-01 3.0km</title></polyline><polyline fill="none" points="153.26699907990405,31.0 156.23089053982403,32.674884726526216 158.07110886380542,34.03241442194849 153.60898655606434,41.190173148497706 152.40388783050003,43.57016947962984 161.881826455181,49.0 153.85326332470868,44.53979094837268 152.42017294844845,43.30572659110476 158.0548237459152,34.155825837224256" stroke="#4dd2ff" stroke-linecap="round" stroke-linejoin="round" stroke-width="0.5"><title>2021-12-30 3.1km</title></polyline><polyline fill="none" points="176.19535453035496,31.0 180.40474951796932,33.54146378749283 180.8580689781811,34.049753343861084 175.24014566780534,43.356521774694556 181.79708786006086,47.194802324826014 182.28278728172882,47.73811566179211 183.837025431043,48.21132305901847 184.75985433213646,49.0 183.14085625996813,47.89585156357498 182.25040732027264,47.65048456081422 179.02860115666408,45.63496048845991 176.64867399062496,44.46069090506353 175.69346512801712,43.60189312757575 175.9201248580939,42.98846427924582 175.56394528225064,42.63793281115068 180.84187899745302,33.8218995367497" stroke="#4dd2ff" stroke-linecap="round" stroke-linejoin="round" stroke-width="0.5"><title>2021-12-29 3.2km</title></polyline><polyline fill="none" points="11.0,56.90060181381705 11.531147540954407,57.5236999738263 11.472131147456821,58.37047157190682 11.678688524581958,58.59414654500142 13.640983606572263,56.53313284210162 14.083606557338499,57.76335264307272 17.727868852438405,57.827259977537324 18.819672131212428,57.347954517405014 19.616393442614935,57.63553791856975 19.675409836054314,58.03495868643222 19.91147540981183,58.14679637168592 20.221311475383118,57.90714411949739 20.05901639343938,57.475769408702035 20.737704918021336,56.165663257503184 20.51639344258001,54.82359521999024 21.032786885276437,54.40819155149802 21.622950819670223,54.47209985916561 22.43442622956354,55.15911299579602 23.098360655771103,55.20704406492587 23.79180327866925,56.13370935161947 24.70655737706693,56.32543271740724 25.340983606583904,55.941985818994 25.591803278715815,55.111181916247006 27.332786885264795,55.15911299579602 28.23278688528808,54.13658103709167 28.48360655741999,53.52945044107037 28.763934426242486,53.41761041191057 29.0,53.60933614139503 28.881967213121243,55.49463026065496 27.55409836070612,56.03784760614508 25.518032786843833,57.76335264307272 25.26721311471192,58.54621621273691 24.765573770506307,58.99356557507417 24.573770491871983,59.9841216452769 21.844262295111548,61.8533846794744 21.696721311483998,62.268774311378365 21.99180327868089,63.6587262320827 21.770491803297773,64.26582891773432 20.826229508209508,64.23387618653942 20.30983606557129,63.9622777839686 19.675409836054314,64.12204159071553 19.173770491790492,64.45754520785704 18.347540983639192,66.05517447243619 17.477049180306494,66.40665135634481 16.916393442603294,66.50250859104563 16.94590163929388,66.35872272336564 16.960655737726483,66.58238958807488 16.94590163929388,66.42262756501441" stroke="#4dd2ff" stroke-linecap="round" stroke-linejoin="round" stroke-width="0.5"><title>2021-12-25 3.3km</title></polyline><polyline fill="none" points="38.9448821998667,51.0 43.642801759706344,54.159210575249745 38.06302016641712,63.35887244177866 45.085848723421805,67.71557031266275 46.48079412180232,68.23628587968415 47.65126554790186,69.0 38.07905402162578,63.39358747861115 43.08161682932405,55.02711828054453" stroke="#4dd2ff" stroke-linecap="round" stroke-linejoin="round" stroke-width="0.5"><title>2021-12-25 3.1km</title></polyline><polyline fill="none" points="61.91754360246705,51.0 64.87965706043178,52.629975763877155 66.4998185649747,53.65756360121304 66.61437543906504,53.95875232221442 61.67206458665896,61.86039459744643 61.033819145406596,63.52573060557188 70.39475228311494,69.0 70.0347163931583,68.59253432610421 68.15271060512168,67.75988497074286 67.79267471516505,67.28155320938095 61.06654968089424,63.43714918823389 61.23020235809963,62.65763133399014 66.12341740733245,54.84459935326595" stroke="#4dd2ff" stroke-linecap="round" stroke-linejoin="round" stroke-width="0.5"><title>2021-12-24 3.0km</title></polyline><polyline fill="none" points="91.53802099905442,52.263999434013385 97.51129494106863,55.9530483566632 94.32421253575012,60.90064270046423 90.5357938274974,67.60580472912989 90.134902958991,67.73600056598661 88.19058224640321,66.34724205787643 87.28857779188547,66.10854854158242 86.3464842508547,65.24057051664568 84.5625198854832,64.43768860650016 79.6916958320653,61.29123877652455 79.57142857147846,61.48653662370634 82.01686286996119,62.59322202135809 83.48011454031803,63.7867016956443 90.59592745779082,67.60580472912989 97.57142857147846,56.03984896111069 97.09035952913109,55.56244532557321" stroke="#4dd2ff" stroke-linecap="round" stroke-linejoin="round" stroke-width="0.5"><title>2021-12-22 3.1km</title></polyline><polyline fill="none" points="114.75706304865889,52.33604789458332 118.17605746199843,54.317397651146166 120.18723064637743,55.645547873165924 120.38834796473384,56.05923281010473 114.93806863529608,64.6376238068915 113.38946528325323,67.66395210544579 109.95035913807806,65.90041197801474 105.28443735023029,62.67811442632228 103.93695131677669,62.199121303041466 102.54924181953538,61.197587762464536 102.42857142852154,61.39354023931082 105.46544293686748,62.74343161127763 106.2498004786903,63.570781393616926 109.10566640051547,65.1166130474885 109.66879489226267,65.7697789646918 113.32913008774631,67.53331985799014 120.42857142852154,56.01568705411046 120.32801276934333,55.66732077882625 119.38276137260254,55.10122472094372" stroke="#4dd2ff" stroke-linecap="round" stroke-linejoin="round" stroke-width="0.5"><title>2021-12-20 3.1km</title></polyline><polyline fill="none" points="130.23716205038363,51.0 134.38993444223888,53.464882148779 134.63044249586528,53.86412123928312 134.1975279994076,54.88825325804646 129.83631529449485,61.58839889970841 129.09875726344762,63.115867042317404 135.96125372569077,67.2816398096329 139.47267130797263,69.0 134.24562961014453,66.3269899404986 130.31733140157303,63.94902738367091 129.51563788967906,63.237369772352395 129.70804433256853,62.75135848289938 129.32323144678958,62.38684936948994 132.22536196006695,58.04741260848823 133.52410544938175,55.68672603490995" stroke="#4dd2ff" stroke-linecap="round" stroke-linejoin="round" stroke-width="0.5"><title>2021-12-19 3.1km</title></polyline><polyline fill="none" points="159.93822864093818,51.419776571012335 159.2147207238013,51.53845494441339 161.27562206354924,52.440409178554546 166.1428571428405,55.81084777860087 158.46928832423873,68.58022342898767 155.46563424391206,66.91880863817642 154.69827736204024,66.77640126444749 152.8127718809992,65.25738543068292 150.86149295291398,64.42667067059665 149.30485470686108,63.050053006765665 148.1428571428405,62.646560527413385 149.06368540110998,62.90764395307633 149.5240995301865,63.4535449896357 150.0064381416887,63.429810180852655 153.77744910377078,65.70834399061278 154.7202018443495,66.63399382893112 155.70680354954675,66.80013583105756 158.35966591257602,68.34287897421746 166.09900817810558,55.8583184973686 162.9857316861162,53.65092280367389" stroke="#4dd2ff" stroke-linecap="round" stroke-linejoin="round" stroke-width="0.5"><title>2021-12-17 3.1km</title></polyline><polyline fill="none" points="183.7592385218013,52.30796909221681 183.88017917133402,52.76622908632271 189.0,56.10495944437571 181.96528555441182,67.69203090778319 181.13885778270196,67.56110603397246 179.72788353869691,66.49188410339411 178.4983202686999,66.1427495906828 176.86562150053214,64.76802851678804 174.9305711085908,63.85154431863339 174.28555431135464,63.17508990925853 171.0,61.23300268733874 171.18141097412445,61.6476066277246 173.5800671892939,62.71684573733364 178.55879059352446,66.05546589929145 181.88465845468454,67.62656847797916 189.0,56.235889293195214 188.89921612548642,55.79945624276297 188.11310190381482,55.297557453624904" stroke="#4dd2ff" stroke-linecap="round" stroke-linejoin="round" stroke-width="0.5"><title>2021-12-16 3.1km</title></polyline><polyline fill="none" points="23.261744966497645,72.27297924243612 29.0,75.97853397682775 21.99328859068919,87.72702075756388 18.550335570587777,86.13587962152087 17.906040268484503,85.43839044607012 14.926174496649764,83.82544054096797 13.818791946279816,82.90997864396195 11.040268456446938,81.36240577537683 11.0,81.58037426622468 11.845637583872303,81.68935845248052 17.684563758433796,85.15503500716295 18.4697986576939,85.91791442764224 22.013422818738036,87.5308531266055 29.0,76.15291189972777 28.859060402726755,75.73876416799612 28.21476510062348,75.39000774160377" stroke="#4dd2ff" stroke-linecap="round" stroke-linejoin="round" stroke-width="0.5"><title>2021-12-15 3.1km</title></polyline><polyline fill="none" points="44.601018135552295,72.23144654929638 46.62551702198107,72.90415919592488 49.43175310222432,74.37978164906963 51.776964683434926,76.3111000614008 45.14222080819309,87.37796565736062 44.661151765845716,87.76855345070362 44.019726376165636,87.52986097079702 36.72351256769616,83.14656528286287 36.503022589953616,82.7776711381739 33.85714285715949,81.5407874584489 36.422844416229054,82.75597146846121 37.66560610884335,83.79755384271266 40.672287623398006,85.38162010084488 41.49411390395835,86.22789864457445 42.71683105325792,86.53169035963947 44.781419026548974,87.68175620728289 48.0286350621609,82.36537714523729 49.03086223360151,81.3237897954823 51.85714285715949,76.11579876497854 49.01081769017037,74.22787967309705" stroke="#4dd2ff" stroke-linecap="round" stroke-linejoin="round" stroke-width="0.5"><title>2021-12-14 3.3km</title></polyline><polyline fill="none" points="69.13226324238349,72.20541121877613 69.57720706262626,72.7309021987312 71.25585874810349,73.4972415746015 74.69406099524349,75.81814326829044 69.19293739960995,84.70746993870125 67.61540930985939,87.79458878119476 65.3097913323436,86.34955835097935 64.19743178167846,85.99924690430635 59.201926163746975,82.60558376469999 58.04911717493087,82.25526798257488 56.714285714318976,81.22621302635525 56.73451043339446,81.51084559844458 59.22215088282246,82.64937320895842 61.325521669350564,84.29147279256722 63.469341894146055,85.18915013008518 64.19743178167846,86.08682480399148 65.06709470308851,86.24008606749703 67.53451043344103,87.55375085546984 74.71428571431898,75.99330493749585 74.35024077049457,75.55540057423059" stroke="#4dd2ff" stroke-linecap="round" stroke-linejoin="round" stroke-width="0.5"><title>2021-12-13 3.1km</title></polyline><polyline fill="none" points="84.86369754292537,71.0 86.0336926675518,71.21408106418676 85.72059538064059,71.35680167032115 86.2149595178198,71.32112152651825 85.98425625375239,71.51736225337663 86.2643959314446,71.39248180891445 86.0996078858152,71.5708824244939 86.33031114982441,71.46384207061783 86.18200190871721,71.62440258399874 86.37974756350741,71.55304236874508 86.39622636814602,71.78496299272228 89.52719923661789,73.76519943277526 84.78130352013977,81.45407478501147 83.79257524583954,83.48775112621661 89.59311445488129,86.85933546404704 90.69719436112791,87.23395309965417 93.35028189705918,89.0 93.05366341484478,88.64322386814456 90.1204362011049,86.94853019081347 89.13170792692108,86.66310695154243 83.80905405047815,83.38071594762732 89.37888999545248,74.17551670510147" stroke="#4dd2ff" stroke-linecap="round" stroke-linejoin="round" stroke-width="0.5"><title>2021-12-11 3.2km</title></polyline><polyline fill="none" points="114.91154356475454,72.95148489339044 120.29854046879336,76.33001094259089 114.11278195481282,86.90774943870201 113.70411322417203,87.04851510662411 112.97965501982253,86.76698369943188 103.43166740366723,80.95530735893408 102.42857142852154,80.57322057275451 105.86510393617209,82.42332012369297 107.57408226444386,83.75055786487064 113.77841662976425,86.88764005170378 119.83414418390021,77.43606709090818 120.42857142852154,76.00824832719809" stroke="#4dd2ff" stroke-linecap="round" stroke-linejoin="round" stroke-width="0.5"><title>2021-12-10 3.2km</title></polyline><polyline fill="none" points="138.59899229404982,73.00589588447474 142.6508595139021,75.47207595556392 143.28571428568102,76.19979706079175 136.86247777112294,86.99410411553981 133.6321873147972,85.43764737815945 132.92264374624938,84.68973650998669 125.73384706571233,80.3841566152405 125.34173088322859,80.26287171333388 125.28571428568102,80.46501318723313 128.92679312382825,82.2640658596356 129.16953171312343,82.64813178297481 132.34380557201803,84.30567339407571 134.93924125668127,86.06427386087307 136.8064611736918,86.83239472840796 139.60729104909115,82.83005756234343 140.01807943102904,81.41507615490991 140.54090100771282,81.07143673113023 143.22969768813346,76.3008692865551" stroke="#4dd2ff" stroke-linecap="round" stroke-linejoin="round" stroke-width="0.5"><title>2021-12-09 3.2km</title></polyline><polyline fill="none" points="159.80482897395268,72.02930021984503 162.76257545268163,73.4702345340047 166.07947686105035,75.7345466077677 159.00201207248028,87.62763652065769 158.60060362168588,87.97069978012587 157.92454728367738,87.78773275477579 148.1428571428405,81.72689016611548 155.41046277666464,86.30112174674287 158.76961770630442,87.83347452105954 166.1428571428405,75.82603362327791 164.15694164985325,74.31649448085227" stroke="#4dd2ff" stroke-linecap="round" stroke-linejoin="round" stroke-width="0.5"><title>2021-12-08 3.1km</title></polyline><polyline fill="none" points="183.50052137649618,72.86782625057094 189.0,76.32222192620975 182.6183524505468,87.05089746911835 181.94264859240502,87.01025932012999 179.6527632951038,85.79111211582494 171.71324296155944,80.77223370251886 171.0,80.69095558108529 179.35245046927594,85.62855875525565 182.5057351407595,87.13217374942906 188.5495307612,77.33821256423835" stroke="#4dd2ff" stroke-linecap="round" stroke-linejoin="round" stroke-width="0.5"><title>2021-12-07 3.1km</title></polyline><polyline fill="none" points="24.831743278424256,94.2622216612217 29.0,96.81427198633901 23.61405030352762,105.72087808087235 22.98959236772498,105.65327703701041 21.038161318283528,104.57165767374681 11.0,98.43675305237412 23.130095403292216,105.7377783387783 23.754553339094855,105.68707756136428 24.581960104056634,104.16604912099137" stroke="#4dd2ff" stroke-linecap="round" stroke-linejoin="round" stroke-width="0.5"><title>2021-12-04 3.1km</title></polyline><polyline fill="none" points="46.861011329165194,93.45111338651623 49.75075987842865,94.97765037501813 51.85714285715949,96.50417841257877 50.84747167729074,98.29453939764062 45.05056645482546,106.22851728723617 37.7565625863499,101.78099651179218 33.85714285715949,99.74566505744588 38.87068250903394,102.45943679443735 42.961591599858366,105.11664421489695 45.833932025474496,106.54888661349833 50.20337109698448,99.44413311847893" stroke="#4dd2ff" stroke-linecap="round" stroke-linejoin="round" stroke-width="0.5"><title>2021-12-03 3.1km</title></polyline><polyline fill="none" points="69.31616659206338,92.91400866051845 74.71428571431898,96.29417281289352 68.3004926108988,106.94346058482188 67.28481862973422,106.8009297579265 57.27854903717525,100.71275988178968 56.82713837886695,100.4684158659511 56.714285714318976,100.69239788861887 60.53246753255371,102.54533323622309 61.83027317514643,103.84848924799007 68.20644872379489,107.0859913394961 74.07478728168644,97.65844442941307" stroke="#4dd2ff" stroke-linecap="round" stroke-linejoin="round" stroke-width="0.5"><title>2021-12-01 3.1km</title></polyline><polyline fill="none" points="91.92280978697818,92.49609312581015 94.7868981846841,93.96030340861762 97.57142857147846,95.98434693130548 90.88855564326514,107.39624950024881 89.97363851615228,107.33165505720535 79.57142857147846,100.89367187896278 87.44767166534439,105.8890421752003 90.80899763223715,107.50390687418985 97.53164956602268,96.52265406027436" stroke="#4dd2ff" stroke-linecap="round" stroke-linejoin="round" stroke-width="0.5"><title>2021-11-30 3.0km</title></polyline><polyline fill="none" points="113.26042983552907,91.36534684707294 117.69785082177259,93.5825678697438 120.36030341335572,95.50414773801458 112.57774968398735,108.56074928652379 111.71302149177063,108.38830686936853 102.42857142852154,102.67302304468467 108.66371681413148,106.78705168122542 112.50948166870512,108.63465315289795 120.42857142852154,95.47951216730871 115.12642225017771,92.05515049101086" stroke="#4dd2ff" stroke-linecap="round" stroke-linejoin="round" stroke-width="0.5"><title>2021-11-24 3.1km</title></polyline><polyline fill="none" points="137.56349206343293,92.97324007825227 140.47089947084896,94.39666755295184 143.28571428568102,96.30124216723198 136.9338624337688,106.96661798936839 136.2301587301772,106.90647604393598 126.378306878265,100.85212005116045 125.28571428568102,100.35092571035784 125.56349206331652,100.69173796079122 133.95238095230889,105.58334994109464 136.89682539680507,107.02675992176228 142.878306878265,97.24350055465766" stroke="#4dd2ff" stroke-linecap="round" stroke-linejoin="round" stroke-width="0.5"><title>2021-11-23 3.2km</title></polyline><polyline fill="none" points="161.17989417980425,93.07347916428989 166.1428571428405,96.26114346968825 159.77248677250464,106.84633156059135 158.9391534391325,106.74609493411845 151.42063492059242,102.01488490431802 148.1428571428405,100.31082759906712 151.25396825396456,101.95474188381922 156.6428571428405,105.48311033273058 159.7169312168844,106.92652083571011 165.55026455025654,97.54421811699285" stroke="#4dd2ff" stroke-linecap="round" stroke-linejoin="round" stroke-width="0.5"><title>2021-11-20 3.1km</title></polyline><polyline fill="none" points="183.8810754911974,92.97721228425507 189.0,96.24181382919778 182.61530506715644,106.92203288283781 181.85211995861027,106.82127801355091 171.0,100.1915274838102 179.48810754914302,105.51146139457705 182.57807652535848,107.02278771574493 188.05067218199838,98.03531319933245" stroke="#4dd2ff" stroke-linecap="round" stroke-linejoin="round" stroke-width="0.5"><title>2021-11-19 3.1km</title></polyline><polyline fill="none" points="23.88151658762945,113.47987906483468 29.0,116.61994156014407 23.14786729851039,126.42777029021818 22.516587677702773,126.35388975020032 20.196208530804142,125.07944706821581 16.084360189619474,122.40124967845622 13.08151658764109,120.92361150123179 11.0,119.3720822067553 20.230331753497012,125.11638752536965 23.06255924172001,126.52012093515077 26.935545023705345,120.20325978760957" stroke="#4dd2ff" stroke-linecap="round" stroke-linejoin="round" stroke-width="0.5"><title>2021-11-18 3.2km</title></polyline><polyline fill="none" points="47.22651222650893,113.3192047351331 51.85714285715949,116.26466336658632 45.604890604969114,126.64178428601008 45.01029601029586,126.56376231121249 42.46975546982139,125.1203517037502 33.85714285715949,119.81477601559891 43.875160875031725,125.9200801574334 45.568854568875395,126.68079526488145 50.271557271596976,118.956511310098" stroke="#4dd2ff" stroke-linecap="round" stroke-linejoin="round" stroke-width="0.5"><title>2021-11-16 3.1km</title></polyline><polyline fill="none" points="70.19013544596964,113.97801848976815 74.71428571426077,116.73197343204811 69.24022489134222,125.8999762217718 68.12931254791329,125.60367740680522 56.71428571426077,118.75384435118758 69.01482238690369,126.0219815102173 71.31714796827873,122.3443663825019" stroke="#4dd2ff" stroke-linecap="round" stroke-linejoin="round" stroke-width="0.5"><title>2021-11-15 3.1km</title></polyline><polyline fill="none" points="85.22106356208678,111.0 87.21631815825822,111.99003385772812 89.41109821398277,113.48407748955651 84.38970748032443,121.74615671066567 83.79113110149046,123.11414334275469 84.93840249429923,124.10412897594506 93.5013701361604,129.0 83.64148700673832,123.11414334275469 89.41109821398277,113.80808576740674 89.4277253356413,113.39407511519676 88.8125218351488,113.01606478729809" stroke="#4dd2ff" stroke-linecap="round" stroke-linejoin="round" stroke-width="0.5"><title>2021-11-13 3.2km</title></polyline><polyline fill="none" points="102.84462982264813,111.80951313683181 106.61105318029877,113.58751663862495 109.76433785178233,115.81593406299362 102.42857142852154,128.1904868631682 110.04900938470382,115.83964054987882 120.42857142852154,121.78991447563749 104.42127215838991,112.18882136058528" stroke="#4dd2ff" stroke-linecap="round" stroke-linejoin="round" stroke-width="0.5"><title>2021-11-10 3.2km</title></polyline><polyline fill="none" points="138.59663865552284,113.66825892293127 143.28571428573923,116.68863012947259 137.48739495809423,126.2407700606127 136.36134453787236,125.96785681365873 130.42857142863795,122.29259622948302 126.66386554628843,120.4185565347434 125.28571428573923,119.32687648647698 137.25210084038554,126.33174107705418 137.67226890765596,126.0588279289077 140.32773109246045,121.71037180085841" stroke="#4dd2ff" stroke-linecap="round" stroke-linejoin="round" stroke-width="0.5"><title>2021-11-09 3.1km</title></polyline><polyline fill="none" points="161.7223356962204,114.24747547910374 166.1428571428405,116.90253868434229 161.0259521806729,125.65419324510731 159.6937402378535,125.26086771498376 158.4372221553931,124.2775509008643 148.1428571428405,118.2300586111669 160.95025832031388,125.75252452091081 161.76775201247074,124.22838494811731" stroke="#4dd2ff" stroke-linecap="round" stroke-linejoin="round" stroke-width="0.5"><title>2021-11-04 3.2km</title></polyline><polyline fill="none" points="171.3888315873919,111.0 188.61116841249168,121.12213679763954 180.0330774714239,116.01336129996344 178.75408190698363,115.75075855190516 177.65149952389766,117.06377020137734 172.2488458462758,125.72951599615044 171.41088323516306,127.51993096375372 172.13858760800213,128.1406058841967 173.83656447799876,129.0 172.22679419873748,128.16447797324508 171.43293488270137,127.32895383026334 178.70997861179058,115.4165365700901 177.6073962285882,114.72421853037667" stroke="#4dd2ff" stroke-linecap="round" stroke-linejoin="round" stroke-width="0.5"><title>2021-11-01 3.1km</title></polyline><polyline fill="none" points="16.895424550340977,131.0 19.16195509332465,132.42276319281518 17.152551964914892,135.87651326754712 17.066842826723587,136.05177596408612 17.19064491521567,136.39199117117823 16.43830914667342,137.84562881245802 18.276293998816982,139.04151816225203 18.533421413390897,139.67038698249235 20.885661094624083,140.89718865861505 20.438068928546272,141.88686970748677 22.75221565942047,143.38168742557173 23.066482499416452,143.82497518236778 23.56169085338479,144.1548628505334 23.009343073994387,144.4847497550145 22.590320620627608,145.04143217454111 23.056959261884913,145.8661428727719 23.17123811278725,146.82486306029023 22.904587460681796,147.0310386020501 22.19034464249853,147.17536130381632 21.98083341581514,147.87635520474578 21.295160310342908,148.38148102531704 21.142788509081583,148.74228408678027 21.723706001241226,149.0 22.34271644364344,148.41240703780204 22.866494510381017,147.639254712376 22.72364594670944,146.9588771963754" stroke="#4dd2ff" stroke-linecap="round" stroke-linejoin="round" stroke-width="0.5"><title>2021-10-30 3.1km</title></polyline><polyline fill="none" points="39.465512988506816,131.0 42.26851287990576,132.8449978284625 41.47246091073612,134.16804298339412 41.73033690074226,134.47149223538872 41.61821690516081,134.7263891826442 38.938549008918926,139.22950470328215 40.03732496633893,139.8485219123395 40.01490096724592,140.43112425738946 44.26424880261766,142.8950242989231 43.7933448208496,143.6960874521319 43.89425281691365,144.02379400313657 46.77573670534184,146.06284260284156 45.99089673574781,147.38578349744785 46.181500728358515,147.62852381329867 46.14786472963169,147.89553775510285 44.90333277784521,149.0 44.914544777420815,148.76939859335835 44.488488793955185,148.42956436377426 44.30909680086188,147.67707183434686 43.92788881564047,147.2280021038314 43.95031281473348,146.9731241544505 44.51091279304819,146.6454233648692 44.66788078693207,145.89292283281975 44.94818077608943,145.67445430420048 46.46180071745766,146.2691735207918 46.77573670534184,146.09925395975006 45.127572769182734,144.81271455570823" stroke="#4dd2ff" stroke-linecap="round" stroke-linejoin="round" stroke-width="0.5"><title>2021-10-26 3.2km</title></polyline><polyline fill="none" points="72.31349052448059,149.0 71.17840314633213,147.52853641567344 70.69538724073209,144.3490819229628 69.35501810268033,142.45714779572154 68.30445850797696,139.5009599073528 67.44710527558345,138.85716127764317 65.67202182253823,138.41044247367245 64.40410507033812,137.4907237096195 63.40184706624132,136.33449899838888 62.41166445973795,134.2059745015722 60.96261674299603,132.91833604159183 59.44111664034426,131.06569678653614 59.211684085195884,131.0 59.11508090404095,131.15767224632145 62.242608892789576,134.32422653966933 63.317319282738026,136.76808415753476 65.14070432633162,138.39730366809817 67.61616084253183,139.36957262360374 68.23200612218352,140.01336937422457 68.7270974254352,141.10387685113528" stroke="#4dd2ff" stroke-linecap="round" stroke-linejoin="round" stroke-width="0.5"><title>2021-10-18 3.2km</title></polyline><polyline fill="none" points="95.03454722458264,149.0 94.04812529979972,147.8708712097723 93.97619870107155,146.3504466855229 93.69876753474819,145.16539919517527 92.70207038155058,143.8461843293917 91.73619891353883,141.1853595814464 90.93473109963816,140.5145559465891 89.32152024348034,140.13443254971935 87.63638278859435,138.8598941013188 86.84519020310836,136.86980354877596 84.66684178583091,134.67843721044483 82.85840159043437,131.70438860729337 82.10830991837429,131.0 82.11858514678897,131.3242427874793 83.12555752834305,132.5094000902027 83.98867671255721,134.1305906020134 86.37252969748806,136.64619621171732 87.9240891833906,139.28474145910877" stroke="#4dd2ff" stroke-linecap="round" stroke-linejoin="round" stroke-width="0.5"><title>2021-10-17 3.3km</title></polyline><polyline fill="none" points="117.67155309877126,149.0 117.75293274805881,148.22843004358583 116.70662297098897,146.88766075992316 116.52061234391294,144.8132420477632 116.22997073922306,143.66218165947066 115.12553264113376,142.2707795178285 114.009468878794,139.29820020718034 113.11429273616523,138.53923540966935 111.34719177929219,138.17240120249335 109.48708550882293,136.6038597496663 109.10343859053683,136.08522590558277 108.4640270601376,134.26367003652558 106.02263758017216,131.92344791629876 105.40647737804102,131.0 105.10421010910068,131.18974998379417 108.34777041815687,134.52931482362328 109.04531026957557,136.35086782946019 110.11487137514632,137.43873039956088 111.33556611509994,138.33684422141232 112.8352767956676,138.72897692857077 113.77695559506537,139.4120446328743" stroke="#4dd2ff" stroke-linecap="round" stroke-linejoin="round" stroke-width="0.5"><title>2021-10-14 3.2km</title></polyline><polyline fill="none" points="140.78705780755263,149.0 139.91116522683296,147.92622516059782 139.81247310503386,145.84576811964507 139.44237764843274,144.51694744713313 138.3814373393543,143.1075814316282 136.98741111927666,139.68478928986588 136.12385505373823,139.02706880836922 134.1746856487007,138.53042113222182 132.41056397208013,137.04046985175228 131.7814016957418,136.08743146050256 131.63336351310136,135.18808072819957 131.1892489651218,134.463227601751 128.94400319474516,132.30207403781242 127.98175500746584,131.0 127.78437076386763,131.30874006000522 131.1522394194035,134.63772954809247 132.00345896970248,136.50354743732896 132.8670150352409,137.72504359880986 134.13767610304058,138.74518786367844 135.90179777977755,139.2552578201139 136.87638248229632,139.9666687578574 138.17171658057487,143.05389107875817 138.82555188727565,143.9800474135991" stroke="#4dd2ff" stroke-linecap="round" stroke-linejoin="round" stroke-width="0.5"><title>2021-10-11 3.4km</title></polyline><polyline fill="none" points="163.72256975865457,149.0 162.5824905220652,147.73319793309201 162.4369484918425,145.71421333242324 162.09735042136163,144.26264149426424 161.00578519474948,142.95621662442863 159.7444209328969,139.59113829751732 158.7862692339695,138.9313114873803 157.2338209117297,138.60139715642435 155.8026576146367,137.5192738178157 154.8202489107498,136.4767340761755 154.00763924204512,134.48401437942812 151.2665976730641,131.87101004994474 150.76932906982256,131.0 150.56314452702645,131.277140028149 153.07374454813544,133.63941115544003 154.4321368301753,135.59254997050448 154.89301992586115,136.75386549510586 155.70562959450763,137.75681365620403 156.89422284124885,138.68057665214292 158.7013697164366,139.15565287988284 159.6231359077501,139.85506833024556 160.69044412928633,142.69229123323748" stroke="#4dd2ff" stroke-linecap="round" stroke-linejoin="round" stroke-width="0.5"><title>2021-10-07 3.4km</title></polyline><polyline fill="none" points="186.56343033502344,149.0 186.06137689523166,148.65360710654932 185.62054948462173,147.97414216616016 185.11849604482995,144.68336351405014 183.83274943073047,142.88473409236758 182.62047405168414,139.68712581050931 181.7143288187799,138.9809795730107 180.1469424701645,138.661214317719 178.05301226995653,137.04905574097938 177.55095883016475,136.38287024780584 176.86522730265278,134.51753760309657 174.11005598661723,131.8527427721565 173.60800254682545,131.0 173.43656966497656,131.42637189679954 176.2284765985678,134.1577926302998 177.06115059630247,135.42355875764042 177.45299718342721,136.59604987685452 178.68976297415793,137.96838762743573 179.73060547129717,138.74115568534762 181.44493429013528,139.19415609081625 182.10617540596286,139.64715534354036" stroke="#4dd2ff" stroke-linecap="round" stroke-linejoin="round" stroke-width="0.5"><title>2021-10-06 3.0km</title></polyline><polyline fill="none" points="26.557308222807478,169.0 25.577691681566648,167.7742990432307 25.43074920034269,165.77585547827766 25.136864238011185,164.53680920397164 24.842979275621474,163.92394441881333 23.949079181766137,162.92470383238106 22.651087264704984,159.67380232243158 21.965355685795657,158.9676560320804 19.846934915403835,158.46136074134847 18.25505803595297,157.15564518843894 17.655042904429138,156.4494889092166 16.871349671448115,154.4642420974269 14.361082284536678,151.9993075246748 13.736576739524025,151.0 13.442691777192522,151.31977901833307 16.62644553615246,154.4642420974269 17.655042904429138,156.64934474418988 18.34077448322205,157.5020604522142 20.042858223663643,158.80777346425748 21.90412965195719,159.3940088442905 22.72455850528786,160.22006451236666 23.104159915004857,161.1527034019091" stroke="#4dd2ff" stroke-linecap="round" stroke-linejoin="round" stroke-width="0.5"><title>2021-10-05 3.2km</title></polyline><polyline fill="none" points="49.4795042926562,169.0 48.98713541269535,168.65180288357078 48.43322042271029,167.70095346200105 48.34705586871132,165.94655606223387 48.039325318764895,164.5135622224625 46.74685700883856,162.73234828021668 45.58979014091892,159.66540454348433 44.58043393702246,158.90200863253267 43.12794574111467,158.63414964645926 41.31849010725273,157.28145564251463 40.62917367526097,156.585015138553 40.35837079130579,155.567135680496 39.742909691354726,154.41531773236056 37.12104540551081,151.91075776916114 36.554821193625685,151.0 36.234781421662774,151.2009028475877 39.53365291736554,154.49567736465542 40.616864453302696,156.5984082507057 41.78624054323882,157.97789343629847 43.00485352112446,158.8350439236092 44.666598490963224,159.2770105395757 45.023565928975586,159.5314756718144 45.81135613692459,160.602903838997 46.37758034886792,162.3573536126787" stroke="#4dd2ff" stroke-linecap="round" stroke-linejoin="round" stroke-width="0.5"><title>2021-10-04 3.3km</title></polyline><polyline fill="none" points="72.32551806414267,169.0 71.21857759711565,167.55742046635714 70.79283126367955,164.52664165597525 70.44007001590217,163.79871761365212 69.50342808227288,162.67373820110515 68.28700998658314,159.55022843445477 67.41118895768886,158.8487546723336 65.69603944284609,158.47816363698803 63.92006902321009,157.0619693117187 63.44566596590448,156.47960573757882 62.54551657510456,154.4280824136804 60.00320275517879,151.8868076151266 59.419322069268674,151.0 59.10305336443707,151.19853940473695 62.33872549881926,154.40161098945828 63.324024156318046,156.55901906518557 64.38230789953377,157.76345016142295 65.65954689995851,158.68993003798823 67.55715912918095,159.31199237442343 68.33566671039443,160.0399348833016" stroke="#4dd2ff" stroke-linecap="round" stroke-linejoin="round" stroke-width="0.5"><title>2021-10-02 3.1km</title></polyline><polyline fill="none" points="95.0645477877697,169.0 93.99140459328191,167.5306815165095 93.54526641126722,164.2640275581798 93.19559053890407,163.62118487338012 92.19479407661129,162.62411808696925 92.01392724603647,161.53520972379192 91.21811319165863,159.5804054519249 90.32583682762925,158.85882789712923 88.57745746575529,158.41276028673747 87.05817608925281,157.24510734382784 86.2864776122733,156.14304574593552 85.45449019182706,154.37186080410902 83.91109323786804,152.94177990255412 82.37975407257909,151.0 82.07830935507081,151.22304337976675 85.44243240309879,154.71297929555294 86.20207309135003,156.52352017596422 86.70850021683145,157.19262837724818 88.38453284651041,158.58331568354333 90.22937451803591,159.1212200789014 91.06136193854036,159.82967700788868 91.27840213518357,160.27574101283972" stroke="#4dd2ff" stroke-linecap="round" stroke-linejoin="round" stroke-width="0.5"><title>2021-09-30 3.1km</title></polyline><polyline fill="none" points="117.9974115533405,169.0 116.89452511176933,167.4704011540889 116.38550060015405,164.3716041821317 115.06446079653688,162.3804335432651 114.0706510359887,159.58484474285797 113.13743943150621,158.79363231257594 111.44069105980452,158.39802476510522 109.42883227620041,156.7364633657853 108.22898878477281,154.13859390228754 106.20501036994392,152.37149328981468 105.16272208443843,151.06593742173573 104.9082098287181,151.0 104.85973130381899,151.22418713320803 108.27746730967192,154.57377267633274 108.73801329632988,156.090296367649 110.21660830592737,157.7914248004381 111.33161437878152,158.5826417311182 113.5252676307573,159.43978939662338 114.0221725110896,159.9804496257275 114.56755591626279,161.3650597212254" stroke="#4dd2ff" stroke-linecap="round" stroke-linejoin="round" stroke-width="0.5"><title>2021-09-29 3.2km</title></polyline><polyline fill="none" points="140.68169054680038,169.0 140.1940208025626,168.03405885632674 140.09398598328698,166.1293711442704 139.8188902301481,164.91852358244068 138.60596804565284,163.2995125579764 137.36803715641145,160.03423637981177 136.40520202036714,159.13627514915424 134.51704480545595,158.70089841041772 132.46633100917097,157.1634659593401 131.39095670136157,154.59197908019996 128.589981760073,151.80275906006864 128.102312015777,151.0 127.88973802467808,151.38097084345645 131.15337400545832,154.67361414340849 131.76608727383427,156.33351914345985 132.46633100917097,157.36755066149635 134.35448822408216,158.93219243269414 136.44271507760277,159.5988617915864 137.19297622260638,160.27913412747148 137.6681416144711,161.28593251305574" stroke="#4dd2ff" stroke-linecap="round" stroke-linejoin="round" stroke-width="0.5"><title>2021-09-26 3.1km</title></polyline><polyline fill="none" points="163.56575829477515,169.0 163.49419393652352,168.55878224983462 162.49229292117525,167.32596199892578 162.33723681169795,165.02899984335818 161.9555602344335,163.84806395693158 160.96558661211748,162.69307492714142 159.79670209420146,159.72121386119397 159.11684069095645,158.92957415725687 157.31580434192438,158.48833078650932 155.75331585371168,157.4111731357989 154.88261616183445,156.50272172290715 153.9164973255829,154.32241891199374 151.36403521505417,151.80465417308733 150.9107942794799,151.0 150.71995599090587,151.37637096521212 153.7614412160474,154.42624347709352 154.4055204401957,155.4125737446011 154.91839834093116,156.68441238623927 155.70560628152452,157.5409515205247 156.99376472982112,158.57917510168045 158.81865586497588,159.0853068435972 159.85633905936265,160.13649881807214" stroke="#4dd2ff" stroke-linecap="round" stroke-linejoin="round" stroke-width="0.5"><title>2021-09-25 3.2km</title></polyline><polyline fill="none" points="185.76223040319746,169.0 185.9075436820276,167.50413000419212 185.06919784256024,166.20283352748083 184.6444359505549,163.2475140489114 183.52664149802877,161.80023923018598 182.3753132118145,158.91781317185087 181.60403503949055,158.26105071605707 180.05030075041577,157.92050617554924 178.40714290505275,156.63129537875648 177.80353390058735,155.8650614743092 177.12167928455165,154.16230652821832 174.67370943335118,151.8513962739089 174.21541370777413,151.0 174.0924563179724,151.3040706100146 176.80869683780475,154.0163552739832 178.02709279110422,156.50967119070992 179.89380952704232,158.0299669985252 181.34694231540198,158.43132271873765" stroke="#4dd2ff" stroke-linecap="round" stroke-linejoin="round" stroke-width="0.5"><title>2021-09-24 3.1km</title></polyline><polyline fill="none" points="26.62956426135497,189.0 26.04135892953491,188.62668513266544 25.53893354185857,187.88005305184925 25.208068042702507,185.1868184805644 24.693388377316296,183.933517226993 23.798826101701707,183.00020205615147 22.671432548959274,179.76022716177977 21.691090329142753,178.92022405259195 19.9509828890441,178.5868883877556 18.051569838193245,177.12020405297517 16.764870674698614,174.48014181983308 14.09343812573934,171.86670834409597 13.554249904875178,171.0 13.370435738645028,171.3866857822577 16.286953842558432,174.20013292432122 16.740362119220663,174.9201549091522 17.095736173854675,176.04018332308624 18.443706726131495,177.72021274035797 19.767168722872157,178.70688929894823 21.384733385464642,179.17355874071654 22.267041383311152,179.840227251334" stroke="#4dd2ff" stroke-linecap="round" stroke-linejoin="round" stroke-width="0.5"><title>2021-09-23 3.1km</title></polyline><polyline fill="none" points="49.376781588362064,189.0 48.448892929940484,187.5520970240177 48.10703921370441,184.656255647511 46.82508777780458,182.8230839385651 45.71406319999369,179.74118738571997 44.773965480329935,178.94413646505564 42.68621599901235,178.3994829440926 40.97694741777377,176.92492478038184 40.52521214989247,176.32712744029413 39.92696814646479,174.573576960247 38.64501671056496,173.40453368121234 36.64273065829184,171.0 36.33750412595691,171.19927198522782 39.328724143095315,174.1351866330515 40.01243157556746,175.30422509914206 40.47637590474915,176.56624661796377 41.099038030719385,177.2968865536095 42.72284318291349,178.5854623830819 44.566411438339856,179.14339953075978 45.433254790259525,179.9005971403676" stroke="#4dd2ff" stroke-linecap="round" stroke-linejoin="round" stroke-width="0.5"><title>2021-09-22 3.1km</title></polyline><polyline fill="none" points="70.76874078752007,184.72851386021648 69.92011456668843,183.6834504496146 69.61237099213758,181.31934525166434 69.32327854330651,180.74099564522476 68.6611635798472,180.0104452480009 67.67265391605906,177.56510208585678 67.09446901845513,177.0070300378793 65.52777445694664,176.57071756396908 64.30612572154496,175.62706020144105 63.86782426683931,175.00809857932472 63.354918309196364,173.63825543309213 60.91162083839299,171.05073616567097 60.7064584553591,171.0 60.65983064105967,171.1319139912157 63.05650029750541,173.52663797423884 63.76524307532236,175.04868631324644 64.38073022448225,175.82999782303523 65.35991432535229,176.6417452716778 66.99188782687997,177.1998188232683 67.68197947891895,177.83906388696778 67.74725841899635,177.99126464840083 68.51195457397262,179.98000556269835 69.55641761497827,181.63388523011963 69.61237099213758,183.1355499096826 69.85483562666923,183.94725362380996 70.6848107217229,185.06333829808136 70.46099721296923,186.43306602715165 70.73143853608053,187.4172322254235 70.23718370415736,187.65059017350723 70.16257920122007,187.90423966167145 69.79888224950992,187.90423966167145 69.03418609447544,188.41153721504088 68.23218768805964,188.71591483634256 67.92444411345059,189.0 67.97107192780823,188.8579574925534 67.60737497598166,188.48255872111622" stroke="#4dd2ff" stroke-linecap="round" stroke-linejoin="round" stroke-width="0.5"><title>2021-09-20 4.7km</title></polyline><polyline fill="none" points="94.9720942035201,189.0 94.35664558503777,188.1295059445547 93.96275846922072,185.04926221705682 93.53194443625398,184.20553403439408 92.64569842565106,183.32162405311828 91.39018324401695,179.91986915307643 90.41777442686725,179.2100460002548 88.46064782008762,178.6475426341931 86.66353785415413,177.16091808355122 86.22041484888177,176.5582289364247 85.93730848433916,175.35284455226792 85.50649445148883,174.56264371615543 82.8600653919857,172.05808580275334 82.3061616353807,171.0 82.17076293937862,171.5625274083868 85.37109575542854,174.89747500493831 86.10963409760734,176.50465646955126 86.94664421869675,177.69664006572566 88.30063117929967,178.76807921860018 90.33161162020406,179.45111833016563 91.23016660322901,180.24129757919582" stroke="#4dd2ff" stroke-linecap="round" stroke-linejoin="round" stroke-width="0.5"><title>2021-09-19 3.1km</title></polyline><polyline fill="none" points="118.06166673218831,189.0 116.90861265378771,187.52097898875945 116.39884137699846,184.2987831589271 115.18510024185525,182.6216333622142 114.11700804292923,179.67667822416115 113.17028995748842,178.8446864787693 111.27685378672322,178.382467147414 109.54120396345388,176.9429763298249 109.03143268672284,176.25624262783094 108.20608871482546,174.28847164106264 106.68891229585279,172.88856751157437 105.14746105420636,171.06603417017322 104.90471282717772,171.0 104.79547612497117,171.19810243634856 108.21822612616234,174.63184265563905 108.91005857317941,176.2826555119682 110.06311265158001,177.68253271207504 110.99769332562573,178.39567343080125 113.10960290074581,179.17484240274644 113.75288570241537,179.66347203662735 114.67532896512421,181.71041931008222" stroke="#4dd2ff" stroke-linecap="round" stroke-linejoin="round" stroke-width="0.5"><title>2021-09-18 3.3km</title></polyline><polyline fill="none" points="137.65726055862615,188.4052906670986 139.23662276612595,187.11876933956228 138.82218020100845,186.7910689239361 139.281427367765,186.3055856423598 139.22542161570163,186.14780327133485 135.55144428182393,180.38257572629664 130.02927713061217,172.6507890164794 129.5476276630652,171.63118596738786 129.05477704509394,171.0 129.59243226464605,171.67973863508087 130.33170819160296,173.1363120845199 130.63413925271016,173.34265895995486 135.32742127368692,180.24906283061136 135.37222587526776,180.43112584363553 139.31503081903793,186.17207749198133 139.5166515263263,186.7061094517412 139.42704232304823,187.05808412602346 137.67966285941657,188.07759278097365 137.4108352495823,188.5873447698832 137.59005365613848,188.98786309604475 137.83647896512412,189.0" stroke="#4dd2ff" stroke-linecap="round" stroke-linejoin="round" stroke-width="0.5"><title>2021-09-16 4.0km</title></polyline><polyline fill="none" points="163.60154583852272,188.66101629514014 163.18778609391302,188.25642183916352 162.844668256992,187.07543719152454 160.71531932760263,183.99171126025612 159.78688282769872,182.3185994085943 159.06028034939663,181.50937522113963 158.39422807766823,180.31740191869903 156.375887860253,177.53973932897497 156.07313682767563,176.77423272951273 155.25570903957123,175.58222182253667 153.92360449611442,173.93088831774367 153.11626840912504,173.37314905549283 150.6841684472165,171.0 155.063966718968,175.34163131688547 156.58781358308624,177.81313359689375 156.61808868637308,177.95529841935786 158.4446865830687,180.42675766188768 158.88872143090703,181.52031071222154 160.54376040911302,183.5105568209401 161.0988039689255,184.63689320185222 162.5822840287001,186.7692544702295 163.22815289831487,188.07052672356076 163.19787779502803,188.1908118246356 163.03641057759523,188.11426677147392 163.11714418634074,188.52979659102857 163.44007862108992,188.85784563630295 163.26851970260032,189.0 163.1776943928562,188.87971554716933" stroke="#4dd2ff" stroke-linecap="round" stroke-linejoin="round" stroke-width="0.5"><title>2021-09-14 4.6km</title></polyline><polyline fill="none" points="173.46898686693748,172.4060635551432 175.43684671918163,171.0 175.70778394525405,171.03090259582677 178.2317781036836,175.40357453619072 180.07129927002825,177.5357988436008 181.63988321024226,180.23967567135696 180.6416934300796,181.1358101052465 179.258487591811,181.93923776016163 179.24422773782862,182.38730186205066 182.90901021647733,187.4858957132965 184.13535766064888,188.28929933275504 186.10321751300944,189.0 186.5310131330043,188.36654952053505 186.31711532303598,188.93820003644214 185.91783941094764,188.98455001082039 183.09438831848092,187.68674690321495 182.09619853831828,186.58978808901156 179.18718832184095,181.93923776016163 178.58827445376664,181.42937056251685 177.80398248363053,179.9924655065115 177.304887593491,179.57529770028486 176.16409927333007,177.2885855290806 175.52240584319225,176.94866675141384" stroke="#4dd2ff" stroke-linecap="round" stroke-linejoin="round" stroke-width="0.5"><title>2021-09-13 3.3km</title></polyline><polyline fill="none" points="27.369811320793815,201.63853406824637 27.89056603773497,202.15594333145418 27.57358490570914,202.96901338649332 27.935849056579173,204.1023804130091 27.369811320793815,204.964722273784 26.84905660385266,204.59514746742207 26.441509433905594,204.76761576210265 29.0,205.35893494298216 27.46037735848222,204.9154456569231 27.86792452831287,204.1516571516404 27.528301886748523,202.72262873357977 27.777358490624465,202.4023284088762 27.030188679229468,200.7761834875564 25.581132075516507,199.815275891684 25.21886792453006,197.74561922758585 25.467924528289586,196.4151187807729 25.196226415107958,200.65299036289798 25.21886792453006,199.49497273587622 25.558490566094406,199.00219804100925 25.694339622743428,199.86455327254953 26.554716981132515,200.30804936846835 27.143396226339974,201.39214841875946 26.46415094344411,202.08202777226688 25.24150943395216,202.3530514081358 26.441509433905594,202.08202777226688 27.233962264144793,201.4414255633892 26.577358490554616,200.25877205395955 26.011320754769258,200.0123853709374 26.690566037781537,199.6920824070985 26.260377358528785,199.56888887644163 26.305660377256572,199.24858548073098 25.603773584822193,198.80508795636706 24.6528301887447,198.9529205308936 24.44905660371296,198.6326165353821 24.494339622557163,194.71502704414888 26.32830188679509,193.4091535107873 27.79999999993015,194.44399711460574 26.532075471710414,193.43379268204444 24.675471698050387,194.641109812801 24.358490566024557,198.5833389699401 23.67924528301228,198.50942260792363 22.864150943350978,200.6283517324191 21.211320754722692,202.82118261686992 16.909433962311596,205.4082114934281 14.03396226419136,205.6545941348304 11.339622641447932,206.3937409518694 11.0,205.9748912928044 11.29433962260373,206.4676555422484 14.781132075469941,205.50676457214286 16.00377358496189,205.58067936176667 11.475471698096953,206.5908464892418" stroke="#4dd2ff" stroke-linecap="round" stroke-linejoin="round" stroke-width="0.5"><title>2021-09-11 3.6km</title></polyline><polyline fill="none" points="49.73526129935635,209.0 49.37949655234115,208.51615852530085 49.09290828392841,207.6990003358951 48.84584943181835,205.6883413241012 48.41102585219778,204.88191937745432 47.8872610857361,204.31204513934063 46.96820215595653,201.76371193280647 46.12820205884054,201.0862992989496 44.7743195493822,200.8282365030318 43.20302525011357,199.58092645485885 42.06655453046551,197.33359049999854 39.83314250758849,195.15073770772142 38.44961293583037,192.70977436182147 37.33290692442097,191.62369363485777 36.562083305907436,191.3978738384758 35.97902441496262,191.0 37.59973048471147,191.75273335908423 37.68867167143617,192.21512475215422 38.52867176855216,193.20442226791783 39.388436573848594,194.86040503397817 41.94796628144104,197.4841308492105 42.699025191832334,199.09705326218682 43.33149585319916,199.86049689000356 44.6853783626575,200.892752245476 46.16773147514323,201.33360904337314 46.770555074268486,201.93575272805174 46.948437447834294,202.34434879117907" stroke="#4dd2ff" stroke-linecap="round" stroke-linejoin="round" stroke-width="0.5"><title>2021-09-09 4.2km</title></polyline><polyline fill="none" points="71.32567818139796,205.55718423592043 71.36445767324767,205.35466238910885 70.96890685663675,205.07619425598386 70.65091502363794,204.60364069924253 70.29414369884762,202.44337065411673 70.05371084951912,202.01299941306206 69.53406565904152,201.48980079038301 69.11524714733241,200.12272196378035 68.77398761929362,199.41385975101002 68.20780703861965,198.9497213642171 66.96686330021475,198.62904281738156 65.9973760045832,197.84422042107326 65.49324261082802,197.26192930659454 65.10544769262196,196.12265538467182 63.290567475167336,194.35042862250702 62.10391502530547,192.33343188545405 61.258522103511496,191.55700511106988 60.544979453930864,191.34601865043078 60.06411375530297,191.0 60.09513734871871,191.13503179484542 60.89399488037452,191.64139958475425 61.126671831298154,191.97053742832213 61.52997854628484,192.09712865071924 62.08840322855394,192.54441649789078 63.09667001606431,194.27447542441223 64.96584152203286,196.1817291302723 65.7181636634341,197.70075767205708 66.54028889015899,198.48558106693235 67.1762725560693,198.85689345761057 67.2770992348087,198.89064906885324 68.09146856318694,199.06786586212547 68.78174351766938,199.67546418166603 69.5573333541688,201.6670134989472 70.30189959722338,202.74716112955502 70.52682064980036,204.62051764608623 71.2791427912016,205.62469143739872 71.15504841736401,206.5613496883234 70.40272627596278,206.90732058873982 70.50355295473128,207.18578420125414 70.50355295473128,208.16462053562282 69.02217636699788,208.8312369704654 69.23158562282333,209.0" stroke="#4dd2ff" stroke-linecap="round" stroke-linejoin="round" stroke-width="0.5"><title>2021-09-08 5.7km</title></polyline><polyline fill="none" points="94.18027455420815,205.56797890189046 94.17240801002481,205.37112668954796 93.77121425810037,205.0373330335933 93.46441903608502,204.54092015422793 93.2048230789369,202.5210110498956 92.98455984258908,202.11017771446495 92.44176829585922,201.54527946882445 91.62364770370186,199.37981034745462 91.0415234362008,198.90049148213438 89.79074291550205,198.5837975582981 88.6579605571169,197.6679480324383 88.35116533504333,197.2057408139881 87.95783812727313,196.11013105590973 86.09346716245636,194.25270615433692 84.81122046511155,192.1555772582724 84.14256421191385,191.41087325224362 83.02551494180807,191.0 82.95471604444901,191.06847897791886 83.93803406384541,191.62486915293994 84.81908700923668,192.45516945562122 85.64507414554828,193.91032039048878 87.84770650908467,196.1700474858808 88.46129695320269,197.61659176707326 89.65701166485087,198.62659408571926 90.5695307868591,198.94328789105202 90.73472821415635,198.9946435606471 91.15165505436016,199.17438822256372 91.6315142478852,199.62802825603285 92.339503221825,201.5196022095406 93.17335690231994,202.76922214168007 93.3621539620799,204.63506758996664 94.1881410983915,205.75627200545568 94.05440984774032,206.44953030664328 93.89707896462642,206.60358713642927 94.17240801002481,207.7162136366387 93.99934403863153,207.83603430668154 93.94427822955186,208.09279246282676 93.31495469715446,208.17837838683772 92.78789623870398,208.65765837819345 92.25297123612836,208.76036097227916 91.88324366082088,209.0 91.61578115954762,208.71756823594478" stroke="#4dd2ff" stroke-linecap="round" stroke-linejoin="round" stroke-width="0.5"><title>2021-09-07 5.7km</title></polyline><polyline fill="none" points="116.54450169677148,205.0206127310521 115.71920038858661,203.86758908521006 115.37219870224362,201.49008477656753 114.37808576284442,200.04111332450702 113.45900021516718,197.61252100890124 112.79313211422414,197.08189844249864 111.4801527603413,196.76556477618578 110.06401074293535,195.71451538857218 109.45441318571102,194.84713843229838 109.00424883584492,193.63280142250005 107.63499893818516,192.39804429624928 106.5564801832079,191.0 106.3126411603298,191.14286649824498 108.85419405251741,193.67361964892916 109.57633269717917,195.26552094719227 110.21406552620465,196.03085149348044 111.18942161771702,196.7961777437231 112.59618521115044,197.2451671443996 113.45900021516718,197.92885271023988 113.58091972657712,198.19416260355501 114.38746418681694,200.35743939180247 115.29717131057987,201.71457193399692 115.37219870224362,203.173729449838 115.6066593011492,204.08186855329404 116.28190582600655,204.82674218028114 116.46009588119341,205.24509407714504 116.19750001037028,206.50014206860214 116.40382533741649,207.52049777832144 116.19750001037028,207.6429399505505 116.2068784343428,208.0000623251617 115.56914560531732,207.97965535751428 115.38157712621614,208.2041318337142 113.78724505362334,209.0 113.39335124741774,208.64288024330017" stroke="#4dd2ff" stroke-linecap="round" stroke-linejoin="round" stroke-width="0.5"><title>2021-09-06 4.6km</title></polyline><polyline fill="none" points="135.36225967018981,191.12699579723994 135.30591710800945,191.0 135.2656724207336,191.22333725258432 135.37835754510888,191.39412398796048 135.65202141854388,191.52549806044044 135.63189907489868,191.58680585994443 135.29384370183107,191.62621798282998 135.13688942146837,191.84079463045782 135.19725645237486,191.99844227813446 135.16506070256582,192.0728868529368 134.50907230006123,192.38380140591835 134.30784886371111,192.37066420472183 134.2716286451614,192.60275432478375 134.01406264664547,192.7034723922552 133.89332858481794,192.83922255662765 133.65990939865878,192.96183533755539 133.8128392102808,193.0537947546036 133.92954880336765,193.26398716498443 134.04223392771382,193.48731577351282 134.05028286518063,193.69312765785435 134.19113927062426,193.72378042974378 134.50907230006123,193.54424253735488 134.51712123752804,193.72378042974378 134.41248505061958,193.79822280888766 134.34406908226083,194.1047492543803 134.02211158409773,194.25363294841736 133.93357327209378,194.37186384731103 134.03820945900225,194.5951882266745 133.93357327209378,194.96301475793734 134.19918820806197,195.06810762784517 133.8128392102808,195.637357392814 133.88125517863955,195.7161761545358 134.03820945900225,195.68114560688628 134.09455202116806,195.82126767168302 134.29175098879205,195.6855244264807 134.4487052691402,195.9394954028612 134.66602658042393,195.926359000081 134.67407551786164,196.00517737252085 134.61370848695515,196.13216230479156 134.28772652006592,196.27228328956335 134.11467436481325,196.4211614682281 134.00198924045253,196.4255402324634 133.985891365548,196.51749420553824 134.06638074008515,196.68826548646393 134.20321267680265,196.78897652108935 134.3963871757005,196.5437667427359 134.55736592477479,196.55252425250728 134.62980636187422,196.7101592043873 134.61370848695515,197.05170014338364 134.95981279747502,197.2531207883767 134.79480957967462,197.2137124558576 134.64590423677873,197.3450734610342 134.90347023530921,197.30128649207109 134.97993514110567,197.437025989213 135.12079154656385,197.41951123307808 134.97993514110567,197.5027062780282 134.81493192331982,197.4326473006695 134.730418080042,197.67347468395747 134.53321911240346,197.72601870861035 134.63383083060035,198.35654332484046 134.47285208151152,198.6148813100226 134.23943289535237,198.74623917025747 134.15894352081523,199.07901109676823 133.99394030298572,199.1490681033756 133.95369561573898,199.36799570856238 133.59954236776684,199.79271292746125 133.52307746194128,199.7489277896384 133.35002530665952,199.5256230772684 133.48283277466544,199.18847513274522 133.4788083059393,199.01333257692022 133.39026999394991,198.96078970798044 133.2655114634108,199.12279673571902 133.12465505795262,199.17971801739623 133.12063058924105,199.35486007533837 133.01196993360645,199.46432359543178 132.00182828312973,199.45994505856652 131.57523459805816,199.71389965579874 131.20095900645538,199.62195070473535 130.83875682101643,199.71389965579874 131.05607813227107,199.83211952350393 130.14654819997668,199.45118798383555 129.80446835816838,199.52124454498335 129.43019276655104,199.48183773965502 129.22896933021548,199.59567954932936 129.84068857670354,199.5869224949056 130.72204722792958,199.84963355767104 131.13254303809663,200.06418005094747 131.9857304081961,201.13690072248937 132.09439106384525,201.1106302469707 132.12256234492816,200.93987186873346 132.31976131255215,200.6290027731702 132.4485443118174,200.69905792472127 132.4968379365455,200.94425029491322 132.65781668563432,201.07122451158284 133.0723369645275,201.0931165900729 133.1769731514214,200.84354641000027 133.38222105649766,200.6640303594213 133.59551789902616,200.89608758895702 133.71625196083914,200.9705208450905 133.75649664810044,200.92673658823696 133.78064346047177,201.11500866036658 133.65588492993265,201.1325223107233 133.9617445531767,201.20695526623967 134.07040520881128,201.3864696519595 134.05430733390676,201.7892804165749 134.22735948917398,201.79803714154332 134.22735948917398,201.87246925093496 134.1629679895268,202.03884656503942 133.78064346047177,202.51170582371924 133.74039877319592,202.78316033935698 133.62368918010907,202.8488346298691 133.4788083059393,202.83132149294033 133.33392743176955,202.54235397722732 133.362098712867,202.86196947913413 133.62368918010907,203.0327222514352 133.71222749211302,203.20785278267067 134.30784886371111,203.4180087287168 134.32797120734176,203.61502924311935 134.4205339880573,203.70259370340136 134.4446808004286,203.84707477658594 134.5855372058868,203.99155549329225 134.78676064222236,203.9871772949955 134.98395960984635,204.1404140406812 134.90347023530921,204.18419589436598 134.87127448550018,204.35056663985233 134.91151917274692,204.52569322971976 135.0523755782051,204.62639078174834 135.44274904472695,204.6526596798867 135.74055973051873,204.56509664026453 135.90153847960755,204.70957558543523 135.98605232287082,204.6789285662453 135.96190551051404,204.8671885736403 136.02227254142053,205.09922914540584 135.93373422943114,205.20430381888218 135.94983210433566,205.3050002040436 136.1550800094119,205.392562137371 136.2999608835671,205.55892945002415 136.37240132066654,205.37504976118362 136.41264600794239,205.3969402306102 136.38849919557106,205.8172356568357 136.2758140712249,205.9529554106557 136.11483532213606,205.9792237137699 136.05446829122957,206.22001594340327 136.29593641487008,206.4170270313225 136.47301303883432,207.09561570639562 136.56155135083827,207.21819862869233 137.6602313133335,207.70414983216324 138.1270696856518,207.50714307341696 138.96415918087587,207.4458519466607 139.07684430522204,207.5027651379096 139.12916239869082,207.75230693908816 139.08086877396272,208.89055430353255 139.33441030376707,208.93871043516265 139.34245924120478,209.0" stroke="#4dd2ff" stroke-linecap="round" stroke-linejoin="round" stroke-width="0.5"><title>2021-09-04 11.1km</title></polyline><polyline fill="none" points="153.08129649370676,208.95906185578497 152.66569493891438,207.3624672552396 152.84201075002784,207.07589755379013 160.00798907363787,201.87662829433975 161.4814854952274,201.0987724554725 161.15404184599174,200.29362002802372 160.77622225077357,197.55061714052863 160.14652292523533,196.13133619879954 160.42359062848845,195.8720433266426 158.01813920523273,192.02354902858497 158.4715227195993,191.34118363099697 159.2775378561346,191.0 158.82415434182622,191.04094206854643 158.30780089495238,191.45036226167576 157.89219934016,191.96895988826873 159.2397558966186,194.58922067901585 160.322838736407,195.7219262366125 161.07847792695975,197.61885153026378 161.62001934682485,200.79854653115035 160.209492857859,201.8902748591936 160.14652292523533,202.01309389801463 159.13900400453713,202.5180157674331 154.1391913605039,206.24347831662453 153.64802588656312,206.31170954073605 154.69332676683553,205.73856648588844 154.88223656447371,206.27077080924937 153.89990561676677,207.37611342055607 153.0938904802315,207.4034057482495 153.10648446669802,208.45415734159178 153.49689804849913,208.8908315955341 153.84952967078425,209.0 154.21475527947769,208.71343280258588 154.1391913605039,208.4132190781238 154.34069514460862,208.03112818782392" stroke="#4dd2ff" stroke-linecap="round" stroke-linejoin="round" stroke-width="0.5"><title>2021-09-03 4.3km</title></polyline><polyline fill="none" points="184.924004500499,209.0 184.44484401127556,207.477202568145 184.76008117519086,205.62513459584443 184.96183296007803,205.36447167595907 183.86480762966676,204.15718595169892 183.3225997076952,200.63131736495416 181.9607751595904,198.7791802443826 180.92679726192728,195.89804086572258 180.1702280685422,194.9650907907053 177.82486356893787,194.29281499917852 175.93344058544608,192.74245530563348 175.517327529029,192.05645125666342 175.2273093382246,191.0 175.03816703992197,191.3567244818405 176.00909750477877,192.92081593784678 177.32048410666175,194.19677539911936 178.08966278663138,194.66325298517768 179.8297719314578,195.15716913546203 180.8259213694837,196.0489588141063 181.9859941327013,199.03985252602433 183.3730376539752,201.1800951409532 183.38564714055974,202.62062898838485" stroke="#4dd2ff" stroke-linecap="round" stroke-linejoin="round" stroke-width="0.5"><title>2021-08-30 3.1km</title></polyline><polyline fill="none" points="25.073289416031912,224.7872279405783 24.62107420346001,224.44897055174079 24.281912794103846,223.90570693714108 23.886224483023398,221.34311366993643 22.96295175742125,220.1028013132236 22.03967903170269,217.70414886217623 21.342513912299182,217.07885221839388 19.919920222775545,216.709823351448 18.30890352796996,215.4284653988434 17.913215217005927,214.23935449424607 17.498684605467133,213.5730378358203 15.586191102280281,211.66632917802053 15.105712438875344,211.0 14.926710583968088,211.15376855962677 17.121838594961446,213.23475275310193 17.574053807533346,213.8805690040972 18.14874397352105,215.19269422976504 18.751697590283584,215.96151176332933 19.816287569876295,216.79182985222724 21.493252316548023,217.40687704322772 22.020836731186137,217.96041715376487 22.38826159137534,218.88297903360944 22.482473094016314,219.016237458236 22.793371052655857,220.07204962451215 23.886224483023398,221.7838831252593 23.971014835406095,223.23943729890016 24.14059554011328,223.95695831355988 25.007341364223976,225.16648523194453 24.80949720874196,226.5400028528893 25.05444711551536,227.52400701145234 24.913129861583002,227.70850700447772 24.159437840629835,227.8622568089122 24.00869943649741,228.23125563567737 23.44343042076798,228.57975361524586 22.341155840083957,229.0" stroke="#4dd2ff" stroke-linecap="round" stroke-linejoin="round" stroke-width="0.5"><title>2021-08-29 4.5km</title></polyline><polyline fill="none" points="47.78491158463294,225.57401975661196 47.766333757143,224.88679201886407 47.8963785492233,224.67455921683722 47.431932863313705,224.19956078498217 47.051087400875986,223.50221963565127 46.72597542073345,221.24846927295584 45.7599283940508,219.92449973162002 44.83103702223161,217.51908674402512 44.180813062004745,216.97331480887078 42.90823188261129,216.68021415558906 41.85858463245677,215.91208528738935 40.98542674293276,215.02266745505767 40.520981057023164,213.64810110023973 38.53315352136269,211.73783491537324 38.03155218058964,211.0 37.817907165095676,211.07075146803982 40.3073360415292,213.5773509827486 41.16191610362148,215.34609279915458 41.700673099199776,215.98283418161736 42.73174252198078,216.76106957175944 43.92072347790236,217.09459765173233 44.39445807755692,217.36748364997766 44.53379178326577,217.50897987639473 45.09112660639221,218.22656559947063 45.60201686085202,219.88407297655067 46.62379736988805,221.3697482767384 46.94890934997238,223.76498628850823 47.84064506692812,225.07881188578176 47.71060027490603,225.92773855294217 46.735264334478416,226.43304951253958 46.930331522540655,227.1505878277021 46.88388695399044,227.9893953927749 46.15935168397846,228.46438049968128 45.24903813959099,228.71703147196968 44.877481590840034,228.60586510236317 44.95179290056694,228.44416840151098 44.877481590840034,228.61597113975586 44.803170281113125,228.53512281955045 45.2211713984143,228.81809172857902 45.295482708199415,228.65639528170868 45.17472682980588,229.0" stroke="#4dd2ff" stroke-linecap="round" stroke-linejoin="round" stroke-width="0.5"><title>2021-08-28 4.8km</title></polyline><polyline fill="none" points="72.36608875729144,229.0 71.83640814456157,228.63814142192132 71.36831830086885,227.90101983507338 70.90022845705971,224.818478515881 70.51836568978615,223.9875235175423 69.59450415603351,222.94212304390385 68.54746108449763,219.79248216658016 67.5866450893227,218.9883096615522 65.71428571437718,218.5192073659855 63.96510787709849,217.12529615146923 63.22601865010802,216.18708057091862 62.62242911476642,214.5384898573684 60.29429804964457,212.27332826826023 59.38275466969935,211.0 59.062482671346515,211.13403498100524 62.33911157771945,214.3642476755922 63.78033557039453,217.13869919558056 65.44328633102123,218.5192073659855 67.70982662722236,219.35018773569027 68.47355216176948,220.12755297789408 68.80614231398795,220.9451231265848 68.90468754421454,221.1863726212614 69.45900446444284,222.94212304390385 70.56763830495765,224.577233913471" stroke="#4dd2ff" stroke-linecap="round" stroke-linejoin="round" stroke-width="0.5"><title>2021-08-27 3.5km</title></polyline><polyline fill="none" points="93.57839620922459,224.69078746991 93.22342462296365,224.41637543907564 92.80306353396736,223.6236264584295 92.54150552302599,221.35715192845964 92.18653393676504,220.73716800338298 91.56066298205405,220.1781636775995 90.68257537396858,217.71851731120114 89.9632908438798,217.04769693473645 88.46867363859201,216.65130151843186 87.18890765652759,215.5942414182864 86.18004104291322,213.5817388670912 84.2370386760449,211.6505215061261 83.81667758704862,211.0 83.53643686103169,211.14230184579355 85.98387253470719,213.5410819425233 86.79657064011553,215.29948280791723 87.63729281810811,216.2040847879034 88.56208721391158,216.86474534792796 89.95394948631292,217.2611401412214 90.78533030679682,218.1860568262273 90.82269573688973,218.30802339152433 91.29910497111268,219.781777397955 92.35467837238684,221.45878836751945 92.53216416545911,222.13975054745242 92.54150552302599,223.15610566014948 92.81240489153424,224.111472532466 93.60642028180882,225.08715942474373 93.38222770101856,226.2254519425187 93.58773756673327,227.4348772926969 93.29815548320767,227.98368860629125 92.55084688059287,228.0853200877682 90.93479202728486,229.0 90.59850315615768,228.72559667288442 90.64520994375926,228.9898369236762" stroke="#4dd2ff" stroke-linecap="round" stroke-linejoin="round" stroke-width="0.5"><title>2021-08-26 4.6km</title></polyline><polyline fill="none" points="116.56261128938058,224.82985334705154 116.00834166124696,224.4107874541878 115.6137768412591,223.77707561352872 115.32255042641191,221.4875115637551 115.05011281260522,220.92533595147688 114.35492717730813,220.14850766168092 113.40609272907022,217.62378520747734 112.84242870041635,217.0922587440582 111.31114142260049,216.6833908261542 109.96774215437472,215.6816592540781 109.5825717348489,215.10923791399546 109.0564853081014,213.7395056819223 106.93335080024553,211.69510366002214 106.52939157973742,211.0 106.2945315677789,211.091999217002 108.8028364952188,213.6475082485922 109.68591014004778,215.42611430943361 110.52201178256655,216.36651734783663 111.35811342502711,216.90826833245956 112.7672734966036,217.3273572426333 113.3591207267018,217.87932604013622 113.67853034287691,218.48240050961613 113.74429114622762,218.5641731140422 114.15764476725599,219.9236354900786 115.24739522259915,221.63061044109054 115.36952242883854,223.35800649127486 115.63256564218318,224.16547999359318 116.3747232798487,225.06493852901622 116.16804646939272,226.6491976851903 116.41230088181328,227.5179771653202 116.22441287222318,227.93703352788725 115.44467763265129,228.14145079935406 114.60857599019073,228.67293427394907 113.68792474339716,229.0 113.34972632618155,228.79558401293616 113.37790952762589,228.68315508971864 113.57519193767803,228.70359671900223" stroke="#4dd2ff" stroke-linecap="round" stroke-linejoin="round" stroke-width="0.5"><title>2021-08-25 4.7km</title></polyline><polyline fill="none" points="140.02211000939133,226.96018236286181 139.08468600997003,225.5809722638951 138.9035927373916,224.9551081686077 138.81837237381842,223.19340306456434 138.41357564675855,222.24300120142289 137.6252872836194,221.31577425151772 136.60264292068314,218.63837527837313 135.7397867393447,217.91975815154728 134.01407437678427,217.44454176833096 132.58663328678813,216.2275175521645 132.22444674157305,215.77547755018168 131.4148532875115,213.95571342452604 129.12455601623515,211.61432939577207 128.78367456188425,211.0 128.54931856208714,211.25500495074084 131.29767528764205,213.95571342452604 132.18183655978646,215.98411156122165 133.11926055920776,216.95773322957393 134.13125237671193,217.73430802916118 135.61195619398495,218.12838927382836 136.4002445570659,218.7426903906162 136.49611746612936,218.88177709761658 137.44419401098276,221.32736462267349 138.65858419204596,223.18181283307786 138.73315201024525,225.11736947315512 138.92489782825578,225.7316428721242 139.96884728217265,227.06449187088583 139.67057600960834,228.69866499432828 139.7664489186136,229.0" stroke="#4dd2ff" stroke-linecap="round" stroke-linejoin="round" stroke-width="0.5"><title>2021-08-24 4.2km</title></polyline><polyline fill="none" points="161.99407672107918,224.64979653859336 161.3043740337016,223.75742985384568 161.16456943488447,222.18563333673956 160.85699931753334,220.97888686657825 159.99953111162176,220.07635517213203 159.6360391547205,218.70733494831074 159.14206290565198,217.62224983431952 158.43371960503282,217.04421029172954 156.9331502446439,216.62842593807727 155.7774322279729,215.66501826430613 155.32073720521294,215.10725279591134 154.69627666391898,213.60634522367036 153.335511902289,212.3690981007676 152.30095787119353,211.0 152.13319235265953,211.2738207270595 154.36074562685098,213.4542252849642 154.91064371541142,214.26552965099108 155.348698124988,215.33035925879813 155.935877439857,216.0300998730745 156.99839239078574,216.89209421277337 158.50828205782454,217.3484419373126 159.3657502636779,218.4233882812041 159.92496865888825,219.8532565233836 160.03681233793031,220.44142489605292 160.3909839882399,220.71522654360888 160.4748667475069,221.0701537819332 160.79175717144972,221.31353192243114 160.98748360975878,221.7191611852977 161.00612422294216,223.0780103702491 161.19253035471775,223.92981933034753 162.08727978693787,225.00471347339044 162.10592040012125,225.25822500067443 161.93815488158725,225.42047212931357 162.12456101330463,225.42047212931357 161.88223304203711,226.4345122833547 162.1525219330215,227.397843403327 161.70514721691143,227.98597903724294 159.70128130086232,228.85803752182983 159.42167210322805,228.929018779505 159.47759394271998,228.81747678646934 159.4589533295948,229.0 159.08614106616005,228.7769160389871" stroke="#4dd2ff" stroke-linecap="round" stroke-linejoin="round" stroke-width="0.5"><title>2021-08-23 4.5km</title></polyline><polyline fill="none" points="187.28799149842234,225.461680540815 189.0,224.06262513685942 188.04357066948432,222.91228038995905 187.01062699256,221.03647306504718 184.2082890541642,216.9013187466262 182.79277364508016,217.22260070650373 182.43889479275094,217.08786965037143 181.09032943675993,217.5438819408373 180.65037194470642,217.56460973748472 179.81827842717757,216.5800360612484 177.58979808713775,214.538319459185 175.7630180658889,217.1293253735348 175.30393198720412,217.3780594588825 174.9500531349331,217.39878727967152 174.37619553669356,217.160417157982 172.53028692881344,217.53351804136037 171.99468650372,216.25875265029754 171.353878852271,216.1862046828901 171.0,215.81310026615392 179.04357066948432,216.3002086150591 180.54516471840907,217.67861256511242 180.71732199785765,217.57497363468428 180.91817215731135,217.77188753797236 183.23273113707546,216.84949900773063 184.6482465462177,216.59040003014525 185.30818278429797,217.56460973748472 185.69075451651588,217.80297918199358 185.9872476089513,218.3937191275545 186.03506907547126,218.58026807448186 185.55685441021342,218.90154624304705 185.5759829968447,219.08809452413698 187.66099893732462,221.98992518210434 188.64612114767078,223.68954137292894 188.68437832093332,223.87608337716665 188.25398512225365,224.12480566911108 187.76620616368018,223.88644681467122 187.66099893732462,224.1869861741725 187.34537725825794,224.11444224895968 187.4505844845553,224.58079540864128 186.97236981935566,224.88133330183337" stroke="#4dd2ff" stroke-linecap="round" stroke-linejoin="round" stroke-width="0.5"><title>2021-08-21 5.0km</title></polyline><polyline fill="none" points="24.836524424434174,245.8386990032377 25.052105939481407,244.95148200062977 24.12416811386356,243.65633876706124 23.871094161411747,241.35156525426282 23.767989958578255,241.0660153799181 22.8587983516627,240.04618951617158 22.005845400854014,237.6699656470155 21.246623543498572,237.06825431606558 19.887522687844466,236.73170275195298 18.519048722751904,235.67104996072885 18.209736114251427,235.23250841343543 17.581737787812017,233.67210495035397 15.47278818412451,231.65273276419612 15.107236919517163,231.0 14.9478940605768,231.26517306265305 17.366156272764783,233.67210495035397 18.162870567466598,235.29370034196472 18.875226878095418,236.16058304412581 19.840657141117845,236.89487937170634 21.387220183794852,237.37420956213464 21.499697496008594,237.47619449150807 22.005845400854014,238.00651489387383 22.680709274020046,239.8116284880889 23.355573147186078,240.9130419868452 23.37431936588837,241.22918680992734 23.693005083769094,241.4637453983305 23.889840380114038,242.0858336125675 23.99294458294753,243.77871503213828 24.949001736589707,245.24722164313425 24.71467400289839,246.3893825142368 24.986494173994288,247.60291795435478 24.71467400289839,248.021024301328 24.096048785781022,248.11280357171927 23.261842053732835,248.69407084932027 22.38076977484161,249.0 22.080830275663175,248.84703551047278" stroke="#4dd2ff" stroke-linecap="round" stroke-linejoin="round" stroke-width="0.5"><title>2021-08-19 4.7km</title></polyline><polyline fill="none" points="47.75632197287632,245.17737042978115 47.878449160722084,244.80941113841254 47.37115161091788,244.3187972083033 47.079925239726435,243.70552731804491 46.77930446941173,241.47729020991392 45.90562535577919,240.17917202031094 44.96618544869125,237.80777465547726 44.3743383071851,237.1433671480263 42.7960792632075,236.7447210921382 41.405708200647496,235.661215676344 41.02053783868905,235.0887942505433 40.40990189911099,233.63728630788682 38.3901060987846,231.6644373967647 37.9485693424358,231.0 37.835836553538684,231.27599746506894 40.30656350933714,233.6986179415835 41.03932663687738,235.34433982638438 41.72511776909232,236.13141719556734 42.720924070628826,236.8776032400565 44.18645032576751,237.33757890756533 44.68435347650666,237.8282179121452 44.768903068150394,237.83843953933683 45.80228696600534,240.41426520563255 46.59141648799414,241.5488396726796 47.023558845277876,244.12459537426184 47.85026596352691,245.2386968819992 47.70934997749282,246.12792734567483 46.70414927683305,246.70030251356366 46.88264285918558,247.12958231592347 46.9484036526992,248.2436593204693 45.22922862262931,249.0" stroke="#4dd2ff" stroke-linecap="round" stroke-linejoin="round" stroke-width="0.5"><title>2021-08-18 4.6km</title></polyline><polyline fill="none" points="70.49976200889796,246.68148968933383 70.3782557748491,246.17303915897355 70.74277447693748,244.739198419491 69.81745777156902,243.85448063048534 69.75203133781906,242.22739839807764 69.49032560299383,241.23080091152224 68.49023583048256,240.1731792593855 68.15375702851452,238.871479772999 67.55557249172125,237.64095551257924 67.00412112177582,237.09179232916358 65.36846027895808,236.66466387434775 64.22817100561224,235.69853503532067 63.73279943608213,235.0374955557927 63.293507666909136,233.7764267057937 61.368101188971195,231.84412108205288 60.807303185691126,231.0 60.68579695164226,231.2034031500225 63.16265479940921,233.58319738013233 64.46183684037533,235.98328951235453 65.73297898110468,236.91890716395574 67.05085428874008,237.31552574586385 67.63969219219871,237.84434872100246 68.56500889762538,240.1731792593855 69.44359243608778,241.4545275140481 69.54640540335095,241.7799473693085 69.75203133781906,243.80363460555964 70.00439043936785,244.34260150206683 70.67734804324573,245.14596328660264 70.49041537550511,246.42726466187014 70.65865477651823,247.56618907871598 70.49041537550511,247.6475404576413 70.38760240824195,247.99328327496187 69.69595153752016,248.14581659128453 68.8454078992363,248.74577930836676 68.0415974278585,249.0 67.79858495981898,248.74577930836676" stroke="#4dd2ff" stroke-linecap="round" stroke-linejoin="round" stroke-width="0.5"><title>2021-08-17 4.8km</title></polyline><polyline fill="none" points="93.51666308176937,247.15212298347615 93.26330192084424,246.30474559773575 93.64803553553065,244.7426987965664 92.6815096255159,243.7625818706947 92.64397463871865,242.077989456433 92.39061347790994,241.14890231772733 91.4710063013481,240.09729056093784 90.62646909849718,237.78984218546248 89.99775806965772,237.08534795807645 88.50574234453961,236.74841465028294 87.15448281989666,235.68655878175196 86.66652799159056,234.99226393723802 86.23487564339302,233.74660844696336 84.92115110554732,232.54178329822753 83.73879902152112,231.0 83.49482160730986,231.0918948571998 86.14103817642899,233.5934532981555 86.89173791231588,235.26794025437994 87.56736767466646,236.12559634500212 88.44943986431463,236.79946520493104 89.04061590635683,237.0138773259605 89.26582582714036,237.07513787007338 89.81946688238531,237.1976588757534 90.63585284515284,237.93278259925137 91.63991374196485,240.5056844388164 92.46568345144624,241.62876130016957 92.73781210574089,243.87488729220058 93.61988429544726,245.15107877139235 93.34775564115262,246.49872401787434 93.60111680201953,247.49923991160176 93.4040581213776,247.9382394681743 92.7096608656575,248.06075072030944 91.93080988962902,248.52016693642508 91.44285506126471,248.6426776662047 91.00181896646973,249.0 90.72030656546121,248.71414220782026" stroke="#4dd2ff" stroke-linecap="round" stroke-linejoin="round" stroke-width="0.5"><title>2021-08-16 4.9km</title></polyline><polyline fill="none" points="116.11061832553241,246.2981206329714 116.37202872056514,245.3839387495973 116.29734003625344,245.0182642727741 116.47472566150827,244.7440077688516 115.55978927883552,243.94155037179735 115.49443668004824,242.46867318702425 115.25169845612254,241.2090965739626 114.30875381681835,240.06124641808856 113.3844813486212,237.5420368273626 112.61892233451363,237.04428423946956 111.35855078703025,236.77001162532542 110.02349055517698,235.7338656366046 109.36062848201254,234.8907213967832 109.06187374482397,233.6818669021959 106.97992666997015,231.6704716944223 106.59714716294548,231.0 106.382417195593,231.10158683331247 106.52245847869199,231.2742842753869 108.94984071835643,233.54980651508959 109.81809667334892,235.39864024081908 111.01311562216142,236.6074794442975 111.19050124735804,236.73953685620654 112.57224190689158,237.14586654851882 113.44983394735027,237.86709875661472 114.47680335649056,240.4878821226157 115.1490015151794,241.3309915956852 115.2983788838028,241.71699177566916 115.55978927883552,243.9110772126005 116.43738131935243,245.1401558744692 116.20397918089293,246.23717536557524 116.45605349040125,247.53733513718907 115.63447796314722,247.73032654216513 115.5411171077867,248.16709555117268 113.82327736885054,249.0 113.45917003293289,248.70543681537674" stroke="#4dd2ff" stroke-linecap="round" stroke-linejoin="round" stroke-width="0.5"><title>2021-08-13 4.8km</title></polyline><polyline fill="none" points="139.27875395980664,247.29795006629865 138.9602486147778,246.3195165277357 139.34432858973742,244.78050788897235 138.32323792466195,243.82244075078052 138.36070914176526,242.41590444718167 138.0703072094475,241.10108563870745 137.25530823826557,240.02068239008804 136.56209072255297,238.27774965141725 135.99065466225147,237.36040767225495 135.63467810017755,237.08520387364842 134.10772600467317,236.71826461041928 132.75876219029306,235.6378265940948 132.37468221533345,235.0160612083564 131.92502761055948,233.74194294221525 129.92968530178769,231.77468092554045 129.45192728412803,231.0 129.22709998174105,231.1427047121906 131.70956811244832,233.47692484517756 132.14985491294647,234.4452576991389 133.33956605481217,236.17804667373275 133.48945092305075,236.27997475033044 134.34192111133598,236.91192712254997 135.45668981905328,237.1361675820226 136.29042439878685,237.8802355523876 137.06795215292368,239.95952723293885 138.1920886649168,241.67186125393346 138.2670310990652,243.05802064828458 138.51996181427967,244.10782315611868 139.2974895683583,245.086272578621 139.1101334830746,246.78835014177457 139.32559298118576,247.55274931379972 139.06329446175369,247.94004325741116 136.78691802493995,249.0 136.3841024414869,248.87769771974854" stroke="#4dd2ff" stroke-linecap="round" stroke-linejoin="round" stroke-width="0.5"><title>2021-08-12 4.9km</title></polyline><polyline fill="none" points="162.3727540234686,248.21018168445153 162.2807323774905,247.665093358155 162.63859433413018,246.18555782882322 161.64680548285833,245.17323556331394 161.43208830890944,244.2832762304024 161.51388532755664,243.54905577056343 161.37074054492405,242.53671555417532 161.02310321561527,241.7691123336699 160.1233360103215,240.96813083460438 159.23379343235865,238.3204112797248 158.5794172831229,237.68628657146473 156.71853510855,237.18565989099443 155.11326861730777,235.88402263073658 154.6838342693518,235.30551352296607 154.4179939587484,233.97048391135468 153.15014016948408,232.89132621092722 152.14812669088133,231.76765883473854 151.79026473424165,231.0 151.64711995160906,231.289263214916 154.25439992139582,233.88148151086352 155.03147159866057,235.52801729242492 155.54270296532195,236.24002711637877 156.96392616454978,237.39703580617788 157.28088961180765,237.4971611347719 157.50583141314564,237.59728639594687 158.58964191039559,237.88653677157708 159.20311955036595,238.55403549033508 160.2358069109614,241.11275281340932 161.22759576223325,242.6257127726276 161.58545771887293,245.21773339011997 162.52612343343208,246.46366713456518 162.2909570048214,248.21018168445153 162.55679731548298,249.0" stroke="#4dd2ff" stroke-linecap="round" stroke-linejoin="round" stroke-width="0.5"><title>2021-08-11 4.4km</title></polyline><polyline fill="none" points="177.41565013257787,248.105906666402 178.21582540532108,248.62353995873127 178.75648437335622,248.60001119118533 184.50909579382278,245.84713324037148 184.09819497808348,242.52953036269173 184.53072215255816,240.41189320749254 182.38971263892017,237.0001144662965 182.0220645405352,232.67063160630642 181.394900137675,231.09412032639375 180.50821942999028,231.0 175.7504205108853,232.694161565596 175.4260251299711,232.4118019384914 177.65354007855058,231.72943179297727 178.49696806876455,234.2236051399086 178.92949524323922,234.5294929621159 179.1890115478309,233.94124688603915 178.34558355773333,231.8470819237118 180.68123029975686,231.0 181.394900137675,231.0705902474583 182.0220645405352,232.81181133538485 182.00043818191625,235.75304127586423 182.32483356271405,236.85893661752925 184.55234851129353,240.10601110657444 184.09819497808348,243.11776037549134 184.5739748700289,245.42361141717993 184.11982133670244,246.55300167843234 182.38971263892017,246.85887750962866 178.43208899255842,249.0 177.35077105637174,247.8470897008374" stroke="#4dd2ff" stroke-linecap="round" stroke-linejoin="round" stroke-width="0.5"><title>2021-08-10 3.1km</title></polyline><polyline fill="none" points="25.337661598983686,265.938136305238 24.619130229897564,265.1749852933426 24.32829610427143,262.8948110843048 24.080231703061145,262.382929496358 23.378808223700617,261.6755987444267 22.882679421221837,260.1306254813171 22.46353612258099,259.3488244686232 22.121378327778075,258.9579221192471 20.607330085738795,258.5763257834551 19.332792300148867,257.62698347760306 18.956418725807453,257.10577285531326 18.614260931004537,255.88650375956786 16.903471956960857,254.2018451080221 15.286776376509806,251.6143138844709 14.602460786903976,251.0 14.61101473175222,251.242002801715 15.671703895699466,252.47062514347635 16.356019485305296,253.7085429503204 18.118132128554862,255.35597835914814 18.417520199000137,255.76550693767058 19.17026734756655,257.31984176812693 19.53808697697241,257.81312959899515 20.735639258811716,258.73454879649216 21.78777447785251,258.97653654468013 22.574737405899214,259.6373468431484 23.336038499313872,261.6011426417972 24.319742159423186,263.11817693519697 24.490821056824643,265.00746371284913 25.39753921306692,266.3941633337381 25.166582701553125,267.32482555181923 25.35476948870928,268.5067565332429 24.98694985927432,268.6649669148537 24.90996435546549,268.8697094629897 24.388173718354665,269.0" stroke="#4dd2ff" stroke-linecap="round" stroke-linejoin="round" stroke-width="0.5"><title>2021-08-08 5.0km</title></polyline><polyline fill="none" points="48.4153591542854,269.0 48.20698266720865,268.1621575353347 48.43347884877585,266.93002658546175 48.596556099597365,266.7033132355864 47.735870609409176,265.81617029046174 47.3915964133339,263.31242353605194 46.53091092314571,262.30696853467816 45.62492619664408,259.8721584531304 44.98167704080697,259.2609844835315 43.776717354601715,259.0342579349308 42.79825384996366,258.3836491504335 41.82885019259993,257.36829871677764 41.29431920393836,255.88961903605377 40.2524367684382,255.04183519765502 39.3555118892109,254.03631705816224 37.79721815959783,251.4534803718052 37.19926824013237,251.0 37.11772961472161,251.1084411005504 38.241150675632525,252.23227997472713 39.174314943898935,253.84901381132659 39.30115280562313,254.04617511638935 41.2761995093897,255.90933487434086 41.99192744336324,257.4865923740217 42.63517659920035,258.29492952172586 43.64987949287752,259.06383098514925 44.75518085923977,259.29055748282553 45.67928528023185,260.138313972835 46.6215093958308,262.56326171478577 47.42783580237301,263.6968601850167 47.50031458056765,265.2050238976808 47.708691067644395,265.95417069647374 48.451598543382715,266.93002658546175" stroke="#4dd2ff" stroke-linecap="round" stroke-linejoin="round" stroke-width="0.5"><title>2021-08-07 4.9km</title></polyline><polyline fill="none" points="70.03652501438046,266.90446585792233 69.66965059109498,265.8317417608923 70.02506018866552,264.53448479634244 69.9333415828296,264.1103793687071 70.15117327170447,263.82348390888365 69.00469069875544,262.65094950658386 68.9359017443494,260.6925491906586 68.63781627535354,259.27051161412965 67.47986887668958,258.17279010111815 66.42510490957648,255.05422363635444 65.61110228276812,254.4180289121141 64.33850662678014,254.18101457050943 63.45571504562395,253.71945935906842 62.06847113225376,252.5468538842979 61.529624323011376,251.78590336437628 61.27739815687528,251.0 62.12579526094487,252.63417585287243 63.18055922805797,253.65708693518536 64.08628046070226,254.16854012213298 65.43912989681121,254.50534990041342 66.40217525808839,255.4284546927811 67.29643166501774,257.7985652058851 68.61488662392367,259.7944216062024 68.76392935839249,260.28090798172343 68.76392935839249,260.8048147984955 69.03908517595846,262.8630042114237 70.05945466586854,264.2101689781557 69.92187675711466,265.3327979689493 68.75246453267755,266.1435808727256 68.9932258729823,266.84209836683294 68.84418313857168,267.21630296357034 68.94736657006433,268.05202353096684 68.54609766957583,268.05202353096684 66.860768287268,269.0 66.64293659839313,268.66321950318525" stroke="#4dd2ff" stroke-linecap="round" stroke-linejoin="round" stroke-width="0.5"><title>2021-08-06 3.9km</title></polyline><polyline fill="none" points="93.95985975652002,269.0 93.84431834710995,268.1771891267854 94.25396516226465,266.4287013058929 93.19308494846337,265.217318922485 93.04603224556195,262.90880891388224 92.83595695573604,262.34881855433923 91.76457297737943,261.14883229845145 91.15535463683773,259.13740561711893 90.66167770558968,258.2345407079556 90.04195560049266,257.74310566579516 88.41387210402172,257.3430992313806 86.69125472713495,256.15450250080903 86.31311920535518,255.48019831931742 85.90347239014227,253.9944328339334 83.73969690449303,251.89147851000598 83.10947103489889,251.0 82.88889198057586,251.16000934664044 85.70390086481348,253.91442966683826 86.6597434337018,255.93735402167658 87.81515752791893,257.0230933294224" stroke="#4dd2ff" stroke-linecap="round" stroke-linejoin="round" stroke-width="0.5"><title>2021-08-05 3.0km</title></polyline><polyline fill="none" points="116.99627698562108,269.0 116.55333278770559,267.85685137436667 116.96537390205776,266.0188294142572 115.93527111626463,265.14464032462274 115.93527111626463,263.4298699846113 115.70864850340877,262.320302245309 115.45112280698959,261.83836622245144 114.5652344112168,260.8969053322944 113.75145321054151,258.58805952545663 112.90676892612828,257.6017456119298 111.1555941903498,257.20945986350125 109.67224617890315,256.01017991687695 109.06448553525843,255.001432338031 108.71425058809109,253.8693852964352 106.65404501656303,251.89668881209218 106.04628437303472,251.0 105.86086587153841,251.03362592736084 105.89176895510172,251.23538133299735 106.95277482445817,252.10965161579952 108.62154133740114,253.88059372494172 109.6310420674854,255.86447235313244 110.41392018459737,256.64904986887996" stroke="#4dd2ff" stroke-linecap="round" stroke-linejoin="round" stroke-width="0.5"><title>2021-08-04 3.0km</title></polyline><polyline fill="none" points="138.7365695355693,269.0 138.62388965586433,267.97467142775713 139.54581594467163,267.4285696341685 139.79166295501636,266.0242986870726 138.83900578989414,264.9878044969955 138.50096615066286,262.2572207600897 138.2243882640032,261.71109800587874 137.4458727312158,260.84175561334996 136.83125520538306,258.85785268916516 136.3702920609503,258.099950213742 135.65323828079272,257.54266652111255 134.10645084065618,257.1525666954549 132.61088152771117,256.0268443265377 132.1191875069635,255.32465675711865 131.67871161340736,253.9091257185355 130.459720187122,252.88369325431995 128.94366362330038,251.0 128.7797656164039,251.06687709157995 128.87195824529044,251.31209283717908 129.93729529011762,252.21492914691044 131.49432635569246,253.89797975147667 132.58015065139625,256.04913594116806 133.18452455184888,256.584133691591" stroke="#4dd2ff" stroke-linecap="round" stroke-linejoin="round" stroke-width="0.5"><title>2021-08-03 3.1km</title></polyline></svg>