<?xml version="1.0" encoding="utf-8" ?>
<svg baseProfile="full" height="200mm" version="1.1" viewBox="0,0,200,200" width="200mm" xmlns="http://www.w3.org/2000/svg" xmlns:ev="http://www.w3.org/2001/xml-events" xmlns:xlink="http://www.w3.org/1999/xlink"><defs /><rect fill="#1a1a1a" height="200" width="200" x="0" y="0" /><text alignment-baseline="middle" fill="#e1ed5e" style="dominant-baseline: central; font-size:9.0px; font-family:Arial;" text-anchor="middle" x="100.0" y="100.0">2020</text><line stroke="#e1ed5e" stroke-width="0.3" x1="100.0" x2="100.0" y1="15.0" y2="10.0" /><path d="M 100.0 14.0 a86.0,86.0 0 0,1 42.35913384403234,11.155469271406648" fill="none" id="id25" stroke="none" /><text fill="#e1ed5e" style="font-size:6.75px; font-family:Arial;" text-anchor="middle"><textPath startOffset="22.145653131862478" xlink:href="#id25">January</textPath></text><path d="M 101.44090949804482 79.04949213459386 l 0.895673355562999 -13.022894016605125 a34.05365846525774,34.05365846525774 0 0,0 0.5828543187499271,0.04511661049958403 l -1.1190966690881596 13.005599639110487" fill="#ff3f05" stroke="none" /><line stroke="#e1ed5e" stroke-width="0.3" x1="143.13028292997686" x2="145.6673583964461" y1="26.7553504044142" y2="22.446841604673864" /><path d="M 143.63769802327073 25.89364864446614 a86.0,86.0 0 0,1 29.32050498858742,28.57503671076993" fill="none" id="id26" stroke="none" /><text fill="#e1ed5e" style="font-size:6.75px; font-family:Arial;" text-anchor="middle"><textPath startOffset="20.669276256404974" xlink:href="#id26">February</textPath></text><line stroke="#e1ed5e" stroke-width="0.3" x1="172.87174338648825" x2="177.1583165268699" y1="56.24261187166439" y2="53.66864786411523" /><path d="M 173.72905801456457 55.72781907015455 a86.0,86.0 0 0,1 12.242430191666344,42.057860355516425" fill="none" id="id27" stroke="none" /><text fill="#e1ed5e" style="font-size:6.75px; font-family:Arial;" text-anchor="middle"><textPath startOffset="22.145653131862474" xlink:href="#id27">March</textPath></text><line stroke="#e1ed5e" stroke-width="0.3" x1="184.99686870605535" x2="189.99668451229388" y1="99.2704041080226" y2="99.22748670261217" /><path d="M 185.99683186730306 99.26182062694052 a86.0,86.0 0 0,1 -10.086455211305974,41.156179273409016" fill="none" id="id28" stroke="none" /><text fill="#e1ed5e" style="font-size:6.75px; font-family:Arial;" text-anchor="middle"><textPath startOffset="21.40746469413373" xlink:href="#id28">April</textPath></text><path d="M 120.05942366710727 106.21446072829308 l 8.84893481361069 2.741422625046895 a30.263856936754273,30.263856936754273 0 0,0 -0.15799935985416916,0.49493074438167833 l -8.800570737979266 -2.892922403119957" fill="#ff0000" stroke="none" /><line stroke="#e1ed5e" stroke-width="0.3" x1="174.33088141563837" x2="178.70328620479359" y1="141.23008692659167" y2="143.65538615756765" /><path d="M 175.20536237346943 141.71514677278685 a86.0,86.0 0 0,1 -30.301960400862466,31.631185727798858" fill="none" id="id29" stroke="none" /><text fill="#e1ed5e" style="font-size:6.75px; font-family:Arial;" text-anchor="middle"><textPath startOffset="22.145653131862474" xlink:href="#id29">May</textPath></text><line stroke="#e1ed5e" stroke-width="0.3" x1="143.1302829299769" x2="145.66735839644613" y1="173.24464959558577" y2="177.55315839532614" /><path d="M 143.63769802327073 174.10635135553383 a86.0,86.0 0 0,1 -40.68552437913181,11.842963189579606" fill="none" id="id30" stroke="none" /><text fill="#e1ed5e" style="font-size:6.75px; font-family:Arial;" text-anchor="middle"><textPath startOffset="21.407464694133747" xlink:href="#id30">June</textPath></text><line stroke="#e1ed5e" stroke-width="0.3" x1="101.45913802915013" x2="101.54496967792366" y1="184.9874750549273" y2="189.98673829345242" /><path d="M 101.47630435890484 185.9873277026323 a86.0,86.0 0 0,1 -42.54439059252881,-10.42667462771756" fill="none" id="id31" stroke="none" /><text fill="#e1ed5e" style="font-size:6.75px; font-family:Arial;" text-anchor="middle"><textPath startOffset="22.145653131862474" xlink:href="#id31">July</textPath></text><path d="M 94.30408787586889 120.21278271476187 l -5.857210423286937 20.78517347537155 a42.594683381424005,42.594683381424005 0 0,0 -0.702082056107404,-0.20436585427934767 l 6.213152491775948 -20.681563926789686" fill="#ffc312" stroke="none" /><path d="M 91.59046798132341 119.24265499422711 l -5.018715976325737 11.483804310629116 a33.53256843172424,33.53256843172424 0 0,0 -0.525481849462223,-0.2350413474051627 l 5.215111228643595 -11.395959212314098" fill="#ff3605" stroke="none" /><line stroke="#e1ed5e" stroke-width="0.3" x1="58.13341422392154" x2="55.67067388415222" y1="173.97424548756322" y2="178.32567169271397" /><path d="M 57.64086615596768 174.84453072859336 a86.0,86.0 0 0,1 -31.369924170532247,-30.572349798747897" fill="none" id="id32" stroke="none" /><text fill="#e1ed5e" style="font-size:6.75px; font-family:Arial;" text-anchor="middle"><textPath startOffset="22.145653131862474" xlink:href="#id32">August</textPath></text><path d="M 89.34428304082925 118.09573695890944 l -7.889264980562049 13.397696695060926 a36.54795094751618,36.54795094751618 0 0,0 -0.537894021563009,-0.3229899049980479 l 8.118091758682485 -13.26029278952696" fill="#ff6709" stroke="none" /><path d="M 87.2517909369889 116.68781488649013 l -9.500947531768304 12.437045303597762 a36.65081786633393,36.65081786633393 0 0,0 -0.4966884897973398,-0.38622797385988306 l 9.713045966200871 -12.272116278117085" fill="#ff6809" stroke="none" /><path d="M 85.34317274990678 115.03919595460226 l -10.571706717313587 10.84750240849383 a36.146923496841616,36.146923496841616 0 0,0 -0.4406621179826459,-0.4368957977254176 l 10.756360755426195 -10.664426600539752" fill="#ff6008" stroke="none" /><path d="M 83.8745106332314 113.45245675266167 l -10.46646183861262 8.731494718385411 a34.63032734149575,34.63032734149575 0 0,0 -0.37689864117649025,-0.4597550593734872 l 10.61480729902774 -8.550537377313429" fill="#ff4806" stroke="none" /><path d="M 82.37810715431573 111.42229804090323 l -12.5887350396078 8.159865959891912 a36.00198861420885,36.00198861420885 0 0,0 -0.33170227919693124,-0.5214910771817372 l 12.72695501043062 -7.942561208031504" fill="#ff5e08" stroke="none" /><line stroke="#e1ed5e" stroke-width="0.3" x1="26.387840678322732" x2="22.057713659400548" y1="142.50000000000003" y2="145.00000000000006" /><path d="M 25.521815274538298 143.00000000000003 a86.0,86.0 0 0,1 -11.493303480769221,-40.785679425670985" fill="none" id="id33" stroke="none" /><text fill="#e1ed5e" style="font-size:6.75px; font-family:Arial;" text-anchor="middle"><textPath startOffset="21.40746469413373" xlink:href="#id33">September</textPath></text><path d="M 80.9802524753101 108.90220220490708 l -14.158294569344703 6.626796752655594 a36.632393940575525,36.632393940575525 0 0,0 -0.2616870562207542,-0.571833444836787 l 14.269966090420512 -6.382774325604119" fill="#ff6809" stroke="none" /><path d="M 80.16572619554312 106.89939002012753 l -14.731275398067678 5.12430227933729 a36.597081416205256,36.597081416205256 0 0,0 -0.20130935387974766,-0.5951353344174701 l 14.817070173519793 -4.870665270445659" fill="#ff6709" stroke="none" /><path d="M 79.407916724674 104.11899336999214 l -15.387154404473184 3.077861823286892 a36.69196463386103,36.69196463386103 0 0,0 -0.118241966201207,-0.6186919314637396 l 15.437722662956547 -2.8132673267898376" fill="#ff6909" stroke="none" /><line stroke="#e1ed5e" stroke-width="0.3" x1="15.003131293944662" x2="10.003315487706104" y1="100.72959589197737" y2="100.7725132973878" /><path d="M 14.003168132696942 100.73817937305945 a86.0,86.0 0 0,1 10.791469493833604,-42.45332614584628" fill="none" id="id34" stroke="none" /><text fill="#e1ed5e" style="font-size:6.75px; font-family:Arial;" text-anchor="middle"><textPath startOffset="22.145653131862435" xlink:href="#id34">October</textPath></text><path d="M 79.01933749520258 99.09900007780938 l -15.66708434245349 -0.672812012979893 a36.6815244092646,36.6815244092646 0 0,0 0.03241670425456993,-0.6288754023464713 l 15.65322604874235 0.9416592087030763" fill="#ff6909" stroke="none" /><path d="M 79.03789590574601 98.7389718711861 l -15.638820017210685 -0.9407925776194633 a36.66709233408719,36.66709233408719 0 0,0 0.04319041047334161,-0.6279790892902379 l 15.62036564557228 1.2091150910640263" fill="#ff6809" stroke="none" /><path d="M 79.2786578344484 96.59031103205396 l -15.408902614023038 -2.535529061362354 a36.61611947282228,36.61611947282228 0 0,0 0.10738144764094823,-0.6193476544837346 l 15.363106348889856 2.7996697487666813" fill="#ff6809" stroke="none" /><path d="M 80.5471966667186 92.08871423366112 l -14.507398742601447 -5.9000327722731845 a36.66125809093036,36.66125809093036 0 0,0 0.24209376209476005,-0.58093689788786 l 14.403979135970209 6.1482021796023085" fill="#ff6809" stroke="none" /><path d="M 80.68587082218212 91.75594674310238 l -14.440693001579607 -6.163873145689564 a36.70117659674023,36.70117659674023 0 0,0 0.2523050662228929,-0.5773233673217888 l 14.332754053339736 6.4108585827872195" fill="#ff6909" stroke="none" /><path d="M 81.63589988554816 89.8137432299009 l -13.729305857908757 -7.6154145246587746 a36.699948335023,36.699948335023 0 0,0 0.31031839665426886,-0.5483028727536229 l 13.59655409623312 7.849974167511503" fill="#ff6909" stroke="none" /><line stroke="#e1ed5e" stroke-width="0.3" x1="26.387840678322718" x2="22.05771365940052" y1="57.49999999999999" y2="54.99999999999999" /><path d="M 25.521815274538284 56.99999999999999 a86.0,86.0 0 0,1 29.574782752854787,-30.34633250058573" fill="none" id="id35" stroke="none" /><text fill="#e1ed5e" style="font-size:6.75px; font-family:Arial;" text-anchor="middle"><textPath startOffset="21.40746469413373" xlink:href="#id35">November</textPath></text><path d="M 81.81346652052679 89.5 l -13.610116345815708 -7.857804335958827 a36.71560867191765,36.71560867191765 0 0,0 0.3198214321276569,-0.543126711396266 l 13.473221203558271 8.090282215648665" fill="#ff6909" stroke="none" /><path d="M 82.98947788004972 87.6856937992154 l -51.03156635985086 -36.94291860235379 a84.0,84.0 0 0,0 0.855591921664725,-1.1607747629245466 l 50.389872418602316 37.8134996745472" fill="#4dd2ff" stroke="none" /><path d="M 86.40962598614128 83.9905735841838 l -10.175293091597448 -11.986469676491252 a36.722978242221004,36.722978242221004 0 0,0 0.48408870968859796,-0.40384401883380944 l 9.968030047746941 12.159375879236944" fill="#ff6909" stroke="none" /><path d="M 88.72937992617638 82.28071324371311 l -8.473070758727985 -13.321074572366074 a36.78746198237542,36.78746198237542 0 0,0 0.5357583564283632,-0.3343528389280177 l 8.243148273509922 13.464563208135628" fill="#ff6a09" stroke="none" /><line stroke="#e1ed5e" stroke-width="0.3" x1="56.869717070023135" x2="54.33264160355391" y1="26.7553504044142" y2="22.446841604673864" /><path d="M 56.362301976729285 25.89364864446614 a86.0,86.0 0 0,1 42.16139366436587,-11.88097634709845" fill="none" id="id36" stroke="none" /><text fill="#e1ed5e" style="font-size:6.75px; font-family:Arial;" text-anchor="middle"><textPath startOffset="22.145653131862474" xlink:href="#id36">December</textPath></text><path d="M 90.93487009805054 81.0573650232925 l -8.106603581602757 -16.93968362374459 a39.77950752554005,39.77950752554005 0 0,0 0.6184980077962633,-0.2894882974438561 l 7.814616859934971 17.07634815275899" fill="#ff990e" stroke="none" /><path d="M 95.00130118170881 79.60360301121753 l -3.7746793321523597 -15.401979787662203 a36.85777996568666,36.85777996568666 0 0,0 0.6158195178328058,-0.1453317294189286 l 3.509727660579648 15.464507660727364" fill="#ff6b09" stroke="none" /></svg>