<?xml version="1.0" encoding="utf-8" ?>
<svg baseProfile="full" height="200mm" version="1.1" viewBox="0,0,200,200" width="200mm" xmlns="http://www.w3.org/2000/svg" xmlns:ev="http://www.w3.org/2001/xml-events" xmlns:xlink="http://www.w3.org/1999/xlink"><defs /><rect fill="#1a1a1a" height="200" width="200" x="0" y="0" /><text alignment-baseline="middle" fill="#e1ed5e" style="dominant-baseline: central; font-size:9.0px; font-family:Arial;" text-anchor="middle" x="100.0" y="100.0">2021</text><line stroke="#e1ed5e" stroke-width="0.3" x1="100.0" x2="100.0" y1="15.0" y2="10.0" /><path d="M 100.0 14.0 a86.0,86.0 0 0,1 42.46469731375804,11.215312516191453" fill="none" id="id37" stroke="none" /><text fill="#e1ed5e" style="font-size:6.75px; font-family:Arial;" text-anchor="middle"><textPath startOffset="22.20632615414155" xlink:href="#id37">January</textPath></text><path d="M 110.05341064243156 81.56283822128135 l 17.138576951731086 -31.430797681975424 a56.79980255330579,56.79980255330579 0 0,0 0.8543661605740006,0.47545384335681595 l -17.677067201377124 31.131128441058426" fill="#67ff28" stroke="none" /><line stroke="#e1ed5e" stroke-width="0.3" x1="143.23703022742887" x2="145.7803849466894" y1="26.81831364943548" y2="22.513508569990506" /><path d="M 143.74570117128098 25.957352633546492 a86.0,86.0 0 0,1 28.547481713284135,27.462654790039103" fill="none" id="id38" stroke="none" /><text fill="#e1ed5e" style="font-size:6.75px; font-family:Arial;" text-anchor="middle"><textPath startOffset="19.985693538727396" xlink:href="#id38">February</textPath></text><path d="M 114.94478906791727 85.2469230424477 l 25.846166849569222 -25.514611605192226 a57.31831144449836,57.31831144449836 0 0,0 0.6870984445131099,0.7081153447291677 l -26.281529557785444 25.065932064912943" fill="#61ff29" stroke="none" /><path d="M 116.15771136456269 86.58626213691792 l 28.336712249272207 -23.52444733274337 a57.82891368760515,57.82891368760515 0 0,0 0.6292378085333798,0.7713711513459514 l -28.737448549881993 23.033192011789318" fill="#5cff2a" stroke="none" /><line stroke="#e1ed5e" stroke-width="0.3" x1="172.23445277983987" x2="176.4835382374775" y1="55.19839476539836" y2="52.563006222186495" /><path d="M 173.08426987136738 54.67131705675599 a86.0,86.0 0 0,1 12.851231095245387,41.99856678651699" fill="none" id="id39" stroke="none" /><text fill="#e1ed5e" style="font-size:6.75px; font-family:Arial;" text-anchor="middle"><textPath startOffset="22.20632615414155" xlink:href="#id39">March</textPath></text><line stroke="#e1ed5e" stroke-width="0.3" x1="184.98032266829074" x2="189.97916517819016" y1="98.17113171792111" y2="98.06355123074" /><path d="M 185.9800911702706 98.14961562048488 a86.0,86.0 0 0,1 -9.607161424134198,41.387399972396054" fill="none" id="id40" stroke="none" /><text fill="#e1ed5e" style="font-size:6.75px; font-family:Arial;" text-anchor="middle"><textPath startOffset="21.466115282336823" xlink:href="#id40">April</textPath></text><line stroke="#e1ed5e" stroke-width="0.3" x1="174.80103733775053" x2="179.2010983576182" y1="140.37084112569926" y2="142.7455964860345" /><path d="M 175.68104954172406 140.8457921977663 a86.0,86.0 0 0,1 -30.038265399797805,32.042727171017184" fill="none" id="id41" stroke="none" /><text fill="#e1ed5e" style="font-size:6.75px; font-family:Arial;" text-anchor="middle"><textPath startOffset="22.206326154141568" xlink:href="#id41">May</textPath></text><path d="M 115.32070863581623 114.36230785411682 l 25.77177831440791 24.159601419106185 a56.325216180754836,56.325216180754836 0 0,0 -0.6691796394886607,0.7016321766589182 l -25.352092123540285 -24.599640712347608" fill="#6dff28" stroke="none" /><line stroke="#e1ed5e" stroke-width="0.3" x1="143.8653032363475" x2="146.44561519142675" y1="172.8068346515853" y2="177.08958963109032" /><path d="M 144.38136562736335 173.6633856474863 a86.0,86.0 0 0,1 -40.68145358897372,12.25698825130547" fill="none" id="id42" stroke="none" /><text fill="#e1ed5e" style="font-size:6.75px; font-family:Arial;" text-anchor="middle"><textPath startOffset="21.466115282336833" xlink:href="#id42">June</textPath></text><path d="M 110.21172684928248 118.3499491758327 l 16.425257786457173 29.515345448416195 a54.777873087139675,54.777873087139675 0 0,0 -0.8278689205815435,0.4514201435450667 l -15.914766054006982 -29.793706243721033" fill="#7eff26" stroke="none" /><path d="M 109.2508944713604 118.85261126421891 l 27.752683414081186 56.55783379265672 a84.0,84.0 0 0,0 -1.303549327999069,0.6257828940017598 l -26.775021418081884 -57.02717096315804" fill="#4dd2ff" stroke="none" /><path d="M 101.98527174616119 120.90594882070398 l 3.053993688666214 32.16014929818324 a53.304830603670545,53.304830603670545 0 0,0 -0.9141922682731674,0.07888035562705942 l -2.4999571026515053 -32.20795390608897" fill="#8fff24" stroke="none" /><line stroke="#e1ed5e" stroke-width="0.3" x1="102.19456741930631" x2="102.32365962044197" y1="184.97166512339345" y2="189.96999836594603" /><path d="M 102.22038585953345 185.97133177190398 a86.0,86.0 0 0,1 -42.740103519485714,-10.115201625700543" fill="none" id="id43" stroke="none" /><text fill="#e1ed5e" style="font-size:6.75px; font-family:Arial;" text-anchor="middle"><textPath startOffset="22.20632615414155" xlink:href="#id43">July</textPath></text><path d="M 94.11515582081647 120.15858648285463 l -4.010740250255573 13.73882667633525 a35.31228129256134,35.31228129256134 0 0,0 -0.5820221078552867,-0.17535848669664528 l 4.2466373325511055 -13.667752820532879" fill="#ff820c" stroke="none" /><path d="M 91.07499286063937 119.00905698771935 l -8.551819684473081 18.214218228904908 a41.121912573259856,41.121912573259856 0 0,0 -0.6381481131060455,-0.30634987448787526 l 8.864080465579368 -18.06431407791747" fill="#ffd413" stroke="none" /><path d="M 90.7491055286396 118.85261126421891 l -10.776214704408899 21.961096556764094 a45.46255435008851,45.46255435008851 0 0,0 -0.6995736564281534,-0.35078075424395433 l 11.152642268519813 -21.772347961610837" fill="#f0ff19" stroke="none" /><path d="M 90.42595943632237 118.69057910512821 l -11.30734955453098 22.074369741036083 a45.80189414968787,45.80189414968787 0 0,0 -0.6986077798887382,-0.3654785721950368 l 11.685648236946212 -21.87646174989633" fill="#ecff1a" stroke="none" /><path d="M 90.10565033884886 118.52300852407294 l -11.09729845276106 20.775024218293048 a44.553166755668244,44.553166755668244 0 0,0 -0.6733408946315024,-0.36715914289401974 l 11.453262159261202 -20.580924423639264" fill="#fcff18" stroke="none" /><line stroke="#e1ed5e" stroke-width="0.3" x1="58.666819895761336" x2="56.23545636021788" y1="174.27360380694188" y2="178.64263932499728" /><path d="M 58.180547188652646 175.14741091055294 a86.0,86.0 0 0,1 -31.652253787137756,-30.449443065178592" fill="none" id="id44" stroke="none" /><text fill="#e1ed5e" style="font-size:6.75px; font-family:Arial;" text-anchor="middle"><textPath startOffset="22.20632615414155" xlink:href="#id44">August</textPath></text><path d="M 89.7882731507175 118.34994917583269 l -11.668851335364995 20.968327111035098 a44.99651710816007,44.99651710816007 0 0,0 -0.6735576493905292,-0.38246361209877155 l 12.028057751676732 -20.764360333141692" fill="#f6ff19" stroke="none" /><path d="M 89.4739219176387 118.17145234162733 l -10.778359569313675 18.606972673222835 a42.503312932371074,42.503312932371074 0 0,0 -0.6299236462994642,-0.3721699935357111 l 11.097051086641521 -18.418684107393375" fill="#ffe715" stroke="none" /><path d="M 89.1626897886671 117.98757091392108 l -7.410395266553146 12.299639648399024 a35.35949488968963,35.35949488968963 0 0,0 -0.5186409479005543,-0.31859163048820494 l 7.621015414386009 -12.170259551082442" fill="#ff830c" stroke="none" /><path d="M 88.8546689885994 117.79835938074946 l -7.542880607645934 12.045483412169855 a35.21227351601637,35.21227351601637 0 0,0 -0.510943834839588,-0.3261085298654703 l 7.749106244532445 -11.91386045348058" fill="#ff810b" stroke="none" /><path d="M 88.54995079064634 117.60387380957326 l -7.735499408307137 11.892940628292218 a35.18731785377362,35.18731785377362 0 0,0 -0.5048966263248122,-0.33461795275654166 l 7.939070733371912 -11.758024654444357" fill="#ff800b" stroke="none" /><path d="M 88.24862548938628 117.40417183066458 l -10.320614859098256 15.285169768321467 a39.44319673799117,39.44319673799117 0 0,0 -0.5594230760416925,-0.3847762927934233 l 10.58219481976284 -15.105252686162942" fill="#ffbd11" stroke="none" /><path d="M 87.95078237400918 117.19931262002967 l -13.14089223687485 18.757592459829628 a43.90262700369141,43.90262700369141 0 0,0 -0.6152068268014231,-0.43893373616847337 l 13.46182639152516 -18.528614461816932" fill="#fff917" stroke="none" /><path d="M 87.65650970185807 116.9893568818739 l -13.833923467223181 19.040762149467884 a44.53567636014731,44.53567636014731 0 0,0 -0.6163208048968314,-0.4559393973132015 l 14.159629242538577 -18.799812803414916" fill="#fdff18" stroke="none" /><path d="M 87.36589467227662 116.77436683061367 l -8.238454288615914 10.938238266166806 a34.69369144654026,34.69369144654026 0 0,0 -0.47393444659636413,-0.36339272404853573 l 8.425517463705765 -10.794806200290905" fill="#ff790b" stroke="none" /><path d="M 87.07902340077011 116.55440617244103 l -9.097966870181533 11.656351031652976 a35.786599356986656,35.786599356986656 0 0,0 -0.48233946710099446,-0.38319964421295705 l 9.297263829999887 -11.498017473434889" fill="#ff890c" stroke="none" /><path d="M 86.79598089348748 116.32954008644616 l -13.121413841845186 16.227381344486187 a41.86862253500084,41.86862253500084 0 0,0 -0.5565134869621776,-0.4579727125245682 l 13.398797457352053 -15.999113513104438" fill="#ffde14" stroke="none" /><path d="M 86.51685102203217 116.09983520530335 l -14.738733533322408 17.599092126706836 a43.95557252282323,43.95557252282323 0 0,0 -0.5758902618023618,-0.49078617478039316 l 15.039489271701827 -17.342781561703493" fill="#fffa17" stroke="none" /><path d="M 86.24171649860922 115.8653595955263 l -14.864346965767764 17.140816275572217 a43.68824350432732,43.68824350432732 0 0,0 -0.5639063090441436,-0.4975817534691533 l 15.157195627718496 -16.882411380330776" fill="#fff617" stroke="none" /><path d="M 85.44109423537348 115.13401014063109 l -15.892900254579935 16.52069994169794 a43.92417512290563,43.92417512290563 0 0,0 -0.5403720349931725,-0.5288677694779864 l 16.174922241948902 -16.244682069297387" fill="#fff917" stroke="none" /><path d="M 85.18274418774928 114.88116024355367 l -15.925714948853516 15.994399985394336 a43.570981979633025,43.570981979633025 0 0,0 -0.5269171118697251,-0.5337642524217978 l 16.198672685778774 -15.717895238991874" fill="#fff517" stroke="none" /><path d="M 84.9287848128048 114.62390073753433 l -15.493547900848213 15.033698594307193 a42.58847192323607,42.58847192323607 0 0,0 -0.5059783205537434,-0.5305162462259314 l 15.750032772780914 -14.764775231498762" fill="#ffe815" stroke="none" /><path d="M 84.67929136418377 114.36230785411682 l -16.19445270447199 15.181394072518362 a43.197635558375936,43.197635558375936 0 0,0 -0.5038769521959814,-0.5468589147020515 l 16.453376064663697 -14.900383903014967" fill="#fff016" stroke="none" /><path d="M 84.19399662182784 113.82643327865904 l -17.71692710074366 15.498029742267844 a44.53887065653924,44.53887065653924 0 0,0 -0.4998056421653199,-0.5813868773542825 l 17.981075252479762 -15.190765765752031" fill="#fcff18" stroke="none" /><path d="M 83.72743513129214 113.27417163493432 l -16.48589611286928 13.448194327296635 a42.27530731409189,42.27530731409189 0 0,0 -0.45512808314725256,-0.5678422628681308 l 16.714942108071394 -13.162424230850245" fill="#ffe315" stroke="none" /><path d="M 83.50135304334701 112.99209946851258 l -15.33816611310961 12.078261952610152 a40.52290325513124,40.52290325513124 0 0,0 -0.4268280926936559,-0.5517328468124632 l 15.543801023021334 -11.812451111684435" fill="#ffcc13" stroke="none" /><path d="M 83.28015986056508 112.70617746262583 l -17.451723813782444 13.262369613430248 a42.91924067653301,42.91924067653301 0 0,0 -0.4419429637286799,-0.5920548212015155 l 17.677428044206206 -12.960001912719425" fill="#ffec16" stroke="none" /><path d="M 83.06392112726016 112.41649034213515 l -17.634144183076828 12.928268850555414 a42.865570574347785,42.865570574347785 0 0,0 -0.4311464150786567,-0.598824661413152 l 17.854070390531092 -12.622810583691123" fill="#ffeb16" stroke="none" /><path d="M 82.85270091963577 112.12312394758628 l -12.744451374385001 9.01031485667502 a36.60790872123752,36.60790872123752 0 0,0 -0.3593486235470148,-0.5176684937062738 l 12.897660905094149 -8.789605100781733" fill="#ff950d" stroke="none" /><path d="M 82.6465618267979 111.8261652097733 l -18.845790858149527 12.843186115215024 a43.80594796668545,43.80594796668545 0 0,0 -0.4192790240877574,-0.6267652524861694 l 19.064072987648014 -12.516883948523034" fill="#fff817" stroke="none" /><path d="M 82.44556493220864 111.52570212397912 l -17.89888641618694 11.751858284657537 a42.412059874805024,42.412059874805024 0 0,0 -0.3954321456023033,-0.6137194713710233 l 18.098523425166288 -11.442017213365066" fill="#ffe515" stroke="none" /><path d="M 82.24976979558568 111.22182372390057 l -12.1804845762828 7.700590314188847 a35.41052725267338,35.41052725267338 0 0,0 -0.3212836937921805,-0.5180116133481694 l 12.311232909742936 -7.489782369475414" fill="#ff830c" stroke="none" /><line stroke="#e1ed5e" stroke-width="0.3" x1="26.63291911575756" x2="22.317208475507996" y1="142.92168965132927" y2="145.44649492493687" /><path d="M 25.769776987707644 143.4266507060508 a86.0,86.0 0 0,1 -11.730757126820373,-40.83630448921669" fill="none" id="id45" stroke="none" /><text fill="#e1ed5e" style="font-size:6.75px; font-family:Arial;" text-anchor="middle"><textPath startOffset="21.46611528233685" xlink:href="#id45">September</textPath></text><path d="M 81.69416730710424 110.29060199501025 l -12.044965334197235 6.771062883472251 a34.817687305549676,34.817687305549676 0 0,0 -0.2891917159251584,-0.524966965816329 l 12.159733459573909 -6.562725399258099" fill="#ff7b0b" stroke="none" /><path d="M 81.51974371655577 109.97397251340807 l -17.921595253191278 9.67245776845039 a41.36516672413129,41.36516672413129 0 0,0 -0.3327876745191137,-0.6295088658805417 l 18.085435435935278 -9.362533887483721" fill="#ffd714" stroke="none" /><path d="M 81.35079622478065 109.6543875284942 l -46.85024682281147 24.25360589571368 a73.75588143802503,73.75588143802503 0 0,0 -0.5739659169375452,-1.1324892062784422 l 47.26079140953529 -23.443562477732552" fill="#3fffc0" stroke="none" /><path d="M 81.02952815118164 109.00673069616217 l -19.719758942386832 9.36247446045349 a42.82944847604926,42.82944847604926 0 0,0 -0.3104632954669285,-0.6687103183243795 l 19.877996854693585 -9.021644074850283" fill="#ffeb16" stroke="none" /><path d="M 80.87730276802145 108.67885076344099 l -24.501070828259376 11.119829733399994 a47.90637628948181,47.90637628948181 0 0,0 -0.33433840683055177,-0.7538448446412447 l 24.688850319821206 -10.696436552266054" fill="#d1ff1c" stroke="none" /><path d="M 80.73074385275274 108.34839909993369 l -24.746927455430914 10.72159845280574 a47.969669850918955,47.969669850918955 0 0,0 -0.32173718719194894,-0.760491670893093 l 24.927815623815167 -10.294032256246489" fill="#d0ff1d" stroke="none" /><path d="M 80.58989483394504 108.01547362559985 l -18.103752906968875 7.4760107020934194 a40.58664354437481,40.58664354437481 0 0,0 -0.2611023542339193,-0.6480346303603617 l 18.229757875460184 -7.163276703890252" fill="#ffcd13" stroke="none" /><path d="M 80.32549172779594 107.34259656027581 l -16.384017971485065 6.114573860576919 a38.48782600514987,38.48782600514987 0 0,0 -0.2263006075375344,-0.6226820796997582 l 16.486842840027823 -5.831643983871044" fill="#ffaf10" stroke="none" /><path d="M 80.0844068197444 106.66101706037122 l -21.954571556351514 7.342978658299816 a44.150001032380224,44.150001032380224 0 0,0 -0.23485224918845066,-0.7228009009958779 l 22.077716056556213 -6.963978857326135" fill="#fffc17" stroke="none" /><path d="M 79.97269907076064 106.31721596034903 l -27.73890195157517 8.749687975937498 a50.08614311240605,50.08614311240605 0 0,0 -0.252274905224716,-0.8244489868027046 l 27.885403629306015 -8.270912016582745" fill="#b6ff1f" stroke="none" /><path d="M 79.86692584326677 105.97154293290107 l -20.562044180180376 6.098777000187593 a42.44744138040029,42.44744138040029 0 0,0 -0.20174129500521065,-0.7022879138846169 l 20.66397811207169 -5.743931610798381" fill="#ffe615" stroke="none" /><path d="M 79.76711848015287 105.62410040840567 l -25.244229977227146 7.01709660018227 a47.20135095447224,47.20135095447224 0 0,0 -0.21085950153838287,-0.7846866468842709 l 25.361277555107304 -6.58151902012246" fill="#daff1c" stroke="none" /><path d="M 79.67330655649465 105.27499134158121 l -16.667062011629014 4.325278385552243 a38.219146007047286,38.219146007047286 0 0,0 -0.15977183793923538,-0.6382090717465626 l 16.73904516386331 -4.037741474408289" fill="#ffac0f" stroke="none" /><path d="M 79.58551787078972 104.9243191809786 l -22.38590649910176 5.39986016100741 a44.02796776845411,44.02796776845411 0 0,0 -0.1713724366010094,-0.738267971643783 l 22.475539501633325 -5.013723532015053" fill="#fffb17" stroke="none" /><path d="M 79.50377843672027 104.57218783832718 l -21.003993220475547 4.685458832618012 a42.520252221522426,42.520252221522426 0 0,0 -0.1532064646676537,-0.7157295978689209 l 21.081533723867643 -4.323215415332927" fill="#ffe715" stroke="none" /><path d="M 79.4281124754447 104.21870165774334 l -21.51274829015235 4.411645103831708 a42.960440603904445,42.960440603904445 0 0,0 -0.14232193962897774,-0.7256965039689315 l 21.585500162756993 -4.040684872794821" fill="#ffed16" stroke="none" /><path d="M 79.35854240842038 103.8639653848113 l -5.646913402559418 1.0570705979318775 a26.745000367712542,26.745000367712542 0 0,0 -0.08081263918909842,-0.4532401972620095 l 5.6642724840877055 -0.9597116499366544" fill="#ff0000" stroke="none" /><path d="M 79.29508885075956 103.50808413554451 l -14.258438063756698 2.415842309516205 a35.46165101509625,35.46165101509625 0 0,0 -0.09679045826845095,-0.6027142760313612 l 14.297910276386439 -2.17004880379163" fill="#ff840c" stroke="none" /><path d="M 79.23777060512086 103.15116336523772 l -21.430482336888627 3.252586683009753 a42.675905824721326,42.675905824721326 0 0,0 -0.10397872477371983,-0.7272269588911677 l 21.48329511267895 -2.8832142521381847" fill="#ffe915" stroke="none" /><path d="M 79.18660465613746 102.79330883721812 l -21.572586448245072 2.8951977979558263 a42.76599771102384,42.76599771102384 0 0,0 -0.09163835012137242,-0.7304478142442654 l 21.619226307613292 -2.5234322294241522" fill="#ffea16" stroke="none" /><path d="M 79.1416061653843 102.43462659150553 l -29.52271400072876 3.4459405230091726 a50.72314162495181,50.72314162495181 0 0,0 -0.09375979135794403,-0.8680992221698471 l 29.57765609358776 -2.9372449789545434" fill="#aeff20" stroke="none" /><path d="M 79.10278846688536 102.07522291339032 l -21.95595624275974 2.1803628397103694 a43.06395242577291,43.06395242577291 0 0,0 -0.06690375399026963,-0.7382773502827319 l 21.990234593027086 -1.8021041008790712" fill="#ffee16" stroke="none" /><path d="M 79.07016306316243 101.71520430193888 l -44.73692751533428 3.6662001123752344 a65.88689905502778,65.88689905502778 0 0,0 -0.08290279104616122,-1.131142717250653 l 44.79340686504478 -2.895584258627821" fill="#35ff62" stroke="none" /><path d="M 79.04373962182676 101.35467743843564 l -44.50510386708906 2.876947461808349 a65.5979943149733,65.5979943149733 0 0,0 -0.06314165902688405,-1.1274367380924304 l 44.54803187700348 -2.110439007380481" fill="#34ff5e" stroke="none" /><path d="M 79.0235259727143 100.99374915477108 l -22.812465679908794 1.0807282700688958 a43.838050792279596,43.838050792279596 0 0,0 -0.029220914812030405,-0.7540619710822607 l 22.827688727572024 -0.6878890519726384" fill="#fff817" stroke="none" /><path d="M 79.0095281055655 100.63252640178507 l -22.106206611142944 0.6661479263156127 a43.11624117688796,43.11624117688796 0 0,0 -0.015969305768187378,-0.7420308888655386 l 22.114397979596138 -0.2855272216599452" fill="#ffef16" stroke="none" /><line stroke="#e1ed5e" stroke-width="0.3" x1="15.007084014347285" x2="10.007500721073583" y1="101.09737516637583" y2="101.16192664675087" /><path d="M 14.007167355692545 101.11028546245083 a86.0,86.0 0 0,1 10.666146001902534,-42.60595125391555" fill="none" id="id46" stroke="none" /><text fill="#e1ed5e" style="font-size:6.75px; font-family:Arial;" text-anchor="middle"><textPath startOffset="22.20632615414155" xlink:href="#id46">October</textPath></text><path d="M 79.00019446554 99.90962569577889 l -21.96334384777118 -0.09452096665154115 a42.963547236012786,42.963547236012786 0 0,0 0.009548122340388732,-0.739512597663088 l 21.958462718313076 0.47256982237510115" fill="#ffed16" stroke="none" /><path d="M 79.01574976396665 99.18683210126434 l -34.86059579964201 -1.3508949386426292 a55.88676047788428,55.88676047788428 0 0,0 0.045524800918824,-0.9609565950182946 l 34.83217739048969 1.9507626402839329" fill="#72ff27" stroke="none" /><path d="M 79.03285615573316 98.82574320788736 l -22.404933328965164 -1.2547796368346158 a43.44004254479899,43.44004254479899 0 0,0 0.048237910423231424,-0.746219123642846 l 22.38001482753752 1.6402578247304738" fill="#fff316" stroke="none" /><path d="M 79.05617556472873 98.46500227214037 l -21.38929442986299 -1.5676467519975725 a42.44666483503709,42.44666483503709 0 0,0 0.05967903282834628,-0.7282353619528502 l 21.359140913215146 1.9355960311582012" fill="#ffe615" stroke="none" /><path d="M 79.08570108090925 98.10471618934814 l -15.671619140041173 -1.4201846381620455 a36.7358371520862,36.7358371520862 0 0,0 0.06249093778771856,-0.6292752154125085 l 15.644851076571225 1.6897353842789844" fill="#ff970d" stroke="none" /><path d="M 79.26566170972629 96.67025291283419 l -23.920824009572346 -3.8414678565287383 a45.22731302868059,45.22731302868059 0 0,0 0.1300568210592469,-0.7676027199862131 l 23.851155326992874 4.252656364830779" fill="#f3ff19" stroke="none" /><path d="M 79.46518482838121 95.60439243477599 l -14.530577581489736 -3.110362387509895 a35.85974559113743,35.85974559113743 0 0,0 0.13439825041435485,-0.6024810037589471 l 14.474884944073343 3.3600215608188013" fill="#ff8a0c" stroke="none" /><path d="M 79.71946130924805 94.55025226153421 l -22.806193129186067 -6.128436789771852 a44.6152531752671,44.6152531752671 0 0,0 0.2056831781855731,-0.7399518274308411 l 22.697323180434132 6.520099920621636" fill="#fbff18" stroke="none" /><path d="M 79.81627453868168 94.20196356495316 l -21.89160025040854 -6.28864557817162 a43.77694502630993,43.77694502630993 0 0,0 0.2142862757699834,-0.7224667944824416 l 21.78010807752685 6.664541759400601" fill="#fff717" stroke="none" /><path d="M 80.803312248108 91.48605970444005 l -13.621493938206434 -6.041281059790698 a35.90107962370447,35.90107962370447 0 0,0 0.25540657687122265,-0.5627545367110427 l 13.51548504437186 6.274857605343812" fill="#ff8b0c" stroke="none" /><path d="M 81.43458229118936 90.18545643968196 l -12.945538774132794 -6.843614089556194 a35.6431563523493,35.6431563523493 0 0,0 0.2914114887613358,-0.5399412309398233 l 12.825819186152987 7.06543630382849" fill="#ff870c" stroke="none" /><line stroke="#e1ed5e" stroke-width="0.3" x1="26.266209847984243" x2="21.928928074336255" y1="57.711370442889674" y2="55.22380399835377" /><path d="M 25.398753493254645 57.213857153982495 a86.0,86.0 0 0,1 29.58750427330803,-30.492523968695096" fill="none" id="id47" stroke="none" /><text fill="#e1ed5e" style="font-size:6.75px; font-family:Arial;" text-anchor="middle"><textPath startOffset="21.46611528233685" xlink:href="#id47">November</textPath></text><path d="M 81.78341655067845 89.55222093294921 l -44.23403420680215 -25.369598965839458 a71.99280668776788,71.99280668776788 0 0,0 0.625790017551434,-1.06967799281 l 43.79078451478039 26.127256371003348" fill="#3dffac" stroke="none" /><path d="M 81.96595687620814 89.24020034530311 l -18.19168358087971 -10.853853978738202 a42.183566689738996,42.183566689738996 0 0,0 0.3774107501400829,-0.6203640397552368 l 18.00215703245341 11.165385791700514" fill="#ffe215" stroke="none" /><path d="M 82.34701348167596 88.62581576622439 l -18.853708485471948 -12.147834225164047 a43.42837934442041,43.42837934442041 0 0,0 0.41030174204217174,-0.6249177023147264 l 18.641810108071855 12.470569991456442" fill="#fff316" stroke="none" /><path d="M 83.39014120810768 87.1503855733568 l -11.43160100583239 -8.84364322686923 a35.453080193533076,35.453080193533076 0 0,0 0.3775684150313514,-0.47947354441694995 l 11.277678510207068 9.039109165239227" fill="#ff840c" stroke="none" /><path d="M 83.6137871275137 86.86637796730984 l -11.613668621962276 -9.308406724648064 a35.88367342466988,35.88367342466988 0 0,0 0.3904511184464451,-0.47864690375541885 l 11.451719011439438 9.506937798011565" fill="#ff8a0c" stroke="none" /><path d="M 84.31358615837235 86.03803664274999 l -11.086723434635774 -9.867929528645417 a35.84221916353529,35.84221916353529 0 0,0 0.41415916259358565,-0.45732489156871364 l 10.915220631426143 10.057307207483687" fill="#ff8a0c" stroke="none" /><path d="M 84.80347519578584 85.50635884689758 l -10.654353276755149 -10.161558323442973 a35.72319636854159,35.72319636854159 0 0,0 0.4282288162244241,-0.4413274374949281 l 10.477860196827606 10.343449956488024" fill="#ff880c" stroke="none" /><path d="M 85.05521093208273 85.24692304244772 l -10.265368606555596 -10.133684213400656 a35.424609123486945,35.424609123486945 0 0,0 0.4321198405001776,-0.4302641805778368 l 10.089412965888105 10.308884244628603" fill="#ff840c" stroke="none" /><path d="M 85.57189188830299 84.74124197986013 l -10.298315738991795 -10.891206709830447 a35.98911907539005,35.98911907539005 0 0,0 0.4537921428729258,-0.4217503407460435 l 10.109315712324012 11.066861636651138" fill="#ff8c0c" stroke="none" /><path d="M 85.83668400450813 84.49514656593479 l -9.78985988878749 -10.717147224844684 a35.51546076709542,35.51546076709542 0 0,0 0.45491755794357247,-0.40842947520330164 l 9.603931343247947 10.884075708817264" fill="#ff850c" stroke="none" /><path d="M 86.10567301691215 84.25364557470407 l -14.557798515577044 -16.49826259000126 a43.002776327290434,43.002776327290434 0 0,0 0.5592535662089878,-0.4849791816402778 l 14.271651150721283 16.74640676506122" fill="#ffed16" stroke="none" /><path d="M 86.93701828274178 83.55741782278169 l -14.057339521048767 -17.69419610857547 a43.59852584437239,43.59852584437239 0 0,0 0.5916266908898354,-0.46177401646658583 l 13.750680274999505 17.933548514265276" fill="#fff517" stroke="none" /><path d="M 87.22198572758235 83.33499621200491 l -13.312860260250597 -17.362546475239526 a42.87899148529959,42.87899148529959 0 0,0 0.5895939863972145,-0.44406996698916135 l 13.012020120094993 17.58913303173454" fill="#ffec16" stroke="none" /><path d="M 87.80319425747018 82.90503203632743 l -26.374883317171715 -36.96687434976994 a66.41127909656478,66.41127909656478 0 0,0 0.936300558138639,-0.655938376002937 l 25.734651619449416 37.41539756853682" fill="#35ff68" stroke="none" /><path d="M 88.09926311788651 82.69761687909137 l -10.79421120361403 -15.693614570509345 a40.04742853499994,40.04742853499994 0 0,0 0.5713343614369322,-0.38576751122385694 l 10.522472147770557 15.877093994031867" fill="#ffc512" stroke="none" /><path d="M 88.70189139769569 82.29822771554957 l -26.4946810901582 -41.51162180468502 a70.24614574689463,70.24614574689463 0 0,0 1.0248606512626945,-0.6417676457998054 l 25.77620128652326 41.96153379180776" fill="#3bff97" stroke="none" /><path d="M 89.00827224532344 82.1063720568725 l -26.305327045298917 -42.82290696934378 a71.257055149155,71.257055149155 0 0,0 1.0506613011333035,-0.6330116780032866 l 25.564303677947965 43.269365256805685" fill="#3cffa3" stroke="none" /><line stroke="#e1ed5e" stroke-width="0.3" x1="56.762969772571076" x2="54.21961505331055" y1="26.818313649435495" y2="22.513508569990535" /><path d="M 56.25429882871897 25.957352633546506 a86.0,86.0 0 0,1 42.265352541879196,-11.944610805530505" fill="none" id="id48" stroke="none" /><text fill="#e1ed5e" style="font-size:6.75px; font-family:Arial;" text-anchor="middle"><textPath startOffset="22.20632615414155" xlink:href="#id48">December</textPath></text><path d="M 89.3179101791058 81.91981866633112 l -14.867036163510647 -25.163494619256443 a50.2272172082886,50.2272172082886 0 0,0 0.7481541743774655,-0.43337918780995116 l 14.431685256667862 25.415677964456442" fill="#b4ff20" stroke="none" /><path d="M 89.94658935756843 81.56283822128135 l -23.919290845964326 -43.866091881093666 a70.96365170295687,70.96365170295687 0 0,0 1.07748151723466,-0.5755533109587576 l 23.16066428220136 44.271323918554174" fill="#3bffa0" stroke="none" /><path d="M 90.26544431104013 81.39251694778311 l -23.387442082856335 -44.704806885536655 a71.45287113586386,71.45287113586386 0 0,0 1.0947243771255113,-0.5607603452891767 l 22.61445721814206 45.10075975613834" fill="#3cffa5" stroke="none" /><path d="M 90.58718382345135 81.22770947309562 l -11.706439920118294 -23.346540195241477 a47.11707630442897,47.11707630442897 0 0,0 0.7281354797737817,-0.35729291766732396 l 11.302833173334086 23.544588273043633" fill="#dbff1b" stroke="none" /><path d="M 91.23893434514133 80.91482961587045 l -9.253494505584301 -20.157881043813713 a43.180336533547525,43.180336533547525 0 0,0 0.6781736723517329,-0.3042767584961626 l 8.905138714765794 20.314178132826402" fill="#fff016" stroke="none" /><path d="M 91.56875222667455 80.76684994638697 l -20.259381439804372 -46.215190645672834 a71.46074100466001,71.46074100466001 0 0,0 1.1308364245804117,-0.48416514106057656 l 19.460861257433653 46.5570753146962" fill="#3cffa5" stroke="none" /><path d="M 91.90106846888425 80.62456947434976 l -8.69307692217713 -20.796830706947855 a43.54058015731489,43.54058015731489 0 0,0 0.693987357434923,-0.2830948680825099 l 8.333805695153828 20.943386461213944" fill="#fff417" stroke="none" /><path d="M 92.23578459929587 80.48803036053334 l -11.174713976811288 -28.082770581750154 a51.22443111144945,51.22443111144945 0 0,0 0.8220712213272764,-0.31895086223227825 l 10.689659590484336 28.27096414787298" fill="#a8ff21" stroke="none" /><path d="M 92.57280143429618 80.3572730644239 l -16.580297908881867 -43.84994711714805 a67.87989058139911,67.87989058139911 0 0,0 1.0964789814206988,-0.40384246242401906 l 15.823036601688598 44.12885284737839" fill="#37ff7b" stroke="none" /><path d="M 93.25333710446033 80.11325718540243 l -14.128660198171637 -41.64622362585161 a64.97757361758195,64.97757361758195 0 0,0 1.062281771044015,-0.35021759830693144 l 13.409695604885213 41.88325494841778" fill="#33ff56" stroke="none" /><path d="M 93.59665428221793 80.00007090966166 l -14.263207585356742 -44.54907682334497 a67.77669651049837,67.77669651049837 0 0,0 1.1141670011795117,-0.3461771107535275 l 13.4942552114665 44.78799406898102" fill="#37ff79" stroke="none" /><path d="M 93.94186890950719 79.89281104454417 l -12.719132388841997 -42.21532919504721 a65.08979868145346,65.08979868145346 0 0,0 1.0755617556608335,-0.3139859703227004 l 11.990580415457742 42.428013494288614" fill="#34ff58" stroke="none" /><path d="M 94.28887869178378 79.79150937346287 l -10.024874219096695 -35.47246954768397 a57.86182576758883,57.86182576758883 0 0,0 0.9607876561203538,-0.2626195603816693 l 9.412788673752617 35.639775648891934" fill="#5bff2a" stroke="none" /><path d="M 94.63758080256005 79.69619591428918 l -9.427236298547463 -35.69447889616482 a57.91840473120969,57.91840473120969 0 0,0 0.9661096361374967,-0.24628285757981735 l 8.811417773724967 35.8514647499135" fill="#5bff2a" stroke="none" /><path d="M 95.33964822691252 79.52364482259891 l -3.2672431971159597 -14.355403929255708 a35.722516771299354,35.722516771299354 0 0,0 0.6007460337777257,-0.13129981470420368 l 3.019654439184713 14.40951724205578" fill="#ff880c" stroke="none" /><path d="M 95.692805502759 79.44645832069477 l -7.587257858860813 -36.20570669228501 a57.992156991781606,57.992156991781606 0 0,0 0.9787794488258411,-0.1963339495554762 l 6.962912000567836 36.3309445979177" fill="#5aff2a" stroke="none" /><path d="M 96.40284397218896 79.31037775812273 l -6.326937083876574 -36.39039763676535 a57.936312390725064,57.936312390725064 0 0,0 0.9840090730374011,-0.16236992836625538 l 5.699598804700287 36.493913828071236" fill="#5bff2a" stroke="none" /><path d="M 97.11714578562143 79.19881850522333 l -4.968307202193875 -35.848729123792495 a57.19137267701268,57.19137267701268 0 0,0 0.9762983219584369,-0.1267515421396641 l 4.35049415172758 35.928938989096295" fill="#63ff29" stroke="none" /><path d="M 97.47563105711357 79.15227682838746 l -6.369475951473925 -52.60287794253143 a73.98710212620864,73.98710212620864 0 0,0 1.2656490759314802,-0.14221042060942224 l 5.463060172032726 52.70472431661145" fill="#40ffc2" stroke="none" /><path d="M 98.91598698831166 79.02799685794201 l -1.9365762213773596 -37.46623164264894 a58.516247692990746,58.516247692990746 0 0,0 1.0063656813571749,-0.04333622318568979 l 1.2913697076308608 37.49401559235883" fill="#54ff2b" stroke="none" /><path d="M 99.27714615592234 79.0124445844662 l -1.2781655885148495 -37.11064323578764 a58.13264801553445,58.13264801553445 0 0,0 1.0003614580193059,-0.025836385106858442 l 0.6391774953006647 37.12714641303686" fill="#58ff2a" stroke="none" /></svg>