<?xml version="1.0" encoding="utf-8" ?>
<svg baseProfile="full" height="200mm" version="1.1" viewBox="0,0,200,200" width="200mm" xmlns="http://www.w3.org/2000/svg" xmlns:ev="http://www.w3.org/2001/xml-events" xmlns:xlink="http://www.w3.org/1999/xlink"><defs /><rect fill="#1a1a1a" height="200" width="200" x="0" y="0" /><text alignment-baseline="middle" fill="#e1ed5e" style="dominant-baseline: central; font-size:9.0px; font-family:Arial;" text-anchor="middle" x="100.0" y="100.0">2021</text><line stroke="#e1ed5e" stroke-width="0.3" x1="100.0" x2="100.0" y1="15.0" y2="10.0" /><path d="M 100.0 14.0 a86.0,86.0 0 0,1 42.46469731375804,11.215312516191453" fill="none" id="id1" stroke="none" /><text fill="#e1ed5e" style="font-size:6.75px; font-family:Arial;" text-anchor="middle"><textPath startOffset="22.20632615414155" xlink:href="#id1">January</textPath></text><line stroke="#e1ed5e" stroke-width="0.3" x1="143.23703022742887" x2="145.7803849466894" y1="26.81831364943548" y2="22.513508569990506" /><path d="M 143.74570117128098 25.957352633546492 a86.0,86.0 0 0,1 28.547481713284135,27.462654790039103" fill="none" id="id2" stroke="none" /><text fill="#e1ed5e" style="font-size:6.75px; font-family:Arial;" text-anchor="middle"><textPath startOffset="19.985693538727396" xlink:href="#id2">February</textPath></text><line stroke="#e1ed5e" stroke-width="0.3" x1="172.23445277983987" x2="176.4835382374775" y1="55.19839476539836" y2="52.563006222186495" /><path d="M 173.08426987136738 54.67131705675599 a86.0,86.0 0 0,1 12.851231095245387,41.99856678651699" fill="none" id="id3" stroke="none" /><text fill="#e1ed5e" style="font-size:6.75px; font-family:Arial;" text-anchor="middle"><textPath startOffset="22.20632615414155" xlink:href="#id3">March</textPath></text><line stroke="#e1ed5e" stroke-width="0.3" x1="184.98032266829074" x2="189.97916517819016" y1="98.17113171792111" y2="98.06355123074" /><path d="M 185.9800911702706 98.14961562048488 a86.0,86.0 0 0,1 -9.607161424134198,41.387399972396054" fill="none" id="id4" stroke="none" /><text fill="#e1ed5e" style="font-size:6.75px; font-family:Arial;" text-anchor="middle"><textPath startOffset="21.466115282336823" xlink:href="#id4">April</textPath></text><line stroke="#e1ed5e" stroke-width="0.3" x1="174.80103733775053" x2="179.2010983576182" y1="140.37084112569926" y2="142.7455964860345" /><path d="M 175.68104954172406 140.8457921977663 a86.0,86.0 0 0,1 -30.038265399797805,32.042727171017184" fill="none" id="id5" stroke="none" /><text fill="#e1ed5e" style="font-size:6.75px; font-family:Arial;" text-anchor="middle"><textPath startOffset="22.206326154141568" xlink:href="#id5">May</textPath></text><line stroke="#e1ed5e" stroke-width="0.3" x1="143.8653032363475" x2="146.44561519142675" y1="172.8068346515853" y2="177.08958963109032" /><path d="M 144.38136562736335 173.6633856474863 a86.0,86.0 0 0,1 -40.68145358897372,12.25698825130547" fill="none" id="id6" stroke="none" /><text fill="#e1ed5e" style="font-size:6.75px; font-family:Arial;" text-anchor="middle"><textPath startOffset="21.466115282336833" xlink:href="#id6">June</textPath></text><line stroke="#e1ed5e" stroke-width="0.3" x1="102.19456741930631" x2="102.32365962044197" y1="184.97166512339345" y2="189.96999836594603" /><path d="M 102.22038585953345 185.97133177190398 a86.0,86.0 0 0,1 -42.740103519485714,-10.115201625700543" fill="none" id="id7" stroke="none" /><text fill="#e1ed5e" style="font-size:6.75px; font-family:Arial;" text-anchor="middle"><textPath startOffset="22.20632615414155" xlink:href="#id7">July</textPath></text><line stroke="#e1ed5e" stroke-width="0.3" x1="58.666819895761336" x2="56.23545636021788" y1="174.27360380694188" y2="178.64263932499728" /><path d="M 58.180547188652646 175.14741091055294 a86.0,86.0 0 0,1 -31.652253787137756,-30.449443065178592" fill="none" id="id8" stroke="none" /><text fill="#e1ed5e" style="font-size:6.75px; font-family:Arial;" text-anchor="middle"><textPath startOffset="22.20632615414155" xlink:href="#id8">August</textPath></text><path d="M 89.1626897886671 117.98757091392108 l -8.978861217952787 14.902950984579903 a38.398790096441985,38.398790096441985 0 0,0 -0.5632202879589239,-0.3459759021944323 l 9.234060705844021 -14.746186615557091" fill="#ffac0f" stroke="none" /><path d="M 88.8546689885994 117.79835938074946 l -9.146029102074204 14.605605943780164 a38.232921206834746,38.232921206834746 0 0,0 -0.5547746120299356,-0.3540834056497974 l 9.396085516151063 -14.446008109306561" fill="#ffaa0f" stroke="none" /><path d="M 88.54995079064634 117.60387380957326 l -9.358046825347202 14.387525538572671 a38.16315622222415,38.16315622222415 0 0,0 -0.5475964069378855,-0.3629170389990156 l 9.604317931025049 -14.224310478482337" fill="#ffa90f" stroke="none" /><path d="M 88.24862548938628 117.40417183066458 l -12.429663079758015 18.40873949187739 a43.21211862826475,43.21211862826475 0 0,0 -0.6128777159184576,-0.42154288152609165 l 12.744697680299364 -18.1920558209862" fill="#ffee16" stroke="none" /><path d="M 87.95078237400918 117.19931262002967 l -15.894785411972565 22.688558860378546 a48.70225453737507,48.70225453737507 0 0,0 -0.6824639324998587,-0.48691989529739543 l 16.28297667232131 -22.411594703236933" fill="#c8ff1d" stroke="none" /><path d="M 87.65650970185807 116.9893568818739 l -16.753456367624945 23.05915444980164 a49.502682403621584,49.502682403621584 0 0,0 -0.6850582624328049,-0.506789725117793 l 17.147899600476315 -22.76735477594408" fill="#beff1e" stroke="none" /><path d="M 87.36589467227662 116.77436683061367 l -9.91855027237897 13.168910372440966 a37.48629248506444,37.48629248506444 0 0,0 -0.5120828756788328,-0.39264331273650516 l 10.14376187655129 -12.996227717877092" fill="#ff9f0e" stroke="none" /><path d="M 87.07902340077011 116.55440617244103 l -10.904099044639267 13.970374695999642 a38.72204122334473,38.72204122334473 0 0,0 -0.5219039826170149,-0.41463208817264346 l 11.14296051997364 -13.780608693821867" fill="#ffb110" stroke="none" /><path d="M 86.79598089348748 116.32954008644616 l -15.875555259095407 19.63345507960726 a46.248877463118,46.248877463118 0 0,0 -0.6147353914872651,-0.5058853762216349 l 16.21116077912736 -19.357274584528444" fill="#e8ff1a" stroke="none" /><path d="M 86.51685102203217 116.09983520530335 l -17.848503732470512 21.31237808197289 a48.799038562457014,48.799038562457014 0 0,0 -0.6393476294466404,-0.5448659201650388 l 18.21271683849421 -21.0019877715849" fill="#c7ff1e" stroke="none" /><path d="M 86.24171649860922 115.8653595955263 l -17.976607911022434 20.72971884809055 a48.438652946300316,48.438652946300316 0 0,0 -0.625222252190407,-0.5516859442132654 l 18.330772516119428 -20.417209762104996" fill="#ccff1d" stroke="none" /><path d="M 85.44109423537348 115.13401014063109 l -19.23188908619957 19.991585161654708 a48.740386354547674,48.740386354547674 0 0,0 -0.5996229112342657,-0.5868572225362652 l 19.57316194980963 -19.65757783619587" fill="#c8ff1d" stroke="none" /><path d="M 85.18274418774928 114.88116024355367 l -19.283353877127322 19.366519868100646 a48.329651087272566,48.329651087272566 0 0,0 -0.5844651419718052,-0.5920601030856464 l 19.61385964415466 -19.031719271034337" fill="#cdff1d" stroke="none" /><path d="M 84.9287848128048 114.62390073753433 l -18.738883556499736 18.182712519113423 a47.110472831735166,47.110472831735166 0 0,0 -0.5597025872836922,-0.5868459251054948 l 19.049092695162386 -17.857459477425426" fill="#ddff1b" stroke="none" /><path d="M 84.67929136418377 114.36230785411682 l -19.54706932589847 18.324284729755306 a47.793046301020425,47.793046301020425 0 0,0 -0.5574799221076853,-0.6050343518260733 l 19.859595656001883 -17.98509912312789" fill="#d4ff1c" stroke="none" /><path d="M 84.19399662182784 113.82643327865904 l -21.256101124903207 18.59395173695642 a49.241049488791596,49.241049488791596 0 0,0 -0.5525724832680816,-0.6427666345808666 l 21.573016117742068 -18.22530800321402" fill="#c2ff1e" stroke="none" /><path d="M 83.72743513129214 113.27417163493432 l -19.88907721420168 16.224303097384965 a46.667165862796224,46.667165862796224 0 0,0 -0.5024100141306233,-0.6268337416991246 l 20.165405140387165 -15.87954152210758" fill="#e2ff1b" stroke="none" /><path d="M 83.50135304334701 112.99209946851258 l -18.577382363710687 14.629029893666152 a44.645880214474715,44.645880214474715 0 0,0 -0.47025544489240606,-0.607868553595336 l 18.826444625821164 -14.307083345957563" fill="#fdff18" stroke="none" /><path d="M 83.28015986056508 112.70617746262583 l -21.125848100047776 16.054506069981837 a47.53391458298937,47.53391458298937 0 0,0 -0.48946064183093546,-0.6557125162474621 l 21.399070008573798 -15.688480674225065" fill="#d7ff1c" stroke="none" /><path d="M 83.06392112726016 112.41649034213515 l -21.29111698749419 15.60933616540982 a47.40005753970878,47.40005753970878 0 0,0 -0.47675476166406866,-0.6621706658015695 l 21.556651541533867 -15.240531894157114" fill="#d9ff1c" stroke="none" /><path d="M 82.85270091963577 112.12312394758628 l -16.18665592136745 11.44395015868008 a40.823516972300695,40.823516972300695 0 0,0 -0.400729655005776,-0.577280955865785 l 16.381246483535357 -11.163627940627283" fill="#ffce13" stroke="none" /><path d="M 82.6465618267979 111.8261652097733 l -22.48591517662928 15.32388827606593 a48.21098919973175,48.21098919973175 0 0,0 -0.4614409102010904,-0.6897915516257735 l 22.7463591922411 -14.934559810234335" fill="#cfff1d" stroke="none" /><path d="M 82.44556493220864 111.52570212397912 l -21.60750237482018 14.186821453017698 a46.848598836642246,46.848598836642246 0 0,0 -0.43679656237211184,-0.6779179647809879 l 21.848503800569336 -13.812781888315262" fill="#e0ff1b" stroke="none" /><path d="M 82.24976979558568 111.22182372390057 l -14.71582711311362 9.303452175718215 a38.41004853551322,38.41004853551322 0 0,0 -0.3484986875278721,-0.5618908486927582 l 14.873790440309449 -9.048764995660193" fill="#ffac10" stroke="none" /><line stroke="#e1ed5e" stroke-width="0.3" x1="26.63291911575756" x2="22.317208475507996" y1="142.92168965132927" y2="145.44649492493687" /><path d="M 25.769776987707644 143.4266507060508 a86.0,86.0 0 0,1 -11.730757126820373,-40.83630448921669" fill="none" id="id9" stroke="none" /><text fill="#e1ed5e" style="font-size:6.75px; font-family:Arial;" text-anchor="middle"><textPath startOffset="21.46611528233685" xlink:href="#id9">September</textPath></text><path d="M 81.69416730710424 110.29060199501025 l -14.559926872329596 8.184845509800022 a37.70278918465054,37.70278918465054 0 0,0 -0.3131550411085369,-0.5684673616424802 l 14.69865832288965 -7.933007629759718" fill="#ffa20f" stroke="none" /><path d="M 81.51974371655577 109.97397251340807 l -21.604152645186005 11.659969502241003 a45.5498329996293,45.5498329996293 0 0,0 -0.36645381124108023,-0.6931925091436192 l 21.801658964651974 -11.286361978011257" fill="#f1ff19" stroke="none" /><path d="M 81.35079622478065 109.6543875284942 l -55.94761132565806 28.96316258548259 a84.0,84.0 0 0,0 -0.6536853208549331,-1.28978315318926 l 56.437875316299255 -27.995825220590643" fill="#4dd2ff" stroke="none" /><path d="M 81.02952815118164 109.00673069616217 l -23.86606544473886 11.331042577685476 a47.41934150787789,47.41934150787789 0 0,0 -0.34373463953522965,-0.7403738334897773 l 24.057574701113918 -10.918548676916872" fill="#d9ff1c" stroke="none" /><path d="M 80.87730276802145 108.67885076344099 l -29.648164964592254 13.45584234358309 a53.5587680808571,53.5587680808571 0 0,0 -0.3737864263361603,-0.8427897146533873 l 29.875392475659694 -12.943504292437005" fill="#8dff24" stroke="none" /><path d="M 80.73074385275274 108.34839909993369 l -29.81115807071716 12.915674756916319 a53.48876421078109,53.48876421078109 0 0,0 -0.358754283634504,-0.8479891522097753 l 30.02906333554397 -12.400611079040385" fill="#8eff24" stroke="none" /><path d="M 80.58989483394504 108.01547362559985 l -21.95358075006978 9.06581113210042 a44.751813388302594,44.751813388302594 0 0,0 -0.2878977617143292,-0.7145386342513651 l 22.106381126041498 -8.686573130006249" fill="#fbff18" stroke="none" /><path d="M 80.32549172779594 107.34259656027581 l -19.1939568108123 7.163253043343514 a41.48707329557587,41.48707329557587 0 0,0 -0.24393557304293575,-0.6712059308543138 l 19.314416644860458 -6.831799315483083" fill="#ffd714" stroke="none" /><path d="M 80.0844068197444 106.66101706037122 l -17.559767143098572 5.873081833800769 a39.51589890732731,39.51589890732731 0 0,0 -0.21020152933366607,-0.6469337863192879 l 17.658260923448488 -5.569949147503677" fill="#ffbc11" stroke="none" /><path d="M 79.97269907076064 106.31721596034903 l -24.885688109675637 7.849698102912653 a47.09435251158614,47.09435251158614 0 0,0 -0.23720579342307102,-0.7752022575419548 l 25.017120675604836 -7.42016887281865" fill="#ddff1b" stroke="none" /><path d="M 79.86692584326677 105.97154293290107 l -16.361476583132795 4.852873391377123 a38.06599824601945,38.06599824601945 0 0,0 -0.1809174718682566,-0.6297974537159342 l 16.442586691887154 -4.570518462156593" fill="#ffa80f" stroke="none" /><path d="M 79.76711848015287 105.62410040840567 l -22.167794343073258 6.161944906168427 a44.00827396967112,44.00827396967112 0 0,0 -0.19659527799871632,-0.731604164671767 l 22.27057769741375 -5.779449808321121" fill="#fff917" stroke="none" /><path d="M 79.67330655649465 105.27499134158121 l -15.856776139293215 4.115000655302781 a37.382020019667934,37.382020019667934 0 0,0 -0.156272305072498,-0.624230177523186 l 15.92525975866077 -3.8414426383822033" fill="#ff9e0e" stroke="none" /><path d="M 79.58551787078972 104.9243191809786 l -18.04729392520156 4.353313254685365 a39.56491729892801,39.56491729892801 0 0,0 -0.15400066423898873,-0.663430830969721 l 18.119555155371103 -4.04201376636707" fill="#ffbd11" stroke="none" /><path d="M 79.50377843672027 104.57218783832718 l -16.999687629499924 3.792199688854413 a38.417524450412586,38.417524450412586 0 0,0 -0.13842375796989378,-0.6466697135934517 l 17.06244542619426 -3.4990161558447976" fill="#ffad10" stroke="none" /><path d="M 79.4281124754447 104.21870165774334 l -25.966517721951522 5.324984945045133 a47.50689546645136,47.50689546645136 0 0,0 -0.15738370960566803,-0.8024961445876776 l 26.054331364532857 -4.877225073389501" fill="#d8ff1c" stroke="none" /><path d="M 79.35854240842038 103.8639653848113 l -5.808338801802964 1.0872885295938766 a26.909229728409304,26.909229728409304 0 0,0 -0.08130887429426843,-0.4560233472644404 l 5.826194118436421 -0.9871464315962224" fill="#ff0000" stroke="none" /><path d="M 79.29508885075956 103.50808413554451 l -17.245311861495097 2.921915699988303 a38.4910940926536,38.4910940926536 0 0,0 -0.10505914219549473,-0.6542033787381387 l 17.293052758051882 -2.6246330915569507" fill="#ffae10" stroke="none" /><path d="M 79.23777060512086 103.15116336523772 l -17.238427819530813 2.616342454659431 a38.43584358524781,38.43584358524781 0 0,0 -0.09364792438175093,-0.654973365011143 l 17.280909794929162 -2.3192236176678875" fill="#ffad10" stroke="none" /><path d="M 79.18660465613746 102.79330883721812 l -17.395929483940378 2.334660095400669 a38.55189449521853,38.55189449521853 0 0,0 -0.08260843180759893,-0.6584704806676129 l 17.433539424994827 -2.0348718604456475" fill="#ffae10" stroke="none" /><path d="M 79.1416061653843 102.43462659150553 l -17.830608823000116 2.0812184642504166 a38.95165956937649,38.95165956937649 0 0,0 -0.07200065605703447,-0.6666366532345588 l 17.863791780558202 -1.7739854891310758" fill="#ffb410" stroke="none" /><path d="M 79.10278846688536 102.07522291339032 l -17.67781585820561 1.7555169248064326 a38.76476887521781,38.76476887521781 0 0,0 -0.06022458260856406,-0.6645732506519846 l 17.705415037091246 -1.4509622856058817" fill="#ffb110" stroke="none" /><path d="M 79.0235259727143 100.99374915477108 l -18.366538864773293 0.8701048826984555 a39.38713768856163,39.38713768856163 0 0,0 -0.026254091463616437,-0.6775014432429045 l 18.378795089088108 -0.5538261924415543" fill="#ffba11" stroke="none" /><path d="M 79.0095281055655 100.63252640178507 l -17.85061546854507 0.5379100397910329 a38.85871831394315,38.85871831394315 0 0,0 -0.014392413104133457,-0.6687588830476995 l 17.857229944334208 -0.23056134095320466" fill="#ffb310" stroke="none" /><line stroke="#e1ed5e" stroke-width="0.3" x1="15.007084014347285" x2="10.007500721073583" y1="101.09737516637583" y2="101.16192664675087" /><path d="M 14.007167355692545 101.11028546245083 a86.0,86.0 0 0,1 10.666146001902534,-42.60595125391555" fill="none" id="id10" stroke="none" /><text fill="#e1ed5e" style="font-size:6.75px; font-family:Arial;" text-anchor="middle"><textPath startOffset="22.20632615414155" xlink:href="#id10">October</textPath></text><path d="M 79.00019446554 99.90962569577889 l -17.652495971401567 -0.07596889592923407 a38.652659439684925,38.652659439684925 0 0,0 0.008590080308874969,-0.6653111865229873 l 17.64857288397498 0.37981634051269336" fill="#ffb010" stroke="none" /><path d="M 79.01574976396665 99.18683210126434 l -32.533964108837075 -1.2607348337133208 a53.5583825297885,53.5583825297885 0 0,0 0.043628127330223594,-0.9209208132734711 l 32.507442373273356 1.8205667536098011" fill="#8dff24" stroke="none" /><path d="M 79.03285615573316 98.82574320788736 l -18.081564914938266 -1.012651058775353 a39.10989928022697,39.10989928022697 0 0,0 0.04342951129008663,-0.6718353173009304 l 18.061454812643767 1.3237454403292952" fill="#ffb610" stroke="none" /><path d="M 79.05617556472873 98.46500227214037 l -17.2138142050328 -1.2616208550728805 a38.2599851294068,38.2599851294068 0 0,0 0.053792657619242935,-0.656406674760125 l 17.18954706359406 1.557741447040784" fill="#ffaa0f" stroke="none" /><path d="M 79.08570108090925 98.10471618934814 l -19.002333873210954 -1.7220187917283434 a40.08020024391898,40.08020024391898 0 0,0 0.06817999790212502,-0.686563274381139 l 18.9698767496266 2.0488575968139124" fill="#ffc412" stroke="none" /><path d="M 79.26566170972629 96.67025291283419 l -19.203969830803295 -3.0839837621503983 a40.45002347318919,40.45002347318919 0 0,0 0.11631912471472276,-0.6865220585144276 l 19.14803884456835 3.4140916089806534" fill="#ffc912" stroke="none" /><path d="M 79.46518482838121 95.60439243477599 l -17.60967911864117 -3.769463621082321 a39.0085994639275,39.0085994639275 0 0,0 0.14619979680954295,-0.6553850221978753 l 17.54218493482959 4.072026812830155" fill="#ffb510" stroke="none" /><path d="M 79.71946130924805 94.55025226153421 l -18.37042539205105 -4.936465730105945 a40.02212456560582,40.02212456560582 0 0,0 0.18450814895198503,-0.6637739809218843 l 18.282730472532705 5.251951014446772" fill="#ffc312" stroke="none" /><path d="M 79.81627453868168 94.20196356495316 l -17.609335959516176 -5.058509722891697 a39.32149648777903,39.32149648777903 0 0,0 0.19247704550887673,-0.6489369119911135 l 17.519653016895592 5.360876021629349" fill="#ffb911" stroke="none" /><path d="M 80.803312248108 91.48605970444005 l -16.4352905140125 -7.289230516482919 a38.979200644144754,38.979200644144754 0 0,0 0.2773048696598027,-0.6110045221419727 l 16.307383327389346 7.571057047466963" fill="#ffb410" stroke="none" /><path d="M 81.43458229118936 90.18545643968196 l -15.639734106883509 -8.267891090376846 a38.690655895594944,38.690655895594944 0 0,0 0.3163272501523207,-0.5861063527489682 l 15.495098757512716 8.535878426458288" fill="#ffb010" stroke="none" /><line stroke="#e1ed5e" stroke-width="0.3" x1="26.266209847984243" x2="21.928928074336255" y1="57.711370442889674" y2="55.22380399835377" /><path d="M 25.398753493254645 57.213857153982495 a86.0,86.0 0 0,1 29.58750427330803,-30.492523968695096" fill="none" id="id11" stroke="none" /><text fill="#e1ed5e" style="font-size:6.75px; font-family:Arial;" text-anchor="middle"><textPath startOffset="21.46611528233685" xlink:href="#id11">November</textPath></text><path d="M 81.78341655067845 89.55222093294921 l -15.254521590212985 -8.748944158024171 a38.58534767431396,38.58534767431396 0 0,0 0.3353991392926171,-0.5733058502794683 l 15.101662776450043 9.01022942065753" fill="#ffaf10" stroke="none" /><path d="M 81.96595687620814 89.24020034530311 l -14.499368054933946 -8.650877361215851 a37.88399695306878,37.88399695306878 0 0,0 0.338943072631177,-0.5571332923253637 l 14.348309184016552 8.89917842674829" fill="#ffa50f" stroke="none" /><path d="M 82.34701348167596 88.62581576622439 l -15.220193019770933 -9.806685078516425 a39.10594785666524,39.10594785666524 0 0,0 0.36946436344191,-0.5627195730150241 l 15.049132020971102 10.067222715509118" fill="#ffb610" stroke="none" /><path d="M 83.39014120810768 87.1503855733568 l -13.86256344124547 -10.724269087214237 a38.526568763381334,38.526568763381334 0 0,0 0.41030047107838163,-0.521039931604344 l 13.675908889573117 10.961301412771629" fill="#ffae10" stroke="none" /><path d="M 83.6137871275137 86.86637796730984 l -14.097857325794445 -11.299494949114646 a39.06732319087483,39.06732319087483 0 0,0 0.42509248855494375,-0.52111312746673 l 13.901266345163108 11.540492246189459" fill="#ffb610" stroke="none" /><path d="M 84.31358615837235 86.03803664274999 l -13.419252085447283 -11.944036909284748 a38.96486415821555,38.96486415821555 0 0,0 0.45024152764394954,-0.49716794026734445 l 13.211666917187289 12.173257636821647" fill="#ffb410" stroke="none" /><path d="M 84.80347519578584 85.50635884689758 l -12.91736637811542 -12.319900460112901 a38.850442613379556,38.850442613379556 0 0,0 0.46571641793994517,-0.4799617063159944 l 12.703385696472356 12.54042636197902" fill="#ffb310" stroke="none" /><path d="M 85.05521093208273 85.24692304244772 l -12.460944592327808 -12.301095298096902 a38.50977114830246,38.50977114830246 0 0,0 0.46975355771165656,-0.46773628664765377 l 12.247355234448838 12.513767435394666" fill="#ffae10" stroke="none" /><path d="M 85.57189188830299 84.74124197986013 l -12.499668909353126 -13.21929540194245 a39.193171624740586,39.193171624740586 0 0,0 0.49419251691935506,-0.4592980854303769 l 12.270268508638916 13.432498073447475" fill="#ffb711" stroke="none" /><path d="M 85.83668400450813 84.49514656593479 l -11.878759896974936 -13.003906093719246 a38.61268038613795,38.61268038613795 0 0,0 0.4945898458733169,-0.44404764701558774 l 11.653159063505647 13.206452749504113" fill="#ffaf10" stroke="none" /><path d="M 86.10567301691215 84.25364557470407 l -11.733971144824142 -13.298036579065323 a38.734820430038894,38.734820430038894 0 0,0 0.503748555607013,-0.4368457834017025 l 11.503328790570356 13.498047355886706" fill="#ffb110" stroke="none" /><path d="M 86.93701828274178 83.55741782278169 l -11.304701644002474 -14.229407174693605 a39.17339560465061,39.17339560465061 0 0,0 0.531578211961251,-0.4149052261896359 l 11.058090876881797 14.421890790106463" fill="#ffb711" stroke="none" /><path d="M 87.22198572758235 83.33499621200491 l -10.743112755229369 -14.011098355650985 a38.655745489876594,38.655745489876594 0 0,0 0.5315235804542208,-0.40033254115866906 l 10.500343021016759 14.193947486315508" fill="#ffb010" stroke="none" /><path d="M 87.80319425747018 82.90503203632743 l -9.510953999579586 -13.330494668766665 a37.37560179340397,37.37560179340397 0 0,0 0.5269405633499056,-0.3691555391795788 l 9.28008229664602 13.492235050710187" fill="#ff9e0e" stroke="none" /><path d="M 88.09926311788651 82.69761687909137 l -8.67822581425601 -12.617200878854353 a36.31356788278233,36.31356788278233 0 0,0 0.5180654508110021,-0.34980010498193514 l 8.459755669038469 12.764712896134954" fill="#ff8f0d" stroke="none" /><path d="M 88.70189139769569 82.29822771554957 l -9.128090013032491 -14.3018071865331 a37.96654697004648,37.96654697004648 0 0,0 0.5539153734372342,-0.34686175603010355 l 8.880555487223015 14.456813283886135" fill="#ffa60f" stroke="none" /><path d="M 89.00827224532344 82.1063720568725 l -9.086232769238004 -14.791638967606703 a38.35949910811932,38.35949910811932 0 0,0 0.5655979068935236,-0.3407664103851777 l 8.830272796126831 14.9458519874505" fill="#ffac0f" stroke="none" /><line stroke="#e1ed5e" stroke-width="0.3" x1="56.762969772571076" x2="54.21961505331055" y1="26.818313649435495" y2="22.513508569990535" /><path d="M 56.25429882871897 25.957352633546506 a86.0,86.0 0 0,1 42.265352541879196,-11.944610805530505" fill="none" id="id12" stroke="none" /><text fill="#e1ed5e" style="font-size:6.75px; font-family:Arial;" text-anchor="middle"><textPath startOffset="22.20632615414155" xlink:href="#id12">December</textPath></text><path d="M 89.3179101791058 81.91981866633112 l -8.969167108416787 -15.180940288946116 a38.63255247192683,38.63255247192683 0 0,0 0.5754470784011279,-0.33333609034876177 l 8.706523297550339 15.333080536684925" fill="#ffb010" stroke="none" /><path d="M 89.94658935756843 81.56283822128135 l -8.509532367645916 -15.605810854015191 a38.77508012716994,38.77508012716994 0 0,0 0.5887441128480955,-0.31448671558363295 l 8.239643208269515 15.749976296100574" fill="#ffb210" stroke="none" /><path d="M 90.26544431104013 81.39251694778311 l -8.081021756366056 -15.446773348547556 a38.43289188597981,38.43289188597981 0 0,0 0.5888276140928048,-0.3016203741269448 l 7.8139336546844875 15.583586247987006" fill="#ffad10" stroke="none" /><path d="M 90.58718382345135 81.22770947309562 l -7.483698516229731 -14.924987392448934 a37.696137042638895,37.696137042638895 0 0,0 0.5825466472880452,-0.2858531098519308 l 7.22568060193126 15.051595662435695" fill="#ffa20f" stroke="none" /><path d="M 91.23893434514133 80.91482961587045 l -7.42596351301566 -16.176773978817913 a38.799801978067066,38.799801978067066 0 0,0 0.6093746901102255,-0.27340866060659486 l 7.14640670443866 16.30220296994104" fill="#ffb210" stroke="none" /><path d="M 91.56875222667455 80.76684994638697 l -6.982467831035702 -15.928229741238766 a38.391473764495395,38.391473764495395 0 0,0 0.6075290616337656,-0.2601122385436531 l 6.707255011611628 16.046061507745204" fill="#ffac0f" stroke="none" /><path d="M 91.90106846888425 80.62456947434976 l -6.975072818534314 -16.686773840183903 a39.08590782950367,39.08590782950367 0 0,0 0.6229849439198424,-0.2541312008452772 l 6.686804005026091 16.80436592721276" fill="#ffb610" stroke="none" /><path d="M 92.23578459929587 80.48803036053334 l -6.746228355776022 -16.953703119425704 a39.246633839968986,39.246633839968986 0 0,0 0.6298464914839498,-0.24437065344342512 l 6.453398699292396 17.067316476759682" fill="#ffb811" stroke="none" /><path d="M 92.57280143429618 80.3572730644239 l -6.530267174103995 -17.270610686187535 a39.46397527183773,39.46397527183773 0 0,0 0.6374703765467441,-0.23478571951597652 l 6.232014471784681 17.380459673509833" fill="#ffbb11" stroke="none" /><path d="M 93.25333710446033 80.11325718540243 l -5.621700613941561 -16.57075742794741 a38.49838619783736,38.49838619783736 0 0,0 0.6293884427458717,-0.20749947408394878 l 5.3356293489532804 16.665070626290593" fill="#ffae10" stroke="none" /><path d="M 93.59665428221793 80.00007090966166 l -5.716392538298895 -17.854329667228498 a39.747112618160564,39.747112618160564 0 0,0 0.6533945080144281,-0.20301285420157053 l 5.408212657573738 17.950082656312595" fill="#ffbf11" stroke="none" /><path d="M 93.94186890950719 79.89281104454417 l -5.089463647673488 -16.892141440499877 a38.642196084015254,38.642196084015254 0 0,0 0.6385342880858569,-0.18640566845533607 l 4.79793914186421 16.97724543787391" fill="#ffb010" stroke="none" /><path d="M 94.28887869178378 79.79150937346287 l -4.788408200201317 -16.94352072168209 a38.6071504661551,38.6071504661551 0 0,0 0.6410664218383633,-0.17522766951280586 l 4.496043889139232 17.023434932021196" fill="#ffaf10" stroke="none" /><path d="M 94.63758080256005 79.69619591428918 l -4.5427922616568575 -17.200438959863114 a38.79022377443708,38.79022377443708 0 0,0 0.6470414568621486,-0.16494527433316963 l 4.24604191610971 17.27608723036515" fill="#ffb210" stroke="none" /><path d="M 95.33964822691252 79.52364482259891 l -3.9334765737530897 -17.28265747475862 a38.72462939940055,38.72462939940055 0 0,0 0.6512326012788939,-0.1423342228987442 l 3.6354012483206746 17.34780519575323" fill="#ffb110" stroke="none" /><path d="M 95.692805502759 79.44645832069477 l -3.6388926350091255 -17.364465776524682 a38.74165187667768,38.74165187667768 0 0,0 0.6538734656107201,-0.1311608658793186 l 3.339452759931269 17.424530598481212" fill="#ffb110" stroke="none" /><path d="M 96.40284397218896 79.31037775812273 l -3.0247501239307386 -17.39733749561056 a38.65832566378806,38.65832566378806 0 0,0 0.6565855097068942,-0.10834223494337392 l 2.724835408084959 17.44682599349356" fill="#ffb010" stroke="none" /><path d="M 97.11714578562143 79.19881850522333 l -2.384172576873995 -17.202953322811656 a38.36737982262018,38.36737982262018 0 0,0 0.6549590748644827,-0.0850324853687243 l 2.087698773501655 17.241444131344515" fill="#ffac0f" stroke="none" /><path d="M 97.47563105711357 79.15227682838746 l -4.362657338242106 -36.0293897358281 a57.29255714037126,57.29255714037126 0 0,0 0.9800663888520672,-0.11012187820011143 l 3.7418242458803204 36.09914756749881" fill="#63ff29" stroke="none" /><path d="M 98.91598698831166 79.02799685794201 l -0.9274728864336229 -17.943478610247382 a38.967432498592416,38.967432498592416 0 0,0 0.6701640707198494,-0.028858674612770502 l 0.6184679833244494 17.956785011384348" fill="#ffb410" stroke="none" /><path d="M 99.27714615592234 79.0124445844662 l -0.613117612769928 -17.801440747219942 a38.81199612294678,38.81199612294678 0 0,0 0.667886744464409,-0.017249544151685427 l 0.3066042331106401 17.809357083513987" fill="#ffb210" stroke="none" /></svg>