<?xml version="1.0" encoding="utf-8" ?>
<svg baseProfile="full" height="200mm" version="1.1" viewBox="0,0,200,200" width="200mm" xmlns="http://www.w3.org/2000/svg" xmlns:ev="http://www.w3.org/2001/xml-events" xmlns:xlink="http://www.w3.org/1999/xlink"><defs /><rect fill="#1a1a1a" height="200" width="200" x="0" y="0" /><text alignment-baseline="middle" fill="#e1ed5e" style="dominant-baseline: central; font-size:9.0px; font-family:Arial;" text-anchor="middle" x="100.0" y="100.0">2019</text><line stroke="#e1ed5e" stroke-width="0.3" x1="100.0" x2="100.0" y1="15.0" y2="10.0" /><path d="M 100.0 14.0 a86.0,86.0 0 0,1 42.46469731375804,11.215312516191453" fill="none" id="id13" stroke="none" /><text fill="#e1ed5e" style="font-size:6.75px; font-family:Arial;" text-anchor="middle"><textPath startOffset="22.20632615414155" xlink:href="#id13">January</textPath></text><line stroke="#e1ed5e" stroke-width="0.3" x1="143.23703022742887" x2="145.7803849466894" y1="26.81831364943548" y2="22.513508569990506" /><path d="M 143.74570117128098 25.957352633546492 a86.0,86.0 0 0,1 28.547481713284135,27.462654790039103" fill="none" id="id14" stroke="none" /><text fill="#e1ed5e" style="font-size:6.75px; font-family:Arial;" text-anchor="middle"><textPath startOffset="19.985693538727396" xlink:href="#id14">February</textPath></text><path d="M 113.6212207817346 84.01681056812373 l 40.86366234520383 -47.94956829562881 a84.0,84.0 0 0,0 1.0924248054129433,0.947340026321315 l -41.68298094926353 47.23906327588782" fill="#4dd2ff" stroke="none" /><line stroke="#e1ed5e" stroke-width="0.3" x1="172.23445277983987" x2="176.4835382374775" y1="55.19839476539836" y2="52.563006222186495" /><path d="M 173.08426987136738 54.67131705675599 a86.0,86.0 0 0,1 12.851231095245387,41.99856678651699" fill="none" id="id15" stroke="none" /><text fill="#e1ed5e" style="font-size:6.75px; font-family:Arial;" text-anchor="middle"><textPath startOffset="22.20632615414155" xlink:href="#id15">March</textPath></text><path d="M 119.47837535516314 92.15188598940014 l 44.46722166178504 -17.91647501257333 a68.94094157601089,68.94094157601089 0 0,0 0.43402081683702326,1.1045356379366882 l -44.76903602850376 17.148390369740856" fill="#bdff1f" stroke="none" /><path d="M 120.96714384426684 98.82574320788733 l 43.01490292799303 -2.4090330233068094 a64.08230859659271,64.08230859659271 0 0,0 0.05220081315025198,1.1018766617231948 l -43.04999734937678 1.6682452549606148" fill="#ffae10" stroke="none" /><line stroke="#e1ed5e" stroke-width="0.3" x1="184.98032266829074" x2="189.97916517819016" y1="98.17113171792111" y2="98.06355123074" /><path d="M 185.9800911702706 98.14961562048488 a86.0,86.0 0 0,1 -9.607161424134198,41.387399972396054" fill="none" id="id16" stroke="none" /><text fill="#e1ed5e" style="font-size:6.75px; font-family:Arial;" text-anchor="middle"><textPath startOffset="21.466115282336823" xlink:href="#id16">April</textPath></text><path d="M 120.95626037817324 101.35467743843564 l 51.50709455864274 3.329577780520345 a72.61459946632831,72.61459946632831 0 0,0 -0.0913679813862449,1.246643513816126 l -51.44215001859216 -4.215694430833241" fill="#5bff2a" stroke="none" /><line stroke="#e1ed5e" stroke-width="0.3" x1="174.80103733775053" x2="179.2010983576182" y1="140.37084112569926" y2="142.7455964860345" /><path d="M 175.68104954172406 140.8457921977663 a86.0,86.0 0 0,1 -30.038265399797805,32.042727171017184" fill="none" id="id17" stroke="none" /><text fill="#e1ed5e" style="font-size:6.75px; font-family:Arial;" text-anchor="middle"><textPath startOffset="22.206326154141568" xlink:href="#id17">May</textPath></text><line stroke="#e1ed5e" stroke-width="0.3" x1="143.8653032363475" x2="146.44561519142675" y1="172.8068346515853" y2="177.08958963109032" /><path d="M 144.38136562736335 173.6633856474863 a86.0,86.0 0 0,1 -40.68145358897372,12.25698825130547" fill="none" id="id18" stroke="none" /><text fill="#e1ed5e" style="font-size:6.75px; font-family:Arial;" text-anchor="middle"><textPath startOffset="21.466115282336833" xlink:href="#id18">June</textPath></text><line stroke="#e1ed5e" stroke-width="0.3" x1="102.19456741930631" x2="102.32365962044197" y1="184.97166512339345" y2="189.96999836594603" /><path d="M 102.22038585953345 185.97133177190398 a86.0,86.0 0 0,1 -42.740103519485714,-10.115201625700543" fill="none" id="id19" stroke="none" /><text fill="#e1ed5e" style="font-size:6.75px; font-family:Arial;" text-anchor="middle"><textPath startOffset="22.20632615414155" xlink:href="#id19">July</textPath></text><line stroke="#e1ed5e" stroke-width="0.3" x1="58.666819895761336" x2="56.23545636021788" y1="174.27360380694188" y2="178.64263932499728" /><path d="M 58.180547188652646 175.14741091055294 a86.0,86.0 0 0,1 -31.652253787137756,-30.449443065178592" fill="none" id="id20" stroke="none" /><text fill="#e1ed5e" style="font-size:6.75px; font-family:Arial;" text-anchor="middle"><textPath startOffset="22.20632615414155" xlink:href="#id20">August</textPath></text><line stroke="#e1ed5e" stroke-width="0.3" x1="26.63291911575756" x2="22.317208475507996" y1="142.92168965132927" y2="145.44649492493687" /><path d="M 25.769776987707644 143.4266507060508 a86.0,86.0 0 0,1 -11.730757126820373,-40.83630448921669" fill="none" id="id21" stroke="none" /><text fill="#e1ed5e" style="font-size:6.75px; font-family:Arial;" text-anchor="middle"><textPath startOffset="21.46611528233685" xlink:href="#id21">September</textPath></text><path d="M 80.87730276802145 108.67885076344099 l -49.0665195830439 22.268877437988547 a74.88345057938834,74.88345057938834 0 0,0 -0.5226112994520936,-1.178350514910756 l 49.44257196722727 -21.420978586585097" fill="#31ff3f" stroke="none" /><path d="M 79.97269907076064 106.31721596034903 l -42.022913589819865 13.255296925328656 a65.06390998488553,65.06390998488553 0 0,0 -0.3277152263081882,-1.0709923210512584 l 42.24485558863419 -12.529977631725348" fill="#ffcd13" stroke="none" /><path d="M 79.29508885075956 103.50808413554451 l -37.462865303824294 6.347425617868837 a58.99679050586852,58.99679050586852 0 0,0 -0.16102821571956386,-1.0027228529991756 l 37.56657527390515 -5.701623535176448" fill="#ff0000" stroke="none" /><line stroke="#e1ed5e" stroke-width="0.3" x1="15.007084014347285" x2="10.007500721073583" y1="101.09737516637583" y2="101.16192664675087" /><path d="M 14.007167355692545 101.11028546245083 a86.0,86.0 0 0,1 10.666146001902534,-42.60595125391555" fill="none" id="id22" stroke="none" /><text fill="#e1ed5e" style="font-size:6.75px; font-family:Arial;" text-anchor="middle"><textPath startOffset="22.20632615414155" xlink:href="#id22">October</textPath></text><path d="M 79.3925641242962 95.95851677861259 l -37.54951602437864 -7.364125255518288 a59.264820585546076,59.264820585546076 0 0,0 0.20494538087589903,-0.9993864620214372 l 37.41719134758775 8.009387373703127" fill="#ff0a01" stroke="none" /><path d="M 80.02781315780177 93.51064311812611 l -47.717691464519426 -15.504417815587187 a71.17335000279897,71.17335000279897 0 0,0 0.38861566298332195,-1.1619113683849096 l 47.44373850776433 16.32350228689442" fill="#80ff25" stroke="none" /><path d="M 80.95270993114464 91.15688171328213 l -50.075773775095975 -23.24876605497666 a76.20949413147729,76.20949413147729 0 0,0 0.5626503626928894,-1.185085157563441 l 49.668165218561334 24.10729362818063" fill="#35ff65" stroke="none" /><line stroke="#e1ed5e" stroke-width="0.3" x1="26.266209847984243" x2="21.928928074336255" y1="57.711370442889674" y2="55.22380399835377" /><path d="M 25.398753493254645 57.213857153982495 a86.0,86.0 0 0,1 29.58750427330803,-30.492523968695096" fill="none" id="id23" stroke="none" /><text fill="#e1ed5e" style="font-size:6.75px; font-family:Arial;" text-anchor="middle"><textPath startOffset="21.46611528233685" xlink:href="#id23">November</textPath></text><path d="M 81.96595687620814 89.24020034530311 l -47.35135145892035 -28.251626747246906 a76.13895989998319,76.13895989998319 0 0,0 0.6812051285774324,-1.119722120552813 l 46.858030532056695 29.062516641006795" fill="#35ff63" stroke="none" /><path d="M 85.05521093208273 85.24692304244772 l -30.620489896148996 -30.22768952193678 a64.02705678192234,64.02705678192234 0 0,0 0.7810209413420542,-0.7776669892122937 l 30.09563315463963 30.750292361799186" fill="#ffac0f" stroke="none" /><path d="M 85.31137513191541 84.99185889309783 l -34.0753841032054 -34.81661336480752 a69.71681812244594,69.71681812244594 0 0,0 0.8648761582343784,-0.832010178980981 l 33.4710247013586 35.39800663055082" fill="#a7ff21" stroke="none" /><path d="M 89.00827224532344 82.1063720568725 l -27.2041723884473 -44.28615319483976 a72.97432404694817,72.97432404694817 0 0,0 1.075981853193369,-0.6482670273058855 l 26.437828469036283 44.74786683160427" fill="#52ff2b" stroke="none" /><line stroke="#e1ed5e" stroke-width="0.3" x1="56.762969772571076" x2="54.21961505331055" y1="26.818313649435495" y2="22.513508569990535" /><path d="M 56.25429882871897 25.957352633546506 a86.0,86.0 0 0,1 42.265352541879196,-11.944610805530505" fill="none" id="id24" stroke="none" /><text fill="#e1ed5e" style="font-size:6.75px; font-family:Arial;" text-anchor="middle"><textPath startOffset="22.20632615414155" xlink:href="#id24">December</textPath></text><path d="M 89.3179101791058 81.91981866633112 l -26.045554528122334 -44.08391585355461 a72.20314978261275,72.20314978261275 0 0,0 1.075494341823675,-0.6229957411406262 l 25.28286345383334 44.525715752085276" fill="#65ff29" stroke="none" /><path d="M 93.94186890950719 79.89281104454417 l -15.275497679222303 -50.700011874415274 a73.95122315314138,73.95122315314138 0 0,0 1.2219903735932514,-0.35673249923425865 l 14.40051708790563 50.955442702568234" fill="#39ff2e" stroke="none" /></svg>