<?xml version="1.0" encoding="utf-8" ?>
<svg baseProfile="full" height="200mm" version="1.1" viewBox="0,0,200,200" width="200mm" xmlns="http://www.w3.org/2000/svg" xmlns:ev="http://www.w3.org/2001/xml-events" xmlns:xlink="http://www.w3.org/1999/xlink"><defs /><rect fill="#1a1a1a" height="200" width="200" x="0" y="0" /><text alignment-baseline="middle" fill="#e1ed5e" style="dominant-baseline: central; font-size:9.0px; font-family:Arial;" text-anchor="middle" x="100.0" y="100.0">2020</text><line stroke="#e1ed5e" stroke-width="0.3" x1="100.0" x2="100.0" y1="15.0" y2="10.0" /><path d="M 100.0 14.0 a86.0,86.0 0 0,1 42.35913384403234,11.155469271406648" fill="none" id="id25" stroke="none" /><text fill="#e1ed5e" style="font-size:6.75px; font-family:Arial;" text-anchor="middle"><textPath startOffset="22.145653131862478" xlink:href="#id25">January</textPath></text><path d="M 101.44090949804482 79.04949213459386 l 2.5897743746018125 -37.65475102936342 a58.74370419546404,58.74370419546404 0 0,0 1.0054432690286654,0.07782766789046881 l -3.2357866384057115 37.6047455944779" fill="#7eff26" stroke="none" /><line stroke="#e1ed5e" stroke-width="0.3" x1="143.13028292997686" x2="145.6673583964461" y1="26.7553504044142" y2="22.446841604673864" /><path d="M 143.63769802327073 25.89364864446614 a86.0,86.0 0 0,1 29.32050498858742,28.57503671076993" fill="none" id="id26" stroke="none" /><text fill="#e1ed5e" style="font-size:6.75px; font-family:Arial;" text-anchor="middle"><textPath startOffset="20.669276256404974" xlink:href="#id26">February</textPath></text><line stroke="#e1ed5e" stroke-width="0.3" x1="172.87174338648825" x2="177.1583165268699" y1="56.24261187166439" y2="53.66864786411523" /><path d="M 173.72905801456457 55.72781907015455 a86.0,86.0 0 0,1 12.242430191666344,42.057860355516425" fill="none" id="id27" stroke="none" /><text fill="#e1ed5e" style="font-size:6.75px; font-family:Arial;" text-anchor="middle"><textPath startOffset="22.145653131862474" xlink:href="#id27">March</textPath></text><line stroke="#e1ed5e" stroke-width="0.3" x1="184.99686870605535" x2="189.99668451229388" y1="99.2704041080226" y2="99.22748670261217" /><path d="M 185.99683186730306 99.26182062694052 a86.0,86.0 0 0,1 -10.086455211305974,41.156179273409016" fill="none" id="id28" stroke="none" /><text fill="#e1ed5e" style="font-size:6.75px; font-family:Arial;" text-anchor="middle"><textPath startOffset="21.40746469413373" xlink:href="#id28">April</textPath></text><path d="M 120.05942366710727 106.21446072829308 l 12.886945997431326 3.9924088118240317 a34.491208443332326,34.491208443332326 0 0,0 -0.18006921147003271,0.5640642402307396 l -12.816512070184038 -4.213042085746155" fill="#ff0000" stroke="none" /><line stroke="#e1ed5e" stroke-width="0.3" x1="174.33088141563837" x2="178.70328620479359" y1="141.23008692659167" y2="143.65538615756765" /><path d="M 175.20536237346943 141.71514677278685 a86.0,86.0 0 0,1 -30.301960400862466,31.631185727798858" fill="none" id="id29" stroke="none" /><text fill="#e1ed5e" style="font-size:6.75px; font-family:Arial;" text-anchor="middle"><textPath startOffset="22.145653131862474" xlink:href="#id29">May</textPath></text><line stroke="#e1ed5e" stroke-width="0.3" x1="143.1302829299769" x2="145.66735839644613" y1="173.24464959558577" y2="177.55315839532614" /><path d="M 143.63769802327073 174.10635135553383 a86.0,86.0 0 0,1 -40.68552437913181,11.842963189579606" fill="none" id="id30" stroke="none" /><text fill="#e1ed5e" style="font-size:6.75px; font-family:Arial;" text-anchor="middle"><textPath startOffset="21.407464694133747" xlink:href="#id30">June</textPath></text><line stroke="#e1ed5e" stroke-width="0.3" x1="101.45913802915013" x2="101.54496967792366" y1="184.9874750549273" y2="189.98673829345242" /><path d="M 101.47630435890484 185.9873277026323 a86.0,86.0 0 0,1 -42.54439059252881,-10.42667462771756" fill="none" id="id31" stroke="none" /><text fill="#e1ed5e" style="font-size:6.75px; font-family:Arial;" text-anchor="middle"><textPath startOffset="22.145653131862474" xlink:href="#id31">July</textPath></text><path d="M 94.30408787586889 120.21278271476187 l -17.08773637239334 60.63834814428561 a84.0,84.0 0 0,0 -1.3845599504735728,-0.40302522278993624 l 18.12615633524852 -60.33607922719316" fill="#4dd2ff" stroke="none" /><path d="M 91.59046798132341 119.24265499422711 l -7.294198049067617 16.690552602219718 a39.21482559198647,39.21482559198647 0 0,0 -0.6145273100798372,-0.2748702493268874 l 7.579638762003089 -16.562878601982973" fill="#ff5407" stroke="none" /><line stroke="#e1ed5e" stroke-width="0.3" x1="58.13341422392154" x2="55.67067388415222" y1="173.97424548756322" y2="178.32567169271397" /><path d="M 57.64086615596768 174.84453072859336 a86.0,86.0 0 0,1 -31.369924170532247,-30.572349798747897" fill="none" id="id32" stroke="none" /><text fill="#e1ed5e" style="font-size:6.75px; font-family:Arial;" text-anchor="middle"><textPath startOffset="22.145653131862474" xlink:href="#id32">August</textPath></text><path d="M 89.34428304082925 118.09573695890944 l -11.498759313220207 19.527407182748227 a43.6614451662778,43.6614451662778 0 0,0 -0.6425867858219296,-0.3858549018680879 l 11.832278855599563 -19.32713828034422" fill="#ff9f0e" stroke="none" /><path d="M 87.2517909369889 116.68781488649013 l -13.778759028889624 18.03683787292343 a43.69761487095797,43.69761487095797 0 0,0 -0.5921860302587809,-0.46048743893440897 l 14.086355003783632 -17.79764938236823" fill="#ffa00e" stroke="none" /><path d="M 85.34317274990678 115.03919595460226 l -15.584934568412109 15.9915158249896 a43.32977303696971,43.32977303696971 0 0,0 -0.5282272379237685,-0.5237125023351505 l 15.857153726465839 -15.721623312425791" fill="#ff9a0e" stroke="none" /><path d="M 83.8745106332314 113.45245675266167 l -15.403045187365873 12.849768123586303 a41.05917101661905,41.05917101661905 0 0,0 -0.44686686358444483,-0.545104914037365 l 15.621358870188947 -12.583460927850442" fill="#ff740a" stroke="none" /><path d="M 82.37810715431573 111.42229804090323 l -18.60675460971036 12.06067353758267 a43.17365922183627,43.17365922183627 0 0,0 -0.3977780593903841,-0.625373178541221 l 18.811050360726636 -11.739486684362776" fill="#ff970e" stroke="none" /><line stroke="#e1ed5e" stroke-width="0.3" x1="26.387840678322732" x2="22.057713659400548" y1="142.50000000000003" y2="145.00000000000006" /><path d="M 25.521815274538298 143.00000000000003 a86.0,86.0 0 0,1 -11.493303480769221,-40.785679425670985" fill="none" id="id33" stroke="none" /><text fill="#e1ed5e" style="font-size:6.75px; font-family:Arial;" text-anchor="middle"><textPath startOffset="21.40746469413373" xlink:href="#id33">September</textPath></text><path d="M 80.9802524753101 108.90220220490708 l -20.579692722071652 9.632335323532294 a43.722359831669266,43.722359831669266 0 0,0 -0.3123349146641745,-0.6825081560188146 l 20.742012101590884 -9.27763818529879" fill="#ffa00e" stroke="none" /><path d="M 80.16572619554312 106.89939002012753 l -21.447913204595714 7.460697567011385 a43.7084783510098,43.7084783510098 0 0,0 -0.24042697383000985,-0.7107796270548669 l 21.572825599998094 -7.091416265482357" fill="#ffa00e" stroke="none" /><path d="M 79.407916724674 104.11899336999214 l -22.34586680849999 4.469799194199389 a43.78852492505136,43.78852492505136 0 0,0 -0.1411110398654006,-0.7383525884254981 l 22.41930414064755 -4.085544040740577" fill="#ffa10e" stroke="none" /><line stroke="#e1ed5e" stroke-width="0.3" x1="15.003131293944662" x2="10.003315487706104" y1="100.72959589197737" y2="100.7725132973878" /><path d="M 14.003168132696942 100.73817937305945 a86.0,86.0 0 0,1 10.791469493833604,-42.45332614584628" fill="none" id="id34" stroke="none" /><text fill="#e1ed5e" style="font-size:6.75px; font-family:Arial;" text-anchor="middle"><textPath startOffset="22.145653131862435" xlink:href="#id34">October</textPath></text><path d="M 79.01933749520258 99.09900007780938 l -45.67050260614545 -1.961287889986055 a66.71259627810855,66.71259627810855 0 0,0 0.05895617857843886,-1.1437341141519457 l 45.630104838110434 2.7449937975147125" fill="#32ff4a" stroke="none" /><path d="M 79.03789590574601 98.7389718711861 l -22.745289040701063 -1.3683001071533212 a43.78640864042141,43.78640864042141 0 0,0 0.05157630021770725,-0.7499080857234973 l 22.71844877931829 1.7585516170311435" fill="#ffa10e" stroke="none" /><path d="M 79.2786578344484 96.59031103205396 l -22.41101664263161 -3.6877242601530047 a43.71239699316723,43.71239699316723 0 0,0 0.1281921879369577,-0.7393784742720922 l 22.344409637202414 4.07189576734569" fill="#ffa00e" stroke="none" /><path d="M 80.5471966667186 92.08871423366112 l -42.34510622988394 -17.22138606199943 a66.71306333551257,66.71306333551257 0 0,0 0.44054179602079163,-1.0571399368402166 l 42.04323858932667 17.94575850828091" fill="#32ff4a" stroke="none" /><path d="M 80.68587082218212 91.75594674310238 l -20.981508610681093 -8.955758388277138 a43.81291984576462,43.81291984576462 0 0,0 0.30119529312544624,-0.6891937742345586 l 20.82467943553867 9.314614232287564" fill="#ffa20e" stroke="none" /><path d="M 81.63589988554816 89.8137432299009 l -19.955544080684657 -11.06900391121903 a43.81987263642658,43.81987263642658 0 0,0 0.3705213013924981,-0.6546756368951577 l 19.762589414270792 11.409936318213292" fill="#ffa20f" stroke="none" /><line stroke="#e1ed5e" stroke-width="0.3" x1="26.387840678322718" x2="22.05771365940052" y1="57.49999999999999" y2="54.99999999999999" /><path d="M 25.521815274538284 56.99999999999999 a86.0,86.0 0 0,1 29.574782752854787,-30.34633250058573" fill="none" id="id35" stroke="none" /><text fill="#e1ed5e" style="font-size:6.75px; font-family:Arial;" text-anchor="middle"><textPath startOffset="21.40746469413373" xlink:href="#id35">November</textPath></text><path d="M 81.81346652052679 89.5 l -19.772341898797194 -11.415566917779879 a43.831133835559754,43.831133835559754 0 0,0 0.3818031758735257,-0.6483852627802233 l 19.57346501279389 11.753303348853676" fill="#ffa20f" stroke="none" /><path d="M 82.98947788004972 87.6856937992154 l -37.222211001097335 -26.946010269734458 a66.95193642564855,66.95193642564855 0 0,0 0.6819468564951803,-0.9251918825216847 l 36.75416212501834 27.58100846152501" fill="#32ff4e" stroke="none" /><path d="M 86.40962598614128 83.9905735841838 l -29.652340103141132 -34.93038208175163 a66.81913209533226,66.81913209533226 0 0,0 0.8808214634768433,-0.7348125923333102 l 29.04834430550238 35.43425685799682" fill="#32ff4c" stroke="none" /><path d="M 88.72937992617638 82.28071324371311 l -12.271981756095053 -19.293593642572144 a43.86578867799294,43.86578867799294 0 0,0 0.6388443665076641,-0.3986861334258425 l 11.93897326079769 19.501415572839523" fill="#ffa30f" stroke="none" /><line stroke="#e1ed5e" stroke-width="0.3" x1="56.869717070023135" x2="54.33264160355391" y1="26.7553504044142" y2="22.446841604673864" /><path d="M 56.362301976729285 25.89364864446614 a86.0,86.0 0 0,1 42.16139366436587,-11.88097634709845" fill="none" id="id36" stroke="none" /><text fill="#e1ed5e" style="font-size:6.75px; font-family:Arial;" text-anchor="middle"><textPath startOffset="22.145653131862474" xlink:href="#id36">December</textPath></text><path d="M 90.93487009805054 81.0573650232925 l -11.791286963372183 -24.63925473420252 a48.315331264868675,48.315331264868675 0 0,0 0.7512143310007481,-0.3516062379435619 l 11.366583918499913 24.838037203716627" fill="#ffea16" stroke="none" /><path d="M 95.00130118170881 79.60360301121753 l -10.97445165809324 -44.77950780583166 a67.10469508117762,67.10469508117762 0 0,0 1.1211847541463391,-0.264596549150725 l 10.204134750206995 44.96130049862862" fill="#33ff50" stroke="none" /></svg>