<?xml version="1.0" encoding="utf-8" ?>
<svg baseProfile="full" height="200mm" version="1.1" viewBox="0,0,200,200" width="200mm" xmlns="http://www.w3.org/2000/svg" xmlns:ev="http://www.w3.org/2001/xml-events" xmlns:xlink="http://www.w3.org/1999/xlink"><defs /><rect fill="#1a1a1a" height="200" width="200" x="0" y="0" /><text alignment-baseline="middle" fill="#e1ed5e" style="dominant-baseline: central; font-size:9.0px; font-family:Arial;" text-anchor="middle" x="100.0" y="100.0">2024</text><line stroke="#e1ed5e" stroke-width="0.3" x1="100.0" x2="100.0" y1="15.0" y2="10.0" /><path d="M 100.0 14.0 a86.0,86.0 0 0,1 42.35913384403234,11.155469271406648" fill="none" id="id73" stroke="none" /><text fill="#e1ed5e" style="font-size:6.75px; font-family:Arial;" text-anchor="middle"><textPath startOffset="22.145653131862478" xlink:href="#id73">January</textPath></text><path d="M 100.0 79.0 l 0.0 -41.907994229884835 a62.907994229884835,62.907994229884835 0 0,0 1.0798993731574316,0.009269637321927496 l -0.7194064483085768 41.90181899075734" fill="#50ff2b" stroke="none" /><path d="M 103.94208987418118 79.37332000966035 l 6.191414001933225 -32.396094300643405 a53.98242764381535,53.98242764381535 0 0,0 0.908713232936169,0.1817680965856064 l -6.7466237204003505 32.28503680739494" fill="#cdff1d" stroke="none" /><path d="M 106.72888874123014 80.10723608172694 l 10.033194669034684 -29.661357257141287 a52.3123156218526,52.3123156218526 0 0,0 0.8481924533428585,0.2950453646770873 l -10.54089289442256 29.48475345989561" fill="#e7ff1a" stroke="none" /><path d="M 107.06938296918511 80.22567764915836 l 13.95618133564526 -39.03792307204153 a62.45762216109416,62.45762216109416 0 0,0 1.0064922333905721,0.3695978894711051 l -14.624262720689956 38.7925943335617" fill="#56ff2a" stroke="none" /><line stroke="#e1ed5e" stroke-width="0.3" x1="143.13028292997686" x2="145.6673583964461" y1="26.7553504044142" y2="22.446841604673864" /><path d="M 143.63769802327073 25.89364864446614 a86.0,86.0 0 0,1 29.32050498858742,28.57503671076993" fill="none" id="id74" stroke="none" /><text fill="#e1ed5e" style="font-size:6.75px; font-family:Arial;" text-anchor="middle"><textPath startOffset="20.669276256404974" xlink:href="#id74">February</textPath></text><path d="M 111.27062007382361 82.28071324371311 l 17.576060075751588 -27.632485745064443 a53.748620676871546,53.748620676871546 0 0,0 0.7742728571962733,0.5018743115353501 l -18.047818565204867 27.326697591825198" fill="#d1ff1c" stroke="none" /><path d="M 114.39649973595853 84.71141617570332 l 10.275462905764623 -10.912185520751787 a35.988693430951535,35.988693430951535 0 0,0 0.44613557608738025,0.42738778989669357 l -10.461270967717315 10.734185600549514" fill="#ff0000" stroke="none" /><path d="M 114.91283532996326 85.21462403516908 l 23.972744520237317 -23.767850499119163 a54.75800937823567,54.75800937823567 0 0,0 0.6560875191557963,0.6732035928096296 l -24.377218840543925 23.352824214241792" fill="#c2ff1e" stroke="none" /><path d="M 115.41159269507618 85.73525988315684 l 24.080500710117917 -22.28855195628379 a53.812346194046405,53.812346194046405 0 0,0 0.6216666147508809,0.6833205095730623 l -24.459565025710678 21.871893871153055" fill="#d0ff1d" stroke="none" /><line stroke="#e1ed5e" stroke-width="0.3" x1="172.87174338648825" x2="177.1583165268699" y1="56.24261187166439" y2="53.66864786411523" /><path d="M 173.72905801456457 55.72781907015455 a86.0,86.0 0 0,1 12.242430191666344,42.057860355516425" fill="none" id="id75" stroke="none" /><text fill="#e1ed5e" style="font-size:6.75px; font-family:Arial;" text-anchor="middle"><textPath startOffset="22.145653131862474" xlink:href="#id75">March</textPath></text><path d="M 119.31412917781788 91.75594674310238 l 28.637636534861542 -12.223704137602173 a52.1373275851745,52.1373275851745 0 0,0 0.3442904700475615,0.8261717935693601 l -28.843252849445587 11.730299834591536" fill="#e9ff1a" stroke="none" /><path d="M 120.77682067341334 96.94652285012252 l 62.330462020240034 -9.160431449632455 a84.0,84.0 0 0,0 0.19742193377914985,1.4284467671996575 l -62.478528470574396 8.089096374232712" fill="#4dd2ff" stroke="none" /><path d="M 120.96210409425399 98.7389718711861 l 31.23290345472766 -1.8788939136952811 a52.28936721238159,52.28936721238159 0 0,0 0.046209883037305034,0.8964593858542536 l -31.260554927221538 1.342462734464297" fill="#e7ff1a" stroke="none" /><path d="M 120.98066250479742 99.09900007780936 l 31.03990974937784 -1.3329872811499197 a52.0685186698888,52.0685186698888 0 0,0 0.030684010292872887,0.8933314804850999 l -31.058218446667563 0.7999495361007" fill="#ebff1a" stroke="none" /><path d="M 120.99303781780057 99.45929381324524 l 31.032078345420604 -0.7992762598179011 a52.04236989947499,52.04236989947499 0 0,0 0.015336560280496436,0.8932777490735424 l -31.041226337299765 0.26645159477529223" fill="#ebff1a" stroke="none" /><line stroke="#e1ed5e" stroke-width="0.3" x1="184.99686870605535" x2="189.99668451229388" y1="99.2704041080226" y2="99.22748670261217" /><path d="M 185.99683186730306 99.26182062694052 a86.0,86.0 0 0,1 -10.086455211305974,41.156179273409016" fill="none" id="id76" stroke="none" /><text fill="#e1ed5e" style="font-size:6.75px; font-family:Arial;" text-anchor="middle"><textPath startOffset="21.40746469413373" xlink:href="#id76">April</textPath></text><path d="M 120.592083275326 104.11899336999214 l 31.430176483544773 6.286915550138968 a53.05278928457475,53.05278928457475 0 0,0 -0.18629686328557946,0.8914979310451505 l -31.317621909434827 -6.825529932469527" fill="#dbff1b" stroke="none" /><path d="M 120.51834098615036 104.47187691870673 l 30.64893584783641 6.679792917632836 a52.36840611231705,52.36840611231705 0 0,0 -0.19897285739524456,0.8767111226394666 l -30.529752128883498 -7.20493837421132" fill="#e6ff1a" stroke="none" /><path d="M 119.0197475246899 108.90220220490707 l 28.48065514061627 13.330384678391038 a52.44593571373882,52.44593571373882 0 0,0 -0.38865121108375184,0.8121315529335789 l -28.24762467157261 -13.81732873338972" fill="#e5ff1a" stroke="none" /><line stroke="#e1ed5e" stroke-width="0.3" x1="174.33088141563837" x2="178.70328620479359" y1="141.23008692659167" y2="143.65538615756765" /><path d="M 175.20536237346943 141.71514677278685 a86.0,86.0 0 0,1 -30.301960400862466,31.631185727798858" fill="none" id="id77" stroke="none" /><text fill="#e1ed5e" style="font-size:6.75px; font-family:Arial;" text-anchor="middle"><textPath startOffset="22.145653131862474" xlink:href="#id77">May</textPath></text><path d="M 117.62189284568427 111.42229804090321 l 27.390567758176537 17.754235097398695 a53.64132451370446,53.64132451370446 0 0,0 -0.5074866783236005,0.7683995126793564 l -27.081756640932213 -18.221814488417113" fill="#d3ff1c" stroke="none" /><path d="M 116.1254893667686 113.45245675266167 l 24.091465464300374 20.097957332980318 a52.373979619676476,52.373979619676476 0 0,0 -0.5818635321922909,0.6854337778474776 l -23.742907368600967 -20.508557893277352" fill="#e6ff1a" stroke="none" /><path d="M 112.7482090630111 116.68781488649013 l 19.239642548513263 25.18530969682677 a52.69327483741051,52.69327483741051 0 0,0 -0.7235213478033736,0.5429439079030236 l -18.804468211799122 -25.511872631993807" fill="#e1ff1b" stroke="none" /><path d="M 112.45986205192187 116.90419585922612 l 18.61910097164353 25.26038636991348 a52.38085468162981,52.38085468162981 0 0,0 -0.7283906790417882,0.5272986797388328 l -18.182729282227772 -25.57628582102539" fill="#e6ff1a" stroke="none" /><line stroke="#e1ed5e" stroke-width="0.3" x1="143.1302829299769" x2="145.66735839644613" y1="173.24464959558577" y2="177.55315839532614" /><path d="M 143.63769802327073 174.10635135553383 a86.0,86.0 0 0,1 -40.68552437913181,11.842963189579606" fill="none" id="id78" stroke="none" /><text fill="#e1ed5e" style="font-size:6.75px; font-family:Arial;" text-anchor="middle"><textPath startOffset="21.407464694133747" xlink:href="#id78">June</textPath></text><path d="M 103.94208987418118 120.62667999033965 l 5.990047190531368 31.342458053873667 a52.90972175064557,52.90972175064557 0 0,0 -0.8935828839253399,0.16284056826322246 l -5.451129573054971 -31.440666796068253" fill="#deff1b" stroke="none" /><path d="M 103.58742460773223 120.69131181640829 l 7.270837880698464 41.93626074589113 a63.56189667807074,63.56189667807074 0 0,0 -1.0766855522383787,0.17716819789391505 l -6.549874825407013 -42.05489494228072" fill="#48ff2c" stroke="none" /><path d="M 103.2317021107853 120.74984581791261 l 5.075613438879809 32.5890792770157 a53.981963857607866,53.981963857607866 0 0,0 -0.9168576789524774,0.134746505077825 l -4.515430654319646 -32.671406855392405" fill="#cdff1d" stroke="none" /><line stroke="#e1ed5e" stroke-width="0.3" x1="101.45913802915013" x2="101.54496967792366" y1="184.9874750549273" y2="189.98673829345242" /><path d="M 101.47630435890484 185.9873277026323 a86.0,86.0 0 0,1 -42.54439059252881,-10.42667462771756" fill="none" id="id79" stroke="none" /><text fill="#e1ed5e" style="font-size:6.75px; font-family:Arial;" text-anchor="middle"><textPath startOffset="22.145653131862474" xlink:href="#id79">July</textPath></text><line stroke="#e1ed5e" stroke-width="0.3" x1="58.13341422392154" x2="55.67067388415222" y1="173.97424548756322" y2="178.32567169271397" /><path d="M 57.64086615596768 174.84453072859336 a86.0,86.0 0 0,1 -31.369924170532247,-30.572349798747897" fill="none" id="id80" stroke="none" /><text fill="#e1ed5e" style="font-size:6.75px; font-family:Arial;" text-anchor="middle"><textPath startOffset="22.145653131862474" xlink:href="#id80">August</textPath></text><line stroke="#e1ed5e" stroke-width="0.3" x1="26.387840678322732" x2="22.057713659400548" y1="142.50000000000003" y2="145.00000000000006" /><path d="M 25.521815274538298 143.00000000000003 a86.0,86.0 0 0,1 -11.493303480769221,-40.785679425670985" fill="none" id="id81" stroke="none" /><text fill="#e1ed5e" style="font-size:6.75px; font-family:Arial;" text-anchor="middle"><textPath startOffset="21.40746469413373" xlink:href="#id81">September</textPath></text><line stroke="#e1ed5e" stroke-width="0.3" x1="15.003131293944662" x2="10.003315487706104" y1="100.72959589197737" y2="100.7725132973878" /><path d="M 14.003168132696942 100.73817937305945 a86.0,86.0 0 0,1 10.791469493833604,-42.45332614584628" fill="none" id="id82" stroke="none" /><text fill="#e1ed5e" style="font-size:6.75px; font-family:Arial;" text-anchor="middle"><textPath startOffset="22.145653131862435" xlink:href="#id82">October</textPath></text><line stroke="#e1ed5e" stroke-width="0.3" x1="26.387840678322718" x2="22.05771365940052" y1="57.49999999999999" y2="54.99999999999999" /><path d="M 25.521815274538284 56.99999999999999 a86.0,86.0 0 0,1 29.574782752854787,-30.34633250058573" fill="none" id="id83" stroke="none" /><text fill="#e1ed5e" style="font-size:6.75px; font-family:Arial;" text-anchor="middle"><textPath startOffset="21.40746469413373" xlink:href="#id83">November</textPath></text><line stroke="#e1ed5e" stroke-width="0.3" x1="56.869717070023135" x2="54.33264160355391" y1="26.7553504044142" y2="22.446841604673864" /><path d="M 56.362301976729285 25.89364864446614 a86.0,86.0 0 0,1 42.16139366436587,-11.88097634709845" fill="none" id="id84" stroke="none" /><text fill="#e1ed5e" style="font-size:6.75px; font-family:Arial;" text-anchor="middle"><textPath startOffset="22.145653131862474" xlink:href="#id84">December</textPath></text></svg>