<?xml version="1.0" encoding="utf-8" ?>
<svg baseProfile="full" height="200mm" version="1.1" viewBox="0,0,200,200" width="200mm" xmlns="http://www.w3.org/2000/svg" xmlns:ev="http://www.w3.org/2001/xml-events" xmlns:xlink="http://www.w3.org/1999/xlink"><defs /><rect fill="#1a1a1a" height="200" width="200" x="0" y="0" /><text alignment-baseline="middle" fill="#e1ed5e" style="dominant-baseline: central; font-size:9.0px; font-family:Arial;" text-anchor="middle" x="100.0" y="100.0">2021</text><line stroke="#e1ed5e" stroke-width="0.3" x1="100.0" x2="100.0" y1="15.0" y2="10.0" /><path d="M 100.0 14.0 a86.0,86.0 0 0,1 42.46469731375804,11.215312516191453" fill="none" id="id37" stroke="none" /><text fill="#e1ed5e" style="font-size:6.75px; font-family:Arial;" text-anchor="middle"><textPath startOffset="22.20632615414155" xlink:href="#id37">January</textPath></text><path d="M 110.05341064243156 81.56283822128135 l 12.93640602241682 -23.724347801315126 a48.022125737524576,48.022125737524576 0 0,0 0.7223348910494212,0.40197858481361 l -13.342865002538277 23.498153818941336" fill="#ddff1b" stroke="none" /><line stroke="#e1ed5e" stroke-width="0.3" x1="143.23703022742887" x2="145.7803849466894" y1="26.81831364943548" y2="22.513508569990506" /><path d="M 143.74570117128098 25.957352633546492 a86.0,86.0 0 0,1 28.547481713284135,27.462654790039103" fill="none" id="id38" stroke="none" /><text fill="#e1ed5e" style="font-size:6.75px; font-family:Arial;" text-anchor="middle"><textPath startOffset="19.985693538727396" xlink:href="#id38">February</textPath></text><path d="M 114.94478906791727 85.2469230424477 l 19.704240334879987 -19.45147387022323 a48.687847928264276,48.687847928264276 0 0,0 0.5836414879491745,0.6014938568668068 l -20.03614608653227 19.10941581780631" fill="#d5ff1c" stroke="none" /><path d="M 116.15771136456269 86.58626213691792 l 21.75627567600464 -18.061529396726748 a49.276392546418215,49.276392546418215 0 0,0 0.5361776191376842,0.6572903627074823 l -22.063951787218734 17.684354864411162" fill="#cdff1d" stroke="none" /><line stroke="#e1ed5e" stroke-width="0.3" x1="172.23445277983987" x2="176.4835382374775" y1="55.19839476539836" y2="52.563006222186495" /><path d="M 173.08426987136738 54.67131705675599 a86.0,86.0 0 0,1 12.851231095245387,41.99856678651699" fill="none" id="id39" stroke="none" /><text fill="#e1ed5e" style="font-size:6.75px; font-family:Arial;" text-anchor="middle"><textPath startOffset="22.20632615414155" xlink:href="#id39">March</textPath></text><line stroke="#e1ed5e" stroke-width="0.3" x1="184.98032266829074" x2="189.97916517819016" y1="98.17113171792111" y2="98.06355123074" /><path d="M 185.9800911702706 98.14961562048488 a86.0,86.0 0 0,1 -9.607161424134198,41.387399972396054" fill="none" id="id40" stroke="none" /><text fill="#e1ed5e" style="font-size:6.75px; font-family:Arial;" text-anchor="middle"><textPath startOffset="21.466115282336823" xlink:href="#id40">April</textPath></text><line stroke="#e1ed5e" stroke-width="0.3" x1="174.80103733775053" x2="179.2010983576182" y1="140.37084112569926" y2="142.7455964860345" /><path d="M 175.68104954172406 140.8457921977663 a86.0,86.0 0 0,1 -30.038265399797805,32.042727171017184" fill="none" id="id41" stroke="none" /><text fill="#e1ed5e" style="font-size:6.75px; font-family:Arial;" text-anchor="middle"><textPath startOffset="22.206326154141568" xlink:href="#id41">May</textPath></text><path d="M 115.32070863581623 114.36230785411682 l 19.34648669505089 18.13624972674722 a47.51810893696456,47.51810893696456 0 0,0 -0.5645455652682541,0.5919237681603379 l -19.03143457840367 -18.466580611490063" fill="#e4ff1a" stroke="none" /><line stroke="#e1ed5e" stroke-width="0.3" x1="143.8653032363475" x2="146.44561519142675" y1="172.8068346515853" y2="177.08958963109032" /><path d="M 144.38136562736335 173.6633856474863 a86.0,86.0 0 0,1 -40.68145358897372,12.25698825130547" fill="none" id="id42" stroke="none" /><text fill="#e1ed5e" style="font-size:6.75px; font-family:Arial;" text-anchor="middle"><textPath startOffset="21.466115282336833" xlink:href="#id42">June</textPath></text><path d="M 110.21172684928248 118.3499491758327 l 12.443659247663536 22.36061717338732 a46.5898779959332,46.5898779959332 0 0,0 -0.7041221177967617,0.38394352002704807 l -12.056914317998126 -22.571501345174138" fill="#f0ff19" stroke="none" /><path d="M 109.2508944713604 118.85261126421891 l 10.548221483627913 21.49646391225948 a44.94499816660556,44.94499816660556 0 0,0 -0.697476454249977,0.3348310836143121 l -10.176632361377703 -21.67484927237335" fill="#fff717" stroke="none" /><path d="M 101.98527174616119 120.90594882070398 l 2.3244336415269067 24.477500795973423 a45.58761958731958,45.58761958731958 0 0,0 -0.7818400111909591,0.06746044597675264 l -1.902749312594406 -24.513885494228838" fill="#feff18" stroke="none" /><line stroke="#e1ed5e" stroke-width="0.3" x1="102.19456741930631" x2="102.32365962044197" y1="184.97166512339345" y2="189.96999836594603" /><path d="M 102.22038585953345 185.97133177190398 a86.0,86.0 0 0,1 -42.740103519485714,-10.115201625700543" fill="none" id="id43" stroke="none" /><text fill="#e1ed5e" style="font-size:6.75px; font-family:Arial;" text-anchor="middle"><textPath startOffset="22.20632615414155" xlink:href="#id43">July</textPath></text><path d="M 94.11515582081647 120.15858648285463 l -3.0093153815382196 10.308436812568136 a31.738707956931897,31.738707956931897 0 0,0 -0.5231219572774584,-0.15761235449284827 l 3.186312313255924 -10.255109088969562" fill="#ff3505" stroke="none" /><path d="M 91.07499286063937 119.00905698771935 l -6.415955247304301 13.665116119492701 a36.096353211773724,36.096353211773724 0 0,0 -0.5601592496717063,-0.26891048066396595 l 6.650227164976249 -13.552651362329174" fill="#ff780b" stroke="none" /><path d="M 90.7491055286396 118.85261126421891 l -8.125100178506662 16.558329102385272 a39.44438981299376,39.44438981299376 0 0,0 -0.6069666872336602,-0.3043456974006909 l 8.408920773423082 -16.41601556407528" fill="#ffaa0f" stroke="none" /><path d="M 90.42595943632237 118.69057910512821 l -8.516632320149348 16.626291588208776 a39.68064768825627,39.68064768825627 0 0,0 -0.6052415451518792,-0.3166337709414802 l 8.801564767827722 -16.47722839832258" fill="#ffad10" stroke="none" /><path d="M 90.10565033884886 118.52300852407294 l -8.361251530798594 15.652927042289464 a38.7461165372179,38.7461165372179 0 0,0 -0.5855777865520088,-0.31930369879862325 l 8.629452129219244 -15.506682691731076" fill="#ffa00e" stroke="none" /><line stroke="#e1ed5e" stroke-width="0.3" x1="58.666819895761336" x2="56.23545636021788" y1="174.27360380694188" y2="178.64263932499728" /><path d="M 58.180547188652646 175.14741091055294 a86.0,86.0 0 0,1 -31.652253787137756,-30.449443065178592" fill="none" id="id44" stroke="none" /><text fill="#e1ed5e" style="font-size:6.75px; font-family:Arial;" text-anchor="middle"><textPath startOffset="22.20632615414155" xlink:href="#id44">August</textPath></text><path d="M 89.7882731507175 118.34994917583269 l -8.777782406047635 15.77322458823993 a39.05115170505683,39.05115170505683 0 0,0 -0.5845608424586484,-0.33192890244886475 l 9.04799201542749 -15.619792519996434" fill="#ffa40f" stroke="none" /><path d="M 89.4739219176387 118.17145234162733 l -8.138508552996061 14.04972670215257 a37.236691223040765,37.236691223040765 0 0,0 -0.5518692707240827,-0.3260540926261687 l 8.379145694748525 -13.907554037232654" fill="#ff890c" stroke="none" /><path d="M 89.1626897886671 117.98757091392108 l -8.325228279199958 13.818062888897618 a37.13221274042468,37.13221274042468 0 0,0 -0.5446425655518727,-0.3345639477462183 l 8.56185004468414 -13.67271047432302" fill="#ff880c" stroke="none" /><path d="M 88.8546689885994 117.79835938074946 l -8.467947500828297 13.522754298000999 a36.95528184272809,36.95528184272809 0 0,0 -0.5362355660935311,-0.3422509093885843 l 8.699464868968752 -13.374988959788611" fill="#ff850c" stroke="none" /><path d="M 88.54995079064634 117.60387380957326 l -8.704045041324905 13.38203074403858 a36.963682122737424,36.963682122737424 0 0,0 -0.5303853643482925,-0.3515104984601009 l 8.933105104413158 -13.230222224487163" fill="#ff850c" stroke="none" /><path d="M 88.24862548938628 117.40417183066458 l -11.66421557769556 17.275086586745683 a41.84424480816027,41.84424480816027 0 0,0 -0.5934771540126145,-0.40819899814348465 l 11.959849616331065 -17.071746799237097" fill="#ffcc13" stroke="none" /><path d="M 87.95078237400918 117.19931262002967 l -14.788497742303278 21.109420025896622 a46.774159138637955,46.774159138637955 0 0,0 -0.6554455617784951,-0.46764300516993756 l 15.14967063193066 -20.851732758882466" fill="#eeff19" stroke="none" /><path d="M 87.65650970185807 116.9893568818739 l -15.54961304900436 21.40220627097225 a47.45458181939398,47.45458181939398 0 0,0 -0.6567149856770401,-0.48582204656592604 l 15.915713005099965 -21.131374275666555" fill="#e5ff1a" stroke="none" /><path d="M 87.36589467227662 116.77436683061367 l -9.314172920028335 12.366475443376508 a36.48171605720191,36.48171605720191 0 0,0 -0.49835982247948063,-0.38212106072425017 l 9.525661471001303 -12.204315040824891" fill="#ff7e0b" stroke="none" /><path d="M 87.07902340077011 116.55440617244103 l -10.331311216954816 13.23651667239764 a37.79110970365679,37.79110970365679 0 0,0 -0.509356687786495,-0.4046637583078109 l 10.55762539745867 -13.056719000084698" fill="#ff920d" stroke="none" /><path d="M 86.79598089348748 116.32954008644616 l -14.762585447262579 18.257034384459626 a44.478782626087536,44.478782626087536 0 0,0 -0.5912074703289782,-0.48652349888108254 l 15.074663046136244 -18.00021576672136" fill="#fff116" stroke="none" /><path d="M 86.51685102203217 116.09983520530335 l -16.567297392475496 19.782526934320696 a46.803560118670624,46.803560118670624 0 0,0 -0.6132035813213107,-0.5225853951696211 l 16.905366450373865 -19.494417148928125" fill="#eeff19" stroke="none" /><path d="M 86.24171649860922 115.8653595955263 l -16.73063042537203 19.292920365505488 a46.536851228374275,46.536851228374275 0 0,0 -0.6006747331952049,-0.5300256127910934 l 17.060247511473822 -19.002071610942107" fill="#f1ff19" stroke="none" /><path d="M 85.44109423537348 115.13401014063109 l -17.87784028903865 18.584048870230106 a46.78728457615254,46.78728457615254 0 0,0 -0.5755951046883941,-0.5633409566482196 l 18.19508534610284 -18.273557810659316" fill="#eeff19" stroke="none" /><path d="M 85.18274418774928 114.88116024355367 l -17.90391656376604 17.981133264388614 a46.37462082069403,46.37462082069403 0 0,0 -0.5608223674719099,-0.5681100973412252 l 18.210779556293485 -17.670282673066726" fill="#f3ff19" stroke="none" /><path d="M 84.9287848128048 114.62390073753433 l -17.437600444553308 16.92005155752736 a45.29728490949698,45.29728490949698 0 0,0 -0.5381607535828719,-0.5642593985933009 l 17.726267749515138 -16.617385042351557" fill="#fffc17" stroke="none" /><path d="M 84.67929136418377 114.36230785411682 l -18.262893457008182 17.120441643495372 a46.03283442781426,46.03283442781426 0 0,0 -0.5369480068205226,-0.5827510128843765 l 18.554887871824434 -16.80353937580965" fill="#f8ff18" stroke="none" /><path d="M 84.19399662182784 113.82643327865904 l -20.098398392043435 17.58124161603413 a47.70291509716991,47.70291509716991 0 0,0 -0.5353118694265367,-0.6226886411851165 l 20.39805277104075 -17.232675875687484" fill="#e2ff1b" stroke="none" /><path d="M 83.72743513129214 113.27417163493432 l -18.60056847800406 15.173215806881037 a45.004325144171474,45.004325144171474 0 0,0 -0.48450818072172425,-0.6044984519888025 l 18.858994570780645 -14.850789521313976" fill="#fff817" stroke="none" /><path d="M 83.50135304334701 112.99209946851258 l -17.238360952342784 13.57459801130232 a42.94153138437947,42.94153138437947 0 0,0 -0.4523035238305286,-0.5846632756795472 l 17.469471293391383 -13.275856741509521" fill="#ffdc14" stroke="none" /><path d="M 83.28015986056508 112.70617746262583 l -19.62431251940193 14.913419947445627 a45.64799659988666,45.64799659988666 0 0,0 -0.4700411886984074,-0.629696985294765 l 19.87811497479542 -14.573410082641553" fill="#fdff18" stroke="none" /><path d="M 83.06392112726016 112.41649034213515 l -19.880655471309552 14.575272618277397 a45.65114670489017,45.65114670489017 0 0,0 -0.4591640326332621,-0.6377386817064182 l 20.128599296318423 -14.230900331119841" fill="#fdff18" stroke="none" /><path d="M 82.85270091963577 112.12312394758628 l -13.631271097161774 9.637295547219933 a37.69398146604887,37.69398146604887 0 0,0 -0.37000967356469777,-0.5330265313954292 l 13.795141677888607 -9.401227753637492" fill="#ff900d" stroke="none" /><path d="M 82.6465618267979 111.8261652097733 l -21.49381730999646 14.64778518007072 a47.010417013900465,47.010417013900465 0 0,0 -0.44994989681621705,-0.6726140457365578 l 21.742770312223406 -14.27563422012834" fill="#ebff1a" stroke="none" /><path d="M 82.44556493220864 111.52570212397912 l -20.182129013320125 13.250965145670783 a45.143454781826065,45.143454781826065 0 0,0 -0.4208985188876093,-0.6532438482437976 l 20.40723239558478 -12.901599697505537" fill="#fffa17" stroke="none" /><path d="M 82.24976979558568 111.22182372390057 l -13.723604180260498 8.67616167192969 a37.23616620554019,37.23616620554019 0 0,0 -0.33784792120745155,-0.544718422106415 l 13.870916741135906 -8.43864691845801" fill="#ff890c" stroke="none" /><line stroke="#e1ed5e" stroke-width="0.3" x1="26.63291911575756" x2="22.317208475507996" y1="142.92168965132927" y2="145.44649492493687" /><path d="M 25.769776987707644 143.4266507060508 a86.0,86.0 0 0,1 -11.730757126820373,-40.83630448921669" fill="none" id="id45" stroke="none" /><text fill="#e1ed5e" style="font-size:6.75px; font-family:Arial;" text-anchor="middle"><textPath startOffset="21.46611528233685" xlink:href="#id45">September</textPath></text><path d="M 81.69416730710424 110.29060199501025 l -13.563701211357499 7.62481844376776 a36.559943664788825,36.559943664788825 0 0,0 -0.3036626973458451,-0.5512360004755665 l 13.69294031815486 -7.39021192489437" fill="#ff7f0b" stroke="none" /><path d="M 81.51974371655577 109.97397251340807 l -20.23609316040303 10.921614606689221 a43.99524150805026,43.99524150805026 0 0,0 -0.3539469382297844,-0.6695342187444038 l 20.4210926068577 -10.571665372858693" fill="#ffea16" stroke="none" /><path d="M 81.35079622478065 109.6543875284942 l -53.388855275829634 27.63853646236908 a81.11870395679856,81.11870395679856 0 0,0 -0.6312631669444786,-1.2455421163336398 l 53.856697112560376 -26.715440134332752" fill="#49f0ff" stroke="none" /><path d="M 81.02952815118164 109.00673069616217 l -22.17959221999044 10.530345036651813 a45.55244341478049,45.55244341478049 0 0,0 -0.33020181679509875,-0.7112253372439649 l 22.357568653625364 -10.146999632129022" fill="#feff18" stroke="none" /><path d="M 80.87730276802145 108.67885076344099 l -27.56150610245915 12.508810623163434 a51.26725890863028,51.26725890863028 0 0,0 -0.35779399306902293,-0.8067309995150731 l 27.77274118025945 -12.032531287155665" fill="#b4ff20" stroke="none" /><path d="M 80.73074385275274 108.34839909993369 l -27.96206793279792 12.114557042504364 a51.47359078635955,51.47359078635955 0 0,0 -0.3452383217508319,-0.8160414108673709 l 28.166457235741056 -11.631441105970834" fill="#b1ff20" stroke="none" /><path d="M 80.58989483394504 108.01547362559985 l -20.322087006501448 8.392079848316703 a42.986682889429645,42.986682889429645 0 0,0 -0.27654230857660117,-0.6863553308174581 l 20.46353192933544 -8.04102514965644" fill="#ffdc14" stroke="none" /><path d="M 80.32549172779594 107.34259656027581 l -19.013094838672345 7.095754711179569 a41.29402646754892,41.29402646754892 0 0,0 -0.24280049686430596,-0.6680826887065453 l 19.132419596541876 -6.767424225466907" fill="#ffc412" stroke="none" /><path d="M 80.0844068197444 106.66101706037122 l -16.38062352171479 5.4787026301498285 a38.272550751691725,38.272550751691725 0 0,0 -0.20358764249227798,-0.6265783356708078 l 16.472503415223315 -5.195925394501217" fill="#ff990e" stroke="none" /><path d="M 79.97269907076064 106.31721596034903 l -23.161344204425667 7.3057879236097545 a45.286259541984734,45.286259541984734 0 0,0 -0.22809875394670362,-0.7454399256034083 l 23.2836697308785 -6.906021025454298" fill="#fffc17" stroke="none" /><path d="M 79.86692584326677 105.97154293290107 l -15.410871982150265 4.570920613436254 a37.07446081536051,37.07446081536051 0 0,0 -0.17620496061193297,-0.6133925838092757 l 15.487269579648302 -4.304970554122382" fill="#ff870c" stroke="none" /><path d="M 79.76711848015287 105.62410040840567 l -20.620016890772558 5.731711783265662 a42.40181339377979,42.40181339377979 0 0,0 -0.18941884195559888,-0.7048979764555904 l 20.715623809069932 -5.375922873634533" fill="#ffd413" stroke="none" /><path d="M 79.67330655649465 105.27499134158121 l -11.3635085858751 2.948950333071871 a32.73991633054435,32.73991633054435 0 0,0 -0.136866391654678,-0.5467131998847905 l 11.412586291824837 -2.7529092937896884" fill="#ff4506" stroke="none" /><path d="M 79.58551787078972 104.9243191809786 l -16.726653125619404 4.034752304698783 a38.20639854661822,38.20639854661822 0 0,0 -0.14871282833486824,-0.6406509722902931 l 16.793626519884825 -3.7462326750599155" fill="#ff980e" stroke="none" /><path d="M 79.50377843672027 104.57218783832718 l -15.726762625386305 3.508242365064654 a37.11331211040368,37.11331211040368 0 0,0 -0.13372449699778804,-0.6247163307963063 l 15.784821161108534 -3.237012214852184" fill="#ff880c" stroke="none" /><path d="M 79.4281124754447 104.21870165774334 l -8.21720008116487 1.6851110800134679 a29.388204606820228,29.388204606820228 0 0,0 -0.09735901734387196,-0.49643153192322703 l 8.244989031484408 -1.543415821022286" fill="#ff1001" stroke="none" /><path d="M 79.35854240842038 103.8639653848113 l -7.296998491906462 1.3659572954406412 a28.42374745824861,28.42374745824861 0 0,0 -0.08588513801325316,-0.4816894644897694 l 7.319430072258904 -1.2401490802176582" fill="#ff0000" stroke="none" /><path d="M 79.23777060512086 103.15116336523772 l -16.026380026839902 2.432385302052936 a37.209915330511016,37.209915330511016 0 0,0 -0.09066098235607604,-0.6340826994404417 l 16.065875060212576 -2.1561571306320935" fill="#ff890c" stroke="none" /><path d="M 79.18660465613746 102.79330883721812 l -16.124154509823708 2.163978656093819 a37.26871729057635,37.26871729057635 0 0,0 -0.079858858589611,-0.636553676791029 l 16.159014877660166 -1.8861072250153814" fill="#ff8a0c" stroke="none" /><path d="M 79.1416061653843 102.43462659150553 l -16.539693254421127 1.9305406414242379 a37.651980066002196,37.651980066002196 0 0,0 -0.06959824809954657,-0.6443933392400978 l 16.570473804021727 -1.645550980299358" fill="#ff900d" stroke="none" /><path d="M 79.10278846688536 102.07522291339032 l -16.405380329794323 1.6291561727899915 a37.48607453581786,37.48607453581786 0 0,0 -0.058238015034223975,-0.6426516430071476 l 16.43099294110562 -1.3465231412342777" fill="#ff8d0d" stroke="none" /><path d="M 79.07016306316243 101.71520430193888 l -16.74756727725315 1.372466471078764 a37.80371012367078,37.80371012367078 0 0,0 -0.0475668627011089,-0.649012049508223 l 16.768710698618595 -1.0839812850737804" fill="#ff920d" stroke="none" /><path d="M 79.04373962182676 101.35467743843564 l -16.649779956614406 1.076293234342301 a37.68453115103837,37.68453115103837 0 0,0 -0.036273423316903496,-0.6476863404308578 l 16.66583973081884 -0.7895351775760054" fill="#ff900d" stroke="none" /><path d="M 79.0235259727143 100.99374915477108 l -17.01982952968925 0.8063052535653005 a38.038917963932136,38.038917963932136 0 0,0 -0.025355415244913856,-0.6543106032162047 l 17.031187077785365 -0.513217403335099" fill="#ff950d" stroke="none" /><path d="M 79.0095281055655 100.63252640178507 l -16.532121972991686 0.4981785868387754 a37.53962632087736,37.53962632087736 0 0,0 -0.013903850492953729,-0.6460572982760959 l 16.538247886169646 -0.21353147277255063" fill="#ff8e0d" stroke="none" /><line stroke="#e1ed5e" stroke-width="0.3" x1="15.007084014347285" x2="10.007500721073583" y1="101.09737516637583" y2="101.16192664675087" /><path d="M 14.007167355692545 101.11028546245083 a86.0,86.0 0 0,1 10.666146001902534,-42.60595125391555" fill="none" id="id46" stroke="none" /><text fill="#e1ed5e" style="font-size:6.75px; font-family:Arial;" text-anchor="middle"><textPath startOffset="22.20632615414155" xlink:href="#id46">October</textPath></text><path d="M 79.00019446554 99.90962569577889 l -16.378294279468 -0.07048526937103072 a37.37844594819828,37.37844594819828 0 0,0 0.00830690196148073,-0.6433787114438161 l 16.374654370388804 0.3524002388753188" fill="#ff8c0c" stroke="none" /><path d="M 79.01574976396665 99.18683210126434 l -30.422406253641903 -1.1789091289655111 a51.44523984132804,51.44523984132804 0 0,0 0.041906782249874916,-0.8845859392294774 l 30.397605863158528 1.7024061748179975" fill="#b1ff20" stroke="none" /><path d="M 79.03285615573316 98.82574320788736 l -16.761693512223996 -0.9387321706872044 a37.78795959865329,37.78795959865329 0 0,0 0.0419615659518908,-0.6491268526470273 l 16.743051355267692 1.2271180875872434" fill="#ff920d" stroke="none" /><path d="M 79.05617556472873 98.46500227214037 l -15.991142994429426 -1.172009832215237 a37.034034467815594,37.034034467815594 0 0,0 0.05206899923375201,-0.6353736765905428 l 15.968599511376176 1.447097426013558" fill="#ff860c" stroke="none" /><path d="M 79.08570108090925 98.10471618934814 l -17.593694707229393 -1.5943658870499084 a38.665788859628655,38.665788859628655 0 0,0 0.06577395789666653,-0.6623347798773557 l 17.563643623650496 1.8969761976316946" fill="#ff9f0e" stroke="none" /><path d="M 79.26566170972629 96.67025291283419 l -17.832643709549632 -2.863761197346354 a39.061127037567914,39.061127037567914 0 0,0 0.11232517851051485,-0.6629495619328603 l 17.780706669518896 3.170296547595042" fill="#ffa40f" stroke="none" /><path d="M 79.46518482838121 95.60439243477599 l -16.32110176474882 -3.49363545716615 a37.69083136104537,37.69083136104537 0 0,0 0.1412609517463763,-0.6332451481898966 l 16.258546426000407 3.7740587749060057" fill="#ff900d" stroke="none" /><path d="M 79.71946130924805 94.55025226153421 l -17.0554875282388 -4.58311813126718 a38.66053868462282,38.66053868462282 0 0,0 0.1782310286524988,-0.6411918394089919 l 16.974069729019938 4.876021274095114" fill="#ff9e0e" stroke="none" /><path d="M 79.81627453868168 94.20196356495316 l -16.331196643974113 -4.691347657851664 a37.99166638887963,37.99166638887963 0 0,0 0.18596758398458083,-0.6269902437578527 l 16.24802316287783 4.971767288356056" fill="#ff950d" stroke="none" /><path d="M 80.803312248108 91.48605970444005 l -15.366980860891118 -6.815423538872975 a37.81053535117837,37.81053535117837 0 0,0 0.2689907798019683,-0.5926855272146075 l 15.247387764125799 7.0789310749296535" fill="#ff920d" stroke="none" /><path d="M 81.43458229118936 90.18545643968196 l -14.585942485567207 -7.710807811501912 a37.49867495583186,37.49867495583186 0 0,0 0.3065818466645457,-0.568049600156403 l 14.45105253968419 7.960738394990788" fill="#ff8d0d" stroke="none" /><line stroke="#e1ed5e" stroke-width="0.3" x1="26.266209847984243" x2="21.928928074336255" y1="57.711370442889674" y2="55.22380399835377" /><path d="M 25.398753493254645 57.213857153982495 a86.0,86.0 0 0,1 29.58750427330803,-30.492523968695096" fill="none" id="id47" stroke="none" /><text fill="#e1ed5e" style="font-size:6.75px; font-family:Arial;" text-anchor="middle"><textPath startOffset="21.46611528233685" xlink:href="#id47">November</textPath></text><path d="M 81.78341655067845 89.55222093294921 l -14.161133182102837 -8.1218517861648 a37.32489416313877,37.32489416313877 0 0,0 0.32444277766190566,-0.5545778766957787 l 14.019230729970607 8.364409075214471" fill="#ff8b0c" stroke="none" /><path d="M 81.96595687620814 89.24020034530311 l -13.53770572773195 -8.07711284789315 a36.764175472515745,36.764175472515745 0 0,0 0.32892417906281257,-0.5406648655896615 l 13.39666575038292 8.308945486689886" fill="#ff820c" stroke="none" /><path d="M 82.34701348167596 88.62581576622439 l -14.09593827482795 -9.082304499547291 a37.7685339511317,37.7685339511317 0 0,0 0.35682877207157865,-0.5434747004799139 l 13.937512867398452 9.323597264004873" fill="#ff910d" stroke="none" /><path d="M 83.39014120810768 87.1503855733568 l -12.8323741554816 -9.927300535321056 a37.22409080302677,37.22409080302677 0 0,0 0.3964293338903061,-0.5034249960115241 l 12.659590740997324 10.146717925285627" fill="#ff890c" stroke="none" /><path d="M 83.6137871275137 86.86637796730984 l -13.023376792968248 -10.438294053615625 a37.69030634354478,37.69030634354478 0 0,0 0.41010913493346146,-0.5027453075784674 l 12.841769165958395 10.660923530802174" fill="#ff900d" stroke="none" /><path d="M 84.31358615837235 86.03803664274999 l -12.468369493988172 -11.097687448341194 a37.69188139604654,37.69188139604654 0 0,0 0.4355321294236418,-0.4809254553636736 l 12.275493723948486 11.310665690974425" fill="#ff900d" stroke="none" /><path d="M 84.80347519578584 85.50635884689758 l -11.962343244411985 -11.409049935329072 a37.53070102336744,37.53070102336744 0 0,0 0.44989612646931104,-0.46365750531262523 l 11.764182854239555 11.613271636191822" fill="#ff8e0d" stroke="none" /><path d="M 85.05521093208273 85.24692304244772 l -11.511607499813275 -11.363936324432132 a37.1757891929731,37.1757891929731 0 0,0 0.45348125198888567,-0.45153385937697815 l 11.314290447657077 11.560406034459218" fill="#ff890c" stroke="none" /><path d="M 85.57189188830299 84.74124197986013 l -11.549724831538388 -12.214661481554177 a37.81053535117837,37.81053535117837 0 0,0 0.47675865097561543,-0.44309520704701977 l 11.337758296767916 12.411661274675845" fill="#ff920d" stroke="none" /><path d="M 85.83668400450813 84.49514656593479 l -10.98295540431776 -12.023251749168326 a37.28446781559385,37.28446781559385 0 0,0 0.47757677027268475,-0.42877313976075415 l 10.774367646449104 12.210523897698359" fill="#ff8a0c" stroke="none" /><path d="M 86.10567301691215 84.25364557470407 l -10.858431126812805 -12.305792517592069 a37.41152205073503,37.41152205073503 0 0,0 0.4865389844818435,-0.4219218129078855 l 10.644998343684188 12.490879323919634" fill="#ff8c0c" stroke="none" /><path d="M 86.93701828274178 83.55741782278169 l -10.465430075907696 -13.173002746815582 a37.82418580619354,37.82418580619354 0 0,0 0.5132695991602901,-0.4006150634920819 l 10.23712792158798 13.351196199530886" fill="#ff920d" stroke="none" /><path d="M 87.22198572758235 83.33499621200491 l -9.928209129259207 -12.948306303292897 a37.31649388312944,37.31649388312944 0 0,0 0.5131086255716734,-0.3864627789231864 l 9.703854349929143 13.117285671721937" fill="#ff8b0c" stroke="none" /><path d="M 87.80319425747018 82.90503203632743 l -35.23530693925147 -49.385589639778644 a81.66682222740758,81.66682222740758 0 0,0 1.1513810947948746,-0.8066160368222329 l 34.379994704872935 49.984790519364815" fill="#4aeaff" stroke="none" /><path d="M 88.09926311788651 82.69761687909137 l -8.038025624366925 -11.686419107165253 a35.183872795759854,35.183872795759854 0 0,0 0.5019487201051007,-0.3389180164657747 l 7.835672209855285 11.823049035929694" fill="#ff6b09" stroke="none" /><path d="M 88.70189139769569 82.29822771554957 l -33.89432580691294 -53.105316853351276 a84.0,84.0 0 0,0 1.225523390511031,-0.7674226347082791 l 32.97518326402967 53.68088382938249" fill="#4dd2ff" stroke="none" /><path d="M 89.00827224532344 82.1063720568725 l -8.416096891931167 -13.7007129250864 a37.07918597286576,37.07918597286576 0 0,0 0.5467201205223657,-0.32939275532154827 l 8.179014705191152 13.843552289866567" fill="#ff870c" stroke="none" /><line stroke="#e1ed5e" stroke-width="0.3" x1="56.762969772571076" x2="54.21961505331055" y1="26.818313649435495" y2="22.513508569990535" /><path d="M 56.25429882871897 25.957352633546506 a86.0,86.0 0 0,1 42.265352541879196,-11.944610805530505" fill="none" id="id48" stroke="none" /><text fill="#e1ed5e" style="font-size:6.75px; font-family:Arial;" text-anchor="middle"><textPath startOffset="22.20632615414155" xlink:href="#id48">December</textPath></text><path d="M 89.3179101791058 81.91981866633112 l -8.33978551602264 -14.115668089464942 a37.39524650821694,37.39524650821694 0 0,0 0.5570169189540517,-0.32266015241253637 l 8.095571864603269 14.257132399267526" fill="#ff8c0c" stroke="none" /><path d="M 89.94658935756843 81.56283822128135 l -7.867810093837348 -14.428942843742202 a37.434622820760694,37.434622820760694 0 0,0 0.5683911865592425,-0.30361488722660157 l 7.618273860749801 14.562236457470554" fill="#ff8c0c" stroke="none" /><path d="M 90.26544431104013 81.39251694778311 l -7.47541449403542 -14.289162541215388 a37.12643754791826,37.12643754791826 0 0,0 0.5688115197254017,-0.29136735316263784 l 7.228342486721255 14.415722419690532" fill="#ff880c" stroke="none" /><path d="M 90.58718382345135 81.22770947309562 l -6.928534297891889 -13.81780503582917 a36.45756525217507,36.45756525217507 0 0,0 0.5634060694844332,-0.27646091145031515 l 6.68965696139703 13.935021107414315" fill="#ff7e0b" stroke="none" /><path d="M 91.23893434514133 80.91482961587045 l -6.934395585698791 -15.10593876107097 a37.62152905096836,37.62152905096836 0 0,0 0.5908691910300519,-0.2651057825916716 l 6.673344276201965 15.22306487417917" fill="#ff8f0d" stroke="none" /><path d="M 91.56875222667455 80.76684994638697 l -6.48321330121431 -14.789342883070494 a37.14796326544218,37.14796326544218 0 0,0 0.5878510265769246,-0.2516871308870568 l 6.227678516847077 14.898749541920337" fill="#ff880c" stroke="none" /><path d="M 91.90106846888425 80.62456947434976 l -6.584448343120268 -15.75226570711407 a38.073044101470046,38.073044101470046 0 0,0 0.6068410473635709,-0.247545700090872 l 6.312323426168317 15.863272293388519" fill="#ff960d" stroke="none" /><path d="M 92.23578459929587 80.48803036053334 l -6.261077896339344 -15.734489000991632 a37.93443948131605,37.93443948131605 0 0,0 0.6087878443573549,-0.23620022552401893 l 5.989306886982313 15.839931930406202" fill="#ff940d" stroke="none" /><path d="M 92.57280143429618 80.3572730644239 l -6.344153126666802 -16.77839449183873 a38.93774792493083,38.93774792493083 0 0,0 0.6289701090832855,-0.23165499927247668 l 6.0544006918109465 16.88511275891753" fill="#ffa30f" stroke="none" /><path d="M 93.25333710446033 80.11325718540243 l -10.623986861356917 -31.315703429787067 a54.06875229174306,54.06875229174306 0 0,0 0.8839395924607376,-0.2914209859929719 l 10.083364446653771 31.493938140039276" fill="#91ff24" stroke="none" /><path d="M 93.59665428221793 80.00007090966166 l -5.378029168718236 -16.797500363199436 a38.63743791459716,38.63743791459716 0 0,0 0.6351527966238103,-0.19734506567640459 l 5.088090999383697 16.887585563758364" fill="#ff9e0e" stroke="none" /><path d="M 93.94186890950719 79.89281104454417 l -4.7750266398038255 -15.848511938697673 a37.552226740891356,37.552226740891356 0 0,0 0.6205233345408298,-0.18114777722267705 l 4.501513087539575 15.92835804483905" fill="#ff8e0d" stroke="none" /><path d="M 94.28887869178378 79.79150937346287 l -4.51136510019667 -15.963218853196771 a37.58845294843161,37.58845294843161 0 0,0 0.6241510897110901,-0.17060407026204913 l 4.235916121261857 16.038509464285116" fill="#ff8f0d" stroke="none" /><path d="M 94.63758080256005 79.69619591428918 l -4.233234822286504 -16.028357223834245 a37.57795259841994,37.57795259841994 0 0,0 0.6268201322210921,-0.15979040843558967 l 3.956705801380413 16.098850628438697" fill="#ff8f0d" stroke="none" /><path d="M 95.33964822691252 79.52364482259891 l -3.693917945947338 -16.230100116945337 a37.64515483849462,37.64515483849462 0 0,0 0.6330790634086505,-0.1383665626487048 l 3.413996158385167 16.29128017768991" fill="#ff900d" stroke="none" /><path d="M 95.692805502759 79.44645832069477 l -6.821962043465084 -32.55378443783153 a54.26090869695656,54.26090869695656 0 0,0 0.9158042235732475,-0.183701711809966 l 6.2605914104247 32.66639010571871" fill="#8fff24" stroke="none" /><path d="M 96.40284397218896 79.31037775812273 l -2.8466143808535946 -16.372761079256172 a37.618378945964864,37.618378945964864 0 0,0 0.6389227182107389,-0.10542772300587085 l 2.56436245650397 16.419335065201672" fill="#ff8f0d" stroke="none" /><path d="M 97.11714578562143 79.19881850522333 l -2.23327745975035 -16.11417238400822 a37.26819227307577,37.26819227307577 0 0,0 0.6361951440492821,-0.08259638862049096 l 1.9555675871932099 16.150227095792847" fill="#ff8a0c" stroke="none" /><path d="M 97.47563105711357 79.15227682838746 l -4.288793356848311 -35.419377542170615 a56.67808926964232,56.67808926964232 0 0,0 0.9695550879573377,-0.1089408110703531 l 3.6784715653812556 35.48795430671157" fill="#72ff27" stroke="none" /><path d="M 98.91598698831166 79.02799685794201 l -0.8709250844265581 -16.849468973295167 a37.871962398746625,37.871962398746625 0 0,0 0.651324115034007,-0.028047386490038503 l 0.580760137003227 16.8619640863094" fill="#ff930d" stroke="none" /><path d="M 99.27714615592234 79.0124445844662 l -0.5745976025646502 -16.6830392122295 a37.6929314310477,37.6929314310477 0 0,0 0.64862959336221,-0.01675218875284541 l 0.2873413740075611 16.690458193124705" fill="#ff900d" stroke="none" /></svg>