<?xml version="1.0" encoding="utf-8" ?>
<svg baseProfile="full" height="200mm" version="1.1" viewBox="0,0,200,200" width="200mm" xmlns="http://www.w3.org/2000/svg" xmlns:ev="http://www.w3.org/2001/xml-events" xmlns:xlink="http://www.w3.org/1999/xlink"><defs /><rect fill="#1a1a1a" height="200" width="200" x="0" y="0" /><text alignment-baseline="middle" fill="#e1ed5e" style="dominant-baseline: central; font-size:9.0px; font-family:Arial;" text-anchor="middle" x="100.0" y="100.0">2022</text><line stroke="#e1ed5e" stroke-width="0.3" x1="100.0" x2="100.0" y1="15.0" y2="10.0" /><path d="M 100.0 14.0 a86.0,86.0 0 0,1 42.46469731375804,11.215312516191453" fill="none" id="id49" stroke="none" /><text fill="#e1ed5e" style="font-size:6.75px; font-family:Arial;" text-anchor="middle"><textPath startOffset="22.20632615414155" xlink:href="#id49">January</textPath></text><path d="M 100.0 79.0 l 0.0 -36.34628942313073 a57.34628942313073,57.34628942313073 0 0,0 0.9871221040559248,0.008496471595179802 l -0.6256416247833964 36.340904328144106" fill="#fbff18" stroke="none" /><path d="M 100.72285384407766 79.0124445844662 l 1.5028705338738302 -43.63479404650047 a64.66066732566165,64.66066732566165 0 0,0 1.1120377518326814,0.047886684827464464 l -2.2537491180958433 43.602459635148804" fill="#76ff27" stroke="none" /><path d="M 101.08401301168833 79.027996857942 l 1.896744776928069 -36.69562725955038 a57.74461458119626,57.74461458119626 0 0,0 0.99221182933453,0.059852927158431615 l -2.528118655102211 36.65754106301164" fill="#f3ff19" stroke="none" /><path d="M 101.44485096284872 79.0497635885617 l 2.5479251615776537 -36.94473400111723 a58.03248969543242,58.03248969543242 0 0,0 0.9959751724744136,0.07730684208477887 l -3.183490523414408 36.895401896843985" fill="#edff19" stroke="none" /><path d="M 101.80526077348638 79.07773832637324 l 4.913870196499165 -56.94982109584246 a78.16142268310425,78.16142268310425 0 0,0 1.3394443835489451,0.1271963838149565 l -5.893439707138354 56.85679916751232" fill="#41ffd2" stroke="none" /><path d="M 102.16513564639614 79.11191278185805 l 6.168680107866406 -59.51217344206806 a80.83102374246974,80.83102374246974 0 0,0 1.382723577032908,0.15536510492190564 l -7.192170388409039 59.39717238367555" fill="#47fffd" stroke="none" /><path d="M 102.88285421437855 79.19881850522331 l 8.360960069461083 -60.3283534103132 a81.90497416864054,81.90497416864054 0 0,0 1.3948456866616916,0.20556399587336727 l -9.398174736551429 60.175494930278866" fill="#49f1ff" stroke="none" /><path d="M 103.2404852339499 79.25152402106235 l 9.225202195387906 -59.06797048370932 a80.78402372381893,80.78402372381893 0 0,0 1.3720619939462115,0.22640198528194108 l -10.240593395472994 58.90042223548775" fill="#47fffc" stroke="none" /><path d="M 103.95276090670814 79.375362276772 l 11.373043480928741 -59.342041459325635 a81.42204897700357,81.42204897700357 0 0,0 1.3742242460696643,0.2756564557310829 l -12.392834136465531 59.13748104751734" fill="#48f8ff" stroke="none" /><path d="M 104.307194497241 79.44645832069477 l 11.360640203663438 -54.2119451720041 a76.38952197996903,76.38952197996903 0 0,0 1.284643594555241,0.28077333256011516 l -12.292126522372207 54.008358341348114" fill="#3effb5" stroke="none" /><path d="M 105.01212808612495 79.60689891045804 l 15.036384258374856 -61.17930326862588 a84.0,84.0 0 0,0 1.4011644452598997,0.3571880153245286 l -16.08725759231978 60.91141225713248" fill="#4dd2ff" stroke="none" /><path d="M 105.36241919743992 79.69619591428918 l 12.97704045592672 -49.135152871910726 a71.81994516664491,71.81994516664491 0 0,0 1.1925603083545917,0.32597178149994477 l -13.820898653505022 48.904494549584484" fill="#35ff64" stroke="none" /><path d="M 105.71112130821622 79.79150937346287 l 15.497902101600882 -54.8384795995537 a77.98634761362999,77.98634761362999 0 0,0 1.2886678812357557,0.37619749213274273 l -16.439560200560067 54.56358377850225" fill="#41ffcf" stroke="none" /><path d="M 106.0581310904928 79.89281104454417 l 17.422225513688666 -57.82509080697457 a81.39267396534682,81.39267396534682 0 0,0 1.3379972193821537,0.41572224909876565 l -18.415008105781535 57.516628422993286" fill="#48f9ff" stroke="none" /><path d="M 107.08798089147638 80.2323363322302 l 12.32560707198432 -34.37487471122689 a57.51783949120615,57.51783949120615 0 0,0 0.9290984637520574,0.34219480518436307 l -12.915487861508954 34.1576166382362" fill="#f7ff18" stroke="none" /><path d="M 107.4271985657038 80.35727306442388 l 13.29573405325517 -35.16325450380414 a58.592964917843226,58.592964917843226 0 0,0 0.9403245518998604,0.3648313173187252 l -13.899041770154698 34.92918048259487" fill="#e3ff1b" stroke="none" /><path d="M 108.09893153111575 80.62456947434976 l 15.14669525118212 -36.236106010399276 a60.27439058507563,60.27439058507563 0 0,0 0.9538170943195778,0.4083747021047465 l -15.768196103292013 35.97001178033174" fill="#c3ff1e" stroke="none" /><path d="M 108.76106565485865 80.91482961587045 l 14.997750920998966 -32.671211811689055 a56.94913926553146,56.94913926553146 0 0,0 0.8873809150197859,0.4166372380808008 l -15.557910047318348 32.40820959096825" fill="#fffc17" stroke="none" /><path d="M 109.08828744355905 81.06846463323043 l 16.348136954117916 -34.05430724432222 a58.77508999011508,58.77508999011508 0 0,0 0.9082954993257094,0.4456966568350817 l -16.931903720454056 33.7678554273523" fill="#dfff1b" stroke="none" /><path d="M 109.41281617654863 81.2277094730956 l 16.867650018818065 -33.63971214569075 a58.63173993323013,58.63173993323013 0 0,0 0.8982927341876358,0.4601404283299941 l -17.444203240594454 33.34437919204826" fill="#e2ff1b" stroke="none" /><line stroke="#e1ed5e" stroke-width="0.3" x1="143.23703022742887" x2="145.7803849466894" y1="26.81831364943548" y2="22.513508569990506" /><path d="M 143.74570117128098 25.957352633546492 a86.0,86.0 0 0,1 28.547481713284135,27.462654790039103" fill="none" id="id50" stroke="none" /><text fill="#e1ed5e" style="font-size:6.75px; font-family:Arial;" text-anchor="middle"><textPath startOffset="19.985693538727396" xlink:href="#id50">February</textPath></text><path d="M 114.16331599549186 84.49514656593476 l 24.625261460576716 -26.957745618561834 a57.5119644888748,57.5119644888748 0 0,0 0.7251768944821324,0.6739728907881057 l -25.0856462388537 26.529868141699087" fill="#f7ff18" stroke="none" /><path d="M 114.42810811169701 84.74124197986012 l 25.909886594452253 -27.401561369885822 a58.711639964936495,58.711639964936495 0 0,0 0.7283507621838462,0.7006728561493074 l -26.377720600248516 26.951505426974215" fill="#e0ff1b" stroke="none" /><path d="M 114.68862486808459 84.99185889309783 l 25.633933806566485 -26.191539313516927 a57.648264542962124,57.648264542962124 0 0,0 0.703210550399543,0.7001907408165504 l -26.08098015713335 25.74641272205026" fill="#f5ff19" stroke="none" /><path d="M 114.94478906791727 85.2469230424477 l 25.88029291001209 -25.548299895718355 a57.36626443105732,57.36626443105732 0 0,0 0.6876732769121123,0.7087077600455342 l -26.316230450627312 25.099027940122706" fill="#faff18" stroke="none" /><line stroke="#e1ed5e" stroke-width="0.3" x1="172.23445277983987" x2="176.4835382374775" y1="55.19839476539836" y2="52.563006222186495" /><path d="M 173.08426987136738 54.67131705675599 a86.0,86.0 0 0,1 12.851231095245387,41.99856678651699" fill="none" id="id51" stroke="none" /><text fill="#e1ed5e" style="font-size:6.75px; font-family:Arial;" text-anchor="middle"><textPath startOffset="22.20632615414155" xlink:href="#id51">March</textPath></text><line stroke="#e1ed5e" stroke-width="0.3" x1="184.98032266829074" x2="189.97916517819016" y1="98.17113171792111" y2="98.06355123074" /><path d="M 185.9800911702706 98.14961562048488 a86.0,86.0 0 0,1 -9.607161424134198,41.387399972396054" fill="none" id="id52" stroke="none" /><text fill="#e1ed5e" style="font-size:6.75px; font-family:Arial;" text-anchor="middle"><textPath startOffset="21.466115282336823" xlink:href="#id52">April</textPath></text><path d="M 120.99824983174949 100.27111621757518 l 36.74742674828668 0.47445970142486904 a57.75048958352761,57.75048958352761 0 0,0 -0.021389508947181318,0.993886432313989 l -36.73381517665449 -1.1069359495289728" fill="#f3ff19" stroke="none" /><path d="M 120.9904718944345 100.63252640178507 l 37.92824846740034 1.1429289750963538 a58.945465057724235,58.945465057724235 0 0,0 -0.03929098994771753,1.013925864961469 l -37.902955344601416 -1.795632087071829" fill="#dcff1b" stroke="none" /><path d="M 120.8583938346157 102.4346265915055 l 39.530073907842755 4.614016297865401 a60.79844079303206,60.79844079303206 0 0,0 -0.13027800361101452,1.0384438704509331 l -39.44479439498489 -5.29377792260373" fill="#baff1f" stroke="none" /><path d="M 120.81339534386255 102.79330883721812 l 36.915371188527835 4.954310955348695 a58.24633978029357,58.24633978029357 0 0,0 -0.14191567855562878,0.9925579252831268 l -36.824621458955605 -5.589014352612232" fill="#e9ff1a" stroke="none" /><path d="M 120.41448212921028 104.9243191809786 l 54.59104450461685 13.168285429052933 a77.15679728444337,77.15679728444337 0 0,0 -0.3225473250858905,1.2884162289958518 l -54.356285865235904 -14.10602949744618" fill="#3fffc2" stroke="none" /><path d="M 119.67450827220406 107.3425965602758 l 34.62789780538547 12.923254792325306 a57.96081466698995,57.96081466698995 0 0,0 -0.356888804564875,0.9317240513679842 l -34.40031472122709 -13.517402410526435" fill="#efff19" stroke="none" /><line stroke="#e1ed5e" stroke-width="0.3" x1="174.80103733775053" x2="179.2010983576182" y1="140.37084112569926" y2="142.7455964860345" /><path d="M 175.68104954172406 140.8457921977663 a86.0,86.0 0 0,1 -30.038265399797805,32.042727171017184" fill="none" id="id53" stroke="none" /><text fill="#e1ed5e" style="font-size:6.75px; font-family:Arial;" text-anchor="middle"><textPath startOffset="22.206326154141568" xlink:href="#id53">May</textPath></text><path d="M 118.12598468904814 110.60418214915192 l 29.79088764325308 17.428459991188735 a55.514463696215756,55.514463696215756 0 0,0 -0.4896352548521733,0.8206568508994814 l -29.48647151270268 -17.93867893597432" fill="#ffe014" stroke="none" /><path d="M 117.94076556474637 110.91462005526583 l 34.29380834372103 20.86331750833018 a61.141540929182916,61.141540929182916 0 0,0 -0.554744072961803,0.8944240799726322 l -33.92959963109127 -21.450537919668086" fill="#b4ff20" stroke="none" /><path d="M 117.14729908036423 112.12312394758627 l 32.79628426417503 23.186941412257767 a61.16504093850831,61.16504093850831 0 0,0 -0.6152044117326895,0.8544651205982925 l -32.39230006006673 -23.74804013830719" fill="#b3ff20" stroke="none" /><path d="M 115.80600337817218 113.82643327865902 l 18.201504496306857 15.92191786045926 a45.18268459630341,45.18268459630341 0 0,0 -0.5171075424691365,0.5809758057834948 l -17.92473810418938 -16.23286783598362" fill="#ff0000" stroke="none" /><path d="M 114.0293411484842 115.62618273729858 l 26.47015384307416 29.483028223386906 a60.622190723091556,60.622190723091556 0 0,0 -0.7824813513832992,0.6904488150490541 l -25.958730138784276 -29.934300180208247" fill="#bdff1f" stroke="none" /><path d="M 113.75828350139079 115.86535959552629 l 25.660814046031707 29.590758346640428 a60.16746554264506,60.16746554264506 0 0,0 -0.7882927122686942,0.6718001510405494 l -25.147655857185963 -30.028082887903924" fill="#c5ff1e" stroke="none" /><path d="M 112.04921762599082 117.19931262002967 l 21.759246071890658 31.059616249218966 a58.9231400488651,58.9231400488651 0 0,0 -0.8357072190455302,0.5748070456447864 l -21.221381968222246 -31.429564084228847" fill="#ddff1b" stroke="none" /><path d="M 111.7513745106137 117.40417183066458 l 21.713862683766738 32.15894420813551 a59.80321539810135,59.80321539810135 0 0,0 -0.8581058045786526,0.5687057361953799 l -21.15708218044812 -32.52794796542221" fill="#ccff1d" stroke="none" /><line stroke="#e1ed5e" stroke-width="0.3" x1="143.8653032363475" x2="146.44561519142675" y1="172.8068346515853" y2="177.08958963109032" /><path d="M 144.38136562736335 173.6633856474863 a86.0,86.0 0 0,1 -40.68145358897372,12.25698825130547" fill="none" id="id54" stroke="none" /><text fill="#e1ed5e" style="font-size:6.75px; font-family:Arial;" text-anchor="middle"><textPath startOffset="21.466115282336833" xlink:href="#id54">June</textPath></text><path d="M 109.57404056367764 118.69057910512821 l 16.77890026682829 32.75600940359359 a57.80336460450976,57.80336460450976 0 0,0 -0.8894729235588555,0.44600018902740673 l -16.212573435586677 -33.0399774335303" fill="#f2ff19" stroke="none" /><path d="M 107.59598834532513 119.57807347666477 l 16.66989135238873 42.965357884723836 a67.08586828804297,67.08586828804297 0 0,0 -1.0801776111591073,0.4084307454163035 l -15.92784352046935 -43.24593688024677" fill="#4eff2b" stroke="none" /><path d="M 105.18746579009965 120.34920634021253 l 9.10953319780728 35.73455290230171 a57.877389633884775,57.877389633884775 0 0,0 -0.9675079770767891,0.23778992141334215 l -8.493071935987281 -35.88606408202908" fill="#f0ff19" stroke="none" /><path d="M 104.83641907484287 120.43548508189849 l 8.553417803176231 36.14104551552574 a58.139414737863,58.139414737863 0 0,0 -0.9758558200565897,0.22210160753109928 l -7.93004183372678 -36.282923856634525" fill="#ebff1a" stroke="none" /><path d="M 102.34483914955558 120.86867818915974 l 4.1159871197488425 36.631600359045784 a57.86211462782326,57.86211462782326 0 0,0 -0.9907300148397803,0.10269321688877489 l -3.48482450830346 -36.69702294439031" fill="#f1ff19" stroke="none" /><line stroke="#e1ed5e" stroke-width="0.3" x1="102.19456741930631" x2="102.32365962044197" y1="184.97166512339345" y2="189.96999836594603" /><path d="M 102.22038585953345 185.97133177190398 a86.0,86.0 0 0,1 -42.740103519485714,-10.115201625700543" fill="none" id="id55" stroke="none" /><text fill="#e1ed5e" style="font-size:6.75px; font-family:Arial;" text-anchor="middle"><textPath startOffset="22.20632615414155" xlink:href="#id55">July</textPath></text><path d="M 97.2962882734958 120.8252237178851 l -4.774521838234079 36.77554986814842 a58.0841897159483,58.0841897159483 0 0,0 -0.9903946495886184,-0.13725967393637636 l 5.4068450790095275 -36.68791562871944" fill="#ecff1a" stroke="none" /><path d="M 95.16358092515715 120.4354850818985 l -9.667245558107656 40.847339597463986 a62.975716657030425,62.975716657030425 0 0,0 -1.0527342130187054,-0.25873645666384615 l 10.36893305586957 -40.67488188248611" fill="#93ff23" stroke="none" /><path d="M 94.81253420990036 120.34920634021253 l -9.0802178289056 35.61955561560003 a57.758714586791505,57.758714586791505 0 0,0 -0.9612963218574797,-0.2538870956888696 l 9.692004593574568 -35.45797717060758" fill="#f3ff19" stroke="none" /><path d="M 92.7421414339146 119.70592522655815 l -12.912184808955256 35.058074780590644 a58.360314825521755,58.360314825521755 0 0,0 -0.9396838270625741,-0.35530801784622634 l 13.513738856778113 -34.830618512637784" fill="#e7ff1a" stroke="none" /><path d="M 92.40401165467489 119.57807347666478 l -15.272445970545503 39.36355030925671 a63.22246675494713,63.22246675494713 0 0,0 -1.011194957315764,-0.40237534220148724 l 15.947762003903124 -39.094828122649155" fill="#8fff24" stroke="none" /><path d="M 90.42595943632237 118.69057910512821 l -16.746223141603952 32.69221665173805 a57.73168957606729,57.73168957606729 0 0,0 -0.8805707325586016,-0.4606729889316587 l 17.30648477668905 -32.399114243861675" fill="#f3ff19" stroke="none" /><path d="M 90.10565033884886 118.52300852407294 l -17.66079686705983 33.06241462184291 a58.483689874480106,58.483689874480106 0 0,0 -0.8838756687575693,-0.4819594882076909 l 18.22729534768604 -32.753514481875456" fill="#e5ff1a" stroke="none" /><line stroke="#e1ed5e" stroke-width="0.3" x1="58.666819895761336" x2="56.23545636021788" y1="174.27360380694188" y2="178.64263932499728" /><path d="M 58.180547188652646 175.14741091055294 a86.0,86.0 0 0,1 -31.652253787137756,-30.449443065178592" fill="none" id="id56" stroke="none" /><text fill="#e1ed5e" style="font-size:6.75px; font-family:Arial;" text-anchor="middle"><textPath startOffset="22.20632615414155" xlink:href="#id56">August</textPath></text><path d="M 85.97065885151581 115.62618273729859 l -24.759692551177142 27.577879547524397 a58.061864707089164,58.061864707089164 0 0,0 -0.7379398975769824,-0.674090600050473 l 25.230731998220982 -27.147596180887348" fill="#edff1a" stroke="none" /><path d="M 84.43433777217949 114.09645910891817 l -27.155790976562102 24.592625194401133 a57.63651453829942,57.63651453829942 0 0,0 -0.6596393431616742,-0.7411117948308121 l 27.575089169372113 -24.12153922982946" fill="#f5ff19" stroke="none" /><path d="M 82.85270091963577 112.12312394758628 l -30.248031302011103 21.385329020397602 a58.04423970009512,58.04423970009512 0 0,0 -0.5697708055352982,-0.820797340888321 l 30.611663014708533 -20.86149041732227" fill="#edff1a" stroke="none" /><line stroke="#e1ed5e" stroke-width="0.3" x1="26.63291911575756" x2="22.317208475507996" y1="142.92168965132927" y2="145.44649492493687" /><path d="M 25.769776987707644 143.4266507060508 a86.0,86.0 0 0,1 -11.730757126820373,-40.83630448921669" fill="none" id="id57" stroke="none" /><text fill="#e1ed5e" style="font-size:6.75px; font-family:Arial;" text-anchor="middle"><textPath startOffset="21.46611528233685" xlink:href="#id57">September</textPath></text><path d="M 80.45479744820244 107.68017299344265 l -34.953676854013864 13.73484282315762 a58.55536490292258,58.55536490292258 0 0,0 -0.3605496972589218,-0.9412814869862618 l 35.18492083086629 -13.131137769338201" fill="#e3ff1b" stroke="none" /><path d="M 80.32549172779594 107.34259656027581 l -34.9218210223882 13.032947983753079 a58.27453979148405,58.27453979148405 0 0,0 -0.3426424697778071,-0.9428049177433997 l 35.14098775317124 -12.429895269003561" fill="#e9ff1a" stroke="none" /><path d="M 80.20201598880116 107.00284435728193 l -34.57160693467581 12.22849672005586 a57.67058955182125,57.67058955182125 0 0,0 -0.3229804817239918,-0.938732463702176 l 34.77697824734304 -11.631591553264387" fill="#f4ff19" stroke="none" /><path d="M 79.18660465613746 102.79330883721812 l -35.65881150171053 4.785671518116583 a56.978514277188204,56.978514277188204 0 0,0 -0.12209272132525645,-0.9731991170623245 l 35.73590573228263 -4.171154646766849" fill="#fffc17" stroke="none" /><line stroke="#e1ed5e" stroke-width="0.3" x1="15.007084014347285" x2="10.007500721073583" y1="101.09737516637583" y2="101.16192664675087" /><path d="M 14.007167355692545 101.11028546245083 a86.0,86.0 0 0,1 10.666146001902534,-42.60595125391555" fill="none" id="id58" stroke="none" /><text fill="#e1ed5e" style="font-size:6.75px; font-family:Arial;" text-anchor="middle"><textPath startOffset="22.20632615414155" xlink:href="#id58">October</textPath></text><path d="M 79.05617556472873 98.46500227214037 l -35.774459911593034 -2.621952587953385 a56.87041423429137,56.87041423429137 0 0,0 0.07995849217459397,-0.9756961319639923 l 35.72402693559894 3.237362637125156" fill="#fffa17" stroke="none" /><path d="M 79.26566170972629 96.67025291283419 l -37.064026691030726 -5.9521472634112325 a58.53891489639481,58.53891489639481 0 0,0 0.16833600472473184,-0.9935286288402567 l 36.95607882478577 6.589261680567318" fill="#e4ff1a" stroke="none" /><path d="M 80.38941819471856 92.48833698450439 l -39.21165403100905 -15.019683469146988 a62.98981666262566,62.98981666262566 0 0,0 0.39655524069375436,-1.0091898332178013 l 38.9473052404336 15.692422307260554" fill="#93ff23" stroke="none" /><line stroke="#e1ed5e" stroke-width="0.3" x1="26.266209847984243" x2="21.928928074336255" y1="57.711370442889674" y2="55.22380399835377" /><path d="M 25.398753493254645 57.213857153982495 a86.0,86.0 0 0,1 29.58750427330803,-30.492523968695096" fill="none" id="id59" stroke="none" /><text fill="#e1ed5e" style="font-size:6.75px; font-family:Arial;" text-anchor="middle"><textPath startOffset="21.46611528233685" xlink:href="#id59">November</textPath></text><path d="M 82.7489923806493 88.02491185347247 l -31.105673846421613 -21.592546614506364 a58.86556502601787,58.86556502601787 0 0,0 0.5849762166211485,-0.8274073732703098 l 30.729385009996584 22.12478048810846" fill="#deff1b" stroke="none" /><path d="M 84.07557802195018 86.31012108654704 l -32.17435949199202 -27.6595964469172 a63.42926683701065,63.42926683701065 0 0,0 0.7188895997381236,-0.8218150851334832 l 31.693478028676058 28.209327088253623" fill="#8bff24" stroke="none" /><path d="M 84.31358615837235 86.03803664274999 l -27.84742926872983 -24.786085014015818 a58.2804147938154,58.2804147938154 0 0,0 0.6734339655835256,-0.7436226047989033 l 27.41665166253026 25.261760406084278" fill="#e9ff1a" stroke="none" /><path d="M 85.83668400450813 84.49514656593479 l -28.924419709390186 -31.66411653896785 a63.88634201838969,63.88634201838969 0 0,0 0.8183201926491733,-0.734695948740285 l 28.375088529145042 32.15731149647741" fill="#83ff25" stroke="none" /><path d="M 86.10567301691215 84.25364557470407 l -25.586479456182953 -28.996998163567895 a59.671615345879104,59.671615345879104 0 0,0 0.7760327712249495,-0.6729679720523604 l 25.083552886311228 29.433131129039936" fill="#cfff1d" stroke="none" /><path d="M 87.80319425747018 82.90503203632743 l -22.503478525090234 -31.540737187949883 a59.74564037525412,59.74564037525412 0 0,0 0.8423249362259972,-0.590102447266775 l 21.95722244928058 31.9234244779806" fill="#cdff1d" stroke="none" /><path d="M 88.09926311788651 82.69761687909137 l -24.744574478778333 -35.97593258608755 a64.66419232706045,64.66419232706045 0 0,0 0.9225280219609513,-0.6228950385043985 l 24.121641762410842 36.396539536890614" fill="#76ff27" stroke="none" /><line stroke="#e1ed5e" stroke-width="0.3" x1="56.762969772571076" x2="54.21961505331055" y1="26.818313649435495" y2="22.513508569990535" /><path d="M 56.25429882871897 25.957352633546506 a86.0,86.0 0 0,1 42.265352541879196,-11.944610805530505" fill="none" id="id60" stroke="none" /><text fill="#e1ed5e" style="font-size:6.75px; font-family:Arial;" text-anchor="middle"><textPath startOffset="22.20632615414155" xlink:href="#id60">December</textPath></text><path d="M 89.94658935756843 81.56283822128135 l -18.409346108222653 -33.76128803544352 a59.45424025961915,59.45424025961915 0 0,0 0.9027275719845629,-0.4822058055185377 l 17.825473489709783 34.07317256746381" fill="#d3ff1c" stroke="none" /></svg>