<?xml version="1.0" encoding="utf-8" ?>
<svg baseProfile="full" height="200mm" version="1.1" viewBox="0,0,200,200" width="200mm" xmlns="http://www.w3.org/2000/svg" xmlns:ev="http://www.w3.org/2001/xml-events" xmlns:xlink="http://www.w3.org/1999/xlink"><defs /><rect fill="#1a1a1a" height="200" width="200" x="0" y="0" /><text alignment-baseline="middle" fill="#e1ed5e" style="dominant-baseline: central; font-size:9.0px; font-family:Arial;" text-anchor="middle" x="100.0" y="100.0">2024</text><line stroke="#e1ed5e" stroke-width="0.3" x1="100.0" x2="100.0" y1="15.0" y2="10.0" /><path d="M 100.0 14.0 a86.0,86.0 0 0,1 42.35913384403234,11.155469271406648" fill="none" id="id73" stroke="none" /><text fill="#e1ed5e" style="font-size:6.75px; font-family:Arial;" text-anchor="middle"><textPath startOffset="22.145653131862478" xlink:href="#id73">January</textPath></text><path d="M 100.0 79.0 l 0.0 -31.212240385276985 a52.212240385276985,52.212240385276985 0 0,0 0.8962925356857141,0.007693593446457268 l -0.5357996108368593 31.20764119002496" fill="#c5ff1e" stroke="none" /><path d="M 103.94208987418118 79.37332000966035 l 4.611241976722986 -24.127966547602597 a45.56465595708847,45.56465595708847 0 0,0 0.7670126674477902,0.15342401493214167 l -5.024751129701733 24.045253136007595" fill="#ffda14" stroke="none" /><path d="M 106.72888874123014 80.10723608172694 l 7.47252378924103 -22.091188802428597 a44.32078974831941,44.32078974831941 0 0,0 0.7186177660813851,0.24997256226613804 l -7.850647327367433 21.95965780759387" fill="#ffc712" stroke="none" /><path d="M 107.06938296918511 80.22567764915836 l 10.394286214682266 -29.07466848407694 a51.8768122281383,51.8768122281383 0 0,0 0.8359845731239981,0.30698511484403335 l -10.891859939460389 28.891952520224187" fill="#c9ff1d" stroke="none" /><line stroke="#e1ed5e" stroke-width="0.3" x1="143.13028292997686" x2="145.6673583964461" y1="26.7553504044142" y2="22.446841604673864" /><path d="M 143.63769802327073 25.89364864446614 a86.0,86.0 0 0,1 29.32050498858742,28.57503671076993" fill="none" id="id74" stroke="none" /><text fill="#e1ed5e" style="font-size:6.75px; font-family:Arial;" text-anchor="middle"><textPath startOffset="20.669276256404974" xlink:href="#id74">February</textPath></text><path d="M 111.27062007382361 82.28071324371311 l 13.090299886488646 -20.58012566257961 a45.39052117946176,45.39052117946176 0 0,0 0.65387070552999,0.4238310914827933 l -13.441656224275643 20.352380729392923" fill="#ffd714" stroke="none" /><path d="M 114.39649973595853 84.71141617570332 l 7.652960352276052 -8.127178688966326 a32.16328068248298,32.16328068248298 0 0,0 0.3987136622136677,0.3819586691327674 l -7.791346500355032 7.994607889527978" fill="#ff0000" stroke="none" /><path d="M 114.91283532996326 85.21462403516908 l 17.854423205176982 -17.701822214407414 a46.14229380347088,46.14229380347088 0 0,0 0.5528576260062087,0.5672806283809249 l -18.155667632334005 17.392718893958747" fill="#ffe215" stroke="none" /><path d="M 115.41159269507618 85.73525988315684 l 17.93467787169969 -16.600070088851332 a45.43798267689891,45.43798267689891 0 0,0 0.5249218603106008,0.5769810772566846 l -18.216997432852168 16.289751436036976" fill="#ffd814" stroke="none" /><line stroke="#e1ed5e" stroke-width="0.3" x1="172.87174338648825" x2="177.1583165268699" y1="56.24261187166439" y2="53.66864786411523" /><path d="M 173.72905801456457 55.72781907015455 a86.0,86.0 0 0,1 12.242430191666344,42.057860355516425" fill="none" id="id75" stroke="none" /><text fill="#e1ed5e" style="font-size:6.75px; font-family:Arial;" text-anchor="middle"><textPath startOffset="22.145653131862474" xlink:href="#id75">March</textPath></text><path d="M 119.31412917781788 91.75594674310238 l 21.328741974362572 -9.10397166346065 a44.190462139811494,44.190462139811494 0 0,0 0.2918130960371844,0.7002451996616805 l -21.481880914936237 8.736493954357691" fill="#ffc512" stroke="none" /><path d="M 120.77682067341334 96.94652285012252 l 46.42248811120102 -6.822507106171407 a67.9211466787456,67.9211466787456 0 0,0 0.15963243002160998,1.1550207428303323 l -46.532765057777844 6.024598055140989" fill="#35ff66" stroke="none" /><path d="M 120.96210409425399 98.7389718711861 l 23.261645146069473 -1.399362808226963 a44.303698229480794,44.303698229480794 0 0,0 0.03915267715880091,0.7595514771589754 l -23.282239412684845 0.9998395376912569" fill="#ffc712" stroke="none" /><path d="M 120.98066250479742 99.09900007780936 l 23.117907273739412 -0.9927824085672647 a44.13921462859045,44.13921462859045 0 0,0 0.02601126651152888,0.7572896437019474 l -23.131543227247793 0.5957865003011974" fill="#ffc412" stroke="none" /><path d="M 120.99303781780057 99.45929381324524 l 23.112074599869924 -0.5952850575199192 a44.11973954458958,44.11973954458958 0 0,0 0.013001810762891997,0.7572902945470882 l -23.118887842231484 0.1984478470037646" fill="#ffc412" stroke="none" /><line stroke="#e1ed5e" stroke-width="0.3" x1="184.99686870605535" x2="189.99668451229388" y1="99.2704041080226" y2="99.22748670261217" /><path d="M 185.99683186730306 99.26182062694052 a86.0,86.0 0 0,1 -10.086455211305974,41.156179273409016" fill="none" id="id76" stroke="none" /><text fill="#e1ed5e" style="font-size:6.75px; font-family:Arial;" text-anchor="middle"><textPath startOffset="21.40746469413373" xlink:href="#id76">April</textPath></text><path d="M 120.592083275326 104.11899336999214 l 23.40857017338515 4.682369629919952 a44.87227980134058,44.87227980134058 0 0,0 -0.15757069681335648,0.754032825486244 l -23.32474176574743 -5.083518906691605" fill="#ffcf13" stroke="none" /><path d="M 120.51834098615036 104.47187691870673 l 22.826717689901525 4.974976877331687 a44.36256482975378,44.36256482975378 0 0,0 -0.16855480127896796,0.7426835548831394 l -22.737952027064892 -5.366094766153844" fill="#ffc712" stroke="none" /><path d="M 119.0197475246899 108.90220220490707 l 21.211825354914694 9.928205313950617 a44.42030733451974,44.42030733451974 0 0,0 -0.32917719947841556,0.6878537428386479 l -21.038268897476367 -10.290871558854368" fill="#ffc812" stroke="none" /><line stroke="#e1ed5e" stroke-width="0.3" x1="174.33088141563837" x2="178.70328620479359" y1="141.23008692659167" y2="143.65538615756765" /><path d="M 175.20536237346943 141.71514677278685 a86.0,86.0 0 0,1 -30.301960400862466,31.631185727798858" fill="none" id="id77" stroke="none" /><text fill="#e1ed5e" style="font-size:6.75px; font-family:Arial;" text-anchor="middle"><textPath startOffset="22.145653131862474" xlink:href="#id77">May</textPath></text><path d="M 117.62189284568427 111.42229804090321 l 20.399949958659064 13.223001097999637 a45.310609131683506,45.310609131683506 0 0,0 -0.42867193771813644,0.649063950072585 l -20.1699535820202 -13.571244926411282" fill="#ffd614" stroke="none" /><path d="M 116.1254893667686 113.45245675266167 l 17.942844202482096 14.968558793078417 a44.3667158671558,44.3667158671558 0 0,0 -0.492904571959172,0.5806403463769874 l -17.683245067015807 -15.27436592190496" fill="#ffc812" stroke="none" /><path d="M 112.7482090630111 116.68781488649013 l 14.329303016911519 18.757517625943535 a44.60452059326882,44.60452059326882 0 0,0 -0.6124561997208208,0.45959855020922796 l -14.00519382827993 -19.00073520341678" fill="#ffcb12" stroke="none" /><path d="M 112.45986205192187 116.90419585922612 l 13.867135995505727 18.813433238484073 a44.37183627652624,44.37183627652624 0 0,0 -0.6170199427296624,0.4466748553151316 l -13.542135042402096 -19.04870886517228" fill="#ffc812" stroke="none" /><line stroke="#e1ed5e" stroke-width="0.3" x1="143.1302829299769" x2="145.66735839644613" y1="173.24464959558577" y2="177.55315839532614" /><path d="M 143.63769802327073 174.10635135553383 a86.0,86.0 0 0,1 -40.68552437913181,11.842963189579606" fill="none" id="id78" stroke="none" /><text fill="#e1ed5e" style="font-size:6.75px; font-family:Arial;" text-anchor="middle"><textPath startOffset="21.407464694133747" xlink:href="#id78">June</textPath></text><path d="M 103.94208987418118 120.62667999033965 l 4.461267981579845 23.343239232035515 a44.76572594825396,44.76572594825396 0 0,0 -0.7560403867246592,0.13777574349160915 l -4.059892861304129 -23.416383149458486" fill="#ffce13" stroke="none" /><path d="M 103.58742460773223 120.69131181640829 l 5.415175407581467 31.233292724064746 a52.69925391995829,52.69925391995829 0 0,0 -0.892681437697511,0.14689039086799383 l -4.878216466830883 -31.32164911342841" fill="#beff1f" stroke="none" /><path d="M 103.2317021107853 120.74984581791261 l 3.780215915083997 24.27169791876384 a45.56431053834769,45.56431053834769 0 0,0 -0.7738878880630374,0.11373486925221939 l -3.3630029214132744 -24.333013861314942" fill="#ffda14" stroke="none" /><line stroke="#e1ed5e" stroke-width="0.3" x1="101.45913802915013" x2="101.54496967792366" y1="184.9874750549273" y2="189.98673829345242" /><path d="M 101.47630435890484 185.9873277026323 a86.0,86.0 0 0,1 -42.54439059252881,-10.42667462771756" fill="none" id="id79" stroke="none" /><text fill="#e1ed5e" style="font-size:6.75px; font-family:Arial;" text-anchor="middle"><textPath startOffset="22.145653131862474" xlink:href="#id79">July</textPath></text><path d="M 96.41257539226777 120.69131181640829 l -4.180214904407591 24.110368719740613 a45.47006490487669,45.47006490487669 0 0,0 -0.7679358421399437,-0.1399434917267377 l 4.593485480098592 -24.03505705408251" fill="#ffd814" stroke="none" /><path d="M 95.70440661134978 120.55596938700252 l -4.867407800758901 23.29230834808992 a44.7954467678459,44.7954467678459 0 0,0 -0.7513638055224836,-0.16375624431505478 l 5.266534022900521 -23.205320645641148" fill="#ffce13" stroke="none" /><line stroke="#e1ed5e" stroke-width="0.3" x1="58.13341422392154" x2="55.67067388415222" y1="173.97424548756322" y2="178.32567169271397" /><path d="M 57.64086615596768 174.84453072859336 a86.0,86.0 0 0,1 -31.369924170532247,-30.572349798747897" fill="none" id="id80" stroke="none" /><text fill="#e1ed5e" style="font-size:6.75px; font-family:Arial;" text-anchor="middle"><textPath startOffset="22.145653131862474" xlink:href="#id80">August</textPath></text><path d="M 88.72937992617639 117.7192867562869 l -12.556667836414618 19.74116744593563 a44.396230450278054,44.396230450278054 0 0,0 -0.6395475040399029,-0.414546965324933 l 12.893700972711532 -19.522706638906804" fill="#ffc812" stroke="none" /><path d="M 83.64595745247003 113.17365903436017 l -36.366773356929684 29.29449834752961 a67.69807102898048,67.69807102898048 0 0,0 -0.7212538604759472,-0.9112806912066733 l 36.864293648047195 -28.665897712408256" fill="#35ff63" stroke="none" /><path d="M 83.4222238831116 112.89097897827486 l -49.733328350665225 38.67293693482457 a84.0,84.0 0 0,0 -0.8753920905828196,-1.1459163470365188 l 50.38987241860234 -37.813499674547174" fill="#4dd2ff" stroke="none" /><path d="M 83.20337586046588 112.60449989151573 l -19.039200761077463 14.287371196376805 a44.80378418074887,44.80378418074887 0 0,0 -0.4563542357744815,-0.6191321661967666 l 19.281657016435776 -13.958432720911158" fill="#ffce13" stroke="none" /><line stroke="#e1ed5e" stroke-width="0.3" x1="26.387840678322732" x2="22.057713659400548" y1="142.50000000000003" y2="145.00000000000006" /><path d="M 25.521815274538298 143.00000000000003 a86.0,86.0 0 0,1 -11.493303480769221,-40.785679425670985" fill="none" id="id81" stroke="none" /><text fill="#e1ed5e" style="font-size:6.75px; font-family:Arial;" text-anchor="middle"><textPath startOffset="21.40746469413373" xlink:href="#id81">September</textPath></text><path d="M 79.94057633289273 106.21446072829308 l -22.535334631671866 6.981504274078853 a44.592005190114946,44.592005190114946 0 0,0 -0.2202498512731413,-0.7331401225063802 l 22.651860802948637 -6.593626547981749" fill="#ffcb12" stroke="none" /><line stroke="#e1ed5e" stroke-width="0.3" x1="15.003131293944662" x2="10.003315487706104" y1="100.72959589197737" y2="100.7725132973878" /><path d="M 14.003168132696942 100.73817937305945 a86.0,86.0 0 0,1 10.791469493833604,-42.45332614584628" fill="none" id="id82" stroke="none" /><text fill="#e1ed5e" style="font-size:6.75px; font-family:Arial;" text-anchor="middle"><textPath startOffset="22.145653131862435" xlink:href="#id82">October</textPath></text><path d="M 79.0935383218832 98.0201363427161 l -23.143405054649804 -2.191704520782839 a44.24695176211303,44.24695176211303 0 0,0 0.07810136389527443,-0.7555598478409447 l 23.102371298272864 2.5886688909066966" fill="#ffc612" stroke="none" /><path d="M 79.34024301695615 96.23510406497455 l -22.950288029659873 -4.182306993322596 a44.328253522943896,44.328253522943896 0 0,0 0.14285034631209761,-0.7474533747155891 l 22.875111391065616 4.5756629330715" fill="#ffc712" stroke="none" /><path d="M 79.407916724674 95.88100663000787 l -22.934242178002197 -4.5874907465130885 a44.38855565503347,44.38855565503347 0 0,0 0.15587208129534125,-0.7459043353268254 l 22.85211238588249 4.9805115331253225" fill="#ffc812" stroke="none" /><path d="M 80.05021161711548 93.44210830539832 l -22.3969548167714 -7.362323908321956 a44.57599199176036,44.57599199176036 0 0,0 0.24519890109151585,-0.7248869820875878 l 22.26727049410752 7.745712564883706" fill="#ffcb12" stroke="none" /><line stroke="#e1ed5e" stroke-width="0.3" x1="26.387840678322718" x2="22.05771365940052" y1="57.49999999999999" y2="54.99999999999999" /><path d="M 25.521815274538284 56.99999999999999 a86.0,86.0 0 0,1 29.574782752854787,-30.34633250058573" fill="none" id="id83" stroke="none" /><text fill="#e1ed5e" style="font-size:6.75px; font-family:Arial;" text-anchor="middle"><textPath startOffset="21.40746469413373" xlink:href="#id83">November</textPath></text><path d="M 82.18462484594161 88.88188828441811 l -19.320534168658128 -12.057442261771532 a43.77421687914297,43.77421687914297 0 0,0 0.40331126328788164,-0.6340722941088264 l 19.110705213744357 12.387328230559032" fill="#ffbe11" stroke="none" /><path d="M 85.34317274990677 84.96080404539775 l -16.611686351001005 -17.0450536058209 a44.80088182923778,44.80088182923778 0 0,0 0.5553762951260907,-0.5320379276107416 l 16.31663757000961 17.32770366373721" fill="#ffce13" stroke="none" /><path d="M 87.25179093698888 83.31218511350988 l -14.134584568709556 -18.502624926700967 a44.28376279960304,44.28376279960304 0 0,0 0.6080519353833691,-0.4562935081423027 l 13.814879644415434 18.742537462107272" fill="#ffc612" stroke="none" /><line stroke="#e1ed5e" stroke-width="0.3" x1="56.869717070023135" x2="54.33264160355391" y1="26.7553504044142" y2="22.446841604673864" /><path d="M 56.362301976729285 25.89364864446614 a86.0,86.0 0 0,1 42.16139366436587,-11.88097634709845" fill="none" id="id84" stroke="none" /><text fill="#e1ed5e" style="font-size:6.75px; font-family:Arial;" text-anchor="middle"><textPath startOffset="22.145653131862474" xlink:href="#id84">December</textPath></text><path d="M 98.9189461498227 79.02784411241856 l -1.2279347389153983 -23.821605889555766 a44.85323313264584,44.85323313264584 0 0,0 0.7692847203878481,-0.03303639592188369 l 0.8188242579267301 23.83917485390348" fill="#ffcf13" stroke="none" /></svg>