<?xml version="1.0" encoding="utf-8" ?>
<svg baseProfile="full" height="200mm" version="1.1" viewBox="0,0,200,200" width="200mm" xmlns="http://www.w3.org/2000/svg" xmlns:ev="http://www.w3.org/2001/xml-events" xmlns:xlink="http://www.w3.org/1999/xlink"><defs /><rect fill="#1a1a1a" height="200" width="200" x="0" y="0" /><text alignment-baseline="middle" fill="#e1ed5e" style="dominant-baseline: central; font-size:9.0px; font-family:Arial;" text-anchor="middle" x="100.0" y="100.0">2023</text><line stroke="#e1ed5e" stroke-width="0.3" x1="100.0" x2="100.0" y1="15.0" y2="10.0" /><path d="M 100.0 14.0 a86.0,86.0 0 0,1 42.46469731375804,11.215312516191453" fill="none" id="id61" stroke="none" /><text fill="#e1ed5e" style="font-size:6.75px; font-family:Arial;" text-anchor="middle"><textPath startOffset="22.20632615414155" xlink:href="#id61">January</textPath></text><path d="M 100.36148047927253 79.00311137660856 l 0.837914289814392 -48.67093530081527 a69.67814749364669,69.67814749364669 0 0,0 1.1990393625317806,0.03096764922350129 l -1.6755802875410404 48.64930085944941" fill="#32ff47" stroke="none" /><path d="M 102.52436894288641 79.15227682838746 l 2.9720406962024692 -24.544859761406055 a45.72414137249206,45.72414137249206 0 0,0 0.780544344460164,0.10133705768361202 l -3.3940997691704795 24.490064380558305" fill="#ff3204" stroke="none" /><path d="M 105.01212808612495 79.60689891045804 l 7.548492573261797 -30.712936595999615 a52.626953923488756,52.626953923488756 0 0,0 0.8778454369038503,0.22378234791079002 l -8.076046898850672 30.578451251919958" fill="#ffc011" stroke="none" /><path d="M 106.0581310904928 79.89281104454417 l 6.8569843530523595 -22.758616146124467 a44.769157395764836,44.769157395764836 0 0,0 0.7359508564016262,0.22866351350918776 l -7.247720582164704 22.63721249773276" fill="#ff1d02" stroke="none" /><path d="M 106.40334571778207 80.00007090966166 l 7.553393596493548 -23.59193818034425 a45.771622916731445,45.771622916731445 0 0,0 0.7482944952931679,0.24670093012168706 l -7.958370914029133 23.458423525963326" fill="#ff3304" stroke="none" /><path d="M 106.74666289553966 80.11325718540242 l 7.707448453074974 -22.71879409365535 a44.990589128379426,44.990589128379426 0 0,0 0.7312427484433873,0.25511623660415145 l -8.097373205581635 22.582757003878992" fill="#ff2203" stroke="none" /><path d="M 107.76421540070413 80.48803036053334 l 10.927322968782486 -27.461061163784073 a50.55530861799909,50.55530861799909 0 0,0 0.8057941558276905,0.32870366844844057 l -11.398400994198564 27.268896609152055" fill="#ff970d" stroke="none" /><path d="M 108.43124777332544 80.76684994638697 l 19.92149187693109 -45.44440548563387 a70.61914780148226,70.61914780148226 0 0,0 1.109117034455534,0.4976284833746463 l -20.700791029853402 45.094756671742694" fill="#34ff58" stroke="none" /><path d="M 109.41281617654863 81.2277094730956 l 11.663952791064501 -23.261806708972138 a47.022287487416676,47.022287487416676 0 0,0 0.7204251356506096,0.36902973594432126 l -12.062638414303866 23.057584447715314" fill="#ff4e07" stroke="none" /><line stroke="#e1ed5e" stroke-width="0.3" x1="143.23703022742887" x2="145.7803849466894" y1="26.81831364943548" y2="22.513508569990506" /><path d="M 143.74570117128098 25.957352633546492 a86.0,86.0 0 0,1 28.547481713284135,27.462654790039103" fill="none" id="id62" stroke="none" /><text fill="#e1ed5e" style="font-size:6.75px; font-family:Arial;" text-anchor="middle"><textPath startOffset="19.985693538727396" xlink:href="#id62">February</textPath></text><path d="M 111.90073688211348 82.69761687909136 l 17.68443629806768 -25.71125596149894 a52.20589640273339,52.20589640273339 0 0,0 0.7360257264272024,0.5156330576677445 l -18.124393164078533 25.40303806106726" fill="#ffb811" stroke="none" /><path d="M 113.89432698308785 84.25364557470407 l 41.68298094926353 -47.23906327588782 a84.0,84.0 0 0,0 1.0759560496160399,0.9660039649228103 l -42.48994798647556 46.51456030219571" fill="#4dd2ff" stroke="none" /><path d="M 115.4437574822437 85.77008943001954 l 23.17627407599886 -21.354667594722365 a52.51446506172844,52.51446506172844 0 0,0 0.6068080431845436,0.6700525972057516 l -23.54042575979944 20.952562210247063" fill="#ffbe11" stroke="none" /><path d="M 115.68641384162765 86.03803664274999 l 23.170277602442418 -20.623105454742003 a52.01893361757709,52.01893361757709 0 0,0 0.589568068999388,0.6739782200121068 l -23.521837535019657 20.22121167852695" fill="#ffb410" stroke="none" /><path d="M 117.2510076193507 88.02491185347247 l 29.33197075345525 -20.361299643157587 a56.706400426814284,56.706400426814284 0 0,0 0.5497159888995945,0.8066403823198967 l -29.678111208023576 19.85338123756728" fill="#f1ff19" stroke="none" /><line stroke="#e1ed5e" stroke-width="0.3" x1="172.23445277983987" x2="176.4835382374775" y1="55.19839476539836" y2="52.563006222186495" /><path d="M 173.08426987136738 54.67131705675599 a86.0,86.0 0 0,1 12.851231095245387,41.99856678651699" fill="none" id="id63" stroke="none" /><text fill="#e1ed5e" style="font-size:6.75px; font-family:Arial;" text-anchor="middle"><textPath startOffset="22.20632615414155" xlink:href="#id63">March</textPath></text><path d="M 118.3937258080291 89.86733742301442 l 27.71929365575054 -15.26989433339786 a52.64694161726956,52.64694161726956 0 0,0 0.430431117933501,0.7975234903732975 l -27.978032872902507 14.790489859692103" fill="#ffc011" stroke="none" /><path d="M 118.56541770881063 90.18545643968196 l 27.845676292903875 -14.720520013590834 a52.497228412667,52.497228412667 0 0,0 0.4154544832106654,0.8025258250569222 l -28.094940209274657 14.239021466273567" fill="#ffbd11" stroke="none" /><path d="M 119.47837535516314 92.15188598940014 l 29.645594146703534 -11.944630829471578 a52.96146833240653,52.96146833240653 0 0,0 0.3334213200609622,0.8485208915532657 l -29.846809016646198 11.432560933022527" fill="#ffc712" stroke="none" /><path d="M 120.37134235888165 94.90015583598534 l 30.692573832204353 -7.683702957773527 a52.639743671348114,52.639743671348114 0 0,0 0.21248207933373484,0.8808753965607162 l -30.82028871179891 7.154242329553405" fill="#ffc011" stroke="none" /><line stroke="#e1ed5e" stroke-width="0.3" x1="184.98032266829074" x2="189.97916517819016" y1="98.17113171792111" y2="98.06355123074" /><path d="M 185.9800911702706 98.14961562048488 a86.0,86.0 0 0,1 -9.607161424134198,41.387399972396054" fill="none" id="id64" stroke="none" /><text fill="#e1ed5e" style="font-size:6.75px; font-family:Arial;" text-anchor="middle"><textPath startOffset="21.466115282336823" xlink:href="#id64">April</textPath></text><path d="M 120.99513854157772 99.54816195383933 l 30.91727270170348 -0.6653730844637938 a51.924431646402624,51.924431646402624 0 0,0 0.011539569186210782,0.8937523505234486 l -30.92414527800741 0.1330844758798825" fill="#ffb210" stroke="none" /><path d="M 120.99980553446 99.90962569577887 l 31.412332899934448 -0.13518542946198236 a52.412623789117696,52.412623789117696 0 0,0 -0.003882783852047107,0.9022222248686725 l -31.410005818792897 -0.4055462736103749" fill="#ffbc11" stroke="none" /><path d="M 120.9764740272857 100.99374915477107 l 30.955601004774763 1.466504918505875 a51.99031897613857,51.99031897613857 0 0,0 -0.05004352690614723,0.8935607902491222 l -30.925771126981086 -1.9991374250904204" fill="#ffb310" stroke="none" /><path d="M 120.8583938346157 102.4346265915055 l 23.508610494395164 2.7439643096591495 a44.66820879386249,44.66820879386249 0 0,0 -0.09571438001764183,0.7629377829591492 l -23.457894605130676 -3.1482198469056937" fill="#ff1b02" stroke="none" /><path d="M 119.79798401119884 107.00284435728193 l 28.81531891439948 10.192411174230585 a51.56481391540163,51.56481391540163 0 0,0 -0.30319064306343735,0.834250434510791 l -28.635604010330816 -10.686909405747508" fill="#ffab0f" stroke="none" /><line stroke="#e1ed5e" stroke-width="0.3" x1="174.80103733775053" x2="179.2010983576182" y1="140.37084112569926" y2="142.7455964860345" /><path d="M 175.68104954172406 140.8457921977663 a86.0,86.0 0 0,1 -30.038265399797805,32.042727171017184" fill="none" id="id65" stroke="none" /><text fill="#e1ed5e" style="font-size:6.75px; font-family:Arial;" text-anchor="middle"><textPath startOffset="22.206326154141568" xlink:href="#id65">May</textPath></text><path d="M 118.12598468904814 110.60418214915192 l 53.32230726416548 31.194965048376144 a82.77697221735203,82.77697221735203 0 0,0 -0.7300894431642913,1.2236719014096618 l -52.777436945302966 -32.10819904367191" fill="#4be3ff" stroke="none" /><path d="M 117.35343817320211 111.8261652097733 l 25.26098678832381 17.21506713188084 a51.569200020200626,51.569200020200626 0 0,0 -0.5062108624065954,0.7292345022868525 l -24.960915018755077 -17.64734289635471" fill="#ffab0f" stroke="none" /><path d="M 112.34349029814194 116.9893568818739 l 13.437721137876535 18.495436426506583 a43.86161669668793,43.86161669668793 0 0,0 -0.6146321500096351,0.43852371953614433 l -13.117361660018016 -18.724004407886948" fill="#ff0901" stroke="none" /><path d="M 112.04921762599082 117.19931262002967 l 13.156762195991954 18.78024558110227 a43.93028598967737,43.93028598967737 0 0,0 -0.6230634875511053,0.42854874813385574 l -12.831541823817965 -19.00393511860122" fill="#ff0a01" stroke="none" /><line stroke="#e1ed5e" stroke-width="0.3" x1="143.8653032363475" x2="146.44561519142675" y1="172.8068346515853" y2="177.08958963109032" /><path d="M 144.38136562736335 173.6633856474863 a86.0,86.0 0 0,1 -40.68145358897372,12.25698825130547" fill="none" id="id66" stroke="none" /><text fill="#e1ed5e" style="font-size:6.75px; font-family:Arial;" text-anchor="middle"><textPath startOffset="21.466115282336833" xlink:href="#id66">June</textPath></text><path d="M 109.89434966115114 118.52300852407294 l 11.13914062107724 20.853356081116665 a44.64197355598679,44.64197355598679 0 0,0 -0.6809157266263894,0.3562229261062521 l -10.778533991924355 -21.042008426167634" fill="#ff1a02" stroke="none" /><path d="M 103.06178313531738 120.77559828337769 l 3.9937574154504643 27.099469831020162 a48.39217704776014,48.39217704776014 0 0,0 -0.8251359529060858,0.11435632441685724 l -3.526692871357548 -27.164200720929625" fill="#ff6a09" stroke="none" /><line stroke="#e1ed5e" stroke-width="0.3" x1="102.19456741930631" x2="102.32365962044197" y1="184.97166512339345" y2="189.96999836594603" /><path d="M 102.22038585953345 185.97133177190398 a86.0,86.0 0 0,1 -42.740103519485714,-10.115201625700543" fill="none" id="id67" stroke="none" /><text fill="#e1ed5e" style="font-size:6.75px; font-family:Arial;" text-anchor="middle"><textPath startOffset="22.20632615414155" xlink:href="#id67">July</textPath></text><path d="M 95.51606077576429 120.51570834832081 l -5.5986994898977365 25.61615582205233 a47.220848099896514,47.220848099896514 0 0,0 -0.7925903563711356,-0.1803909846574087 l 6.038809995661735 -25.515988103817232" fill="#ff5207" stroke="none" /><line stroke="#e1ed5e" stroke-width="0.3" x1="58.666819895761336" x2="56.23545636021788" y1="174.27360380694188" y2="178.64263932499728" /><path d="M 58.180547188652646 175.14741091055294 a86.0,86.0 0 0,1 -31.652253787137756,-30.449443065178592" fill="none" id="id68" stroke="none" /><text fill="#e1ed5e" style="font-size:6.75px; font-family:Arial;" text-anchor="middle"><textPath startOffset="22.20632615414155" xlink:href="#id68">August</textPath></text><path d="M 84.67929136418377 114.36230785411682 l -19.96141929888756 18.712714665528782 a48.36099323086603,48.36099323086603 0 0,0 -0.5641047145140414,-0.6122242555707821 l 20.28057042139733 -18.36633915515666" fill="#ff6a09" stroke="none" /><line stroke="#e1ed5e" stroke-width="0.3" x1="26.63291911575756" x2="22.317208475507996" y1="142.92168965132927" y2="145.44649492493687" /><path d="M 25.769776987707644 143.4266507060508 a86.0,86.0 0 0,1 -11.730757126820373,-40.83630448921669" fill="none" id="id69" stroke="none" /><text fill="#e1ed5e" style="font-size:6.75px; font-family:Arial;" text-anchor="middle"><textPath startOffset="21.46611528233685" xlink:href="#id69">September</textPath></text><path d="M 80.58989483394504 108.01547362559985 l -22.84454563180163 9.433738325166154 a45.71575780572337,45.71575780572337 0 0,0 -0.2940990174664593,-0.7299296424668691 l 23.00354726352548 -9.03910931485648" fill="#ff3104" stroke="none" /><path d="M 80.45479744820244 107.68017299344265 l -23.441431957697496 9.21117354358521 a46.1862353335588,46.1862353335588 0 0,0 -0.2843878301271212,-0.7424468850146264 l 23.596514067418127 -8.806303091737425" fill="#ff3c05" stroke="none" /><path d="M 79.76711848015287 105.62410040840567 l -27.946392593538558 7.768212246219542 a50.00596456755924,50.00596456755924 0 0,0 -0.2233883681175132,-0.8313112202779843 l 28.075969037997847 -7.286010092766018" fill="#ff8c0c" stroke="none" /><path d="M 79.67330655649465 105.27499134158121 l -27.412946774001014 7.1139488221230875 a49.32098018568565,49.32098018568565 0 0,0 -0.20618209658003825,-0.8235949849882291 l 27.53134018487611 -6.641025997737466" fill="#ff7e0b" stroke="none" /><line stroke="#e1ed5e" stroke-width="0.3" x1="15.007084014347285" x2="10.007500721073583" y1="101.09737516637583" y2="101.16192664675087" /><path d="M 14.007167355692545 101.11028546245083 a86.0,86.0 0 0,1 10.666146001902534,-42.60595125391555" fill="none" id="id70" stroke="none" /><text fill="#e1ed5e" style="font-size:6.75px; font-family:Arial;" text-anchor="middle"><textPath startOffset="22.20632615414155" xlink:href="#id70">October</textPath></text><path d="M 79.03285615573316 98.82574320788736 l -24.301219051323834 -1.3609803862454501 a45.339299804886934,45.339299804886934 0 0,0 0.05034693693922325,-0.7788448303680072 l 24.274191523380196 1.779084280866469" fill="#ff2904" stroke="none" /><path d="M 79.05617556472873 98.46500227214037 l -26.212072023463364 -1.9211138406388282 a47.282378091640126,47.282378091640126 0 0,0 0.06647793425701796,-0.8111991803684657 l 26.17511960538685 2.3720269382150723" fill="#ff5307" stroke="none" /><path d="M 80.2630227832202 92.82701384747504 l -25.255495164162735 -9.17857456579955 a47.87166290066526,47.87166290066526 0 0,0 0.2881313586400454,-0.7720487912564842 l 25.09375921702106 9.611946494085375" fill="#ff5f08" stroke="none" /><path d="M 81.10775173730289 90.83032412892265 l -34.40305273367505 -16.69811015379621 a59.24129861948125,59.24129861948125 0 0,0 0.45316768775507016,-0.9135584058470815 l 34.110525032966564 17.287828148142253" fill="#c3ff1e" stroke="none" /><path d="M 81.26839172434947 90.50648371742162 l -20.042719361375077 -10.158010983589993 a43.469886215590286,43.469886215590286 0 0,0 0.3440135728873474,-0.6645247254973293 l 19.864896355327616 10.501508431347657" fill="#ff0000" stroke="none" /><line stroke="#e1ed5e" stroke-width="0.3" x1="26.266209847984243" x2="21.928928074336255" y1="57.711370442889674" y2="55.22380399835377" /><path d="M 25.398753493254645 57.213857153982495 a86.0,86.0 0 0,1 29.58750427330803,-30.492523968695096" fill="none" id="id71" stroke="none" /><text fill="#e1ed5e" style="font-size:6.75px; font-family:Arial;" text-anchor="middle"><textPath startOffset="21.46611528233685" xlink:href="#id71">November</textPath></text><path d="M 83.6137871275137 86.86637796730984 l -43.977452982710695 -35.248122914668784 a77.35997285178665,77.35997285178665 0 0,0 0.8417557356934564,-1.0318930016416397 l 43.36419875494085 35.999900085918505" fill="#40ffca" stroke="none" /><path d="M 83.84228863543731 86.58626213691792 l -26.203873877913058 -21.753816940095028 a55.056887081363435,55.056887081363435 0 0,0 0.6116279719295216,-0.7239746013713743 l 25.82553529249641 22.201650491095517" fill="#ffef16" stroke="none" /><path d="M 85.57189188830299 84.74124197986013 l -34.397124621831736 -36.37742364625187 a71.06474940902739,71.06474940902739 0 0,0 0.8960659706478386,-0.8327956629198117 l 33.76585076738904 36.964123895246324" fill="#34ff60" stroke="none" /><path d="M 87.80319425747018 82.90503203632743 l -22.78944944428374 -31.94155227063242 a60.238014315598434,60.238014315598434 0 0,0 0.8492666786743994,-0.5949655814694156 l 22.23625162602568 32.32910269486578" fill="#b2ff20" stroke="none" /><line stroke="#e1ed5e" stroke-width="0.3" x1="56.762969772571076" x2="54.21961505331055" y1="26.818313649435495" y2="22.513508569990535" /><path d="M 56.25429882871897 25.957352633546506 a86.0,86.0 0 0,1 42.265352541879196,-11.944610805530505" fill="none" id="id72" stroke="none" /><text fill="#e1ed5e" style="font-size:6.75px; font-family:Arial;" text-anchor="middle"><textPath startOffset="22.20632615414155" xlink:href="#id72">December</textPath></text><path d="M 89.63071344664047 81.73862282372117 l -16.15771312569968 -28.455390076853107 a53.72278896851975,53.72278896851975 0 0,0 0.8080826144295923,-0.4496971000375879 l 15.66550642219804 28.729302574450877" fill="#ffd513" stroke="none" /><path d="M 91.90106846888425 80.62456947434976 l -9.397871054359166 -22.48294074387241 a45.36806526679621,45.36806526679621 0 0,0 0.7231153928744679,-0.29497692509971407 l 9.009471791896319 22.641378555155697" fill="#ff2a04" stroke="none" /><path d="M 92.23578459929587 80.48803036053334 l -11.572322117583148 -29.081985257123755 a52.29984833331733,52.29984833331733 0 0,0 0.839329969347217,-0.32564698833327727 l 11.070008983236255 29.276874949347583" fill="#ffba11" stroke="none" /><path d="M 94.28887869178378 79.79150937346287 l -6.867354931327073 -24.299760111761984 a46.25151292976326,46.25151292976326 0 0,0 0.7680000088192732,-0.20992341377871596 l 6.448057033284077 24.414370066366995" fill="#ff3d05" stroke="none" /><path d="M 98.91598698831166 79.02799685794201 l -2.5744014625577116 -49.80600323015465 a70.87249242470838,70.87249242470838 0 0,0 1.2188690652667435,-0.05248706590957928 l 1.716691564901644 49.84293802258842" fill="#34ff5c" stroke="none" /></svg>