<?xml version="1.0" encoding="utf-8" ?>
<svg baseProfile="full" height="200mm" version="1.1" viewBox="0,0,200,200" width="200mm" xmlns="http://www.w3.org/2000/svg" xmlns:ev="http://www.w3.org/2001/xml-events" xmlns:xlink="http://www.w3.org/1999/xlink"><defs /><rect fill="#1a1a1a" height="200" width="200" x="0" y="0" /><text alignment-baseline="middle" fill="#e1ed5e" style="dominant-baseline: central; font-size:9.0px; font-family:Arial;" text-anchor="middle" x="100.0" y="100.0">2020</text><line stroke="#e1ed5e" stroke-width="0.3" x1="100.0" x2="100.0" y1="15.0" y2="10.0" /><path d="M 100.0 14.0 a86.0,86.0 0 0,1 42.35913384403234,11.155469271406648" fill="none" id="id25" stroke="none" /><text fill="#e1ed5e" style="font-size:6.75px; font-family:Arial;" text-anchor="middle"><textPath startOffset="22.145653131862478" xlink:href="#id25">January</textPath></text><path d="M 101.44090949804482 79.04949213459386 l 2.5429061675308215 -36.973297584708746 a58.060640928946384,58.060640928946384 0 0,0 0.9937521206231152,0.0769226990638891 l -3.17722728292917 36.9241971186498" fill="#ffe915" stroke="none" /><line stroke="#e1ed5e" stroke-width="0.3" x1="143.13028292997686" x2="145.6673583964461" y1="26.7553504044142" y2="22.446841604673864" /><path d="M 143.63769802327073 25.89364864446614 a86.0,86.0 0 0,1 29.32050498858742,28.57503671076992" fill="none" id="id26" stroke="none" /><text fill="#e1ed5e" style="font-size:6.75px; font-family:Arial;" text-anchor="middle"><textPath startOffset="20.669276256404974" xlink:href="#id26">February</textPath></text><line stroke="#e1ed5e" stroke-width="0.3" x1="172.87174338648825" x2="177.1583165268699" y1="56.24261187166439" y2="53.66864786411523" /><path d="M 173.72905801456457 55.72781907015455 a86.0,86.0 0 0,1 12.242430191666344,42.057860355516425" fill="none" id="id27" stroke="none" /><text fill="#e1ed5e" style="font-size:6.75px; font-family:Arial;" text-anchor="middle"><textPath startOffset="22.145653131862474" xlink:href="#id27">March</textPath></text><line stroke="#e1ed5e" stroke-width="0.3" x1="184.99686870605535" x2="189.99668451229388" y1="99.2704041080226" y2="99.22748670261217" /><path d="M 185.99683186730306 99.26182062694052 a86.0,86.0 0 0,1 -10.086455211305974,41.156179273409016" fill="none" id="id28" stroke="none" /><text fill="#e1ed5e" style="font-size:6.75px; font-family:Arial;" text-anchor="middle"><textPath startOffset="21.40746469413373" xlink:href="#id28">April</textPath></text><path d="M 120.05942366710727 106.21446072829308 l 25.85516933764705 8.00999755220513 a48.067505283360276,48.067505283360276 0 0,0 -0.25094736207711943,0.7860890375004287 l -25.71385725979268 -8.452655623396941" fill="#ff0000" stroke="none" /><line stroke="#e1ed5e" stroke-width="0.3" x1="174.33088141563837" x2="178.70328620479359" y1="141.23008692659167" y2="143.65538615756765" /><path d="M 175.20536237346943 141.71514677278685 a86.0,86.0 0 0,1 -30.301960400862466,31.63118572779886" fill="none" id="id29" stroke="none" /><text fill="#e1ed5e" style="font-size:6.75px; font-family:Arial;" text-anchor="middle"><textPath startOffset="22.145653131862474" xlink:href="#id29">May</textPath></text><line stroke="#e1ed5e" stroke-width="0.3" x1="143.1302829299769" x2="145.6673583964461" y1="173.24464959558577" y2="177.55315839532614" /><path d="M 143.63769802327073 174.10635135553383 a86.0,86.0 0 0,1 -40.685524379131806,11.842963189579606" fill="none" id="id30" stroke="none" /><text fill="#e1ed5e" style="font-size:6.75px; font-family:Arial;" text-anchor="middle"><textPath startOffset="21.407464694133747" xlink:href="#id30">June</textPath></text><line stroke="#e1ed5e" stroke-width="0.3" x1="101.45913802915013" x2="101.54496967792366" y1="184.9874750549273" y2="189.98673829345242" /><path d="M 101.47630435890484 185.9873277026323 a86.0,86.0 0 0,1 -42.54439059252881,-10.42667462771756" fill="none" id="id31" stroke="none" /><text fill="#e1ed5e" style="font-size:6.75px; font-family:Arial;" text-anchor="middle"><textPath startOffset="22.145653131862474" xlink:href="#id31">July</textPath></text><path d="M 94.30408787586889 120.21278271476187 l -17.08773637239334 60.63834814428561 a84.0,84.0 0 0,0 -1.3845599504735728,-0.40302522278993624 l 18.12615633524852 -60.33607922719316" fill="#4dd2ff" stroke="none" /><path d="M 91.59046798132341 119.24265499422711 l -14.619564051305668 33.45242358082505 a57.5074827464339,57.5074827464339 0 0,0 -0.9011877051124861,-0.40308979785196686 l 15.19166515927379 -33.19653003206323" fill="#ffdd14" stroke="none" /><line stroke="#e1ed5e" stroke-width="0.3" x1="58.13341422392154" x2="55.670673884152215" y1="173.97424548756322" y2="178.32567169271397" /><path d="M 57.64086615596767 174.84453072859336 a86.0,86.0 0 0,1 -31.369924170532244,-30.572349798747886" fill="none" id="id32" stroke="none" /><text fill="#e1ed5e" style="font-size:6.75px; font-family:Arial;" text-anchor="middle"><textPath startOffset="22.145653131862474" xlink:href="#id32">August</textPath></text><path d="M 89.34428304082925 118.09573695890944 l -23.079537629516043 39.194100563785646 a66.48453117485536,66.48453117485536 0 0,0 -0.9784852753230638,-0.5875522936660118 l 23.748955661396533 -38.79213426958371" fill="#6fff27" stroke="none" /><path d="M 87.2517909369889 116.68781488649013 l -27.58613598409318 36.11113753003958 a66.44237177179811,66.44237177179811 0 0,0 -0.9004208695763222,-0.7001727143294866 l 28.201966798304728 -35.632263764089295" fill="#70ff27" stroke="none" /><path d="M 85.34317274990678 115.03919595460226 l -31.45904265252686 32.27974915188641 a66.07386792723935,66.07386792723935 0 0,0 -0.8054973360780402,-0.7986127848306974 l 32.00853190873487 -31.73495635682706" fill="#77ff27" stroke="none" /><path d="M 83.8745106332314 113.45245675266167 l -31.06522415695718 25.9157148647174 a61.455808345296106,61.455808345296106 0 0,0 -0.6688533558846942,-0.8158923401449178 l 31.5055243320805 -25.37862024287399" fill="#cfff1d" stroke="none" /><path d="M 82.37810715431573 111.42229804090323 l -37.60691597516274 24.37634858123174 a65.8161410578451,65.8161410578451 0 0,0 -0.6063932809594245,-0.9533509569150445 l 38.01982694774806 -23.72718394963802" fill="#7bff26" stroke="none" /><line stroke="#e1ed5e" stroke-width="0.3" x1="26.387840678322732" x2="22.057713659400548" y1="142.50000000000003" y2="145.00000000000006" /><path d="M 25.521815274538298 143.00000000000003 a86.0,86.0 0 0,1 -11.493303480769221,-40.785679425670985" fill="none" id="id33" stroke="none" /><text fill="#e1ed5e" style="font-size:6.75px; font-family:Arial;" text-anchor="middle"><textPath startOffset="21.40746469413373" xlink:href="#id33">September</textPath></text><path d="M 80.9802524753101 108.90220220490707 l -41.249383680614564 19.306794366010493 a66.54408812043519,66.54408812043519 0 0,0 -0.47536414238663766,-1.0387564406835854 l 41.57473228785626 -18.59584894311222" fill="#6eff28" stroke="none" /><path d="M 80.16572619554312 106.89939002012753 l -43.02539685268929 14.966466460232443 a66.55414243114086,66.55414243114086 0 0,0 -0.36609398597838155,-1.0822918189067978 l 43.275976260240036 -14.225672966851482" fill="#6eff28" stroke="none" /><path d="M 79.407916724674 104.11899336999214 l -44.769198249401455 8.955093484402633 a66.65604901005563,66.65604901005563 0 0,0 -0.21480295134917754,-1.1239398085463985 l 44.916327493032796 -8.18525111082292" fill="#6cff28" stroke="none" /><line stroke="#e1ed5e" stroke-width="0.3" x1="15.003131293944662" x2="10.003315487706104" y1="100.72959589197737" y2="100.7725132973878" /><path d="M 14.003168132696942 100.73817937305945 a86.0,86.0 0 0,1 10.791469493833604,-42.453326145846276" fill="none" id="id34" stroke="none" /><text fill="#e1ed5e" style="font-size:6.75px; font-family:Arial;" text-anchor="middle"><textPath startOffset="22.145653131862435" xlink:href="#id34">October</textPath></text><path d="M 79.01933749520258 99.09900007780938 l -45.59710343819144 -1.958135813896928 a66.63912945947584,66.63912945947584 0 0,0 0.05889125346503383,-1.1424745842967716 l 45.55677059526984 2.740582191570412" fill="#6cff28" stroke="none" /><path d="M 79.03789590574601 98.7389718711861 l -45.603791906126546 -2.743410876867336 a66.68623577683553,66.68623577683553 0 0,0 0.07855015799673898,-1.1421020578825731 l 45.54997778696474 3.5258563589042335" fill="#6cff28" stroke="none" /><path d="M 79.2786578344484 96.59031103205396 l -44.93370687025983 -7.393824366220419 a66.53796934274683,66.53796934274683 0 0,0 0.1951310945556753,-1.125464299326652 l 44.80016095821192 8.164081698467664" fill="#6eff28" stroke="none" /><path d="M 80.5471966667186 92.08871423366112 l -42.38833162018797 -17.23896545193094 a66.75972669712851,66.75972669712851 0 0,0 0.44084993898570496,-1.057879367780501 l 42.08615583666579 17.964077329152705" fill="#6aff28" stroke="none" /><path d="M 80.68587082218212 91.75594674310238 l -42.04601048809438 -17.946941667037557 a66.7160771847825,66.7160771847825 0 0,0 0.45864481286775044,-1.0494690880902173 l 41.731731793209654 18.666072824903644" fill="#6bff28" stroke="none" /><path d="M 81.63589988554816 89.8137432299009 l -39.997755027037904 -22.186080471882242 a66.73885190850083,66.73885190850083 0 0,0 0.564313969320461,-0.9970887122690699 l 39.61100769269608 22.869425954250417" fill="#6bff28" stroke="none" /><line stroke="#e1ed5e" stroke-width="0.3" x1="26.387840678322718" x2="22.05771365940052" y1="57.5" y2="55.0" /><path d="M 25.521815274538284 57.0 a86.0,86.0 0 0,1 29.574782752854787,-30.346332500585742" fill="none" id="id35" stroke="none" /><text fill="#e1ed5e" style="font-size:6.75px; font-family:Arial;" text-anchor="middle"><textPath startOffset="21.40746469413373" xlink:href="#id35">November</textPath></text><path d="M 81.81346652052679 89.5 l -39.62047978639984 -22.874894670100076 a66.74978934020015,66.74978934020015 0 0,0 0.5814424435057912,-0.9874163845325383 l 39.22196363276427 23.551662222926186" fill="#6aff28" stroke="none" /><path d="M 82.98947788004972 87.6856937992154 l -37.22731648121065 -26.9497062436131 a66.95823929405104,66.95823929405104 0 0,0 0.6820110551057574,-0.9252789802666328 l 36.759203406521074 27.584791533148596" fill="#67ff28" stroke="none" /><path d="M 86.40962598614128 83.9905735841838 l -29.586007725959107 -34.852242708221596 a66.71663455410183,66.71663455410183 0 0,0 0.8794703229959918,-0.7336854228892075 l 28.983363068801207 35.35499031502268" fill="#6bff28" stroke="none" /><path d="M 88.72937992617638 82.28071324371311 l -24.553131685597346 -38.6016011765336 a66.74865996903564,66.74865996903564 0 0,0 0.9721016463690565,-0.6066633236612025 l 23.886865910438594 39.01740029703633" fill="#6aff28" stroke="none" /><line stroke="#e1ed5e" stroke-width="0.3" x1="56.869717070023135" x2="54.33264160355391" y1="26.7553504044142" y2="22.446841604673864" /><path d="M 56.362301976729285 25.89364864446614 a86.0,86.0 0 0,1 42.16139366436587,-11.88097634709845" fill="none" id="id36" stroke="none" /><text fill="#e1ed5e" style="font-size:6.75px; font-family:Arial;" text-anchor="middle"><textPath startOffset="22.145653131862474" xlink:href="#id36">December</textPath></text><path d="M 90.93487009805054 81.0573650232925 l -23.64221955812028 -49.403145897814206 a75.76883575752804,75.76883575752804 0 0,0 1.1780657148403697,-0.5513942385703826 l 22.790665129408385 49.80171636795514" fill="#3bff9f" stroke="none" /><path d="M 95.00130118170881 79.60360301121753 l -10.8983715247596 -44.469074899421244 a66.7850753445053,66.7850753445053 0 0,0 1.1158445499259373,-0.2633362754953324 l 10.133394821093757 44.64960731856281" fill="#6aff28" stroke="none" /></svg>