<?xml version="1.0" encoding="utf-8" ?>
<svg baseProfile="full" height="200mm" version="1.1" viewBox="0,0,200,200" width="200mm" xmlns="http://www.w3.org/2000/svg" xmlns:ev="http://www.w3.org/2001/xml-events" xmlns:xlink="http://www.w3.org/1999/xlink"><defs /><rect fill="#1a1a1a" height="200" width="200" x="0" y="0" /><text alignment-baseline="middle" fill="#e1ed5e" style="dominant-baseline: central; font-size:9.0px; font-family:Arial;" text-anchor="middle" x="100.0" y="100.0">2024</text><line stroke="#e1ed5e" stroke-width="0.3" x1="100.0" x2="100.0" y1="15.0" y2="10.0" /><path d="M 100.0 14.0 a86.0,86.0 0 0,1 42.35913384403234,11.155469271406648" fill="none" id="id73" stroke="none" /><text fill="#e1ed5e" style="font-size:6.75px; font-family:Arial;" text-anchor="middle"><textPath startOffset="22.145653131862478" xlink:href="#id73">January</textPath></text><path d="M 100.0 79.0 l 0.0 -62.6888888888889 a83.6888888888889,83.6888888888889 0 0,0 1.4366310634717325,0.012331749841525795 l -1.0761381386228777 62.6796515372418" fill="#4cddff" stroke="none" /><path d="M 103.94208987418118 79.37332000966035 l 9.55971394821802 -50.02046292768442 a71.92577777777778,71.92577777777778 0 0,0 1.2107626297792307,0.24218643534094214 l -10.416973063528209 49.84898709568062" fill="#ffd013" stroke="none" /><path d="M 106.72888874123014 80.10723608172694 l 15.20230419314956 -44.9429110746169 a68.44444444444444,68.44444444444444 0 0,0 1.1097589651866069,0.38603177533200145 l -15.971568930381185 44.675320866716305" fill="#ff1a02" stroke="none" /><path d="M 107.06938296918511 80.22567764915836 l 20.893954108924895 -58.444108281376415 a83.06666666666666,83.06666666666666 0 0,0 1.3386029112347957,0.4915535305877223 l -21.894146171813816 58.07682390177997" fill="#49f3ff" stroke="none" /><line stroke="#e1ed5e" stroke-width="0.3" x1="143.13028292997686" x2="145.6673583964461" y1="26.7553504044142" y2="22.446841604673864" /><path d="M 143.63769802327073 25.89364864446614 a86.0,86.0 0 0,1 29.32050498858742,28.57503671076993" fill="none" id="id74" stroke="none" /><text fill="#e1ed5e" style="font-size:6.75px; font-family:Arial;" text-anchor="middle"><textPath startOffset="20.669276256404974" xlink:href="#id74">February</textPath></text><path d="M 111.27062007382361 82.28071324371311 l 26.298113505588418 -41.3450024313361 a70.0,70.0 0 0,0 1.0083812258099756,0.6536205276536844 l -27.0039803636554 40.88746806197852" fill="#ff6e0a" stroke="none" /><path d="M 114.39649973595853 84.71141617570332 l 32.52542532938778 -34.54087456600361 a68.44444444444444,68.44444444444444 0 0,0 0.8484748608834273,0.8128197234484794 l -33.11357267613652 33.97744271224955" fill="#ff1a02" stroke="none" /><path d="M 114.91283532996326 85.21462403516908 l 37.06226208559978 -36.74549251822534 a73.19044444444444,73.19044444444444 0 0,0 0.8769372310409743,0.8998148530015312 l -37.68758611779156 36.10385497315607" fill="#f2ff19" stroke="none" /><path d="M 115.41159269507618 85.73525988315684 l 35.38958322573049 -32.75606989793614 a69.22222222222223,69.22222222222223 0 0,0 0.7996890601878853,0.8789983620506376 l -35.946669986760256 32.14373396032783" fill="#ff4506" stroke="none" /><line stroke="#e1ed5e" stroke-width="0.3" x1="172.87174338648825" x2="177.1583165268699" y1="56.24261187166439" y2="53.66864786411523" /><path d="M 173.72905801456457 55.72781907015455 a86.0,86.0 0 0,1 12.242430191666344,42.057860355516425" fill="none" id="id75" stroke="none" /><text fill="#e1ed5e" style="font-size:6.75px; font-family:Arial;" text-anchor="middle"><textPath startOffset="22.145653131862474" xlink:href="#id75">March</textPath></text><path d="M 119.31412917781788 91.75594674310238 l 43.63562517951446 -18.625453654472377 a68.44444444444444,68.44444444444444 0 0,0 0.4519750252144251,1.0845755247839834 l -43.948926049265374 17.873645620247114" fill="#ff1a02" stroke="none" /><path d="M 120.77682067341334 96.94652285012252 l 46.94022448437829 -6.898596523797281 a68.44444444444444,68.44444444444444 0 0,0 0.16086231641264062,1.1639195880886097 l -47.051731317346146 6.091788627508586" fill="#ff1a02" stroke="none" /><path d="M 120.96210409425399 98.7389718711861 l 48.17091520859569 -2.8978426400143684 a69.25800000000001,69.25800000000001 0 0,0 0.06120563797222334,1.1873730254435424 l -48.21356243602449 2.0704978211940954" fill="#ff4706" stroke="none" /><path d="M 120.98066250479742 99.09900007780936 l 47.556168344207485 -2.042266490298788 a68.6,68.6 0 0,0 0.04042602247696276,1.176959535757208 l -47.584219053681295 1.2256006899774599" fill="#ff2303" stroke="none" /><path d="M 120.99303781780057 99.45929381324524 l 47.584219053681295 -1.2256006899774599 a68.6,68.6 0 0,0 0.020215990111024304,1.1774800745010499 l -47.59824647539099 0.40857369950734373" fill="#ff2303" stroke="none" /><line stroke="#e1ed5e" stroke-width="0.3" x1="184.99686870605535" x2="189.99668451229388" y1="99.2704041080226" y2="99.22748670261217" /><path d="M 185.99683186730306 99.26182062694052 a86.0,86.0 0 0,1 -10.086455211305974,41.156179273409016" fill="none" id="id76" stroke="none" /><text fill="#e1ed5e" style="font-size:6.75px; font-family:Arial;" text-anchor="middle"><textPath startOffset="21.40746469413373" xlink:href="#id76">April</textPath></text><path d="M 120.592083275326 104.11899336999214 l 48.431054524064876 9.6875672956015 a70.39044444444444,70.39044444444444 0 0,0 -0.24717869092493946,1.1828395157691816 l -48.25761812231558 -10.517523262656091" fill="#ff830c" stroke="none" /><path d="M 120.51834098615036 104.47187691870673 l 46.81221499062454 10.202504377493861 a68.91111111111111,68.91111111111111 0 0,0 -0.26182658022188754,1.1536562227038185 l -46.63017754884499 -11.004594934136698" fill="#ff3404" stroke="none" /><path d="M 119.0197475246899 108.90220220490707 l 42.82965368522763 20.046440520679635 a68.28888888888889,68.28888888888889 0 0,0 -0.5060555981896195,1.0574615673586634 l -42.4792188290781 -20.7787145901034" fill="#ff1201" stroke="none" /><line stroke="#e1ed5e" stroke-width="0.3" x1="174.33088141563837" x2="178.70328620479359" y1="141.23008692659167" y2="143.65538615756765" /><path d="M 175.20536237346943 141.71514677278685 a86.0,86.0 0 0,1 -30.301960400862466,31.631185727798858" fill="none" id="id77" stroke="none" /><text fill="#e1ed5e" style="font-size:6.75px; font-family:Arial;" text-anchor="middle"><textPath startOffset="22.145653131862474" xlink:href="#id77">May</textPath></text><path d="M 117.62189284568427 111.42229804090321 l 42.4465712263675 27.513354644006732 a71.58355555555556,71.58355555555556 0 0,0 -0.6772334792404444,1.0254178043402289 l -41.96801330820633 -28.23795232668602" fill="#ffbf11" stroke="none" /><path d="M 116.1254893667686 113.45245675266167 l 36.431661161958694 30.39258747823564 a68.44444444444444,68.44444444444444 0 0,0 -0.7604029041249601,0.8957527090532967 l -35.90456369432662 -31.013506969738494" fill="#ff1a02" stroke="none" /><path d="M 112.7482090630111 116.68781488649013 l 28.801509364580642 37.70210029910733 a68.44444444444444,68.44444444444444 0 0,0 -0.939797665772317,0.7052416889172848 l -28.15005870989756 -38.19096101528862" fill="#ff1a02" stroke="none" /><path d="M 112.45986205192187 116.90419585922612 l 27.873172886521516 37.815312218416935 a67.97777777777777,67.97777777777777 0 0,0 -0.9452762849376002,0.6843071326664099 l -27.21991559120995 -38.288220122456416" fill="#ff0000" stroke="none" /><line stroke="#e1ed5e" stroke-width="0.3" x1="143.1302829299769" x2="145.66735839644613" y1="173.24464959558577" y2="177.55315839532614" /><path d="M 143.63769802327073 174.10635135553383 a86.0,86.0 0 0,1 -40.68552437913181,11.842963189579606" fill="none" id="id78" stroke="none" /><text fill="#e1ed5e" style="font-size:6.75px; font-family:Arial;" text-anchor="middle"><textPath startOffset="21.407464694133747" xlink:href="#id78">June</textPath></text><path d="M 103.94208987418118 120.62667999033965 l 9.052206377749368 47.36496886670587 a69.22222222222223,69.22222222222223 0 0,0 -1.1690818042205895,0.21304564889291253 l -8.23778983997772 -47.513382689530154" fill="#ff4506" stroke="none" /><path d="M 103.58742460773223 120.69131181640829 l 10.762273823196699 62.07393544922487 a84.0,84.0 0 0,0 -1.4228899877877108,0.2341360060173172 l -9.695106332355914 -62.24953745373786" fill="#4dd2ff" stroke="none" /><path d="M 103.2317021107853 120.74984581791261 l 7.856387523989845 50.44364369615364 a72.05177777777777,72.05177777777777 0 0,0 -1.2237647728413048,0.17985127895326408 l -6.989297645540855 -50.571076048405786" fill="#ffd614" stroke="none" /><line stroke="#e1ed5e" stroke-width="0.3" x1="101.45913802915013" x2="101.54496967792366" y1="184.9874750549273" y2="189.98673829345242" /><path d="M 101.47630435890484 185.9873277026323 a86.0,86.0 0 0,1 -42.54439059252881,-10.42667462771756" fill="none" id="id79" stroke="none" /><text fill="#e1ed5e" style="font-size:6.75px; font-family:Arial;" text-anchor="middle"><textPath startOffset="22.145653131862474" xlink:href="#id79">July</textPath></text><path d="M 96.41257539226777 120.69131181640829 l -8.530098511718853 49.19934143012638 a70.93333333333334,70.93333333333334 0 0,0 -1.1979804555608737,-0.21831194583183056 l 9.373413700830783 -49.04566131036318" fill="#ff9f0e" stroke="none" /><path d="M 95.70440661134978 120.55596938700252 l -9.704859137320849 46.441264170635314 a68.44444444444444,68.44444444444444 0 0,0 -1.148033605093185,-0.2502085808975092 l 10.50065515903317 -46.26782413160409" fill="#ff1a02" stroke="none" /><line stroke="#e1ed5e" stroke-width="0.3" x1="58.13341422392154" x2="55.67067388415222" y1="173.97424548756322" y2="178.32567169271397" /><path d="M 57.64086615596768 174.84453072859336 a86.0,86.0 0 0,1 -31.369924170532247,-30.572349798747897" fill="none" id="id80" stroke="none" /><text fill="#e1ed5e" style="font-size:6.75px; font-family:Arial;" text-anchor="middle"><textPath startOffset="22.145653131862474" xlink:href="#id80">August</textPath></text><path d="M 88.72937992617639 117.7192867562869 l -25.546738834000177 40.163716647583634 a68.6,68.6 0 0,0 -0.9882136012937683,-0.6405481171006107 l 26.232438067550955 -39.71925468877913" fill="#ff2303" stroke="none" /><path d="M 83.64595745247003 113.17365903436017 l -36.7057399400117 29.567545832675055 a68.13333333333333,68.13333333333333 0 0,0 -0.725891136140711,-0.9171397375212585 l 37.20789750679398 -28.933086151239117" fill="#ff0901" stroke="none" /><path d="M 83.4222238831116 112.89097897827486 l -49.733328350665225 38.67293693482457 a84.0,84.0 0 0,0 -0.8753920905828196,-1.1459163470365188 l 50.38987241860234 -37.813499674547174" fill="#4dd2ff" stroke="none" /><path d="M 83.20337586046588 112.60449989151573 l -39.50814836494564 29.647651078162244 a70.3951111111111,70.3951111111111 0 0,0 -0.7170177189446917,-0.9727722429886014 l 40.011268103474166 -28.965072525904766" fill="#ff830c" stroke="none" /><line stroke="#e1ed5e" stroke-width="0.3" x1="26.387840678322732" x2="22.057713659400548" y1="142.50000000000003" y2="145.00000000000006" /><path d="M 25.521815274538298 143.00000000000003 a86.0,86.0 0 0,1 -11.493303480769221,-40.785679425670985" fill="none" id="id81" stroke="none" /><text fill="#e1ed5e" style="font-size:6.75px; font-family:Arial;" text-anchor="middle"><textPath startOffset="21.40746469413373" xlink:href="#id81">September</textPath></text><path d="M 79.94057633289273 106.21446072829308 l -45.46802697877646 14.086110984130986 a68.6,68.6 0 0,0 -0.33883068798814303,-1.1278571616036366 l 45.703133986768236 -13.303516218936625" fill="#ff2303" stroke="none" /><line stroke="#e1ed5e" stroke-width="0.3" x1="15.003131293944662" x2="10.003315487706104" y1="100.72959589197737" y2="100.7725132973878" /><path d="M 14.003168132696942 100.73817937305945 a86.0,86.0 0 0,1 10.791469493833604,-42.45332614584628" fill="none" id="id82" stroke="none" /><text fill="#e1ed5e" style="font-size:6.75px; font-family:Arial;" text-anchor="middle"><textPath startOffset="22.145653131862435" xlink:href="#id82">October</textPath></text><path d="M 79.0935383218832 98.0201363427161 l -47.0782544455371 -4.458359643068942 a68.28888888888889,68.28888888888889 0 0,0 0.12053836815221941,-1.1660993682800096 l 46.99478368490321 5.265863533631864" fill="#ff1201" stroke="none" /><path d="M 79.34024301695615 96.23510406497455 l -47.4592876709745 -8.64866316570438 a69.24088888888889,69.24088888888889 0 0,0 0.22313274651381687,-1.1675248166842298 l 47.303828632178515 9.462090547421926" fill="#ff4606" stroke="none" /><path d="M 79.407916724674 95.88100663000787 l -46.522854807218 -9.305873909982223 a68.44444444444444,68.44444444444444 0 0,0 0.24034523879465633,-1.1501389735882963 l 46.356251857598984 10.103129334855929" fill="#ff1a02" stroke="none" /><path d="M 80.05021161711548 93.44210830539832 l -46.10617759599979 -15.156016360857224 a69.53333333333333,69.53333333333333 0 0,0 0.3824816041270582,-1.1307389000744426 l 45.83921057030037 15.94525693540583" fill="#ff5607" stroke="none" /><line stroke="#e1ed5e" stroke-width="0.3" x1="26.387840678322718" x2="22.05771365940052" y1="57.49999999999999" y2="54.99999999999999" /><path d="M 25.521815274538284 56.99999999999999 a86.0,86.0 0 0,1 29.574782752854787,-30.34633250058573" fill="none" id="id83" stroke="none" /><text fill="#e1ed5e" style="font-size:6.75px; font-family:Arial;" text-anchor="middle"><textPath startOffset="21.40746469413373" xlink:href="#id83">November</textPath></text><path d="M 82.18462484594161 88.88188828441811 l -40.11758553210184 -25.036340455828842 a68.28888888888889,68.28888888888889 0 0,0 0.6291758027869209,-0.9891688653041705 l 39.68189203768903 25.721322995811686" fill="#ff1201" stroke="none" /><path d="M 85.34317274990677 84.96080404539775 l -33.22214176687798 -34.08884416376509 a68.6,68.6 0 0,0 0.8504032128400185,-0.8146670410018095 l 32.63206606817266 34.65412333507246" fill="#ff2303" stroke="none" /><path d="M 87.25179093698888 83.31218511350988 l -28.895940542825205 -37.825713742710924 a68.6,68.6 0 0,0 0.941933569558209,-0.706844510937597 l 28.242353984356242 38.31617728091252" fill="#ff2303" stroke="none" /><line stroke="#e1ed5e" stroke-width="0.3" x1="56.869717070023135" x2="54.33264160355391" y1="26.7553504044142" y2="22.446841604673864" /><path d="M 56.362301976729285 25.89364864446614 a86.0,86.0 0 0,1 42.16139366436587,-11.88097634709845" fill="none" id="id84" stroke="none" /><text fill="#e1ed5e" style="font-size:6.75px; font-family:Arial;" text-anchor="middle"><textPath startOffset="22.145653131862474" xlink:href="#id84">December</textPath></text><path d="M 98.9189461498227 79.02784411241856 l -2.5516073986703165 -49.500501866807035 a70.56622222222222,70.56622222222222 0 0,0 1.2102921626743999,-0.05197515303190458 l 1.7014894753950967 49.537009588264766" fill="#ff8c0c" stroke="none" /></svg>