<?xml version="1.0" encoding="utf-8" ?>
<svg baseProfile="full" height="200mm" version="1.1" viewBox="0,0,200,200" width="200mm" xmlns="http://www.w3.org/2000/svg" xmlns:ev="http://www.w3.org/2001/xml-events" xmlns:xlink="http://www.w3.org/1999/xlink"><defs /><rect fill="#1a1a1a" height="200" width="200" x="0" y="0" /><text alignment-baseline="middle" fill="#e1ed5e" style="dominant-baseline: central; font-size:9.0px; font-family:Arial;" text-anchor="middle" x="100.0" y="100.0">2022</text><line stroke="#e1ed5e" stroke-width="0.3" x1="100.0" x2="100.0" y1="15.0" y2="10.0" /><path d="M 100.0 14.0 a86.0,86.0 0 0,1 42.46469731375804,11.215312516191453" fill="none" id="id13" stroke="none" /><text fill="#e1ed5e" style="font-size:6.75px; font-family:Arial;" text-anchor="middle"><textPath startOffset="22.20632615414155" xlink:href="#id13">January</textPath></text><path d="M 100.0 79.0 l 0.0 -36.65396389797822 a57.65396389797822,57.65396389797822 0 0,0 0.9924182143715341,0.00854205688870795 l -0.6309377350990057 36.64853321769807" fill="#ff1101" stroke="none" /><path d="M 100.72285384407766 79.0124445844662 l 1.5300494618591005 -44.42391519719933 a65.45025638625376,65.45025638625376 0 0,0 1.1256171483982973,0.04847144220859935 l -2.2945074426467293 44.39099602846654" fill="#feff18" stroke="none" /><path d="M 101.08401301168833 79.027996857942 l 1.9250020051265433 -37.24230951536692 a58.29202663785022,58.29202663785022 0 0,0 1.001617879094697,0.060420325766772594 l -2.5657819330608524 37.203655920219845" fill="#ff2603" stroke="none" /><path d="M 101.44485096284872 79.0497635885617 l 2.574272373025481 -37.32676669708875 a58.415429842638666,58.415429842638666 0 0,0 1.0025473337096593,0.077816968285522 l -3.2164098960974816 37.276924466614766" fill="#ff2a04" stroke="none" /><path d="M 101.80526077348638 79.07773832637324 l 4.927569865181162 -57.108594862611454 a78.32078638642471,78.32078638642471 0 0,0 1.3421753831907965,0.12745572513805273 l -5.909870375462203 57.01531359295822" fill="#3dffaa" stroke="none" /><path d="M 102.16513564639614 79.11191278185805 l 6.256684282946309 -60.3611913258618 a81.6845904368956,81.6845904368956 0 0,0 1.3973249854811418,0.15700574329189376 l -7.294775971937176 60.2445496290993" fill="#46fffa" stroke="none" /><path d="M 102.88285421437855 79.19881850522331 l 8.393703031931866 -60.564609653044585 a82.14348855776814,82.14348855776814 0 0,0 1.3989075982886507,0.20616261605974828 l -9.43497961064917 60.411152552823864" fill="#48faff" stroke="none" /><path d="M 103.2404852339499 79.25152402106235 l 9.336583890558579 -59.78113541423582 a81.50583401756097,81.50583401756097 0 0,0 1.3843214534931687,0.22842490115029185 l -10.364234550190623 59.6115642501459" fill="#46fff6" stroke="none" /><path d="M 103.95276090670814 79.375362276772 l 11.540626306508713 -60.21645181396058 a82.31237334021182,82.31237334021182 0 0,0 1.3892509537263689,0.2786706719230917 l -12.575443669702207 60.00887718596028" fill="#48f6ff" stroke="none" /><path d="M 104.307194497241 79.44645832069477 l 11.41063503448071 -54.45051597246617 a76.63327494906184,76.63327494906184 0 0,0 1.2887427914383034,0.2816692582274018 l -12.346220550072541 54.2460332161429" fill="#38ff80" stroke="none" /><path d="M 105.01212808612495 79.60689891045804 l 15.036384258374856 -61.17930326862588 a84.0,84.0 0 0,0 1.4011644452598997,0.3571880153245286 l -16.08725759231978 60.91141225713248" fill="#4dd2ff" stroke="none" /><path d="M 105.36241919743992 79.69619591428918 l 12.959342292166182 -49.06814206271432 a71.75063662785169,71.75063662785169 0 0,0 1.1914094496035434,0.32565720832934203 l -13.802049630993436 48.837798313558686" fill="#5bff2a" stroke="none" /><path d="M 105.71112130821622 79.79150937346287 l 15.736537120298465 -55.682876571401565 a78.8638172246221,78.8638172246221 0 0,0 1.3031674306959786,0.3804303082240073 l -16.69269476871787 55.40374793425885" fill="#3effb8" stroke="none" /><path d="M 106.0581310904928 79.89281104454417 l 17.798900930705432 -59.075292176290795 a82.6983874996356,82.6983874996356 0 0,0 1.3594615722910144,0.4223913280306648 l -18.813147875707163 58.76016071337761" fill="#49eeff" stroke="none" /><path d="M 107.08798089147638 80.2323363322302 l 12.417800047231331 -34.63199161872385 a57.79098532918597,57.79098532918597 0 0,0 0.9335106492703629,0.34381985034672025 l -13.012093022274271 34.41310850057081" fill="#ff1602" stroke="none" /><path d="M 107.4271985657038 80.35727306442388 l 13.406672701054053 -35.45665416802989 a58.90663791085223,58.90663791085223 0 0,0 0.9453585080583832,0.3667844141010308 l -14.015014374112102 35.22062705003832" fill="#ff3b05" stroke="none" /><path d="M 108.09893153111575 80.62456947434976 l 15.262265265124975 -36.51258924369928 a60.57405607594633,60.57405607594633 0 0,0 0.9585591757408194,0.4104050138901915 l -15.88850819865611 36.2444647018463" fill="#ff700a" stroke="none" /><path d="M 108.76106565485865 80.91482961587045 l 15.077259462632997 -32.84441380832489 a57.139718749819274,57.139718749819274 0 0,0 0.8903505226263696,0.41803150867018257 l -15.640388196558964 32.5800173170147" fill="#ff0000" stroke="none" /><path d="M 109.08828744355905 81.06846463323043 l 16.56180498311399 -34.49939262182686 a59.268805515375846,59.268805515375846 0 0,0 0.9159252552242882,0.4494405449188483 l -17.15320150534871 34.20919691677317" fill="#ff4606" stroke="none" /><path d="M 109.41281617654863 81.2277094730956 l 17.093681560970168 -34.09049432372744 a59.13601647450798,59.13601647450798 0 0,0 0.9060187193548341,0.464097978011525 l -17.677960767913756 33.79120382040341" fill="#ff4206" stroke="none" /><line stroke="#e1ed5e" stroke-width="0.3" x1="143.23703022742887" x2="145.7803849466894" y1="26.81831364943548" y2="22.513508569990506" /><path d="M 143.74570117128098 25.957352633546492 a86.0,86.0 0 0,1 28.547481713284135,27.462654790039103" fill="none" id="id14" stroke="none" /><text fill="#e1ed5e" style="font-size:6.75px; font-family:Arial;" text-anchor="middle"><textPath startOffset="19.985693538727396" xlink:href="#id14">February</textPath></text><path d="M 114.16331599549186 84.49514656593476 l 24.797855669953098 -27.146687807015503 a57.76787054915459,57.76787054915459 0 0,0 0.7284036519702851,0.6769718102086086 l -25.26146720571823 26.715811410732254" fill="#ff1502" stroke="none" /><path d="M 114.42810811169701 84.74124197986012 l 27.123768102387853 -28.68532803224508 a60.47843513096255,60.47843513096255 0 0,0 0.7502688453197685,0.7217580347603901 l -27.613520191320042 28.21418691072239" fill="#ff6d0a" stroke="none" /><path d="M 114.68862486808459 84.99185889309783 l 25.96885125640529 -26.5337420991069 a58.1270885656177,58.1270885656177 0 0,0 0.709051387191173,0.7060064951987852 l -26.421738443763786 26.082799753257994" fill="#ff2103" stroke="none" /><path d="M 114.94478906791727 85.2469230424477 l 26.086050563046246 -25.75141808467525 a57.65538933566993,57.65538933566993 0 0,0 0.6911391374237517,0.7122796339605185 l -26.525453964173106 25.29857425516462" fill="#ff1101" stroke="none" /><line stroke="#e1ed5e" stroke-width="0.3" x1="172.23445277983987" x2="176.4835382374775" y1="55.19839476539836" y2="52.563006222186495" /><path d="M 173.08426987136738 54.67131705675599 a86.0,86.0 0 0,1 12.851231095245387,41.99856678651699" fill="none" id="id15" stroke="none" /><text fill="#e1ed5e" style="font-size:6.75px; font-family:Arial;" text-anchor="middle"><textPath startOffset="22.20632615414155" xlink:href="#id15">March</textPath></text><line stroke="#e1ed5e" stroke-width="0.3" x1="184.98032266829074" x2="189.97916517819016" y1="98.17113171792111" y2="98.06355123074" /><path d="M 185.9800911702706 98.14961562048488 a86.0,86.0 0 0,1 -9.607161424134198,41.387399972396054" fill="none" id="id16" stroke="none" /><text fill="#e1ed5e" style="font-size:6.75px; font-family:Arial;" text-anchor="middle"><textPath startOffset="21.466115282336823" xlink:href="#id16">April</textPath></text><line stroke="#e1ed5e" stroke-width="0.3" x1="174.80103733775053" x2="179.2010983576182" y1="140.37084112569926" y2="142.7455964860345" /><path d="M 175.68104954172406 140.8457921977663 a86.0,86.0 0 0,1 -30.038265399797805,32.042727171017184" fill="none" id="id17" stroke="none" /><text fill="#e1ed5e" style="font-size:6.75px; font-family:Arial;" text-anchor="middle"><textPath startOffset="22.206326154141568" xlink:href="#id17">May</textPath></text><line stroke="#e1ed5e" stroke-width="0.3" x1="143.8653032363475" x2="146.44561519142675" y1="172.8068346515853" y2="177.08958963109032" /><path d="M 144.38136562736335 173.6633856474863 a86.0,86.0 0 0,1 -40.68145358897372,12.25698825130547" fill="none" id="id18" stroke="none" /><text fill="#e1ed5e" style="font-size:6.75px; font-family:Arial;" text-anchor="middle"><textPath startOffset="21.466115282336833" xlink:href="#id18">June</textPath></text><line stroke="#e1ed5e" stroke-width="0.3" x1="102.19456741930631" x2="102.32365962044197" y1="184.97166512339345" y2="189.96999836594603" /><path d="M 102.22038585953345 185.97133177190398 a86.0,86.0 0 0,1 -42.740103519485714,-10.115201625700543" fill="none" id="id19" stroke="none" /><text fill="#e1ed5e" style="font-size:6.75px; font-family:Arial;" text-anchor="middle"><textPath startOffset="22.20632615414155" xlink:href="#id19">July</textPath></text><line stroke="#e1ed5e" stroke-width="0.3" x1="58.666819895761336" x2="56.23545636021788" y1="174.27360380694188" y2="178.64263932499728" /><path d="M 58.180547188652646 175.14741091055294 a86.0,86.0 0 0,1 -31.652253787137756,-30.449443065178592" fill="none" id="id20" stroke="none" /><text fill="#e1ed5e" style="font-size:6.75px; font-family:Arial;" text-anchor="middle"><textPath startOffset="22.20632615414155" xlink:href="#id20">August</textPath></text><line stroke="#e1ed5e" stroke-width="0.3" x1="26.63291911575756" x2="22.317208475507996" y1="142.92168965132927" y2="145.44649492493687" /><path d="M 25.769776987707644 143.4266507060508 a86.0,86.0 0 0,1 -11.730757126820373,-40.83630448921669" fill="none" id="id21" stroke="none" /><text fill="#e1ed5e" style="font-size:6.75px; font-family:Arial;" text-anchor="middle"><textPath startOffset="21.46611528233685" xlink:href="#id21">September</textPath></text><line stroke="#e1ed5e" stroke-width="0.3" x1="15.007084014347285" x2="10.007500721073583" y1="101.09737516637583" y2="101.16192664675087" /><path d="M 14.007167355692545 101.11028546245083 a86.0,86.0 0 0,1 10.666146001902534,-42.60595125391555" fill="none" id="id22" stroke="none" /><text fill="#e1ed5e" style="font-size:6.75px; font-family:Arial;" text-anchor="middle"><textPath startOffset="22.20632615414155" xlink:href="#id22">October</textPath></text><line stroke="#e1ed5e" stroke-width="0.3" x1="26.266209847984243" x2="21.928928074336255" y1="57.711370442889674" y2="55.22380399835377" /><path d="M 25.398753493254645 57.213857153982495 a86.0,86.0 0 0,1 29.58750427330803,-30.492523968695096" fill="none" id="id23" stroke="none" /><text fill="#e1ed5e" style="font-size:6.75px; font-family:Arial;" text-anchor="middle"><textPath startOffset="21.46611528233685" xlink:href="#id23">November</textPath></text><line stroke="#e1ed5e" stroke-width="0.3" x1="56.762969772571076" x2="54.21961505331055" y1="26.818313649435495" y2="22.513508569990535" /><path d="M 56.25429882871897 25.957352633546506 a86.0,86.0 0 0,1 42.265352541879196,-11.944610805530505" fill="none" id="id24" stroke="none" /><text fill="#e1ed5e" style="font-size:6.75px; font-family:Arial;" text-anchor="middle"><textPath startOffset="22.20632615414155" xlink:href="#id24">December</textPath></text></svg>