<?xml version="1.0" encoding="utf-8" ?>
<svg baseProfile="full" height="200mm" version="1.1" viewBox="0,0,200,200" width="200mm" xmlns="http://www.w3.org/2000/svg" xmlns:ev="http://www.w3.org/2001/xml-events" xmlns:xlink="http://www.w3.org/1999/xlink"><defs /><rect fill="#1a1a1a" height="200" width="200" x="0" y="0" /><text alignment-baseline="middle" fill="#e1ed5e" style="dominant-baseline: central; font-size:9.0px; font-family:Arial;" text-anchor="middle" x="100.0" y="100.0">2019</text><line stroke="#e1ed5e" stroke-width="0.3" x1="100.0" x2="100.0" y1="15.0" y2="10.0" /><path d="M 100.0 14.0 a86.0,86.0 0 0,1 42.46469731375804,11.215312516191453" fill="none" id="id13" stroke="none" /><text fill="#e1ed5e" style="font-size:6.75px; font-family:Arial;" text-anchor="middle"><textPath startOffset="22.20632615414155" xlink:href="#id13">January</textPath></text><line stroke="#e1ed5e" stroke-width="0.3" x1="143.23703022742887" x2="145.7803849466894" y1="26.81831364943548" y2="22.513508569990506" /><path d="M 143.74570117128098 25.957352633546492 a86.0,86.0 0 0,1 28.547481713284135,27.462654790039103" fill="none" id="id14" stroke="none" /><text fill="#e1ed5e" style="font-size:6.75px; font-family:Arial;" text-anchor="middle"><textPath startOffset="19.985693538727396" xlink:href="#id14">February</textPath></text><path d="M 113.6212207817346 84.01681056812373 l 40.86366234520383 -47.94956829562881 a84.0,84.0 0 0,0 1.0924248054129433,0.947340026321315 l -41.68298094926353 47.23906327588782" fill="#4dd2ff" stroke="none" /><line stroke="#e1ed5e" stroke-width="0.3" x1="172.23445277983987" x2="176.4835382374775" y1="55.19839476539836" y2="52.563006222186495" /><path d="M 173.08426987136738 54.67131705675599 a86.0,86.0 0 0,1 12.851231095245387,41.99856678651699" fill="none" id="id15" stroke="none" /><text fill="#e1ed5e" style="font-size:6.75px; font-family:Arial;" text-anchor="middle"><textPath startOffset="22.20632615414155" xlink:href="#id15">March</textPath></text><path d="M 119.47837535516314 92.15188598940014 l 45.66405772897825 -18.398697258323434 a70.23127287689093,70.23127287689093 0 0,0 0.44214415592111267,1.1252086498507456 l -45.97399543478106 17.6099396035769" fill="#9bff22" stroke="none" /><path d="M 120.96714384426684 98.82574320788733 l 43.50009823726802 -2.436206199188519 a64.56826422175817,64.56826422175817 0 0,0 0.05259666778383372,1.1102325273861149 l -43.535588513285354 1.687062565179404" fill="#ffbb11" stroke="none" /><line stroke="#e1ed5e" stroke-width="0.3" x1="184.98032266829074" x2="189.97916517819016" y1="98.17113171792111" y2="98.06355123074" /><path d="M 185.9800911702706 98.14961562048488 a86.0,86.0 0 0,1 -9.607161424134198,41.387399972396054" fill="none" id="id16" stroke="none" /><text fill="#e1ed5e" style="font-size:6.75px; font-family:Arial;" text-anchor="middle"><textPath startOffset="21.466115282336823" xlink:href="#id16">April</textPath></text><path d="M 120.95626037817324 101.35467743843564 l 51.459075550154346 3.3264736834037127 a72.56648023321807,72.56648023321807 0 0,0 -0.09130743492275892,1.2458174054262492 l -51.39419155656725 -4.211764225326732" fill="#5dff2a" stroke="none" /><line stroke="#e1ed5e" stroke-width="0.3" x1="174.80103733775053" x2="179.2010983576182" y1="140.37084112569926" y2="142.7455964860345" /><path d="M 175.68104954172406 140.8457921977663 a86.0,86.0 0 0,1 -30.038265399797805,32.042727171017184" fill="none" id="id17" stroke="none" /><text fill="#e1ed5e" style="font-size:6.75px; font-family:Arial;" text-anchor="middle"><textPath startOffset="22.206326154141568" xlink:href="#id17">May</textPath></text><line stroke="#e1ed5e" stroke-width="0.3" x1="143.8653032363475" x2="146.44561519142675" y1="172.8068346515853" y2="177.08958963109032" /><path d="M 144.38136562736335 173.6633856474863 a86.0,86.0 0 0,1 -40.68145358897372,12.25698825130547" fill="none" id="id18" stroke="none" /><text fill="#e1ed5e" style="font-size:6.75px; font-family:Arial;" text-anchor="middle"><textPath startOffset="21.466115282336833" xlink:href="#id18">June</textPath></text><line stroke="#e1ed5e" stroke-width="0.3" x1="102.19456741930631" x2="102.32365962044197" y1="184.97166512339345" y2="189.96999836594603" /><path d="M 102.22038585953345 185.97133177190398 a86.0,86.0 0 0,1 -42.740103519485714,-10.115201625700543" fill="none" id="id19" stroke="none" /><text fill="#e1ed5e" style="font-size:6.75px; font-family:Arial;" text-anchor="middle"><textPath startOffset="22.20632615414155" xlink:href="#id19">July</textPath></text><line stroke="#e1ed5e" stroke-width="0.3" x1="58.666819895761336" x2="56.23545636021788" y1="174.27360380694188" y2="178.64263932499728" /><path d="M 58.180547188652646 175.14741091055294 a86.0,86.0 0 0,1 -31.652253787137756,-30.449443065178592" fill="none" id="id20" stroke="none" /><text fill="#e1ed5e" style="font-size:6.75px; font-family:Arial;" text-anchor="middle"><textPath startOffset="22.20632615414155" xlink:href="#id20">August</textPath></text><line stroke="#e1ed5e" stroke-width="0.3" x1="26.63291911575756" x2="22.317208475507996" y1="142.92168965132927" y2="145.44649492493687" /><path d="M 25.769776987707644 143.4266507060508 a86.0,86.0 0 0,1 -11.730757126820373,-40.83630448921669" fill="none" id="id21" stroke="none" /><text fill="#e1ed5e" style="font-size:6.75px; font-family:Arial;" text-anchor="middle"><textPath startOffset="21.46611528233685" xlink:href="#id21">September</textPath></text><path d="M 80.87730276802145 108.67885076344099 l -48.51889373428528 22.02033702771469 a74.28206351121369,74.28206351121369 0 0,0 -0.518414221529793,-1.16888721219218 l 48.89074904054635 -21.18190147902981" fill="#32ff2f" stroke="none" /><path d="M 79.97269907076064 106.31721596034903 l -41.87171127013178 13.207603144197078 a64.90536397188714,64.90536397188714 0 0,0 -0.3269166585224204,-1.0683825553225463 l 42.092854701160334 -12.484893616322484" fill="#ffc612" stroke="none" /><path d="M 79.29508885075956 103.50808413554451 l -37.56386714247073 6.364538608369614 a59.09923183470527,59.09923183470527 0 0,0 -0.16130782320765055,-1.0044639690943977 l 37.66785672003967 -5.716995409582003" fill="#ff0000" stroke="none" /><line stroke="#e1ed5e" stroke-width="0.3" x1="15.007084014347285" x2="10.007500721073583" y1="101.09737516637583" y2="101.16192664675087" /><path d="M 14.007167355692545 101.11028546245083 a86.0,86.0 0 0,1 10.666146001902534,-42.60595125391555" fill="none" id="id22" stroke="none" /><text fill="#e1ed5e" style="font-size:6.75px; font-family:Arial;" text-anchor="middle"><textPath startOffset="22.20632615414155" xlink:href="#id22">October</textPath></text><path d="M 79.3925641242962 95.95851677861259 l -37.469021272126994 -7.348338808694094 a59.182792437673605,59.182792437673605 0 0,0 0.20466171697812344,-0.9980032161147006 l 37.336980259233876 7.992217680972197" fill="#ff0300" stroke="none" /><path d="M 80.02781315780177 93.51064311812611 l -48.85985199470259 -15.875528268103517 a72.37428865430252,72.37428865430252 0 0,0 0.3951729427831065,-1.1815168003599388 l 48.57934175814771 16.714218171385777" fill="#62ff29" stroke="none" /><path d="M 80.95270993114464 91.15688171328213 l -50.707191119587165 -23.54191527701486 a76.90564377724743,76.90564377724743 0 0,0 0.5677899959517764,-1.1959105359765552 l 50.29444292979364 24.411268228631943" fill="#37ff78" stroke="none" /><line stroke="#e1ed5e" stroke-width="0.3" x1="26.266209847984243" x2="21.928928074336255" y1="57.711370442889674" y2="55.22380399835377" /><path d="M 25.398753493254645 57.213857153982495 a86.0,86.0 0 0,1 29.58750427330803,-30.492523968695096" fill="none" id="id23" stroke="none" /><text fill="#e1ed5e" style="font-size:6.75px; font-family:Arial;" text-anchor="middle"><textPath startOffset="21.46611528233685" xlink:href="#id23">November</textPath></text><path d="M 81.96595687620814 89.24020034530311 l -47.30714121038262 -28.22524922260171 a76.08747864240166,76.08747864240166 0 0,0 0.6807445326258169,-1.118965021913908 l 46.81428087947058 29.035382017722693" fill="#35ff61" stroke="none" /><path d="M 85.05521093208273 85.24692304244772 l -30.071999209999692 -29.68623488738241 a63.256332996073645,63.256332996073645 0 0,0 0.7716194250613899,-0.7683058460303306 l 29.556543984770986 30.199476584062847" fill="#ff900d" stroke="none" /><path d="M 85.31137513191541 84.99185889309783 l -35.016315651810665 -35.77801265032453 a71.06204701202321,71.06204701202321 0 0,0 0.8815644757063558,-0.8480643271668864 l 34.39526793249188 36.37546006425372" fill="#84ff25" stroke="none" /><path d="M 89.00827224532344 82.1063720568725 l -27.562610185593645 -44.869660421914425 a73.65912937583477,73.65912937583477 0 0,0 1.0860790773400162,-0.6543504918756283 l 26.78616904203598 45.33745752324867" fill="#42ff2d" stroke="none" /><line stroke="#e1ed5e" stroke-width="0.3" x1="56.762969772571076" x2="54.21961505331055" y1="26.818313649435495" y2="22.513508569990535" /><path d="M 56.25429882871897 25.957352633546506 a86.0,86.0 0 0,1 42.265352541879196,-11.944610805530505" fill="none" id="id24" stroke="none" /><text fill="#e1ed5e" style="font-size:6.75px; font-family:Arial;" text-anchor="middle"><textPath startOffset="22.20632615414155" xlink:href="#id24">December</textPath></text><path d="M 89.3179101791058 81.91981866633112 l -26.806167724710896 -45.371306687153826 a73.69844493516959,73.69844493516959 0 0,0 1.0977673518069393,-0.6358977061462506 l 26.02120364043864 45.826008550690126" fill="#41ff2d" stroke="none" /><path d="M 93.94186890950719 79.89281104454417 l -15.692276843852264 -52.08331924936843 a75.39595294298772,75.39595294298772 0 0,0 1.2458634864419686,-0.36370171551865726 l 14.793423139686874 52.345719293805786" fill="#32ff4d" stroke="none" /></svg>