<?xml version="1.0" encoding="utf-8" ?>
<svg baseProfile="full" height="200mm" version="1.1" viewBox="0,0,200,200" width="200mm" xmlns="http://www.w3.org/2000/svg" xmlns:ev="http://www.w3.org/2001/xml-events" xmlns:xlink="http://www.w3.org/1999/xlink"><defs /><rect fill="#1a1a1a" height="200" width="200" x="0" y="0" /><text alignment-baseline="middle" fill="#e1ed5e" style="dominant-baseline: central; font-size:9.0px; font-family:Arial;" text-anchor="middle" x="100.0" y="100.0">2021</text><line stroke="#e1ed5e" stroke-width="0.3" x1="100.0" x2="100.0" y1="15.0" y2="10.0" /><path d="M 100.0 14.0 a86.0,86.0 0 0,1 42.46469731375804,11.215312516191453" fill="none" id="id1" stroke="none" /><text fill="#e1ed5e" style="font-size:6.75px; font-family:Arial;" text-anchor="middle"><textPath startOffset="22.20632615414155" xlink:href="#id1">January</textPath></text><line stroke="#e1ed5e" stroke-width="0.3" x1="143.23703022742887" x2="145.7803849466894" y1="26.81831364943548" y2="22.513508569990506" /><path d="M 143.74570117128098 25.957352633546492 a86.0,86.0 0 0,1 28.547481713284135,27.462654790039103" fill="none" id="id2" stroke="none" /><text fill="#e1ed5e" style="font-size:6.75px; font-family:Arial;" text-anchor="middle"><textPath startOffset="19.985693538727396" xlink:href="#id2">February</textPath></text><line stroke="#e1ed5e" stroke-width="0.3" x1="172.23445277983987" x2="176.4835382374775" y1="55.19839476539836" y2="52.563006222186495" /><path d="M 173.08426987136738 54.67131705675599 a86.0,86.0 0 0,1 12.851231095245387,41.99856678651699" fill="none" id="id3" stroke="none" /><text fill="#e1ed5e" style="font-size:6.75px; font-family:Arial;" text-anchor="middle"><textPath startOffset="22.20632615414155" xlink:href="#id3">March</textPath></text><line stroke="#e1ed5e" stroke-width="0.3" x1="184.98032266829074" x2="189.97916517819016" y1="98.17113171792111" y2="98.06355123074" /><path d="M 185.9800911702706 98.14961562048488 a86.0,86.0 0 0,1 -9.607161424134198,41.387399972396054" fill="none" id="id4" stroke="none" /><text fill="#e1ed5e" style="font-size:6.75px; font-family:Arial;" text-anchor="middle"><textPath startOffset="21.466115282336823" xlink:href="#id4">April</textPath></text><line stroke="#e1ed5e" stroke-width="0.3" x1="174.80103733775053" x2="179.2010983576182" y1="140.37084112569926" y2="142.7455964860345" /><path d="M 175.68104954172406 140.8457921977663 a86.0,86.0 0 0,1 -30.038265399797805,32.042727171017184" fill="none" id="id5" stroke="none" /><text fill="#e1ed5e" style="font-size:6.75px; font-family:Arial;" text-anchor="middle"><textPath startOffset="22.206326154141568" xlink:href="#id5">May</textPath></text><line stroke="#e1ed5e" stroke-width="0.3" x1="143.8653032363475" x2="146.44561519142675" y1="172.8068346515853" y2="177.08958963109032" /><path d="M 144.38136562736335 173.6633856474863 a86.0,86.0 0 0,1 -40.68145358897372,12.25698825130547" fill="none" id="id6" stroke="none" /><text fill="#e1ed5e" style="font-size:6.75px; font-family:Arial;" text-anchor="middle"><textPath startOffset="21.466115282336833" xlink:href="#id6">June</textPath></text><line stroke="#e1ed5e" stroke-width="0.3" x1="102.19456741930631" x2="102.32365962044197" y1="184.97166512339345" y2="189.96999836594603" /><path d="M 102.22038585953345 185.97133177190398 a86.0,86.0 0 0,1 -42.740103519485714,-10.115201625700543" fill="none" id="id7" stroke="none" /><text fill="#e1ed5e" style="font-size:6.75px; font-family:Arial;" text-anchor="middle"><textPath startOffset="22.20632615414155" xlink:href="#id7">July</textPath></text><line stroke="#e1ed5e" stroke-width="0.3" x1="58.666819895761336" x2="56.23545636021788" y1="174.27360380694188" y2="178.64263932499728" /><path d="M 58.180547188652646 175.14741091055294 a86.0,86.0 0 0,1 -31.652253787137756,-30.449443065178592" fill="none" id="id8" stroke="none" /><text fill="#e1ed5e" style="font-size:6.75px; font-family:Arial;" text-anchor="middle"><textPath startOffset="22.20632615414155" xlink:href="#id8">August</textPath></text><line stroke="#e1ed5e" stroke-width="0.3" x1="26.63291911575756" x2="22.317208475507996" y1="142.92168965132927" y2="145.44649492493687" /><path d="M 25.769776987707644 143.4266507060508 a86.0,86.0 0 0,1 -11.730757126820373,-40.83630448921669" fill="none" id="id9" stroke="none" /><text fill="#e1ed5e" style="font-size:6.75px; font-family:Arial;" text-anchor="middle"><textPath startOffset="21.46611528233685" xlink:href="#id9">September</textPath></text><line stroke="#e1ed5e" stroke-width="0.3" x1="15.007084014347285" x2="10.007500721073583" y1="101.09737516637583" y2="101.16192664675087" /><path d="M 14.007167355692545 101.11028546245083 a86.0,86.0 0 0,1 10.666146001902534,-42.60595125391555" fill="none" id="id10" stroke="none" /><text fill="#e1ed5e" style="font-size:6.75px; font-family:Arial;" text-anchor="middle"><textPath startOffset="22.20632615414155" xlink:href="#id10">October</textPath></text><path d="M 79.01574976396665 99.18683210126434 l -62.72056287005831 -2.43050610543061 a83.76763789298967,83.76763789298967 0 0,0 0.06823628719770913,-1.4403601746468633 l 62.6694329746271 3.5097773867004824" fill="#49efff" stroke="none" /><line stroke="#e1ed5e" stroke-width="0.3" x1="26.266209847984243" x2="21.928928074336255" y1="57.711370442889674" y2="55.22380399835377" /><path d="M 25.398753493254645 57.213857153982495 a86.0,86.0 0 0,1 29.58750427330803,-30.492523968695096" fill="none" id="id11" stroke="none" /><text fill="#e1ed5e" style="font-size:6.75px; font-family:Arial;" text-anchor="middle"><textPath startOffset="21.46611528233685" xlink:href="#id11">November</textPath></text><line stroke="#e1ed5e" stroke-width="0.3" x1="56.762969772571076" x2="54.21961505331055" y1="26.818313649435495" y2="22.513508569990535" /><path d="M 56.25429882871897 25.957352633546506 a86.0,86.0 0 0,1 42.265352541879196,-11.944610805530505" fill="none" id="id12" stroke="none" /><text fill="#e1ed5e" style="font-size:6.75px; font-family:Arial;" text-anchor="middle"><textPath startOffset="22.20632615414155" xlink:href="#id12">December</textPath></text><path d="M 91.90106846888425 80.62456947434976 l -23.43985426011582 -56.076195483736036 a81.77800973761519,81.77800973761519 0 0,0 1.303448522482776,-0.5317093799640377 l 22.471121868044662 56.47136574988365" fill="#6aff28" stroke="none" /><path d="M 92.57280143429618 80.3572730644239 l -21.94507710856853 -58.03818942101027 a83.04851199319842,83.04851199319842 0 0,0 1.3415010993515066,-0.49408617628465024 l 20.942793683444453 58.407338865101245" fill="#3dffaf" stroke="none" /><path d="M 93.25333710446033 80.11325718540243 l -18.891823284575153 -55.6863203003001 a79.80363301364322,79.80363301364322 0 0,0 1.304664669573642,-0.4301274291141489 l 17.9304757927591 56.00326145367349" fill="#ff5407" stroke="none" /><path d="M 93.59665428221793 80.00007090966166 l -19.21003715334623 -59.99978727101503 a84.0,84.0 0 0,0 1.380858509157085,-0.42903946046989905 l 18.17439327147842 60.321566866367455" fill="#4dd2ff" stroke="none" /><path d="M 93.94186890950719 79.89281104454417 l -17.103231646073617 -56.76633689822632 a80.28690865260378,80.28690865260378 0 0,0 1.326682985295219,-0.387295143450502 l 16.123558443054975 57.05233037059552" fill="#ffab0f" stroke="none" /><path d="M 94.28887869178378 79.79150937346287 l -16.091529546819483 -56.9389978717004 a80.16913724053839,80.16913724053839 0 0,0 1.3311974940423243,-0.3638665613984349 l 15.109034163553435 57.20755097392513" fill="#ff960d" stroke="none" /><path d="M 94.63758080256005 79.69619591428918 l -15.266132887426108 -57.8023761067959 a80.7843582965314,80.7843582965314 0 0,0 1.3475258402171986,-0.34351434058577585 l 14.26889815852391 58.05659344355054" fill="#fffe18" stroke="none" /><path d="M 95.33964822691252 79.52364482259891 l -13.218516856104497 -58.078672864804346 a80.56392725141686,80.56392725141686 0 0,0 1.3548446228382998,-0.29611655829503913 l 12.216829509112676 58.297602921195256" fill="#ffda14" stroke="none" /><path d="M 95.692805502759 79.44645832069477 l -12.2285623751733 -58.35359109441317 a80.62113158417475,80.62113158417475 0 0,0 1.3607065304857862,-0.27294492915302226 l 11.222289435220379 58.5554399796434" fill="#ffe315" stroke="none" /><path d="M 96.40284397218896 79.31037775812273 l -10.164725720111127 -58.4640570816076 a80.34111238767403,80.34111238767403 0 0,0 1.3645394445236525,-0.2251607001715259 l 9.156857069448588 58.63036404471875" fill="#ffb410" stroke="none" /><path d="M 97.11714578562143 79.19881850522333 l -8.012053664069754 -57.810825667482085 a79.36338379730856,79.36338379730856 0 0,0 1.354790675576821,-0.17589071244261545 l 7.015748259985076 57.940174703088836" fill="#ff0000" stroke="none" /><path d="M 97.47563105711357 79.15227682838746 l -7.14276242906238 -58.989132401311934 a80.42000333707105,80.42000333707105 0 0,0 1.3756925191683578,-0.15457508364724573 l 6.1263032063843035 59.10334343842978" fill="#ffc212" stroke="none" /><path d="M 98.91598698831166 79.02799685794201 l -3.1167888642603883 -60.29937385400431 a81.37987131494532,81.37987131494532 0 0,0 1.3995755516366464,-0.06026866733885986 l 2.078372480234418 60.34409024786736" fill="#a3ff21" stroke="none" /><path d="M 99.27714615592234 79.0124445844662 l -2.060392466362398 -59.8220531298486 a80.85752465468207,80.85752465468207 0 0,0 1.3914169406797852,-0.03593619449792512 l 1.0303488904877336 59.84865611648888" fill="#f4ff19" stroke="none" /></svg>