<?xml version="1.0" encoding="utf-8" ?>
<svg baseProfile="full" height="200mm" version="1.1" viewBox="0,0,200,200" width="200mm" xmlns="http://www.w3.org/2000/svg" xmlns:ev="http://www.w3.org/2001/xml-events" xmlns:xlink="http://www.w3.org/1999/xlink"><defs /><rect fill="#1a1a1a" height="200" width="200" x="0" y="0" /><text alignment-baseline="middle" fill="#e1ed5e" style="dominant-baseline: central; font-size:9.0px; font-family:Arial;" text-anchor="middle" x="100.0" y="100.0">2022</text><line stroke="#e1ed5e" stroke-width="0.3" x1="100.0" x2="100.0" y1="15.0" y2="10.0" /><path d="M 100.0 14.0 a86.0,86.0 0 0,1 42.46469731375804,11.215312516191453" fill="none" id="id49" stroke="none" /><text fill="#e1ed5e" style="font-size:6.75px; font-family:Arial;" text-anchor="middle"><textPath startOffset="22.20632615414155" xlink:href="#id49">January</textPath></text><path d="M 100.0 79.0 l 0.0 -63.0 a84.0,84.0 0 0,0 1.4459219170901134,0.012445506434235476 l -1.084441437817585 62.990665870174325" fill="#4dd2ff" stroke="none" /><path d="M 100.72285384407766 79.0124445844662 l 1.0399960623777453 -30.195557746449328 a51.21346222181293,51.21346222181293 0 0,0 0.8807719707852559,0.037927893815069266 l -1.5596088655523328 30.173182126110063" fill="#faff18" stroke="none" /><path d="M 101.08401301168833 79.027996857942 l 1.3105181868225506 -25.354115896598497 a46.38796271495886,46.38796271495886 0 0,0 0.7970732106938204,0.04808163278157179 l -1.7467534463559828 25.327800994436622" fill="#ffb610" stroke="none" /><path d="M 101.44485096284872 79.0497635885617 l 1.756517168824193 -25.46937427723485 a46.52987228010055,46.52987228010055 0 0,0 0.7985629741650233,0.06198385606857358 l -2.1946703323515573 25.43536515897781" fill="#ffb811" stroke="none" /><path d="M 101.80526077348638 79.07773832637324 l 3.375045446362571 -39.11544804289355 a60.260784599410606,60.260784599410606 0 0,0 1.0326829618645268,0.09806569051299963 l -4.0478535353173415 39.05155680786537" fill="#75ff27" stroke="none" /><path d="M 102.16513564639614 79.11191278185805 l 4.260811710688071 -41.10606500847827 a62.32630030519522,62.32630030519522 0 0,0 1.0661753484132426,0.11979722312020029 l -4.967753762611039 41.02663183188747" fill="#59ff2a" stroke="none" /><path d="M 102.88285421437855 79.19881850522331 l 5.745832242477992 -41.45894673348532 a62.85521296575461,62.85521296575461 0 0,0 1.070427328491276,0.15775316297772615 l -6.458628551397924 41.35389908634663" fill="#52ff2b" stroke="none" /><path d="M 103.2404852339499 79.25152402106235 l 6.365172139430711 -40.755507802700556 a62.24956766586252,62.24956766586252 0 0,0 1.0572667960426188,0.17445808035851024 l -7.065768141612205 40.63990345940242" fill="#5aff2a" stroke="none" /><path d="M 103.95276090670814 79.375362276772 l 7.8573541025838045 -40.99794691702471 a62.744097366029685,62.744097366029685 0 0,0 1.0589817006755327,0.21242176677291255 l -8.561902212726462 40.85662119417459" fill="#54ff2b" stroke="none" /><path d="M 104.307194497241 79.44645832069477 l 7.809136138993483 -37.26448973107293 a59.07393862151083,59.07393862151083 0 0,0 0.9934472017664028,0.21712907980446058 l -8.449426064913414 37.1245471531726" fill="#85ff25" stroke="none" /><path d="M 105.01212808612495 79.60689891045804 l 10.313441801596595 -41.9628264934616 a64.21164066678425,64.21164066678425 0 0,0 1.0710841413583663,0.27304319631548163 l -11.034234831639985 41.77908030097725" fill="#41ff2d" stroke="none" /><path d="M 105.36241919743992 79.69619591428918 l 8.894962991283096 -33.67912490147756 a55.83394638489331,55.83394638489331 0 0,0 0.9271149979705932,0.2534155509173066 l -9.4733758784774 33.52102280973396" fill="#b4ff20" stroke="none" /><path d="M 105.71112130821622 79.79150937346287 l 10.710585736955636 -37.89882227831604 a60.383211866378566,60.383211866378566 0 0,0 0.9977888191862951,0.2912819174914344 l -11.361364773865358 37.7088420319059" fill="#73ff27" stroke="none" /><path d="M 106.0581310904928 79.89281104454417 l 12.077094888659 -40.084380039304015 a62.864229887638295,62.864229887638295 0 0,0 1.0334119852613706,0.3210861342124906 l -12.765292246631088 39.87055377020901" fill="#52ff2b" stroke="none" /><path d="M 107.08798089147638 80.2323363322302 l 8.485256713857842 -23.66452497860636 a46.13979562293922,46.13979562293922 0 0,0 0.7453063885972427,0.27450263281971754 l -8.891345428227662 23.51495907798032" fill="#ffb210" stroke="none" /><path d="M 107.4271985657038 80.35727306442388 l 9.156996485878947 -24.217526962685408 a46.89090954043125,46.89090954043125 0 0,0 0.752525043981098,0.2919680258866549 l -9.572504694859713 24.056316232908205" fill="#ffbe11" stroke="none" /><path d="M 108.09893153111575 80.62456947434976 l 10.428133084040645 -24.94768196345388 a48.039467357329826,48.039467357329826 0 0,0 0.7602045366639363,0.32547990914366615 l -10.856021378494896 24.764482526347425" fill="#ffd113" stroke="none" /><path d="M 108.76106565485865 80.91482961587045 l 10.313794011220878 -22.467645348805604 a45.721841242625956,45.721841242625956 0 0,0 0.7124372701946609,0.3344988510972319 l -10.699009492715136 22.28678151506837" fill="#ffab0f" stroke="none" /><path d="M 109.08828744355905 81.06846463323043 l 11.285329435235472 -23.508126768175725 a47.07663100575709,47.07663100575709 0 0,0 0.7275104482721796,0.3569862174239711 l -11.688311150518084 23.310385390616922" fill="#ffc212" stroke="none" /><path d="M 109.41281617654863 81.2277094730956 l 11.645838231251574 -23.22568024339614 a46.981873890790915,46.981873890790915 0 0,0 0.7198059617995068,0.36871257104894356 l -12.043904680639836 23.0217751470347" fill="#ffc011" stroke="none" /><line stroke="#e1ed5e" stroke-width="0.3" x1="143.23703022742887" x2="145.7803849466894" y1="26.81831364943548" y2="22.513508569990506" /><path d="M 143.74570117128098 25.957352633546492 a86.0,86.0 0 0,1 28.547481713284135,27.462654790039103" fill="none" id="id50" stroke="none" /><text fill="#e1ed5e" style="font-size:6.75px; font-family:Arial;" text-anchor="middle"><textPath startOffset="19.985693538727396" xlink:href="#id50">February</textPath></text><path d="M 114.16331599549186 84.49514656593476 l 16.948730325178893 -18.554099878096356 a46.1299439299417,46.1299439299417 0 0,0 0.5816593082683011,0.5405889355139347 l -17.265597517242043 18.25960635650778" fill="#ffb210" stroke="none" /><path d="M 114.42810811169701 84.74124197986012 l 18.18150597014834 -19.228245165096116 a47.463041614137666,47.463041614137666 0 0,0 0.5888056023620932,0.5664305229622664 l -18.509794816122852 18.912431555371548" fill="#ffc812" stroke="none" /><path d="M 114.68862486808459 84.99185889309783 l 17.695395816276505 -18.08031723447475 a46.298713492862454,46.298713492862454 0 0,0 0.5647653759610237,0.5623400939548017 l -18.00399699240485 17.773041289869834" fill="#ffb510" stroke="none" /><path d="M 114.94478906791727 85.2469230424477 l 17.820754819959962 -17.592149752380553 a46.04122671242983,46.04122671242983 0 0,0 0.5519153384031241,0.5687972709523238 l -18.120934422066195 17.282788285878116" fill="#ffb010" stroke="none" /><line stroke="#e1ed5e" stroke-width="0.3" x1="172.23445277983987" x2="176.4835382374775" y1="55.19839476539836" y2="52.563006222186495" /><path d="M 173.08426987136738 54.67131705675599 a86.0,86.0 0 0,1 12.851231095245387,41.99856678651699" fill="none" id="id51" stroke="none" /><text fill="#e1ed5e" style="font-size:6.75px; font-family:Arial;" text-anchor="middle"><textPath startOffset="22.20632615414155" xlink:href="#id51">March</textPath></text><line stroke="#e1ed5e" stroke-width="0.3" x1="184.98032266829074" x2="189.97916517819016" y1="98.17113171792111" y2="98.06355123074" /><path d="M 185.9800911702706 98.14961562048488 a86.0,86.0 0 0,1 -9.607161424134198,41.387399972396054" fill="none" id="id52" stroke="none" /><text fill="#e1ed5e" style="font-size:6.75px; font-family:Arial;" text-anchor="middle"><textPath startOffset="21.466115282336823" xlink:href="#id52">April</textPath></text><path d="M 120.99824983174949 100.27111621757518 l 25.400236427676994 0.3279519046094458 a46.402353493990006,46.402353493990006 0 0,0 -0.01718640936877998,0.7985849106683398 l -25.390827955623205 -0.7651266310679005" fill="#ffb610" stroke="none" /><path d="M 120.9904718944345 100.63252640178507 l 26.228050971776984 0.7903554903599969 a47.239956546825184,47.239956546825184 0 0,0 -0.03148850646939966,0.8125784359420436 l -26.21056033245638 -1.2417111733160466" fill="#ffc412" stroke="none" /><path d="M 120.8583938346157 102.4346265915055 l 27.248552629919594 3.180496606730308 a48.43354113290738,48.43354113290738 0 0,0 -0.10378267870531113,0.8272500619697642 l -27.189768441967438 -3.649064422987467" fill="#ffd814" stroke="none" /><path d="M 120.81339534386255 102.79330883721812 l 25.497460569093366 3.4219444140463566 a46.726060698157696,46.726060698157696 0 0,0 -0.1138468208512917,0.7962443998739984 l -25.434779697225473 -3.8603342859007643" fill="#ffbc11" stroke="none" /><path d="M 120.41448212921028 104.9243191809786 l 59.39102887137698 14.32612303355496 a82.09445237968247,82.09445237968247 0 0,0 -0.3431887656228113,1.3708685233081352 l -59.135628791459105 -15.346319396260492" fill="#4ae9ff" stroke="none" /><path d="M 119.67450827220406 107.3425965602758 l 23.932420769169077 8.93166466920232 a46.54477241307177,46.54477241307177 0 0,0 -0.2865954918108818,0.7482103930365643 l -23.775130997764688 -9.342298629072028" fill="#ffb911" stroke="none" /><line stroke="#e1ed5e" stroke-width="0.3" x1="174.80103733775053" x2="179.2010983576182" y1="140.37084112569926" y2="142.7455964860345" /><path d="M 175.68104954172406 140.8457921977663 a86.0,86.0 0 0,1 -30.038265399797805,32.042727171017184" fill="none" id="id53" stroke="none" /><text fill="#e1ed5e" style="font-size:6.75px; font-family:Arial;" text-anchor="middle"><textPath startOffset="22.206326154141568" xlink:href="#id53">May</textPath></text><path d="M 118.12598468904814 110.60418214915192 l 20.371781362962857 11.918032812092207 a44.601885136795055,44.601885136795055 0 0,0 -0.3933867670116874,0.65933884907615 l -20.163613720252943 -12.266933755054461" fill="#ff980e" stroke="none" /><path d="M 117.94076556474637 110.91462005526583 l 35.4804235587421 21.585218375771543 a62.53049612318022,62.53049612318022 0 0,0 -0.5673462195510092,0.9147427528852622 l -35.10361269952313 -22.19275746002208" fill="#57ff2a" stroke="none" /><path d="M 117.14729908036423 112.12312394758627 l 22.65381995222429 16.01622890462142 a48.74374067700724,48.74374067700724 0 0,0 -0.49026966791367826,0.6809416885351739 l -22.37477049193501 -16.403804198607723" fill="#ffdd14" stroke="none" /><path d="M 115.80600337817218 113.82643327865902 l 12.566170976695732 10.992362864950694 a37.6955291731139,37.6955291731139 0 0,0 -0.4314184211705151,0.48470316962035565 l -12.37509370587688 -11.207040204311916" fill="#ff1d02" stroke="none" /><path d="M 114.0293411484842 115.62618273729858 l 18.18422717369371 20.253984399216726 a48.2192946629448,48.2192946629448 0 0,0 -0.6223908836115118,0.5491875906399704 l -17.83289393717561 -20.563995131628985" fill="#ffd413" stroke="none" /><path d="M 113.75828350139079 115.86535959552629 l 17.67311091583033 20.379741398912522 a47.97540933757614,47.97540933757614 0 0,0 -0.6285567325769089,0.5356696837491379 l -17.31968870667637 -20.680935472884606" fill="#ffd013" stroke="none" /><path d="M 112.04921762599082 117.19931262002967 l 14.911877423329916 21.28553483855958 a46.989191631367646,46.989191631367646 0 0,0 -0.66644796307328,0.4583889859987762 l -14.543272575633752 -21.53906461392345" fill="#ffc011" stroke="none" /><path d="M 111.7513745106137 117.40417183066458 l 15.014670424978581 22.2372203201511 a47.83159137169593,47.83159137169593 0 0,0 -0.6863270799915814,0.45486016434662363 l -14.629668646247035 -22.49237850558904" fill="#ffce13" stroke="none" /><line stroke="#e1ed5e" stroke-width="0.3" x1="143.8653032363475" x2="146.44561519142675" y1="172.8068346515853" y2="177.08958963109032" /><path d="M 144.38136562736335 173.6633856474863 a86.0,86.0 0 0,1 -40.68145358897372,12.25698825130547" fill="none" id="id54" stroke="none" /><text fill="#e1ed5e" style="font-size:6.75px; font-family:Arial;" text-anchor="middle"><textPath startOffset="21.466115282336833" xlink:href="#id54">June</textPath></text><path d="M 109.57404056367764 118.69057910512821 l 11.57364059501511 22.59422692401459 a46.385985246124434,46.385985246124434 0 0,0 -0.7137833271700113,0.3579057781418476 l -11.183003360162338 -22.79010054306574" fill="#ffb610" stroke="none" /><path d="M 107.59598834532513 119.57807347666477 l 11.345953486460388 29.243319094539043 a52.36721811353303,52.36721811353303 0 0,0 -0.843186471434641,0.3188209748982349 l -10.840896794265472 -29.43428831954391" fill="#e8ff1a" stroke="none" /><path d="M 105.18746579009965 120.34920634021253 l 6.2855536166399695 24.656746219239874 a46.44530051674878,46.44530051674878 0 0,0 -0.7764033421675761,0.19082105170532473 l -5.860196989729182 -24.76128852925923" fill="#ffb711" stroke="none" /><path d="M 104.83641907484287 120.43548508189849 l 8.856497573267783 37.42165871808043 a59.45540391775626,59.45540391775626 0 0,0 -0.9979443757484652,0.22712889089240695 l -8.211033048126456 -37.56856434255052" fill="#80ff25" stroke="none" /><path d="M 102.34483914955558 120.86867818915974 l 2.8434847936414935 25.306541433991388 a46.46578970151904,46.46578970151904 0 0,0 -0.7955992071259682,0.08246711082750152 l -2.4074529899099226 -25.351737913274647" fill="#ffb711" stroke="none" /><line stroke="#e1ed5e" stroke-width="0.3" x1="102.19456741930631" x2="102.32365962044197" y1="184.97166512339345" y2="189.96999836594603" /><path d="M 102.22038585953345 185.97133177190398 a86.0,86.0 0 0,1 -42.740103519485714,-10.115201625700543" fill="none" id="id55" stroke="none" /><text fill="#e1ed5e" style="font-size:6.75px; font-family:Arial;" text-anchor="middle"><textPath startOffset="22.20632615414155" xlink:href="#id55">July</textPath></text><path d="M 97.2962882734958 120.8252237178851 l -3.2819541522310685 25.27911122404487 a46.49126688367956,46.49126688367956 0 0,0 -0.7927234966927699,-0.1098642533286603 l 3.716606240110669 -25.218872405223603" fill="#ffb811" stroke="none" /><path d="M 95.16358092515715 120.4354850818985 l -6.621120606749255 27.976444822261733 a49.74927308615254,49.74927308615254 0 0,0 -0.8316342334908025,-0.20439546103166367 l 7.1017081249832685 -27.85832810291604" fill="#ffed16" stroke="none" /><path d="M 94.81253420990036 120.34920634021253 l -9.408608959643322 36.907756665991776 a59.08811395529504,59.08811395529504 0 0,0 -0.9834219306485443,-0.2597306700671187 l 10.042521333103355 -36.74033464662108" fill="#85ff25" stroke="none" /><path d="M 92.7421414339146 119.70592522655815 l -8.87900511622352 24.107525561895773 a46.69065045053125,46.69065045053125 0 0,0 -0.7517856823522346,-0.2842610173219017 l 9.29266101933604 -23.951116294467237" fill="#ffbb11" stroke="none" /><path d="M 92.40401165467489 119.57807347666478 l -10.542189968842289 27.171680686158133 a50.14511967121936,50.14511967121936 0 0,0 -0.8020328017581625,-0.31914540389018536 l 11.008343846642308 -26.98618843786188" fill="#fff316" stroke="none" /><path d="M 90.42595943632237 118.69057910512821 l -11.559674017297146 22.5669611709682 a46.35535051775386,46.35535051775386 0 0,0 -0.7070495470195087,-0.3698949057753018 l 11.946414466843152 -22.364636846248178" fill="#ffb610" stroke="none" /><path d="M 90.10565033884886 118.52300852407294 l -12.05315083273936 22.56445580181701 a46.58189028646865,46.58189028646865 0 0,0 -0.7040013979506146,-0.3838776939416362 l 12.439775042558615 -22.35363745611561" fill="#ffb911" stroke="none" /><line stroke="#e1ed5e" stroke-width="0.3" x1="58.666819895761336" x2="56.23545636021788" y1="174.27360380694188" y2="178.64263932499728" /><path d="M 58.180547188652646 175.14741091055294 a86.0,86.0 0 0,1 -31.652253787137756,-30.449443065178592" fill="none" id="id56" stroke="none" /><text fill="#e1ed5e" style="font-size:6.75px; font-family:Arial;" text-anchor="middle"><textPath startOffset="22.20632615414155" xlink:href="#id56">August</textPath></text><path d="M 85.97065885151581 115.62618273729859 l -17.022480683461886 18.960006103397838 a46.48031946541715,46.48031946541715 0 0,0 -0.5907437241068745,-0.5396303855731179 l 17.346323957035615 -18.664182951238143" fill="#ffb811" stroke="none" /><path d="M 84.43433777217949 114.09645910891817 l -18.756914113247174 16.986496876072895 a46.30539276858917,46.30539276858917 0 0,0 -0.5299567316899161,-0.5954120060863656 l 19.046529694585427 -16.661110700245665" fill="#ffb510" stroke="none" /><path d="M 82.85270091963577 112.12312394758628 l -20.89689736360916 14.774086325299091 a46.5920680323534,46.5920680323534 0 0,0 -0.45735460179187964,-0.6588534149992622 l 21.14811287256317 -14.412191648112817" fill="#ffba11" stroke="none" /><line stroke="#e1ed5e" stroke-width="0.3" x1="26.63291911575756" x2="22.317208475507996" y1="142.92168965132927" y2="145.44649492493687" /><path d="M 25.769776987707644 143.4266507060508 a86.0,86.0 0 0,1 -11.730757126820373,-40.83630448921669" fill="none" id="id57" stroke="none" /><text fill="#e1ed5e" style="font-size:6.75px; font-family:Arial;" text-anchor="middle"><textPath startOffset="21.46611528233685" xlink:href="#id57">September</textPath></text><path d="M 80.45479744820244 107.68017299344265 l -24.16747680081207 9.496468616958804 a46.966321478227776,46.966321478227776 0 0,0 -0.28919114445643285,-0.7549868230279706 l 24.327362224862014 -9.079058227097676" fill="#ffc011" stroke="none" /><path d="M 80.32549172779594 107.34259656027581 l -24.114515775199145 8.999623174005677 a46.73913534574206,46.73913534574206 0 0,0 -0.27481663222820657,-0.7561773428450058 l 24.265856668432576 -8.583198034154554" fill="#ffbc11" stroke="none" /><path d="M 80.20201598880116 107.00284435728193 l -23.781555964841534 8.41189359995298 a46.225430780183316,46.225430780183316 0 0,0 -0.25888259539755576,-0.7524340024820418 l 23.92282939118232 -8.001286894381643" fill="#ffb310" stroke="none" /><path d="M 79.18660465613746 102.79330883721812 l -24.610713443336664 3.3029365087127314 a45.831363349011255,45.831363349011255 0 0,0 -0.09820677046975365,-0.782804587147291 l 24.663921723053267 -2.878814167278032" fill="#ffad10" stroke="none" /><line stroke="#e1ed5e" stroke-width="0.3" x1="15.007084014347285" x2="10.007500721073583" y1="101.09737516637583" y2="101.16192664675087" /><path d="M 14.007167355692545 101.11028546245083 a86.0,86.0 0 0,1 10.666146001902534,-42.60595125391555" fill="none" id="id58" stroke="none" /><text fill="#e1ed5e" style="font-size:6.75px; font-family:Arial;" text-anchor="middle"><textPath startOffset="22.20632615414155" xlink:href="#id58">October</textPath></text><path d="M 79.05617556472873 98.46500227214037 l -24.59426768346352 -1.8025430421824071 a45.660234473840234,45.660234473840234 0 0,0 0.06419723770299653,-0.7833689056168692 l 24.559595961941028 2.225625865007055" fill="#ffaa0f" stroke="none" /><path d="M 79.26566170972629 96.67025291283419 l -25.323805023380174 -4.066773910605561 a46.648269939747536,46.648269939747536 0 0,0 0.1341429611887377,-0.7917193503335989 l 25.250050200671215 4.502079049254989" fill="#ffba11" stroke="none" /><path d="M 80.38941819471856 92.48833698450439 l -26.88963629300502 -10.299841608365567 a49.79477864348867,49.79477864348867 0 0,0 0.3134852818515532,-0.79778584883795 l 26.708357461271774 10.76117646209928" fill="#ffee16" stroke="none" /><line stroke="#e1ed5e" stroke-width="0.3" x1="26.266209847984243" x2="21.928928074336255" y1="57.711370442889674" y2="55.22380399835377" /><path d="M 25.398753493254645 57.213857153982495 a86.0,86.0 0 0,1 29.58750427330803,-30.492523968695096" fill="none" id="id59" stroke="none" /><text fill="#e1ed5e" style="font-size:6.75px; font-family:Arial;" text-anchor="middle"><textPath startOffset="21.46611528233685" xlink:href="#id59">November</textPath></text><path d="M 82.54541684631803 88.32363383020206 l -12.615894339014408 -8.439491253661892 a36.17846509347409,36.17846509347409 0 0,0 0.3507166839375625,-0.5146334575126115 l 12.468753189408105 8.65540273444492" fill="#ff0000" stroke="none" /><path d="M 82.7489923806493 88.02491185347247 l -21.34746993640227 -14.818718989319255 a46.98670631630738,46.98670631630738 0 0,0 0.4669301259616549,-0.6604395495841436 l 21.089227190636738 15.183985039235184" fill="#ffc011" stroke="none" /><path d="M 84.07557802195018 86.31012108654704 l -22.055410722175807 -18.96055647038534 a50.085113783352114,50.085113783352114 0 0,0 0.5676506949555856,-0.6489228726788413 l 21.72576816364238 19.337394899267128" fill="#fff216" stroke="none" /><path d="M 84.31358615837235 86.03803664274999 l -19.080462989673844 -16.98289537626715 a46.54374293758747,46.54374293758747 0 0,0 0.5378159625398877,-0.593869818579469 l 18.785303386517914 17.308817982116175" fill="#ffb911" stroke="none" /><path d="M 85.83668400450813 84.49514656593479 l -19.823832791729636 -21.70152964425966 a50.39286878572992,50.39286878572992 0 0,0 0.645482286041871,-0.5795203696530212 l 19.44733951809179 22.03954902268196" fill="#fff717" stroke="none" /><path d="M 86.10567301691215 84.25364557470407 l -17.573423527424964 -19.91585167568662 a47.560616755681764,47.560616755681764 0 0,0 0.6185285417219458,-0.5363818562998067 l 17.228001187056247 20.21539852540611" fill="#ffca12" stroke="none" /><path d="M 87.80319425747018 82.90503203632743 l -15.365066625602042 -21.535582944348853 a47.454992065054924,47.454992065054924 0 0,0 0.669045020084155,-0.4687087924194869 l 14.992090465934227 21.796876579532285" fill="#ffc812" stroke="none" /><path d="M 88.09926311788651 82.69761687909137 l -16.930918659084174 -24.615722885925187 a50.876241728791555,50.876241728791555 0 0,0 0.7258230089611463,-0.4900789356546706 l 16.504690955716487 24.903513733878523" fill="#ffff18" stroke="none" /><line stroke="#e1ed5e" stroke-width="0.3" x1="56.762969772571076" x2="54.21961505331055" y1="26.818313649435495" y2="22.513508569990535" /><path d="M 56.25429882871897 25.957352633546506 a86.0,86.0 0 0,1 42.265352541879196,-11.944610805530505" fill="none" id="id60" stroke="none" /><text fill="#e1ed5e" style="font-size:6.75px; font-family:Arial;" text-anchor="middle"><textPath startOffset="22.20632615414155" xlink:href="#id60">December</textPath></text><path d="M 89.94658935756843 81.56283822128135 l -12.594370493176518 -23.097081631558 a47.30766709562536,47.30766709562536 0 0,0 0.7182992376490498,-0.3836905764741998 l 12.194926208999162 23.31045093453395" fill="#ffc512" stroke="none" /></svg>