<?xml version="1.0" encoding="utf-8" ?>
<svg baseProfile="full" height="200mm" version="1.1" viewBox="0,0,200,200" width="200mm" xmlns="http://www.w3.org/2000/svg" xmlns:ev="http://www.w3.org/2001/xml-events" xmlns:xlink="http://www.w3.org/1999/xlink"><defs /><rect fill="#1a1a1a" height="200" width="200" x="0" y="0" /><text alignment-baseline="middle" fill="#e1ed5e" style="dominant-baseline: central; font-size:9.0px; font-family:Arial;" text-anchor="middle" x="100.0" y="100.0">2021</text><line stroke="#e1ed5e" stroke-width="0.3" x1="100.0" x2="100.0" y1="15.0" y2="10.0" /><path d="M 100.0 14.0 a86.0,86.0 0 0,1 42.46469731375804,11.215312516191453" fill="none" id="id37" stroke="none" /><text fill="#e1ed5e" style="font-size:6.75px; font-family:Arial;" text-anchor="middle"><textPath startOffset="22.20632615414155" xlink:href="#id37">January</textPath></text><path d="M 110.05341064243156 81.56283822128135 l 27.61993550957693 -50.65278216713534 a78.69371871204397,78.69371871204397 0 0,0 1.1836880991655203,0.6587211456336991 l -28.487747697814484 50.16984562394146" fill="#46fff6" stroke="none" /><line stroke="#e1ed5e" stroke-width="0.3" x1="143.23703022742887" x2="145.7803849466894" y1="26.818313649435467" y2="22.513508569990506" /><path d="M 143.74570117128098 25.957352633546478 a86.0,86.0 0 0,1 28.547481713284135,27.462654790039114" fill="none" id="id38" stroke="none" /><text fill="#e1ed5e" style="font-size:6.75px; font-family:Arial;" text-anchor="middle"><textPath startOffset="19.985693538727396" xlink:href="#id38">February</textPath></text><path d="M 114.94478906791727 85.2469230424477 l 41.440985547248594 -40.9093795969229 a79.23171491663626,79.23171491663626 0 0,0 0.9497835282192756,0.9788354141591208 l -42.13903333917098 40.18997998721367" fill="#47fffc" stroke="none" /><path d="M 116.15771136456269 86.58626213691792 l 45.267919971100994 -37.58032300484535 a79.8342184078153,79.8342184078153 0 0,0 0.8686780614327196,1.0648965896663445 l -45.90809652461012 36.7955422455709" fill="#47fcff" stroke="none" /><line stroke="#e1ed5e" stroke-width="0.3" x1="172.23445277983987" x2="176.4835382374775" y1="55.19839476539836" y2="52.563006222186495" /><path d="M 173.08426987136738 54.67131705675599 a86.0,86.0 0 0,1 12.851231095245387,41.99856678651699" fill="none" id="id39" stroke="none" /><text fill="#e1ed5e" style="font-size:6.75px; font-family:Arial;" text-anchor="middle"><textPath startOffset="22.20632615414155" xlink:href="#id39">March</textPath></text><line stroke="#e1ed5e" stroke-width="0.3" x1="184.98032266829074" x2="189.97916517819016" y1="98.17113171792111" y2="98.06355123074" /><path d="M 185.9800911702706 98.14961562048488 a86.0,86.0 0 0,1 -9.607161424134198,41.387399972396054" fill="none" id="id40" stroke="none" /><text fill="#e1ed5e" style="font-size:6.75px; font-family:Arial;" text-anchor="middle"><textPath startOffset="21.466115282336823" xlink:href="#id40">April</textPath></text><line stroke="#e1ed5e" stroke-width="0.3" x1="174.80103733775053" x2="179.2010983576182" y1="140.37084112569926" y2="142.7455964860345" /><path d="M 175.68104954172406 140.8457921977663 a86.0,86.0 0 0,1 -30.038265399797805,32.042727171017184" fill="none" id="id41" stroke="none" /><text fill="#e1ed5e" style="font-size:6.75px; font-family:Arial;" text-anchor="middle"><textPath startOffset="22.206326154141568" xlink:href="#id41">May</textPath></text><path d="M 115.32070863581623 114.36230785411682 l 41.6482892100618 39.042942820140055 a78.08705088005226,78.08705088005226 0 0,0 -0.9277241722243184,0.9727150855848347 l -40.97005848645851 -39.754065022307394" fill="#45ffef" stroke="none" /><line stroke="#e1ed5e" stroke-width="0.3" x1="143.8653032363475" x2="146.44561519142675" y1="172.8068346515853" y2="177.08958963109032" /><path d="M 144.38136562736335 173.6633856474863 a86.0,86.0 0 0,1 -40.68145358897372,12.25698825130547" fill="none" id="id42" stroke="none" /><text fill="#e1ed5e" style="font-size:6.75px; font-family:Arial;" text-anchor="middle"><textPath startOffset="21.466115282336833" xlink:href="#id42">June</textPath></text><path d="M 110.21172684928248 118.3499491758327 l 26.420825853663423 47.47686838414754 a75.33335136318463,75.33335136318463 0 0,0 -1.1385279632456453,0.6208162232221399 l -25.599675078549126 -47.92462525912944" fill="#41ffd1" stroke="none" /><path d="M 109.2508944713604 118.85261126421891 l 21.678500943907014 44.17911720339628 a70.2112974838746,70.2112974838746 0 0,0 -1.0895701149172317,0.5230598682271211 l -20.91481816098955 -44.54573134812296" fill="#3aff96" stroke="none" /><path d="M 101.98527174616119 120.90594882070398 l 4.900835996607429 51.608363803017575 a72.84053826775198,72.84053826775198 0 0,0 -1.2492349407569303,0.10778924719500116 l -4.011756738108957 -51.68507730249124" fill="#3effb5" stroke="none" /><line stroke="#e1ed5e" stroke-width="0.3" x1="102.19456741930631" x2="102.32365962044197" y1="184.97166512339345" y2="189.96999836594603" /><path d="M 102.22038585953345 185.97133177190398 a86.0,86.0 0 0,1 -42.740103519485714,-10.115201625700543" fill="none" id="id43" stroke="none" /><text fill="#e1ed5e" style="font-size:6.75px; font-family:Arial;" text-anchor="middle"><textPath startOffset="22.20632615414155" xlink:href="#id43">July</textPath></text><path d="M 94.11515582081647 120.15858648285463 l -6.483139906018584 22.208053857775 a44.13501154507699,44.13501154507699 0 0,0 -0.7274396190057056,-0.21917158992823307 l 6.864454499464536 -22.09316689874104" fill="#fffb17" stroke="none" /><path d="M 91.07499286063937 119.00905698771935 l -13.82419092235066 29.44365522052697 a53.52748203293436,53.52748203293436 0 0,0 -0.8306632527799027,-0.39876884065709955 l 14.328966843130805 -29.20133210337031" fill="#8eff24" stroke="none" /><path d="M 90.7491055286396 118.85261126421891 l -17.376247351244427 35.41145535257103 a60.44496345794683,60.44496345794683 0 0,0 -0.9301216067473297,-0.46638228263092674 l 17.983222865674513 -35.1071052290308" fill="#40ff2d" stroke="none" /><path d="M 90.42595943632237 118.69057910512821 l -18.242375883281383 35.61302746151958 a61.01339779176312,61.01339779176312 0 0,0 -0.9306260181176929,-0.48685954857728 l 18.85269280392557 -35.29373849399758" fill="#3aff2e" stroke="none" /><path d="M 90.10565033884886 118.52300852407294 l -17.90042775742366 33.51102268370152 a58.99228810174903,58.99228810174903 0 0,0 -0.8915622151984806,-0.4861508061947052 l 18.474612784490784 -33.19793122574705" fill="#50ff2b" stroke="none" /><line stroke="#e1ed5e" stroke-width="0.3" x1="58.666819895761336" x2="56.23545636021788" y1="174.27360380694188" y2="178.64263932499728" /><path d="M 58.180547188652646 175.14741091055294 a86.0,86.0 0 0,1 -31.652253787137756,-30.449443065178592" fill="none" id="id44" stroke="none" /><text fill="#e1ed5e" style="font-size:6.75px; font-family:Arial;" text-anchor="middle"><textPath startOffset="22.20632615414155" xlink:href="#id44">August</textPath></text><path d="M 89.7882731507175 118.34994917583269 l -18.837669160347094 33.8503249044316 a59.73889873925528,59.73889873925528 0 0,0 -0.8942379276882875,-0.5077716335177167 l 19.417555854956586 -33.52105010511926" fill="#48ff2c" stroke="none" /><path d="M 89.4739219176387 118.17145234162733 l -17.36691458676426 29.980972805372307 a55.64777702278227,55.64777702278227 0 0,0 -0.8247321959684956,-0.4872663184584898 l 17.88041465376114 -29.67758791462007" fill="#75ff27" stroke="none" /><path d="M 89.1626897886671 117.98757091392108 l -8.978861217952787 14.902950984579903 a38.398790096441985,38.398790096441985 0 0,0 -0.5632202879589239,-0.3459759021944323 l 9.234060705844021 -14.746186615557091" fill="#ffac0f" stroke="none" /><path d="M 88.8546689885994 117.79835938074946 l -9.146029102074204 14.605605943780164 a38.232921206834746,38.232921206834746 0 0,0 -0.5547746120299356,-0.3540834056498016 l 9.396085516151063 -14.44600810930656" fill="#ffaa0f" stroke="none" /><path d="M 88.54995079064634 117.60387380957326 l -9.358046825347202 14.38752553857267 a38.16315622222415,38.16315622222415 0 0,0 -0.5475964069378855,-0.3629170389990156 l 9.604317931025049 -14.224310478482336" fill="#ffa90f" stroke="none" /><path d="M 88.24862548938628 117.40417183066458 l -12.429663079758015 18.40873949187739 a43.21211862826475,43.21211862826475 0 0,0 -0.6128777159184576,-0.4215428815260869 l 12.744697680299364 -18.1920558209862" fill="#ffee16" stroke="none" /><path d="M 87.95078237400918 117.19931262002967 l -15.894785411972565 22.688558860378546 a48.70225453737507,48.70225453737507 0 0,0 -0.6824639324998587,-0.4869198952974008 l 16.28297667232131 -22.41159470323693" fill="#c8ff1d" stroke="none" /><path d="M 87.65650970185807 116.9893568818739 l -16.753456367624945 23.059154449801635 a49.502682403621584,49.502682403621584 0 0,0 -0.6850582624328049,-0.5067897251177875 l 17.147899600476315 -22.76735477594408" fill="#beff1e" stroke="none" /><path d="M 87.36589467227662 116.77436683061367 l -9.91855027237897 13.168910372440966 a37.48629248506444,37.48629248506444 0 0,0 -0.5120828756788328,-0.39264331273650516 l 10.14376187655129 -12.996227717877092" fill="#ff9f0e" stroke="none" /><path d="M 87.07902340077011 116.55440617244103 l -10.904099044639267 13.970374695999642 a38.72204122334473,38.72204122334473 0 0,0 -0.5219039826170149,-0.41463208817263913 l 11.14296051997364 -13.780608693821868" fill="#ffb110" stroke="none" /><path d="M 86.79598089348748 116.32954008644617 l -15.875555259095407 19.633455079607263 a46.248877463118,46.248877463118 0 0,0 -0.6147353914872651,-0.5058853762216452 l 16.21116077912736 -19.357274584528444" fill="#e8ff1a" stroke="none" /><path d="M 86.51685102203217 116.09983520530335 l -17.848503732470512 21.312378081972888 a48.799038562457014,48.799038562457014 0 0,0 -0.6393476294466404,-0.5448659201650333 l 18.21271683849421 -21.0019877715849" fill="#c7ff1e" stroke="none" /><path d="M 86.24171649860922 115.8653595955263 l -17.976607911022434 20.72971884809055 a48.438652946300316,48.438652946300316 0 0,0 -0.625222252190407,-0.5516859442132654 l 18.330772516119428 -20.417209762104996" fill="#ccff1d" stroke="none" /><path d="M 85.44109423537348 115.13401014063109 l -19.23188908619957 19.991585161654708 a48.740386354547674,48.740386354547674 0 0,0 -0.5996229112342657,-0.5868572225362598 l 19.57316194980963 -19.657577836195873" fill="#c8ff1d" stroke="none" /><path d="M 85.18274418774928 114.88116024355367 l -19.283353877127322 19.36651986810065 a48.329651087272566,48.329651087272566 0 0,0 -0.5844651419718052,-0.5920601030856464 l 19.61385964415466 -19.031719271034337" fill="#cdff1d" stroke="none" /><path d="M 84.9287848128048 114.62390073753433 l -18.738883556499736 18.182712519113423 a47.110472831735166,47.110472831735166 0 0,0 -0.5597025872836922,-0.5868459251054948 l 19.049092695162386 -17.85745947742543" fill="#ddff1b" stroke="none" /><path d="M 84.67929136418377 114.36230785411684 l -19.54706932589847 18.32428472975531 a47.793046301020425,47.793046301020425 0 0,0 -0.55747992210768,-0.6050343518260787 l 19.85959565600188 -17.98509912312789" fill="#d4ff1c" stroke="none" /><path d="M 84.19399662182784 113.82643327865904 l -21.25610112490321 18.593951736956424 a49.241049488791596,49.241049488791596 0 0,0 -0.5525724832680707,-0.642766634580872 l 21.573016117742064 -18.22530800321402" fill="#c2ff1e" stroke="none" /><path d="M 83.72743513129214 113.27417163493433 l -19.88907721420168 16.22430309738497 a46.667165862796224,46.667165862796224 0 0,0 -0.5024100141306233,-0.6268337416991299 l 20.165405140387165 -15.87954152210758" fill="#e2ff1b" stroke="none" /><path d="M 83.50135304334701 112.99209946851258 l -18.577382363710687 14.629029893666152 a44.645880214474715,44.645880214474715 0 0,0 -0.47025544489240606,-0.607868553595336 l 18.826444625821164 -14.307083345957563" fill="#fdff18" stroke="none" /><path d="M 83.28015986056508 112.70617746262583 l -21.125848100047776 16.054506069981837 a47.53391458298937,47.53391458298937 0 0,0 -0.48946064183093546,-0.6557125162474621 l 21.399070008573798 -15.688480674225065" fill="#d7ff1c" stroke="none" /><path d="M 83.06392112726016 112.41649034213515 l -21.29111698749419 15.60933616540982 a47.40005753970878,47.40005753970878 0 0,0 -0.47675476166406866,-0.6621706658015695 l 21.556651541533867 -15.240531894157114" fill="#d9ff1c" stroke="none" /><path d="M 82.85270091963577 112.12312394758628 l -16.18665592136745 11.44395015868008 a40.823516972300695,40.823516972300695 0 0,0 -0.400729655005776,-0.577280955865785 l 16.381246483535357 -11.163627940627283" fill="#ffce13" stroke="none" /><path d="M 82.6465618267979 111.8261652097733 l -22.48591517662928 15.32388827606593 a48.21098919973175,48.21098919973175 0 0,0 -0.4614409102010904,-0.6897915516257735 l 22.7463591922411 -14.934559810234335" fill="#cfff1d" stroke="none" /><path d="M 82.44556493220864 111.52570212397912 l -21.60750237482018 14.186821453017698 a46.848598836642246,46.848598836642246 0 0,0 -0.43679656237211184,-0.6779179647809879 l 21.848503800569336 -13.812781888315262" fill="#e0ff1b" stroke="none" /><path d="M 82.24976979558568 111.22182372390057 l -14.71582711311362 9.303452175718215 a38.41004853551322,38.41004853551322 0 0,0 -0.3484986875278721,-0.5618908486927582 l 14.873790440309449 -9.048764995660193" fill="#ffac10" stroke="none" /><line stroke="#e1ed5e" stroke-width="0.3" x1="26.63291911575756" x2="22.317208475507996" y1="142.92168965132927" y2="145.44649492493687" /><path d="M 25.769776987707644 143.4266507060508 a86.0,86.0 0 0,1 -11.730757126820373,-40.83630448921669" fill="none" id="id45" stroke="none" /><text fill="#e1ed5e" style="font-size:6.75px; font-family:Arial;" text-anchor="middle"><textPath startOffset="21.46611528233685" xlink:href="#id45">September</textPath></text><path d="M 81.69416730710424 110.29060199501025 l -14.559926872329596 8.184845509800022 a37.70278918465054,37.70278918465054 0 0,0 -0.3131550411085369,-0.5684673616424822 l 14.69865832288965 -7.933007629759718" fill="#ffa20f" stroke="none" /><path d="M 81.51974371655577 109.97397251340807 l -21.604152645186005 11.659969502241003 a45.5498329996293,45.5498329996293 0 0,0 -0.36645381124108023,-0.6931925091436192 l 21.801658964651974 -11.286361978011257" fill="#f1ff19" stroke="none" /><path d="M 81.35079622478065 109.6543875284942 l -55.94761132565806 28.96316258548259 a84.0,84.0 0 0,0 -0.6536853208549331,-1.28978315318926 l 56.437875316299255 -27.995825220590643" fill="#4dd2ff" stroke="none" /><path d="M 81.02952815118164 109.00673069616217 l -23.86606544473886 11.331042577685476 a47.41934150787789,47.41934150787789 0 0,0 -0.34373463953522965,-0.7403738334897799 l 24.057574701113918 -10.91854867691687" fill="#d9ff1c" stroke="none" /><path d="M 80.87730276802145 108.67885076344099 l -29.648164964592254 13.455842343583088 a53.5587680808571,53.5587680808571 0 0,0 -0.37378642633616627,-0.8427897146533873 l 29.875392475659698 -12.943504292437003" fill="#8dff24" stroke="none" /><path d="M 80.73074385275274 108.34839909993369 l -29.811158070717163 12.915674756916317 a53.48876421078109,53.48876421078109 0 0,0 -0.3587542836344981,-0.8479891522097724 l 30.02906333554397 -12.400611079040385" fill="#8eff24" stroke="none" /><path d="M 80.58989483394504 108.01547362559985 l -21.95358075006978 9.06581113210042 a44.751813388302594,44.751813388302594 0 0,0 -0.2878977617143292,-0.7145386342513651 l 22.106381126041498 -8.686573130006249" fill="#fbff18" stroke="none" /><path d="M 80.32549172779594 107.34259656027581 l -19.1939568108123 7.163253043343514 a41.48707329557587,41.48707329557587 0 0,0 -0.24393557304293575,-0.6712059308543138 l 19.314416644860458 -6.831799315483083" fill="#ffd714" stroke="none" /><path d="M 80.0844068197444 106.66101706037122 l -35.588375154064636 11.902973308730413 a58.52616713301258,58.52616713301258 0 0,0 -0.31132506605121946,-0.9581600304958373 l 35.7879924711321 -11.28861437825677" fill="#55ff2b" stroke="none" /><path d="M 79.97269907076064 106.31721596034903 l -42.29075934710014 13.339783571770981 a65.34476465036238,65.34476465036238 0 0,0 -0.32912984080457863,-1.0756153630745091 l 42.51411596041085 -12.609841236144424" fill="#34ff5a" stroke="none" /><path d="M 79.86692584326677 105.97154293290107 l -33.255981855305194 9.863845028272479 a55.68797728179266,55.68797728179266 0 0,0 -0.26467000807820323,-0.9213510195632738 l 33.4208445002695 -9.289936533204608" fill="#75ff27" stroke="none" /><path d="M 79.76711848015287 105.62410040840567 l -38.984588281141114 10.836481133862211 a61.46266732204683,61.46266732204683 0 0,0 -0.2745681454593756,-1.021770211111527 l 39.16534450294226 -10.163819989575146" fill="#35ff2f" stroke="none" /><path d="M 79.67330655649465 105.27499134158121 l -28.18027308992958 7.313078094374885 a50.113723613399834,50.113723613399834 0 0,0 -0.2094960919905212,-0.8368327493025173 l 28.301980496215165 -6.826917505674976" fill="#b7ff1f" stroke="none" /><path d="M 79.58551787078972 104.9243191809786 l -36.26131206493657 8.746843216430172 a58.301340712144984,58.301340712144984 0 0,0 -0.2269294569190769,-0.9776061611117068 l 36.4065020877862 -8.12136839796989" fill="#57ff2a" stroke="none" /><path d="M 79.50377843672027 104.57218783832718 l -33.987410533702 7.58173035057488 a55.82279009348943,55.82279009348943 0 0,0 -0.20113738445274493,-0.939646898080036 l 34.11288195687918 -6.99556963307868" fill="#73ff27" stroke="none" /><path d="M 79.4281124754447 104.21870165774334 l -43.37039444149292 8.894018825881366 a65.27295658622555,65.27295658622555 0 0,0 -0.21624018878952977,-1.1026040639358514 l 43.51706456325812 -8.146151034877562" fill="#34ff5a" stroke="none" /><path d="M 79.35854240842038 103.8639653848113 l -5.808338801802964 1.0872885295938766 a26.909229728409304,26.909229728409304 0 0,0 -0.08130887429426843,-0.4560233472644404 l 5.826194118436421 -0.9871464315962224" fill="#ff0000" stroke="none" /><path d="M 79.29508885075956 103.50808413554451 l -34.65369122427911 5.8714603286965215 a56.14757974397577,56.14757974397577 0 0,0 -0.15325146513258184,-0.9542970196705481 l 34.74962444377298 -5.274084079332758" fill="#6fff27" stroke="none" /><path d="M 79.23777060512086 103.15116336523772 l -34.69891893146143 5.266388308817326 a56.096293548341826,56.096293548341826 0 0,0 -0.1366771473263021,-0.9559196500662284 l 34.78443012980433 -4.668323186770698" fill="#70ff27" stroke="none" /><path d="M 79.18660465613746 102.79330883721812 l -34.938221110487504 4.6889630534685365 a56.25146335802398,56.25146335802398 0 0,0 -0.12053480732225257,-0.9607810096131233 l 35.0137574270566 -4.0868642895680045" fill="#6eff28" stroke="none" /><path d="M 79.1416061653843 102.43462659150553 l -53.80941805790818 6.2807252138373935 a75.1747264039466,75.1747264039466 0 0,0 -0.1389576125852054,-1.2865749128992188 l 53.909557971994445 -5.353553979053392" fill="#41ffd0" stroke="none" /><path d="M 79.10278846688536 102.07522291339032 l -35.56488387131043 3.531813888415412 a56.73981916745244,56.73981916745244 0 0,0 -0.08815045273827976,-0.9727329005081758 l 35.62040892032579 -2.91909959935867" fill="#69ff28" stroke="none" /><path d="M 79.07016306316243 101.71520430193888 l -36.05634841508273 2.954824927704451 a57.17722006156944,57.17722006156944 0 0,0 -0.0719437580968223,-0.981615419649148 l 36.10186873184389 -2.333736371558542" fill="#64ff29" stroke="none" /><path d="M 79.04373962182676 101.35467743843564 l -35.91725014635397 2.321802055608756 a56.9922161426772,56.9922161426772 0 0,0 -0.05485812663095392,-0.9795287026007742 l 35.951894623872455 -1.7032016366725449" fill="#66ff29" stroke="none" /><path d="M 79.0235259727143 100.99374915477108 l -36.97997805492455 1.7519065352800622 a58.02145261130442,58.02145261130442 0 0,0 -0.03867507549682781,-0.9980318497382047 l 37.00465526327258 -1.1150974385278607" fill="#5aff2a" stroke="none" /><path d="M 79.0095281055655 100.63252640178507 l -35.79256061650637 1.0785722060605876 a56.80880776415168,56.80880776415168 0 0,0 -0.021040730749001597,-0.9776800799421532 l 35.80582340994038 -0.46230231032830543" fill="#68ff28" stroke="none" /><line stroke="#e1ed5e" stroke-width="0.3" x1="15.007084014347285" x2="10.007500721073583" y1="101.09737516637583" y2="101.16192664675087" /><path d="M 14.007167355692545 101.11028546245083 a86.0,86.0 0 0,1 10.666146001902526,-42.60595125391555" fill="none" id="id46" stroke="none" /><text fill="#e1ed5e" style="font-size:6.75px; font-family:Arial;" text-anchor="middle"><textPath startOffset="22.20632615414155" xlink:href="#id46">October</textPath></text><path d="M 79.00019446554 99.90962569577889 l -35.61222212404882 -0.1532599809530407 a56.61255190567441,56.61255190567441 0 0,0 0.012581446513892446,-0.9744468977414681 l 35.604307670417214 0.7662431367549807" fill="#6aff28" stroke="none" /><path d="M 79.01574976396665 99.18683210126434 l -51.72238731015754 -2.0043120213258976 a72.76120763410353,72.76120763410353 0 0,0 0.05927055824727202,-1.2511078069224721 l 51.68022314367677 2.8943309348713786" fill="#3effb4" stroke="none" /><path d="M 79.03285615573316 98.82574320788736 l -36.269542419292215 -2.031261713517414 a57.326377901652116,57.326377901652116 0 0,0 0.06365796440591409,-0.9847605336774973 l 36.22920386388189 2.6552813114479226" fill="#62ff29" stroke="none" /><path d="M 79.05617556472873 98.46500227214037 l -34.637041645888395 -2.538589854519545 a55.72994518320576,55.72994518320576 0 0,0 0.07835501896406107,-0.9561296973467837 l 34.58821214310484 3.1344334690741067" fill="#74ff27" stroke="none" /><path d="M 79.08570108090925 98.10471618934814 l -19.002333873210954 -1.7220187917283436 a40.08020024391898,40.08020024391898 0 0,0 0.06817999790212502,-0.6865632743811384 l 18.9698767496266 2.0488575968139124" fill="#ffc412" stroke="none" /><path d="M 79.26566170972629 96.67025291283419 l -38.79197565649607 -6.229640229619292 a60.28900345802467,60.28900345802467 0 0,0 0.17336860426814032,-1.0232313162245785 l 38.6789951907077 6.896457334159699" fill="#42ff2d" stroke="none" /><path d="M 79.46518482838121 95.60439243477599 l -17.60967911864117 -3.769463621082321 a39.0085994639275,39.0085994639275 0 0,0 0.14619979680954295,-0.6553850221978753 l 17.54218493482959 4.072026812830155" fill="#ffb510" stroke="none" /><path d="M 79.71946130924805 94.55025226153421 l -36.92605082788493 -9.922698063316442 a59.236019230553865,59.236019230553865 0 0,0 0.27308715811919415,-0.9824398061171457 l 36.74977689919937 10.556849172852532" fill="#4dff2c" stroke="none" /><path d="M 79.81627453868168 94.20196356495316 l -35.488948916215136 -10.194660012200337 a57.924200572823295,57.924200572823295 0 0,0 0.28353648730499625,-0.9559440816542778 l 35.30820653179843 10.804033480601154" fill="#5bff2a" stroke="none" /><path d="M 80.803312248108 91.48605970444005 l -16.4352905140125 -7.28923051648292 a38.979200644144754,38.979200644144754 0 0,0 0.2773048696598027,-0.6110045221419704 l 16.307383327389346 7.571057047466963" fill="#ffb410" stroke="none" /><path d="M 81.43458229118936 90.18545643968196 l -15.639734106883509 -8.267891090376846 a38.690655895594944,38.690655895594944 0 0,0 0.31632725015231644,-0.5861063527489682 l 15.495098757512718 8.535878426458288" fill="#ffb010" stroke="none" /><line stroke="#e1ed5e" stroke-width="0.3" x1="26.266209847984243" x2="21.928928074336255" y1="57.71137044288968" y2="55.22380399835378" /><path d="M 25.398753493254645 57.2138571539825 a86.0,86.0 0 0,1 29.58750427330803,-30.4925239686951" fill="none" id="id47" stroke="none" /><text fill="#e1ed5e" style="font-size:6.75px; font-family:Arial;" text-anchor="middle"><textPath startOffset="21.46611528233685" xlink:href="#id47">November</textPath></text><path d="M 81.78341655067845 89.55222093294921 l -46.057354792931115 -26.415330219742085 a74.09472291235687,74.09472291235687 0 0,0 0.6440607066882236,-1.1009085230756779 l 45.595834411772564 27.204218155171652" fill="#40ffc3" stroke="none" /><path d="M 81.96595687620814 89.24020034530311 l -29.527104083250396 -17.61699925736651 a55.383259565916,55.383259565916 0 0,0 0.49550664342139844,-0.814482637085354 l 29.219481641542778 18.122649667658933" fill="#78ff26" stroke="none" /><path d="M 82.34701348167596 88.62581576622439 l -30.53050810457989 -19.671437667037846 a57.319104958850154,57.319104958850154 0 0,0 0.5415382515289708,-0.8247999098825007 l 30.187373217693 20.194055640898018" fill="#62ff29" stroke="none" /><path d="M 83.39014120810768 87.1503855733568 l -13.86256344124547 -10.724269087214235 a38.526568763381334,38.526568763381334 0 0,0 0.41030047107838163,-0.5210399316043482 l 13.675908889573117 10.961301412771629" fill="#ffae10" stroke="none" /><path d="M 83.6137871275137 86.86637796730984 l -14.097857325794445 -11.299494949114646 a39.06732319087483,39.06732319087483 0 0,0 0.42509248855494375,-0.52111312746673 l 13.901266345163108 11.540492246189459" fill="#ffb610" stroke="none" /><path d="M 84.31358615837235 86.03803664274999 l -13.419252085447283 -11.944036909284748 a38.96486415821555,38.96486415821555 0 0,0 0.45024152764394954,-0.49716794026734445 l 13.211666917187289 12.173257636821647" fill="#ffb410" stroke="none" /><path d="M 84.80347519578584 85.50635884689758 l -12.917366378115423 -12.3199004601129 a38.850442613379556,38.850442613379556 0 0,0 0.46571641793994945,-0.47996170631599866 l 12.703385696472356 12.54042636197902" fill="#ffb310" stroke="none" /><path d="M 85.05521093208273 85.24692304244772 l -12.460944592327808 -12.301095298096902 a38.50977114830246,38.50977114830246 0 0,0 0.46975355771165656,-0.4677362866476495 l 12.247355234448838 12.513767435394664" fill="#ffae10" stroke="none" /><path d="M 85.57189188830299 84.74124197986013 l -12.499668909353126 -13.21929540194245 a39.193171624740586,39.193171624740586 0 0,0 0.49419251691935506,-0.45929808543038125 l 12.270268508638916 13.432498073447476" fill="#ffb711" stroke="none" /><path d="M 85.83668400450813 84.49514656593477 l -11.878759896974936 -13.003906093719248 a38.61268038613795,38.61268038613795 0 0,0 0.4945898458733169,-0.44404764701558347 l 11.653159063505647 13.206452749504113" fill="#ffaf10" stroke="none" /><path d="M 86.10567301691215 84.25364557470407 l -23.601838506459494 -26.747816908560726 a56.67201270266203,56.67201270266203 0 0,0 0.7370227672507537,-0.6391388810169066 l 23.137921940561966 27.15012078299731" fill="#6aff28" stroke="none" /><path d="M 86.93701828274178 83.55741782278169 l -22.811858036776503 -28.713647351216068 a57.67225669767327,57.67225669767327 0 0,0 0.7826055061583643,-0.6108360110394441 l 22.314219975458712 29.102061751478733" fill="#5eff29" stroke="none" /><path d="M 87.22198572758235 83.33499621200491 l -21.58526328883664 -28.151361143007524 a56.474254403051695,56.474254403051695 0 0,0 0.7765313415480171,-0.5848673072709383 l 21.09748579353023 28.518745039784317" fill="#6cff28" stroke="none" /><path d="M 87.80319425747018 82.90503203632743 l -25.877601866978598 -36.26988772561332 a65.55507865568694,65.55507865568694 0 0,0 0.9242294015282262,-0.6474817593805438 l 25.249441325866712 36.709954327757806" fill="#34ff5d" stroke="none" /><path d="M 88.09926311788651 82.69761687909137 l -17.514446037286703 -25.46410852449637 a51.90593216423599,51.90593216423599 0 0,0 0.7405130289932301,-0.4999977027551663 l 17.073528313886936 25.761818139550204" fill="#a1ff22" stroke="none" /><path d="M 88.70189139769569 82.29822771554957 l -27.623478268951313 -43.28021080640965 a72.34426159876568,72.34426159876568 0 0,0 1.0554712471254322,-0.6609359981208303 l 26.87438786945364 43.74929114585341" fill="#3dffaf" stroke="none" /><path d="M 89.00827224532344 82.1063720568725 l -27.41271348544221 -44.62564093359776 a73.37274758277763,73.37274758277763 0 0,0 1.0818564741650196,-0.6518064207097175 l 26.640494945059544 45.09089396376609" fill="#3fffbb" stroke="none" /><line stroke="#e1ed5e" stroke-width="0.3" x1="56.76296977257108" x2="54.21961505331056" y1="26.818313649435495" y2="22.513508569990535" /><path d="M 56.25429882871898 25.957352633546506 a86.0,86.0 0 0,1 42.26535254187918,-11.944610805530505" fill="none" id="id48" stroke="none" /><text fill="#e1ed5e" style="font-size:6.75px; font-family:Arial;" text-anchor="middle"><textPath startOffset="22.20632615414155" xlink:href="#id48">December</textPath></text><path d="M 89.3179101791058 81.91981866633112 l -27.08568060092908 -45.84440170618608 a74.24794138193235,74.24794138193235 0 0,0 1.1059523177138875,-0.6406389667025532 l 26.29253155074987 46.303844830278685" fill="#40ffc5" stroke="none" /><path d="M 89.94658935756843 81.56283822128135 l -23.992858730562478 -44.00100957602294 a71.11732348972748,71.11732348972748 0 0,0 1.0798148034451713,-0.576799671645592 l 23.231898880589 44.40748797417028" fill="#3cffa1" stroke="none" /><path d="M 90.26544431104013 81.39251694778311 l -24.402964846824034 -46.645966114930154 a73.64362115309453,73.64362115309453 0 0,0 1.128288702952112,-0.5779532966230515 l 23.59641565628316 47.05911193686571" fill="#3fffbe" stroke="none" /><path d="M 90.58718382345135 81.22770947309562 l -20.93512144625842 -41.7516049005952 a67.70627176027855,67.70627176027855 0 0,0 1.046315742371955,-0.5134225906825364 l 20.213334436876043 42.10578265141256" fill="#37ff78" stroke="none" /><path d="M 91.23893434514133 80.91482961587045 l -14.967127345830432 -32.60450118847402 a56.875735514906296,56.875735514906296 0 0,0 0.8932683141985922,-0.400783454434531 l 14.403676913165066 32.85730497342508" fill="#67ff28" stroke="none" /><path d="M 91.56875222667455 80.76684994638697 l -21.105959476764074 -48.14638313991465 a73.5693421576708,73.5693421576708 0 0,0 1.1642041584607723,-0.4984514633171761 l 20.27407156051299 48.50255413119461" fill="#3fffbd" stroke="none" /><path d="M 91.90106846888425 80.62456947434976 l -13.984718059480365 -33.45625680884587 a57.26145969018073,57.26145969018073 0 0,0 0.9126825813913442,-0.372306141044386 l 13.40675160850064 33.69202383607384" fill="#63ff29" stroke="none" /><path d="M 92.23578459929587 80.48803036053334 l -20.366883836179476 -51.18328105967259 a76.08664282046844,76.08664282046844 0 0,0 1.2210704547216324,-0.473756365964278 l 19.482830216458165 51.526280129527414" fill="#42ffda" stroke="none" /><path d="M 92.57280143429618 80.3572730644239 l -12.767738899337951 -33.76686466179902 a57.100087336319824,57.100087336319824 0 0,0 0.9223504202099827,-0.339709443798733 l 12.184606153355402 33.98163737340408" fill="#65ff29" stroke="none" /><path d="M 93.25333710446033 80.11325718540243 l -11.2881017963865 -33.27327610189995 a56.13590961849217,56.13590961849217 0 0,0 0.9177343838607581,-0.3025625973827386 l 10.71368459028333 33.462652423541925" fill="#70ff27" stroke="none" /><path d="M 93.59665428221793 80.00007090966166 l -11.328558665864607 -35.383123135745215 a58.15241101577722,58.15241101577722 0 0,0 0.9559553759420975,-0.2970199886575277 l 10.71781791721178 35.57288325928527" fill="#59ff2a" stroke="none" /><path d="M 93.94186890950719 79.89281104454417 l -10.192431316904093 -33.82910328997598 a56.33120271875374,56.33120271875374 0 0,0 0.9308323043244072,-0.27173547473472803 l 9.608608794856265 33.999537093629414" fill="#6dff28" stroke="none" /><path d="M 94.28887869178378 79.79150937346287 l -4.788408200201317 -16.94352072168209 a38.6071504661551,38.6071504661551 0 0,0 0.6410664218383654,-0.17522766951280586 l 4.49604388913923 17.023434932021196" fill="#ffaf10" stroke="none" /><path d="M 94.63758080256005 79.69619591428918 l -4.542792261656857 -17.200438959863114 a38.79022377443708,38.79022377443708 0 0,0 0.6470414568621454,-0.16494527433316963 l 4.24604191610971 17.27608723036515" fill="#ffb210" stroke="none" /><path d="M 95.33964822691252 79.52364482259891 l -3.9334765737530897 -17.28265747475862 a38.72462939940055,38.72462939940055 0 0,0 0.6512326012788939,-0.1423342228987442 l 3.6354012483206746 17.34780519575323" fill="#ffb110" stroke="none" /><path d="M 95.692805502759 79.44645832069477 l -3.6388926350091255 -17.364465776524682 a38.74165187667768,38.74165187667768 0 0,0 0.6538734656107201,-0.1311608658793186 l 3.339452759931269 17.424530598481212" fill="#ffb110" stroke="none" /><path d="M 96.40284397218896 79.31037775812273 l -3.0247501239307386 -17.39733749561056 a38.65832566378806,38.65832566378806 0 0,0 0.6565855097068942,-0.10834223494337392 l 2.724835408084959 17.44682599349356" fill="#ffb010" stroke="none" /><path d="M 97.11714578562143 79.19881850522333 l -2.3841725768739956 -17.202953322811656 a38.36737982262018,38.36737982262018 0 0,0 0.6549590748644837,-0.0850324853687243 l 2.087698773501655 17.241444131344515" fill="#ffac0f" stroke="none" /><path d="M 97.47563105711357 79.15227682838746 l -4.362657338242106 -36.0293897358281 a57.29255714037126,57.29255714037126 0 0,0 0.9800663888520672,-0.11012187820011143 l 3.7418242458803204 36.09914756749881" fill="#63ff29" stroke="none" /><path d="M 98.91598698831166 79.02799685794201 l -0.9274728864336228 -17.943478610247382 a38.967432498592416,38.967432498592416 0 0,0 0.6701640707198491,-0.028858674612770502 l 0.6184679833244494 17.956785011384348" fill="#ffb410" stroke="none" /><path d="M 99.27714615592234 79.0124445844662 l -0.613117612769928 -17.801440747219942 a38.81199612294678,38.81199612294678 0 0,0 0.6678867444644088,-0.017249544151685427 l 0.30660423311064017 17.809357083513987" fill="#ffb210" stroke="none" /></svg>