<?xml version="1.0" encoding="utf-8" ?>
<svg baseProfile="full" height="200mm" version="1.1" viewBox="0,0,200,200" width="200mm" xmlns="http://www.w3.org/2000/svg" xmlns:ev="http://www.w3.org/2001/xml-events" xmlns:xlink="http://www.w3.org/1999/xlink"><defs /><rect fill="#1a1a1a" height="200" width="200" x="0" y="0" /><text alignment-baseline="middle" fill="#e1ed5e" style="dominant-baseline: central; font-size:9.0px; font-family:Arial;" text-anchor="middle" x="100.0" y="100.0">2024</text><line stroke="#e1ed5e" stroke-width="0.3" x1="100.0" x2="100.0" y1="15.0" y2="10.0" /><path d="M 100.0 14.0 a86.0,86.0 0 0,1 42.35913384403234,11.155469271406648" fill="none" id="id73" stroke="none" /><text fill="#e1ed5e" style="font-size:6.75px; font-family:Arial;" text-anchor="middle"><textPath startOffset="22.145653131862478" xlink:href="#id73">January</textPath></text><path d="M 100.0 79.0 l 0.0 -26.14033409497175 a47.14033409497175,47.14033409497175 0 0,0 0.8092265198213598,0.006946236414692336 l -0.4487335949725051 26.136482256751492" fill="#fbff18" stroke="none" /><path d="M 103.94208987418118 79.37332000966035 l 11.82626962254352 -61.88003997101897 a84.0,84.0 0 0,0 1.4140140578761722,0.2828424133485634 l -12.88678016595065 61.66790816100754" fill="#4dd2ff" stroke="none" /><path d="M 106.72888874123014 80.10723608172694 l 6.258258490009744 -18.501429206055295 a40.53122325903974,40.53122325903974 0 0,0 0.6571736938884635,0.22859912441490812 l -6.574937955943226 18.391271649071797" fill="#ffa30f" stroke="none" /><path d="M 107.06938296918511 80.22567764915836 l 8.705242269591167 -24.3501119590513 a46.85941212384013,46.85941212384013 0 0,0 0.755130162372273,0.2772942552657151 l -9.121961583617564 24.197086854776863" fill="#ffff18" stroke="none" /><line stroke="#e1ed5e" stroke-width="0.3" x1="143.13028292997686" x2="145.6673583964461" y1="26.7553504044142" y2="22.446841604673864" /><path d="M 143.63769802327073 25.89364864446614 a86.0,86.0 0 0,1 29.32050498858742,28.57503671076993" fill="none" id="id74" stroke="none" /><text fill="#e1ed5e" style="font-size:6.75px; font-family:Arial;" text-anchor="middle"><textPath startOffset="20.669276256404974" xlink:href="#id74">February</textPath></text><path d="M 111.27062007382361 82.28071324371311 l 10.963160869336207 -17.235909819216225 a41.4271261694615,41.4271261694615 0 0,0 0.5967762324078015,0.3868231438008455 l -11.257422734001016 17.045172833711483" fill="#ffb010" stroke="none" /><path d="M 114.39649973595853 84.71141617570332 l 6.409374590054546 -6.806533704620796 a30.349277175684534,30.349277175684534 0 0,0 0.3762262801395513,0.36041626579092595 l -6.52527335605941 6.6955053085242895" fill="#ff0000" stroke="none" /><path d="M 114.91283532996326 85.21462403516908 l 30.39169225547005 -30.131935762860206 a63.79706194317937,63.79706194317937 0 0,0 0.7643896587001509,0.7843311288798838 l -30.904468715321013 29.60578194191258" fill="#30ff36" stroke="none" /><path d="M 115.41159269507618 85.73525988315684 l 15.020340278843664 -13.902602721437754 a41.46687529942912,41.46687529942912 0 0,0 0.4790456803116506,0.5265551191139746 l -15.256783659997192 13.642710026766109" fill="#ffb110" stroke="none" /><line stroke="#e1ed5e" stroke-width="0.3" x1="172.87174338648825" x2="177.1583165268699" y1="56.24261187166439" y2="53.66864786411523" /><path d="M 173.72905801456457 55.72781907015455 a86.0,86.0 0 0,1 12.242430191666344,42.057860355516425" fill="none" id="id75" stroke="none" /><text fill="#e1ed5e" style="font-size:6.75px; font-family:Arial;" text-anchor="middle"><textPath startOffset="22.145653131862474" xlink:href="#id75">March</textPath></text><path d="M 119.31412917781788 91.75594674310238 l 17.862877965603527 -7.6246004111346695 a40.42207354129623,40.42207354129623 0 0,0 0.26692842430587727,0.6405310464532031 l -17.99113223444589 7.316836855240188" fill="#ffa10e" stroke="none" /><path d="M 120.77682067341334 96.94652285012252 l 38.87895690176293 -5.71386779414799 a60.29658477448315,60.29658477448315 0 0,0 0.14171271864829652,1.0253626380272685 l -38.97131413696644 5.045616847920636" fill="#52ff2b" stroke="none" /><path d="M 120.96210409425399 98.7389718711861 l 39.54764841333853 -2.379088323072157 a60.619143810461324,60.619143810461324 0 0,0 0.05357118845836204,1.0392667444342119 l -39.582661191253464 1.6998497852612144" fill="#4eff2b" stroke="none" /><path d="M 120.98066250479742 99.09900007780936 l 19.361308648551308 -0.8314578999526291 a40.37915361474441,40.37915361474441 0 0,0 0.023795460227848248,0.6927788614093087 l -19.372728795776005 0.4989727739792004" fill="#ffa10e" stroke="none" /><path d="M 120.99303781780057 99.45929381324524 l 19.35642376871784 -0.49855281432009485 a40.36284318024735,40.36284318024735 0 0,0 0.011894676947298913,0.6928053002179569 l -19.362129877263804 0.1662005981330715" fill="#ffa00e" stroke="none" /><line stroke="#e1ed5e" stroke-width="0.3" x1="184.99686870605535" x2="189.99668451229388" y1="99.2704041080226" y2="99.22748670261217" /><path d="M 185.99683186730306 99.26182062694052 a86.0,86.0 0 0,1 -10.086455211305974,41.156179273409016" fill="none" id="id76" stroke="none" /><text fill="#e1ed5e" style="font-size:6.75px; font-family:Arial;" text-anchor="middle"><textPath startOffset="21.40746469413373" xlink:href="#id76">April</textPath></text><path d="M 120.592083275326 104.11899336999214 l 39.77906151193213 7.956926379978606 a61.567060679650915,61.567060679650915 0 0,0 -0.2161950472539389,1.0345715645981794 l -39.63660875385383 -8.638614395862195" fill="#43ff2d" stroke="none" /><path d="M 120.51834098615036 104.47187691870673 l 19.11743659987618 4.166556327996046 a40.56621000052512,40.56621000052512 0 0,0 -0.1541306164672748,0.6791279351621107 l -19.043095121851238 -4.494118597097174" fill="#ffa40f" stroke="none" /><path d="M 119.0197475246899 108.90220220490707 l 17.764959986762644 8.314898279220074 a40.614569501394996,40.614569501394996 0 0,0 -0.3009747354021818,0.6289214398029331 l -17.61960599340055 -8.618632221088111" fill="#ffa40f" stroke="none" /><line stroke="#e1ed5e" stroke-width="0.3" x1="174.33088141563837" x2="178.70328620479359" y1="141.23008692659167" y2="143.65538615756765" /><path d="M 175.20536237346943 141.71514677278685 a86.0,86.0 0 0,1 -30.301960400862466,31.631185727798858" fill="none" id="id77" stroke="none" /><text fill="#e1ed5e" style="font-size:6.75px; font-family:Arial;" text-anchor="middle"><textPath startOffset="22.145653131862474" xlink:href="#id77">May</textPath></text><path d="M 117.62189284568427 111.42229804090321 l 34.76645234148671 22.53519437139095 a62.43116210980857,62.43116210980857 0 0,0 -0.5906450552855851,0.8943118943479246 l -34.3744828472804 -23.12868614407794" fill="#3aff2e" stroke="none" /><path d="M 116.1254893667686 113.45245675266167 l 15.027179602530364 12.536207684593753 a40.56968650535752,40.56968650535752 0 0,0 -0.450720400881522,0.5309474989181051 l -14.809764638141727 -12.792321965961415" fill="#ffa40f" stroke="none" /><path d="M 112.7482090630111 116.68781488649013 l 12.000829276800072 15.709470755126441 a40.76884859411581,40.76884859411581 0 0,0 -0.5597893160791809,0.42007633886289897 l -11.729386971810124 -15.913166121253354" fill="#ffa70f" stroke="none" /><path d="M 112.45986205192187 116.90419585922612 l 11.613763170743676 15.756300228912758 a40.573974861784166,40.573974861784166 0 0,0 -0.5642081497262018,0.40844318990996836 l -11.341574010643505 -15.953344190195804" fill="#ffa40f" stroke="none" /><line stroke="#e1ed5e" stroke-width="0.3" x1="143.1302829299769" x2="145.66735839644613" y1="173.24464959558577" y2="177.55315839532614" /><path d="M 143.63769802327073 174.10635135553383 a86.0,86.0 0 0,1 -40.68552437913181,11.842963189579606" fill="none" id="id78" stroke="none" /><text fill="#e1ed5e" style="font-size:6.75px; font-family:Arial;" text-anchor="middle"><textPath startOffset="21.407464694133747" xlink:href="#id78">June</textPath></text><path d="M 103.94208987418118 120.62667999033965 l 3.7363237654900097 19.550024761186176 a40.903858506419255,40.903858506419255 0 0,0 -0.6908179940937639,0.12589005088204772 l -3.4001710378451886 -19.611282985999587" fill="#ffa90f" stroke="none" /><path d="M 103.58742460773223 120.69131181640829 l 4.535223764450644 26.15796548453557 a47.548209221787296,47.548209221787296 0 0,0 -0.8054270337966244,0.1325327119102982 l -4.0855192276009475 -26.23196419494154" fill="#f5ff19" stroke="none" /><path d="M 103.2317021107853 120.74984581791261 l 6.438578473277446 41.34029252299293 a62.8386792172408,62.8386792172408 0 0,0 -1.067284727312471,0.15685410094683747 l -5.72796864035729 -41.444727697238655" fill="#35ff2f" stroke="none" /><line stroke="#e1ed5e" stroke-width="0.3" x1="101.45913802915013" x2="101.54496967792366" y1="184.9874750549273" y2="189.98673829345242" /><path d="M 101.47630435890484 185.9873277026323 a86.0,86.0 0 0,1 -42.54439059252881,-10.42667462771756" fill="none" id="id79" stroke="none" /><text fill="#e1ed5e" style="font-size:6.75px; font-family:Arial;" text-anchor="middle"><textPath startOffset="22.145653131862474" xlink:href="#id79">July</textPath></text><path d="M 96.41257539226777 120.69131181640829 l -3.500941068028529 20.19249774150369 a41.493744250439946,41.493744250439946 0 0,0 -0.7007804695498369,-0.12770554577765802 l 3.847056271129423 -20.129424021794666" fill="#ffb110" stroke="none" /><path d="M 95.70440661134978 120.55596938700252 l -4.076466941101966 19.507370010817205 a40.928749771644675,40.928749771644675 0 0,0 -0.6865068528744853,-0.14962097335138347 l 4.410736210595588 -19.434517579332105" fill="#ffa90f" stroke="none" /><line stroke="#e1ed5e" stroke-width="0.3" x1="58.13341422392154" x2="55.67067388415222" y1="173.97424548756322" y2="178.32567169271397" /><path d="M 57.64086615596768 174.84453072859336 a86.0,86.0 0 0,1 -31.369924170532247,-30.572349798747897" fill="none" id="id80" stroke="none" /><text fill="#e1ed5e" style="font-size:6.75px; font-family:Arial;" text-anchor="middle"><textPath startOffset="22.145653131862474" xlink:href="#id80">August</textPath></text><path d="M 88.72937992617639 117.7192867562869 l -10.516242612250768 16.53328008792849 a40.59440504699266,40.59440504699266 0 0,0 -0.5847805131758972,-0.3790476635228962 l 10.798508757683674 -16.3503185827017" fill="#ffa40f" stroke="none" /><path d="M 83.64595745247003 113.17365903436017 l -30.457269128129685 24.53422005266368 a60.10975832622654,60.10975832622654 0 0,0 -0.6404081325523702,-0.809134754996796 l 30.873943691323614 -24.007765353752205" fill="#54ff2b" stroke="none" /><path d="M 83.4222238831116 112.89097897827486 l -41.651794382391046 32.38868724037335 a73.76266707083434,73.76266707083434 0 0,0 -0.7687054206440735,-1.006260071398588 l 42.20165178038942 -31.668906255733894" fill="#3effb8" stroke="none" /><path d="M 83.20337586046588 112.60449989151573 l -32.402799021705235 24.31566446692054 a61.511639351041865,61.511639351041865 0 0,0 -0.6265340680607447,-0.8500137926762121 l 32.81543510934981 -23.755844364975452" fill="#44ff2d" stroke="none" /><line stroke="#e1ed5e" stroke-width="0.3" x1="26.387840678322732" x2="22.057713659400548" y1="142.50000000000003" y2="145.00000000000006" /><path d="M 25.521815274538298 143.00000000000003 a86.0,86.0 0 0,1 -11.493303480769221,-40.785679425670985" fill="none" id="id81" stroke="none" /><text fill="#e1ed5e" style="font-size:6.75px; font-family:Arial;" text-anchor="middle"><textPath startOffset="21.40746469413373" xlink:href="#id81">September</textPath></text><path d="M 79.94057633289273 106.21446072829308 l -18.873402515884855 5.84702834391793 a40.758366910784616,40.758366910784616 0 0,0 -0.20131465745851776,-0.6701110206355265 l 18.970993493347002 -5.522179719691679" fill="#ffa60f" stroke="none" /><line stroke="#e1ed5e" stroke-width="0.3" x1="15.003131293944662" x2="10.003315487706104" y1="100.72959589197737" y2="100.7725132973878" /><path d="M 14.003168132696942 100.73817937305945 a86.0,86.0 0 0,1 10.791469493833604,-42.45332614584628" fill="none" id="id82" stroke="none" /><text fill="#e1ed5e" style="font-size:6.75px; font-family:Arial;" text-anchor="middle"><textPath startOffset="22.145653131862435" xlink:href="#id82">October</textPath></text><path d="M 79.0935383218832 98.0201363427161 l -19.382663107681783 -1.835558348376309 a40.46938374977961,40.46938374977961 0 0,0 0.07143348730217934,-0.6910541904127784 l 19.348297227897937 2.168017061072" fill="#ffa20f" stroke="none" /><path d="M 79.34024301695615 96.23510406497455 l -38.990452171755614 -7.1053592259931415 a60.63258117115725,60.63258117115725 0 0,0 0.19539197982643575,-1.0223734032436254 l 38.86273389964702 7.773635194270081" fill="#4eff2b" stroke="none" /><path d="M 79.407916724674 95.88100663000787 l -19.207488643806613 -3.842035665854022 a40.587977385622395,40.587977385622395 0 0,0 0.1425262078773632,-0.6820394997612378 l 19.138704725104883 4.171191616900669" fill="#ffa40f" stroke="none" /><path d="M 80.05021161711548 93.44210830539832 l -18.7575090539338 -6.165965797498974 a40.744955814696965,40.744955814696965 0 0,0 0.22412554257082554,-0.662587342111585 l 18.648898089790606 6.487054814084721" fill="#ffa60f" stroke="none" /><line stroke="#e1ed5e" stroke-width="0.3" x1="26.387840678322718" x2="22.05771365940052" y1="57.49999999999999" y2="54.99999999999999" /><path d="M 25.521815274538284 56.99999999999999 a86.0,86.0 0 0,1 29.574782752854787,-30.34633250058573" fill="none" id="id83" stroke="none" /><text fill="#e1ed5e" style="font-size:6.75px; font-family:Arial;" text-anchor="middle"><textPath startOffset="21.40746469413373" xlink:href="#id83">November</textPath></text><path d="M 82.18462484594161 88.88188828441811 l -16.180998602723626 -10.098139869581896 a40.073467031638046,40.073467031638046 0 0,0 0.3692146145635774,-0.5804666990113984 l 16.00526629653416 10.374420243271967" fill="#ff9c0e" stroke="none" /><path d="M 85.34317274990677 84.96080404539775 l -13.912331371793478 -14.275277596959569 a40.933301649973714,40.933301649973714 0 0,0 0.5074316506601645,-0.4861080427641192 l 13.665227235268013 14.511997770029257" fill="#ffa90f" stroke="none" /><path d="M 87.25179093698888 83.31218511350988 l -11.83775206005357 -15.49599744355625 a40.50021309129735,40.50021309129735 0 0,0 0.5561007330168195,-0.4173083573671507 l 11.569998338125998 15.696924828187402" fill="#ffa30f" stroke="none" /><line stroke="#e1ed5e" stroke-width="0.3" x1="56.869717070023135" x2="54.33264160355391" y1="26.7553504044142" y2="22.446841604673864" /><path d="M 56.362301976729285 25.89364864446614 a86.0,86.0 0 0,1 42.16139366436587,-11.88097634709845" fill="none" id="id84" stroke="none" /><text fill="#e1ed5e" style="font-size:6.75px; font-family:Arial;" text-anchor="middle"><textPath startOffset="22.145653131862474" xlink:href="#id84">December</textPath></text><path d="M 98.9189461498227 79.02784411241856 l -2.0912899529948676 -40.57046639549765 a61.62433060637063,61.62433060637063 0 0,0 1.0569284002206258,-0.04538905318848355 l 1.3945357921734218 40.60038801711196" fill="#43ff2d" stroke="none" /></svg>