<?xml version="1.0" encoding="utf-8" ?>
<svg baseProfile="full" height="200mm" version="1.1" viewBox="0,0,200,200" width="200mm" xmlns="http://www.w3.org/2000/svg" xmlns:ev="http://www.w3.org/2001/xml-events" xmlns:xlink="http://www.w3.org/1999/xlink"><defs /><rect fill="#1a1a1a" height="200" width="200" x="0" y="0" /><text alignment-baseline="middle" fill="#e1ed5e" style="dominant-baseline: central; font-size:9.0px; font-family:Arial;" text-anchor="middle" x="100.0" y="100.0">2025</text><line stroke="#e1ed5e" stroke-width="0.3" x1="100.0" x2="100.0" y1="15.0" y2="10.0" /><path d="M 100.0 14.0 a86.0,86.0 0 0,1 42.46469731375804,11.215312516191453" fill="none" id="id85" stroke="none" /><text fill="#e1ed5e" style="font-size:6.75px; font-family:Arial;" text-anchor="middle"><textPath startOffset="22.20632615414155" xlink:href="#id85">January</textPath></text><path d="M 101.08401301168833 79.027996857942 l 2.0322245966298396 -39.316705764914204 a60.36919213059858,60.36919213059858 0 0,0 1.0373093143625245,0.0625733306112098 l -2.7086959598319758 39.27589916492269" fill="#bbff1f" stroke="none" /><path d="M 101.44485096284872 79.0497635885617 l 4.334552888546152 -62.8507092343149 a84.0,84.0 0 0,0 1.4416392425506352,0.11189895124614191 l -5.415782320459128 62.76678502088029" fill="#4dd2ff" stroke="none" /><path d="M 102.16513564639614 79.11191278185805 l 3.9331851821962625 -37.94529699216254 a59.148597739640024,59.148597739640024 0 0,0 1.0118164642280048,0.11368936911007357 l -4.585768349933993 37.87197166958187" fill="#d1ff1c" stroke="none" /><path d="M 108.43124777332544 80.76684994638697 l 15.317716309823195 -34.94238862218926 a59.15236500627878,59.15236500627878 0 0,0 0.9290241768595537,0.41682606775212555 l -15.91692260514953 34.673542223920606" fill="#d1ff1d" stroke="none" /><line stroke="#e1ed5e" stroke-width="0.3" x1="143.23703022742887" x2="145.7803849466894" y1="26.81831364943548" y2="22.513508569990506" /><path d="M 143.74570117128098 25.957352633546492 a86.0,86.0 0 0,1 28.547481713284135,27.462654790039103" fill="none" id="id86" stroke="none" /><text fill="#e1ed5e" style="font-size:6.75px; font-family:Arial;" text-anchor="middle"><textPath startOffset="19.985693538727396" xlink:href="#id86">February</textPath></text><path d="M 113.06298171725822 83.55741782278167 l 23.896593714905425 -30.079021345779037 a59.41607367099205,59.41607367099205 0 0,0 0.7953169704551277,0.6430910128534179 l -24.410814083925043 29.66322423566149" fill="#ccff1d" stroke="none" /><path d="M 114.68862486808459 84.99185889309783 l 29.883178572144583 -30.533216333135556 a63.723315194642105,63.723315194642105 0 0,0 0.7773158117867139,0.7739777706607502 l -30.40433018409862 30.014302711824687" fill="#81ff25" stroke="none" /><line stroke="#e1ed5e" stroke-width="0.3" x1="172.23445277983987" x2="176.4835382374775" y1="55.19839476539836" y2="52.563006222186495" /><path d="M 173.08426987136738 54.67131705675599 a86.0,86.0 0 0,1 12.851231095245387,41.99856678651699" fill="none" id="id87" stroke="none" /><text fill="#e1ed5e" style="font-size:6.75px; font-family:Arial;" text-anchor="middle"><textPath startOffset="22.20632615414155" xlink:href="#id87">March</textPath></text><line stroke="#e1ed5e" stroke-width="0.3" x1="184.98032266829074" x2="189.97916517819016" y1="98.17113171792111" y2="98.06355123074" /><path d="M 185.9800911702706 98.14961562048488 a86.0,86.0 0 0,1 -9.607161424134198,41.387399972396054" fill="none" id="id88" stroke="none" /><text fill="#e1ed5e" style="font-size:6.75px; font-family:Arial;" text-anchor="middle"><textPath startOffset="21.466115282336823" xlink:href="#id88">April</textPath></text><line stroke="#e1ed5e" stroke-width="0.3" x1="174.80103733775053" x2="179.2010983576182" y1="140.37084112569926" y2="142.7455964860345" /><path d="M 175.68104954172406 140.8457921977663 a86.0,86.0 0 0,1 -30.038265399797805,32.042727171017184" fill="none" id="id89" stroke="none" /><text fill="#e1ed5e" style="font-size:6.75px; font-family:Arial;" text-anchor="middle"><textPath startOffset="22.206326154141568" xlink:href="#id89">May</textPath></text><path d="M 117.14729908036423 112.12312394758627 l 19.22675387525622 13.593296486347555 a44.54667224780243,44.54667224780243 0 0,0 -0.4480551124360381,0.622309363166093 l -18.98991897044458 -13.92223945496478" fill="#ff0000" stroke="none" /><path d="M 116.71984013943494 112.70617746262583 l 31.198103911435012 23.70887768604774 a60.184596065299296,60.184596065299296 0 0,0 -0.6339248741965936,0.8194333538320959 l -30.785372220020353 -24.24238903399309" fill="#beff1f" stroke="none" /><line stroke="#e1ed5e" stroke-width="0.3" x1="143.8653032363475" x2="146.44561519142675" y1="172.8068346515853" y2="177.08958963109032" /><path d="M 144.38136562736335 173.6633856474863 a86.0,86.0 0 0,1 -40.68145358897372,12.25698825130547" fill="none" id="id90" stroke="none" /><text fill="#e1ed5e" style="font-size:6.75px; font-family:Arial;" text-anchor="middle"><textPath startOffset="21.466115282336833" xlink:href="#id90">June</textPath></text><line stroke="#e1ed5e" stroke-width="0.3" x1="102.19456741930631" x2="102.32365962044197" y1="184.97166512339345" y2="189.96999836594603" /><path d="M 102.22038585953345 185.97133177190398 a86.0,86.0 0 0,1 -42.740103519485714,-10.115201625700543" fill="none" id="id91" stroke="none" /><text fill="#e1ed5e" style="font-size:6.75px; font-family:Arial;" text-anchor="middle"><textPath startOffset="22.20632615414155" xlink:href="#id91">July</textPath></text><path d="M 98.73552117531835 120.96189622390904 l -2.846154843021104 47.18212855134604 a68.26789451653411,68.26789451653411 0 0,0 -1.172378333613242,-0.08085407395303913 l 3.657895937413276 -47.12614613287672" fill="#38ff2e" stroke="none" /><path d="M 98.01472825383883 120.90594882070398 l -3.8279667197851546 40.3104897281349 a61.49183758894935,61.49183758894935 0 0,0 -1.0528790653242424,-0.10913522008361587 l 4.52127838171499 -40.23862513959552" fill="#a7ff21" stroke="none" /><line stroke="#e1ed5e" stroke-width="0.3" x1="58.666819895761336" x2="56.23545636021788" y1="174.27360380694188" y2="178.64263932499728" /><path d="M 58.180547188652646 175.14741091055294 a86.0,86.0 0 0,1 -31.652253787137756,-30.449443065178592" fill="none" id="id92" stroke="none" /><text fill="#e1ed5e" style="font-size:6.75px; font-family:Arial;" text-anchor="middle"><textPath startOffset="22.20632615414155" xlink:href="#id92">August</textPath></text><path d="M 87.65650970185807 116.9893568818739 l -22.584092127743155 31.084336094881046 a59.422352448723316,59.422352448723316 0 0,0 -0.8223347006992489,-0.608343552331175 l 23.115811798860967 -30.6909825938101" fill="#ccff1d" stroke="none" /><path d="M 86.79598089348748 116.32954008644616 l -26.918891550459342 33.290857511643196 a63.81247383842613,63.81247383842613 0 0,0 -0.8481889342745379,-0.6980017484992828 l 27.48795061327857 -32.82256064428673" fill="#7fff26" stroke="none" /><path d="M 86.51685102203217 116.09983520530335 l -27.770949195546503 33.16048100289831 a64.25324403516116,64.25324403516116 0 0,0 -0.8418231274281975,-0.7174199321570437 l 28.337637799551757 -32.677536680518315" fill="#78ff26" stroke="none" /><path d="M 86.24171649860922 115.8653595955263 l -27.824262872513074 32.08553857087241 a63.46965257429887,63.46965257429887 0 0,0 -0.8192349851726567,-0.7228796235964364 l 28.37244021059232 -31.601835805503683" fill="#85ff25" stroke="none" /><path d="M 85.97065885151581 115.62618273729859 l -29.033513033949706 32.338152973296026 a64.45918794474676,64.45918794474676 0 0,0 -0.819246966831124,-0.7483626800421258 l 29.585859550247683 -31.833597526667322" fill="#74ff27" stroke="none" /><path d="M 85.70375840098266 115.38237550388516 l -28.580514808248974 30.75187333886795 a62.98241942235245,62.98241942235245 0 0,0 -0.7877726021723719,-0.7448881656406052 l 29.105623244812165 -30.255350536481412" fill="#8dff24" stroke="none" /><path d="M 85.18274418774928 114.88116024355367 l -36.56512066375429 36.722820123839774 a72.82251988279616,72.82251988279616 0 0,0 -0.8806648395864721,-0.8921088329586364 l 37.1918261283963 -36.08797079690047" fill="#37ff79" stroke="none" /><path d="M 84.9287848128048 114.62390073753433 l -36.52041218864503 35.436484457758986 a71.88698200083718,71.88698200083718 0 0,0 -0.8540633833498894,-0.8954820429419481 l 37.12498212337388 -34.80259529823454" fill="#35ff69" stroke="none" /><path d="M 84.43433777217949 114.09645910891817 l -30.95726604288 28.03528873428867 a62.76517371285057,62.76517371285057 0 0,0 -0.7183359072461135,-0.8070580068176839 l 31.43526079977445 -27.498256557730123" fill="#91ff24" stroke="none" /><path d="M 84.19399662182784 113.82643327865904 l -35.84823872076266 31.358545798778916 a68.62829635830892,68.62829635830892 0 0,0 -0.7701320043919972,-0.8958375084448488 l 36.382713234725436 -30.736831191172538" fill="#32ff2f" stroke="none" /><path d="M 83.72743513129214 113.27417163493432 l -39.37799169448481 32.122177702716165 a71.81791544579323,71.81791544579323 0 0,0 -0.7731782988501137,-0.9646588094137271 l 39.92508790538979 -31.439591059724176" fill="#35ff67" stroke="none" /><path d="M 83.28015986056508 112.70617746262583 l -34.0565636948856 25.88115307716462 a63.774801172038515,63.774801172038515 0 0,0 -0.6566943915340197,-0.8797494529235356 l 34.4970193531147 -25.291090744731775" fill="#80ff26" stroke="none" /><path d="M 83.06392112726016 112.41649034213515 l -34.84742796938978 25.547988768912774 a64.20929259104228,64.20929259104228 0 0,0 -0.6458238148807296,-0.896992793522239 l 35.28203157664611 -24.944362369939395" fill="#78ff26" stroke="none" /><path d="M 82.85270091963577 112.12312394758628 l -32.98622325033291 23.321228092677792 a61.39765592298033,61.39765592298033 0 0,0 -0.6026884330635526,-0.8682176384554443 l 33.3827725905586 -22.749969192035337" fill="#a9ff21" stroke="none" /><line stroke="#e1ed5e" stroke-width="0.3" x1="26.63291911575756" x2="22.317208475507996" y1="142.92168965132927" y2="145.44649492493687" /><path d="M 25.769776987707644 143.4266507060508 a86.0,86.0 0 0,1 -11.730757126820373,-40.83630448921669" fill="none" id="id93" stroke="none" /><text fill="#e1ed5e" style="font-size:6.75px; font-family:Arial;" text-anchor="middle"><textPath startOffset="21.46611528233685" xlink:href="#id93">September</textPath></text><path d="M 81.87401531095188 110.60418214915194 l -37.32827762399861 21.838033189896773 a64.24696525742989,64.24696525742989 0 0,0 -0.550223259753159,-0.9593606318362315 l 37.698652879904145 -21.192252712202233" fill="#78ff26" stroke="none" /><path d="M 81.69416730710424 110.29060199501025 l -35.35610178483765 19.875390410622256 a61.55964838844705,61.55964838844705 0 0,0 -0.5113073764197665,-0.9281714074688718 l 35.692985570708935 -19.263848484755563" fill="#a6ff21" stroke="none" /><path d="M 81.51974371655577 109.97397251340807 l -37.21689117465976 20.086315033579922 a63.291335286730856,63.291335286730856 0 0,0 -0.509186302275759,-0.9631885920375625 l 37.55712998516041 -19.442711426456235" fill="#88ff25" stroke="none" /><path d="M 80.73074385275274 108.34839909993369 l -35.54724344570819 15.400831922080627 a59.7400586019255,59.7400586019255 0 0,0 -0.40068231607596716,-0.9470946355608341 l 35.80707674297646 -14.786662760853634" fill="#c6ff1e" stroke="none" /><path d="M 80.58989483394504 108.01547362559985 l -36.53830715944567 15.088627024689542 a60.5311845960653,60.5311845960653 0 0,0 -0.3894097521348524,-0.966483069537359 l 36.792619525837914 -14.457444587309379" fill="#b8ff1f" stroke="none" /><path d="M 80.45479744820244 107.68017299344265 l -36.60678640942724 14.384422551433197 a60.33151946421097,60.33151946421097 0 0,0 -0.37148621845419183,-0.9698332927744882 l 36.84896690747493 -13.752165691825551" fill="#bbff1f" stroke="none" /><path d="M 80.20201598880116 107.00284435728193 l -37.41763335872453 13.235179020286587 a60.68940979489326,60.68940979489326 0 0,0 -0.3398871931677756,-0.9878712810140149 l 37.63991138283553 -12.589135036183276" fill="#b5ff20" stroke="none" /><path d="M 79.86692584326677 105.97154293290107 l -36.47863104401224 10.819694484656019 a59.04939305148598,59.04939305148598 0 0,0 -0.28064591494975355,-0.9769652472252218 l 36.6594695958481 -10.190171761926202" fill="#d3ff1c" stroke="none" /><path d="M 79.76711848015287 105.62410040840567 l -36.77682829389421 10.222793763936327 a59.17120133947258,59.17120133947258 0 0,0 -0.264331629658289,-0.9836763277383607 l 36.947347999894276 -9.588226503022428" fill="#d0ff1d" stroke="none" /><path d="M 79.67330655649465 105.27499134158121 l -36.91817616214722 9.580656103441138 a59.1410632063625,59.1410632063625 0 0,0 -0.2472341052418779,-0.9875773530909786 l 37.077621581684156 -8.943750910952767" fill="#d1ff1c" stroke="none" /><path d="M 79.58551787078972 104.9243191809786 l -37.09227049548852 8.947284477308788 a59.15613227291754,59.15613227291754 0 0,0 -0.2302566082726429,-0.9919394420632281 l 37.24078766969172 -8.307476377896984" fill="#d1ff1d" stroke="none" /><path d="M 79.50377843672027 104.57218783832718 l -38.67600117507955 8.627636155369993 a60.62662201758058,60.62662201758058 0 0,0 -0.21844626827858188,-1.0205082408902129 l 38.81878148208257 -7.960614095063617" fill="#b6ff1f" stroke="none" /><path d="M 79.04373962182676 101.35467743843564 l -38.05535580723345 2.4600158135749304 a59.134784428631235,59.134784428631235 0 0,0 -0.05692046584675286,-1.0163531546999887 l 38.092062623967735 -1.8045909425395041" fill="#d1ff1c" stroke="none" /><path d="M 79.0235259727143 100.99374915477108 l -38.25387361180004 1.8122566509031626 a59.296776894097945,59.296776894097945 0 0,0 -0.03952516215788406,-1.0199688091848993 l 38.27940090680912 -1.1535105947042665" fill="#ceff1d" stroke="none" /><line stroke="#e1ed5e" stroke-width="0.3" x1="15.007084014347285" x2="10.007500721073583" y1="101.09737516637583" y2="101.16192664675087" /><path d="M 14.007167355692545 101.11028546245083 a86.0,86.0 0 0,1 10.666146001902534,-42.60595125391555" fill="none" id="id94" stroke="none" /><text fill="#e1ed5e" style="font-size:6.75px; font-family:Arial;" text-anchor="middle"><textPath startOffset="22.20632615414155" xlink:href="#id94">October</textPath></text><path d="M 79.00486145842228 99.54816195383935 l -55.62085886548571 -1.1970209268106922 a76.63373796567603,76.63373796567603 0 0,0 0.03973388352268161,-1.3185741543528253 l 55.592013287507385 2.1542652285885118" fill="#3fffbb" stroke="none" /><path d="M 79.16333360222342 97.38593545837743 l -37.61764008941414 -4.719322046051951 a58.912515696944325,58.912515696944325 0 0,0 0.13489283144177372,-1.0051082760496661 l 37.53083125891453 5.366148664166277" fill="#d5ff1c" stroke="none" /><path d="M 79.21141760316559 97.0276538004421 l -37.68746352477599 -5.388543905519162 a59.07074089577229,59.07074089577229 0 0,0 0.15258283636998288,-1.0053302489431315 l 37.58912479496671 6.036473266854386" fill="#d2ff1c" stroke="none" /><path d="M 79.3925641242962 95.95851677861259 l -37.38617455199292 -7.3320910993047095 a59.098367517789875,59.098367517789875 0 0,0 0.20436976473411025,-0.9965795532881633 l 37.25442549134382 7.974546308756275" fill="#d2ff1c" stroke="none" /><line stroke="#e1ed5e" stroke-width="0.3" x1="26.266209847984243" x2="21.928928074336255" y1="57.711370442889674" y2="55.22380399835377" /><path d="M 25.398753493254645 57.213857153982495 a86.0,86.0 0 0,1 29.58750427330803,-30.492523968695096" fill="none" id="id95" stroke="none" /><text fill="#e1ed5e" style="font-size:6.75px; font-family:Arial;" text-anchor="middle"><textPath startOffset="21.46611528233685" xlink:href="#id95">November</textPath></text><line stroke="#e1ed5e" stroke-width="0.3" x1="56.762969772571076" x2="54.21961505331055" y1="26.818313649435495" y2="22.513508569990535" /><path d="M 56.25429882871897 25.957352633546506 a86.0,86.0 0 0,1 42.265352541879196,-11.944610805530505" fill="none" id="id96" stroke="none" /><text fill="#e1ed5e" style="font-size:6.75px; font-family:Arial;" text-anchor="middle"><textPath startOffset="22.20632615414155" xlink:href="#id96">December</textPath></text></svg>