<?xml version="1.0" encoding="utf-8" ?>
<svg baseProfile="full" height="200mm" version="1.1" viewBox="0,0,200,200" width="200mm" xmlns="http://www.w3.org/2000/svg" xmlns:ev="http://www.w3.org/2001/xml-events" xmlns:xlink="http://www.w3.org/1999/xlink"><defs /><rect fill="#1a1a1a" height="200" width="200" x="0" y="0" /><text alignment-baseline="middle" fill="#e1ed5e" style="dominant-baseline: central; font-size:9.0px; font-family:Arial;" text-anchor="middle" x="100.0" y="100.0">2023</text><line stroke="#e1ed5e" stroke-width="0.3" x1="100.0" x2="100.0" y1="15.0" y2="10.0" /><path d="M 100.0 14.0 a86.0,86.0 0 0,1 42.46469731375804,11.215312516191453" fill="none" id="id61" stroke="none" /><text fill="#e1ed5e" style="font-size:6.75px; font-family:Arial;" text-anchor="middle"><textPath startOffset="22.20632615414155" xlink:href="#id61">January</textPath></text><path d="M 100.36148047927253 79.00311137660856 l 0.41881295859394274 -24.3270924707396 a45.33069732609819,45.33069732609819 0 0,0 0.7800622200807196,0.020146705736964587 l -0.8375018138695302 24.316278972860278" fill="#ff2003" stroke="none" /><path d="M 102.52436894288641 79.15227682838746 l 3.0308795840946647 -25.030785897503836 a46.21361683098954,46.21361683098954 0 0,0 0.7889000464900789,0.10242186761734895 l -3.46129435909259 24.974905706722353" fill="#ff3304" stroke="none" /><path d="M 105.01212808612495 79.60689891045804 l 7.6979336320066265 -31.32097505103193 a53.253087609562954,53.253087609562954 0 0,0 0.888289678081311,0.2264448175376552 l -8.235932198772963 31.183827237325406" fill="#ffc612" stroke="none" /><path d="M 106.0581310904928 79.89281104454417 l 6.992735298234002 -23.209179177012427 a45.23972658719225,45.23972658719225 0 0,0 0.7436864453555516,0.23106699865208993 l -7.391207116300271 23.085372043477815" fill="#ff1e03" stroke="none" /><path d="M 106.40334571778207 80.00007090966166 l 7.702931683101039 -24.05899887958924 a46.262038389698446,46.262038389698446 0 0,0 0.7563120217744861,0.24934418254791468 l -8.115926527117942 23.922840972782087" fill="#ff3405" stroke="none" /><path d="M 106.74666289553966 80.11325718540242 l 7.8600364361550215 -23.16856874863585 a45.46554210799242,45.46554210799242 0 0,0 0.7389622722131818,0.25780942687061015 l -8.257680712431476 23.02983846859303" fill="#ff2303" stroke="none" /><path d="M 107.76421540070413 80.48803036053334 l 11.143656322475636 -28.004720711003994 a51.14042896733202,51.14042896733202 0 0,0 0.8151203091207291,0.3325080405424345 l -11.62406050118475 27.80875178427798" fill="#ff9b0e" stroke="none" /><path d="M 108.43124777332544 80.76684994638697 l 10.093873517219706 -23.025890022243562 a46.14115935867089,46.14115935867089 0 0,0 0.7246752110077872,0.32514064340381804 l -10.488730846694272 22.84872904832321" fill="#ff3204" stroke="none" /><path d="M 109.41281617654863 81.2277094730956 l 11.89486955190503 -23.722331640164363 a47.537462955278535,47.537462955278535 0 0,0 0.7283181024999481,0.37307282012904813 l -12.301448141993733 23.514066294722813" fill="#ff5007" stroke="none" /><line stroke="#e1ed5e" stroke-width="0.3" x1="143.23703022742887" x2="145.7803849466894" y1="26.81831364943548" y2="22.513508569990506" /><path d="M 143.74570117128098 25.957352633546492 a86.0,86.0 0 0,1 28.547481713284135,27.462654790039103" fill="none" id="id62" stroke="none" /><text fill="#e1ed5e" style="font-size:6.75px; font-family:Arial;" text-anchor="middle"><textPath startOffset="19.985693538727396" xlink:href="#id62">February</textPath></text><path d="M 111.90073688211348 82.69761687909136 l 18.034543403299523 -26.22027379191398 a52.82369421497802,52.82369421497802 0 0,0 0.7447357594862015,0.5217349924471167 l -18.483210302369375 25.905953956702927" fill="#ffbd11" stroke="none" /><path d="M 113.89432698308785 84.25364557470407 l 20.922820386283096 -23.711702321403326 a52.622922696922046,52.622922696922046 0 0,0 0.6740470479075058,0.6051660948934909 l -21.327878421786593 23.34803721774054" fill="#ffb911" stroke="none" /><path d="M 115.4437574822437 85.77008943001954 l 23.635105677416337 -21.777435995635056 a53.13837175288474,53.13837175288474 0 0,0 0.614017325387938,0.6780132666771426 l -24.00646664342031 21.367369941688366" fill="#ffc312" stroke="none" /><path d="M 115.68641384162765 86.03803664274999 l 23.628990488851795 -21.031390775797995 a52.63303003960527,52.63303003960527 0 0,0 0.596528066379885,0.6819347001752163 l -23.987510418809528 20.62154051941983" fill="#ffb911" stroke="none" /><path d="M 117.2510076193507 88.02491185347247 l 29.91266957801204 -20.76440187139219 a57.41329683453563,57.41329683453563 0 0,0 0.5565686943242957,0.8166958819512095 l -30.265662738005066 20.24642796617058" fill="#e9ff1a" stroke="none" /><line stroke="#e1ed5e" stroke-width="0.3" x1="172.23445277983987" x2="176.4835382374775" y1="55.19839476539836" y2="52.563006222186495" /><path d="M 173.08426987136738 54.67131705675599 a86.0,86.0 0 0,1 12.851231095245387,41.99856678651699" fill="none" id="id63" stroke="none" /><text fill="#e1ed5e" style="font-size:6.75px; font-family:Arial;" text-anchor="middle"><textPath startOffset="22.20632615414155" xlink:href="#id63">March</textPath></text><path d="M 118.3937258080291 89.86733742301442 l 28.268065553102257 -15.572199615407115 a53.273471009120975,53.273471009120975 0 0,0 0.43555349994218995,0.8070144862803967 l -28.531927152262913 15.083304145794258" fill="#ffc612" stroke="none" /><path d="M 118.56541770881063 90.18545643968196 l 28.396950246781433 -15.011949073731634 a53.12079386177266,53.12079386177266 0 0,0 0.42038927823202904,0.8120582783244886 l -28.65114895817358 14.5209180731468" fill="#ffc312" stroke="none" /><path d="M 119.47837535516314 92.15188598940014 l 30.232501921124058 -12.181104305486546 a53.59422455761009,53.59422455761009 0 0,0 0.3374048655049821,0.8586585802022241 l -30.43770033651074 11.658896720388537" fill="#ffcc13" stroke="none" /><path d="M 120.37134235888165 94.90015583598534 l 31.30020915602193 -7.83582084011176 a53.26613056207776,53.26613056207776 0 0,0 0.21501051088994838,0.8913573777082088 l -31.430452467172696 7.295878230744145" fill="#ffc612" stroke="none" /><line stroke="#e1ed5e" stroke-width="0.3" x1="184.98032266829074" x2="189.97916517819016" y1="98.17113171792111" y2="98.06355123074" /><path d="M 185.9800911702706 98.14961562048488 a86.0,86.0 0 0,1 -9.607161424134198,41.387399972396054" fill="none" id="id64" stroke="none" /><text fill="#e1ed5e" style="font-size:6.75px; font-family:Arial;" text-anchor="middle"><textPath startOffset="21.466115282336823" xlink:href="#id64">April</textPath></text><path d="M 120.99513854157772 99.54816195383933 l 31.529356494752605 -0.6785457884490633 a52.53665716844796,52.53665716844796 0 0,0 0.01167562881257928,0.9042903185286578 l -31.5363651306829 0.13571921185994276" fill="#ffb711" stroke="none" /><path d="M 120.99980553446 99.90962569577887 l 32.03421763263451 -0.13786175900852435 a53.034514280687766,53.034514280687766 0 0,0 -0.003928854172207482,0.912927344787617 l -32.0318444811728 -0.41357506398277727" fill="#ffc112" stroke="none" /><path d="M 120.9764740272857 100.99374915477107 l 31.56844360127177 1.4955380063110235 a52.60384890064812,52.60384890064812 0 0,0 -0.05063408303062517,0.9041055665648406 l -31.538023167353614 -2.0387152892112876" fill="#ffb911" stroke="none" /><path d="M 120.8583938346157 102.4346265915055 l 23.97402151623898 2.7982878620258833 a45.13677945832565,45.13677945832565 0 0,0 -0.09671842633726296,0.7709410200165155 l -23.92230158065487 -3.2105466363297936" fill="#ff1b02" stroke="none" /><path d="M 119.79798401119884 107.00284435728193 l 29.3857893394339 10.394195133379595 a52.16991991604019,52.16991991604019 0 0,0 -0.3067485435681525,0.8440402486423033 l -29.20251653486052 -10.89848317902803" fill="#ffb010" stroke="none" /><line stroke="#e1ed5e" stroke-width="0.3" x1="174.80103733775053" x2="179.2010983576182" y1="140.37084112569926" y2="142.7455964860345" /><path d="M 175.68104954172406 140.8457921977663 a86.0,86.0 0 0,1 -30.038265399797805,32.042727171017184" fill="none" id="id65" stroke="none" /><text fill="#e1ed5e" style="font-size:6.75px; font-family:Arial;" text-anchor="middle"><textPath startOffset="22.206326154141568" xlink:href="#id65">May</textPath></text><path d="M 118.12598468904814 110.60418214915192 l 54.37795406714442 31.812546447455787 a84.0,84.0 0 0,0 -0.7408764972070911,1.2417516244555835 l -53.8222966942391 -32.74386016579747" fill="#4dd2ff" stroke="none" /><path d="M 117.35343817320211 111.8261652097733 l 25.761090428083378 17.555881914909758 a52.17439285461939,52.17439285461939 0 0,0 -0.5121515244008364,0.7377924689650648 l -25.45507799652041 -17.996715646061844" fill="#ffb010" stroke="none" /><path d="M 112.34349029814194 116.9893568818739 l 13.703754025167875 18.86159928282513 a44.31421887793314,44.31421887793314 0 0,0 -0.6209744573094662,0.4430487873958708 l -13.377052240009524 -19.094692332065218" fill="#ff0901" stroke="none" /><path d="M 112.04921762599082 117.19931262002967 l 13.417232806930553 19.152046938245963 a44.38424764922212,44.38424764922212 0 0,0 -0.6295020282625612,0.4329772351449438 l -13.085573894045108 -19.380164962756" fill="#ff0b01" stroke="none" /><line stroke="#e1ed5e" stroke-width="0.3" x1="143.8653032363475" x2="146.44561519142675" y1="172.8068346515853" y2="177.08958963109032" /><path d="M 144.38136562736335 173.6633856474863 a86.0,86.0 0 0,1 -40.68145358897372,12.25698825130547" fill="none" id="id66" stroke="none" /><text fill="#e1ed5e" style="font-size:6.75px; font-family:Arial;" text-anchor="middle"><textPath startOffset="21.466115282336833" xlink:href="#id66">June</textPath></text><path d="M 109.89434966115114 118.52300852407294 l 11.359667428484833 21.266199782146955 a45.11002482910307,45.11002482910307 0 0,0 -0.6880548257151132,0.3599577653348121 l -10.991921700243225 -21.458586966426484" fill="#ff1b02" stroke="none" /><path d="M 103.06178313531738 120.77559828337769 l 4.072823709911564 27.635970784510715 a48.93447286372785,48.93447286372785 0 0,0 -0.8343826494211831,0.11563783229775919 l -3.5965124693035504 -27.701983182301078" fill="#ff6e0a" stroke="none" /><line stroke="#e1ed5e" stroke-width="0.3" x1="102.19456741930631" x2="102.32365962044197" y1="184.97166512339345" y2="189.96999836594603" /><path d="M 102.22038585953345 185.97133177190398 a86.0,86.0 0 0,1 -42.740103519485714,-10.115201625700543" fill="none" id="id67" stroke="none" /><text fill="#e1ed5e" style="font-size:6.75px; font-family:Arial;" text-anchor="middle"><textPath startOffset="22.20632615414155" xlink:href="#id67">July</textPath></text><path d="M 95.51606077576429 120.51570834832081 l -5.7095395776694495 26.123290910265826 a47.739954565618675,47.739954565618675 0 0,0 -0.8013034311086092,-0.18237405210032176 l 6.158363158170921 -26.021140124587816" fill="#ff5407" stroke="none" /><line stroke="#e1ed5e" stroke-width="0.3" x1="58.666819895761336" x2="56.23545636021788" y1="174.27360380694188" y2="178.64263932499728" /><path d="M 58.180547188652646 175.14741091055294 a86.0,86.0 0 0,1 -31.652253787137756,-30.449443065178592" fill="none" id="id68" stroke="none" /><text fill="#e1ed5e" style="font-size:6.75px; font-family:Arial;" text-anchor="middle"><textPath startOffset="22.20632615414155" xlink:href="#id68">August</textPath></text><path d="M 84.67929136418377 114.36230785411682 l -20.35660490781851 19.083179081366204 a48.902671686139904,48.902671686139904 0 0,0 -0.570423099434549,-0.6190816145058157 l 20.682074415248792 -18.729946212059044" fill="#ff6d0a" stroke="none" /><line stroke="#e1ed5e" stroke-width="0.3" x1="26.63291911575756" x2="22.317208475507996" y1="142.92168965132927" y2="145.44649492493687" /><path d="M 25.769776987707644 143.4266507060508 a86.0,86.0 0 0,1 -11.730757126820373,-40.83630448921669" fill="none" id="id69" stroke="none" /><text fill="#e1ed5e" style="font-size:6.75px; font-family:Arial;" text-anchor="middle"><textPath startOffset="21.46611528233685" xlink:href="#id69">September</textPath></text><path d="M 80.58989483394504 108.01547362559985 l -23.29680984914402 9.62050248099619 a46.20506729080539,46.20506729080539 0 0,0 -0.2972468475737757,-0.7377422986415602 l 23.45895931097518 -9.218060814511825" fill="#ff3304" stroke="none" /><path d="M 80.45479744820244 107.68017299344265 l -23.905513014445432 9.39353147972622 a46.68485908360074,46.68485908360074 0 0,0 -0.28745806361335735,-0.7504622958256472 l 24.0636653576523 -8.980645617067415" fill="#ff3d05" stroke="none" /><path d="M 79.76711848015287 105.62410040840567 l -28.499660475402877 7.922003198699471 a50.58020929428062,50.58020929428062 0 0,0 -0.22595365394914768,-0.8408576031672496 l 28.6318022056938 -7.430254662356683" fill="#ff900d" stroke="none" /><path d="M 79.67330655649465 105.27499134158121 l -27.955653778010454 7.254787013790703 a49.88166395434059,49.88166395434059 0 0,0 -0.20852598663462446,-0.8329576606343739 l 28.076391078940137 -6.772501513758937" fill="#ff810b" stroke="none" /><line stroke="#e1ed5e" stroke-width="0.3" x1="15.007084014347285" x2="10.007500721073583" y1="101.09737516637583" y2="101.16192664675087" /><path d="M 14.007167355692545 101.11028546245083 a86.0,86.0 0 0,1 10.666146001902534,-42.60595125391555" fill="none" id="id70" stroke="none" /><text fill="#e1ed5e" style="font-size:6.75px; font-family:Arial;" text-anchor="middle"><textPath startOffset="22.20632615414155" xlink:href="#id70">October</textPath></text><path d="M 79.03285615573316 98.82574320788736 l -24.78232171766064 -1.3879243552402531 a45.821156373817544,45.821156373817544 0 0,0 0.050882013625323394,-0.7871222298714292 l 24.754759113030904 1.814305649364694" fill="#ff2b04" stroke="none" /><path d="M 79.05617556472873 98.46500227214037 l -26.73100474507158 -1.959147035151247 a47.802702695556306,47.802702695556306 0 0,0 0.06720949866235325,-0.8201261190982455 l 26.693320762589728 2.4189870714572708" fill="#ff5607" stroke="none" /><path d="M 80.2630227832202 92.82701384747504 l -25.755490083655193 -9.360287124640786 a48.403653853181275,48.403653853181275 0 0,0 0.2913333212760775,-0.780628459205384 l 25.590552173877487 9.802238720875511" fill="#ff6209" stroke="none" /><path d="M 81.10775173730289 90.83032412892265 l -35.08414615394096 -17.028690496321847 a59.99837959929376,59.99837959929376 0 0,0 0.45895899626889397,-0.9252333304205145 l 34.785827144718645 17.630083415241323" fill="#bbff1f" stroke="none" /><path d="M 81.26839172434947 90.50648371742162 l -20.439514505891612 -10.35911390598094 a43.91473312420726,43.91473312420726 0 0,0 0.34753401859687244,-0.671325106072768 l 20.25817105413463 10.709411734314044" fill="#ff0000" stroke="none" /><line stroke="#e1ed5e" stroke-width="0.3" x1="26.266209847984243" x2="21.928928074336255" y1="57.711370442889674" y2="55.22380399835377" /><path d="M 25.398753493254645 57.213857153982495 a86.0,86.0 0 0,1 29.58750427330803,-30.492523968695096" fill="none" id="id71" stroke="none" /><text fill="#e1ed5e" style="font-size:6.75px; font-family:Arial;" text-anchor="middle"><textPath startOffset="21.46611528233685" xlink:href="#id71">November</textPath></text><path d="M 83.6137871275137 86.86637796730984 l -22.037150796683854 -17.662873752056136 a49.24204532991294,49.24204532991294 0 0,0 0.5358038862441781,-0.6568322103707153 l 21.729848418363282 18.03959013203493" fill="#ff740a" stroke="none" /><path d="M 83.84228863543731 86.58626213691792 l -26.7226442969769 -22.184487488382295 a55.731127297353055,55.731127297353055 0 0,0 0.6191181188985942,-0.7328405728687869 l 26.33681556459118 22.6411870108802" fill="#fff517" stroke="none" /><path d="M 85.57189188830299 84.74124197986013 l -17.251487246659973 -18.244683734446454 a46.109406540012984,46.109406540012984 0 0,0 0.5814003492711114,-0.5403482613484215 l 16.934879013594006 18.53893658186952" fill="#ff3104" stroke="none" /><path d="M 87.80319425747018 82.90503203632743 l -23.24062289648122 -32.573914208191304 a61.01482774496292,61.01482774496292 0 0,0 0.8602185961404971,-0.6026380995453544 l 22.676473160757062 32.9691371505006" fill="#a9ff21" stroke="none" /><line stroke="#e1ed5e" stroke-width="0.3" x1="56.762969772571076" x2="54.21961505331055" y1="26.818313649435495" y2="22.513508569990535" /><path d="M 56.25429882871897 25.957352633546506 a86.0,86.0 0 0,1 42.265352541879196,-11.944610805530505" fill="none" id="id72" stroke="none" /><text fill="#e1ed5e" style="font-size:6.75px; font-family:Arial;" text-anchor="middle"><textPath startOffset="22.20632615414155" xlink:href="#id72">December</textPath></text><path d="M 89.63071344664047 81.73862282372117 l -16.47759497402432 -29.01873482135811 a54.37061741652817,54.37061741652817 0 0,0 0.8178270621029113,-0.45511987461770037 l 15.975643822849364 29.298070093535994" fill="#ffdb14" stroke="none" /><path d="M 91.90106846888425 80.62456947434976 l -9.583925128954881 -22.92804609912743 a45.850491319109274,45.850491319109274 0 0,0 0.7308047158001814,-0.2981135929885132 l 9.187836543566318 23.08962057829952" fill="#ff2b04" stroke="none" /><path d="M 92.23578459929587 80.48803036053334 l -11.801424822872102 -29.65773500120122 a52.91950615613246,52.91950615613246 0 0,0 0.8492744987866621,-0.32950531125824745 l 11.289167159085762 29.85648301635002" fill="#ffbf11" stroke="none" /><path d="M 94.28887869178378 79.79150937346287 l -7.003311187725771 -24.780833894785918 a46.75142901108782,46.75142901108782 0 0,0 0.7763010465701723,-0.21219240096955438 l 6.5757122519318765 24.897712836581768" fill="#ff3f05" stroke="none" /><path d="M 98.91598698831166 79.02799685794201 l -2.625368099467659 -50.79203610788809 a71.85984162030698,71.85984162030698 0 0,0 1.2358495516297654,-0.05321828137177299 l 1.7506777154485695 50.82970211578405" fill="#36ff6c" stroke="none" /></svg>