<?xml version="1.0" encoding="utf-8" ?>
<svg baseProfile="full" height="200mm" version="1.1" viewBox="0,0,200,200" width="200mm" xmlns="http://www.w3.org/2000/svg" xmlns:ev="http://www.w3.org/2001/xml-events" xmlns:xlink="http://www.w3.org/1999/xlink"><defs /><rect fill="#1a1a1a" height="200" width="200" x="0" y="0" /><text alignment-baseline="middle" fill="#e1ed5e" style="dominant-baseline: central; font-size:9.0px; font-family:Arial;" text-anchor="middle" x="100.0" y="100.0">2019</text><line stroke="#e1ed5e" stroke-width="0.3" x1="100.0" x2="100.0" y1="15.0" y2="10.0" /><path d="M 100.0 14.0 a86.0,86.0 0 0,1 42.46469731375804,11.215312516191453" fill="none" id="id13" stroke="none" /><text fill="#e1ed5e" style="font-size:6.75px; font-family:Arial;" text-anchor="middle"><textPath startOffset="22.20632615414155" xlink:href="#id13">January</textPath></text><line stroke="#e1ed5e" stroke-width="0.3" x1="143.23703022742887" x2="145.7803849466894" y1="26.81831364943548" y2="22.513508569990506" /><path d="M 143.74570117128098 25.957352633546492 a86.0,86.0 0 0,1 28.547481713284135,27.462654790039103" fill="none" id="id14" stroke="none" /><text fill="#e1ed5e" style="font-size:6.75px; font-family:Arial;" text-anchor="middle"><textPath startOffset="19.985693538727396" xlink:href="#id14">February</textPath></text><path d="M 113.6212207817346 84.01681056812373 l 40.86366234520383 -47.94956829562881 a84.0,84.0 0 0,0 1.0924248054129433,0.947340026321315 l -41.68298094926353 47.23906327588782" fill="#4dd2ff" stroke="none" /><line stroke="#e1ed5e" stroke-width="0.3" x1="172.23445277983987" x2="176.4835382374775" y1="55.19839476539836" y2="52.563006222186495" /><path d="M 173.08426987136738 54.67131705675599 a86.0,86.0 0 0,1 12.851231095245387,41.99856678651699" fill="none" id="id15" stroke="none" /><text fill="#e1ed5e" style="font-size:6.75px; font-family:Arial;" text-anchor="middle"><textPath startOffset="22.20632615414155" xlink:href="#id15">March</textPath></text><path d="M 119.47837535516314 92.15188598940014 l 22.333821684593218 -8.9986138821703 a45.0785099796394,45.0785099796394 0 0,0 0.28379379909668884,0.7222242638316662 l -22.485409033571607 8.612840613442849" fill="#ff4106" stroke="none" /><path d="M 120.96714384426684 98.82574320788733 l 43.17243915195837 -2.4178557786791712 a64.24009168463962,64.24009168463962 0 0,0 0.052329341689216706,1.1045896960401693 l -43.20766210188109 1.6743549760160021" fill="#64ff29" stroke="none" /><line stroke="#e1ed5e" stroke-width="0.3" x1="184.98032266829074" x2="189.97916517819016" y1="98.17113171792111" y2="98.06355123074" /><path d="M 185.9800911702706 98.14961562048488 a86.0,86.0 0 0,1 -9.607161424134198,41.387399972396054" fill="none" id="id16" stroke="none" /><text fill="#e1ed5e" style="font-size:6.75px; font-family:Arial;" text-anchor="middle"><textPath startOffset="21.466115282336823" xlink:href="#id16">April</textPath></text><path d="M 120.95626037817324 101.35467743843564 l 25.40391485203518 1.6421875695835404 a46.45693755782789,46.45693755782789 0 0,0 -0.05845486496160919,0.7975701897947183 l -25.371883428409234 -2.0792308958750287" fill="#ff5e08" stroke="none" /><line stroke="#e1ed5e" stroke-width="0.3" x1="174.80103733775053" x2="179.2010983576182" y1="140.37084112569926" y2="142.7455964860345" /><path d="M 175.68104954172406 140.8457921977663 a86.0,86.0 0 0,1 -30.038265399797805,32.042727171017184" fill="none" id="id17" stroke="none" /><text fill="#e1ed5e" style="font-size:6.75px; font-family:Arial;" text-anchor="middle"><textPath startOffset="22.206326154141568" xlink:href="#id17">May</textPath></text><line stroke="#e1ed5e" stroke-width="0.3" x1="143.8653032363475" x2="146.44561519142675" y1="172.8068346515853" y2="177.08958963109032" /><path d="M 144.38136562736335 173.6633856474863 a86.0,86.0 0 0,1 -40.68145358897372,12.25698825130547" fill="none" id="id18" stroke="none" /><text fill="#e1ed5e" style="font-size:6.75px; font-family:Arial;" text-anchor="middle"><textPath startOffset="21.466115282336833" xlink:href="#id18">June</textPath></text><line stroke="#e1ed5e" stroke-width="0.3" x1="102.19456741930631" x2="102.32365962044197" y1="184.97166512339345" y2="189.96999836594603" /><path d="M 102.22038585953345 185.97133177190398 a86.0,86.0 0 0,1 -42.740103519485714,-10.115201625700543" fill="none" id="id19" stroke="none" /><text fill="#e1ed5e" style="font-size:6.75px; font-family:Arial;" text-anchor="middle"><textPath startOffset="22.20632615414155" xlink:href="#id19">July</textPath></text><line stroke="#e1ed5e" stroke-width="0.3" x1="58.666819895761336" x2="56.23545636021788" y1="174.27360380694188" y2="178.64263932499728" /><path d="M 58.180547188652646 175.14741091055294 a86.0,86.0 0 0,1 -31.652253787137756,-30.449443065178592" fill="none" id="id20" stroke="none" /><text fill="#e1ed5e" style="font-size:6.75px; font-family:Arial;" text-anchor="middle"><textPath startOffset="22.20632615414155" xlink:href="#id20">August</textPath></text><line stroke="#e1ed5e" stroke-width="0.3" x1="26.63291911575756" x2="22.317208475507996" y1="142.92168965132927" y2="145.44649492493687" /><path d="M 25.769776987707644 143.4266507060508 a86.0,86.0 0 0,1 -11.730757126820373,-40.83630448921669" fill="none" id="id21" stroke="none" /><text fill="#e1ed5e" style="font-size:6.75px; font-family:Arial;" text-anchor="middle"><textPath startOffset="21.46611528233685" xlink:href="#id21">September</textPath></text><path d="M 80.87730276802145 108.67885076344099 l -48.888713024097235 22.188179795227228 a74.68818849409863,74.68818849409863 0 0,0 -0.5212485661467046,-1.1752779110581897 l 49.26340267497522 -21.343353547676344" fill="#3cffa4" stroke="none" /><path d="M 79.97269907076064 106.31721596034903 l -20.689830362715732 6.526197766042449 a42.694707597002804,42.694707597002804 0 0,0 -0.215045572354382,-0.7027813729076687 l 20.799102707576242 -6.169089420582733" fill="#ff0f01" stroke="none" /><path d="M 79.29508885075956 103.50808413554451 l -37.495659207577596 6.352981969821777 a59.03005179222978,59.03005179222978 0 0,0 -0.16111900041394073,-1.0032881693777211 l 37.59945996235283 -5.706614570750842" fill="#b7ff1f" stroke="none" /><line stroke="#e1ed5e" stroke-width="0.3" x1="15.007084014347285" x2="10.007500721073583" y1="101.09737516637583" y2="101.16192664675087" /><path d="M 14.007167355692545 101.11028546245083 a86.0,86.0 0 0,1 10.666146001902534,-42.60595125391555" fill="none" id="id22" stroke="none" /><text fill="#e1ed5e" style="font-size:6.75px; font-family:Arial;" text-anchor="middle"><textPath startOffset="22.20632615414155" xlink:href="#id22">October</textPath></text><path d="M 79.3925641242962 95.95851677861259 l -37.523380488695715 -7.358999613998323 a59.23818717745727,59.23818717745727 0 0,0 0.20485327912125179,-0.9989373411565048 l 37.391147913659466 8.00381261131823" fill="#b4ff20" stroke="none" /><path d="M 80.02781315780177 93.51064311812611 l -48.088535233302274 -15.624912260289976 a71.56327821676828,71.56327821676828 0 0,0 0.3907447212808677,-1.1682769817029164 l 47.81245321824963 16.450362344915213" fill="#36ff70" stroke="none" /><path d="M 80.95270993114464 91.15688171328213 l -24.918140681871677 -11.568788249577494 a48.472724593769556,48.472724593769556 0 0,0 0.35787137002044683,-0.7537683738411024 l 24.71531111800948 11.995999039059129" fill="#ff860c" stroke="none" /><line stroke="#e1ed5e" stroke-width="0.3" x1="26.266209847984243" x2="21.928928074336255" y1="57.711370442889674" y2="55.22380399835377" /><path d="M 25.398753493254645 57.213857153982495 a86.0,86.0 0 0,1 29.58750427330803,-30.492523968695096" fill="none" id="id23" stroke="none" /><text fill="#e1ed5e" style="font-size:6.75px; font-family:Arial;" text-anchor="middle"><textPath startOffset="21.46611528233685" xlink:href="#id23">November</textPath></text><path d="M 81.96595687620814 89.24020034530311 l -47.33699700107201 -28.243062328855547 a76.12224464579721,76.12224464579721 0 0,0 0.6810555794255669,-1.1194763010684479 l 46.843825623360225 29.05370640313107" fill="#3fffba" stroke="none" /><path d="M 85.05521093208273 85.24692304244772 l -14.933573123852335 -14.74200489188514 a41.984239668804065,41.984239668804065 0 0,0 0.5121361504925209,-0.5099368751059735 l 14.677601173192501 14.996877617641223" fill="#ff0000" stroke="none" /><path d="M 85.31137513191541 84.99185889309783 l -34.380891597493886 -35.12876645093202 a70.15359538632705,70.15359538632705 0 0,0 0.8702946247129567,-0.8372227394403279 l 33.7711137291685 35.71537227713466" fill="#34ff58" stroke="none" /><path d="M 89.00827224532344 82.1063720568725 l -27.320552196762563 -44.47560994236518 a73.19667089078996,73.19667089078996 0 0,0 1.0792602825890927,-0.6502422443342122 l 26.55092984795582 44.93929879615801" fill="#39ff8c" stroke="none" /><line stroke="#e1ed5e" stroke-width="0.3" x1="56.762969772571076" x2="54.21961505331055" y1="26.818313649435495" y2="22.513508569990535" /><path d="M 56.25429882871897 25.957352633546506 a86.0,86.0 0 0,1 42.265352541879196,-11.944610805530505" fill="none" id="id24" stroke="none" /><text fill="#e1ed5e" style="font-size:6.75px; font-family:Arial;" text-anchor="middle"><textPath startOffset="22.20632615414155" xlink:href="#id24">December</textPath></text><path d="M 89.3179101791058 81.91981866633112 l -13.10082345003984 -22.174056534685985 a46.75500647005479,46.75500647005479 0 0,0 0.6964342284494398,-0.4034196568369225 l 12.717192489125079 22.396280348912956" fill="#ff6409" stroke="none" /><path d="M 93.94186890950719 79.89281104454417 l -15.41082012477797 -51.1491526972298 a74.42030698678914,74.42030698678914 0 0,0 1.2297416440210405,-0.3589953076259606 l 14.528088263033508 51.40684633377447" fill="#3bff9f" stroke="none" /></svg>